G75*
G70*
%OFA0B0*%
%FSLAX25Y25*%
%IPPOS*%
%LPD*%
%AMOC8*
5,1,8,0,0,1.08239X$1,22.5*
%
%AMM100*
21,1,0.143310,0.067720,0.000000,0.000000,0.000000*
21,1,0.120870,0.090160,0.000000,0.000000,0.000000*
1,1,0.022440,0.060430,-0.033860*
1,1,0.022440,-0.060430,-0.033860*
1,1,0.022440,-0.060430,0.033860*
1,1,0.022440,0.060430,0.033860*
%
%AMM101*
21,1,0.048820,0.075980,0.000000,0.000000,0.000000*
21,1,0.034650,0.090160,0.000000,0.000000,0.000000*
1,1,0.014170,0.017320,-0.037990*
1,1,0.014170,-0.017320,-0.037990*
1,1,0.014170,-0.017320,0.037990*
1,1,0.014170,0.017320,0.037990*
%
%AMM102*
21,1,0.048820,0.075990,0.000000,0.000000,0.000000*
21,1,0.034650,0.090160,0.000000,0.000000,0.000000*
1,1,0.014170,0.017320,-0.037990*
1,1,0.014170,-0.017320,-0.037990*
1,1,0.014170,-0.017320,0.037990*
1,1,0.014170,0.017320,0.037990*
%
%AMM103*
21,1,0.033070,0.030710,0.000000,0.000000,180.000000*
21,1,0.022050,0.041730,0.000000,0.000000,180.000000*
1,1,0.011020,-0.011020,0.015350*
1,1,0.011020,0.011020,0.015350*
1,1,0.011020,0.011020,-0.015350*
1,1,0.011020,-0.011020,-0.015350*
%
%AMM104*
21,1,0.040950,0.030320,0.000000,0.000000,270.000000*
21,1,0.028350,0.042910,0.000000,0.000000,270.000000*
1,1,0.012600,-0.015160,-0.014170*
1,1,0.012600,-0.015160,0.014170*
1,1,0.012600,0.015160,0.014170*
1,1,0.012600,0.015160,-0.014170*
%
%AMM105*
21,1,0.029130,0.030710,0.000000,0.000000,180.000000*
21,1,0.018900,0.040950,0.000000,0.000000,180.000000*
1,1,0.010240,-0.009450,0.015350*
1,1,0.010240,0.009450,0.015350*
1,1,0.010240,0.009450,-0.015350*
1,1,0.010240,-0.009450,-0.015350*
%
%AMM106*
21,1,0.041340,0.026770,0.000000,0.000000,270.000000*
21,1,0.029130,0.038980,0.000000,0.000000,270.000000*
1,1,0.012210,-0.013390,-0.014570*
1,1,0.012210,-0.013390,0.014570*
1,1,0.012210,0.013390,0.014570*
1,1,0.012210,0.013390,-0.014570*
%
%AMM107*
21,1,0.040950,0.030320,0.000000,0.000000,180.000000*
21,1,0.028350,0.042910,0.000000,0.000000,180.000000*
1,1,0.012600,-0.014170,0.015160*
1,1,0.012600,0.014170,0.015160*
1,1,0.012600,0.014170,-0.015160*
1,1,0.012600,-0.014170,-0.015160*
%
%AMM108*
21,1,0.033070,0.049610,0.000000,0.000000,270.000000*
21,1,0.022050,0.060630,0.000000,0.000000,270.000000*
1,1,0.011020,-0.024800,-0.011020*
1,1,0.011020,-0.024800,0.011020*
1,1,0.011020,0.024800,0.011020*
1,1,0.011020,0.024800,-0.011020*
%
%AMM109*
21,1,0.041340,0.026770,0.000000,0.000000,180.000000*
21,1,0.029130,0.038980,0.000000,0.000000,180.000000*
1,1,0.012210,-0.014570,0.013390*
1,1,0.012210,0.014570,0.013390*
1,1,0.012210,0.014570,-0.013390*
1,1,0.012210,-0.014570,-0.013390*
%
%AMM115*
21,1,0.076380,0.036220,0.000000,0.000000,180.000000*
21,1,0.061810,0.050790,0.000000,0.000000,180.000000*
1,1,0.014570,-0.030910,0.018110*
1,1,0.014570,0.030910,0.018110*
1,1,0.014570,0.030910,-0.018110*
1,1,0.014570,-0.030910,-0.018110*
%
%AMM116*
21,1,0.076380,0.036220,0.000000,0.000000,90.000000*
21,1,0.061810,0.050790,0.000000,0.000000,90.000000*
1,1,0.014570,0.018110,0.030910*
1,1,0.014570,0.018110,-0.030910*
1,1,0.014570,-0.018110,-0.030910*
1,1,0.014570,-0.018110,0.030910*
%
%AMM117*
21,1,0.092130,0.073230,0.000000,0.000000,90.000000*
21,1,0.069290,0.096060,0.000000,0.000000,90.000000*
1,1,0.022840,0.036610,0.034650*
1,1,0.022840,0.036610,-0.034650*
1,1,0.022840,-0.036610,-0.034650*
1,1,0.022840,-0.036610,0.034650*
%
%AMM118*
21,1,0.027170,0.038980,0.000000,0.000000,0.000000*
21,1,0.017320,0.048820,0.000000,0.000000,0.000000*
1,1,0.009840,0.008660,-0.019490*
1,1,0.009840,-0.008660,-0.019490*
1,1,0.009840,-0.008660,0.019490*
1,1,0.009840,0.008660,0.019490*
%
%AMM119*
21,1,0.098030,0.119290,0.000000,0.000000,180.000000*
21,1,0.074020,0.143310,0.000000,0.000000,180.000000*
1,1,0.024020,-0.037010,0.059650*
1,1,0.024020,0.037010,0.059650*
1,1,0.024020,0.037010,-0.059650*
1,1,0.024020,-0.037010,-0.059650*
%
%AMM123*
21,1,0.084250,0.045670,0.000000,0.000000,270.000000*
21,1,0.067320,0.062600,0.000000,0.000000,270.000000*
1,1,0.016930,-0.022840,-0.033660*
1,1,0.016930,-0.022840,0.033660*
1,1,0.016930,0.022840,0.033660*
1,1,0.016930,0.022840,-0.033660*
%
%AMM124*
21,1,0.064570,0.020470,0.000000,0.000000,270.000000*
21,1,0.053940,0.031100,0.000000,0.000000,270.000000*
1,1,0.010630,-0.010240,-0.026970*
1,1,0.010630,-0.010240,0.026970*
1,1,0.010630,0.010240,0.026970*
1,1,0.010630,0.010240,-0.026970*
%
%AMM125*
21,1,0.033070,0.030710,0.000000,0.000000,270.000000*
21,1,0.022050,0.041730,0.000000,0.000000,270.000000*
1,1,0.011020,-0.015350,-0.011020*
1,1,0.011020,-0.015350,0.011020*
1,1,0.011020,0.015350,0.011020*
1,1,0.011020,0.015350,-0.011020*
%
%AMM134*
21,1,0.100000,0.111020,0.000000,0.000000,180.000000*
21,1,0.075590,0.135430,0.000000,0.000000,180.000000*
1,1,0.024410,-0.037800,0.055510*
1,1,0.024410,0.037800,0.055510*
1,1,0.024410,0.037800,-0.055510*
1,1,0.024410,-0.037800,-0.055510*
%
%AMM135*
21,1,0.029130,0.018900,0.000000,0.000000,270.000000*
21,1,0.018900,0.029130,0.000000,0.000000,270.000000*
1,1,0.010240,-0.009450,-0.009450*
1,1,0.010240,-0.009450,0.009450*
1,1,0.010240,0.009450,0.009450*
1,1,0.010240,0.009450,-0.009450*
%
%AMM136*
21,1,0.041340,0.026770,0.000000,0.000000,0.000000*
21,1,0.029130,0.038980,0.000000,0.000000,0.000000*
1,1,0.012210,0.014570,-0.013390*
1,1,0.012210,-0.014570,-0.013390*
1,1,0.012210,-0.014570,0.013390*
1,1,0.012210,0.014570,0.013390*
%
%AMM137*
21,1,0.029130,0.018900,0.000000,0.000000,180.000000*
21,1,0.018900,0.029130,0.000000,0.000000,180.000000*
1,1,0.010240,-0.009450,0.009450*
1,1,0.010240,0.009450,0.009450*
1,1,0.010240,0.009450,-0.009450*
1,1,0.010240,-0.009450,-0.009450*
%
%AMM138*
21,1,0.040950,0.030320,0.000000,0.000000,0.000000*
21,1,0.028350,0.042910,0.000000,0.000000,0.000000*
1,1,0.012600,0.014170,-0.015160*
1,1,0.012600,-0.014170,-0.015160*
1,1,0.012600,-0.014170,0.015160*
1,1,0.012600,0.014170,0.015160*
%
%AMM139*
21,1,0.084250,0.070870,0.000000,0.000000,270.000000*
21,1,0.062990,0.092130,0.000000,0.000000,270.000000*
1,1,0.021260,-0.035430,-0.031500*
1,1,0.021260,-0.035430,0.031500*
1,1,0.021260,0.035430,0.031500*
1,1,0.021260,0.035430,-0.031500*
%
%AMM140*
21,1,0.056690,0.068500,0.000000,0.000000,180.000000*
21,1,0.040950,0.084250,0.000000,0.000000,180.000000*
1,1,0.015750,-0.020470,0.034250*
1,1,0.015750,0.020470,0.034250*
1,1,0.015750,0.020470,-0.034250*
1,1,0.015750,-0.020470,-0.034250*
%
%AMM141*
21,1,0.041340,0.026770,0.000000,0.000000,90.000000*
21,1,0.029130,0.038980,0.000000,0.000000,90.000000*
1,1,0.012210,0.013390,0.014570*
1,1,0.012210,0.013390,-0.014570*
1,1,0.012210,-0.013390,-0.014570*
1,1,0.012210,-0.013390,0.014570*
%
%AMM143*
21,1,0.027170,0.052760,0.000000,0.000000,270.000000*
21,1,0.017320,0.062600,0.000000,0.000000,270.000000*
1,1,0.009840,-0.026380,-0.008660*
1,1,0.009840,-0.026380,0.008660*
1,1,0.009840,0.026380,0.008660*
1,1,0.009840,0.026380,-0.008660*
%
%AMM149*
21,1,0.076380,0.036220,0.000000,0.000000,270.000000*
21,1,0.061810,0.050790,0.000000,0.000000,270.000000*
1,1,0.014570,-0.018110,-0.030910*
1,1,0.014570,-0.018110,0.030910*
1,1,0.014570,0.018110,0.030910*
1,1,0.014570,0.018110,-0.030910*
%
%AMM150*
21,1,0.040950,0.030320,0.000000,0.000000,90.000000*
21,1,0.028350,0.042910,0.000000,0.000000,90.000000*
1,1,0.012600,0.015160,0.014170*
1,1,0.012600,0.015160,-0.014170*
1,1,0.012600,-0.015160,-0.014170*
1,1,0.012600,-0.015160,0.014170*
%
%AMM151*
21,1,0.048820,0.075980,0.000000,0.000000,180.000000*
21,1,0.034650,0.090160,0.000000,0.000000,180.000000*
1,1,0.014170,-0.017320,0.037990*
1,1,0.014170,0.017320,0.037990*
1,1,0.014170,0.017320,-0.037990*
1,1,0.014170,-0.017320,-0.037990*
%
%AMM152*
21,1,0.048820,0.075990,0.000000,0.000000,180.000000*
21,1,0.034650,0.090160,0.000000,0.000000,180.000000*
1,1,0.014170,-0.017320,0.037990*
1,1,0.014170,0.017320,0.037990*
1,1,0.014170,0.017320,-0.037990*
1,1,0.014170,-0.017320,-0.037990*
%
%AMM153*
21,1,0.143310,0.067720,0.000000,0.000000,180.000000*
21,1,0.120870,0.090160,0.000000,0.000000,180.000000*
1,1,0.022440,-0.060430,0.033860*
1,1,0.022440,0.060430,0.033860*
1,1,0.022440,0.060430,-0.033860*
1,1,0.022440,-0.060430,-0.033860*
%
%AMM43*
21,1,0.038980,0.026770,0.000000,0.000000,0.000000*
21,1,0.026770,0.038980,0.000000,0.000000,0.000000*
1,1,0.012210,0.013390,-0.013390*
1,1,0.012210,-0.013390,-0.013390*
1,1,0.012210,-0.013390,0.013390*
1,1,0.012210,0.013390,0.013390*
%
%AMM44*
21,1,0.044880,0.049210,0.000000,0.000000,0.000000*
21,1,0.031500,0.062600,0.000000,0.000000,0.000000*
1,1,0.013390,0.015750,-0.024610*
1,1,0.013390,-0.015750,-0.024610*
1,1,0.013390,-0.015750,0.024610*
1,1,0.013390,0.015750,0.024610*
%
%AMM45*
21,1,0.033070,0.030710,0.000000,0.000000,0.000000*
21,1,0.022050,0.041730,0.000000,0.000000,0.000000*
1,1,0.011020,0.011020,-0.015350*
1,1,0.011020,-0.011020,-0.015350*
1,1,0.011020,-0.011020,0.015350*
1,1,0.011020,0.011020,0.015350*
%
%AMM46*
21,1,0.015350,0.017720,0.000000,0.000000,180.000000*
21,1,0.000000,0.033070,0.000000,0.000000,180.000000*
1,1,0.015350,0.000000,0.008860*
1,1,0.015350,0.000000,0.008860*
1,1,0.015350,0.000000,-0.008860*
1,1,0.015350,0.000000,-0.008860*
%
%AMM47*
21,1,0.033070,0.030710,0.000000,0.000000,90.000000*
21,1,0.022050,0.041730,0.000000,0.000000,90.000000*
1,1,0.011020,0.015350,0.011020*
1,1,0.011020,0.015350,-0.011020*
1,1,0.011020,-0.015350,-0.011020*
1,1,0.011020,-0.015350,0.011020*
%
%AMM48*
21,1,0.037010,0.072440,0.000000,0.000000,0.000000*
21,1,0.025200,0.084250,0.000000,0.000000,0.000000*
1,1,0.011810,0.012600,-0.036220*
1,1,0.011810,-0.012600,-0.036220*
1,1,0.011810,-0.012600,0.036220*
1,1,0.011810,0.012600,0.036220*
%
%AMM49*
21,1,0.056690,0.048820,0.000000,0.000000,0.000000*
21,1,0.040950,0.064570,0.000000,0.000000,0.000000*
1,1,0.015750,0.020470,-0.024410*
1,1,0.015750,-0.020470,-0.024410*
1,1,0.015750,-0.020470,0.024410*
1,1,0.015750,0.020470,0.024410*
%
%AMM50*
21,1,0.029130,0.018900,0.000000,0.000000,90.000000*
21,1,0.018900,0.029130,0.000000,0.000000,90.000000*
1,1,0.010240,0.009450,0.009450*
1,1,0.010240,0.009450,-0.009450*
1,1,0.010240,-0.009450,-0.009450*
1,1,0.010240,-0.009450,0.009450*
%
%AMM51*
21,1,0.044880,0.035430,0.000000,0.000000,270.000000*
21,1,0.031500,0.048820,0.000000,0.000000,270.000000*
1,1,0.013390,-0.017720,-0.015750*
1,1,0.013390,-0.017720,0.015750*
1,1,0.013390,0.017720,0.015750*
1,1,0.013390,0.017720,-0.015750*
%
%AMM52*
21,1,0.044880,0.049210,0.000000,0.000000,90.000000*
21,1,0.031500,0.062600,0.000000,0.000000,90.000000*
1,1,0.013390,0.024610,0.015750*
1,1,0.013390,0.024610,-0.015750*
1,1,0.013390,-0.024610,-0.015750*
1,1,0.013390,-0.024610,0.015750*
%
%AMM53*
21,1,0.031100,0.026380,0.000000,0.000000,270.000000*
21,1,0.020470,0.037010,0.000000,0.000000,270.000000*
1,1,0.010630,-0.013190,-0.010240*
1,1,0.010630,-0.013190,0.010240*
1,1,0.010630,0.013190,0.010240*
1,1,0.010630,0.013190,-0.010240*
%
%AMM54*
21,1,0.023230,0.027950,0.000000,0.000000,270.000000*
21,1,0.014170,0.037010,0.000000,0.000000,270.000000*
1,1,0.009060,-0.013980,-0.007090*
1,1,0.009060,-0.013980,0.007090*
1,1,0.009060,0.013980,0.007090*
1,1,0.009060,0.013980,-0.007090*
%
%AMM55*
21,1,0.031100,0.026380,0.000000,0.000000,180.000000*
21,1,0.020470,0.037010,0.000000,0.000000,180.000000*
1,1,0.010630,-0.010240,0.013190*
1,1,0.010630,0.010240,0.013190*
1,1,0.010630,0.010240,-0.013190*
1,1,0.010630,-0.010240,-0.013190*
%
%AMM56*
21,1,0.023230,0.027950,0.000000,0.000000,180.000000*
21,1,0.014170,0.037010,0.000000,0.000000,180.000000*
1,1,0.009060,-0.007090,0.013980*
1,1,0.009060,0.007090,0.013980*
1,1,0.009060,0.007090,-0.013980*
1,1,0.009060,-0.007090,-0.013980*
%
%AMM57*
21,1,0.038980,0.026770,0.000000,0.000000,90.000000*
21,1,0.026770,0.038980,0.000000,0.000000,90.000000*
1,1,0.012210,0.013390,0.013390*
1,1,0.012210,0.013390,-0.013390*
1,1,0.012210,-0.013390,-0.013390*
1,1,0.012210,-0.013390,0.013390*
%
%AMM58*
21,1,0.029130,0.018900,0.000000,0.000000,0.000000*
21,1,0.018900,0.029130,0.000000,0.000000,0.000000*
1,1,0.010240,0.009450,-0.009450*
1,1,0.010240,-0.009450,-0.009450*
1,1,0.010240,-0.009450,0.009450*
1,1,0.010240,0.009450,0.009450*
%
%AMM59*
21,1,0.044880,0.035430,0.000000,0.000000,180.000000*
21,1,0.031500,0.048820,0.000000,0.000000,180.000000*
1,1,0.013390,-0.015750,0.017720*
1,1,0.013390,0.015750,0.017720*
1,1,0.013390,0.015750,-0.017720*
1,1,0.013390,-0.015750,-0.017720*
%
%AMM76*
21,1,0.040950,0.050000,0.000000,0.000000,270.000000*
21,1,0.028350,0.062600,0.000000,0.000000,270.000000*
1,1,0.012600,-0.025000,-0.014170*
1,1,0.012600,-0.025000,0.014170*
1,1,0.012600,0.025000,0.014170*
1,1,0.012600,0.025000,-0.014170*
%
%AMM77*
21,1,0.092130,0.073230,0.000000,0.000000,270.000000*
21,1,0.069290,0.096060,0.000000,0.000000,270.000000*
1,1,0.022840,-0.036610,-0.034650*
1,1,0.022840,-0.036610,0.034650*
1,1,0.022840,0.036610,0.034650*
1,1,0.022840,0.036610,-0.034650*
%
%AMM78*
21,1,0.044880,0.049210,0.000000,0.000000,180.000000*
21,1,0.031500,0.062600,0.000000,0.000000,180.000000*
1,1,0.013390,-0.015750,0.024610*
1,1,0.013390,0.015750,0.024610*
1,1,0.013390,0.015750,-0.024610*
1,1,0.013390,-0.015750,-0.024610*
%
%AMM79*
21,1,0.029130,0.030710,0.000000,0.000000,90.000000*
21,1,0.018900,0.040950,0.000000,0.000000,90.000000*
1,1,0.010240,0.015350,0.009450*
1,1,0.010240,0.015350,-0.009450*
1,1,0.010240,-0.015350,-0.009450*
1,1,0.010240,-0.015350,0.009450*
%
%AMM80*
21,1,0.031100,0.026380,0.000000,0.000000,0.000000*
21,1,0.020470,0.037010,0.000000,0.000000,0.000000*
1,1,0.010630,0.010240,-0.013190*
1,1,0.010630,-0.010240,-0.013190*
1,1,0.010630,-0.010240,0.013190*
1,1,0.010630,0.010240,0.013190*
%
%AMM81*
21,1,0.023230,0.027950,0.000000,0.000000,0.000000*
21,1,0.014170,0.037010,0.000000,0.000000,0.000000*
1,1,0.009060,0.007090,-0.013980*
1,1,0.009060,-0.007090,-0.013980*
1,1,0.009060,-0.007090,0.013980*
1,1,0.009060,0.007090,0.013980*
%
%AMM82*
21,1,0.038980,0.026770,0.000000,0.000000,270.000000*
21,1,0.026770,0.038980,0.000000,0.000000,270.000000*
1,1,0.012210,-0.013390,-0.013390*
1,1,0.012210,-0.013390,0.013390*
1,1,0.012210,0.013390,0.013390*
1,1,0.012210,0.013390,-0.013390*
%
%AMM83*
21,1,0.038980,0.026770,0.000000,0.000000,180.000000*
21,1,0.026770,0.038980,0.000000,0.000000,180.000000*
1,1,0.012210,-0.013390,0.013390*
1,1,0.012210,0.013390,0.013390*
1,1,0.012210,0.013390,-0.013390*
1,1,0.012210,-0.013390,-0.013390*
%
%AMM98*
21,1,0.031100,0.026380,0.000000,0.000000,90.000000*
21,1,0.020470,0.037010,0.000000,0.000000,90.000000*
1,1,0.010630,0.013190,0.010240*
1,1,0.010630,0.013190,-0.010240*
1,1,0.010630,-0.013190,-0.010240*
1,1,0.010630,-0.013190,0.010240*
%
%AMM99*
21,1,0.023230,0.027950,0.000000,0.000000,90.000000*
21,1,0.014170,0.037010,0.000000,0.000000,90.000000*
1,1,0.009060,0.013980,0.007090*
1,1,0.009060,0.013980,-0.007090*
1,1,0.009060,-0.013980,-0.007090*
1,1,0.009060,-0.013980,0.007090*
%
%ADD10M54*%
%ADD100M149*%
%ADD102O,0.01417X0.05669*%
%ADD103O,0.09213X0.02913*%
%ADD104C,0.03651*%
%ADD105C,0.04451*%
%ADD11M81*%
%ADD111M103*%
%ADD112M139*%
%ADD113M45*%
%ADD115M52*%
%ADD122O,0.04567X0.11772*%
%ADD123M43*%
%ADD124M82*%
%ADD126M119*%
%ADD129M107*%
%ADD134O,0.01535X0.02520*%
%ADD142O,0.04488X0.06457*%
%ADD148M78*%
%ADD157M98*%
%ADD158M141*%
%ADD159O,0.02913X0.09213*%
%ADD164M58*%
%ADD165M137*%
%ADD17M55*%
%ADD170M104*%
%ADD180M50*%
%ADD188M99*%
%ADD19C,0.06951*%
%ADD194C,0.03701*%
%ADD195M105*%
%ADD203M143*%
%ADD204O,0.05669X0.01417*%
%ADD206M153*%
%ADD208M46*%
%ADD214M140*%
%ADD217R,0.07244X0.10000*%
%ADD221O,0.04488X0.02520*%
%ADD229M79*%
%ADD233M151*%
%ADD236M53*%
%ADD24M100*%
%ADD241O,0.06457X0.10000*%
%ADD247O,0.02520X0.01535*%
%ADD248M44*%
%ADD249R,0.06457X0.06457*%
%ADD252M59*%
%ADD254M56*%
%ADD255O,0.01339X0.03307*%
%ADD262M135*%
%ADD264C,0.00551*%
%ADD268M134*%
%ADD269M136*%
%ADD27M123*%
%ADD271M109*%
%ADD272M51*%
%ADD276M118*%
%ADD280M116*%
%ADD287M47*%
%ADD289M102*%
%ADD29M108*%
%ADD293M57*%
%ADD294R,0.06457X0.05669*%
%ADD30O,0.05512X0.01535*%
%ADD32C,0.16299*%
%ADD34M150*%
%ADD35O,0.02520X0.04488*%
%ADD41C,0.06693*%
%ADD49O,0.01339X0.02520*%
%ADD50R,0.06693X0.06693*%
%ADD51M80*%
%ADD54M115*%
%ADD56O,0.01339X0.02126*%
%ADD57M101*%
%ADD58M124*%
%ADD59O,0.04882X0.01732*%
%ADD63M152*%
%ADD65M49*%
%ADD69R,0.01535X0.01929*%
%ADD71C,0.06551*%
%ADD77R,0.01929X0.01535*%
%ADD78C,0.06457*%
%ADD82O,0.03701X0.02913*%
%ADD83M76*%
%ADD86M138*%
%ADD87M77*%
%ADD88M83*%
%ADD89C,0.02913*%
%ADD91M106*%
%ADD92M125*%
%ADD96M117*%
%ADD97M48*%
X0000000Y0000000D02*
G01*
G75*
G36*
X0169961Y0463695D02*
X0169819Y0463695D01*
X0169819Y0466398D01*
X0169961Y0466398D01*
X0169961Y0463695D01*
D02*
G37*
G36*
X0169961Y0467025D02*
X0169722Y0467025D01*
X0169722Y0468366D01*
X0169961Y0468366D01*
X0169961Y0467025D01*
D02*
G37*
G36*
X0169961Y0470329D02*
X0169772Y0470329D01*
X0169772Y0470335D01*
X0169961Y0470335D01*
X0169961Y0470329D01*
D02*
G37*
D221*
X0340158Y0231102D02*
D03*
X0516417Y0382973D02*
D03*
X0516417Y0390453D02*
D03*
D49*
X0279035Y0215158D02*
D03*
D294*
X0057382Y0090650D02*
D03*
X0057382Y0083169D02*
D03*
D123*
X0078799Y0083563D02*
D03*
X0072579Y0083563D02*
D03*
X0168268Y0458465D02*
D03*
X0162047Y0458465D02*
D03*
X0061654Y0414764D02*
D03*
X0067874Y0414764D02*
D03*
D247*
X0212480Y0413996D02*
D03*
X0152559Y0179232D02*
D03*
X0152559Y0169783D02*
D03*
X0222736Y0177756D02*
D03*
X0222736Y0174311D02*
D03*
X0222736Y0171555D02*
D03*
D134*
X0171732Y0414193D02*
D03*
X0173701Y0414193D02*
D03*
D35*
X0443504Y0451968D02*
D03*
D255*
X0458347Y0445571D02*
D03*
D134*
X0437972Y0404626D02*
D03*
D142*
X0425301Y0198971D02*
D03*
X0481896Y0198971D02*
D03*
X0486840Y0198971D02*
D03*
D82*
X0389652Y0212736D02*
D03*
D248*
X0323721Y0415256D02*
D03*
X0331201Y0415256D02*
D03*
X0323721Y0408465D02*
D03*
X0331201Y0408465D02*
D03*
D113*
X0509350Y0338287D02*
D03*
X0515650Y0338287D02*
D03*
D77*
X0162795Y0467618D02*
D03*
X0162795Y0465650D02*
D03*
X0162795Y0469587D02*
D03*
X0162795Y0463681D02*
D03*
X0169095Y0469587D02*
D03*
X0169095Y0467618D02*
D03*
X0169095Y0465650D02*
D03*
X0169095Y0463681D02*
D03*
D69*
X0164961Y0469783D02*
D03*
X0166929Y0469783D02*
D03*
X0166929Y0463484D02*
D03*
X0164961Y0463484D02*
D03*
D208*
X0296870Y0257283D02*
D03*
D56*
X0132776Y0351379D02*
D03*
X0136083Y0351379D02*
D03*
X0129823Y0351379D02*
D03*
X0140709Y0351379D02*
D03*
X0145334Y0351379D02*
D03*
X0148327Y0351379D02*
D03*
X0125197Y0351379D02*
D03*
X0120571Y0351379D02*
D03*
D287*
X0237402Y0176772D02*
D03*
X0237402Y0183071D02*
D03*
D97*
X0485236Y0451673D02*
D03*
X0468701Y0451673D02*
D03*
X0485039Y0426083D02*
D03*
X0468504Y0426083D02*
D03*
D65*
X0543504Y0398622D02*
D03*
X0536024Y0398622D02*
D03*
X0536024Y0336417D02*
D03*
X0543504Y0336417D02*
D03*
X0543504Y0366811D02*
D03*
X0536024Y0366811D02*
D03*
X0535748Y0315866D02*
D03*
X0543228Y0315866D02*
D03*
D32*
X0562205Y0431496D02*
D03*
X0562205Y0337008D02*
D03*
X0562205Y0368504D02*
D03*
X0562205Y0400000D02*
D03*
X0376791Y0437106D02*
D03*
X0424193Y0437106D02*
D03*
D180*
X0285827Y0180216D02*
D03*
X0277165Y0180216D02*
D03*
X0516240Y0288878D02*
D03*
X0524902Y0288878D02*
D03*
X0516043Y0302165D02*
D03*
X0524705Y0302165D02*
D03*
X0516732Y0316043D02*
D03*
X0525394Y0316043D02*
D03*
X0259842Y0180216D02*
D03*
X0251181Y0180216D02*
D03*
X0272835Y0180216D02*
D03*
X0264173Y0180216D02*
D03*
D272*
X0278543Y0163386D02*
D03*
X0278543Y0170079D02*
D03*
X0071061Y0311854D02*
D03*
X0071061Y0318546D02*
D03*
X0081691Y0311854D02*
D03*
X0081691Y0318546D02*
D03*
X0092321Y0311854D02*
D03*
X0092321Y0318546D02*
D03*
X0102950Y0311854D02*
D03*
X0102950Y0318546D02*
D03*
X0113580Y0311854D02*
D03*
X0113580Y0318546D02*
D03*
X0124210Y0311854D02*
D03*
X0124210Y0318546D02*
D03*
X0134840Y0311854D02*
D03*
X0134840Y0318546D02*
D03*
X0145470Y0311854D02*
D03*
X0145470Y0318546D02*
D03*
X0415945Y0149213D02*
D03*
X0415945Y0155905D02*
D03*
X0405315Y0149213D02*
D03*
X0405315Y0155905D02*
D03*
X0394685Y0149213D02*
D03*
X0394685Y0155905D02*
D03*
X0384055Y0149213D02*
D03*
X0384055Y0155905D02*
D03*
X0348327Y0149213D02*
D03*
X0348327Y0155905D02*
D03*
X0424803Y0149213D02*
D03*
X0424803Y0155905D02*
D03*
X0358957Y0149213D02*
D03*
X0358957Y0155905D02*
D03*
X0435433Y0149213D02*
D03*
X0435433Y0155905D02*
D03*
X0456693Y0149213D02*
D03*
X0456693Y0155905D02*
D03*
X0446063Y0149213D02*
D03*
X0446063Y0155905D02*
D03*
X0337697Y0149213D02*
D03*
X0337697Y0155905D02*
D03*
X0369587Y0149213D02*
D03*
X0369587Y0155905D02*
D03*
X0552165Y0155905D02*
D03*
X0552165Y0149213D02*
D03*
X0541536Y0155905D02*
D03*
X0541536Y0149213D02*
D03*
X0530906Y0155905D02*
D03*
X0530906Y0149213D02*
D03*
X0520276Y0155905D02*
D03*
X0520276Y0149213D02*
D03*
X0475787Y0155905D02*
D03*
X0475787Y0149213D02*
D03*
X0486417Y0155905D02*
D03*
X0486417Y0149213D02*
D03*
X0497047Y0155905D02*
D03*
X0497047Y0149213D02*
D03*
X0507677Y0155905D02*
D03*
X0507677Y0149213D02*
D03*
X0307677Y0155905D02*
D03*
X0307677Y0149213D02*
D03*
X0318307Y0155905D02*
D03*
X0318307Y0149213D02*
D03*
X0328937Y0155905D02*
D03*
X0328937Y0149213D02*
D03*
X0258465Y0163386D02*
D03*
X0258465Y0170079D02*
D03*
X0268701Y0163386D02*
D03*
X0268701Y0170079D02*
D03*
D115*
X0258661Y0155315D02*
D03*
X0258661Y0147835D02*
D03*
X0190748Y0155315D02*
D03*
X0190748Y0147835D02*
D03*
X0200591Y0155315D02*
D03*
X0200591Y0147835D02*
D03*
X0291142Y0147835D02*
D03*
X0291142Y0155315D02*
D03*
X0245866Y0147835D02*
D03*
X0245866Y0155315D02*
D03*
X0236024Y0147835D02*
D03*
X0236024Y0155315D02*
D03*
X0223228Y0147835D02*
D03*
X0223228Y0155315D02*
D03*
X0213386Y0147835D02*
D03*
X0213386Y0155315D02*
D03*
X0177953Y0147835D02*
D03*
X0177953Y0155315D02*
D03*
X0278346Y0155315D02*
D03*
X0278346Y0147835D02*
D03*
X0268504Y0155315D02*
D03*
X0268504Y0147835D02*
D03*
D236*
X0290945Y0187894D02*
D03*
X0298031Y0187894D02*
D03*
X0298031Y0177854D02*
D03*
X0290945Y0177854D02*
D03*
X0523622Y0415059D02*
D03*
X0516535Y0415059D02*
D03*
X0516535Y0405020D02*
D03*
X0523622Y0405020D02*
D03*
D10*
X0290945Y0184449D02*
D03*
X0290945Y0181299D02*
D03*
X0298031Y0181299D02*
D03*
X0298031Y0184449D02*
D03*
X0516535Y0408465D02*
D03*
X0516535Y0411614D02*
D03*
X0523622Y0411614D02*
D03*
X0523622Y0408465D02*
D03*
D17*
X0092714Y0286164D02*
D03*
X0092714Y0279078D02*
D03*
X0082675Y0279078D02*
D03*
X0082675Y0286164D02*
D03*
X0124407Y0286164D02*
D03*
X0124407Y0279078D02*
D03*
X0134447Y0279078D02*
D03*
X0134447Y0286164D02*
D03*
X0408957Y0177264D02*
D03*
X0408957Y0184350D02*
D03*
X0398917Y0184350D02*
D03*
X0398917Y0177264D02*
D03*
X0449114Y0177953D02*
D03*
X0449114Y0185039D02*
D03*
X0439075Y0185039D02*
D03*
X0439075Y0177953D02*
D03*
X0358268Y0178740D02*
D03*
X0358268Y0185827D02*
D03*
X0348228Y0185827D02*
D03*
X0348228Y0178740D02*
D03*
X0538091Y0177953D02*
D03*
X0538091Y0185039D02*
D03*
X0528051Y0185039D02*
D03*
X0528051Y0177953D02*
D03*
X0505807Y0178740D02*
D03*
X0505807Y0185827D02*
D03*
X0495768Y0185827D02*
D03*
X0495768Y0178740D02*
D03*
X0506004Y0326654D02*
D03*
X0506004Y0333740D02*
D03*
X0516043Y0333740D02*
D03*
X0516043Y0326654D02*
D03*
X0300394Y0169488D02*
D03*
X0300394Y0162402D02*
D03*
X0290354Y0162402D02*
D03*
X0290354Y0169488D02*
D03*
D254*
X0089269Y0286164D02*
D03*
X0086120Y0286164D02*
D03*
X0086120Y0279078D02*
D03*
X0089269Y0279078D02*
D03*
X0131002Y0279078D02*
D03*
X0127852Y0279078D02*
D03*
X0127852Y0286164D02*
D03*
X0131002Y0286164D02*
D03*
X0402362Y0184350D02*
D03*
X0405512Y0184350D02*
D03*
X0405512Y0177264D02*
D03*
X0402362Y0177264D02*
D03*
X0442520Y0185039D02*
D03*
X0445669Y0185039D02*
D03*
X0445669Y0177953D02*
D03*
X0442520Y0177953D02*
D03*
X0351673Y0185827D02*
D03*
X0354823Y0185827D02*
D03*
X0354823Y0178740D02*
D03*
X0351673Y0178740D02*
D03*
X0531496Y0185039D02*
D03*
X0534646Y0185039D02*
D03*
X0534646Y0177953D02*
D03*
X0531496Y0177953D02*
D03*
X0499213Y0185827D02*
D03*
X0502362Y0185827D02*
D03*
X0502362Y0178740D02*
D03*
X0499213Y0178740D02*
D03*
X0509449Y0326654D02*
D03*
X0512598Y0326654D02*
D03*
X0512598Y0333740D02*
D03*
X0509449Y0333740D02*
D03*
X0296949Y0169488D02*
D03*
X0293799Y0169488D02*
D03*
X0293799Y0162402D02*
D03*
X0296949Y0162402D02*
D03*
D293*
X0463484Y0458701D02*
D03*
X0463484Y0464921D02*
D03*
X0364728Y0417717D02*
D03*
X0364728Y0423937D02*
D03*
D164*
X0454528Y0172441D02*
D03*
X0454528Y0163779D02*
D03*
X0348524Y0172835D02*
D03*
X0348524Y0164173D02*
D03*
X0435630Y0172441D02*
D03*
X0435630Y0163779D02*
D03*
X0405118Y0172441D02*
D03*
X0405118Y0163779D02*
D03*
X0415748Y0172441D02*
D03*
X0415748Y0163779D02*
D03*
X0394882Y0172441D02*
D03*
X0394882Y0163779D02*
D03*
X0424606Y0172441D02*
D03*
X0424606Y0163779D02*
D03*
X0368701Y0172933D02*
D03*
X0368701Y0164272D02*
D03*
X0358760Y0172835D02*
D03*
X0358760Y0164173D02*
D03*
X0337894Y0172835D02*
D03*
X0337894Y0164173D02*
D03*
X0385827Y0172933D02*
D03*
X0385827Y0164272D02*
D03*
X0446260Y0172441D02*
D03*
X0446260Y0163779D02*
D03*
X0552362Y0163779D02*
D03*
X0552362Y0172441D02*
D03*
X0541339Y0163779D02*
D03*
X0541339Y0172441D02*
D03*
X0530709Y0163779D02*
D03*
X0530709Y0172441D02*
D03*
X0520079Y0163779D02*
D03*
X0520079Y0172441D02*
D03*
X0476378Y0163386D02*
D03*
X0476378Y0172047D02*
D03*
X0486221Y0163779D02*
D03*
X0486221Y0172441D02*
D03*
X0496850Y0163779D02*
D03*
X0496850Y0172441D02*
D03*
X0507480Y0163779D02*
D03*
X0507480Y0172441D02*
D03*
X0307480Y0164173D02*
D03*
X0307480Y0172835D02*
D03*
X0318110Y0163779D02*
D03*
X0318110Y0172441D02*
D03*
X0328740Y0163976D02*
D03*
X0328740Y0172638D02*
D03*
D252*
X0542913Y0288661D02*
D03*
X0536221Y0288661D02*
D03*
X0542913Y0302087D02*
D03*
X0536221Y0302087D02*
D03*
D89*
X0303219Y0223002D02*
D03*
X0335531Y0248819D02*
D03*
X0310630Y0221063D02*
D03*
X0281693Y0216634D02*
D03*
X0303150Y0243602D02*
D03*
X0286122Y0562225D02*
D03*
X0313583Y0540276D02*
D03*
X0330906Y0540276D02*
D03*
X0322146Y0540276D02*
D03*
X0292323Y0542914D02*
D03*
X0308957Y0540276D02*
D03*
X0342339Y0542949D02*
D03*
X0200374Y0437323D02*
D03*
X0200669Y0423347D02*
D03*
X0199488Y0418327D02*
D03*
X0196043Y0420394D02*
D03*
X0447756Y0441043D02*
D03*
X0445571Y0415748D02*
D03*
X0440551Y0415748D02*
D03*
X0455610Y0415748D02*
D03*
X0452067Y0415748D02*
D03*
X0365302Y0397638D02*
D03*
X0413583Y0397638D02*
D03*
X0370768Y0382677D02*
D03*
X0512402Y0397638D02*
D03*
X0469488Y0397638D02*
D03*
X0140413Y0391142D02*
D03*
X0147638Y0389468D02*
D03*
X0139567Y0387303D02*
D03*
X0140413Y0383858D02*
D03*
X0147638Y0379232D02*
D03*
X0140709Y0380512D02*
D03*
X0142480Y0374114D02*
D03*
X0147638Y0371555D02*
D03*
X0140354Y0398622D02*
D03*
X0124311Y0399803D02*
D03*
D71*
X0030315Y0139016D02*
D03*
X0040315Y0139016D02*
D03*
X0050315Y0139016D02*
D03*
X0060315Y0139016D02*
D03*
X0070315Y0139016D02*
D03*
X0030315Y0149016D02*
D03*
X0070315Y0149016D02*
D03*
X0060315Y0149016D02*
D03*
X0050315Y0149016D02*
D03*
X0040315Y0149016D02*
D03*
X0040315Y0159016D02*
D03*
X0050315Y0159016D02*
D03*
X0060315Y0159016D02*
D03*
X0070315Y0159016D02*
D03*
X0030315Y0159016D02*
D03*
X0030315Y0215945D02*
D03*
X0040315Y0215945D02*
D03*
X0050315Y0215945D02*
D03*
X0060315Y0215945D02*
D03*
X0070315Y0215945D02*
D03*
X0030315Y0225945D02*
D03*
X0070315Y0225945D02*
D03*
X0060315Y0225945D02*
D03*
X0050315Y0225945D02*
D03*
X0040315Y0225945D02*
D03*
X0040315Y0235945D02*
D03*
X0050315Y0235945D02*
D03*
X0060315Y0235945D02*
D03*
X0070315Y0235945D02*
D03*
X0030315Y0235945D02*
D03*
D264*
X0460630Y0027559D02*
D03*
X0086614Y0027559D02*
D03*
X0173622Y0056890D02*
D03*
X0397244Y0056890D02*
D03*
X0135256Y0484803D02*
D03*
X0044272Y0484803D02*
D03*
X0019879Y0279921D02*
D03*
X0586614Y0020079D02*
D03*
X0586614Y0605905D02*
D03*
X0019685Y0605905D02*
D03*
X0019685Y0020079D02*
D03*
D249*
X0108858Y0038878D02*
D03*
X0064370Y0038878D02*
D03*
X0117323Y0019685D02*
D03*
X0055905Y0019685D02*
D03*
X0066614Y0070866D02*
D03*
X0292126Y0494488D02*
D03*
D78*
X0106614Y0070866D02*
D03*
X0096614Y0070866D02*
D03*
X0086614Y0070866D02*
D03*
X0076614Y0070866D02*
D03*
X0342126Y0494488D02*
D03*
X0332126Y0494488D02*
D03*
X0322126Y0494488D02*
D03*
X0312126Y0494488D02*
D03*
X0302126Y0494488D02*
D03*
X0181142Y0580472D02*
D03*
X0191142Y0580472D02*
D03*
X0181142Y0570472D02*
D03*
X0191142Y0570472D02*
D03*
X0181142Y0560472D02*
D03*
X0191142Y0560472D02*
D03*
X0181142Y0550472D02*
D03*
X0191142Y0550472D02*
D03*
X0181142Y0540472D02*
D03*
X0191142Y0540472D02*
D03*
X0181142Y0530472D02*
D03*
X0191142Y0530472D02*
D03*
X0181142Y0520472D02*
D03*
X0191142Y0520472D02*
D03*
X0181142Y0510472D02*
D03*
X0191142Y0510472D02*
D03*
X0181142Y0500472D02*
D03*
X0191142Y0500472D02*
D03*
X0181142Y0490472D02*
D03*
X0191142Y0490472D02*
D03*
X0181142Y0480472D02*
D03*
X0191142Y0480472D02*
D03*
X0181142Y0470472D02*
D03*
D241*
X0142913Y0092520D02*
D03*
X0142913Y0078347D02*
D03*
X0153937Y0092520D02*
D03*
X0153937Y0078347D02*
D03*
X0163779Y0092520D02*
D03*
X0163779Y0078347D02*
D03*
X0173622Y0092520D02*
D03*
X0183465Y0092520D02*
D03*
X0183465Y0078347D02*
D03*
X0193307Y0092520D02*
D03*
X0193307Y0078347D02*
D03*
X0203150Y0092520D02*
D03*
X0212992Y0078347D02*
D03*
X0212992Y0092520D02*
D03*
X0222835Y0078347D02*
D03*
X0222835Y0092520D02*
D03*
X0232677Y0078347D02*
D03*
X0232677Y0092520D02*
D03*
X0242520Y0078347D02*
D03*
X0242520Y0092520D02*
D03*
X0238858Y0109843D02*
D03*
X0252362Y0078347D02*
D03*
X0252362Y0092520D02*
D03*
X0251181Y0109843D02*
D03*
X0274409Y0078347D02*
D03*
X0274409Y0092520D02*
D03*
X0274409Y0109843D02*
D03*
X0284252Y0078347D02*
D03*
X0284252Y0092520D02*
D03*
X0285433Y0109843D02*
D03*
X0294094Y0078347D02*
D03*
X0294094Y0092520D02*
D03*
X0303937Y0092520D02*
D03*
X0297756Y0109843D02*
D03*
X0313779Y0078347D02*
D03*
X0313779Y0092520D02*
D03*
X0310079Y0109843D02*
D03*
X0323622Y0078347D02*
D03*
X0323622Y0092520D02*
D03*
X0322402Y0109843D02*
D03*
X0333465Y0078347D02*
D03*
X0333465Y0092520D02*
D03*
X0343307Y0078347D02*
D03*
X0343307Y0092520D02*
D03*
X0343307Y0109843D02*
D03*
X0354331Y0078347D02*
D03*
X0354331Y0092520D02*
D03*
X0354331Y0109843D02*
D03*
X0377559Y0078347D02*
D03*
X0377559Y0092520D02*
D03*
X0377559Y0109843D02*
D03*
X0387402Y0078347D02*
D03*
X0387402Y0092520D02*
D03*
X0387402Y0109843D02*
D03*
X0397244Y0092520D02*
D03*
X0407087Y0078347D02*
D03*
X0407087Y0092520D02*
D03*
X0407087Y0109843D02*
D03*
X0416929Y0078347D02*
D03*
X0416929Y0092520D02*
D03*
X0426772Y0078347D02*
D03*
X0426772Y0092520D02*
D03*
X0416929Y0109843D02*
D03*
X0426772Y0109843D02*
D03*
X0216850Y0109843D02*
D03*
X0204528Y0109843D02*
D03*
X0192205Y0109843D02*
D03*
X0179882Y0109843D02*
D03*
X0167559Y0109843D02*
D03*
X0155236Y0109843D02*
D03*
X0142913Y0109843D02*
D03*
X0397244Y0109843D02*
D03*
D19*
X0405413Y0426437D02*
D03*
X0405413Y0439094D02*
D03*
X0395571Y0439094D02*
D03*
X0395571Y0426437D02*
D03*
D41*
X0114764Y0435433D02*
D03*
X0104764Y0435433D02*
D03*
X0094764Y0435433D02*
D03*
X0084764Y0435433D02*
D03*
X0074764Y0435433D02*
D03*
D50*
X0064764Y0435433D02*
D03*
D249*
X0191142Y0470472D02*
D03*
X0154331Y0194882D02*
G01*
G75*
D83*
X0172638Y0211417D02*
D03*
X0172638Y0203937D02*
D03*
D87*
X0162992Y0247540D02*
D03*
X0162992Y0229823D02*
D03*
D287*
X0254626Y0201181D02*
D03*
X0254626Y0207480D02*
D03*
D148*
X0171359Y0198425D02*
D03*
X0163878Y0198425D02*
D03*
D194*
X0167126Y0210236D02*
D03*
X0167126Y0203937D02*
D03*
D229*
X0269095Y0225886D02*
D03*
X0269095Y0229626D02*
D03*
X0269095Y0233366D02*
D03*
X0259646Y0233366D02*
D03*
X0259646Y0229626D02*
D03*
X0259646Y0225886D02*
D03*
X0191929Y0225886D02*
D03*
X0191929Y0229626D02*
D03*
X0191929Y0233366D02*
D03*
X0201378Y0233366D02*
D03*
X0201378Y0229626D02*
D03*
X0201378Y0225886D02*
D03*
X0184449Y0225886D02*
D03*
X0184449Y0229626D02*
D03*
X0184449Y0233366D02*
D03*
X0175000Y0233366D02*
D03*
X0175000Y0229626D02*
D03*
X0175000Y0225886D02*
D03*
X0208859Y0225886D02*
D03*
X0208859Y0229626D02*
D03*
X0208859Y0233366D02*
D03*
X0218307Y0233366D02*
D03*
X0218307Y0229626D02*
D03*
X0218307Y0225886D02*
D03*
X0235236Y0225886D02*
D03*
X0235236Y0229626D02*
D03*
X0235236Y0233366D02*
D03*
X0225788Y0233366D02*
D03*
X0225788Y0229626D02*
D03*
X0225788Y0225886D02*
D03*
X0242717Y0225886D02*
D03*
X0242717Y0229626D02*
D03*
X0242717Y0233366D02*
D03*
X0252166Y0233366D02*
D03*
X0252166Y0229626D02*
D03*
X0252166Y0225886D02*
D03*
D51*
X0268800Y0200492D02*
D03*
X0268800Y0207579D02*
D03*
X0258760Y0207579D02*
D03*
X0258760Y0200492D02*
D03*
X0193701Y0200492D02*
D03*
X0193701Y0207579D02*
D03*
X0203740Y0207579D02*
D03*
X0203740Y0200492D02*
D03*
X0189174Y0200492D02*
D03*
X0189174Y0207579D02*
D03*
X0179134Y0207579D02*
D03*
X0179134Y0200492D02*
D03*
X0208760Y0200492D02*
D03*
X0208760Y0207579D02*
D03*
X0218799Y0207579D02*
D03*
X0218799Y0200492D02*
D03*
X0235630Y0200492D02*
D03*
X0235630Y0207579D02*
D03*
X0225591Y0207579D02*
D03*
X0225591Y0200492D02*
D03*
X0240552Y0200492D02*
D03*
X0240552Y0207579D02*
D03*
X0250591Y0207579D02*
D03*
X0250591Y0200492D02*
D03*
X0203642Y0214272D02*
D03*
X0203642Y0221358D02*
D03*
X0193603Y0221358D02*
D03*
X0193603Y0214272D02*
D03*
X0177658Y0214272D02*
D03*
X0177658Y0221358D02*
D03*
X0187697Y0221358D02*
D03*
X0187697Y0214272D02*
D03*
X0218898Y0214272D02*
D03*
X0218898Y0221358D02*
D03*
X0208859Y0221358D02*
D03*
X0208859Y0214272D02*
D03*
X0225591Y0214272D02*
D03*
X0225591Y0221358D02*
D03*
X0235630Y0221358D02*
D03*
X0235630Y0214272D02*
D03*
X0250886Y0214272D02*
D03*
X0250886Y0221358D02*
D03*
X0240847Y0221358D02*
D03*
X0240847Y0214272D02*
D03*
X0258268Y0214370D02*
D03*
X0258268Y0221457D02*
D03*
X0268307Y0221457D02*
D03*
X0268307Y0214370D02*
D03*
D11*
X0262205Y0207579D02*
D03*
X0265355Y0207579D02*
D03*
X0265355Y0200492D02*
D03*
X0262205Y0200492D02*
D03*
X0197146Y0200492D02*
D03*
X0200296Y0200492D02*
D03*
X0200296Y0207579D02*
D03*
X0197146Y0207579D02*
D03*
X0182579Y0207579D02*
D03*
X0185729Y0207579D02*
D03*
X0185729Y0200492D02*
D03*
X0182579Y0200492D02*
D03*
X0212205Y0200492D02*
D03*
X0215355Y0200492D02*
D03*
X0215355Y0207579D02*
D03*
X0212205Y0207579D02*
D03*
X0229036Y0207579D02*
D03*
X0232185Y0207579D02*
D03*
X0232185Y0200492D02*
D03*
X0229036Y0200492D02*
D03*
X0243996Y0200492D02*
D03*
X0247146Y0200492D02*
D03*
X0247146Y0207579D02*
D03*
X0243996Y0207579D02*
D03*
X0197048Y0221358D02*
D03*
X0200197Y0221358D02*
D03*
X0200197Y0214272D02*
D03*
X0197048Y0214272D02*
D03*
X0181103Y0214272D02*
D03*
X0184252Y0214272D02*
D03*
X0184252Y0221358D02*
D03*
X0181103Y0221358D02*
D03*
X0212304Y0221358D02*
D03*
X0215453Y0221358D02*
D03*
X0215453Y0214272D02*
D03*
X0212304Y0214272D02*
D03*
X0229036Y0214272D02*
D03*
X0232185Y0214272D02*
D03*
X0232185Y0221358D02*
D03*
X0229036Y0221358D02*
D03*
X0244292Y0221358D02*
D03*
X0247441Y0221358D02*
D03*
X0247441Y0214272D02*
D03*
X0244292Y0214272D02*
D03*
X0261713Y0214370D02*
D03*
X0264862Y0214370D02*
D03*
X0264862Y0221457D02*
D03*
X0261713Y0221457D02*
D03*
D124*
X0272835Y0200630D02*
D03*
X0272835Y0206851D02*
D03*
X0238288Y0242067D02*
D03*
X0238288Y0248288D02*
D03*
X0233957Y0248288D02*
D03*
X0233957Y0242067D02*
D03*
X0229626Y0242067D02*
D03*
X0229626Y0248288D02*
D03*
X0225296Y0248288D02*
D03*
X0225296Y0242067D02*
D03*
X0242618Y0242067D02*
D03*
X0242618Y0248288D02*
D03*
X0246949Y0248288D02*
D03*
X0246949Y0242067D02*
D03*
X0251280Y0242067D02*
D03*
X0251280Y0248288D02*
D03*
X0255610Y0248288D02*
D03*
X0255610Y0242067D02*
D03*
X0207973Y0242067D02*
D03*
X0207973Y0248288D02*
D03*
X0212304Y0248288D02*
D03*
X0212304Y0242067D02*
D03*
X0216634Y0242067D02*
D03*
X0216634Y0248288D02*
D03*
X0220965Y0248288D02*
D03*
X0220965Y0242067D02*
D03*
X0173327Y0242067D02*
D03*
X0173327Y0248288D02*
D03*
X0177658Y0248288D02*
D03*
X0177658Y0242067D02*
D03*
X0181988Y0242067D02*
D03*
X0181988Y0248288D02*
D03*
X0186319Y0248288D02*
D03*
X0186319Y0242067D02*
D03*
X0190650Y0242067D02*
D03*
X0190650Y0248288D02*
D03*
X0194981Y0248288D02*
D03*
X0194981Y0242067D02*
D03*
X0199311Y0242067D02*
D03*
X0199311Y0248288D02*
D03*
X0203642Y0248288D02*
D03*
X0203642Y0242067D02*
D03*
X0272835Y0214016D02*
D03*
X0272835Y0220236D02*
D03*
X0259941Y0242067D02*
D03*
X0259941Y0248288D02*
D03*
X0264272Y0248288D02*
D03*
X0264272Y0242067D02*
D03*
X0268603Y0242067D02*
D03*
X0268603Y0248288D02*
D03*
X0272933Y0248288D02*
D03*
X0272933Y0242067D02*
D03*
D113*
X0156890Y0209154D02*
D03*
X0163189Y0209154D02*
D03*
X0163189Y0204626D02*
D03*
X0156890Y0204626D02*
D03*
X0164174Y0218110D02*
D03*
X0157874Y0218110D02*
D03*
X0164174Y0222736D02*
D03*
X0157874Y0222736D02*
D03*
D115*
X0169488Y0223622D02*
D03*
X0169488Y0216142D02*
D03*
D88*
X0157126Y0213681D02*
D03*
X0163347Y0213681D02*
D03*
X0153937Y0255512D02*
G01*
G75*
D208*
X0296870Y0257284D02*
D03*
D157*
X0166831Y0394193D02*
D03*
X0159744Y0394193D02*
D03*
X0159744Y0384154D02*
D03*
X0166831Y0384154D02*
D03*
X0182441Y0384429D02*
D03*
X0175354Y0384429D02*
D03*
X0175354Y0374389D02*
D03*
X0182441Y0374389D02*
D03*
X0259154Y0269784D02*
D03*
X0266240Y0269784D02*
D03*
X0266240Y0259744D02*
D03*
X0259154Y0259744D02*
D03*
X0268799Y0283662D02*
D03*
X0275886Y0283662D02*
D03*
X0275886Y0273622D02*
D03*
X0268799Y0273622D02*
D03*
D188*
X0159744Y0387599D02*
D03*
X0159744Y0390748D02*
D03*
X0166831Y0390748D02*
D03*
X0166831Y0387599D02*
D03*
X0175354Y0377834D02*
D03*
X0175354Y0380984D02*
D03*
X0182441Y0380984D02*
D03*
X0182441Y0377834D02*
D03*
X0259154Y0266339D02*
D03*
X0259154Y0263189D02*
D03*
X0266240Y0263189D02*
D03*
X0266240Y0266339D02*
D03*
X0268799Y0280217D02*
D03*
X0268799Y0277067D02*
D03*
X0275886Y0277067D02*
D03*
X0275886Y0280217D02*
D03*
D24*
X0321850Y0318504D02*
D03*
D57*
X0330906Y0294095D02*
D03*
X0312795Y0294095D02*
D03*
D289*
X0321850Y0294095D02*
D03*
D59*
X0282480Y0276181D02*
D03*
X0282480Y0273622D02*
D03*
X0282480Y0271063D02*
D03*
X0282480Y0268504D02*
D03*
X0282480Y0265945D02*
D03*
X0282480Y0263386D02*
D03*
X0282480Y0260827D02*
D03*
X0304921Y0276181D02*
D03*
X0304921Y0273622D02*
D03*
X0304921Y0271063D02*
D03*
X0304921Y0268504D02*
D03*
X0304921Y0265945D02*
D03*
X0304921Y0263386D02*
D03*
X0304921Y0260827D02*
D03*
X0158464Y0310532D02*
D03*
X0158464Y0307973D02*
D03*
X0158464Y0305414D02*
D03*
X0158464Y0302855D02*
D03*
X0158464Y0300295D02*
D03*
X0158464Y0297736D02*
D03*
X0158464Y0295177D02*
D03*
X0180906Y0310532D02*
D03*
X0180906Y0307973D02*
D03*
X0180906Y0305414D02*
D03*
X0180906Y0302855D02*
D03*
X0180906Y0300295D02*
D03*
X0180906Y0297736D02*
D03*
X0180906Y0295177D02*
D03*
X0157972Y0355512D02*
D03*
X0157972Y0352953D02*
D03*
X0157972Y0350394D02*
D03*
X0157972Y0347835D02*
D03*
X0157972Y0345276D02*
D03*
X0157972Y0342717D02*
D03*
X0157972Y0340158D02*
D03*
X0180413Y0355512D02*
D03*
X0180413Y0352953D02*
D03*
X0180413Y0350394D02*
D03*
X0180413Y0347835D02*
D03*
X0180413Y0345276D02*
D03*
X0180413Y0342717D02*
D03*
X0180413Y0340158D02*
D03*
X0208661Y0260827D02*
D03*
X0208661Y0263386D02*
D03*
X0208661Y0265945D02*
D03*
X0208661Y0268504D02*
D03*
X0208661Y0271063D02*
D03*
X0208661Y0273622D02*
D03*
X0208661Y0276181D02*
D03*
X0186221Y0260827D02*
D03*
X0186221Y0263386D02*
D03*
X0186221Y0265945D02*
D03*
X0186221Y0268504D02*
D03*
X0186221Y0271063D02*
D03*
X0186221Y0273622D02*
D03*
X0186221Y0276181D02*
D03*
X0252953Y0260827D02*
D03*
X0252953Y0263386D02*
D03*
X0252953Y0265945D02*
D03*
X0252953Y0268504D02*
D03*
X0252953Y0271063D02*
D03*
X0252953Y0273622D02*
D03*
X0252953Y0276181D02*
D03*
X0230512Y0260827D02*
D03*
X0230512Y0263386D02*
D03*
X0230512Y0265945D02*
D03*
X0230512Y0268504D02*
D03*
X0230512Y0271063D02*
D03*
X0230512Y0273622D02*
D03*
X0230512Y0276181D02*
D03*
X0158169Y0276181D02*
D03*
X0158169Y0273622D02*
D03*
X0158169Y0271063D02*
D03*
X0158169Y0268504D02*
D03*
X0158169Y0265945D02*
D03*
X0158169Y0263386D02*
D03*
X0158169Y0260827D02*
D03*
X0180610Y0276181D02*
D03*
X0180610Y0273622D02*
D03*
X0180610Y0271063D02*
D03*
X0180610Y0268504D02*
D03*
X0180610Y0265945D02*
D03*
X0180610Y0263386D02*
D03*
X0180610Y0260827D02*
D03*
D204*
X0198228Y0382677D02*
D03*
X0198228Y0380709D02*
D03*
X0198228Y0378740D02*
D03*
X0198228Y0376772D02*
D03*
X0198228Y0374803D02*
D03*
X0198228Y0372835D02*
D03*
X0198228Y0370866D02*
D03*
X0198228Y0368898D02*
D03*
X0198228Y0366929D02*
D03*
X0198228Y0364961D02*
D03*
X0198228Y0362992D02*
D03*
X0198228Y0361024D02*
D03*
X0198228Y0359055D02*
D03*
X0198228Y0357087D02*
D03*
X0198228Y0355118D02*
D03*
X0198228Y0353150D02*
D03*
X0198228Y0351181D02*
D03*
X0198228Y0349213D02*
D03*
X0198228Y0347244D02*
D03*
X0198228Y0345276D02*
D03*
X0198228Y0343307D02*
D03*
X0198228Y0341339D02*
D03*
X0198228Y0339370D02*
D03*
X0198228Y0337402D02*
D03*
X0198228Y0335433D02*
D03*
X0198228Y0333465D02*
D03*
X0198228Y0331496D02*
D03*
X0198228Y0329528D02*
D03*
X0198228Y0327559D02*
D03*
X0198228Y0325591D02*
D03*
X0198228Y0323622D02*
D03*
X0198228Y0321654D02*
D03*
X0198228Y0319685D02*
D03*
X0198228Y0317717D02*
D03*
X0198228Y0315748D02*
D03*
X0198228Y0313780D02*
D03*
X0198228Y0311811D02*
D03*
X0198228Y0309843D02*
D03*
X0198228Y0307874D02*
D03*
X0198228Y0305906D02*
D03*
X0198228Y0303937D02*
D03*
X0198228Y0301969D02*
D03*
X0198228Y0300000D02*
D03*
X0198228Y0298032D02*
D03*
X0301772Y0298032D02*
D03*
X0301772Y0300000D02*
D03*
X0301772Y0301969D02*
D03*
X0301772Y0303937D02*
D03*
X0301772Y0305906D02*
D03*
X0301772Y0307874D02*
D03*
X0301772Y0309843D02*
D03*
X0301772Y0311811D02*
D03*
X0301772Y0313780D02*
D03*
X0301772Y0315748D02*
D03*
X0301772Y0317717D02*
D03*
X0301772Y0319685D02*
D03*
X0301772Y0321654D02*
D03*
X0301772Y0323622D02*
D03*
X0301772Y0325591D02*
D03*
X0301772Y0327559D02*
D03*
X0301772Y0329528D02*
D03*
X0301772Y0331496D02*
D03*
X0301772Y0333465D02*
D03*
X0301772Y0335433D02*
D03*
X0301772Y0337402D02*
D03*
X0301772Y0339370D02*
D03*
X0301772Y0341339D02*
D03*
X0301772Y0343307D02*
D03*
X0301772Y0345276D02*
D03*
X0301772Y0347244D02*
D03*
X0301772Y0349213D02*
D03*
X0301772Y0351181D02*
D03*
X0301772Y0353150D02*
D03*
X0301772Y0355118D02*
D03*
X0301772Y0357087D02*
D03*
X0301772Y0359055D02*
D03*
X0301772Y0361024D02*
D03*
X0301772Y0362992D02*
D03*
X0301772Y0364961D02*
D03*
X0301772Y0366929D02*
D03*
X0301772Y0368898D02*
D03*
X0301772Y0370866D02*
D03*
X0301772Y0372835D02*
D03*
X0301772Y0374803D02*
D03*
X0301772Y0376772D02*
D03*
X0301772Y0378740D02*
D03*
X0301772Y0380709D02*
D03*
X0301772Y0382677D02*
D03*
D102*
X0207677Y0288583D02*
D03*
X0209646Y0288583D02*
D03*
X0211614Y0288583D02*
D03*
X0213583Y0288583D02*
D03*
X0215551Y0288583D02*
D03*
X0217520Y0288583D02*
D03*
X0219488Y0288583D02*
D03*
X0221457Y0288583D02*
D03*
X0223425Y0288583D02*
D03*
X0225394Y0288583D02*
D03*
X0227362Y0288583D02*
D03*
X0229331Y0288583D02*
D03*
X0231299Y0288583D02*
D03*
X0233268Y0288583D02*
D03*
X0235236Y0288583D02*
D03*
X0237205Y0288583D02*
D03*
X0239173Y0288583D02*
D03*
X0241142Y0288583D02*
D03*
X0243110Y0288583D02*
D03*
X0245079Y0288583D02*
D03*
X0247047Y0288583D02*
D03*
X0249016Y0288583D02*
D03*
X0250984Y0288583D02*
D03*
X0252953Y0288583D02*
D03*
X0254921Y0288583D02*
D03*
X0256890Y0288583D02*
D03*
X0258858Y0288583D02*
D03*
X0260827Y0288583D02*
D03*
X0262795Y0288583D02*
D03*
X0264764Y0288583D02*
D03*
X0266732Y0288583D02*
D03*
X0268701Y0288583D02*
D03*
X0270669Y0288583D02*
D03*
X0272638Y0288583D02*
D03*
X0274606Y0288583D02*
D03*
X0276575Y0288583D02*
D03*
X0278543Y0288583D02*
D03*
X0280512Y0288583D02*
D03*
X0282480Y0288583D02*
D03*
X0284449Y0288583D02*
D03*
X0286417Y0288583D02*
D03*
X0288386Y0288583D02*
D03*
X0290354Y0288583D02*
D03*
X0292323Y0288583D02*
D03*
X0292323Y0392126D02*
D03*
X0290354Y0392126D02*
D03*
X0288386Y0392126D02*
D03*
X0286417Y0392126D02*
D03*
X0284449Y0392126D02*
D03*
X0282480Y0392126D02*
D03*
X0280512Y0392126D02*
D03*
X0278543Y0392126D02*
D03*
X0276575Y0392126D02*
D03*
X0274606Y0392126D02*
D03*
X0272638Y0392126D02*
D03*
X0270669Y0392126D02*
D03*
X0268701Y0392126D02*
D03*
X0266732Y0392126D02*
D03*
X0264764Y0392126D02*
D03*
X0262795Y0392126D02*
D03*
X0260827Y0392126D02*
D03*
X0258858Y0392126D02*
D03*
X0256890Y0392126D02*
D03*
X0254921Y0392126D02*
D03*
X0252953Y0392126D02*
D03*
X0250984Y0392126D02*
D03*
X0249016Y0392126D02*
D03*
X0247047Y0392126D02*
D03*
X0245079Y0392126D02*
D03*
X0243110Y0392126D02*
D03*
X0241142Y0392126D02*
D03*
X0239173Y0392126D02*
D03*
X0237205Y0392126D02*
D03*
X0235236Y0392126D02*
D03*
X0233268Y0392126D02*
D03*
X0231299Y0392126D02*
D03*
X0229331Y0392126D02*
D03*
X0227362Y0392126D02*
D03*
X0225394Y0392126D02*
D03*
X0223425Y0392126D02*
D03*
X0221457Y0392126D02*
D03*
X0219488Y0392126D02*
D03*
X0217520Y0392126D02*
D03*
X0215551Y0392126D02*
D03*
X0213583Y0392126D02*
D03*
X0211614Y0392126D02*
D03*
X0209646Y0392126D02*
D03*
X0207677Y0392126D02*
D03*
D88*
X0309882Y0275591D02*
D03*
X0316102Y0275591D02*
D03*
X0307126Y0384252D02*
D03*
X0313346Y0384252D02*
D03*
X0316476Y0325394D02*
D03*
X0322697Y0325394D02*
D03*
X0218740Y0283268D02*
D03*
X0224961Y0283268D02*
D03*
X0289882Y0397323D02*
D03*
X0283661Y0397323D02*
D03*
X0281831Y0282677D02*
D03*
X0288051Y0282677D02*
D03*
X0196004Y0391339D02*
D03*
X0202224Y0391339D02*
D03*
X0312244Y0350689D02*
D03*
X0318464Y0350689D02*
D03*
X0207224Y0283268D02*
D03*
X0213445Y0283268D02*
D03*
X0258110Y0278543D02*
D03*
X0264331Y0278543D02*
D03*
X0191693Y0349705D02*
D03*
X0185473Y0349705D02*
D03*
X0220433Y0397441D02*
D03*
X0214213Y0397441D02*
D03*
X0239902Y0397343D02*
D03*
X0246122Y0397343D02*
D03*
X0257028Y0397343D02*
D03*
X0263248Y0397343D02*
D03*
X0307539Y0294784D02*
D03*
X0301319Y0294784D02*
D03*
X0245728Y0282874D02*
D03*
X0239508Y0282874D02*
D03*
X0261378Y0282973D02*
D03*
X0255158Y0282973D02*
D03*
X0191594Y0354035D02*
D03*
X0185374Y0354035D02*
D03*
X0186555Y0309744D02*
D03*
X0192776Y0309744D02*
D03*
D124*
X0319587Y0396221D02*
D03*
X0319587Y0390000D02*
D03*
X0333366Y0278780D02*
D03*
X0333366Y0285000D02*
D03*
X0307185Y0373465D02*
D03*
X0307185Y0379685D02*
D03*
X0191240Y0339114D02*
D03*
X0191240Y0345335D02*
D03*
X0311713Y0372677D02*
D03*
X0311713Y0378898D02*
D03*
X0276280Y0263032D02*
D03*
X0276280Y0269252D02*
D03*
X0310728Y0264508D02*
D03*
X0310728Y0270729D02*
D03*
X0315158Y0270728D02*
D03*
X0315158Y0264508D02*
D03*
X0166437Y0334213D02*
D03*
X0166437Y0327992D02*
D03*
X0186713Y0339114D02*
D03*
X0186713Y0345335D02*
D03*
X0191339Y0294429D02*
D03*
X0191339Y0300650D02*
D03*
X0186516Y0294331D02*
D03*
X0186516Y0300551D02*
D03*
X0172933Y0281929D02*
D03*
X0172933Y0288150D02*
D03*
X0159350Y0327894D02*
D03*
X0159350Y0334114D02*
D03*
X0307480Y0344823D02*
D03*
X0307480Y0351043D02*
D03*
X0307579Y0330079D02*
D03*
X0307579Y0323859D02*
D03*
X0187697Y0315197D02*
D03*
X0187697Y0321417D02*
D03*
X0312106Y0327914D02*
D03*
X0312106Y0321693D02*
D03*
X0192421Y0374469D02*
D03*
X0192421Y0368248D02*
D03*
D272*
X0332382Y0343898D02*
D03*
X0332382Y0337205D02*
D03*
X0319882Y0337303D02*
D03*
X0319882Y0343996D02*
D03*
X0326083Y0343898D02*
D03*
X0326083Y0337205D02*
D03*
X0313957Y0337894D02*
D03*
X0313957Y0344587D02*
D03*
D294*
X0327165Y0278839D02*
D03*
X0327165Y0286319D02*
D03*
D111*
X0229134Y0283071D02*
D03*
X0235433Y0283071D02*
D03*
X0312795Y0332480D02*
D03*
X0319094Y0332480D02*
D03*
X0273721Y0397540D02*
D03*
X0267421Y0397540D02*
D03*
X0331299Y0332284D02*
D03*
X0325000Y0332284D02*
D03*
X0333169Y0326772D02*
D03*
X0326870Y0326772D02*
D03*
X0186516Y0305217D02*
D03*
X0192815Y0305217D02*
D03*
X0326181Y0375689D02*
D03*
X0332480Y0375689D02*
D03*
D287*
X0301181Y0386319D02*
D03*
X0301181Y0392618D02*
D03*
X0296457Y0391142D02*
D03*
X0296457Y0397441D02*
D03*
X0307579Y0340650D02*
D03*
X0307579Y0334351D02*
D03*
X0324114Y0397047D02*
D03*
X0324114Y0390748D02*
D03*
X0333169Y0386221D02*
D03*
X0333169Y0379921D02*
D03*
X0333169Y0396358D02*
D03*
X0333169Y0390059D02*
D03*
X0328543Y0387795D02*
D03*
X0328543Y0381496D02*
D03*
X0192520Y0315256D02*
D03*
X0192520Y0321555D02*
D03*
D170*
X0315039Y0393111D02*
D03*
X0305787Y0396851D02*
D03*
D170*
X0305787Y0389370D02*
D03*
D217*
X0172539Y0330611D02*
D03*
X0187106Y0330611D02*
D03*
D195*
X0314468Y0356496D02*
D03*
X0310728Y0356496D02*
D03*
X0306988Y0356496D02*
D03*
X0306988Y0365945D02*
D03*
X0310728Y0365945D02*
D03*
X0314468Y0365945D02*
D03*
D51*
X0332972Y0263681D02*
D03*
X0332972Y0270768D02*
D03*
X0322933Y0270768D02*
D03*
X0322933Y0263681D02*
D03*
X0311516Y0280217D02*
D03*
X0311516Y0287303D02*
D03*
X0321555Y0287303D02*
D03*
X0321555Y0280217D02*
D03*
X0183366Y0314665D02*
D03*
X0183366Y0321752D02*
D03*
X0173327Y0321752D02*
D03*
X0173327Y0314665D02*
D03*
X0158071Y0314666D02*
D03*
X0158071Y0321752D02*
D03*
X0168110Y0321752D02*
D03*
X0168110Y0314666D02*
D03*
X0187303Y0281299D02*
D03*
X0187303Y0288386D02*
D03*
X0177264Y0288386D02*
D03*
X0177264Y0281299D02*
D03*
X0158563Y0281299D02*
D03*
X0158563Y0288386D02*
D03*
X0168602Y0288386D02*
D03*
X0168602Y0281299D02*
D03*
X0183563Y0359843D02*
D03*
X0183563Y0366929D02*
D03*
X0173524Y0366929D02*
D03*
X0173524Y0359843D02*
D03*
X0295669Y0280512D02*
D03*
X0295669Y0287599D02*
D03*
X0305709Y0287599D02*
D03*
X0305709Y0280512D02*
D03*
X0168209Y0359843D02*
D03*
X0168209Y0366929D02*
D03*
X0158169Y0366929D02*
D03*
X0158169Y0359843D02*
D03*
X0223524Y0279036D02*
D03*
X0223524Y0271949D02*
D03*
X0213484Y0271949D02*
D03*
X0213484Y0279036D02*
D03*
X0214272Y0260729D02*
D03*
X0214272Y0267815D02*
D03*
X0224311Y0267815D02*
D03*
X0224311Y0260729D02*
D03*
D11*
X0326378Y0270768D02*
D03*
X0329528Y0270768D02*
D03*
X0329528Y0263681D02*
D03*
X0326378Y0263681D02*
D03*
X0314961Y0280217D02*
D03*
X0318110Y0280217D02*
D03*
X0318110Y0287303D02*
D03*
X0314961Y0287303D02*
D03*
X0176772Y0321752D02*
D03*
X0179921Y0321752D02*
D03*
X0179921Y0314665D02*
D03*
X0176772Y0314665D02*
D03*
X0161516Y0314666D02*
D03*
X0164665Y0314666D02*
D03*
X0164665Y0321752D02*
D03*
X0161516Y0321752D02*
D03*
X0180709Y0288386D02*
D03*
X0183858Y0288386D02*
D03*
X0183858Y0281299D02*
D03*
X0180709Y0281299D02*
D03*
X0162008Y0281299D02*
D03*
X0165158Y0281299D02*
D03*
X0165158Y0288386D02*
D03*
X0162008Y0288386D02*
D03*
X0176969Y0366929D02*
D03*
X0180118Y0366929D02*
D03*
X0180118Y0359843D02*
D03*
X0176969Y0359843D02*
D03*
X0299114Y0280512D02*
D03*
X0302264Y0280512D02*
D03*
X0302264Y0287599D02*
D03*
X0299114Y0287599D02*
D03*
X0161614Y0366929D02*
D03*
X0164764Y0366929D02*
D03*
X0164764Y0359843D02*
D03*
X0161614Y0359843D02*
D03*
X0220079Y0279036D02*
D03*
X0216929Y0279036D02*
D03*
X0216929Y0271949D02*
D03*
X0220079Y0271949D02*
D03*
X0217717Y0260729D02*
D03*
X0220866Y0260729D02*
D03*
X0220866Y0267815D02*
D03*
X0217717Y0267815D02*
D03*
D91*
X0320669Y0372441D02*
D03*
X0320669Y0385433D02*
D03*
D129*
X0200295Y0289843D02*
D03*
X0196555Y0280591D02*
D03*
D129*
X0192815Y0289843D02*
D03*
D104*
X0329862Y0355433D02*
D03*
X0324862Y0355433D02*
D03*
X0329862Y0360433D02*
D03*
X0324862Y0360433D02*
D03*
X0329862Y0365433D02*
D03*
X0324862Y0365433D02*
D03*
D29*
X0190551Y0364173D02*
D03*
X0190551Y0358268D02*
D03*
D271*
X0209252Y0397343D02*
D03*
X0196260Y0397343D02*
D03*
D105*
X0323362Y0350433D02*
D03*
X0331362Y0350433D02*
D03*
X0327362Y0370433D02*
D03*
X0362795Y0370472D02*
G01*
G75*
D221*
X0516417Y0390452D02*
D03*
X0516417Y0382972D02*
D03*
D293*
X0433366Y0393070D02*
D03*
X0433366Y0386850D02*
D03*
X0490059Y0384901D02*
D03*
X0490059Y0378681D02*
D03*
D54*
X0448523Y0396948D02*
D03*
X0448523Y0385531D02*
D03*
X0440059Y0385531D02*
D03*
X0440059Y0396948D02*
D03*
X0508956Y0389665D02*
D03*
X0508956Y0378248D02*
D03*
X0383563Y0396161D02*
D03*
X0383563Y0384744D02*
D03*
X0392224Y0384744D02*
D03*
X0392224Y0396161D02*
D03*
D280*
X0444980Y0378641D02*
D03*
X0433563Y0378641D02*
D03*
X0393799Y0377559D02*
D03*
X0382382Y0377559D02*
D03*
D96*
X0370866Y0393897D02*
D03*
X0370866Y0376181D02*
D03*
D276*
X0495275Y0389862D02*
D03*
X0499016Y0389862D02*
D03*
X0502756Y0389862D02*
D03*
X0502756Y0379626D02*
D03*
X0499016Y0379626D02*
D03*
X0495275Y0379626D02*
D03*
D126*
X0457677Y0385137D02*
D03*
X0481496Y0385137D02*
D03*
X0425492Y0385137D02*
D03*
X0401673Y0385137D02*
D03*
D271*
X0510433Y0395472D02*
D03*
X0497441Y0395472D02*
D03*
D287*
X0515280Y0386909D02*
D03*
X0515280Y0393208D02*
D03*
X0515256Y0376870D02*
D03*
X0515256Y0383169D02*
D03*
X0450098Y0374606D02*
D03*
X0450098Y0380905D02*
D03*
D35*
X0370866Y0396358D02*
D03*
D89*
X0469488Y0397637D02*
D03*
X0512401Y0397637D02*
D03*
X0370767Y0382677D02*
D03*
X0413582Y0397637D02*
D03*
X0365302Y0397637D02*
D03*
X0272638Y0508780D02*
G01*
G75*
D27*
X0290256Y0556811D02*
D03*
X0290256Y0524134D02*
D03*
X0344390Y0524134D02*
D03*
X0344390Y0556811D02*
D03*
D58*
X0335020Y0546575D02*
D03*
X0330689Y0546575D02*
D03*
X0326358Y0546575D02*
D03*
X0322028Y0546575D02*
D03*
X0317697Y0546575D02*
D03*
X0313366Y0546575D02*
D03*
X0309036Y0546575D02*
D03*
X0304705Y0546575D02*
D03*
D293*
X0284351Y0561378D02*
D03*
X0284351Y0567599D02*
D03*
X0279725Y0561378D02*
D03*
X0279725Y0567599D02*
D03*
D92*
X0275197Y0567638D02*
D03*
X0275197Y0561339D02*
D03*
D89*
X0286122Y0562225D02*
D03*
X0313583Y0540276D02*
D03*
X0330906Y0540276D02*
D03*
X0322146Y0540276D02*
D03*
X0292323Y0542914D02*
D03*
X0308957Y0540276D02*
D03*
X0342339Y0542950D02*
D03*
X0278248Y0188976D02*
G01*
G75*
D221*
X0340158Y0231102D02*
D03*
D49*
X0279035Y0215157D02*
D03*
D268*
X0335728Y0202067D02*
D03*
X0308366Y0202067D02*
D03*
D262*
X0294193Y0217126D02*
D03*
X0285531Y0217126D02*
D03*
X0285827Y0227165D02*
D03*
X0294488Y0227165D02*
D03*
D269*
X0323327Y0246752D02*
D03*
X0336319Y0246752D02*
D03*
D165*
X0338287Y0231102D02*
D03*
X0338287Y0239763D02*
D03*
X0308169Y0219389D02*
D03*
X0308169Y0228051D02*
D03*
D113*
X0297835Y0217322D02*
D03*
X0304134Y0217322D02*
D03*
X0297933Y0222145D02*
D03*
X0291634Y0222145D02*
D03*
X0319094Y0230118D02*
D03*
X0312795Y0230118D02*
D03*
D170*
X0330689Y0226673D02*
D03*
X0339941Y0222933D02*
D03*
X0316713Y0225393D02*
D03*
X0325965Y0221653D02*
D03*
D170*
X0330689Y0219193D02*
D03*
X0316712Y0217913D02*
D03*
D86*
X0328051Y0240728D02*
D03*
X0324311Y0231476D02*
D03*
D86*
X0331791Y0231476D02*
D03*
D112*
X0284744Y0233267D02*
D03*
X0284744Y0245078D02*
D03*
D214*
X0293405Y0245078D02*
D03*
X0307972Y0245078D02*
D03*
D287*
X0293701Y0231693D02*
D03*
X0293701Y0237992D02*
D03*
D293*
X0281890Y0220472D02*
D03*
X0281890Y0226692D02*
D03*
D158*
X0300689Y0239665D02*
D03*
X0300689Y0226673D02*
D03*
D54*
X0316535Y0246653D02*
D03*
X0316535Y0235236D02*
D03*
D89*
X0303219Y0223002D02*
D03*
X0335532Y0248818D02*
D03*
X0310630Y0221063D02*
D03*
X0281693Y0216633D02*
D03*
X0303150Y0243602D02*
D03*
X0151279Y0166929D02*
G01*
G75*
D247*
X0222736Y0171555D02*
D03*
X0222736Y0174311D02*
D03*
X0222736Y0177756D02*
D03*
X0152559Y0169783D02*
D03*
X0152559Y0179232D02*
D03*
D124*
X0198622Y0175256D02*
D03*
X0198622Y0169035D02*
D03*
X0203937Y0170905D02*
D03*
X0203937Y0177126D02*
D03*
X0194094Y0169035D02*
D03*
X0194094Y0175256D02*
D03*
X0154232Y0176043D02*
D03*
X0154232Y0169823D02*
D03*
X0185137Y0169331D02*
D03*
X0185137Y0175551D02*
D03*
D203*
X0217913Y0177460D02*
D03*
X0217913Y0169980D02*
D03*
X0209448Y0169980D02*
D03*
X0209448Y0173720D02*
D03*
X0174547Y0177953D02*
D03*
X0174547Y0170472D02*
D03*
X0166082Y0170472D02*
D03*
X0166082Y0174212D02*
D03*
D203*
X0209448Y0177460D02*
D03*
X0166082Y0177953D02*
D03*
D111*
X0202165Y0180020D02*
D03*
X0195866Y0180020D02*
D03*
X0192126Y0180807D02*
D03*
X0185826Y0180807D02*
D03*
D92*
X0189665Y0176673D02*
D03*
X0189665Y0170374D02*
D03*
X0160334Y0176673D02*
D03*
X0160334Y0170374D02*
D03*
X0180216Y0176673D02*
D03*
X0180216Y0170374D02*
D03*
X0387795Y0195669D02*
G01*
G75*
D142*
X0425301Y0198971D02*
D03*
X0481896Y0198971D02*
D03*
X0486840Y0198971D02*
D03*
D82*
X0389651Y0212736D02*
D03*
D54*
X0464173Y0200197D02*
D03*
X0464173Y0211614D02*
D03*
D100*
X0458464Y0213582D02*
D03*
X0447047Y0213582D02*
D03*
D34*
X0460945Y0233071D02*
D03*
X0451693Y0236811D02*
D03*
X0458346Y0223720D02*
D03*
X0449094Y0227460D02*
D03*
D34*
X0460945Y0240551D02*
D03*
X0449094Y0219980D02*
D03*
D287*
X0462992Y0222047D02*
D03*
X0462992Y0228346D02*
D03*
X0494586Y0326142D02*
D03*
X0494586Y0332441D02*
D03*
X0496653Y0343268D02*
D03*
X0496653Y0336968D02*
D03*
X0445275Y0322008D02*
D03*
X0445275Y0315708D02*
D03*
X0494586Y0322401D02*
D03*
X0494586Y0316102D02*
D03*
D233*
X0466535Y0306456D02*
D03*
X0448425Y0306456D02*
D03*
X0466535Y0248189D02*
D03*
X0448425Y0248189D02*
D03*
X0475787Y0248189D02*
D03*
X0493897Y0248189D02*
D03*
X0475787Y0306456D02*
D03*
X0493897Y0306456D02*
D03*
X0439173Y0306456D02*
D03*
X0421063Y0306456D02*
D03*
X0393701Y0306456D02*
D03*
X0411811Y0306456D02*
D03*
X0420669Y0248189D02*
D03*
X0438779Y0248189D02*
D03*
X0411023Y0248189D02*
D03*
X0392913Y0248189D02*
D03*
D63*
X0457480Y0306456D02*
D03*
X0457480Y0248189D02*
D03*
X0484842Y0248189D02*
D03*
X0484842Y0306456D02*
D03*
X0430118Y0306456D02*
D03*
X0402756Y0306456D02*
D03*
X0429724Y0248189D02*
D03*
X0401968Y0248189D02*
D03*
D206*
X0457480Y0282047D02*
D03*
X0457480Y0272598D02*
D03*
X0484842Y0272598D02*
D03*
X0484842Y0282047D02*
D03*
X0430118Y0282047D02*
D03*
X0402756Y0282047D02*
D03*
X0429724Y0272598D02*
D03*
X0401968Y0272598D02*
D03*
D129*
X0415452Y0208346D02*
D03*
X0411712Y0199094D02*
D03*
X0397736Y0199094D02*
D03*
X0401476Y0208346D02*
D03*
X0425295Y0199094D02*
D03*
X0429035Y0208346D02*
D03*
X0437795Y0231831D02*
D03*
X0441535Y0241083D02*
D03*
X0404823Y0227047D02*
D03*
X0408563Y0236299D02*
D03*
D129*
X0407972Y0208346D02*
D03*
X0393996Y0208346D02*
D03*
X0421555Y0208346D02*
D03*
X0445275Y0231831D02*
D03*
X0401082Y0236299D02*
D03*
D157*
X0419389Y0272598D02*
D03*
X0412303Y0272598D02*
D03*
X0412303Y0282638D02*
D03*
X0419389Y0282638D02*
D03*
X0398425Y0319252D02*
D03*
X0391338Y0319252D02*
D03*
X0391338Y0329291D02*
D03*
X0398425Y0329291D02*
D03*
X0475098Y0282244D02*
D03*
X0468011Y0282244D02*
D03*
X0468011Y0272204D02*
D03*
X0475098Y0272204D02*
D03*
D188*
X0419389Y0276043D02*
D03*
X0419389Y0279193D02*
D03*
X0412303Y0279193D02*
D03*
X0412303Y0276043D02*
D03*
X0398425Y0322697D02*
D03*
X0398425Y0325846D02*
D03*
X0391338Y0325846D02*
D03*
X0391338Y0322697D02*
D03*
X0468011Y0275649D02*
D03*
X0468011Y0278799D02*
D03*
X0475098Y0278799D02*
D03*
X0475098Y0275649D02*
D03*
D159*
X0393228Y0339330D02*
D03*
X0398228Y0339330D02*
D03*
X0403228Y0339330D02*
D03*
X0408228Y0339330D02*
D03*
X0413228Y0339330D02*
D03*
X0418228Y0339330D02*
D03*
X0423228Y0339330D02*
D03*
X0428228Y0339330D02*
D03*
X0393228Y0358228D02*
D03*
X0398228Y0358228D02*
D03*
X0403228Y0358228D02*
D03*
X0408228Y0358228D02*
D03*
X0413228Y0358228D02*
D03*
X0418228Y0358228D02*
D03*
X0423228Y0358228D02*
D03*
X0428228Y0358228D02*
D03*
X0469665Y0358425D02*
D03*
X0464665Y0358425D02*
D03*
X0459665Y0358425D02*
D03*
X0454665Y0358425D02*
D03*
X0449665Y0358425D02*
D03*
X0444665Y0358425D02*
D03*
X0439665Y0358425D02*
D03*
X0434665Y0358425D02*
D03*
X0469665Y0339527D02*
D03*
X0464665Y0339527D02*
D03*
X0459665Y0339527D02*
D03*
X0454665Y0339527D02*
D03*
X0449665Y0339527D02*
D03*
X0444665Y0339527D02*
D03*
X0439665Y0339527D02*
D03*
X0434665Y0339527D02*
D03*
X0476260Y0339527D02*
D03*
X0481260Y0339527D02*
D03*
X0486260Y0339527D02*
D03*
X0491260Y0339527D02*
D03*
X0476260Y0358425D02*
D03*
X0481260Y0358425D02*
D03*
X0486260Y0358425D02*
D03*
X0491260Y0358425D02*
D03*
D103*
X0474803Y0314803D02*
D03*
X0474803Y0319803D02*
D03*
X0474803Y0324803D02*
D03*
X0474803Y0329803D02*
D03*
X0455905Y0314803D02*
D03*
X0455905Y0319803D02*
D03*
X0455905Y0324803D02*
D03*
X0455905Y0329803D02*
D03*
X0473032Y0214350D02*
D03*
X0473032Y0209350D02*
D03*
X0473032Y0204350D02*
D03*
X0473032Y0199350D02*
D03*
X0491929Y0214350D02*
D03*
X0491929Y0209350D02*
D03*
X0491929Y0204350D02*
D03*
X0491929Y0199350D02*
D03*
X0490158Y0221201D02*
D03*
X0490158Y0226200D02*
D03*
X0490158Y0231200D02*
D03*
X0490158Y0236201D02*
D03*
X0471260Y0221201D02*
D03*
X0471260Y0226200D02*
D03*
X0471260Y0231200D02*
D03*
X0471260Y0236201D02*
D03*
D248*
X0489764Y0314527D02*
D03*
X0482283Y0314527D02*
D03*
X0482185Y0331161D02*
D03*
X0489665Y0331161D02*
D03*
D88*
X0434882Y0332244D02*
D03*
X0441102Y0332244D02*
D03*
X0415315Y0332342D02*
D03*
X0409094Y0332342D02*
D03*
D115*
X0392716Y0220728D02*
D03*
X0392716Y0213248D02*
D03*
X0399606Y0213248D02*
D03*
X0399606Y0220728D02*
D03*
X0406496Y0220728D02*
D03*
X0406496Y0213248D02*
D03*
X0413386Y0213248D02*
D03*
X0413386Y0220728D02*
D03*
X0420275Y0220728D02*
D03*
X0420275Y0213248D02*
D03*
X0427165Y0213248D02*
D03*
X0427165Y0220728D02*
D03*
X0434055Y0220728D02*
D03*
X0434055Y0213248D02*
D03*
X0440945Y0213248D02*
D03*
X0440945Y0220728D02*
D03*
X0453445Y0199763D02*
D03*
X0453445Y0207244D02*
D03*
X0446260Y0207047D02*
D03*
X0446260Y0199567D02*
D03*
D158*
X0431201Y0227027D02*
D03*
X0431201Y0240019D02*
D03*
X0393996Y0239626D02*
D03*
X0393996Y0226634D02*
D03*
X0415157Y0227027D02*
D03*
X0415157Y0240019D02*
D03*
X0423326Y0240019D02*
D03*
X0423326Y0227027D02*
D03*
D111*
X0440748Y0206653D02*
D03*
X0434449Y0206653D02*
D03*
X0434350Y0201043D02*
D03*
X0440649Y0201043D02*
D03*
X0438287Y0227126D02*
D03*
X0444586Y0227126D02*
D03*
X0409153Y0241004D02*
D03*
X0402854Y0241004D02*
D03*
X0482775Y0320630D02*
D03*
X0489074Y0320630D02*
D03*
X0482775Y0325551D02*
D03*
X0489074Y0325551D02*
D03*
X0117716Y0350295D02*
G01*
G75*
D56*
X0120275Y0351379D02*
D03*
X0124901Y0351379D02*
D03*
X0148031Y0351379D02*
D03*
X0145039Y0351379D02*
D03*
X0140413Y0351379D02*
D03*
X0129527Y0351379D02*
D03*
X0135787Y0351379D02*
D03*
X0132480Y0351379D02*
D03*
D30*
X0144764Y0368996D02*
D03*
X0144764Y0371555D02*
D03*
X0144764Y0374114D02*
D03*
X0144764Y0376673D02*
D03*
X0144764Y0379232D02*
D03*
X0144764Y0381791D02*
D03*
X0144764Y0384350D02*
D03*
X0144764Y0386909D02*
D03*
X0144764Y0389468D02*
D03*
X0144764Y0392027D02*
D03*
X0144764Y0394586D02*
D03*
X0144764Y0397145D02*
D03*
X0121771Y0368996D02*
D03*
X0121771Y0371555D02*
D03*
X0121771Y0374114D02*
D03*
X0121771Y0376673D02*
D03*
X0121771Y0379232D02*
D03*
X0121771Y0381791D02*
D03*
X0121771Y0384350D02*
D03*
X0121771Y0386909D02*
D03*
X0121771Y0389468D02*
D03*
X0121771Y0392027D02*
D03*
X0121771Y0394586D02*
D03*
X0121771Y0397145D02*
D03*
D123*
X0121791Y0401082D02*
D03*
X0128012Y0401082D02*
D03*
X0138543Y0401082D02*
D03*
X0132322Y0401082D02*
D03*
D113*
X0140551Y0363878D02*
D03*
X0146850Y0363878D02*
D03*
X0127559Y0363484D02*
D03*
X0133858Y0363484D02*
D03*
D92*
X0135634Y0352854D02*
D03*
X0135634Y0359153D02*
D03*
X0129311Y0359153D02*
D03*
X0129311Y0352854D02*
D03*
X0124685Y0352854D02*
D03*
X0124685Y0359153D02*
D03*
X0144862Y0359055D02*
D03*
X0144862Y0352756D02*
D03*
X0120059Y0359153D02*
D03*
X0120059Y0352854D02*
D03*
X0140256Y0359153D02*
D03*
X0140256Y0352854D02*
D03*
D89*
X0124015Y0399803D02*
D03*
X0140059Y0398622D02*
D03*
X0147342Y0371555D02*
D03*
X0142185Y0374114D02*
D03*
X0140413Y0380512D02*
D03*
X0147342Y0379232D02*
D03*
X0140118Y0383858D02*
D03*
X0139271Y0387303D02*
D03*
X0147342Y0389468D02*
D03*
X0140118Y0391141D02*
D03*
X0437106Y0403150D02*
G01*
G75*
D134*
X0437972Y0404626D02*
D03*
D255*
X0458346Y0445571D02*
D03*
D35*
X0443504Y0451969D02*
D03*
D123*
X0440492Y0435138D02*
D03*
X0446712Y0435138D02*
D03*
D269*
X0443602Y0449607D02*
D03*
X0456594Y0449607D02*
D03*
X0456791Y0441437D02*
D03*
X0443799Y0441437D02*
D03*
D113*
X0450787Y0435276D02*
D03*
X0457086Y0435276D02*
D03*
D159*
X0455630Y0428150D02*
D03*
X0450630Y0428150D02*
D03*
X0445630Y0428150D02*
D03*
X0440630Y0428150D02*
D03*
X0455630Y0409253D02*
D03*
X0450630Y0409253D02*
D03*
X0445630Y0409253D02*
D03*
X0440630Y0409253D02*
D03*
D89*
X0452067Y0415748D02*
D03*
X0455610Y0415748D02*
D03*
X0440551Y0415748D02*
D03*
X0445571Y0415748D02*
D03*
X0447756Y0441044D02*
D03*
X0169173Y0412913D02*
G01*
G75*
D247*
X0212480Y0413996D02*
D03*
D134*
X0171732Y0414193D02*
D03*
X0173701Y0414193D02*
D03*
D129*
X0180590Y0425925D02*
D03*
X0176850Y0416673D02*
D03*
D129*
X0173110Y0425925D02*
D03*
D103*
X0188149Y0437539D02*
D03*
X0188149Y0432539D02*
D03*
X0188149Y0427539D02*
D03*
X0188149Y0422539D02*
D03*
X0207047Y0437539D02*
D03*
X0207047Y0432539D02*
D03*
X0207047Y0427539D02*
D03*
X0207047Y0422539D02*
D03*
D123*
X0203858Y0417244D02*
D03*
X0210078Y0417244D02*
D03*
X0195512Y0417244D02*
D03*
X0189291Y0417244D02*
D03*
D111*
X0173700Y0430826D02*
D03*
X0180000Y0430826D02*
D03*
D89*
X0184330Y0414783D02*
D03*
X0200374Y0437322D02*
D03*
X0200669Y0423346D02*
D03*
X0199488Y0418326D02*
D03*
X0196043Y0420393D02*
D03*
X0270571Y0424311D02*
G01*
G75*
D122*
X0318228Y0434941D02*
D03*
X0318228Y0458366D02*
D03*
X0308228Y0434941D02*
D03*
X0308228Y0458366D02*
D03*
X0298228Y0434941D02*
D03*
X0298228Y0458366D02*
D03*
X0288228Y0434941D02*
D03*
X0288228Y0458366D02*
D03*
X0278228Y0434941D02*
D03*
X0278228Y0458366D02*
D03*
D88*
X0328287Y0448031D02*
D03*
X0334508Y0448031D02*
D03*
X0330846Y0436024D02*
D03*
X0337067Y0436024D02*
D03*
D269*
X0338484Y0442028D02*
D03*
X0325492Y0442028D02*
D03*
D113*
X0337008Y0431398D02*
D03*
X0330709Y0431398D02*
D03*
D86*
X0331004Y0461890D02*
D03*
X0327264Y0452638D02*
D03*
D86*
X0334744Y0452638D02*
D03*
D124*
X0326378Y0430847D02*
D03*
X0326378Y0437067D02*
D03*
D78*
X0318228Y0451654D02*
D03*
X0318228Y0441654D02*
D03*
X0308228Y0451654D02*
D03*
X0308228Y0441654D02*
D03*
X0298228Y0451654D02*
D03*
X0298228Y0441654D02*
D03*
X0288228Y0451654D02*
D03*
X0288228Y0441654D02*
D03*
X0278228Y0451654D02*
D03*
D249*
X0278228Y0441654D02*
D03*
M02*
