G04*
G04 #@! TF.GenerationSoftware,Altium Limited,Altium Designer,20.2.7 (254)*
G04*
G04 Layer_Color=32768*
%FSLAX25Y25*%
%MOIN*%
G70*
G04*
G04 #@! TF.SameCoordinates,A9B7F2BE-3737-4A3B-A59A-7B8716D397C9*
G04*
G04*
G04 #@! TF.FilePolarity,Positive*
G04*
G01*
G75*
%ADD16C,0.00787*%
D16*
Y27559D02*
X18Y26553D01*
X74Y25547D01*
X165Y24545D01*
X294Y23546D01*
X458Y22553D01*
X659Y21567D01*
X896Y20588D01*
X1168Y19619D01*
X1476Y18661D01*
X1818Y17714D01*
X2195Y16781D01*
X2606Y15861D01*
X3050Y14958D01*
X3526Y14071D01*
X4035Y13203D01*
X4575Y12353D01*
X5145Y11524D01*
X5746Y10716D01*
X6376Y9930D01*
X7034Y9168D01*
X7719Y8431D01*
X8431Y7719D01*
X9168Y7034D01*
X9930Y6376D01*
X10716Y5746D01*
X11524Y5146D01*
X12353Y4575D01*
X13202Y4035D01*
X14071Y3526D01*
X14958Y3050D01*
X15861Y2606D01*
X16781Y2195D01*
X17714Y1819D01*
X18661Y1476D01*
X19619Y1168D01*
X20588Y896D01*
X21567Y659D01*
X22553Y459D01*
X23546Y294D01*
X24545Y165D01*
X25547Y74D01*
X26552Y18D01*
X27559Y0D01*
X27559Y625984D02*
X26553Y625966D01*
X25547Y625911D01*
X24545Y625819D01*
X23546Y625691D01*
X22553Y625526D01*
X21567Y625325D01*
X20588Y625088D01*
X19619Y624816D01*
X18661Y624508D01*
X17714Y624166D01*
X16781Y623789D01*
X15861Y623379D01*
X14958Y622935D01*
X14071Y622458D01*
X13202Y621949D01*
X12353Y621409D01*
X11524Y620839D01*
X10716Y620238D01*
X9930Y619608D01*
X9168Y618950D01*
X8431Y618265D01*
X7719Y617553D01*
X7034Y616816D01*
X6376Y616054D01*
X5746Y615269D01*
X5146Y614461D01*
X4575Y613631D01*
X4035Y612782D01*
X3526Y611913D01*
X3050Y611026D01*
X2606Y610123D01*
X2195Y609204D01*
X1819Y608270D01*
X1476Y607324D01*
X1168Y606365D01*
X896Y605396D01*
X659Y604417D01*
X458Y603431D01*
X294Y602438D01*
X165Y601439D01*
X74Y600437D01*
X18Y599432D01*
X0Y598425D01*
X606299Y598425D02*
X606281Y599432D01*
X606226Y600437D01*
X606134Y601439D01*
X606005Y602438D01*
X605841Y603431D01*
X605640Y604417D01*
X605403Y605396D01*
X605131Y606365D01*
X604823Y607324D01*
X604481Y608270D01*
X604104Y609204D01*
X603693Y610123D01*
X603250Y611026D01*
X602773Y611913D01*
X602264Y612782D01*
X601724Y613631D01*
X601154Y614461D01*
X600553Y615269D01*
X599923Y616054D01*
X599265Y616816D01*
X598580Y617553D01*
X597868Y618265D01*
X597131Y618950D01*
X596369Y619608D01*
X595583Y620238D01*
X594776Y620839D01*
X593946Y621409D01*
X593097Y621949D01*
X592228Y622458D01*
X591341Y622935D01*
X590438Y623379D01*
X589519Y623789D01*
X588585Y624166D01*
X587638Y624508D01*
X586680Y624816D01*
X585711Y625088D01*
X584732Y625325D01*
X583746Y625526D01*
X582753Y625691D01*
X581754Y625819D01*
X580752Y625911D01*
X579747Y625966D01*
X578740Y625984D01*
Y0D02*
X579747Y18D01*
X580752Y74D01*
X581754Y165D01*
X582753Y294D01*
X583746Y458D01*
X584732Y659D01*
X585711Y896D01*
X586680Y1168D01*
X587638Y1476D01*
X588585Y1818D01*
X589519Y2195D01*
X590438Y2606D01*
X591341Y3050D01*
X592228Y3526D01*
X593097Y4035D01*
X593946Y4575D01*
X594776Y5145D01*
X595583Y5746D01*
X596369Y6376D01*
X597131Y7034D01*
X597868Y7719D01*
X598580Y8431D01*
X599265Y9168D01*
X599923Y9930D01*
X600553Y10716D01*
X601154Y11524D01*
X601724Y12353D01*
X602264Y13202D01*
X602773Y14071D01*
X603250Y14958D01*
X603693Y15861D01*
X604104Y16781D01*
X604481Y17714D01*
X604823Y18661D01*
X605131Y19619D01*
X605403Y20588D01*
X605640Y21567D01*
X605841Y22553D01*
X606005Y23546D01*
X606134Y24545D01*
X606226Y25547D01*
X606281Y26552D01*
X606299Y27559D01*
X606299Y27559D02*
Y598425D01*
X0Y27559D02*
Y598425D01*
X27559Y0D02*
X578740D01*
X27559Y625984D02*
X578740D01*
M02*
