M48
INCH,TZ
%
T01C0.011800
X4291Y748
X866Y4449
X787Y14134
X11811Y13189
X14331Y12283
X15433Y14685
X12416Y3994
X15118Y669
X19803Y5079
X19803Y5305
X19803Y5531
X20157Y8189
X20197Y9941
X21742Y9911
X23366Y10049
X23150Y10364
X24558Y10158
X26102Y10207
X27047Y10394
X26732Y9685
X26142Y11417
X24852Y11654
X24055Y12559
X22520Y11604
X19774Y11604
X19331Y12598
X17717Y12598
X17323Y11654
X16594Y12313
X15915Y12638
X18504Y10000
X18543Y8543
X23386Y8583
X24715Y8484
X24734Y7146
X22785Y6919
X23760Y4213
X23760Y3986
X23760Y3760
X26004Y5295
X26004Y5522
X26004Y5748
X26240Y5748
X26240Y5522
X26240Y5295
X26467Y5295
X26467Y5522
X26467Y5748
X26771Y2756
X27086Y2756
X27953Y3307
X28947Y3110
X31132Y3287
X29921Y7008
X30157Y10354
X30630Y11929
X28691Y11978
X29045Y12441
X27126Y12441
X27333Y13533
X27589Y14341
X27392Y14813
X28661Y14705
X29862Y14970
X22628Y14793
X21693Y15532
X19528Y15055
X19419Y14557
X28031Y787
X31437Y2756
X31746Y4685
X35846Y5295
X35846Y5522
X35846Y5748
X36083Y5748
X36083Y5522
X36083Y5295
X36309Y5295
X36309Y5522
X36309Y5748
X38051Y5748
X38051Y5522
X38051Y5295
X38287Y5295
X38514Y5295
X38514Y5522
X38514Y5748
X38287Y5748
X38287Y5522
X37756Y4921
X37766Y4695
X37756Y4449
X37234Y4262
X37234Y4035
X37234Y3809
X37008Y3809
X37008Y4035
X37008Y4262
X36772Y4262
X36772Y4035
X36772Y3809
X34990Y2992
X35236Y7087
X34724Y7087
X35472Y8543
X35935Y9154
X35935Y9380
X35935Y9606
X36299Y8878
X36506Y11260
X36575Y12421
X36969Y12323
X36949Y12835
X36299Y13189
X35472Y12520
X35325Y13898
X35325Y14124
X35325Y14350
X34951Y14547
X34291Y13780
X32982Y14577
X32165Y14567
X32293Y12362
X32913Y10512
X33898Y9892
X38268Y12264
X38268Y12490
X38268Y12717
X39104Y12825
X38819Y13199
X39754Y12746
X39754Y12520
X39754Y12293
X40285Y12303
X40285Y12530
X40285Y12756
X41063Y13071
X41417Y12638
X43189Y12953
X43228Y13701
X42815Y14331
X42323Y14528
X43839Y14193
X44222Y13957
X45118Y13425
X45138Y12972
X45630Y11772
X44700Y10940
X45148Y9626
X45148Y9400
X45148Y9173
X45571Y9370
X45925Y9350
X46565Y10315
X46565Y10551
X46575Y10787
X46811Y10787
X46811Y10551
X46821Y11024
X46358Y14173
X45236Y14606
X40256Y14439
X39754Y14400
X38435Y7077
X38209Y7077
X37982Y7077
X37600Y6558
X40605Y5983
X42992Y3583
X43465Y3268
X45039Y2480
X45039Y827
X44902Y6988
X45069Y7156
X45246Y7313
X47057Y10787
X47057Y11024
X47067Y11260
X47303Y11260
X47303Y11024
X47549Y11024
X47549Y11260
X47549Y11496
X47313Y11496
X47441Y12520
X48081Y14242
X48337Y14734
X47579Y15148
X48996Y13711
X49429Y13445
X50118Y14528
X50512Y14547
X50984Y14488
X50276Y12470
X50394Y10157
X51614Y9016
X53858Y12835
X53898Y13386
X56220Y906
X59921Y4331
X59764Y17638
X57126Y17598
X56535Y17559
X55906Y16693
X54252Y18150
X54449Y19360
X55551Y19488
X51890Y19252
X50896Y18868
X50945Y18228
X48406Y18169
X48543Y19409
X50157Y20157
X52008Y28189
X54409Y27953
X54291Y29528
X53937Y30787
X55118Y30984
X56191Y27766
X55758Y26939
X59843Y30984
X38541Y27757
X38465Y26102
X38465Y24567
X38307Y23189
X38346Y22303
X38474Y21506
X38150Y20335
X37589Y19665
X37589Y19439
X37589Y19213
X38616Y19504
X39104Y18002
X37618Y17766
X37382Y17766
X37382Y17520
X37618Y17530
X36220Y18189
X35709Y19291
X33976Y19291
X33937Y18071
X32165Y18228
X32165Y19291
X32165Y20000
X31663Y20236
X33238Y20039
X33406Y21001
X35669Y21102
X36437Y21073
X36437Y21302
X36437Y21545
X35709Y22008
X34685Y22756
X34429Y23071
X34461Y23307
X34921Y23583
X34459Y25335
X33553Y24882
X33947Y26299
X35709Y28346
X32453Y16102
X42835Y17795
X44291Y19370
X45827Y18780
X45709Y18228
X46742Y19035
X30630Y18898
X30669Y19665
X30443Y19665
X30217Y19665
X30226Y20207
X30059Y20896
X29646Y20945
X28858Y20906
X28287Y21093
X28169Y21663
X27726Y22018
X29692Y22300
X30301Y21722
X30984Y21112
X30320Y24326
X29685Y25335
X27732Y24811
X27913Y19911
X28425Y19724
X27254Y18839
X26309Y18632
X26142Y18947
X25285Y19291
X24911Y17116
X24774Y16368
X25305Y16181
X24307Y16697
X23474Y16299
X22785Y16565
X22785Y17618
X22904Y18297
X22785Y19075
X22323Y19311
X20915Y19262
X20098Y19291
X19843Y19086
X21649Y17844
X21693Y17028
X23760Y18110
X28898Y17165
X29774Y16083
X18159Y16014
X17283Y16220
X17008Y18602
X16604Y18809
X16063Y19094
X15778Y19350
X15236Y19724
X15394Y18465
X15512Y16614
X14213Y16142
X12972Y20010
X13110Y21181
X13071Y24528
X11850Y24528
X12520Y26024
X13888Y27028
X15197Y25669
X15157Y25118
X10778Y27825
X9006Y29793
X866Y25079
X5472Y31457
X6931Y32528
X8346Y33701
X9449Y33701
X9596Y32402
X12077Y32372
X13770Y32392
X14213Y33297
X14567Y33169
X13937Y34882
X12943Y34882
X11850Y34921
X11762Y36801
X12411Y36673
X12844Y36939
X13701Y37264
X14163Y37530
X14055Y36686
X14803Y37047
X14970Y36250
X15157Y40276
X12510Y43504
X5354Y43504
X5925Y41486
X6112Y41083
X7057Y41683
X7835Y39724
X8740Y37008
X9222Y36801
X9882Y36929
X6457Y36614
X827Y37283
X16772Y41181
X17717Y41024
X20305Y40915
X19949Y41833
X19604Y42039
X20067Y42335
X20037Y43732
X20591Y45827
X18976Y45827
X21496Y44921
X25669Y45827
X27171Y45803
X25600Y43209
X25423Y42736
X25335Y41161
X25522Y40748
X26053Y41368
X26427Y40492
X29459Y40935
X31132Y41132
X31594Y40994
X31683Y41516
X34083Y41425
X34400Y40098
X34700Y39857
X34992Y39697
X35256Y39469
X35543Y39303
X35748Y38996
X36181Y39213
X36530Y39685
X36378Y40669
X35325Y40591
X35327Y40908
X36388Y42707
X36220Y43819
X36240Y45591
X37476Y45343
X43127Y45403
X43110Y46260
X43858Y44291
X44776Y44104
X46102Y45069
X45827Y45866
X45768Y46831
X46181Y42047
X45561Y41575
X45207Y41575
X44557Y41575
X44055Y41575
X42834Y41258
X43356Y40256
X42047Y40433
X41358Y39685
X43858Y36850
X37244Y36772
X36220Y36850
X34660Y36650
X34482Y36817
X34311Y36988
X37077Y38268
X38110Y34685
X38110Y32638
X50157Y32362
X51220Y32008
X52441Y32126
X51929Y33031
X52528Y35493
X52274Y37736
X52274Y37972
X52274Y38219
X52037Y38022
X52037Y37785
X52047Y39094
X52283Y39094
X52530Y39094
X53150Y38976
X53976Y38031
X52008Y40039
X51240Y39685
X51652Y41841
X53268Y41890
X53386Y44961
X52402Y44646
X48829Y46476
X48120Y46476
X46949Y39685
X49919Y36801
X50906Y36850
X55079Y32598
X55787Y32677
X55738Y32264
X59921Y38819
X59843Y44882
X59764Y58150
X56339Y61850
X34882Y56732
X34234Y53901
X33091Y53634
X32215Y53634
X31358Y53634
X34961Y50630
X34744Y47598
X35984Y47244
X28661Y50000
X26496Y48268
X26053Y47805
X26053Y47530
X20591Y47559
X17795Y48465
X16535Y49173
X19882Y50787
X18577Y53565
X19882Y55315
X17205Y56378
X22677Y56339
X25551Y55354
X28425Y55039
X28612Y55829
X28071Y56811
X29232Y53898
X30896Y53634
X27834Y61847
X15551Y61732
X4409Y61693
X709Y58268
X709Y48819
X15689Y20216
X15945Y21270
X16102Y21545
X15783Y22505
X15774Y23427
X16812Y23422
X17264Y23799
X17645Y23741
X18199Y23769
X18583Y23707
X18937Y23811
X19321Y23707
X20020Y23661
X20374Y23750
X20817Y23779
X21240Y23632
X21457Y23380
X21703Y23661
X22126Y23769
X22539Y23858
X23002Y23819
X23130Y23376
X23435Y23661
X23829Y23799
X24203Y23710
X24705Y23710
X25118Y23661
X24842Y23366
X24508Y23021
X24970Y22647
X25561Y21762
X25886Y21762
X25472Y21446
X25443Y21053
X25128Y21063
X24766Y21048
X24439Y20994
X23895Y20691
X23878Y21781
X23554Y21781
X23287Y22628
X22835Y22953
X21594Y22628
X21132Y22962
X19862Y22628
X19468Y22953
X19755Y23377
X18199Y23023
X17904Y22649
X18073Y22382
X17411Y21978
X17402Y21663
X17411Y21348
X17352Y20768
X17785Y21063
X18120Y21092
X18442Y21085
X18779Y21069
X19272Y21073
X19587Y21084
X20081Y21068
X20403Y21073
X20925Y21151
X21241Y21074
X22342Y20920
X22808Y21073
X22284Y21773
X21890Y21781
X26289Y21112
X26604Y21092
X26919Y21014
X27205Y20462
X27245Y21635
X27164Y22096
X26673Y22579
X26290Y22895
X26535Y23327
X26427Y23740
X26811Y23661
X27303Y23671
X25827Y23661
X25512Y23865
X16319Y24262
X16821Y22569
X17549Y19970
X16368Y26092
X16742Y26073
X17185Y26653
X17727Y26535
X17707Y26850
X17677Y27165
X17343Y27795
X16516Y27667
X16181Y27155
X16191Y26604
X18898Y26584
X18937Y27096
X19055Y27588
X18563Y28484
X18780Y29655
X19134Y29665
X19666Y29537
X20020Y29212
X20562Y28848
X20857Y29478
X21093Y29695
X21241Y29390
X21723Y29311
X21851Y29655
X22166Y29537
X22303Y29911
X22638Y29685
X22796Y29331
X23101Y29429
X23967Y29970
X23494Y30699
X24135Y31211
X24429Y31378
X24715Y31151
X25985Y31082
X25936Y30167
X25945Y29852
X25945Y29537
X25768Y28405
X25148Y28405
X24164Y28090
X24577Y27559
X24853Y27008
X24883Y26457
X24872Y26142
X24203Y26525
X23967Y26299
X23465Y27205
X23623Y27510
X23307Y27962
X22638Y27461
X22156Y27549
X21831Y27539
X21506Y27520
X21644Y26840
X21034Y26850
X21024Y27874
X21132Y28336
X20414Y27962
X20000Y26998
X19873Y26043
X19557Y26053
X21969Y26250
X22294Y28317
X22235Y30581
X21940Y30778
X21605Y30778
X21319Y31162
X21044Y30965
X20296Y31338
X20433Y31624
X20768Y31968
X20709Y32284
X20394Y32264
X20305Y32825
X20305Y33140
X21349Y33169
X22422Y33415
X22422Y34045
X22048Y33897
X22166Y34970
X23347Y35177
X24213Y35256
X24528Y35275
X25177Y34980
X26053Y35108
X26251Y34813
X26083Y34518
X26063Y34163
X25788Y33691
X25700Y33386
X26034Y33376
X26373Y33373
X26181Y32406
X26969Y32539
X27914Y32736
X28165Y32528
X28445Y32736
X28622Y32337
X28622Y32018
X28918Y31910
X29273Y32047
X29410Y32332
X29725Y32362
X30866Y32529
X30946Y33829
X29012Y34429
X28681Y34390
X28366Y34360
X28061Y34271
X27727Y34085
X27766Y34645
X27973Y34902
X27934Y35392
X28219Y35532
X28603Y35817
X28987Y36014
X29725Y36348
X29724Y36821
X29744Y38474
X30453Y38533
X30798Y39311
X29225Y38848
X28432Y38844
X28111Y37973
X28130Y37657
X27904Y37382
X27796Y36909
X27570Y36634
X27116Y36240
X26827Y35723
X26772Y34734
X26792Y34409
X27136Y34124
X27265Y34597
X28248Y33484
X28003Y33209
X25148Y32766
X24557Y32460
X24154Y32195
X23928Y32766
X24341Y33071
X24390Y33474
X24213Y33760
X24853Y33976
X23652Y34124
X23137Y34262
X23298Y33110
X22953Y32697
X23425Y32362
X22225Y32205
X22373Y31693
X21556Y31752
X21703Y30147
X20305Y30266
X18902Y31096
X18859Y31929
X18083Y31762
X17953Y32451
X17146Y32018
X16614Y31801
X16644Y32401
X16322Y32520
X16221Y32834
X16664Y33179
X15935Y33671
X15630Y33750
X15985Y34783
X16939Y34616
X17028Y34941
X17618Y35069
X17707Y34527
X17717Y34203
X18873Y34538
X18918Y35315
X20532Y35512
X20305Y35905
X20364Y36348
X21024Y36358
X20463Y37205
X20492Y37687
X21231Y37982
X21280Y38523
X20965Y38543
X20719Y38750
X22185Y38760
X21841Y38051
X23170Y37855
X23320Y37574
X23494Y37303
X23800Y37037
X24115Y37038
X23987Y37707
X24223Y37982
X24612Y37971
X24636Y38758
X24321Y38730
X24902Y39665
X25237Y39645
X25955Y39665
X26959Y39665
X28623Y37737
X25198Y36536
X24567Y36673
X23347Y38130
X19154Y38543
X18120Y38425
X18111Y38789
X18189Y39094
X18091Y37884
X18150Y37303
X18160Y36486
X17540Y36525
X16624Y36525
X16014Y36506
X15699Y37214
X17038Y37116
X17028Y37549
X16762Y37795
X16772Y38327
X17028Y38100
X16979Y38642
X16782Y38913
X16949Y39184
X16723Y39419
X16772Y39980
X15847Y39901
X20148Y39754
X19105Y37244
X17333Y35748
X16319Y35581
X15748Y31821
X16142Y30561
X16191Y30049
X17136Y29951
X17766Y30029
X17786Y30551
X17451Y31112
X16969Y31073
X16959Y30758
X26772Y30502
X26920Y30197
X27146Y29970
X27225Y29665
X27383Y29390
X27431Y28376
X27235Y28110
X26654Y27982
X26624Y28327
X26034Y27913
X26270Y27116
X26585Y27106
X26979Y27037
X27264Y26890
X27609Y25895
X26073Y26466
X29095Y26742
X29066Y27214
X29370Y27352
X29725Y27382
X29883Y27854
X30207Y27857
X30523Y27874
X29518Y27854
X28809Y27431
X28603Y28366
X28406Y29685
X28111Y29803
X29588Y28957
X29912Y28957
X30227Y28966
X30581Y28957
X29813Y26073
X31894Y26260
X31890Y26703
X32510Y26939
X32739Y27431
X33061Y27431
X33150Y28651
X31782Y28533
X31437Y28533
X31609Y29124
X31703Y30433
X32098Y30226
X32481Y30226
X32973Y30433
X32894Y30787
X33179Y30177
X31212Y30276
X31388Y27480
X31487Y33297
X32027Y32864
X32265Y32864
X32707Y33218
X32933Y32716
X33209Y35915
X33228Y36496
X33111Y37647
X32924Y37943
X32628Y37825
X32303Y37829
X32343Y37195
X32087Y36230
X32160Y35758
X31132Y35443
X31063Y36388
X31643Y38140
X31960Y38160
X32441Y38680
X32796Y38927
X33012Y39399
X33386Y39281
X33238Y38159
X31929Y39252
X31555Y39606
X31157Y38804
X37077Y38267
X36531Y39685
X41359Y39685
X46949Y39685
X51241Y39685
X29233Y53897
X30896Y53634
X31358Y53634
X32215Y53634
X33091Y53634
X34234Y53901
X28612Y55828
X28169Y21663
X29692Y22300
X30301Y21722
X30320Y24326
X33553Y24882
X39046Y24209
X39705Y24721
X40709Y24248
X40483Y23471
X41959Y23315
X41959Y24012
X41300Y25419
X41300Y25656
X41300Y25892
X41045Y26080
X40896Y25754
X41646Y27271
X41733Y27595
X41585Y28343
X42038Y28352
X42236Y29179
X42335Y29703
X41754Y29388
X41408Y28825
X40922Y29848
X40670Y29848
X40424Y29848
X39833Y30341
X39833Y30587
X39607Y30597
X39105Y30016
X39126Y29693
X39087Y29378
X39077Y29063
X39075Y28736
X39056Y28372
X39056Y28057
X39154Y26512
X43209Y26049
X43209Y25813
X43209Y25577
X43524Y25626
X43524Y25862
X43524Y26099
X43839Y26069
X43839Y25833
X43839Y25597
X45089Y25154
X45069Y26620
X47067Y26709
X47323Y26286
X47323Y25715
X48642Y25695
X48642Y25449
X48642Y25941
X48642Y26187
X48642Y26433
X48642Y26679
X48251Y26464
X47432Y27112
X47323Y27565
X47432Y28599
X47471Y28973
X47443Y29880
X48376Y29488
X48701Y29051
X48937Y30173
X48627Y31389
X48593Y32309
X48130Y32309
X47668Y33333
X46969Y33274
X46595Y33343
X46317Y33158
X46310Y33638
X45857Y33638
X45467Y33638
X44976Y33603
X44469Y33480
X43967Y33648
X43898Y33175
X43838Y32221
X43977Y31925
X44331Y30852
X44331Y30606
X44331Y30360
X44134Y29799
X45258Y28984
X44912Y31404
X46211Y31974
X46851Y31965
X46447Y32634
X47156Y30931
X47284Y34455
X47825Y34543
X48810Y34986
X49676Y34986
X49676Y34730
X49463Y33927
X44311Y34622
X43249Y34967
X42894Y34593
X42796Y34287
X42390Y34295
X42135Y34530
X41843Y34693
X41831Y34374
X41526Y34514
X41487Y34199
X41290Y33244
X42166Y33205
X42335Y34811
X42658Y34809
X39695Y34917
X39623Y33106
X39489Y32793
X39489Y32478
X40229Y32527
X40325Y31266
X40630Y31187
X41014Y31738
X41300Y32043
X41644Y30852
X41644Y30606
X41644Y30360
X42520Y30606
X42459Y31190
X44628Y23570
X45365Y23510
X46489Y23305
X46654Y23746
X46178Y22352
X47028Y22122
X47254Y22122
X47087Y21532
X47166Y20439
X46329Y20429
X46191Y21071
X45089Y19868
X44794Y19868
X47758Y22406
X47758Y22625
X49046Y22634
X49036Y22388
X49036Y22122
X49321Y23126
X49321Y23372
X49321Y23618
X49676Y35223
X47284Y35419
X46469Y35343
X45967Y35343
X45475Y35343
X44941Y35439
X44449Y35439
X42874Y35469
X40138Y36177
X39646Y36187
X8435Y38110
X8445Y38445
X8445Y38770
X8445Y39114
X9725Y39065
X10433Y38475
X11408Y38632
X11851Y38642
X12264Y38947
X13032Y39104
X13435Y39085
X13735Y38922
X44055Y41575
X44557Y41575
X45207Y41575
X45561Y41575
X44776Y44104
X19604Y42039
X19948Y41832
X20067Y42334
X20037Y43732
X28829Y42264
X29321Y42727
X30374Y42874
X31338Y42864
X32323Y42668
X33335Y42824
X33396Y43662
X33789Y44016
X32421Y44105
X33868Y45502
X29321Y45433
T02C0.037200
X39557Y42644
X40541Y42644
X40541Y43909
X39557Y43909
X32213Y49055
X33213Y49055
X34213Y49055
X31213Y49055
X30213Y49055
X29213Y49055
X19114Y49047
X19114Y48047
X19114Y47047
X18114Y47047
X18114Y48047
X18114Y49047
X18114Y50047
X19114Y50047
X19114Y51047
X18114Y51047
X18114Y52047
X19114Y52047
X19114Y53047
X18114Y53047
X18114Y54047
X19114Y54047
X19114Y55047
X18114Y55047
X18114Y56047
X19114Y56047
X19114Y57047
X18114Y57047
X18114Y58047
X19114Y58047
X32337Y35043
X33137Y35043
X32737Y37043
X27823Y43437
X28823Y43437
X29823Y43437
X30823Y43437
X31823Y43437
X31823Y44437
X30823Y44437
X29823Y44437
X28823Y44437
X27823Y44437
T03C0.045250
X14291Y7835
X15394Y7835
X15394Y9252
X14291Y9252
X14291Y10984
X15524Y10984
X16756Y10984
X17988Y10984
X19220Y10984
X20453Y10984
X21685Y10984
X21299Y9252
X22283Y9252
X23268Y9252
X24252Y9252
X25236Y9252
X25236Y7835
X24252Y7835
X23268Y7835
X22283Y7835
X21299Y7835
X19331Y7835
X18346Y7835
X18346Y9252
X19331Y9252
X20315Y9252
X17362Y9252
X16378Y9252
X16378Y7835
X23886Y10984
X25118Y10984
X27441Y10984
X28543Y10984
X29776Y10984
X31008Y10984
X30394Y9252
X29409Y9252
X28425Y9252
X27441Y9252
X27441Y7835
X28425Y7835
X29409Y7835
X31378Y7835
X32362Y7835
X33346Y7835
X34331Y7835
X35433Y7835
X35433Y9252
X34331Y9252
X33346Y9252
X32362Y9252
X31378Y9252
X32240Y10984
X34331Y10984
X35433Y10984
X37756Y10984
X38740Y10984
X39724Y10984
X40709Y10984
X41693Y10984
X42677Y10984
X42677Y9252
X41693Y9252
X40709Y9252
X39724Y9252
X38740Y9252
X37756Y9252
X37756Y7835
X38740Y7835
X40709Y7835
X41693Y7835
X42677Y7835
X6476Y43543
X7476Y43543
X8476Y43543
X9476Y43543
X10476Y43543
X11476Y43543
T04C0.090600
X37679Y43711
X42419Y43711
T05C0.137800
X17362Y5689
X39724Y5689
T06C0.157500
X4427Y48480
X13526Y48480
T07C0.196900
X1969Y2008
X58661Y2008
X1988Y27992
X58661Y60591
X1969Y60591
M30
