G04 #@! TF.GenerationSoftware,KiCad,Pcbnew,(6.0.1)*
G04 #@! TF.CreationDate,2022-03-07T20:20:30+02:00*
G04 #@! TF.ProjectId,hellen72_NB2,68656c6c-656e-4373-925f-4e42322e6b69,b*
G04 #@! TF.SameCoordinates,PX141ef50PYa2cc1bc*
G04 #@! TF.FileFunction,AssemblyDrawing,Top*
%FSLAX46Y46*%
G04 Gerber Fmt 4.6, Leading zero omitted, Abs format (unit mm)*
G04 Created by KiCad (PCBNEW (6.0.1)) date 2022-03-07 20:20:30*
%MOMM*%
%LPD*%
G01*
G04 APERTURE LIST*
%ADD10C,0.150000*%
%ADD11C,0.120000*%
%ADD12C,0.090000*%
%ADD13C,0.100000*%
%ADD14C,0.010000*%
G04 APERTURE END LIST*
D10*
G04 #@! TO.C,J27*
X52776060Y93187817D02*
X53490346Y93187817D01*
X53633203Y93140198D01*
X53728441Y93044960D01*
X53776060Y92902102D01*
X53776060Y92806864D01*
X52871299Y93616388D02*
X52823680Y93664007D01*
X52776060Y93759245D01*
X52776060Y93997340D01*
X52823680Y94092579D01*
X52871299Y94140198D01*
X52966537Y94187817D01*
X53061775Y94187817D01*
X53204632Y94140198D01*
X53776060Y93568769D01*
X53776060Y94187817D01*
X52776060Y94521150D02*
X52776060Y95187817D01*
X53776060Y94759245D01*
G04 #@! TO.C,J19*
X62910135Y4683661D02*
X62910135Y3969375D01*
X62862516Y3826518D01*
X62767278Y3731280D01*
X62624420Y3683661D01*
X62529182Y3683661D01*
X63910135Y3683661D02*
X63338706Y3683661D01*
X63624420Y3683661D02*
X63624420Y4683661D01*
X63529182Y4540803D01*
X63433944Y4445565D01*
X63338706Y4397946D01*
X64386325Y3683661D02*
X64576801Y3683661D01*
X64672039Y3731280D01*
X64719659Y3778899D01*
X64814897Y3921756D01*
X64862516Y4112232D01*
X64862516Y4493184D01*
X64814897Y4588422D01*
X64767278Y4636041D01*
X64672039Y4683661D01*
X64481563Y4683661D01*
X64386325Y4636041D01*
X64338706Y4588422D01*
X64291087Y4493184D01*
X64291087Y4255089D01*
X64338706Y4159851D01*
X64386325Y4112232D01*
X64481563Y4064613D01*
X64672039Y4064613D01*
X64767278Y4112232D01*
X64814897Y4159851D01*
X64862516Y4255089D01*
G04 #@! TO.C,D35*
X118260060Y112341055D02*
X117260060Y112341055D01*
X117260060Y112579150D01*
X117307680Y112722007D01*
X117402918Y112817245D01*
X117498156Y112864864D01*
X117688632Y112912483D01*
X117831489Y112912483D01*
X118021965Y112864864D01*
X118117203Y112817245D01*
X118212441Y112722007D01*
X118260060Y112579150D01*
X118260060Y112341055D01*
X117260060Y113245817D02*
X117260060Y113864864D01*
X117641013Y113531531D01*
X117641013Y113674388D01*
X117688632Y113769626D01*
X117736251Y113817245D01*
X117831489Y113864864D01*
X118069584Y113864864D01*
X118164822Y113817245D01*
X118212441Y113769626D01*
X118260060Y113674388D01*
X118260060Y113388674D01*
X118212441Y113293436D01*
X118164822Y113245817D01*
X117260060Y114769626D02*
X117260060Y114293436D01*
X117736251Y114245817D01*
X117688632Y114293436D01*
X117641013Y114388674D01*
X117641013Y114626769D01*
X117688632Y114722007D01*
X117736251Y114769626D01*
X117831489Y114817245D01*
X118069584Y114817245D01*
X118164822Y114769626D01*
X118212441Y114722007D01*
X118260060Y114626769D01*
X118260060Y114388674D01*
X118212441Y114293436D01*
X118164822Y114245817D01*
G04 #@! TO.C,J20*
X62910135Y8556463D02*
X62910135Y7842177D01*
X62862516Y7699320D01*
X62767278Y7604082D01*
X62624420Y7556463D01*
X62529182Y7556463D01*
X63338706Y8461224D02*
X63386325Y8508843D01*
X63481563Y8556463D01*
X63719659Y8556463D01*
X63814897Y8508843D01*
X63862516Y8461224D01*
X63910135Y8365986D01*
X63910135Y8270748D01*
X63862516Y8127891D01*
X63291087Y7556463D01*
X63910135Y7556463D01*
X64529182Y8556463D02*
X64624420Y8556463D01*
X64719659Y8508843D01*
X64767278Y8461224D01*
X64814897Y8365986D01*
X64862516Y8175510D01*
X64862516Y7937415D01*
X64814897Y7746939D01*
X64767278Y7651701D01*
X64719659Y7604082D01*
X64624420Y7556463D01*
X64529182Y7556463D01*
X64433944Y7604082D01*
X64386325Y7651701D01*
X64338706Y7746939D01*
X64291087Y7937415D01*
X64291087Y8175510D01*
X64338706Y8365986D01*
X64386325Y8461224D01*
X64433944Y8508843D01*
X64529182Y8556463D01*
G04 #@! TO.C,J1*
X143268346Y115727960D02*
X143268346Y115013674D01*
X143220727Y114870817D01*
X143125489Y114775579D01*
X142982632Y114727960D01*
X142887394Y114727960D01*
X144268346Y114727960D02*
X143696918Y114727960D01*
X143982632Y114727960D02*
X143982632Y115727960D01*
X143887394Y115585102D01*
X143792156Y115489864D01*
X143696918Y115442245D01*
G04 #@! TO.C,J5*
X141743346Y102152960D02*
X141743346Y101438674D01*
X141695727Y101295817D01*
X141600489Y101200579D01*
X141457632Y101152960D01*
X141362394Y101152960D01*
X142695727Y102152960D02*
X142219537Y102152960D01*
X142171918Y101676769D01*
X142219537Y101724388D01*
X142314775Y101772007D01*
X142552870Y101772007D01*
X142648108Y101724388D01*
X142695727Y101676769D01*
X142743346Y101581531D01*
X142743346Y101343436D01*
X142695727Y101248198D01*
X142648108Y101200579D01*
X142552870Y101152960D01*
X142314775Y101152960D01*
X142219537Y101200579D01*
X142171918Y101248198D01*
D11*
G04 #@! TO.C,J3*
X13918346Y101472007D02*
X14418346Y101472007D01*
X14518346Y101438674D01*
X14585013Y101372007D01*
X14618346Y101272007D01*
X14618346Y101205340D01*
X13918346Y101738674D02*
X13918346Y102172007D01*
X14185013Y101938674D01*
X14185013Y102038674D01*
X14218346Y102105340D01*
X14251680Y102138674D01*
X14318346Y102172007D01*
X14485013Y102172007D01*
X14551680Y102138674D01*
X14585013Y102105340D01*
X14618346Y102038674D01*
X14618346Y101838674D01*
X14585013Y101772007D01*
X14551680Y101738674D01*
D10*
G04 #@! TO.C,J13*
X4490476Y5647620D02*
X4490476Y4933334D01*
X4442857Y4790477D01*
X4347619Y4695239D01*
X4204761Y4647620D01*
X4109523Y4647620D01*
X5490476Y4647620D02*
X4919047Y4647620D01*
X5204761Y4647620D02*
X5204761Y5647620D01*
X5109523Y5504762D01*
X5014285Y5409524D01*
X4919047Y5361905D01*
X5823809Y5647620D02*
X6442857Y5647620D01*
X6109523Y5266667D01*
X6252380Y5266667D01*
X6347619Y5219048D01*
X6395238Y5171429D01*
X6442857Y5076191D01*
X6442857Y4838096D01*
X6395238Y4742858D01*
X6347619Y4695239D01*
X6252380Y4647620D01*
X5966666Y4647620D01*
X5871428Y4695239D01*
X5823809Y4742858D01*
G04 #@! TO.C,J22*
X65790476Y14547620D02*
X65790476Y13833334D01*
X65742857Y13690477D01*
X65647619Y13595239D01*
X65504761Y13547620D01*
X65409523Y13547620D01*
X66219047Y14452381D02*
X66266666Y14500000D01*
X66361904Y14547620D01*
X66600000Y14547620D01*
X66695238Y14500000D01*
X66742857Y14452381D01*
X66790476Y14357143D01*
X66790476Y14261905D01*
X66742857Y14119048D01*
X66171428Y13547620D01*
X66790476Y13547620D01*
X67171428Y14452381D02*
X67219047Y14500000D01*
X67314285Y14547620D01*
X67552380Y14547620D01*
X67647619Y14500000D01*
X67695238Y14452381D01*
X67742857Y14357143D01*
X67742857Y14261905D01*
X67695238Y14119048D01*
X67123809Y13547620D01*
X67742857Y13547620D01*
G04 #@! TO.C,BT1*
X27615965Y11776769D02*
X27758822Y11729150D01*
X27806441Y11681531D01*
X27854060Y11586293D01*
X27854060Y11443436D01*
X27806441Y11348198D01*
X27758822Y11300579D01*
X27663584Y11252960D01*
X27282632Y11252960D01*
X27282632Y12252960D01*
X27615965Y12252960D01*
X27711203Y12205340D01*
X27758822Y12157721D01*
X27806441Y12062483D01*
X27806441Y11967245D01*
X27758822Y11872007D01*
X27711203Y11824388D01*
X27615965Y11776769D01*
X27282632Y11776769D01*
X28139775Y12252960D02*
X28711203Y12252960D01*
X28425489Y11252960D02*
X28425489Y12252960D01*
X29568346Y11252960D02*
X28996918Y11252960D01*
X29282632Y11252960D02*
X29282632Y12252960D01*
X29187394Y12110102D01*
X29092156Y12014864D01*
X28996918Y11967245D01*
G04 #@! TO.C,J25*
X130702380Y87188820D02*
X131416666Y87188820D01*
X131559523Y87141201D01*
X131654761Y87045963D01*
X131702380Y86903105D01*
X131702380Y86807867D01*
X130797619Y87617391D02*
X130750000Y87665010D01*
X130702380Y87760248D01*
X130702380Y87998343D01*
X130750000Y88093582D01*
X130797619Y88141201D01*
X130892857Y88188820D01*
X130988095Y88188820D01*
X131130952Y88141201D01*
X131702380Y87569772D01*
X131702380Y88188820D01*
X130702380Y89093582D02*
X130702380Y88617391D01*
X131178571Y88569772D01*
X131130952Y88617391D01*
X131083333Y88712629D01*
X131083333Y88950724D01*
X131130952Y89045963D01*
X131178571Y89093582D01*
X131273809Y89141201D01*
X131511904Y89141201D01*
X131607142Y89093582D01*
X131654761Y89045963D01*
X131702380Y88950724D01*
X131702380Y88712629D01*
X131654761Y88617391D01*
X131607142Y88569772D01*
G04 #@! TO.C,U3*
X125865013Y81258674D02*
X126658346Y81258674D01*
X126751680Y81305340D01*
X126798346Y81352007D01*
X126845013Y81445340D01*
X126845013Y81632007D01*
X126798346Y81725340D01*
X126751680Y81772007D01*
X126658346Y81818674D01*
X125865013Y81818674D01*
X125865013Y82192007D02*
X125865013Y82798674D01*
X126238346Y82472007D01*
X126238346Y82612007D01*
X126285013Y82705340D01*
X126331680Y82752007D01*
X126425013Y82798674D01*
X126658346Y82798674D01*
X126751680Y82752007D01*
X126798346Y82705340D01*
X126845013Y82612007D01*
X126845013Y82332007D01*
X126798346Y82238674D01*
X126751680Y82192007D01*
D12*
G04 #@! TO.C,U4*
X135029299Y11669864D02*
X135029299Y11167960D01*
X135058822Y11108912D01*
X135088346Y11079388D01*
X135147394Y11049864D01*
X135265489Y11049864D01*
X135324537Y11079388D01*
X135354060Y11108912D01*
X135383584Y11167960D01*
X135383584Y11669864D01*
X135944537Y11463198D02*
X135944537Y11049864D01*
X135796918Y11699388D02*
X135649299Y11256531D01*
X136033108Y11256531D01*
D11*
G04 #@! TO.C,Q1*
X120303489Y113371245D02*
X120227299Y113409340D01*
X120151108Y113485531D01*
X120036822Y113599817D01*
X119960632Y113637912D01*
X119884441Y113637912D01*
X119922537Y113447436D02*
X119846346Y113485531D01*
X119770156Y113561721D01*
X119732060Y113714102D01*
X119732060Y113980769D01*
X119770156Y114133150D01*
X119846346Y114209340D01*
X119922537Y114247436D01*
X120074918Y114247436D01*
X120151108Y114209340D01*
X120227299Y114133150D01*
X120265394Y113980769D01*
X120265394Y113714102D01*
X120227299Y113561721D01*
X120151108Y113485531D01*
X120074918Y113447436D01*
X119922537Y113447436D01*
X121027299Y113447436D02*
X120570156Y113447436D01*
X120798727Y113447436D02*
X120798727Y114247436D01*
X120722537Y114133150D01*
X120646346Y114056960D01*
X120570156Y114018864D01*
D10*
G04 #@! TO.C,D31*
X51522060Y113865055D02*
X50522060Y113865055D01*
X50522060Y114103150D01*
X50569680Y114246007D01*
X50664918Y114341245D01*
X50760156Y114388864D01*
X50950632Y114436483D01*
X51093489Y114436483D01*
X51283965Y114388864D01*
X51379203Y114341245D01*
X51474441Y114246007D01*
X51522060Y114103150D01*
X51522060Y113865055D01*
X50522060Y114769817D02*
X50522060Y115388864D01*
X50903013Y115055531D01*
X50903013Y115198388D01*
X50950632Y115293626D01*
X50998251Y115341245D01*
X51093489Y115388864D01*
X51331584Y115388864D01*
X51426822Y115341245D01*
X51474441Y115293626D01*
X51522060Y115198388D01*
X51522060Y114912674D01*
X51474441Y114817436D01*
X51426822Y114769817D01*
X51522060Y116341245D02*
X51522060Y115769817D01*
X51522060Y116055531D02*
X50522060Y116055531D01*
X50664918Y115960293D01*
X50760156Y115865055D01*
X50807775Y115769817D01*
D11*
G04 #@! TO.C,Q2*
X88553489Y111847245D02*
X88477299Y111885340D01*
X88401108Y111961531D01*
X88286822Y112075817D01*
X88210632Y112113912D01*
X88134441Y112113912D01*
X88172537Y111923436D02*
X88096346Y111961531D01*
X88020156Y112037721D01*
X87982060Y112190102D01*
X87982060Y112456769D01*
X88020156Y112609150D01*
X88096346Y112685340D01*
X88172537Y112723436D01*
X88324918Y112723436D01*
X88401108Y112685340D01*
X88477299Y112609150D01*
X88515394Y112456769D01*
X88515394Y112190102D01*
X88477299Y112037721D01*
X88401108Y111961531D01*
X88324918Y111923436D01*
X88172537Y111923436D01*
X88820156Y112647245D02*
X88858251Y112685340D01*
X88934441Y112723436D01*
X89124918Y112723436D01*
X89201108Y112685340D01*
X89239203Y112647245D01*
X89277299Y112571055D01*
X89277299Y112494864D01*
X89239203Y112380579D01*
X88782060Y111923436D01*
X89277299Y111923436D01*
D10*
G04 #@! TO.C,J11*
X4490476Y154447620D02*
X4490476Y153733334D01*
X4442857Y153590477D01*
X4347619Y153495239D01*
X4204761Y153447620D01*
X4109523Y153447620D01*
X5490476Y153447620D02*
X4919047Y153447620D01*
X5204761Y153447620D02*
X5204761Y154447620D01*
X5109523Y154304762D01*
X5014285Y154209524D01*
X4919047Y154161905D01*
X6442857Y153447620D02*
X5871428Y153447620D01*
X6157142Y153447620D02*
X6157142Y154447620D01*
X6061904Y154304762D01*
X5966666Y154209524D01*
X5871428Y154161905D01*
G04 #@! TO.C,J4*
X108520706Y8266840D02*
X108520706Y7552554D01*
X108473087Y7409697D01*
X108377849Y7314459D01*
X108234992Y7266840D01*
X108139754Y7266840D01*
X109425468Y7933506D02*
X109425468Y7266840D01*
X109187373Y8314459D02*
X108949278Y7600173D01*
X109568325Y7600173D01*
G04 #@! TO.C,J21*
X62917156Y12427960D02*
X62917156Y11713674D01*
X62869537Y11570817D01*
X62774299Y11475579D01*
X62631441Y11427960D01*
X62536203Y11427960D01*
X63345727Y12332721D02*
X63393346Y12380340D01*
X63488584Y12427960D01*
X63726680Y12427960D01*
X63821918Y12380340D01*
X63869537Y12332721D01*
X63917156Y12237483D01*
X63917156Y12142245D01*
X63869537Y11999388D01*
X63298108Y11427960D01*
X63917156Y11427960D01*
X64869537Y11427960D02*
X64298108Y11427960D01*
X64583822Y11427960D02*
X64583822Y12427960D01*
X64488584Y12285102D01*
X64393346Y12189864D01*
X64298108Y12142245D01*
G04 #@! TO.C,D36*
X83462060Y107769055D02*
X82462060Y107769055D01*
X82462060Y108007150D01*
X82509680Y108150007D01*
X82604918Y108245245D01*
X82700156Y108292864D01*
X82890632Y108340483D01*
X83033489Y108340483D01*
X83223965Y108292864D01*
X83319203Y108245245D01*
X83414441Y108150007D01*
X83462060Y108007150D01*
X83462060Y107769055D01*
X82462060Y108673817D02*
X82462060Y109292864D01*
X82843013Y108959531D01*
X82843013Y109102388D01*
X82890632Y109197626D01*
X82938251Y109245245D01*
X83033489Y109292864D01*
X83271584Y109292864D01*
X83366822Y109245245D01*
X83414441Y109197626D01*
X83462060Y109102388D01*
X83462060Y108816674D01*
X83414441Y108721436D01*
X83366822Y108673817D01*
X82462060Y110150007D02*
X82462060Y109959531D01*
X82509680Y109864293D01*
X82557299Y109816674D01*
X82700156Y109721436D01*
X82890632Y109673817D01*
X83271584Y109673817D01*
X83366822Y109721436D01*
X83414441Y109769055D01*
X83462060Y109864293D01*
X83462060Y110054769D01*
X83414441Y110150007D01*
X83366822Y110197626D01*
X83271584Y110245245D01*
X83033489Y110245245D01*
X82938251Y110197626D01*
X82890632Y110150007D01*
X82843013Y110054769D01*
X82843013Y109864293D01*
X82890632Y109769055D01*
X82938251Y109721436D01*
X83033489Y109673817D01*
G04 #@! TO.C,J2*
X130854060Y100272007D02*
X131568346Y100272007D01*
X131711203Y100224388D01*
X131806441Y100129150D01*
X131854060Y99986293D01*
X131854060Y99891055D01*
X130949299Y100700579D02*
X130901680Y100748198D01*
X130854060Y100843436D01*
X130854060Y101081531D01*
X130901680Y101176769D01*
X130949299Y101224388D01*
X131044537Y101272007D01*
X131139775Y101272007D01*
X131282632Y101224388D01*
X131854060Y100652960D01*
X131854060Y101272007D01*
D13*
G04 #@! TO.C,P5*
X61032380Y34640220D02*
X61032380Y36545220D01*
X61032380Y36545220D02*
X61667380Y37180220D01*
X63572380Y37180220D02*
X63572380Y34640220D01*
X61667380Y37180220D02*
X63572380Y37180220D01*
X63572380Y34640220D02*
X61032380Y34640220D01*
G04 #@! TO.C,P6*
X61667380Y44682400D02*
X63572380Y44682400D01*
X61032380Y42142400D02*
X61032380Y44047400D01*
X63572380Y44682400D02*
X63572380Y42142400D01*
X63572380Y42142400D02*
X61032380Y42142400D01*
X61032380Y44047400D02*
X61667380Y44682400D01*
G04 #@! TO.C,J27*
X54593680Y101617340D02*
X54593680Y86377340D01*
X54593680Y86377340D02*
X52053680Y86377340D01*
X52688680Y101617340D02*
X54593680Y101617340D01*
X52053680Y100982340D02*
X52688680Y101617340D01*
X52053680Y86377340D02*
X52053680Y100982340D01*
G04 #@! TO.C,P19*
X42655680Y123461340D02*
X42655680Y125366340D01*
X45195680Y126001340D02*
X45195680Y123461340D01*
X45195680Y123461340D02*
X42655680Y123461340D01*
X42655680Y125366340D02*
X43290680Y126001340D01*
X43290680Y126001340D02*
X45195680Y126001340D01*
G04 #@! TO.C,P10*
X77453680Y116603340D02*
X77453680Y118508340D01*
X79993680Y116603340D02*
X77453680Y116603340D01*
X79993680Y119143340D02*
X79993680Y116603340D01*
X77453680Y118508340D02*
X78088680Y119143340D01*
X78088680Y119143340D02*
X79993680Y119143340D01*
G04 #@! TO.C,P12*
X30971680Y80275340D02*
X30971680Y77735340D01*
X30971680Y77735340D02*
X28431680Y77735340D01*
X29066680Y80275340D02*
X30971680Y80275340D01*
X28431680Y79640340D02*
X29066680Y80275340D01*
X28431680Y77735340D02*
X28431680Y79640340D01*
G04 #@! TO.C,P15*
X78088680Y116349340D02*
X79993680Y116349340D01*
X79993680Y113809340D02*
X77453680Y113809340D01*
X77453680Y113809340D02*
X77453680Y115714340D01*
X79993680Y116349340D02*
X79993680Y113809340D01*
X77453680Y115714340D02*
X78088680Y116349340D01*
G04 #@! TO.C,P56*
X140445680Y125239340D02*
X140445680Y123334340D01*
X137905680Y122699340D02*
X137905680Y125239340D01*
X139810680Y122699340D02*
X137905680Y122699340D01*
X140445680Y123334340D02*
X139810680Y122699340D01*
X137905680Y125239340D02*
X140445680Y125239340D01*
G04 #@! TO.C,P52*
X101202680Y115079340D02*
X99297680Y115079340D01*
X101837680Y115714340D02*
X101202680Y115079340D01*
X99297680Y115079340D02*
X99297680Y117619340D01*
X101837680Y117619340D02*
X101837680Y115714340D01*
X99297680Y117619340D02*
X101837680Y117619340D01*
G04 #@! TO.C,P13*
X31331680Y77375340D02*
X33871680Y77375340D01*
X33871680Y75470340D02*
X33236680Y74835340D01*
X31331680Y74835340D02*
X31331680Y77375340D01*
X33871680Y77375340D02*
X33871680Y75470340D01*
X33236680Y74835340D02*
X31331680Y74835340D01*
D10*
G04 #@! TO.C,J1*
X139901680Y113580340D02*
X139901680Y117080340D01*
X144401680Y117080340D02*
X139901680Y117080340D01*
X139901680Y113580340D02*
X147101680Y113580340D01*
X147101680Y117080340D02*
X147101680Y113580340D01*
X145801680Y117080340D02*
X145101680Y116380340D01*
X145101680Y116380340D02*
X144401680Y117080340D01*
X147101680Y117080340D02*
X145801680Y117080340D01*
D13*
G04 #@! TO.C,J5*
X134826680Y107655340D02*
X150326680Y107655340D01*
X150326680Y95555340D02*
X133826680Y95555340D01*
X150326680Y107655340D02*
X150326680Y95555340D01*
X133826680Y95555340D02*
X133826680Y106655340D01*
X133826680Y106655340D02*
X134826680Y107655340D01*
G04 #@! TO.C,P4*
X66382640Y44680220D02*
X66382640Y42140220D01*
X64477640Y44680220D02*
X66382640Y44680220D01*
X66382640Y42140220D02*
X63842640Y42140220D01*
X63842640Y44045220D02*
X64477640Y44680220D01*
X63842640Y42140220D02*
X63842640Y44045220D01*
G04 #@! TO.C,P21*
X14364680Y125747340D02*
X16269680Y125747340D01*
X16269680Y123207340D02*
X13729680Y123207340D01*
X13729680Y125112340D02*
X14364680Y125747340D01*
X16269680Y125747340D02*
X16269680Y123207340D01*
X13729680Y123207340D02*
X13729680Y125112340D01*
G04 #@! TO.C,P11*
X30971680Y77375340D02*
X30971680Y75470340D01*
X28431680Y74835340D02*
X28431680Y77375340D01*
X30336680Y74835340D02*
X28431680Y74835340D01*
X28431680Y77375340D02*
X30971680Y77375340D01*
X30971680Y75470340D02*
X30336680Y74835340D01*
G04 #@! TO.C,J3*
X26401680Y100705340D02*
X24987466Y101705340D01*
X26401680Y104405340D02*
X13601680Y104405340D01*
X24987466Y101705340D02*
X26401680Y102705340D01*
X13601680Y104405340D02*
X13601680Y99005340D01*
X13601680Y99005340D02*
X26401680Y99005340D01*
X26401680Y99005340D02*
X26401680Y104405340D01*
G04 #@! TO.C,P50*
X147049680Y129049340D02*
X147049680Y126509340D01*
X145144680Y129049340D02*
X147049680Y129049340D01*
X147049680Y126509340D02*
X144509680Y126509340D01*
X144509680Y126509340D02*
X144509680Y128414340D01*
X144509680Y128414340D02*
X145144680Y129049340D01*
G04 #@! TO.C,P8*
X79358680Y122191340D02*
X77453680Y122191340D01*
X79993680Y122826340D02*
X79358680Y122191340D01*
X79993680Y124731340D02*
X79993680Y122826340D01*
X77453680Y122191340D02*
X77453680Y124731340D01*
X77453680Y124731340D02*
X79993680Y124731340D01*
G04 #@! TO.C,P48*
X137905680Y121937340D02*
X140445680Y121937340D01*
X139810680Y119397340D02*
X137905680Y119397340D01*
X137905680Y119397340D02*
X137905680Y121937340D01*
X140445680Y121937340D02*
X140445680Y120032340D01*
X140445680Y120032340D02*
X139810680Y119397340D01*
G04 #@! TO.C,P16*
X22471680Y125775340D02*
X22471680Y123235340D01*
X22471680Y123235340D02*
X19931680Y123235340D01*
X19931680Y125140340D02*
X20566680Y125775340D01*
X19931680Y123235340D02*
X19931680Y125140340D01*
X20566680Y125775340D02*
X22471680Y125775340D01*
G04 #@! TO.C,U1*
X62801680Y29605340D02*
X64801680Y29605340D01*
X64801680Y28105340D02*
X64301680Y27605340D01*
X64301680Y27605340D02*
X62801680Y27605340D01*
X62801680Y27605340D02*
X62801680Y29605340D01*
X64801680Y29605340D02*
X64801680Y28105340D01*
G04 #@! TO.C,BT1*
X42601680Y8205340D02*
X39401680Y8205340D01*
X17401680Y19705340D02*
X37801680Y19705340D01*
X17401680Y15205340D02*
X14201680Y15205340D01*
X17401680Y3705340D02*
X17401680Y8205340D01*
X17401680Y19705340D02*
X17401680Y15205340D01*
X39401680Y3705340D02*
X39401680Y8205340D01*
X39401680Y18105340D02*
X39401680Y15205340D01*
X14201680Y15205340D02*
X14201680Y8205340D01*
X39401680Y15205340D02*
X42601680Y15205340D01*
X42601680Y15205340D02*
X42601680Y8205340D01*
X17401680Y3705340D02*
X39401680Y3705340D01*
X14201680Y8205340D02*
X17401680Y8205340D01*
X37801680Y19705340D02*
X39401680Y18105340D01*
G04 #@! TO.C,P9*
X79993680Y121937340D02*
X79993680Y120032340D01*
X79993680Y120032340D02*
X79358680Y119397340D01*
X79358680Y119397340D02*
X77453680Y119397340D01*
X77453680Y119397340D02*
X77453680Y121937340D01*
X77453680Y121937340D02*
X79993680Y121937340D01*
G04 #@! TO.C,J25*
X146826680Y91805340D02*
X146826680Y89905340D01*
X132826680Y83605340D02*
X132826680Y91805340D01*
X146826680Y83905340D02*
X146826680Y83605340D01*
X150826680Y89905340D02*
X150826680Y83905340D01*
X150826680Y83905340D02*
X146826680Y83905340D01*
X146826680Y83605340D02*
X132826680Y83605340D01*
X132826680Y91805340D02*
X146826680Y91805340D01*
X146826680Y89905340D02*
X150826680Y89905340D01*
G04 #@! TO.C,P23*
X47881680Y75190340D02*
X48516680Y75825340D01*
X48516680Y75825340D02*
X50421680Y75825340D01*
X47881680Y73285340D02*
X47881680Y75190340D01*
X50421680Y73285340D02*
X47881680Y73285340D01*
X50421680Y75825340D02*
X50421680Y73285340D01*
G04 #@! TO.C,P20*
X111931680Y90785340D02*
X111931680Y92690340D01*
X114471680Y93325340D02*
X114471680Y90785340D01*
X112566680Y93325340D02*
X114471680Y93325340D01*
X114471680Y90785340D02*
X111931680Y90785340D01*
X111931680Y92690340D02*
X112566680Y93325340D01*
G04 #@! TO.C,U3*
X127876680Y83955340D02*
X128851680Y82980340D01*
X128851680Y82980340D02*
X128851680Y80055340D01*
X123951680Y83955340D02*
X127876680Y83955340D01*
X128851680Y80055340D02*
X123951680Y80055340D01*
X123951680Y80055340D02*
X123951680Y83955340D01*
G04 #@! TO.C,U4*
X134251680Y10080340D02*
X134251680Y11955340D01*
X136751680Y10080340D02*
X134251680Y10080340D01*
X136751680Y12580340D02*
X136751680Y10080340D01*
X134876680Y12580340D02*
X136751680Y12580340D01*
X134251680Y11955340D02*
X134876680Y12580340D01*
G04 #@! TO.C,Q1*
X117029680Y115659340D02*
X123729680Y115659340D01*
X117029680Y113009340D02*
X117029680Y115659340D01*
X118079680Y111959340D02*
X117029680Y113009340D01*
X118079680Y111959340D02*
X123729680Y111959340D01*
X123729680Y111959340D02*
X123729680Y115659340D01*
G04 #@! TO.C,P3*
X23616680Y125775340D02*
X25521680Y125775340D01*
X25521680Y125775340D02*
X25521680Y123235340D01*
X22981680Y123235340D02*
X22981680Y125140340D01*
X25521680Y123235340D02*
X22981680Y123235340D01*
X22981680Y125140340D02*
X23616680Y125775340D01*
G04 #@! TO.C,Q2*
X85279680Y111485340D02*
X85279680Y114135340D01*
X86329680Y110435340D02*
X85279680Y111485340D01*
X91979680Y110435340D02*
X91979680Y114135340D01*
X85279680Y114135340D02*
X91979680Y114135340D01*
X86329680Y110435340D02*
X91979680Y110435340D01*
G04 #@! TO.C,P17*
X17466680Y125747340D02*
X19371680Y125747340D01*
X19371680Y123207340D02*
X16831680Y123207340D01*
X16831680Y125112340D02*
X17466680Y125747340D01*
X19371680Y125747340D02*
X19371680Y123207340D01*
X16831680Y123207340D02*
X16831680Y125112340D01*
G04 #@! TO.C,P18*
X65766680Y63009340D02*
X65131680Y63644340D01*
X67671680Y65549340D02*
X67671680Y63009340D01*
X65131680Y65549340D02*
X67671680Y65549340D01*
X67671680Y63009340D02*
X65766680Y63009340D01*
X65131680Y63644340D02*
X65131680Y65549340D01*
G04 #@! TO.C,P53*
X96249680Y115079340D02*
X96249680Y117619340D01*
X98154680Y115079340D02*
X96249680Y115079340D01*
X98789680Y117619340D02*
X98789680Y115714340D01*
X98789680Y115714340D02*
X98154680Y115079340D01*
X96249680Y117619340D02*
X98789680Y117619340D01*
G04 #@! TO.C,J4*
X93614040Y5179220D02*
X93614040Y10259220D01*
X122824040Y10259220D02*
X124094040Y8989220D01*
X124094040Y8989220D02*
X124094040Y5179220D01*
X93614040Y10259220D02*
X122824040Y10259220D01*
X124094040Y5179220D02*
X93614040Y5179220D01*
G04 #@! TO.C,P7*
X117331680Y118635340D02*
X117331680Y116730340D01*
X114791680Y118635340D02*
X117331680Y118635340D01*
X116696680Y116095340D02*
X114791680Y116095340D01*
X114791680Y116095340D02*
X114791680Y118635340D01*
X117331680Y116730340D02*
X116696680Y116095340D01*
G04 #@! TO.C,P1*
X110727680Y90075340D02*
X113267680Y90075340D01*
X110727680Y87535340D02*
X110727680Y90075340D01*
X113267680Y88170340D02*
X112632680Y87535340D01*
X113267680Y90075340D02*
X113267680Y88170340D01*
X112632680Y87535340D02*
X110727680Y87535340D01*
G04 #@! TO.C,P49*
X135111680Y122699340D02*
X135111680Y125239340D01*
X137651680Y125239340D02*
X137651680Y123334340D01*
X137651680Y123334340D02*
X137016680Y122699340D01*
X135111680Y125239340D02*
X137651680Y125239340D01*
X137016680Y122699340D02*
X135111680Y122699340D01*
G04 #@! TO.C,P51*
X135111680Y121937340D02*
X137651680Y121937340D01*
X137016680Y119397340D02*
X135111680Y119397340D01*
X137651680Y120032340D02*
X137016680Y119397340D01*
X135111680Y119397340D02*
X135111680Y121937340D01*
X137651680Y121937340D02*
X137651680Y120032340D01*
D14*
G04 #@! TO.C,U5*
X46607590Y116575340D02*
X47096780Y116575340D01*
X47096780Y116575340D02*
X47096780Y115057430D01*
X47096780Y115057430D02*
X46607590Y115057430D01*
X46607590Y115057430D02*
X46607590Y116575340D01*
G36*
X47096780Y115057430D02*
G01*
X46607590Y115057430D01*
X46607590Y116575340D01*
X47096780Y116575340D01*
X47096780Y115057430D01*
G37*
X47096780Y115057430D02*
X46607590Y115057430D01*
X46607590Y116575340D01*
X47096780Y116575340D01*
X47096780Y115057430D01*
X38981350Y103455240D02*
X39476780Y103455240D01*
X39476780Y103455240D02*
X39476780Y101927170D01*
X39476780Y101927170D02*
X38981350Y101927170D01*
X38981350Y101927170D02*
X38981350Y103455240D01*
G36*
X39476780Y101927170D02*
G01*
X38981350Y101927170D01*
X38981350Y103455240D01*
X39476780Y103455240D01*
X39476780Y101927170D01*
G37*
X39476780Y101927170D02*
X38981350Y101927170D01*
X38981350Y103455240D01*
X39476780Y103455240D01*
X39476780Y101927170D01*
X45338350Y103455240D02*
X45826780Y103455240D01*
X45826780Y103455240D02*
X45826780Y101927540D01*
X45826780Y101927540D02*
X45338350Y101927540D01*
X45338350Y101927540D02*
X45338350Y103455240D01*
G36*
X45826780Y101927540D02*
G01*
X45338350Y101927540D01*
X45338350Y103455240D01*
X45826780Y103455240D01*
X45826780Y101927540D01*
G37*
X45826780Y101927540D02*
X45338350Y101927540D01*
X45338350Y103455240D01*
X45826780Y103455240D01*
X45826780Y101927540D01*
X37715060Y103455240D02*
X38206780Y103455240D01*
X38206780Y103455240D02*
X38206780Y101933470D01*
X38206780Y101933470D02*
X37715060Y101933470D01*
X37715060Y101933470D02*
X37715060Y103455240D01*
G36*
X38206780Y101933470D02*
G01*
X37715060Y101933470D01*
X37715060Y103455240D01*
X38206780Y103455240D01*
X38206780Y101933470D01*
G37*
X38206780Y101933470D02*
X37715060Y101933470D01*
X37715060Y103455240D01*
X38206780Y103455240D01*
X38206780Y101933470D01*
X47882400Y103455240D02*
X48366780Y103455240D01*
X48366780Y103455240D02*
X48366780Y101925190D01*
X48366780Y101925190D02*
X47882400Y101925190D01*
X47882400Y101925190D02*
X47882400Y103455240D01*
G36*
X48366780Y101925190D02*
G01*
X47882400Y101925190D01*
X47882400Y103455240D01*
X48366780Y103455240D01*
X48366780Y101925190D01*
G37*
X48366780Y101925190D02*
X47882400Y101925190D01*
X47882400Y103455240D01*
X48366780Y103455240D01*
X48366780Y101925190D01*
X46607680Y103455240D02*
X47096780Y103455240D01*
X47096780Y103455240D02*
X47096780Y101932600D01*
X47096780Y101932600D02*
X46607680Y101932600D01*
X46607680Y101932600D02*
X46607680Y103455240D01*
G36*
X47096780Y101932600D02*
G01*
X46607680Y101932600D01*
X46607680Y103455240D01*
X47096780Y103455240D01*
X47096780Y101932600D01*
G37*
X47096780Y101932600D02*
X46607680Y101932600D01*
X46607680Y103455240D01*
X47096780Y103455240D01*
X47096780Y101932600D01*
X37708020Y116575340D02*
X38206780Y116575340D01*
X38206780Y116575340D02*
X38206780Y115063770D01*
X38206780Y115063770D02*
X37708020Y115063770D01*
X37708020Y115063770D02*
X37708020Y116575340D01*
G36*
X38206780Y115063770D02*
G01*
X37708020Y115063770D01*
X37708020Y116575340D01*
X38206780Y116575340D01*
X38206780Y115063770D01*
G37*
X38206780Y115063770D02*
X37708020Y115063770D01*
X37708020Y116575340D01*
X38206780Y116575340D01*
X38206780Y115063770D01*
X42795093Y103455240D02*
X43286780Y103455240D01*
X43286780Y103455240D02*
X43286780Y101922970D01*
X43286780Y101922970D02*
X42795093Y101922970D01*
X42795093Y101922970D02*
X42795093Y103455240D01*
G36*
X43286780Y101922970D02*
G01*
X42795093Y101922970D01*
X42795093Y103455240D01*
X43286780Y103455240D01*
X43286780Y101922970D01*
G37*
X43286780Y101922970D02*
X42795093Y101922970D01*
X42795093Y103455240D01*
X43286780Y103455240D01*
X43286780Y101922970D01*
X45339530Y116575340D02*
X45826780Y116575340D01*
X45826780Y116575340D02*
X45826780Y115065730D01*
X45826780Y115065730D02*
X45339530Y115065730D01*
X45339530Y115065730D02*
X45339530Y116575340D01*
G36*
X45826780Y115065730D02*
G01*
X45339530Y115065730D01*
X45339530Y116575340D01*
X45826780Y116575340D01*
X45826780Y115065730D01*
G37*
X45826780Y115065730D02*
X45339530Y115065730D01*
X45339530Y116575340D01*
X45826780Y116575340D01*
X45826780Y115065730D01*
X41523230Y116575340D02*
X42016780Y116575340D01*
X42016780Y116575340D02*
X42016780Y115064480D01*
X42016780Y115064480D02*
X41523230Y115064480D01*
X41523230Y115064480D02*
X41523230Y116575340D01*
G36*
X42016780Y115064480D02*
G01*
X41523230Y115064480D01*
X41523230Y116575340D01*
X42016780Y116575340D01*
X42016780Y115064480D01*
G37*
X42016780Y115064480D02*
X41523230Y115064480D01*
X41523230Y116575340D01*
X42016780Y116575340D01*
X42016780Y115064480D01*
X38985810Y116575340D02*
X39476780Y116575340D01*
X39476780Y116575340D02*
X39476780Y115056390D01*
X39476780Y115056390D02*
X38985810Y115056390D01*
X38985810Y115056390D02*
X38985810Y116575340D01*
G36*
X39476780Y115056390D02*
G01*
X38985810Y115056390D01*
X38985810Y116575340D01*
X39476780Y116575340D01*
X39476780Y115056390D01*
G37*
X39476780Y115056390D02*
X38985810Y115056390D01*
X38985810Y116575340D01*
X39476780Y116575340D01*
X39476780Y115056390D01*
X44067221Y116575340D02*
X44556780Y116575340D01*
X44556780Y116575340D02*
X44556780Y115064980D01*
X44556780Y115064980D02*
X44067221Y115064980D01*
X44067221Y115064980D02*
X44067221Y116575340D01*
G36*
X44556780Y115064980D02*
G01*
X44067221Y115064980D01*
X44067221Y116575340D01*
X44556780Y116575340D01*
X44556780Y115064980D01*
G37*
X44556780Y115064980D02*
X44067221Y115064980D01*
X44067221Y116575340D01*
X44556780Y116575340D01*
X44556780Y115064980D01*
X41526110Y103455240D02*
X42016780Y103455240D01*
X42016780Y103455240D02*
X42016780Y101933740D01*
X42016780Y101933740D02*
X41526110Y101933740D01*
X41526110Y101933740D02*
X41526110Y103455240D01*
G36*
X42016780Y101933740D02*
G01*
X41526110Y101933740D01*
X41526110Y103455240D01*
X42016780Y103455240D01*
X42016780Y101933740D01*
G37*
X42016780Y101933740D02*
X41526110Y101933740D01*
X41526110Y103455240D01*
X42016780Y103455240D01*
X42016780Y101933740D01*
X49154560Y103455240D02*
X49636780Y103455240D01*
X49636780Y103455240D02*
X49636780Y101924670D01*
X49636780Y101924670D02*
X49154560Y101924670D01*
X49154560Y101924670D02*
X49154560Y103455240D01*
G36*
X49636780Y101924670D02*
G01*
X49154560Y101924670D01*
X49154560Y103455240D01*
X49636780Y103455240D01*
X49636780Y101924670D01*
G37*
X49636780Y101924670D02*
X49154560Y101924670D01*
X49154560Y103455240D01*
X49636780Y103455240D01*
X49636780Y101924670D01*
X42795990Y116575340D02*
X43286780Y116575340D01*
X43286780Y116575340D02*
X43286780Y115059330D01*
X43286780Y115059330D02*
X42795990Y115059330D01*
X42795990Y115059330D02*
X42795990Y116575340D01*
G36*
X43286780Y115059330D02*
G01*
X42795990Y115059330D01*
X42795990Y116575340D01*
X43286780Y116575340D01*
X43286780Y115059330D01*
G37*
X43286780Y115059330D02*
X42795990Y115059330D01*
X42795990Y116575340D01*
X43286780Y116575340D01*
X43286780Y115059330D01*
X49149860Y116575340D02*
X49636780Y116575340D01*
X49636780Y116575340D02*
X49636780Y115058920D01*
X49636780Y115058920D02*
X49149860Y115058920D01*
X49149860Y115058920D02*
X49149860Y116575340D01*
G36*
X49636780Y115058920D02*
G01*
X49149860Y115058920D01*
X49149860Y116575340D01*
X49636780Y116575340D01*
X49636780Y115058920D01*
G37*
X49636780Y115058920D02*
X49149860Y115058920D01*
X49149860Y116575340D01*
X49636780Y116575340D01*
X49636780Y115058920D01*
X44066634Y103455240D02*
X44556780Y103455240D01*
X44556780Y103455240D02*
X44556780Y101934330D01*
X44556780Y101934330D02*
X44066634Y101934330D01*
X44066634Y101934330D02*
X44066634Y103455240D01*
G36*
X44556780Y101934330D02*
G01*
X44066634Y101934330D01*
X44066634Y103455240D01*
X44556780Y103455240D01*
X44556780Y101934330D01*
G37*
X44556780Y101934330D02*
X44066634Y101934330D01*
X44066634Y103455240D01*
X44556780Y103455240D01*
X44556780Y101934330D01*
X40253650Y103455240D02*
X40746780Y103455240D01*
X40746780Y103455240D02*
X40746780Y101929080D01*
X40746780Y101929080D02*
X40253650Y101929080D01*
X40253650Y101929080D02*
X40253650Y103455240D01*
G36*
X40746780Y101929080D02*
G01*
X40253650Y101929080D01*
X40253650Y103455240D01*
X40746780Y103455240D01*
X40746780Y101929080D01*
G37*
X40746780Y101929080D02*
X40253650Y101929080D01*
X40253650Y103455240D01*
X40746780Y103455240D01*
X40746780Y101929080D01*
X47876580Y116575340D02*
X48366780Y116575340D01*
X48366780Y116575340D02*
X48366780Y115055440D01*
X48366780Y115055440D02*
X47876580Y115055440D01*
X47876580Y115055440D02*
X47876580Y116575340D01*
G36*
X48366780Y115055440D02*
G01*
X47876580Y115055440D01*
X47876580Y116575340D01*
X48366780Y116575340D01*
X48366780Y115055440D01*
G37*
X48366780Y115055440D02*
X47876580Y115055440D01*
X47876580Y116575340D01*
X48366780Y116575340D01*
X48366780Y115055440D01*
X40251510Y116575340D02*
X40746780Y116575340D01*
X40746780Y116575340D02*
X40746780Y115064040D01*
X40746780Y115064040D02*
X40251510Y115064040D01*
X40251510Y115064040D02*
X40251510Y116575340D01*
G36*
X40746780Y115064040D02*
G01*
X40251510Y115064040D01*
X40251510Y116575340D01*
X40746780Y116575340D01*
X40746780Y115064040D01*
G37*
X40746780Y115064040D02*
X40251510Y115064040D01*
X40251510Y116575340D01*
X40746780Y116575340D01*
X40746780Y115064040D01*
D13*
G04 #@! TO.C,J2*
X127908787Y105605340D02*
X127201680Y105105340D01*
X127201680Y108055340D02*
X127201680Y94155340D01*
X127201680Y106105340D02*
X127908787Y105605340D01*
X132101680Y93155340D02*
X132101680Y108055340D01*
X132101680Y108055340D02*
X127201680Y108055340D01*
X128201680Y93155340D02*
X132101680Y93155340D01*
X127201680Y94155340D02*
X128201680Y93155340D01*
G04 #@! TD*
M02*
