M48
;Layer_Color=9474304
;FILE_FORMAT=2:4
INCH,TZ
;TYPE=PLATED
T1F00S00C0.0118
T2F00S00C0.0354
T3F00S00C0.0360
T4F00S00C0.0433
T5F00S00C0.0472
T6F00S00C0.0906
;TYPE=NON_PLATED
T7F00S00C0.1378
T8F00S00C0.1575
T9F00S00C0.1969
%
T01
X4291Y748
X866Y4449
X787Y14134
X11811Y13189
X14331Y12283
X15394Y14035
X12465Y3994
X15118Y669
X19803Y5079
Y5305
Y5531
X20157Y8189
X20197Y9941
X21742Y9911
X23366Y10049
X23150Y10364
X24558Y10158
X26102Y10207
X27047Y10394
X26732Y9685
Y8858
X26476Y6732
X26467Y5748
X26240
Y5522
Y5295
X26467
Y5522
X26004
Y5748
Y5295
X24734Y7146
X24715Y8484
X23386Y8583
X22520Y11604
X20276Y11634
X19774Y11604
X20079Y12618
X19321Y12894
X17677Y12874
X16796Y12598
X16408Y12540
X15915Y12638
X16004Y14272
X19419Y14557
X19538Y15070
X20571Y15591
X21781Y15207
X22628Y14793
X24094Y14469
X24055Y12559
X24852Y11654
X26142Y11417
X26754Y12630
X27126Y12441
X27451Y13159
X27579Y13494
X27589Y14341
X27392Y14813
X28661Y14705
X29783Y14646
X29764Y15541
X29045Y12441
X28691Y11978
X30630Y11929
X30157Y10354
X29980Y7274
X29892Y6900
X28947Y3110
X27953Y3307
X27086Y2756
X26771
X28031Y787
X31132Y3287
X23760Y3760
Y3986
Y4213
X18543Y8543
X18504Y10000
X17323Y11654
X32293Y12362
X32913Y10512
X33898Y9892
X36201Y9636
Y9409
Y9183
X36299Y8878
X35483Y8679
X35236Y7087
X34724
X35423Y5748
Y5522
Y5295
X35659
Y5522
Y5748
X35886
Y5522
Y5295
X36358Y5374
Y5138
Y4892
X36772Y4262
Y4035
Y3809
X37008
X37234
Y4035
Y4262
X37008
Y4035
X37756Y4449
X37766Y4695
X37756Y4921
X38051Y5295
Y5522
Y5748
X38287
X38514
Y5522
Y5295
X38287
Y5522
X38209Y7077
X38435
X37982
X37600Y6558
X40605Y5983
X42913Y3839
X44646Y2480
Y768
X44902Y6988
X45069Y7156
X45246Y7313
X45148Y9173
Y9400
Y9626
X45571Y9370
X45925Y9350
X46565Y10315
Y10551
X46575Y10787
X46811Y10787
Y10551
X46821Y11024
X45630Y11772
X44700Y10940
X45118Y13425
X45256Y14419
X46358Y14173
X44222Y13957
X43839Y14193
X43179Y14429
X42815Y14331
X42323Y14528
X43228Y13701
X43189Y12953
X41063Y13071
X41506Y12293
X40285Y12313
Y12539
Y12087
X39783Y12146
Y12372
Y11919
X39104Y12825
X38819Y13199
X38268Y12717
Y12490
Y12264
X36969Y12323
X36575Y12421
X36988Y12874
X36073Y13307
X35325Y13898
Y14124
Y14350
X34518Y14798
X34291Y13780
X32982Y14577
X35472Y12520
X36506Y11260
X39754Y14400
X40256Y14439
X34990Y2992
X31437Y2756
X31746Y4685
X47057Y10787
Y11024
X47067Y11260
X47303Y11260
Y11024
X47549
Y11260
Y11496
X47313
X47598Y12687
X48081Y14242
X48337Y14734
X47579Y15148
X48996Y13711
X49429Y13445
X50118Y14528
X50512Y14547
X50984Y14488
X50276Y12470
X50394Y10157
X52677Y10915
X52972Y11457
X53858Y12835
X53898Y13386
X55669Y14911
X59616Y11535
X59921Y4331
X56220Y906
X58091Y17274
X57205Y18209
X59665Y16919
X51132Y16998
X50769Y19850
X50157Y20157
X51230Y20364
X52805Y22648
X53642Y22923
X54035
X54429
X54823
X52628Y30541
X59843Y30984
X47175Y19409
X47975Y17629
X48445Y18071
X46742Y19035
X45827Y18780
X45709Y18228
X45157Y17461
X43494Y16791
X42835Y17795
X41821Y18012
X39104Y18002
X37618Y17766
X37382
Y17520
X37618Y17530
X37776Y19213
Y19439
Y19665
X38327Y19633
X38337Y19852
X38327Y20082
X38332Y20399
X38616Y19504
X36831Y19616
Y19377
Y19138
X36437Y19577
Y19813
X36693Y19911
X35758Y19252
X35807Y18228
X33937Y17943
X32943Y16811
X31988Y16654
X32453Y16102
X31673Y17913
X31506Y18858
X34805Y19843
X34488Y20315
X34468Y20699
X34577Y21073
X35906Y21033
X35996Y21773
X35917Y22282
X36840Y22343
X36732Y22087
X36742Y21806
X37372Y22402
X37923Y22776
X38012Y22991
Y23219
X37638Y23209
X36929Y23224
X36752Y24833
X37854Y24951
X38465Y24567
Y26102
X38541Y27757
X36821Y27402
X36102Y26339
X33947Y26299
X34459Y25335
X33553Y24882
X35541Y24685
X34461Y23307
X34429Y23071
X34685Y22756
X38346Y22303
X38474Y21506
X44291Y19370
X35709Y28346
X29685Y25335
X30315Y24360
X30322Y22300
X31063Y22106
X29646Y20945
X28858Y20906
X28406Y20989
X28169Y21663
X27726Y22018
X27913Y19911
X28425Y19724
X27254Y18839
X26386Y18926
X26181Y18583
X25285Y19291
X24911Y17116
X24774Y16368
X25305Y16181
X23474Y16299
X22923Y16339
X22628Y17402
X22866Y18071
X23238Y18425
X23760Y18150
X22785Y19075
X22323Y19262
X20915Y19262
X19862Y19282
X20217Y18848
X17008Y18760
X16604Y18809
X16063Y19094
X15778Y19350
X17283Y16220
X18199Y16014
X28781Y17255
X30512Y17047
X31240Y16870
X30069Y16486
X30361Y18094
X30325Y18504
X30551
X30778
X30699Y18888
X27732Y24811
X15157Y25118
X15197Y25669
X13888Y27028
X13769Y27908
X13858Y28730
X14212Y28813
X14567Y28685
X13937Y30398
X12943
X11850Y30437
X12077Y27888
X9596Y27918
X9400Y27165
X9449Y29217
X8346
X7382Y28681
X6931Y28044
X9173Y24793
X13071Y20699
X15236Y19724
X15394Y18750
X15482Y16211
X14213Y15925
X866Y25079
X5059Y31506
X7372Y32579
X8169Y32455
X8740Y32524
X9222Y32317
X9882Y32445
X11762Y32317
X12411Y32189
X14065Y32126
X15128Y33120
X15177Y37274
X14764Y37156
Y37923
X14071Y38051
X14041Y38386
X13957Y38730
X14041Y39114
X14035Y39862
X15157Y40276
X14764Y38947
X14248Y37411
X12431Y39980
X11417Y39567
X11486Y34715
X6693Y35433
X6112Y41083
X5925Y41486
X7057Y41683
X5354Y43504
X12510
X827Y37283
X16634Y41476
X17717Y41024
X19596Y40935
X20382Y41101
X20659Y40620
X20984Y40384
X21083Y41329
X21429Y41170
X21447Y41939
X21553Y42487
X22264Y41801
X19949Y41833
X19604Y42039
X20067Y42335
X20037Y43732
X22087Y44075
X22628Y44734
X20600Y45640
X18976
X17175Y45866
X17224Y46506
X16024Y46555
X16320Y44771
X25591Y45640
X26043Y45876
X27156Y46703
X25600Y43209
X25423Y42736
X25000Y42392
X25984Y42421
X25659Y41329
X24772Y41288
X24213Y40955
X25207Y40600
X25571Y40433
X26437Y40443
X29508Y41843
X31220Y42096
X31567Y41996
X31693Y42392
X31742Y41467
X31978Y40817
X33228Y40128
X33839Y40370
X33740Y41053
X33543Y41368
X34400Y40098
X34700Y39857
X34992Y39697
X35256Y39469
X35543Y39303
X35748Y38996
X36122Y39163
X36530Y39764
X36378Y40669
X35366Y40677
X35335Y40354
X34419Y42992
X36388Y43543
X36240Y45591
X37476Y45343
X43127Y45403
X43110Y46260
X43858Y44291
X44776Y44104
X46102Y45069
X45827Y45866
X45768Y46831
X46181Y42047
X46171Y40974
X45561Y41575
X45207
X44557
X44055
X42864Y41122
X43356Y40256
X42047Y40433
X41358Y39764
X43858Y36850
X38583Y35965
X37244Y36772
X36220Y36850
X34660Y36650
X34482Y36817
X34311Y36988
X37077Y38268
X36358Y34902
X36112Y32821
X50157Y32362
X49919Y36801
X50906Y36850
X52100Y36799
X52835Y36821
X52047Y37776
Y38002
X52047Y38228
X52051Y38448
X52047Y38671
Y39094
X52283
X52530
X53468Y39193
X53179Y39902
X52008Y40039
X51240Y39764
X50603Y42049
X52057Y41939
X53268Y41890
X53386Y44961
X52402Y44646
X48829Y46476
X47805Y46467
X46949Y39764
X54518Y38248
X55256Y37982
X55650
X56289Y38278
X57047Y37982
X57441
X59921Y38819
X59843Y44882
X59764Y58150
X55591Y61850
X34882Y56732
X34234Y54295
X33091Y54028
X32215
X31358
X34961Y50630
X34988Y48339
X35984Y47510
X28622Y50354
X26486Y48858
X26053Y48612
X26053Y48337
X21762Y48415
X17795Y48465
X16663Y48091
X16329Y47825
X16102Y48425
X19882Y50787
X18577Y53565
X19882Y55315
X17205Y56378
X22697Y56673
X25551Y55354
X28425Y55246
X28612Y56222
X28071Y56811
X29232Y54291
X30896Y54028
X27834Y61847
X15551Y61732
X4409Y61693
X709Y58268
Y48819
X15217Y49203
T02
X5591Y2165
X6437Y3888
X6661Y7087
X7661
X8661
X9661
X10661
X10886Y3888
X11732Y2165
X7031Y13902
X6032
X5031
X4031
X3031
Y14902
X4031
X5031
X6032
X7031
X51998Y21112
X52982
X53967
X54951
X55935
X56919
X57904
X58888
X7031Y21594
X6032
X5031
X4031
X3031
Y22594
X4031
X5031
X6032
X7031
Y23594
X6032
X5031
X4031
X3031
Y15902
X4031
X5031
X6032
X7031
X32213Y49449
X33213
X34213
X31213
X30213
X29213
X19114Y49047
Y50047
Y51047
Y52047
Y53047
Y54047
Y55047
Y56047
Y57047
Y58047
X18114
Y57047
Y56047
Y55047
Y54047
Y53047
Y52047
Y51047
Y50047
Y49047
Y48047
X19114
Y47047
X18114
T03
X39557Y42644
X40541
Y43909
X39557
T04
X6476Y43543
X7476
X8476
X9476
X10476
X11476
T05
X14291Y7835
X15394
Y9252
X14291
Y10984
X15524
X16756
X17988
X19220
X20453
X21685
X21299Y9252
X20315
X19331
X18346
X17362
X16378
Y7835
X18346
X19331
X21299
X22283
X23268
X24252
X25236
Y9252
X24252
X23268
X22283
X23886Y10984
X25118
X27441
X28543
X29776
X31008
X30394Y9252
X29409
X28425
X27441
Y7835
X28425
X29409
X31378
X32362
X33346
X34331
X35433
Y9252
X34331
X33346
X32362
X31378
X32240Y10984
X34331
X35433
X37756
X38740
X39724
X40709
X41693
X42677
Y9252
X41693
X40709
X39724
X38740
X37756
Y7835
X38740
X40709
X41693
X42677
T06
X37679Y43711
X42419
T07
X17362Y5689
X39724
T08
X4427Y48480
X13526
T09
X1969Y2008
X8661Y2756
X46063
X58661Y2008
X1988Y27992
X58661Y60591
X1969
M30
