G04*
G04 #@! TF.GenerationSoftware,Altium Limited,Altium Designer,20.2.7 (254)*
G04*
G04 Layer_Color=7674933*
%FSLAX25Y25*%
%MOIN*%
G70*
G04*
G04 #@! TF.SameCoordinates,F98F9565-604B-4D99-A629-EFE6A8A473C1*
G04*
G04*
G04 #@! TF.FilePolarity,Negative*
G04*
G01*
G75*
G04:AMPARAMS|DCode=53|XSize=48.82mil|YSize=90.16mil|CornerRadius=7.09mil|HoleSize=0mil|Usage=FLASHONLY|Rotation=0.000|XOffset=0mil|YOffset=0mil|HoleType=Round|Shape=RoundedRectangle|*
%AMROUNDEDRECTD53*
21,1,0.04882,0.07598,0,0,0.0*
21,1,0.03465,0.09016,0,0,0.0*
1,1,0.01417,0.01732,-0.03799*
1,1,0.01417,-0.01732,-0.03799*
1,1,0.01417,-0.01732,0.03799*
1,1,0.01417,0.01732,0.03799*
%
%ADD53ROUNDEDRECTD53*%
G04:AMPARAMS|DCode=54|XSize=48.82mil|YSize=90.16mil|CornerRadius=7.09mil|HoleSize=0mil|Usage=FLASHONLY|Rotation=0.000|XOffset=0mil|YOffset=0mil|HoleType=Round|Shape=RoundedRectangle|*
%AMROUNDEDRECTD54*
21,1,0.04882,0.07599,0,0,0.0*
21,1,0.03465,0.09016,0,0,0.0*
1,1,0.01417,0.01732,-0.03799*
1,1,0.01417,-0.01732,-0.03799*
1,1,0.01417,-0.01732,0.03799*
1,1,0.01417,0.01732,0.03799*
%
%ADD54ROUNDEDRECTD54*%
G04:AMPARAMS|DCode=55|XSize=143.31mil|YSize=90.16mil|CornerRadius=11.22mil|HoleSize=0mil|Usage=FLASHONLY|Rotation=0.000|XOffset=0mil|YOffset=0mil|HoleType=Round|Shape=RoundedRectangle|*
%AMROUNDEDRECTD55*
21,1,0.14331,0.06772,0,0,0.0*
21,1,0.12087,0.09016,0,0,0.0*
1,1,0.02244,0.06043,-0.03386*
1,1,0.02244,-0.06043,-0.03386*
1,1,0.02244,-0.06043,0.03386*
1,1,0.02244,0.06043,0.03386*
%
%ADD55ROUNDEDRECTD55*%
G04:AMPARAMS|DCode=56|XSize=31.1mil|YSize=37.01mil|CornerRadius=5.32mil|HoleSize=0mil|Usage=FLASHONLY|Rotation=0.000|XOffset=0mil|YOffset=0mil|HoleType=Round|Shape=RoundedRectangle|*
%AMROUNDEDRECTD56*
21,1,0.03110,0.02638,0,0,0.0*
21,1,0.02047,0.03701,0,0,0.0*
1,1,0.01063,0.01024,-0.01319*
1,1,0.01063,-0.01024,-0.01319*
1,1,0.01063,-0.01024,0.01319*
1,1,0.01063,0.01024,0.01319*
%
%ADD56ROUNDEDRECTD56*%
G04:AMPARAMS|DCode=57|XSize=23.23mil|YSize=37.01mil|CornerRadius=4.53mil|HoleSize=0mil|Usage=FLASHONLY|Rotation=0.000|XOffset=0mil|YOffset=0mil|HoleType=Round|Shape=RoundedRectangle|*
%AMROUNDEDRECTD57*
21,1,0.02323,0.02795,0,0,0.0*
21,1,0.01417,0.03701,0,0,0.0*
1,1,0.00906,0.00709,-0.01398*
1,1,0.00906,-0.00709,-0.01398*
1,1,0.00906,-0.00709,0.01398*
1,1,0.00906,0.00709,0.01398*
%
%ADD57ROUNDEDRECTD57*%
G04:AMPARAMS|DCode=58|XSize=29.13mil|YSize=29.13mil|CornerRadius=5.12mil|HoleSize=0mil|Usage=FLASHONLY|Rotation=270.000|XOffset=0mil|YOffset=0mil|HoleType=Round|Shape=RoundedRectangle|*
%AMROUNDEDRECTD58*
21,1,0.02913,0.01890,0,0,270.0*
21,1,0.01890,0.02913,0,0,270.0*
1,1,0.01024,-0.00945,-0.00945*
1,1,0.01024,-0.00945,0.00945*
1,1,0.01024,0.00945,0.00945*
1,1,0.01024,0.00945,-0.00945*
%
%ADD58ROUNDEDRECTD58*%
G04:AMPARAMS|DCode=59|XSize=44.88mil|YSize=62.6mil|CornerRadius=6.69mil|HoleSize=0mil|Usage=FLASHONLY|Rotation=0.000|XOffset=0mil|YOffset=0mil|HoleType=Round|Shape=RoundedRectangle|*
%AMROUNDEDRECTD59*
21,1,0.04488,0.04921,0,0,0.0*
21,1,0.03150,0.06260,0,0,0.0*
1,1,0.01339,0.01575,-0.02461*
1,1,0.01339,-0.01575,-0.02461*
1,1,0.01339,-0.01575,0.02461*
1,1,0.01339,0.01575,0.02461*
%
%ADD59ROUNDEDRECTD59*%
G04:AMPARAMS|DCode=60|XSize=44.88mil|YSize=48.82mil|CornerRadius=6.69mil|HoleSize=0mil|Usage=FLASHONLY|Rotation=270.000|XOffset=0mil|YOffset=0mil|HoleType=Round|Shape=RoundedRectangle|*
%AMROUNDEDRECTD60*
21,1,0.04488,0.03543,0,0,270.0*
21,1,0.03150,0.04882,0,0,270.0*
1,1,0.01339,-0.01772,-0.01575*
1,1,0.01339,-0.01772,0.01575*
1,1,0.01339,0.01772,0.01575*
1,1,0.01339,0.01772,-0.01575*
%
%ADD60ROUNDEDRECTD60*%
G04:AMPARAMS|DCode=61|XSize=29.13mil|YSize=29.13mil|CornerRadius=5.12mil|HoleSize=0mil|Usage=FLASHONLY|Rotation=180.000|XOffset=0mil|YOffset=0mil|HoleType=Round|Shape=RoundedRectangle|*
%AMROUNDEDRECTD61*
21,1,0.02913,0.01890,0,0,180.0*
21,1,0.01890,0.02913,0,0,180.0*
1,1,0.01024,-0.00945,0.00945*
1,1,0.01024,0.00945,0.00945*
1,1,0.01024,0.00945,-0.00945*
1,1,0.01024,-0.00945,-0.00945*
%
%ADD61ROUNDEDRECTD61*%
G04:AMPARAMS|DCode=62|XSize=33.07mil|YSize=41.73mil|CornerRadius=5.51mil|HoleSize=0mil|Usage=FLASHONLY|Rotation=180.000|XOffset=0mil|YOffset=0mil|HoleType=Round|Shape=RoundedRectangle|*
%AMROUNDEDRECTD62*
21,1,0.03307,0.03071,0,0,180.0*
21,1,0.02205,0.04173,0,0,180.0*
1,1,0.01102,-0.01102,0.01535*
1,1,0.01102,0.01102,0.01535*
1,1,0.01102,0.01102,-0.01535*
1,1,0.01102,-0.01102,-0.01535*
%
%ADD62ROUNDEDRECTD62*%
%ADD63R,0.04291X0.01535*%
%ADD64R,0.01535X1.55079*%
%ADD65R,0.09409X0.01535*%
%ADD66R,0.12756X0.01535*%
%ADD67R,0.20433X0.01535*%
%ADD68R,0.12165X0.01535*%
%ADD69C,0.12362*%
G04:AMPARAMS|DCode=70|XSize=15.35mil|YSize=33.07mil|CornerRadius=7.68mil|HoleSize=0mil|Usage=FLASHONLY|Rotation=180.000|XOffset=0mil|YOffset=0mil|HoleType=Round|Shape=RoundedRectangle|*
%AMROUNDEDRECTD70*
21,1,0.01535,0.01772,0,0,180.0*
21,1,0.00000,0.03307,0,0,180.0*
1,1,0.01535,0.00000,0.00886*
1,1,0.01535,0.00000,0.00886*
1,1,0.01535,0.00000,-0.00886*
1,1,0.01535,0.00000,-0.00886*
%
%ADD70ROUNDEDRECTD70*%
%ADD71O,0.04488X0.02520*%
%ADD72O,0.01339X0.02520*%
%ADD73R,0.06457X0.05669*%
G04:AMPARAMS|DCode=74|XSize=38.98mil|YSize=38.98mil|CornerRadius=6.1mil|HoleSize=0mil|Usage=FLASHONLY|Rotation=0.000|XOffset=0mil|YOffset=0mil|HoleType=Round|Shape=RoundedRectangle|*
%AMROUNDEDRECTD74*
21,1,0.03898,0.02677,0,0,0.0*
21,1,0.02677,0.03898,0,0,0.0*
1,1,0.01221,0.01339,-0.01339*
1,1,0.01221,-0.01339,-0.01339*
1,1,0.01221,-0.01339,0.01339*
1,1,0.01221,0.01339,0.01339*
%
%ADD74ROUNDEDRECTD74*%
%ADD75O,0.02520X0.01535*%
%ADD76O,0.01535X0.02520*%
%ADD77O,0.02520X0.04488*%
%ADD78O,0.01339X0.03307*%
%ADD79O,0.01535X0.02520*%
%ADD80O,0.04488X0.06457*%
%ADD81O,0.03701X0.02913*%
G04:AMPARAMS|DCode=82|XSize=33.07mil|YSize=41.73mil|CornerRadius=5.51mil|HoleSize=0mil|Usage=FLASHONLY|Rotation=270.000|XOffset=0mil|YOffset=0mil|HoleType=Round|Shape=RoundedRectangle|*
%AMROUNDEDRECTD82*
21,1,0.03307,0.03071,0,0,270.0*
21,1,0.02205,0.04173,0,0,270.0*
1,1,0.01102,-0.01535,-0.01102*
1,1,0.01102,-0.01535,0.01102*
1,1,0.01102,0.01535,0.01102*
1,1,0.01102,0.01535,-0.01102*
%
%ADD82ROUNDEDRECTD82*%
%ADD83R,0.01929X0.01535*%
%ADD84R,0.01535X0.01929*%
%ADD85O,0.01339X0.02126*%
G04:AMPARAMS|DCode=86|XSize=37.01mil|YSize=84.25mil|CornerRadius=5.91mil|HoleSize=0mil|Usage=FLASHONLY|Rotation=0.000|XOffset=0mil|YOffset=0mil|HoleType=Round|Shape=RoundedRectangle|*
%AMROUNDEDRECTD86*
21,1,0.03701,0.07244,0,0,0.0*
21,1,0.02520,0.08425,0,0,0.0*
1,1,0.01181,0.01260,-0.03622*
1,1,0.01181,-0.01260,-0.03622*
1,1,0.01181,-0.01260,0.03622*
1,1,0.01181,0.01260,0.03622*
%
%ADD86ROUNDEDRECTD86*%
G04:AMPARAMS|DCode=87|XSize=56.69mil|YSize=64.57mil|CornerRadius=7.87mil|HoleSize=0mil|Usage=FLASHONLY|Rotation=0.000|XOffset=0mil|YOffset=0mil|HoleType=Round|Shape=RoundedRectangle|*
%AMROUNDEDRECTD87*
21,1,0.05669,0.04882,0,0,0.0*
21,1,0.04095,0.06457,0,0,0.0*
1,1,0.01575,0.02047,-0.02441*
1,1,0.01575,-0.02047,-0.02441*
1,1,0.01575,-0.02047,0.02441*
1,1,0.01575,0.02047,0.02441*
%
%ADD87ROUNDEDRECTD87*%
%ADD88C,0.16299*%
G04:AMPARAMS|DCode=89|XSize=44.88mil|YSize=62.6mil|CornerRadius=6.69mil|HoleSize=0mil|Usage=FLASHONLY|Rotation=90.000|XOffset=0mil|YOffset=0mil|HoleType=Round|Shape=RoundedRectangle|*
%AMROUNDEDRECTD89*
21,1,0.04488,0.04921,0,0,90.0*
21,1,0.03150,0.06260,0,0,90.0*
1,1,0.01339,0.02461,0.01575*
1,1,0.01339,0.02461,-0.01575*
1,1,0.01339,-0.02461,-0.01575*
1,1,0.01339,-0.02461,0.01575*
%
%ADD89ROUNDEDRECTD89*%
G04:AMPARAMS|DCode=90|XSize=31.1mil|YSize=37.01mil|CornerRadius=5.32mil|HoleSize=0mil|Usage=FLASHONLY|Rotation=270.000|XOffset=0mil|YOffset=0mil|HoleType=Round|Shape=RoundedRectangle|*
%AMROUNDEDRECTD90*
21,1,0.03110,0.02638,0,0,270.0*
21,1,0.02047,0.03701,0,0,270.0*
1,1,0.01063,-0.01319,-0.01024*
1,1,0.01063,-0.01319,0.01024*
1,1,0.01063,0.01319,0.01024*
1,1,0.01063,0.01319,-0.01024*
%
%ADD90ROUNDEDRECTD90*%
G04:AMPARAMS|DCode=91|XSize=23.23mil|YSize=37.01mil|CornerRadius=4.53mil|HoleSize=0mil|Usage=FLASHONLY|Rotation=270.000|XOffset=0mil|YOffset=0mil|HoleType=Round|Shape=RoundedRectangle|*
%AMROUNDEDRECTD91*
21,1,0.02323,0.02795,0,0,270.0*
21,1,0.01417,0.03701,0,0,270.0*
1,1,0.00906,-0.01398,-0.00709*
1,1,0.00906,-0.01398,0.00709*
1,1,0.00906,0.01398,0.00709*
1,1,0.00906,0.01398,-0.00709*
%
%ADD91ROUNDEDRECTD91*%
G04:AMPARAMS|DCode=92|XSize=38.98mil|YSize=38.98mil|CornerRadius=6.1mil|HoleSize=0mil|Usage=FLASHONLY|Rotation=90.000|XOffset=0mil|YOffset=0mil|HoleType=Round|Shape=RoundedRectangle|*
%AMROUNDEDRECTD92*
21,1,0.03898,0.02677,0,0,90.0*
21,1,0.02677,0.03898,0,0,90.0*
1,1,0.01221,0.01339,0.01339*
1,1,0.01221,0.01339,-0.01339*
1,1,0.01221,-0.01339,-0.01339*
1,1,0.01221,-0.01339,0.01339*
%
%ADD92ROUNDEDRECTD92*%
%ADD93R,0.10394X0.10394*%
%ADD94C,0.06457*%
%ADD95R,0.06457X0.06457*%
%ADD96O,0.07441X0.10394*%
%ADD97C,0.03307*%
%ADD98C,0.02913*%
%ADD99C,0.06551*%
%ADD100C,0.00551*%
%ADD101O,0.06457X0.10000*%
%ADD102C,0.06951*%
%ADD103C,0.06693*%
%ADD104R,0.06693X0.06693*%
%ADD105R,0.06457X0.06457*%
G36*
X169961Y463695D02*
X169819D01*
Y466398D01*
X169961D01*
Y463695D01*
D02*
G37*
G36*
Y467025D02*
X169722D01*
Y468366D01*
X169961D01*
Y467025D01*
D02*
G37*
G36*
Y470329D02*
X169772D01*
Y470335D01*
X169961D01*
Y470329D01*
D02*
G37*
D53*
X362008Y256594D02*
D03*
X380118D02*
D03*
X355807Y217618D02*
D03*
X373917D02*
D03*
D54*
X371063Y256594D02*
D03*
X364862Y217618D02*
D03*
D55*
X371063Y281004D02*
D03*
X364862Y242028D02*
D03*
D56*
X491634Y177362D02*
D03*
Y184449D02*
D03*
X501673D02*
D03*
Y177362D02*
D03*
X92714Y286164D02*
D03*
Y279078D02*
D03*
X82675D02*
D03*
Y286164D02*
D03*
X124407D02*
D03*
Y279078D02*
D03*
X134447D02*
D03*
Y286164D02*
D03*
X408957Y177264D02*
D03*
Y184350D02*
D03*
X398917D02*
D03*
Y177264D02*
D03*
X449114Y177953D02*
D03*
Y185039D02*
D03*
X439075D02*
D03*
Y177953D02*
D03*
X358268Y178740D02*
D03*
Y185827D02*
D03*
X348228D02*
D03*
Y178740D02*
D03*
X568504Y178543D02*
D03*
Y185630D02*
D03*
X558465D02*
D03*
Y178543D02*
D03*
X575591Y178347D02*
D03*
Y185433D02*
D03*
X585630D02*
D03*
Y178347D02*
D03*
X300394Y169488D02*
D03*
Y162402D02*
D03*
X290354D02*
D03*
Y169488D02*
D03*
D57*
X495079Y177362D02*
D03*
X498228D02*
D03*
Y184449D02*
D03*
X495079D02*
D03*
X89269Y286164D02*
D03*
X86120D02*
D03*
Y279078D02*
D03*
X89269D02*
D03*
X131002D02*
D03*
X127852D02*
D03*
Y286164D02*
D03*
X131002D02*
D03*
X402362Y184350D02*
D03*
X405512D02*
D03*
Y177264D02*
D03*
X402362D02*
D03*
X442520Y185039D02*
D03*
X445669D02*
D03*
Y177953D02*
D03*
X442520D02*
D03*
X351673Y185827D02*
D03*
X354823D02*
D03*
Y178740D02*
D03*
X351673D02*
D03*
X561909Y185630D02*
D03*
X565059D02*
D03*
Y178543D02*
D03*
X561909D02*
D03*
X579035Y178347D02*
D03*
X582185D02*
D03*
Y185433D02*
D03*
X579035D02*
D03*
X296949Y169488D02*
D03*
X293799D02*
D03*
Y162402D02*
D03*
X296949D02*
D03*
D58*
X550787Y385827D02*
D03*
X559449D02*
D03*
X285827Y180216D02*
D03*
X277165D02*
D03*
X259842D02*
D03*
X251181D02*
D03*
X272835D02*
D03*
X264173D02*
D03*
D59*
X331201Y416929D02*
D03*
X323721D02*
D03*
X331201Y410138D02*
D03*
X323721D02*
D03*
D60*
X588583Y155905D02*
D03*
Y149213D02*
D03*
X278543Y163386D02*
D03*
Y170079D02*
D03*
X71061Y311854D02*
D03*
Y318546D02*
D03*
X81691Y311854D02*
D03*
Y318546D02*
D03*
X92321Y311854D02*
D03*
Y318546D02*
D03*
X102950Y311854D02*
D03*
Y318546D02*
D03*
X113580Y311854D02*
D03*
Y318546D02*
D03*
X124210Y311854D02*
D03*
Y318546D02*
D03*
X134840Y311854D02*
D03*
Y318546D02*
D03*
X145470Y311854D02*
D03*
Y318546D02*
D03*
X415945Y149213D02*
D03*
Y155905D02*
D03*
X405315Y149213D02*
D03*
Y155905D02*
D03*
X394685Y149213D02*
D03*
Y155905D02*
D03*
X384055Y149213D02*
D03*
Y155905D02*
D03*
X348327Y149213D02*
D03*
Y155905D02*
D03*
X424803Y149213D02*
D03*
Y155905D02*
D03*
X358957Y149213D02*
D03*
Y155905D02*
D03*
X435433Y149213D02*
D03*
Y155905D02*
D03*
X456693Y149213D02*
D03*
Y155905D02*
D03*
X446063Y149213D02*
D03*
Y155905D02*
D03*
X337697Y149213D02*
D03*
Y155905D02*
D03*
X369587Y149213D02*
D03*
Y155905D02*
D03*
X552165Y155905D02*
D03*
Y149213D02*
D03*
X541536Y155905D02*
D03*
Y149213D02*
D03*
X530906Y155905D02*
D03*
Y149213D02*
D03*
X520276Y155905D02*
D03*
Y149213D02*
D03*
X475787Y155905D02*
D03*
Y149213D02*
D03*
X486417Y155905D02*
D03*
Y149213D02*
D03*
X497047Y155905D02*
D03*
Y149213D02*
D03*
X507677Y155905D02*
D03*
Y149213D02*
D03*
X565551Y155905D02*
D03*
Y149213D02*
D03*
X307677Y155905D02*
D03*
Y149213D02*
D03*
X576958Y155905D02*
D03*
Y149213D02*
D03*
X318307Y155905D02*
D03*
Y149213D02*
D03*
X328937Y155905D02*
D03*
Y149213D02*
D03*
X258465Y163386D02*
D03*
Y170079D02*
D03*
X268701Y163386D02*
D03*
Y170079D02*
D03*
D61*
X217421Y414862D02*
D03*
Y423524D02*
D03*
X224016Y414862D02*
D03*
Y423524D02*
D03*
X454528Y172441D02*
D03*
Y163779D02*
D03*
X348524Y172835D02*
D03*
Y164173D02*
D03*
X435630Y172441D02*
D03*
Y163779D02*
D03*
X405118Y172441D02*
D03*
Y163779D02*
D03*
X415748Y172441D02*
D03*
Y163779D02*
D03*
X394882Y172441D02*
D03*
Y163779D02*
D03*
X424606Y172441D02*
D03*
Y163779D02*
D03*
X368701Y172933D02*
D03*
Y164272D02*
D03*
X358760Y172835D02*
D03*
Y164173D02*
D03*
X337894Y172835D02*
D03*
Y164173D02*
D03*
X385827Y172933D02*
D03*
Y164272D02*
D03*
X446260Y172441D02*
D03*
Y163779D02*
D03*
X552362Y163779D02*
D03*
Y172441D02*
D03*
X541339Y163779D02*
D03*
Y172441D02*
D03*
X530709Y163779D02*
D03*
Y172441D02*
D03*
X520079Y163779D02*
D03*
Y172441D02*
D03*
X476378Y163386D02*
D03*
Y172047D02*
D03*
X486221Y163779D02*
D03*
Y172441D02*
D03*
X496850Y163779D02*
D03*
Y172441D02*
D03*
X507480Y163779D02*
D03*
Y172441D02*
D03*
X566437Y162992D02*
D03*
Y171653D02*
D03*
X307480Y164173D02*
D03*
Y172835D02*
D03*
X576772Y163779D02*
D03*
Y172441D02*
D03*
X318110Y163779D02*
D03*
Y172441D02*
D03*
X588386Y163779D02*
D03*
Y172441D02*
D03*
X328740Y163976D02*
D03*
Y172638D02*
D03*
D62*
X204134Y405709D02*
D03*
X197835D02*
D03*
D63*
X531988Y227756D02*
D03*
D64*
X530610Y304528D02*
D03*
X588681D02*
D03*
D65*
X563484Y381299D02*
D03*
D66*
X583071D02*
D03*
D67*
X540059D02*
D03*
D68*
X583366Y227756D02*
D03*
D69*
X570472Y234154D02*
D03*
X556693D02*
D03*
D70*
X296870Y257283D02*
D03*
D71*
X340158Y231102D02*
D03*
X516417Y382973D02*
D03*
X516417Y390453D02*
D03*
D72*
X279035Y215158D02*
D03*
D73*
X57382Y90650D02*
D03*
Y83169D02*
D03*
D74*
X78799Y83563D02*
D03*
X72579D02*
D03*
X168268Y458465D02*
D03*
X162047D02*
D03*
X61654Y414764D02*
D03*
X67874D02*
D03*
D75*
X212480Y413996D02*
D03*
X152559Y179232D02*
D03*
Y169783D02*
D03*
X222736Y177756D02*
D03*
Y174311D02*
D03*
Y171555D02*
D03*
D76*
X171732Y414193D02*
D03*
X173701D02*
D03*
D77*
X443504Y451968D02*
D03*
D78*
X458347Y445571D02*
D03*
D79*
X437972Y404626D02*
D03*
D80*
X425301Y198971D02*
D03*
X481896D02*
D03*
X486840D02*
D03*
D81*
X389652Y212736D02*
D03*
D82*
X520571Y416240D02*
D03*
Y409941D02*
D03*
X237402Y176772D02*
D03*
Y183071D02*
D03*
D83*
X162795Y467618D02*
D03*
Y465650D02*
D03*
Y469587D02*
D03*
Y463681D02*
D03*
X169095Y469587D02*
D03*
Y467618D02*
D03*
Y465650D02*
D03*
Y463681D02*
D03*
D84*
X164961Y469783D02*
D03*
X166929D02*
D03*
Y463484D02*
D03*
X164961D02*
D03*
D85*
X132776Y351379D02*
D03*
X136083D02*
D03*
X129823D02*
D03*
X140709D02*
D03*
X145334D02*
D03*
X148327D02*
D03*
X125197D02*
D03*
X120571D02*
D03*
D86*
X485236Y457579D02*
D03*
X468701D02*
D03*
X485039Y431988D02*
D03*
X468504D02*
D03*
D87*
X544488Y469488D02*
D03*
X537008D02*
D03*
Y406398D02*
D03*
X544488D02*
D03*
Y438268D02*
D03*
X537008D02*
D03*
D88*
X563189Y500984D02*
D03*
Y406496D02*
D03*
Y437992D02*
D03*
Y469488D02*
D03*
X376791Y437106D02*
D03*
X424193D02*
D03*
D89*
X258661Y155315D02*
D03*
Y147835D02*
D03*
X190748Y155315D02*
D03*
Y147835D02*
D03*
X200591Y155315D02*
D03*
Y147835D02*
D03*
X291142D02*
D03*
Y155315D02*
D03*
X245866Y147835D02*
D03*
Y155315D02*
D03*
X236024Y147835D02*
D03*
Y155315D02*
D03*
X223228Y147835D02*
D03*
Y155315D02*
D03*
X213386Y147835D02*
D03*
Y155315D02*
D03*
X177953Y147835D02*
D03*
Y155315D02*
D03*
X278346D02*
D03*
Y147835D02*
D03*
X268504Y155315D02*
D03*
Y147835D02*
D03*
D90*
X290945Y187894D02*
D03*
X298031D02*
D03*
Y177854D02*
D03*
X290945D02*
D03*
X510433Y415453D02*
D03*
X503346D02*
D03*
Y405413D02*
D03*
X510433D02*
D03*
D91*
X290945Y184449D02*
D03*
Y181299D02*
D03*
X298031D02*
D03*
Y184449D02*
D03*
X503346Y408858D02*
D03*
Y412008D02*
D03*
X510433D02*
D03*
Y408858D02*
D03*
D92*
X463484Y458701D02*
D03*
Y464921D02*
D03*
X364728Y417717D02*
D03*
Y423937D02*
D03*
D93*
X108858Y38878D02*
D03*
X64370D02*
D03*
X117323Y21654D02*
D03*
X55905D02*
D03*
D94*
X106614Y70866D02*
D03*
X96614D02*
D03*
X86614D02*
D03*
X76614D02*
D03*
X342126Y494488D02*
D03*
X332126D02*
D03*
X322126D02*
D03*
X312126D02*
D03*
X302126D02*
D03*
X181142Y580472D02*
D03*
X191142D02*
D03*
X181142Y570472D02*
D03*
X191142D02*
D03*
X181142Y560472D02*
D03*
X191142D02*
D03*
X181142Y550472D02*
D03*
X191142D02*
D03*
X181142Y540472D02*
D03*
X191142D02*
D03*
X181142Y530472D02*
D03*
X191142D02*
D03*
X181142Y520472D02*
D03*
X191142D02*
D03*
X181142Y510472D02*
D03*
X191142D02*
D03*
X181142Y500472D02*
D03*
X191142D02*
D03*
X181142Y490472D02*
D03*
X191142D02*
D03*
X181142Y480472D02*
D03*
X191142D02*
D03*
X181142Y470472D02*
D03*
D95*
X66614Y70866D02*
D03*
X292126Y494488D02*
D03*
D96*
X529823Y211122D02*
D03*
X569193D02*
D03*
X588878D02*
D03*
X579035D02*
D03*
X559350D02*
D03*
X549508D02*
D03*
X539665D02*
D03*
X519980D02*
D03*
D97*
X552559Y379823D02*
D03*
X556496D02*
D03*
X570472D02*
D03*
X574409D02*
D03*
X548228Y229232D02*
D03*
X544291D02*
D03*
X540354D02*
D03*
X536417D02*
D03*
D98*
X303219Y223002D02*
D03*
X335531Y248819D02*
D03*
X310630Y221063D02*
D03*
X281693Y216634D02*
D03*
X303150Y243602D02*
D03*
X286122Y562225D02*
D03*
X313583Y540276D02*
D03*
X330906D02*
D03*
X322146D02*
D03*
X292323Y542914D02*
D03*
X308957Y540276D02*
D03*
X342339Y542949D02*
D03*
X200374Y437323D02*
D03*
X200669Y423347D02*
D03*
X199488Y418327D02*
D03*
X196043Y420394D02*
D03*
X447756Y441043D02*
D03*
X445571Y415748D02*
D03*
X440551D02*
D03*
X455610D02*
D03*
X452067D02*
D03*
X365302Y397638D02*
D03*
X413583D02*
D03*
X370768Y382677D02*
D03*
X512402Y397638D02*
D03*
X469488D02*
D03*
X140413Y391142D02*
D03*
X147638Y389468D02*
D03*
X139567Y387303D02*
D03*
X140413Y383858D02*
D03*
X147638Y379232D02*
D03*
X140709Y380512D02*
D03*
X142480Y374114D02*
D03*
X147638Y371555D02*
D03*
X140354Y398622D02*
D03*
X124311Y399803D02*
D03*
D99*
X30315Y139016D02*
D03*
X40315D02*
D03*
X50315D02*
D03*
X60315D02*
D03*
X70315D02*
D03*
X30315Y149016D02*
D03*
X70315D02*
D03*
X60315D02*
D03*
X50315D02*
D03*
X40315D02*
D03*
Y159016D02*
D03*
X50315D02*
D03*
X60315D02*
D03*
X70315D02*
D03*
X30315D02*
D03*
Y215945D02*
D03*
X40315D02*
D03*
X50315D02*
D03*
X60315D02*
D03*
X70315D02*
D03*
X30315Y225945D02*
D03*
X70315D02*
D03*
X60315D02*
D03*
X50315D02*
D03*
X40315D02*
D03*
Y235945D02*
D03*
X50315D02*
D03*
X60315D02*
D03*
X70315D02*
D03*
X30315D02*
D03*
D100*
X460630Y27559D02*
D03*
X86614D02*
D03*
X173622Y56890D02*
D03*
X397244D02*
D03*
X135256Y484803D02*
D03*
X44272D02*
D03*
X19879Y279921D02*
D03*
X586614Y20079D02*
D03*
Y605905D02*
D03*
X19685D02*
D03*
Y20079D02*
D03*
D101*
X142913Y92520D02*
D03*
Y78347D02*
D03*
X153937Y92520D02*
D03*
Y78347D02*
D03*
X163779Y92520D02*
D03*
Y78347D02*
D03*
X173622Y92520D02*
D03*
X183465D02*
D03*
Y78347D02*
D03*
X193307Y92520D02*
D03*
Y78347D02*
D03*
X203150Y92520D02*
D03*
X212992Y78347D02*
D03*
Y92520D02*
D03*
X222835Y78347D02*
D03*
Y92520D02*
D03*
X232677Y78347D02*
D03*
Y92520D02*
D03*
X242520Y78347D02*
D03*
Y92520D02*
D03*
X238858Y109843D02*
D03*
X252362Y78347D02*
D03*
Y92520D02*
D03*
X251181Y109843D02*
D03*
X274409Y78347D02*
D03*
Y92520D02*
D03*
Y109843D02*
D03*
X284252Y78347D02*
D03*
Y92520D02*
D03*
X285433Y109843D02*
D03*
X294094Y78347D02*
D03*
Y92520D02*
D03*
X303937D02*
D03*
X297756Y109843D02*
D03*
X313779Y78347D02*
D03*
Y92520D02*
D03*
X310079Y109843D02*
D03*
X323622Y78347D02*
D03*
Y92520D02*
D03*
X322402Y109843D02*
D03*
X333465Y78347D02*
D03*
Y92520D02*
D03*
X343307Y78347D02*
D03*
Y92520D02*
D03*
Y109843D02*
D03*
X354331Y78347D02*
D03*
Y92520D02*
D03*
Y109843D02*
D03*
X377559Y78347D02*
D03*
Y92520D02*
D03*
Y109843D02*
D03*
X387402Y78347D02*
D03*
Y92520D02*
D03*
Y109843D02*
D03*
X397244Y92520D02*
D03*
X407087Y78347D02*
D03*
Y92520D02*
D03*
Y109843D02*
D03*
X416929Y78347D02*
D03*
Y92520D02*
D03*
X426772Y78347D02*
D03*
Y92520D02*
D03*
X416929Y109843D02*
D03*
X426772D02*
D03*
X216850D02*
D03*
X204528D02*
D03*
X192205D02*
D03*
X179882D02*
D03*
X167559D02*
D03*
X155236D02*
D03*
X142913D02*
D03*
X397244D02*
D03*
D102*
X405413Y426437D02*
D03*
Y439094D02*
D03*
X395571D02*
D03*
Y426437D02*
D03*
D103*
X114764Y435433D02*
D03*
X104764D02*
D03*
X94764D02*
D03*
X84764D02*
D03*
X74764D02*
D03*
D104*
X64764D02*
D03*
D105*
X191142Y470472D02*
D03*
M02*
