G04*
G04 #@! TF.GenerationSoftware,Altium Limited,Altium Designer,20.2.7 (254)*
G04*
G04 Layer_Color=16711935*
%FSLAX25Y25*%
%MOIN*%
G70*
G04*
G04 #@! TF.SameCoordinates,F98F9565-604B-4D99-A629-EFE6A8A473C1*
G04*
G04*
G04 #@! TF.FilePolarity,Negative*
G04*
G01*
G75*
%ADD63R,0.04291X0.01535*%
%ADD64R,0.01535X1.55079*%
%ADD65R,0.09409X0.01535*%
%ADD66R,0.12756X0.01535*%
%ADD67R,0.20433X0.01535*%
%ADD80O,0.04488X0.06457*%
%ADD81O,0.03701X0.02913*%
%ADD88C,0.16299*%
%ADD93R,0.10394X0.10394*%
%ADD94C,0.06457*%
%ADD95R,0.06457X0.06457*%
%ADD96O,0.07441X0.10394*%
%ADD97C,0.03307*%
%ADD98C,0.02913*%
%ADD99C,0.06551*%
%ADD100C,0.00551*%
%ADD101O,0.06457X0.10000*%
%ADD102C,0.06951*%
%ADD103C,0.06693*%
%ADD104R,0.06693X0.06693*%
%ADD105R,0.06457X0.06457*%
%ADD209R,0.38937X0.01535*%
G04:AMPARAMS|DCode=210|XSize=15.35mil|YSize=25.2mil|CornerRadius=7.68mil|HoleSize=0mil|Usage=FLASHONLY|Rotation=90.000|XOffset=0mil|YOffset=0mil|HoleType=Round|Shape=RoundedRectangle|*
%AMROUNDEDRECTD210*
21,1,0.01535,0.00984,0,0,90.0*
21,1,0.00000,0.02520,0,0,90.0*
1,1,0.01535,0.00492,0.00000*
1,1,0.01535,0.00492,0.00000*
1,1,0.01535,-0.00492,0.00000*
1,1,0.01535,-0.00492,0.00000*
%
%ADD210ROUNDEDRECTD210*%
G04:AMPARAMS|DCode=211|XSize=15.35mil|YSize=25.2mil|CornerRadius=7.68mil|HoleSize=0mil|Usage=FLASHONLY|Rotation=0.000|XOffset=0mil|YOffset=0mil|HoleType=Round|Shape=RoundedRectangle|*
%AMROUNDEDRECTD211*
21,1,0.01535,0.00984,0,0,0.0*
21,1,0.00000,0.02520,0,0,0.0*
1,1,0.01535,0.00000,-0.00492*
1,1,0.01535,0.00000,-0.00492*
1,1,0.01535,0.00000,0.00492*
1,1,0.01535,0.00000,0.00492*
%
%ADD211ROUNDEDRECTD211*%
%ADD212O,0.02126X0.01339*%
%ADD213O,0.02913X0.02126*%
%ADD214O,0.02913X0.03701*%
%ADD215O,0.45433X0.04882*%
%ADD216O,0.02126X0.02913*%
D63*
X531988Y227756D02*
D03*
D64*
X588681Y304528D02*
D03*
X530610D02*
D03*
D65*
X563484Y381299D02*
D03*
D66*
X583071D02*
D03*
D67*
X540059D02*
D03*
D80*
X495282Y198873D02*
D03*
X490337D02*
D03*
D81*
X389652Y238834D02*
D03*
Y235389D02*
D03*
Y231156D02*
D03*
Y218853D02*
D03*
Y209896D02*
D03*
D88*
X376791Y437106D02*
D03*
X424193D02*
D03*
D93*
X108858Y38878D02*
D03*
X64370D02*
D03*
X117323Y21654D02*
D03*
X55905D02*
D03*
D94*
X106614Y70866D02*
D03*
X96614D02*
D03*
X86614D02*
D03*
X76614D02*
D03*
X342126Y494488D02*
D03*
X332126D02*
D03*
X322126D02*
D03*
X312126D02*
D03*
X302126D02*
D03*
X181142Y580472D02*
D03*
X191142D02*
D03*
X181142Y570472D02*
D03*
X191142D02*
D03*
X181142Y560472D02*
D03*
X191142D02*
D03*
X181142Y550472D02*
D03*
X191142D02*
D03*
X181142Y540472D02*
D03*
X191142D02*
D03*
X181142Y530472D02*
D03*
X191142D02*
D03*
X181142Y520472D02*
D03*
X191142D02*
D03*
X181142Y510472D02*
D03*
X191142D02*
D03*
X181142Y500472D02*
D03*
X191142D02*
D03*
X181142Y490472D02*
D03*
X191142D02*
D03*
X181142Y480472D02*
D03*
X191142D02*
D03*
X181142Y470472D02*
D03*
D95*
X66614Y70866D02*
D03*
X292126Y494488D02*
D03*
D96*
X529823Y211122D02*
D03*
X569193D02*
D03*
X588878D02*
D03*
X579035D02*
D03*
X559350D02*
D03*
X549508D02*
D03*
X539665D02*
D03*
X519980D02*
D03*
D97*
X552559Y379823D02*
D03*
X556496D02*
D03*
X570472D02*
D03*
X574409D02*
D03*
X548228Y229232D02*
D03*
X544291D02*
D03*
X540354D02*
D03*
X536417D02*
D03*
D98*
X303219Y223002D02*
D03*
X335531Y248819D02*
D03*
X310630Y221063D02*
D03*
X281693Y216634D02*
D03*
X303150Y243602D02*
D03*
X286122Y562225D02*
D03*
X313583Y540276D02*
D03*
X330906D02*
D03*
X322146D02*
D03*
X292323Y542914D02*
D03*
X308957Y540276D02*
D03*
X342339Y542949D02*
D03*
X200374Y437323D02*
D03*
X200669Y423347D02*
D03*
X199488Y418327D02*
D03*
X196043Y420394D02*
D03*
X447756Y441043D02*
D03*
X445571Y415748D02*
D03*
X440551D02*
D03*
X455610D02*
D03*
X452067D02*
D03*
X365302Y397638D02*
D03*
X413583D02*
D03*
X370768Y382677D02*
D03*
X512402Y397638D02*
D03*
X469488D02*
D03*
X140413Y391142D02*
D03*
X147638Y389468D02*
D03*
X139567Y387303D02*
D03*
X140413Y383858D02*
D03*
X147638Y379232D02*
D03*
X140709Y380512D02*
D03*
X142480Y374114D02*
D03*
X147638Y371555D02*
D03*
X140354Y398622D02*
D03*
X124311Y399803D02*
D03*
D99*
X30315Y139016D02*
D03*
X40315D02*
D03*
X50315D02*
D03*
X60315D02*
D03*
X70315D02*
D03*
X30315Y149016D02*
D03*
X70315D02*
D03*
X60315D02*
D03*
X50315D02*
D03*
X40315D02*
D03*
Y159016D02*
D03*
X50315D02*
D03*
X60315D02*
D03*
X70315D02*
D03*
X30315D02*
D03*
Y215945D02*
D03*
X40315D02*
D03*
X50315D02*
D03*
X60315D02*
D03*
X70315D02*
D03*
X30315Y225945D02*
D03*
X70315D02*
D03*
X60315D02*
D03*
X50315D02*
D03*
X40315D02*
D03*
Y235945D02*
D03*
X50315D02*
D03*
X60315D02*
D03*
X70315D02*
D03*
X30315D02*
D03*
D100*
X460630Y27559D02*
D03*
X86614D02*
D03*
X173622Y56890D02*
D03*
X397244D02*
D03*
X135256Y484803D02*
D03*
X44272D02*
D03*
X19879Y279921D02*
D03*
X586614Y20079D02*
D03*
Y605905D02*
D03*
X19685D02*
D03*
Y20079D02*
D03*
D101*
X142913Y92520D02*
D03*
Y78347D02*
D03*
X153937Y92520D02*
D03*
Y78347D02*
D03*
X163779Y92520D02*
D03*
Y78347D02*
D03*
X173622Y92520D02*
D03*
X183465D02*
D03*
Y78347D02*
D03*
X193307Y92520D02*
D03*
Y78347D02*
D03*
X203150Y92520D02*
D03*
X212992Y78347D02*
D03*
Y92520D02*
D03*
X222835Y78347D02*
D03*
Y92520D02*
D03*
X232677Y78347D02*
D03*
Y92520D02*
D03*
X242520Y78347D02*
D03*
Y92520D02*
D03*
X238858Y109843D02*
D03*
X252362Y78347D02*
D03*
Y92520D02*
D03*
X251181Y109843D02*
D03*
X274409Y78347D02*
D03*
Y92520D02*
D03*
Y109843D02*
D03*
X284252Y78347D02*
D03*
Y92520D02*
D03*
X285433Y109843D02*
D03*
X294094Y78347D02*
D03*
Y92520D02*
D03*
X303937D02*
D03*
X297756Y109843D02*
D03*
X313779Y78347D02*
D03*
Y92520D02*
D03*
X310079Y109843D02*
D03*
X323622Y78347D02*
D03*
Y92520D02*
D03*
X322402Y109843D02*
D03*
X333465Y78347D02*
D03*
Y92520D02*
D03*
X343307Y78347D02*
D03*
Y92520D02*
D03*
Y109843D02*
D03*
X354331Y78347D02*
D03*
Y92520D02*
D03*
Y109843D02*
D03*
X377559Y78347D02*
D03*
Y92520D02*
D03*
Y109843D02*
D03*
X387402Y78347D02*
D03*
Y92520D02*
D03*
Y109843D02*
D03*
X397244Y92520D02*
D03*
X407087Y78347D02*
D03*
Y92520D02*
D03*
Y109843D02*
D03*
X416929Y78347D02*
D03*
Y92520D02*
D03*
X426772Y78347D02*
D03*
Y92520D02*
D03*
X416929Y109843D02*
D03*
X426772D02*
D03*
X216850D02*
D03*
X204528D02*
D03*
X192205D02*
D03*
X179882D02*
D03*
X167559D02*
D03*
X155236D02*
D03*
X142913D02*
D03*
X397244D02*
D03*
D102*
X405413Y426437D02*
D03*
Y439094D02*
D03*
X395571D02*
D03*
Y426437D02*
D03*
D103*
X114764Y435433D02*
D03*
X104764D02*
D03*
X94764D02*
D03*
X84764D02*
D03*
X74764D02*
D03*
D104*
X64764D02*
D03*
D105*
X191142Y470472D02*
D03*
D209*
X569980Y227756D02*
D03*
D210*
X275000Y199127D02*
D03*
Y219914D02*
D03*
Y217316D02*
D03*
Y214717D02*
D03*
Y212119D02*
D03*
X155807Y396693D02*
D03*
Y399291D02*
D03*
Y375905D02*
D03*
Y378504D02*
D03*
Y381102D02*
D03*
Y383701D02*
D03*
Y386299D02*
D03*
Y388898D02*
D03*
Y391496D02*
D03*
Y394094D02*
D03*
X335047Y307421D02*
D03*
Y310020D02*
D03*
Y312618D02*
D03*
Y315216D02*
D03*
Y317815D02*
D03*
Y320413D02*
D03*
Y323012D02*
D03*
Y325610D02*
D03*
Y328209D02*
D03*
Y330807D02*
D03*
Y333405D02*
D03*
Y336004D02*
D03*
Y338602D02*
D03*
Y341201D02*
D03*
Y343799D02*
D03*
Y346398D02*
D03*
Y348996D02*
D03*
Y351594D02*
D03*
Y354193D02*
D03*
Y356791D02*
D03*
Y359390D02*
D03*
Y372382D02*
D03*
Y382776D02*
D03*
Y380177D02*
D03*
Y377579D02*
D03*
Y374980D02*
D03*
Y286634D02*
D03*
Y289232D02*
D03*
Y291831D02*
D03*
Y294429D02*
D03*
Y297027D02*
D03*
Y299626D02*
D03*
Y302224D02*
D03*
Y304823D02*
D03*
D211*
X174724Y251287D02*
D03*
X170394D02*
D03*
X166063D02*
D03*
X161732D02*
D03*
X269012Y196319D02*
D03*
X266413D02*
D03*
X263815D02*
D03*
X261217D02*
D03*
X258618D02*
D03*
X256020D02*
D03*
X249717D02*
D03*
X247118D02*
D03*
X244520D02*
D03*
X240107D02*
D03*
X237508D02*
D03*
X234910D02*
D03*
X232311D02*
D03*
X219217D02*
D03*
X216618D02*
D03*
X214020D02*
D03*
X203602D02*
D03*
X201004D02*
D03*
X198406D02*
D03*
X195807D02*
D03*
X193209D02*
D03*
X190610D02*
D03*
X188012D02*
D03*
X185413D02*
D03*
X182815D02*
D03*
X180217D02*
D03*
X179055Y251287D02*
D03*
X183386D02*
D03*
X187716D02*
D03*
X192047D02*
D03*
X196378D02*
D03*
X200709D02*
D03*
X205039D02*
D03*
X209370D02*
D03*
X213701D02*
D03*
X218031D02*
D03*
X222362D02*
D03*
X226693D02*
D03*
X231024D02*
D03*
X235354D02*
D03*
X239685D02*
D03*
X244016D02*
D03*
X248346D02*
D03*
X252677D02*
D03*
X257008D02*
D03*
X261338D02*
D03*
X265669D02*
D03*
X270000D02*
D03*
X329626Y399024D02*
D03*
X161752Y257571D02*
D03*
X183406D02*
D03*
X187736D02*
D03*
X312303Y399024D02*
D03*
X307972D02*
D03*
X303642D02*
D03*
X299311D02*
D03*
X294980D02*
D03*
X290650D02*
D03*
X286319D02*
D03*
X281988D02*
D03*
X277657D02*
D03*
X273327D02*
D03*
X268996D02*
D03*
X264665D02*
D03*
X260335D02*
D03*
X256004D02*
D03*
X251673D02*
D03*
X247342D02*
D03*
X243012D02*
D03*
X238681D02*
D03*
X234350D02*
D03*
X230020D02*
D03*
X225689D02*
D03*
X222638D02*
D03*
X201398D02*
D03*
X206594D02*
D03*
X211791D02*
D03*
X217402D02*
D03*
X192067Y257571D02*
D03*
X196398D02*
D03*
X200729D02*
D03*
X205059D02*
D03*
X209390D02*
D03*
X213721D02*
D03*
X218051D02*
D03*
X222382D02*
D03*
X226713D02*
D03*
X231043D02*
D03*
X235374D02*
D03*
X239705D02*
D03*
X244036D02*
D03*
X248366D02*
D03*
X252697D02*
D03*
X257028D02*
D03*
X261358D02*
D03*
X265689D02*
D03*
X270020D02*
D03*
X274350D02*
D03*
X278681D02*
D03*
X283012D02*
D03*
X302067D02*
D03*
X296870D02*
D03*
X291673D02*
D03*
X287343D02*
D03*
X166083D02*
D03*
X170414D02*
D03*
X174744D02*
D03*
X179075D02*
D03*
X325295Y399024D02*
D03*
X320964D02*
D03*
X316634D02*
D03*
X214784D02*
D03*
X220020D02*
D03*
X295079Y428051D02*
D03*
X299409D02*
D03*
X303740D02*
D03*
X308071D02*
D03*
X312402D02*
D03*
X316732D02*
D03*
D212*
X388864Y356845D02*
D03*
Y355113D02*
D03*
Y353381D02*
D03*
Y351648D02*
D03*
Y349916D02*
D03*
Y348184D02*
D03*
Y346452D02*
D03*
Y333046D02*
D03*
Y330448D02*
D03*
Y327849D02*
D03*
Y325251D02*
D03*
Y320822D02*
D03*
Y319089D02*
D03*
Y317357D02*
D03*
Y315625D02*
D03*
Y313893D02*
D03*
Y312160D02*
D03*
Y310428D02*
D03*
Y308696D02*
D03*
Y300054D02*
D03*
Y296921D02*
D03*
Y293771D02*
D03*
Y290621D02*
D03*
Y281078D02*
D03*
Y283676D02*
D03*
Y287849D02*
D03*
D213*
X389278Y265113D02*
D03*
Y242082D02*
D03*
Y201256D02*
D03*
Y203991D02*
D03*
Y206669D02*
D03*
Y215035D02*
D03*
Y223873D02*
D03*
Y226432D02*
D03*
D214*
X392821Y197593D02*
D03*
X397447D02*
D03*
X402762D02*
D03*
X407388D02*
D03*
X435734Y197593D02*
D03*
D215*
X464967Y198381D02*
D03*
D216*
X439573Y197200D02*
D03*
X432310D02*
D03*
X425913D02*
D03*
X411404D02*
D03*
X414200D02*
D03*
X417743D02*
D03*
X429435D02*
D03*
M02*
