M48
INCH,TZ
T01C0.012400
T02C0.019700
T03C0.027600
T04C0.033700
T05C0.037800
T06C0.045250
T07C0.070900
T08C0.078700
T09C0.091700
T10C0.119050
T11C0.137800
T12C0.196900
%
T01
X31406Y23194
X36458Y5635
X45294Y30007
X6594Y48221
X14505Y29072
X20147Y32760
X22531Y28832
X22835Y28388
X23032Y25249
X23155Y21656
X23155Y8624
X23446Y6075
X23780Y6065
X24105Y6065
X24240Y29536
X24371Y11065
X24410Y11538
X24410Y6075
X24794Y24973
X25089Y8693
X25166Y25099
X25594Y26301
X25968Y30210
X26370Y12566
X26379Y29616
X26540Y11191
X26540Y10872
X26540Y10553
X26551Y10227
X26678Y12484
X26694Y6934
X26975Y12187
X27171Y11695
X27481Y6934
X27845Y8526
X27918Y6459
X28894Y24903
X29163Y24773
X29483Y24806
X29572Y8112
X29636Y2473
X31225Y7994
X31698Y7994
X32217Y32642
X32217Y32305
X32217Y31990
X32717Y1587
X32794Y33807
X32879Y8152
X33174Y27154
X33190Y26498
X33190Y27969
X33588Y8152
X33655Y23580
X33894Y34007
X33894Y30507
X35044Y8112
X35205Y30107
X37353Y1665
X37442Y30770
X39994Y30247
X40670Y8153
X43151Y7958
X43505Y7958
X44294Y31053
X44794Y30507
X44915Y23691
X47367Y1104
X48268Y23706
X48977Y17603
X49213Y30553
X49253Y17131
X23080Y34068
X23474Y34068
X24871Y34068
X25265Y34068
X25698Y49127
X26092Y49127
X26486Y49127
X26879Y49127
X31152Y24254
X31433Y28132
X31674Y27561
X31703Y24254
X31913Y24697
X32009Y27561
X32127Y24254
X32343Y27561
X32678Y24254
X32678Y27561
X941Y17408
X946Y50868
X946Y47915
X946Y42994
X946Y38073
X946Y32167
X946Y25278
X946Y14451
X946Y7561
X2796Y43467
X2914Y33349
X3072Y38703
X3111Y49687
X3898Y3624
X3994Y57607
X4528Y45356
X4528Y40475
X4528Y34963
X4568Y30711
X4568Y25160
X4694Y60807
X4741Y49246
X5020Y22473
X5316Y44963
X5316Y31813
X5394Y27404
X5424Y47522
X5434Y42522
X5434Y38034
X5532Y39392
X5788Y7364
X5847Y366
X6359Y41321
X6694Y2876
X6910Y38447
X7284Y5593
X8446Y40868
X8741Y35888
X8820Y34530
X8908Y48112
X8938Y41006
X8957Y28752
X8997Y23290
X9075Y33683
X9095Y31065
X9095Y22738
X9194Y41282
X9306Y34526
X9351Y38112
X9449Y33349
X9494Y32207
X9686Y26774
X9863Y36636
X10001Y48152
X10040Y43162
X10040Y2915
X10207Y39215
X10306Y11931
X10316Y41203
X10316Y34215
X10394Y33007
X10616Y36344
X10818Y10622
X11034Y297
X11142Y15514
X11182Y25120
X11221Y20514
X11261Y13309
X11339Y49391
X11339Y28585
X11379Y11577
X11556Y32994
X11762Y50297
X11812Y47837
X11812Y46577
X11959Y40524
X12094Y10507
X12107Y35022
X12186Y37689
X12205Y31734
X12255Y39293
X12688Y46597
X12717Y41912
X12757Y37128
X12766Y44244
X12934Y52502
X13111Y11341
X13170Y31971
X13194Y55407
X13505Y47305
X13534Y39302
X13721Y8132
X13761Y32965
X13800Y33654
X13829Y47640
X13839Y42758
X13869Y44264
X13898Y6695
X13918Y30671
X13967Y32207
X14135Y37679
X14135Y29648
X14292Y44264
X14394Y47107
X14558Y45593
X14577Y39914
X14715Y40396
X14715Y46319
X14764Y44923
X14823Y33083
X14833Y33585
X14981Y49608
X14981Y40868
X15060Y32148
X15079Y11341
X15094Y34407
X15414Y30041
X15594Y33507
X15886Y297
X15894Y55407
X15894Y33190
X15946Y48467
X16187Y33093
X16294Y54007
X16394Y52707
X16694Y37107
X16694Y29648
X16713Y46252
X16753Y49274
X16753Y39766
X16930Y45307
X16930Y40110
X16994Y54007
X17087Y50829
X17094Y52807
X17156Y33683
X17186Y55415
X17225Y50514
X17245Y49667
X17353Y37699
X17422Y45288
X17461Y40081
X17481Y31498
X17540Y7541
X17560Y30534
X17609Y41134
X17638Y44697
X17678Y31223
X17698Y46223
X17737Y39854
X17776Y37679
X17794Y55207
X17796Y33939
X17875Y30671
X17894Y50907
X17894Y46807
X17894Y11507
X17904Y47473
X17953Y44854
X17953Y41321
X17953Y9648
X17953Y1892
X17973Y49667
X17989Y54413
X18219Y5967
X18294Y37107
X18426Y31419
X18494Y37707
X18594Y52607
X18594Y37407
X18603Y50376
X18694Y58207
X18994Y57607
X19115Y32246
X19194Y33707
X19294Y38207
X19489Y32266
X19494Y50907
X19594Y49407
X19686Y3545
X19694Y61407
X19823Y31498
X19824Y45976
X19894Y59407
X19894Y11207
X19965Y32049
X19994Y46407
X20040Y29254
X20050Y1498
X20145Y33865
X20148Y248
X20194Y40307
X20194Y39107
X20257Y29510
X20276Y31104
X20316Y29825
X20394Y45607
X20494Y43807
X20494Y41807
X20570Y30081
X20946Y33073
X21014Y43782
X21094Y32397
X21194Y56207
X21194Y52607
X21194Y51007
X21194Y41007
X21391Y38915
X21391Y36031
X21394Y46407
X21654Y1459
X21694Y53707
X21694Y32108
X21799Y33831
X22094Y49507
X22194Y56207
X22294Y52407
X22402Y3624
X22442Y11734
X22494Y49507
X22579Y32931
X22594Y57607
X22780Y50702
X22835Y28919
X22835Y14254
X22835Y13821
X22835Y9136
X22835Y5947
X22875Y20632
X22894Y49507
X23032Y22286
X23091Y27207
X23094Y57607
X23150Y23545
X23194Y52307
X23294Y57307
X23294Y49507
X23308Y25908
X23419Y14867
X23465Y11774
X23494Y53807
X23494Y12207
X23583Y297
X23662Y14175
X23694Y49507
X23731Y15110
X24016Y15297
X24056Y29746
X24125Y20642
X24243Y33829
X24294Y56207
X24320Y24633
X24646Y29057
X24686Y8644
X24694Y62007
X24725Y9451
X24744Y6142
X24764Y29687
X24794Y54107
X24981Y21823
X25119Y11262
X25168Y23585
X25194Y28107
X25314Y26287
X25316Y10160
X25473Y9490
X25494Y57307
X25494Y28707
X25621Y8782
X25635Y10632
X25661Y11419
X25694Y20407
X25730Y22807
X25749Y30171
X25810Y15707
X25857Y7906
X25894Y13607
X25945Y5325
X25994Y52507
X25994Y28707
X25994Y23607
X26349Y297
X26394Y58207
X26494Y54107
X26536Y9569
X26709Y29652
X26733Y6026
X26779Y56170
X27087Y9766
X27117Y3063
X27166Y22679
X27166Y20317
X27294Y59407
X27394Y52507
X27454Y31695
X27494Y54107
X27494Y33007
X27594Y48807
X27594Y40607
X27594Y34307
X27994Y57307
X28094Y26707
X28094Y25307
X28147Y27107
X28394Y52507
X28642Y6410
X28678Y28880
X28694Y57907
X28800Y28211
X28922Y54920
X29203Y278
X29253Y23467
X29294Y33907
X29381Y6114
X29394Y52507
X29410Y4195
X29496Y30278
X29733Y31733
X29875Y31992
X29961Y32561
X29982Y32267
X30076Y56170
X30198Y23978
X30289Y34995
X30294Y57690
X30316Y26892
X30316Y25081
X30385Y37216
X30394Y52507
X30494Y27507
X30631Y30061
X30639Y56170
X30639Y33554
X30895Y33348
X31067Y34507
X31150Y33851
X31150Y33507
X31182Y23860
X31194Y50807
X31194Y36207
X31294Y42007
X31394Y52507
X31494Y37322
X31494Y37007
X31659Y56168
X31694Y38207
X31694Y297
X31756Y41025
X31765Y37437
X31871Y29470
X31910Y57332
X31913Y59516
X32021Y37607
X32028Y29982
X32042Y34107
X32042Y33807
X32083Y30498
X32194Y51507
X32294Y44007
X32294Y34807
X32314Y49249
X32392Y57100
X32394Y56807
X32394Y35507
X32573Y33290
X32669Y56159
X32794Y37731
X32794Y36107
X32823Y59517
X32894Y54807
X32967Y57361
X32994Y29307
X33006Y32923
X33041Y29744
X33108Y50507
X33134Y49241
X33150Y33683
X33165Y30322
X33229Y24490
X33249Y33090
X33346Y32617
X33444Y36287
X33494Y43007
X33694Y41407
X33771Y33090
X33890Y57365
X34048Y38061
X34094Y42207
X34094Y41307
X34205Y31933
X34292Y56146
X34294Y50607
X34694Y52407
X34794Y33732
X34822Y37467
X34862Y30726
X34894Y46107
X34901Y31265
X35040Y32797
X35094Y41307
X35095Y56159
X35194Y34612
X35294Y38107
X35627Y37130
X35759Y2443
X35759Y317
X35759Y32462
X35794Y43807
X35794Y42207
X35851Y31076
X35878Y33668
X35953Y37068
X36094Y38707
X36094Y38307
X36094Y38007
X36094Y37712
X36103Y30425
X36103Y4766
X36217Y35973
X36294Y31707
X36394Y50107
X36394Y49807
X36458Y2306
X36494Y46307
X36497Y1685
X36497Y612
X36613Y31679
X36694Y35607
X36870Y37580
X36894Y33607
X36934Y31065
X37094Y42107
X37094Y39607
X37166Y7994
X37166Y6695
X37194Y37607
X37394Y46307
X37394Y31207
X37422Y32778
X37494Y45007
X37594Y43707
X37594Y37007
X37794Y37307
X37794Y36707
X37794Y36007
X37894Y44207
X37973Y31282
X38062Y317
X38194Y62007
X38294Y44107
X38294Y31107
X38294Y30207
X38426Y5475
X38505Y7994
X38505Y6380
X38594Y40107
X38594Y31007
X38694Y42107
X38879Y31754
X38894Y37607
X38938Y1656
X38994Y44507
X39016Y5317
X39115Y32601
X39394Y36007
X39594Y31707
X39694Y32907
X39994Y42407
X40064Y33562
X40185Y38315
X40394Y46307
X40394Y38107
X40394Y32140
X40394Y30007
X40494Y49307
X40577Y31707
X40594Y39107
X40594Y33607
X40624Y41299
X40694Y32307
X40857Y42444
X40867Y32935
X41094Y38507
X41152Y42296
X41179Y30560
X41294Y33307
X41394Y38607
X41394Y31518
X41621Y46407
X41626Y36659
X41788Y36413
X41894Y33497
X41994Y41007
X42009Y32487
X42094Y36107
X42394Y59523
X42594Y57790
X42594Y57107
X42594Y55807
X42594Y46307
X42638Y278
X42794Y34207
X42796Y7955
X42816Y30701
X42894Y31181
X42904Y40301
X42920Y38149
X42949Y44614
X42994Y42307
X42994Y34707
X43048Y33510
X43056Y32871
X43094Y52507
X43094Y41223
X43103Y31663
X43177Y36007
X43294Y36707
X43356Y46595
X43466Y29948
X43594Y32007
X43682Y59512
X43694Y42707
X43721Y32915
X43867Y30237
X43894Y34107
X43985Y42064
X43994Y57551
X43994Y33407
X44041Y42354
X44094Y49707
X44094Y31507
X44194Y32507
X44194Y32007
X44213Y8152
X44253Y5317
X44294Y56807
X44331Y6498
X44337Y43986
X44377Y41807
X44394Y30589
X44494Y57407
X44587Y1852
X44694Y42607
X44705Y32955
X44787Y43207
X44794Y54007
X44794Y43902
X44894Y45207
X44894Y44707
X44894Y31707
X44897Y44410
X44994Y45507
X45040Y36695
X45094Y31042
X45194Y57707
X45194Y32007
X45236Y39138
X45294Y55307
X45294Y49507
X45294Y41933
X45294Y35238
X45335Y33506
X45473Y7601
X45684Y34099
X45726Y36711
X45894Y31407
X45906Y29215
X45946Y27049
X45985Y24175
X45994Y45607
X46094Y40107
X46094Y33507
X46094Y22707
X46094Y20807
X46094Y17607
X46103Y13821
X46182Y11577
X46194Y50007
X46201Y38110
X46214Y31083
X46298Y15707
X46430Y52715
X46488Y42901
X46494Y14807
X46594Y55407
X46594Y15707
X46894Y15607
X46969Y1656
X46994Y50007
X47210Y15307
X47479Y42587
X47494Y55407
X47494Y15607
X47594Y52707
X47594Y16007
X47635Y34177
X47694Y34607
X47694Y32307
X47717Y7404
X47776Y39921
X47794Y22207
X47835Y25435
X47844Y42507
X47859Y24087
X47875Y28073
X47877Y16207
X47894Y41971
X47894Y31507
X47894Y30507
X47914Y33575
X47933Y35241
X47994Y44807
X48094Y42807
X48094Y38188
X48144Y36382
X48294Y34480
X48294Y17007
X48337Y31085
X48394Y37207
X48494Y54107
X48494Y31907
X48494Y16207
X48594Y42507
X48621Y45700
X48686Y50704
X48715Y42869
X48859Y35406
X48994Y22207
X49036Y33782
X49048Y37001
X49056Y32010
X49094Y34107
X49194Y36607
X49310Y40807
X49394Y29907
X49413Y54077
X49464Y41907
X49464Y41107
X49528Y3624
X49594Y62007
X49741Y34376
X49794Y6607
X49804Y20002
X49961Y2404
X49994Y40007
X50001Y21183
X50001Y9727
X50194Y50007
X50237Y32246
X50294Y55407
X50294Y36507
X50394Y34923
X50522Y297
X50594Y29907
X50694Y50707
X50694Y4507
X50709Y22907
X50749Y26183
X50749Y20160
X50749Y7679
X50788Y19057
X50847Y3526
X50946Y6419
X50985Y10986
X51103Y33585
X51103Y30632
X51142Y32049
X51182Y13742
X51261Y17640
X51294Y42507
X51394Y29907
X51464Y46707
X51536Y7915
X51575Y37896
X51890Y3427
X51894Y54107
X51994Y42207
X52194Y41107
X52194Y39507
X52194Y34107
X52194Y29907
X52225Y32177
X52294Y42207
X52359Y2660
X52594Y57707
X52626Y4044
X52694Y36307
X52875Y35790
X52994Y46907
X53111Y5278
X53190Y35790
X53194Y55407
X53426Y16223
X53494Y42607
X53544Y10593
X53583Y3644
X53780Y6223
X53911Y59024
X53994Y56307
X53997Y4097
X54016Y5160
X54174Y35356
X54292Y46459
X54371Y13309
X54494Y61407
X54594Y50707
X54686Y18112
X54686Y8407
X54883Y22837
X54883Y4254
X55194Y6707
X55294Y50807
X55512Y40671
X55512Y14569
X55591Y17994
X55694Y52607
X55694Y52207
X55894Y57107
X56064Y2640
X56294Y29607
X56294Y26207
X56394Y8107
X57127Y37325
X57599Y23427
X58229Y40396
X58308Y50081
X58623Y46931
X58623Y37364
X58741Y43427
X59994Y52907
X60001Y49884
X60001Y42994
X60001Y31183
X60001Y24293
X60001Y17404
X60001Y10514
X60070Y37748
X60094Y58007
X5842Y37677
X5842Y33386
X5842Y27795
X5842Y22967
X5852Y47198
X6373Y43960
X7338Y23514
X8433Y43967
X8627Y44708
X9070Y41815
X29712Y7006
X30332Y5075
X31995Y4811
X32458Y4811
X32634Y40009
X32663Y38612
X32752Y40511
X33097Y40305
X33314Y4811
X34190Y4811
X35334Y5078
X40549Y6763
X40578Y5366
X40667Y7265
X41011Y7058
X46575Y11150
X46575Y10383
X46575Y9359
X47091Y10895
X47268Y10255
X47298Y9192
X47298Y9920
X47304Y8444
X47382Y9576
X48908Y8326
X45389Y29030
X45133Y27976
X44976Y27701
X45295Y26741
X45304Y25819
X44266Y25824
X43814Y25447
X43433Y25505
X42879Y25477
X42495Y25539
X42141Y25435
X41757Y25539
X41058Y25585
X40704Y25496
X40261Y25467
X39838Y25614
X39621Y25866
X39375Y25585
X38952Y25477
X38539Y25388
X38076Y25427
X37948Y25870
X37643Y25585
X37249Y25447
X36875Y25536
X36373Y25536
X35960Y25585
X36236Y25880
X36570Y26225
X36108Y26599
X35517Y27484
X35192Y27484
X35606Y27800
X35635Y28193
X35950Y28183
X36312Y28198
X36639Y28252
X37183Y28555
X37200Y27465
X37524Y27465
X37791Y26618
X38243Y26293
X39484Y26618
X39946Y26284
X41216Y26618
X41610Y26293
X41323Y25869
X42879Y26223
X43174Y26597
X43005Y26864
X43667Y27268
X43676Y27583
X43667Y27898
X43726Y28478
X43293Y28183
X42958Y28154
X42636Y28161
X42299Y28177
X41806Y28173
X41491Y28162
X40997Y28178
X40675Y28173
X40153Y28095
X39837Y28172
X38736Y28326
X38270Y28173
X38794Y27473
X39188Y27465
X34789Y28134
X34474Y28154
X34159Y28232
X33873Y28784
X33833Y27611
X33914Y27150
X34405Y26667
X34788Y26351
X34543Y25919
X34651Y25506
X34267Y25585
X33775Y25575
X35251Y25585
X35566Y25381
X44759Y24984
X44257Y26677
X43529Y29276
X47120Y10893
X46604Y11149
X46604Y10381
X47297Y10253
X47326Y9919
X47411Y9574
X47326Y9190
X47332Y8442
X46604Y9358
X48937Y8324
X44722Y22476
X44348Y22495
X43905Y21915
X43383Y21718
X43413Y21403
X43747Y20773
X44574Y20901
X44909Y21413
X44899Y21964
X42881Y21974
X42192Y21984
X41946Y22190
X41533Y22515
X41099Y22525
X41287Y22003
X41759Y21521
X42153Y21472
X42044Y20980
X41572Y21058
X40873Y21423
X40657Y20606
X40105Y20694
X40115Y20212
X40528Y19720
X40755Y19052
X40233Y19090
X39997Y18873
X39849Y19178
X39367Y19257
X39239Y18913
X38924Y19031
X38787Y18657
X38452Y18883
X38294Y19237
X37989Y19139
X37123Y18598
X37596Y17869
X36955Y17357
X36661Y17190
X36375Y17417
X35105Y17486
X35154Y18401
X35145Y18716
X35145Y19031
X35322Y20163
X35942Y20163
X35056Y20655
X34436Y20586
X34466Y20241
X33846Y20458
X33659Y20192
X33707Y19178
X33865Y18903
X33944Y18598
X34170Y18371
X34318Y18066
X32979Y18765
X32684Y18883
X32487Y20202
X32281Y21137
X32024Y21354
X31720Y21216
X31365Y21186
X31207Y20714
X30883Y20711
X30567Y20694
X31572Y20714
X31502Y19611
X31178Y19611
X30863Y19602
X30509Y19611
X31277Y22495
X31995Y21826
X33826Y21678
X34111Y21531
X34505Y21462
X34822Y21649
X34989Y22240
X36207Y22111
X36218Y22426
X36237Y21560
X36513Y21009
X37005Y20606
X37802Y20645
X37497Y21068
X37625Y21363
X38442Y21127
X38904Y20989
X39151Y21226
X39594Y21157
X39456Y20596
X38796Y20251
X39298Y21728
X40056Y21718
X39141Y22407
X37113Y22269
X36887Y22043
X33481Y22673
X32468Y16550
X32468Y16231
X32645Y15832
X32925Y16040
X33176Y15832
X33087Y15359
X32842Y15084
X33029Y14297
X32724Y14208
X32409Y14178
X32078Y14139
X33324Y13923
X33117Y13666
X33156Y13176
X32871Y13036
X32487Y12751
X32103Y12554
X31523Y12220
X31356Y11747
X31346Y10094
X30637Y10035
X30292Y9257
X31865Y9720
X32638Y9744
X32930Y10664
X32950Y10989
X33087Y11274
X33048Y11747
X33314Y11930
X33974Y12328
X34263Y12845
X34318Y13834
X34298Y14159
X33954Y14444
X33825Y13971
X33363Y14483
X35027Y14405
X35007Y14050
X34839Y13755
X35037Y13460
X35913Y13588
X36562Y13293
X36877Y13312
X37743Y13391
X37953Y14306
X37438Y14444
X36877Y14808
X36700Y15094
X36749Y15497
X37162Y15753
X36936Y16373
X36533Y16108
X35942Y15802
X35390Y15182
X35056Y15192
X34717Y15195
X35302Y14877
X36237Y14592
X38609Y14552
X38934Y14621
X38550Y15143
X37792Y15448
X38137Y15871
X37665Y16206
X38865Y16363
X38717Y16875
X39357Y16826
X39830Y17013
X39918Y17632
X40450Y17968
X40785Y18302
X40794Y17230
X40706Y16314
X40391Y16324
X40292Y16629
X40391Y15841
X40479Y15537
X40794Y15507
X40125Y15665
X40155Y13578
X40558Y13056
X40785Y12663
X40814Y12387
X40745Y11964
X40696Y11619
X40381Y11599
X40666Y11295
X40607Y10507
X40243Y10113
X39928Y10074
X39859Y10694
X40371Y9818
X40627Y8863
X40942Y8814
X41249Y9204
X41985Y9021
X41907Y9946
X42399Y9661
X42694Y9375
X42970Y9149
X43846Y9375
X44102Y9188
X44180Y9769
X43915Y9946
X43107Y10153
X43127Y10468
X42497Y10654
X42458Y10969
X42300Y11708
X42930Y12082
X43550Y12043
X44466Y12043
X45076Y12062
X45391Y11354
X44515Y11196
X43983Y11354
X43757Y12820
X43836Y13657
X43324Y13529
X43235Y14041
X43472Y14257
X44151Y14021
X45105Y13785
X44771Y12987
X45155Y14897
X45460Y14818
X44869Y15734
X44768Y16048
X44446Y16167
X44476Y16767
X43944Y16550
X43127Y16225
X43026Y16826
X42231Y16639
X42188Y17472
X43639Y17456
X44121Y17535
X44200Y17850
X44987Y18007
X44899Y18519
X43954Y18667
X43324Y18539
X43285Y18017
X42310Y18913
X41956Y18903
X41424Y19031
X41070Y19356
X42537Y20074
X39338Y17968
X39092Y17702
X38855Y18027
X38924Y13598
X39535Y12121
X39102Y10005
X38895Y9759
X37743Y10438
X37920Y10713
X37829Y11023
X37556Y11354
X37290Y11531
X36985Y11619
X36821Y11147
X37074Y10940
X36478Y10597
X36769Y9838
X36050Y9810
X36188Y8903
X35853Y8923
X35135Y8903
X34131Y8903
X32467Y10848
X35892Y12032
X36562Y11974
X34909Y16162
X34121Y16029
X32172Y16658
X31817Y16521
X31680Y16236
X31365Y16206
X30224Y16039
X30144Y14739
X42433Y13764
X42172Y13253
X44426Y15389
X45342Y16747
X44663Y8627
X44318Y8489
X29535Y8962
X29161Y9316
X28649Y9888
X28294Y9641
X28078Y9169
X27704Y9287
X27852Y10409
X28166Y10625
X28462Y10743
X28787Y10739
X28747Y11373
X29003Y12338
X28930Y12810
X27881Y12653
X27862Y12072
X27979Y10921
X29130Y10408
X29447Y10428
X29933Y9764
X30027Y12180
X29958Y13125
X29603Y15271
X29063Y15704
X28825Y15704
X28383Y15350
X28157Y15852
X28196Y17781
X28117Y18135
X27911Y18391
X28609Y18342
X28992Y18342
X29387Y18135
X29878Y18292
X29481Y19444
X29653Y20035
X29308Y20035
X29702Y21088
X29200Y21865
X29196Y22308
X28580Y21629
X28137Y21491
X28146Y20487
X27940Y19917
X30333Y5074
X31996Y4811
X32458Y4811
X33315Y4811
X34191Y4811
X35334Y5078
X29712Y7005
X22457Y23963
X20902Y23811
X20892Y23369
X21089Y22444
X20617Y22414
X20764Y22079
X20558Y21528
X20420Y21242
X20410Y20918
X19918Y20325
X19918Y19995
X19583Y19953
X20223Y19392
X19818Y18882
X19337Y18919
X19032Y19028
X18451Y19343
X18776Y17995
X18776Y17778
X18983Y17735
X18983Y17420
X19053Y16973
X20873Y16985
X21178Y16906
X21434Y17580
X21670Y17585
X21670Y17831
X21817Y18339
X22054Y18349
X22377Y18479
X22398Y18156
X22416Y18794
X22426Y19109
X22428Y19436
X22447Y19800
X22447Y20115
X22290Y20416
X22290Y20672
X22349Y21660
X21955Y22698
X19987Y22595
X19987Y22802
X19987Y22359
X18018Y22349
X18018Y22585
X18018Y22822
X17703Y22585
X17703Y22349
X17703Y22113
X18018Y22011
X17388Y22261
X17388Y22497
X17388Y22733
X16355Y23018
X16108Y23900
X15833Y24077
X15882Y24432
X16001Y25022
X15798Y25674
X14567Y25555
X14475Y25052
X14249Y24550
X14445Y24235
X13565Y24579
X13117Y24294
X12585Y24097
X12182Y24554
X12182Y24800
X12182Y25046
X12457Y25538
X12467Y25784
X12467Y26050
X13597Y25766
X13666Y25547
X13599Y26479
X14101Y26646
X14455Y27070
X15016Y27699
X13648Y27729
X16414Y28304
X16709Y28304
X17467Y25948
X17467Y24501
X16806Y24454
X19534Y24632
X19751Y25209
X21020Y24701
X20814Y24461
X20646Y18392
X20400Y18392
X20148Y18392
X20489Y16434
X20203Y16129
X20213Y14928
X19337Y14967
X19113Y13877
X18707Y13885
X18609Y13579
X18845Y13363
X19168Y13361
X19368Y13642
X19660Y13479
X19672Y13798
X19977Y13658
X20016Y13973
X21808Y13255
X21880Y15066
X22014Y15379
X22014Y15694
X21274Y15645
X17880Y15790
X17438Y15987
X17388Y16381
X16591Y16768
X16758Y18152
X16758Y18369
X16965Y18438
X17182Y18205
X16049Y19185
X14229Y18713
X13932Y18342
X13491Y17601
X13486Y17358
X13530Y16607
X13146Y16607
X12684Y16774
X12690Y15817
X12329Y15613
X13031Y15379
X12923Y14460
X12684Y13940
X12187Y13812
X12270Y14255
X11925Y13085
X12949Y13270
X13491Y13644
X14219Y13717
X14268Y13162
X13993Y14196
X14500Y14982
X14780Y15140
X14691Y15612
X14278Y15249
X14278Y16232
X13796Y16410
X13792Y15787
X14121Y16883
X14947Y16459
X15213Y14534
X15646Y14534
X16036Y14534
X16527Y14569
X17034Y14692
X17536Y14524
X17605Y14845
X17979Y14822
X18254Y13205
X17192Y13550
X17408Y21184
X16363Y21766
X14436Y21463
X14180Y21886
X14101Y22457
X14713Y22827
X12861Y22723
X12861Y22477
X12861Y22231
X12861Y21985
X12861Y21739
X13252Y21708
X13904Y21060
X14101Y20607
X13914Y19552
X13136Y18959
X12802Y19121
X12664Y18073
X11749Y16469
X12103Y12680
X12792Y12335
X15034Y12829
X15536Y12829
X16028Y12829
X16562Y12733
X17054Y12733
X18629Y12703
X21365Y11995
X21857Y11985
X32678Y24254
X32127Y24254
X31704Y24254
X31153Y24254
X31913Y24697
X32009Y27562
X32344Y27562
X32678Y27562
X31674Y27562
X31434Y28132
X22010Y5786
X21547Y6278
X21400Y7331
X21410Y8295
X21606Y9280
X21450Y10292
X20612Y10353
X20258Y10746
X20169Y9378
X18772Y10825
X18841Y6278
X33097Y40305
X32753Y40512
X32634Y40010
X32664Y38612
X9070Y41814
X8433Y43967
X8627Y44708
X6373Y43960
X5852Y47198
X7338Y23514
X5841Y22968
X5841Y27796
X5841Y33386
X5841Y37678
X23080Y34069
X23474Y34069
X24872Y34069
X25265Y34069
X25698Y49128
X26092Y49128
X26486Y49128
X26879Y49128
X21781Y34029
X22726Y34049
X24517Y34088
X23828Y34108
X27253Y34128
X25515Y34269
X25783Y34417
X22273Y34502
X26998Y34718
X26013Y34954
X26978Y35033
X24546Y35259
X25285Y35269
X22683Y35285
X23592Y35289
X22234Y35466
X27175Y35840
X25246Y36234
X23218Y36293
X24395Y36332
X27293Y36529
X21840Y36588
X26761Y36844
X25718Y36864
X22214Y36903
X24552Y37218
X24872Y37297
X24202Y37474
X22017Y37553
X25147Y37710
X23513Y37789
X27293Y37848
X24616Y38261
X23592Y38498
X25403Y38596
X22037Y38616
X27214Y39029
X23118Y39161
X24478Y39226
X24848Y39458
X24098Y39481
X23159Y39482
X23474Y39482
X25875Y39836
X26210Y39836
X27017Y40092
X22608Y40132
X24852Y40565
X27312Y40584
X23060Y40643
X26727Y40958
X24358Y40961
X26427Y41096
X22312Y41155
X25875Y42080
X25305Y42238
X24281Y42317
X24596Y42474
X22903Y42494
X22135Y42612
X22431Y42691
X27312Y43025
X23375Y43124
X26722Y43143
X25620Y43261
X24753Y43419
X25108Y43419
X24261Y43517
X22470Y43557
X23375Y43852
X24058Y44161
X26820Y44187
X23021Y44383
X25618Y44571
X27017Y44679
X22116Y45112
X23316Y45112
X25268Y45301
X21820Y45309
X24320Y45309
X24958Y45311
X26028Y45311
X26545Y45348
X27253Y45348
X23946Y46293
X21795Y47986
X26584Y48104
X27214Y48104
X23120Y48261
X23513Y48261
X26584Y48576
X23120Y48655
X23513Y48655
X21820Y49088
X27312Y49147
X41011Y7059
X40667Y7266
X40548Y6764
X40578Y5366
T02
X12245Y46029
X12658Y50219
X12678Y49766
X14594Y32107
X15092Y50553
X15158Y50160
X15955Y46053
X15955Y45207
X15955Y40780
X15955Y40110
X18953Y40071
X18957Y46026
X18957Y45238
X18957Y40760
T03
X55867Y45740
X56182Y45051
X56497Y45740
X56812Y45051
X57127Y45740
X55060Y45140G85X55060Y45652
X57934Y45140G85X57934Y45652
T04
X50788Y41577
X50788Y40593
X50788Y39608
X50788Y38624
X50788Y37640
X18494Y48657
X18494Y47157
X19994Y48871
X19994Y46942
X20994Y48871
X20994Y46942
X28594Y48657
X28594Y47157
X31894Y48657
X31894Y47157
X32694Y48657
X32694Y47157
X33494Y48657
X33494Y47157
X34294Y48657
X34294Y47157
X35094Y48657
X35094Y47157
X35894Y48657
X35894Y47157
X37594Y48657
X37594Y47157
X38494Y48657
X38494Y47157
X39494Y48657
X39494Y47157
X40294Y48657
X40294Y47157
X41094Y48657
X41094Y47157
X42194Y48657
X42194Y47157
X43094Y48657
X43094Y47157
X45394Y48957
X45394Y47457
X46194Y48957
X46194Y47457
X46994Y48957
X46994Y47457
X47794Y48957
X47794Y47457
X48594Y48957
X48594Y47457
X49394Y48957
X49394Y47457
X50194Y48957
X50194Y47457
X50355Y18587
X50355Y17587
X50355Y16587
X50355Y15587
X50355Y14587
X50355Y13587
X50994Y48957
X50994Y47457
X52794Y48957
X52794Y47457
X55694Y48957
X55694Y47457
X57029Y54507
X57029Y52207
X57058Y56607
X57058Y53307
X57344Y51307
X58844Y51307
X58958Y54507
X58958Y52207
X58987Y56607
X58987Y53307
X20837Y4780
X20837Y5780
X20837Y6780
X20837Y7780
X20837Y8780
X19837Y8780
X19837Y7780
X19837Y6780
X19837Y5780
X19837Y4780
T05
X1957Y21755
X1957Y20755
X1957Y19755
X1957Y18755
X1957Y17755
X1957Y16755
X1957Y15755
X1957Y14755
X1957Y13755
X1957Y12755
X1957Y11755
X1957Y10755
X1957Y9755
X1957Y8755
X1957Y7755
X2957Y21755
X2957Y20755
X2957Y19755
X2957Y18755
X2957Y17755
X2957Y16755
X2957Y15755
X2957Y14755
X2957Y13755
X2957Y12755
X2957Y11755
X2957Y10755
X2957Y9755
X2957Y8755
X2957Y7755
X3957Y21755
X3957Y20755
X3957Y19755
X3957Y18755
X3957Y17755
X3957Y16755
X3957Y15755
X3957Y14755
X3957Y13755
X3957Y12755
X3957Y11755
X3957Y10755
X3957Y9755
X3957Y8755
X3957Y7755
X4957Y21755
X4957Y20755
X4957Y19755
X4957Y18755
X4957Y17755
X4957Y16755
X4957Y15755
X4957Y14755
X4957Y13755
X4957Y12755
X5905Y49007
X5957Y21755
X5957Y20755
X5957Y19755
X5957Y18755
X5957Y17755
X5957Y16755
X5957Y15755
X5957Y14755
X5957Y13755
X5957Y12755
X6957Y21755
X6957Y20755
X6957Y19755
X6957Y18755
X6957Y17755
X6957Y16755
X6957Y15755
X6957Y14755
X6957Y13755
X6957Y12755
X7127Y49007
X7957Y21755
X7957Y20755
X7957Y19755
X7957Y18755
X7957Y17755
X7957Y16755
X7957Y15755
X7957Y14755
X7957Y13755
X7957Y12755
X8347Y49018
X8957Y21755
X8957Y20755
X8957Y19755
X8957Y18755
X8957Y17755
X8957Y16755
X8957Y15755
X8957Y14755
X8957Y13755
X8957Y12755
X9548Y49018
X9957Y21755
X9957Y20755
X9957Y19755
X9957Y18755
X9957Y17755
X9957Y16755
X9957Y15755
X9957Y14755
X9957Y13755
X9957Y12755
X11694Y31104
X11694Y29963
X12835Y29963
X17294Y49107
X19351Y29352
X20994Y39507
X20994Y38507
X20994Y37507
X20994Y36507
X20994Y35507
X20994Y34507
X24528Y17091
X24528Y14138
X25635Y17091
X26142Y25307
X30994Y48607
X30994Y47507
X30994Y46407
X30994Y45307
X37356Y3539
X37356Y2539
X38356Y3539
X38356Y2539
X38394Y45807
X39356Y3539
X39356Y2539
X39594Y45807
X40356Y3539
X40356Y2539
X41356Y3539
X41356Y2539
X42356Y3539
X42356Y2539
X43356Y3539
X43356Y2539
X44094Y34963
X44356Y3539
X44356Y2539
X44568Y36242
X45356Y3539
X45356Y2539
X45694Y46207
X46356Y3539
X46356Y2539
X47356Y3539
X47356Y2539
X48356Y3539
X48356Y2539
X53694Y48807
X53694Y47507
X54794Y48807
X54794Y47507
X57394Y50307
X53274Y40494
X53274Y39510
X54062Y40494
X54062Y39510
X28753Y13525
X27953Y13525
X28353Y11525
X26446Y34269
X26046Y36269
X26846Y36269
T06
X5867Y54766
X5867Y53349
X5867Y51616
X6969Y54766
X6969Y53349
X6969Y51616
X7953Y53349
X7953Y51616
X8938Y54766
X8938Y53349
X8938Y51616
X9922Y54766
X9922Y53349
X9922Y51616
X10906Y54766
X10906Y53349
X11890Y54766
X11890Y53349
X11890Y51616
X12993Y54766
X12993Y53349
X12993Y51616
X15316Y54766
X15316Y53349
X15316Y51616
X16300Y54766
X16300Y53349
X16300Y51616
X17284Y54766
X17284Y53349
X17284Y51616
X18268Y53349
X18268Y51616
X19253Y54766
X19253Y53349
X19253Y51616
X20237Y54766
X20237Y53349
X20237Y51616
X21221Y54766
X21221Y53349
X22205Y54766
X22205Y53349
X22205Y51616
X23190Y54766
X23190Y53349
X23190Y51616
X24174Y54766
X24174Y53349
X24174Y51616
X26379Y54766
X26379Y53349
X26379Y51616
X27363Y54766
X27363Y53349
X27363Y51616
X28347Y54766
X28347Y53349
X28347Y51616
X29331Y53349
X29331Y51616
X30316Y54766
X30316Y53349
X30316Y51616
X31300Y54766
X31300Y53349
X31300Y51616
X33623Y54766
X33623Y53349
X33623Y51616
X34725Y54766
X34725Y53349
X34725Y51616
X35709Y54766
X35709Y53349
X36694Y54766
X36694Y53349
X36816Y51616
X37678Y54766
X37678Y53349
X38048Y51616
X38662Y53349
X39280Y51616
X39646Y54766
X39646Y53349
X40512Y51616
X40631Y54766
X40631Y53349
X41615Y54766
X41615Y53349
X41615Y51616
X43820Y54766
X43820Y53349
X43938Y51616
X44804Y54766
X44804Y53349
X45170Y51616
X45788Y54766
X45788Y53349
X46772Y54766
X46772Y53349
X47371Y51616
X47757Y54766
X47757Y53349
X48603Y51616
X48741Y53349
X49725Y54766
X49725Y53349
X49835Y51616
X50709Y54766
X50709Y53349
X51068Y51616
X51694Y53349
X52300Y51616
X52678Y54766
X52678Y53349
X53532Y51616
X53662Y54766
X53662Y53349
X54764Y54766
X54764Y53349
X54764Y51616
X22372Y45923
X22372Y46923
X22372Y47923
T07
X10827Y40041
X12993Y40041
T08
X52688Y34648
X54144Y33782
X54892Y34648
X56349Y33782
X57333Y34648
T09
X55129Y42372
X55129Y37632
T10
X55355Y20587
X55355Y11587
X7953Y40041
T11
X7953Y56912
X29331Y56912
X51694Y56912
T12
X1969Y60591
X1969Y28307
X1969Y2008
X58642Y28307
X58661Y60591
X58661Y2008
M30
