M48
;Layer_Color=9474304
;FILE_FORMAT=2:4
INCH,TZ
;TYPE=PLATED
T1F00S00C0.0118
T2F00S00C0.0354
T3F00S00C0.0360
T4F00S00C0.0433
T5F00S00C0.0472
T6F00S00C0.0906
;TYPE=NON_PLATED
T7F00S00C0.1378
T8F00S00C0.1575
T9F00S00C0.1969
%
T01
X4291Y748
X866Y4449
X787Y14134
X11811Y13189
X14331Y12283
X15433Y14685
X12416Y3994
X15118Y669
X19803Y5079
Y5305
Y5531
X20157Y8189
X20197Y9941
X21742Y9911
X23366Y10049
X23150Y10364
X24558Y10158
X26102Y10207
X27047Y10394
X26732Y9685
X26142Y11417
X24852Y11654
X24055Y12559
X22520Y11604
X19774
X19331Y12598
X17717
X17323Y11654
X16594Y12313
X15915Y12638
X18504Y10000
X18543Y8543
X23386Y8583
X24715Y8484
X24734Y7146
X22785Y6919
X23760Y4213
Y3986
Y3760
X26004Y5295
Y5522
Y5748
X26240
Y5522
Y5295
X26467
Y5522
Y5748
X26771Y2756
X27086
X27953Y3307
X28947Y3110
X31132Y3287
X29921Y7008
X30157Y10354
X30630Y11929
X28691Y11978
X29045Y12441
X27126Y12441
X27333Y13533
X27589Y14341
X27392Y14813
X28661Y14705
X29862Y14970
X22628Y14793
X21693Y15532
X19528Y15055
X19419Y14557
X28031Y787
X31437Y2756
X31746Y4685
X35846Y5295
Y5522
Y5748
X36083
Y5522
Y5295
X36309
Y5522
Y5748
X38051
Y5522
Y5295
X38287
X38514
Y5522
Y5748
X38287
Y5522
X37756Y4921
X37766Y4695
X37756Y4449
X37234Y4262
Y4035
Y3809
X37008
Y4035
Y4262
X36772
Y4035
Y3809
X34990Y2992
X35236Y7087
X34724
X35472Y8543
X35935Y9154
Y9380
Y9606
X36299Y8878
X36506Y11260
X36575Y12421
X36969Y12323
X36949Y12835
X36299Y13189
X35472Y12520
X35325Y13898
Y14124
Y14350
X34951Y14547
X34291Y13780
X32982Y14577
X32165Y14567
X32293Y12362
X32913Y10512
X33898Y9892
X38268Y12264
Y12490
Y12717
X39104Y12825
X38819Y13199
X39754Y12746
Y12520
Y12293
X40285Y12303
Y12530
Y12756
X41063Y13071
X41417Y12638
X43189Y12953
X43228Y13701
X42815Y14331
X42323Y14528
X43839Y14193
X44222Y13957
X45118Y13425
X45138Y12972
X45630Y11772
X44700Y10940
X45148Y9626
Y9400
Y9173
X45571Y9370
X45925Y9350
X46565Y10315
Y10551
X46575Y10787
X46811Y10787
Y10551
X46821Y11024
X46358Y14173
X45236Y14606
X40256Y14439
X39754Y14400
X38435Y7077
X38209
X37982
X37600Y6558
X40605Y5983
X42992Y3583
X43465Y3268
X45039Y2480
Y827
X44902Y6988
X45069Y7156
X45246Y7313
X47057Y10787
Y11024
X47067Y11260
X47303Y11260
Y11024
X47549
Y11260
Y11496
X47313
X47441Y12520
X48081Y14242
X48337Y14734
X47579Y15148
X48996Y13711
X49429Y13445
X50118Y14528
X50512Y14547
X50984Y14488
X50276Y12470
X50394Y10157
X51614Y9016
X53858Y12835
X53898Y13386
X56220Y906
X59921Y4331
X59764Y17638
X57126Y17598
X56535Y17559
X55906Y16693
X54252Y18150
X54449Y19360
X55551Y19488
X51890Y19252
X50896Y18868
X50945Y18228
X48406Y18169
X48543Y19409
X50157Y20157
X52008Y28189
X54409Y27953
X54291Y29528
X53937Y30787
X55118Y30984
X56191Y27766
X55758Y26939
X59843Y30984
X38541Y27757
X38465Y26102
Y24567
X38307Y23189
X38346Y22303
X38474Y21506
X38150Y20335
X37589Y19665
Y19439
Y19213
X38616Y19504
X39104Y18002
X37618Y17766
X37382
Y17520
X37618Y17530
X36220Y18189
X35709Y19291
X33976
X33937Y18071
X32165Y18228
Y19291
Y20000
X31663Y20236
X33238Y20039
X33406Y21001
X35669Y21102
X36437Y21073
Y21302
Y21545
X35709Y22008
X34685Y22756
X34429Y23071
X34461Y23307
X34921Y23583
X34459Y25335
X33553Y24882
X33947Y26299
X35709Y28346
X32453Y16102
X42835Y17795
X44291Y19370
X45827Y18780
X45709Y18228
X46742Y19035
X30630Y18898
X30669Y19665
X30443
X30217
X30226Y20207
X30059Y20896
X29646Y20945
X28858Y20906
X28287Y21093
X28169Y21663
X27726Y22018
X29692Y22300
X30301Y21722
X30984Y21112
X30320Y24326
X29685Y25335
X27732Y24811
X27913Y19911
X28425Y19724
X27254Y18839
X26309Y18632
X26142Y18947
X25285Y19291
X24911Y17116
X24774Y16368
X25305Y16181
X24307Y16697
X23474Y16299
X22785Y16565
Y17618
X22904Y18297
X22785Y19075
X22323Y19311
X20915Y19262
X20098Y19291
X19843Y19086
X21649Y17844
X21693Y17028
X23760Y18110
X28898Y17165
X29774Y16083
X18159Y16014
X17283Y16220
X17008Y18602
X16604Y18809
X16063Y19094
X15778Y19350
X15236Y19724
X15394Y18465
X15512Y16614
X14213Y16142
X12972Y20010
X13110Y21181
X13071Y24528
X11850
X12520Y26024
X13888Y27028
X15197Y25669
X15157Y25118
X10778Y27825
X9006Y29793
X866Y25079
X5472Y31457
X6931Y32528
X8346Y33701
X9449
X9596Y32402
X12077Y32372
X13770Y32392
X14213Y33297
X14567Y33169
X13937Y34882
X12943
X11850Y34921
X11762Y36801
X12411Y36673
X12844Y36939
X13701Y37264
X14163Y37530
X14055Y36686
X14803Y37047
X14970Y36250
X15157Y40276
X12510Y43504
X5354
X5925Y41486
X6112Y41083
X7057Y41683
X7835Y39724
X8740Y37008
X9222Y36801
X9882Y36929
X6457Y36614
X827Y37283
X16772Y41181
X17717Y41024
X20305Y40915
X19949Y41833
X19604Y42039
X20067Y42335
X20037Y43732
X20591Y45827
X18976
X21496Y44921
X25669Y45827
X27171Y45803
X25600Y43209
X25423Y42736
X25335Y41161
X25522Y40748
X26053Y41368
X26427Y40492
X29459Y40935
X31132Y41132
X31594Y40994
X31683Y41516
X34083Y41425
X34400Y40098
X34700Y39857
X34992Y39697
X35256Y39469
X35543Y39303
X35748Y38996
X36181Y39213
X36530Y39685
X36378Y40669
X35325Y40591
X35327Y40908
X36388Y42707
X36220Y43819
X36240Y45591
X37476Y45343
X43127Y45403
X43110Y46260
X43858Y44291
X44776Y44104
X46102Y45069
X45827Y45866
X45768Y46831
X46181Y42047
X45561Y41575
X45207
X44557
X44055
X42834Y41258
X43356Y40256
X42047Y40433
X41358Y39685
X43858Y36850
X37244Y36772
X36220Y36850
X34660Y36650
X34482Y36817
X34311Y36988
X37077Y38268
X38110Y34685
X38110Y32638
X50157Y32362
X51220Y32008
X52441Y32126
X51929Y33031
X52528Y35493
X52274Y37736
Y37972
Y38219
X52037Y38022
Y37785
X52047Y39094
X52283
X52530
X53150Y38976
X53976Y38031
X52008Y40039
X51240Y39685
X51652Y41841
X53268Y41890
X53386Y44961
X52402Y44646
X48829Y46476
X48120
X46949Y39685
X49919Y36801
X50906Y36850
X55079Y32598
X55787Y32677
X55738Y32264
X59921Y38819
X59843Y44882
X59764Y58150
X56339Y61850
X34882Y56732
X34234Y53901
X33091Y53634
X32215
X31358
X34961Y50630
X34744Y47598
X35984Y47244
X28661Y50000
X26496Y48268
X26053Y47805
X26053Y47530
X20591Y47559
X17795Y48465
X16535Y49173
X19882Y50787
X18577Y53565
X19882Y55315
X17205Y56378
X22677Y56339
X25551Y55354
X28425Y55039
X28612Y55829
X28071Y56811
X29232Y53898
X30896Y53634
X27834Y61847
X15551Y61732
X4409Y61693
X709Y58268
Y48819
T02
X32213Y49055
X33213
X34213
X31213
X30213
X29213
X19114Y49047
Y50047
Y51047
Y52047
Y53047
Y54047
Y55047
Y56047
Y57047
Y58047
X18114
Y57047
Y56047
Y55047
Y54047
Y53047
Y52047
Y51047
Y50047
Y49047
Y48047
X19114
Y47047
X18114
T03
X39557Y42644
X40541
Y43909
X39557
T04
X6476Y43543
X7476
X8476
X9476
X10476
X11476
T05
X14291Y7835
X15394
Y9252
X14291
Y10984
X15524
X16756
X17988
X19220
X20453
X21685
X21299Y9252
X20315
X19331
X18346
X17362
X16378
Y7835
X18346
X19331
X21299
X22283
X23268
X24252
X25236
Y9252
X24252
X23268
X22283
X23886Y10984
X25118
X27441
X28543
X29776
X31008
X30394Y9252
X29409
X28425
X27441
Y7835
X28425
X29409
X31378
X32362
X33346
X34331
X35433
Y9252
X34331
X33346
X32362
X31378
X32240Y10984
X34331
X35433
X37756
X38740
X39724
X40709
X41693
X42677
Y9252
X41693
X40709
X39724
X38740
X37756
Y7835
X38740
X40709
X41693
X42677
T06
X37679Y43711
X42419
T07
X17362Y5689
X39724
T08
X4427Y48480
X13526
T09
X1969Y2008
X58661
X1988Y27992
X58661Y60591
X1969
M30
