G04*
G04 #@! TF.GenerationSoftware,Altium Limited,Altium Designer,20.0.10 (225)*
G04*
G04 Layer_Color=7674933*
%FSLAX25Y25*%
%MOIN*%
G70*
G01*
G75*
G04:AMPARAMS|DCode=37|XSize=38.98mil|YSize=38.98mil|CornerRadius=6.1mil|HoleSize=0mil|Usage=FLASHONLY|Rotation=180.000|XOffset=0mil|YOffset=0mil|HoleType=Round|Shape=RoundedRectangle|*
%AMROUNDEDRECTD37*
21,1,0.03898,0.02677,0,0,180.0*
21,1,0.02677,0.03898,0,0,180.0*
1,1,0.01221,-0.01339,0.01339*
1,1,0.01221,0.01339,0.01339*
1,1,0.01221,0.01339,-0.01339*
1,1,0.01221,-0.01339,-0.01339*
%
%ADD37ROUNDEDRECTD37*%
%ADD38O,0.02520X0.01535*%
%ADD39O,0.04488X0.02520*%
%ADD40O,0.04488X0.06457*%
%ADD41O,0.03701X0.02913*%
%ADD42O,0.02520X0.04488*%
%ADD43O,0.01339X0.03307*%
%ADD44O,0.01535X0.02520*%
G04:AMPARAMS|DCode=45|XSize=37.01mil|YSize=84.25mil|CornerRadius=5.91mil|HoleSize=0mil|Usage=FLASHONLY|Rotation=0.000|XOffset=0mil|YOffset=0mil|HoleType=Round|Shape=RoundedRectangle|*
%AMROUNDEDRECTD45*
21,1,0.03701,0.07244,0,0,0.0*
21,1,0.02520,0.08425,0,0,0.0*
1,1,0.01181,0.01260,-0.03622*
1,1,0.01181,-0.01260,-0.03622*
1,1,0.01181,-0.01260,0.03622*
1,1,0.01181,0.01260,0.03622*
%
%ADD45ROUNDEDRECTD45*%
G04:AMPARAMS|DCode=46|XSize=38.98mil|YSize=38.98mil|CornerRadius=6.1mil|HoleSize=0mil|Usage=FLASHONLY|Rotation=90.000|XOffset=0mil|YOffset=0mil|HoleType=Round|Shape=RoundedRectangle|*
%AMROUNDEDRECTD46*
21,1,0.03898,0.02677,0,0,90.0*
21,1,0.02677,0.03898,0,0,90.0*
1,1,0.01221,0.01339,0.01339*
1,1,0.01221,0.01339,-0.01339*
1,1,0.01221,-0.01339,-0.01339*
1,1,0.01221,-0.01339,0.01339*
%
%ADD46ROUNDEDRECTD46*%
%ADD47O,0.01535X0.02520*%
%ADD48O,0.01339X0.02126*%
G04:AMPARAMS|DCode=49|XSize=15.35mil|YSize=33.07mil|CornerRadius=7.68mil|HoleSize=0mil|Usage=FLASHONLY|Rotation=180.000|XOffset=0mil|YOffset=0mil|HoleType=Round|Shape=RoundedRectangle|*
%AMROUNDEDRECTD49*
21,1,0.01535,0.01772,0,0,180.0*
21,1,0.00000,0.03307,0,0,180.0*
1,1,0.01535,0.00000,0.00886*
1,1,0.01535,0.00000,0.00886*
1,1,0.01535,0.00000,-0.00886*
1,1,0.01535,0.00000,-0.00886*
%
%ADD49ROUNDEDRECTD49*%
G04:AMPARAMS|DCode=50|XSize=31.1mil|YSize=37.01mil|CornerRadius=5.32mil|HoleSize=0mil|Usage=FLASHONLY|Rotation=90.000|XOffset=0mil|YOffset=0mil|HoleType=Round|Shape=RoundedRectangle|*
%AMROUNDEDRECTD50*
21,1,0.03110,0.02638,0,0,90.0*
21,1,0.02047,0.03701,0,0,90.0*
1,1,0.01063,0.01319,0.01024*
1,1,0.01063,0.01319,-0.01024*
1,1,0.01063,-0.01319,-0.01024*
1,1,0.01063,-0.01319,0.01024*
%
%ADD50ROUNDEDRECTD50*%
G04:AMPARAMS|DCode=51|XSize=23.23mil|YSize=37.01mil|CornerRadius=4.53mil|HoleSize=0mil|Usage=FLASHONLY|Rotation=90.000|XOffset=0mil|YOffset=0mil|HoleType=Round|Shape=RoundedRectangle|*
%AMROUNDEDRECTD51*
21,1,0.02323,0.02795,0,0,90.0*
21,1,0.01417,0.03701,0,0,90.0*
1,1,0.00906,0.01398,0.00709*
1,1,0.00906,0.01398,-0.00709*
1,1,0.00906,-0.01398,-0.00709*
1,1,0.00906,-0.01398,0.00709*
%
%ADD51ROUNDEDRECTD51*%
G04:AMPARAMS|DCode=52|XSize=31.1mil|YSize=37.01mil|CornerRadius=5.32mil|HoleSize=0mil|Usage=FLASHONLY|Rotation=0.000|XOffset=0mil|YOffset=0mil|HoleType=Round|Shape=RoundedRectangle|*
%AMROUNDEDRECTD52*
21,1,0.03110,0.02638,0,0,0.0*
21,1,0.02047,0.03701,0,0,0.0*
1,1,0.01063,0.01024,-0.01319*
1,1,0.01063,-0.01024,-0.01319*
1,1,0.01063,-0.01024,0.01319*
1,1,0.01063,0.01024,0.01319*
%
%ADD52ROUNDEDRECTD52*%
G04:AMPARAMS|DCode=53|XSize=23.23mil|YSize=37.01mil|CornerRadius=4.53mil|HoleSize=0mil|Usage=FLASHONLY|Rotation=0.000|XOffset=0mil|YOffset=0mil|HoleType=Round|Shape=RoundedRectangle|*
%AMROUNDEDRECTD53*
21,1,0.02323,0.02795,0,0,0.0*
21,1,0.01417,0.03701,0,0,0.0*
1,1,0.00906,0.00709,-0.01398*
1,1,0.00906,-0.00709,-0.01398*
1,1,0.00906,-0.00709,0.01398*
1,1,0.00906,0.00709,0.01398*
%
%ADD53ROUNDEDRECTD53*%
G04:AMPARAMS|DCode=54|XSize=44.88mil|YSize=48.82mil|CornerRadius=6.69mil|HoleSize=0mil|Usage=FLASHONLY|Rotation=270.000|XOffset=0mil|YOffset=0mil|HoleType=Round|Shape=RoundedRectangle|*
%AMROUNDEDRECTD54*
21,1,0.04488,0.03543,0,0,270.0*
21,1,0.03150,0.04882,0,0,270.0*
1,1,0.01339,-0.01772,-0.01575*
1,1,0.01339,-0.01772,0.01575*
1,1,0.01339,0.01772,0.01575*
1,1,0.01339,0.01772,-0.01575*
%
%ADD54ROUNDEDRECTD54*%
G04:AMPARAMS|DCode=55|XSize=29.13mil|YSize=29.13mil|CornerRadius=5.12mil|HoleSize=0mil|Usage=FLASHONLY|Rotation=0.000|XOffset=0mil|YOffset=0mil|HoleType=Round|Shape=RoundedRectangle|*
%AMROUNDEDRECTD55*
21,1,0.02913,0.01890,0,0,0.0*
21,1,0.01890,0.02913,0,0,0.0*
1,1,0.01024,0.00945,-0.00945*
1,1,0.01024,-0.00945,-0.00945*
1,1,0.01024,-0.00945,0.00945*
1,1,0.01024,0.00945,0.00945*
%
%ADD55ROUNDEDRECTD55*%
G04:AMPARAMS|DCode=56|XSize=29.13mil|YSize=29.13mil|CornerRadius=5.12mil|HoleSize=0mil|Usage=FLASHONLY|Rotation=90.000|XOffset=0mil|YOffset=0mil|HoleType=Round|Shape=RoundedRectangle|*
%AMROUNDEDRECTD56*
21,1,0.02913,0.01890,0,0,90.0*
21,1,0.01890,0.02913,0,0,90.0*
1,1,0.01024,0.00945,0.00945*
1,1,0.01024,0.00945,-0.00945*
1,1,0.01024,-0.00945,-0.00945*
1,1,0.01024,-0.00945,0.00945*
%
%ADD56ROUNDEDRECTD56*%
G04:AMPARAMS|DCode=57|XSize=33.07mil|YSize=41.73mil|CornerRadius=5.51mil|HoleSize=0mil|Usage=FLASHONLY|Rotation=90.000|XOffset=0mil|YOffset=0mil|HoleType=Round|Shape=RoundedRectangle|*
%AMROUNDEDRECTD57*
21,1,0.03307,0.03071,0,0,90.0*
21,1,0.02205,0.04173,0,0,90.0*
1,1,0.01102,0.01535,0.01102*
1,1,0.01102,0.01535,-0.01102*
1,1,0.01102,-0.01535,-0.01102*
1,1,0.01102,-0.01535,0.01102*
%
%ADD57ROUNDEDRECTD57*%
%ADD58O,0.01339X0.02520*%
G04:AMPARAMS|DCode=59|XSize=44.88mil|YSize=62.6mil|CornerRadius=6.69mil|HoleSize=0mil|Usage=FLASHONLY|Rotation=90.000|XOffset=0mil|YOffset=0mil|HoleType=Round|Shape=RoundedRectangle|*
%AMROUNDEDRECTD59*
21,1,0.04488,0.04921,0,0,90.0*
21,1,0.03150,0.06260,0,0,90.0*
1,1,0.01339,0.02461,0.01575*
1,1,0.01339,0.02461,-0.01575*
1,1,0.01339,-0.02461,-0.01575*
1,1,0.01339,-0.02461,0.01575*
%
%ADD59ROUNDEDRECTD59*%
G04:AMPARAMS|DCode=60|XSize=56.69mil|YSize=64.57mil|CornerRadius=7.87mil|HoleSize=0mil|Usage=FLASHONLY|Rotation=0.000|XOffset=0mil|YOffset=0mil|HoleType=Round|Shape=RoundedRectangle|*
%AMROUNDEDRECTD60*
21,1,0.05669,0.04882,0,0,0.0*
21,1,0.04095,0.06457,0,0,0.0*
1,1,0.01575,0.02047,-0.02441*
1,1,0.01575,-0.02047,-0.02441*
1,1,0.01575,-0.02047,0.02441*
1,1,0.01575,0.02047,0.02441*
%
%ADD60ROUNDEDRECTD60*%
G04:AMPARAMS|DCode=61|XSize=44.88mil|YSize=48.82mil|CornerRadius=6.69mil|HoleSize=0mil|Usage=FLASHONLY|Rotation=180.000|XOffset=0mil|YOffset=0mil|HoleType=Round|Shape=RoundedRectangle|*
%AMROUNDEDRECTD61*
21,1,0.04488,0.03543,0,0,180.0*
21,1,0.03150,0.04882,0,0,180.0*
1,1,0.01339,-0.01575,0.01772*
1,1,0.01339,0.01575,0.01772*
1,1,0.01339,0.01575,-0.01772*
1,1,0.01339,-0.01575,-0.01772*
%
%ADD61ROUNDEDRECTD61*%
%ADD62C,0.16299*%
%ADD63C,0.02913*%
%ADD64O,0.06457X0.10000*%
%ADD65C,0.00551*%
%ADD66C,0.06951*%
%ADD67R,0.06457X0.06457*%
%ADD68C,0.06457*%
%ADD69R,0.06457X0.06457*%
%ADD70R,0.06693X0.06693*%
%ADD71C,0.06693*%
D37*
X67874Y414764D02*
D03*
X61654D02*
D03*
D38*
X177067Y179724D02*
D03*
Y170276D02*
D03*
X213287Y178248D02*
D03*
Y174803D02*
D03*
Y172047D02*
D03*
X212480Y413996D02*
D03*
D39*
X516417Y382973D02*
D03*
X516417Y390453D02*
D03*
X340158Y230610D02*
D03*
X340277Y225611D02*
D03*
D40*
X425301Y198971D02*
D03*
X475990D02*
D03*
X480935D02*
D03*
D41*
X389652Y212736D02*
D03*
D42*
X443504Y451968D02*
D03*
D43*
X458347Y445571D02*
D03*
D44*
X437972Y404626D02*
D03*
X91613Y393126D02*
D03*
D45*
X468504Y426083D02*
D03*
X485039D02*
D03*
X468701Y451673D02*
D03*
X485236D02*
D03*
D46*
X463484Y464921D02*
D03*
Y458701D02*
D03*
X364728Y423937D02*
D03*
Y417717D02*
D03*
D47*
X173701Y414193D02*
D03*
X171732D02*
D03*
D48*
X124733Y379824D02*
D03*
X127559D02*
D03*
X118445D02*
D03*
X132185D02*
D03*
X136811D02*
D03*
X142028D02*
D03*
X114803D02*
D03*
X110177D02*
D03*
D49*
X296870Y257283D02*
D03*
D50*
X523622Y405020D02*
D03*
X516535D02*
D03*
Y415059D02*
D03*
X523622D02*
D03*
X292913Y180807D02*
D03*
X300000D02*
D03*
Y190847D02*
D03*
X292913D02*
D03*
D51*
X523622Y408465D02*
D03*
Y411614D02*
D03*
X516535D02*
D03*
Y408465D02*
D03*
X300000Y187402D02*
D03*
Y184252D02*
D03*
X292913D02*
D03*
Y187402D02*
D03*
D52*
X528051Y177953D02*
D03*
Y185039D02*
D03*
X538091D02*
D03*
Y177953D02*
D03*
X495768Y178740D02*
D03*
Y185827D02*
D03*
X505807D02*
D03*
Y178740D02*
D03*
X439075Y177953D02*
D03*
Y185039D02*
D03*
X449114D02*
D03*
Y177953D02*
D03*
X398917Y177264D02*
D03*
Y184350D02*
D03*
X408957D02*
D03*
Y177264D02*
D03*
X348228Y178740D02*
D03*
Y185827D02*
D03*
X358268D02*
D03*
Y178740D02*
D03*
X324705D02*
D03*
Y185827D02*
D03*
X314665D02*
D03*
Y178740D02*
D03*
X134449Y331004D02*
D03*
Y323917D02*
D03*
X124409D02*
D03*
Y331004D02*
D03*
X516043Y326654D02*
D03*
Y333740D02*
D03*
X506004D02*
D03*
Y326654D02*
D03*
X82677Y331004D02*
D03*
Y323917D02*
D03*
X92716D02*
D03*
Y331004D02*
D03*
D53*
X531496Y177953D02*
D03*
X534646D02*
D03*
Y185039D02*
D03*
X531496D02*
D03*
X499213Y178740D02*
D03*
X502362D02*
D03*
Y185827D02*
D03*
X499213D02*
D03*
X442520Y177953D02*
D03*
X445669D02*
D03*
Y185039D02*
D03*
X442520D02*
D03*
X402362Y177264D02*
D03*
X405512D02*
D03*
Y184350D02*
D03*
X402362D02*
D03*
X351673Y178740D02*
D03*
X354823D02*
D03*
Y185827D02*
D03*
X351673D02*
D03*
X318110D02*
D03*
X321260D02*
D03*
Y178740D02*
D03*
X318110D02*
D03*
X131004Y331004D02*
D03*
X127854D02*
D03*
Y323917D02*
D03*
X131004D02*
D03*
X509449Y333740D02*
D03*
X512598D02*
D03*
Y326654D02*
D03*
X509449D02*
D03*
X89272Y323917D02*
D03*
X86122D02*
D03*
Y331004D02*
D03*
X89272D02*
D03*
D54*
X145473Y363386D02*
D03*
Y356693D02*
D03*
X134843Y363386D02*
D03*
Y356693D02*
D03*
X124213Y363386D02*
D03*
Y356693D02*
D03*
X113583Y363386D02*
D03*
Y356693D02*
D03*
X102953Y363386D02*
D03*
Y356693D02*
D03*
X92323Y363386D02*
D03*
Y356693D02*
D03*
X81693Y363386D02*
D03*
Y356693D02*
D03*
X71063Y363386D02*
D03*
Y356693D02*
D03*
X552165Y149213D02*
D03*
Y155905D02*
D03*
X541536Y149213D02*
D03*
Y155905D02*
D03*
X530906Y149213D02*
D03*
Y155905D02*
D03*
X520276Y149213D02*
D03*
Y155905D02*
D03*
X507677Y149213D02*
D03*
Y155905D02*
D03*
X497047Y149213D02*
D03*
Y155905D02*
D03*
X486417Y149213D02*
D03*
Y155905D02*
D03*
X475787Y149213D02*
D03*
Y155905D02*
D03*
X424803Y155905D02*
D03*
Y149213D02*
D03*
X456693Y155905D02*
D03*
Y149213D02*
D03*
X446063Y155905D02*
D03*
Y149213D02*
D03*
X435433Y155905D02*
D03*
Y149213D02*
D03*
X307677Y149213D02*
D03*
Y155905D02*
D03*
X318307Y149213D02*
D03*
Y155905D02*
D03*
X328937Y149213D02*
D03*
Y155905D02*
D03*
X337697Y155905D02*
D03*
Y149213D02*
D03*
X348327Y155905D02*
D03*
Y149213D02*
D03*
X358957Y155905D02*
D03*
Y149213D02*
D03*
X369587Y155905D02*
D03*
Y149213D02*
D03*
X384055Y155905D02*
D03*
Y149213D02*
D03*
X394685Y155905D02*
D03*
Y149213D02*
D03*
X405315Y155905D02*
D03*
Y149213D02*
D03*
X415945Y155905D02*
D03*
Y149213D02*
D03*
X278543Y170079D02*
D03*
Y163386D02*
D03*
X268701Y170079D02*
D03*
Y163386D02*
D03*
X258465Y170079D02*
D03*
Y163386D02*
D03*
D55*
X552362Y172441D02*
D03*
Y163779D02*
D03*
X541339Y172441D02*
D03*
Y163779D02*
D03*
X530709Y172441D02*
D03*
Y163779D02*
D03*
X520079Y172441D02*
D03*
Y163779D02*
D03*
X507480Y172441D02*
D03*
Y163779D02*
D03*
X496850Y172441D02*
D03*
Y163779D02*
D03*
X486221Y172441D02*
D03*
Y163779D02*
D03*
X476378Y172047D02*
D03*
Y163386D02*
D03*
X424606Y163779D02*
D03*
Y172441D02*
D03*
X454528Y163779D02*
D03*
Y172441D02*
D03*
X446260Y163779D02*
D03*
Y172441D02*
D03*
X435630Y163779D02*
D03*
Y172441D02*
D03*
X415748Y163779D02*
D03*
Y172441D02*
D03*
X405118Y163779D02*
D03*
Y172441D02*
D03*
X394882Y163779D02*
D03*
Y172441D02*
D03*
X385827Y164272D02*
D03*
Y172933D02*
D03*
X368701Y164272D02*
D03*
Y172933D02*
D03*
X358760Y164173D02*
D03*
Y172835D02*
D03*
X348524Y164173D02*
D03*
Y172835D02*
D03*
X337894Y164173D02*
D03*
Y172835D02*
D03*
X328740Y172638D02*
D03*
Y163976D02*
D03*
X318110Y172441D02*
D03*
Y163779D02*
D03*
X307480Y172835D02*
D03*
Y164173D02*
D03*
D56*
X277165Y180216D02*
D03*
X285827D02*
D03*
X264173D02*
D03*
X272835D02*
D03*
X251181D02*
D03*
X259842D02*
D03*
X525394Y316043D02*
D03*
X516732D02*
D03*
X524705Y302165D02*
D03*
X516043D02*
D03*
X524902Y288878D02*
D03*
X516240D02*
D03*
D57*
X237402Y183071D02*
D03*
Y176772D02*
D03*
D58*
X279035Y215158D02*
D03*
D59*
X291142Y155315D02*
D03*
Y147835D02*
D03*
X278346D02*
D03*
Y155315D02*
D03*
X268504Y147835D02*
D03*
Y155315D02*
D03*
X258661Y147835D02*
D03*
Y155315D02*
D03*
X245866D02*
D03*
Y147835D02*
D03*
X236024Y155315D02*
D03*
Y147835D02*
D03*
X223228Y155315D02*
D03*
Y147835D02*
D03*
X213386Y155315D02*
D03*
Y147835D02*
D03*
X177953Y155315D02*
D03*
Y147835D02*
D03*
X200591D02*
D03*
Y155315D02*
D03*
X190748Y147835D02*
D03*
Y155315D02*
D03*
D60*
X543504Y336417D02*
D03*
X536024D02*
D03*
Y366811D02*
D03*
X543504D02*
D03*
X543228Y315866D02*
D03*
X535748D02*
D03*
X536024Y398622D02*
D03*
X543504D02*
D03*
D61*
X536221Y302087D02*
D03*
X542913D02*
D03*
X536221Y288661D02*
D03*
X542913D02*
D03*
D62*
X562205Y337008D02*
D03*
Y368504D02*
D03*
Y400000D02*
D03*
Y431496D02*
D03*
X424193Y437106D02*
D03*
X376791D02*
D03*
D63*
X342339Y539012D02*
D03*
X308957Y536339D02*
D03*
X292323Y538976D02*
D03*
X322146Y536339D02*
D03*
X330906D02*
D03*
X313583D02*
D03*
X286122Y558287D02*
D03*
X365302Y396850D02*
D03*
X413583D02*
D03*
X370768Y382677D02*
D03*
X512402Y396850D02*
D03*
X469488D02*
D03*
X447756Y441043D02*
D03*
X445571Y415748D02*
D03*
X440551D02*
D03*
X455610D02*
D03*
X452067D02*
D03*
X196043Y420394D02*
D03*
X199488Y418327D02*
D03*
X200669Y423346D02*
D03*
X200374Y437323D02*
D03*
X303199Y243258D02*
D03*
X281693Y216634D02*
D03*
X303012Y217224D02*
D03*
X335531Y248819D02*
D03*
X296919Y223002D02*
D03*
D64*
X397244Y109843D02*
D03*
X142913D02*
D03*
X155236D02*
D03*
X167559D02*
D03*
X179882D02*
D03*
X192205D02*
D03*
X204528D02*
D03*
X216850D02*
D03*
X426772D02*
D03*
X416929D02*
D03*
X426772Y92520D02*
D03*
Y78347D02*
D03*
X416929Y92520D02*
D03*
Y78347D02*
D03*
X407087Y109843D02*
D03*
Y92520D02*
D03*
Y78347D02*
D03*
X397244Y92520D02*
D03*
X387402Y109843D02*
D03*
Y92520D02*
D03*
Y78347D02*
D03*
X377559Y109843D02*
D03*
Y92520D02*
D03*
Y78347D02*
D03*
X354331Y109843D02*
D03*
Y92520D02*
D03*
Y78347D02*
D03*
X343307Y109843D02*
D03*
Y92520D02*
D03*
Y78347D02*
D03*
X333465Y92520D02*
D03*
Y78347D02*
D03*
X322402Y109843D02*
D03*
X323622Y92520D02*
D03*
Y78347D02*
D03*
X310079Y109843D02*
D03*
X313779Y92520D02*
D03*
Y78347D02*
D03*
X297756Y109843D02*
D03*
X303937Y92520D02*
D03*
X294094D02*
D03*
Y78347D02*
D03*
X285433Y109843D02*
D03*
X284252Y92520D02*
D03*
Y78347D02*
D03*
X274409Y109843D02*
D03*
Y92520D02*
D03*
Y78347D02*
D03*
X251181Y109843D02*
D03*
X252362Y92520D02*
D03*
Y78347D02*
D03*
X238858Y109843D02*
D03*
X242520Y92520D02*
D03*
Y78347D02*
D03*
X232677Y92520D02*
D03*
Y78347D02*
D03*
X222835Y92520D02*
D03*
Y78347D02*
D03*
X212992Y92520D02*
D03*
Y78347D02*
D03*
X203150Y92520D02*
D03*
X193307Y78347D02*
D03*
Y92520D02*
D03*
X183465Y78347D02*
D03*
Y92520D02*
D03*
X173622D02*
D03*
X163779Y78347D02*
D03*
Y92520D02*
D03*
X153937Y78347D02*
D03*
Y92520D02*
D03*
X142913Y78347D02*
D03*
Y92520D02*
D03*
D65*
X397244Y56890D02*
D03*
X173622D02*
D03*
X19879Y279921D02*
D03*
X586614Y20079D02*
D03*
Y605905D02*
D03*
X19685D02*
D03*
Y20079D02*
D03*
X44272Y484803D02*
D03*
X135256D02*
D03*
D66*
X395571Y426437D02*
D03*
Y439094D02*
D03*
X405413D02*
D03*
Y426437D02*
D03*
D67*
X292126Y490551D02*
D03*
D68*
X302126D02*
D03*
X312126D02*
D03*
X322126D02*
D03*
X332126D02*
D03*
X342126D02*
D03*
X181142Y470472D02*
D03*
X191142Y480472D02*
D03*
X181142D02*
D03*
X191142Y490472D02*
D03*
X181142D02*
D03*
X191142Y500472D02*
D03*
X181142D02*
D03*
X191142Y510472D02*
D03*
X181142D02*
D03*
X191142Y520472D02*
D03*
X181142D02*
D03*
X191142Y530472D02*
D03*
X181142D02*
D03*
X191142Y540472D02*
D03*
X181142D02*
D03*
X191142Y550472D02*
D03*
X181142D02*
D03*
X191142Y560472D02*
D03*
X181142D02*
D03*
X191142Y570472D02*
D03*
X181142D02*
D03*
X191142Y580472D02*
D03*
X181142D02*
D03*
D69*
X191142Y470472D02*
D03*
D70*
X64764Y435433D02*
D03*
D71*
X74764D02*
D03*
X84764D02*
D03*
X94764D02*
D03*
X104764D02*
D03*
X114764D02*
D03*
M02*
