G04*
G04 #@! TF.GenerationSoftware,Altium Limited,Altium Designer,20.0.10 (225)*
G04*
G04 Layer_Color=7674933*
%FSLAX25Y25*%
%MOIN*%
G70*
G01*
G75*
%ADD37O,0.04488X0.02520*%
%ADD38O,0.01339X0.02520*%
%ADD39O,0.02520X0.01535*%
%ADD40O,0.01535X0.02520*%
%ADD41O,0.01535X0.02520*%
%ADD42O,0.01339X0.03307*%
%ADD43O,0.02520X0.04488*%
G04:AMPARAMS|DCode=44|XSize=15.35mil|YSize=33.07mil|CornerRadius=7.68mil|HoleSize=0mil|Usage=FLASHONLY|Rotation=180.000|XOffset=0mil|YOffset=0mil|HoleType=Round|Shape=RoundedRectangle|*
%AMROUNDEDRECTD44*
21,1,0.01535,0.01772,0,0,180.0*
21,1,0.00000,0.03307,0,0,180.0*
1,1,0.01535,0.00000,0.00886*
1,1,0.01535,0.00000,0.00886*
1,1,0.01535,0.00000,-0.00886*
1,1,0.01535,0.00000,-0.00886*
%
%ADD44ROUNDEDRECTD44*%
%ADD45O,0.03701X0.02913*%
%ADD46O,0.04488X0.06457*%
%ADD47O,0.01339X0.02126*%
G04:AMPARAMS|DCode=48|XSize=33.07mil|YSize=41.73mil|CornerRadius=5.51mil|HoleSize=0mil|Usage=FLASHONLY|Rotation=90.000|XOffset=0mil|YOffset=0mil|HoleType=Round|Shape=RoundedRectangle|*
%AMROUNDEDRECTD48*
21,1,0.03307,0.03071,0,0,90.0*
21,1,0.02205,0.04173,0,0,90.0*
1,1,0.01102,0.01535,0.01102*
1,1,0.01102,0.01535,-0.01102*
1,1,0.01102,-0.01535,-0.01102*
1,1,0.01102,-0.01535,0.01102*
%
%ADD48ROUNDEDRECTD48*%
G04:AMPARAMS|DCode=49|XSize=37.01mil|YSize=84.25mil|CornerRadius=5.91mil|HoleSize=0mil|Usage=FLASHONLY|Rotation=0.000|XOffset=0mil|YOffset=0mil|HoleType=Round|Shape=RoundedRectangle|*
%AMROUNDEDRECTD49*
21,1,0.03701,0.07244,0,0,0.0*
21,1,0.02520,0.08425,0,0,0.0*
1,1,0.01181,0.01260,-0.03622*
1,1,0.01181,-0.01260,-0.03622*
1,1,0.01181,-0.01260,0.03622*
1,1,0.01181,0.01260,0.03622*
%
%ADD49ROUNDEDRECTD49*%
G04:AMPARAMS|DCode=50|XSize=56.69mil|YSize=64.57mil|CornerRadius=7.87mil|HoleSize=0mil|Usage=FLASHONLY|Rotation=0.000|XOffset=0mil|YOffset=0mil|HoleType=Round|Shape=RoundedRectangle|*
%AMROUNDEDRECTD50*
21,1,0.05669,0.04882,0,0,0.0*
21,1,0.04095,0.06457,0,0,0.0*
1,1,0.01575,0.02047,-0.02441*
1,1,0.01575,-0.02047,-0.02441*
1,1,0.01575,-0.02047,0.02441*
1,1,0.01575,0.02047,0.02441*
%
%ADD50ROUNDEDRECTD50*%
%ADD51C,0.16299*%
G04:AMPARAMS|DCode=52|XSize=29.13mil|YSize=29.13mil|CornerRadius=5.12mil|HoleSize=0mil|Usage=FLASHONLY|Rotation=90.000|XOffset=0mil|YOffset=0mil|HoleType=Round|Shape=RoundedRectangle|*
%AMROUNDEDRECTD52*
21,1,0.02913,0.01890,0,0,90.0*
21,1,0.01890,0.02913,0,0,90.0*
1,1,0.01024,0.00945,0.00945*
1,1,0.01024,0.00945,-0.00945*
1,1,0.01024,-0.00945,-0.00945*
1,1,0.01024,-0.00945,0.00945*
%
%ADD52ROUNDEDRECTD52*%
G04:AMPARAMS|DCode=53|XSize=44.88mil|YSize=48.82mil|CornerRadius=6.69mil|HoleSize=0mil|Usage=FLASHONLY|Rotation=270.000|XOffset=0mil|YOffset=0mil|HoleType=Round|Shape=RoundedRectangle|*
%AMROUNDEDRECTD53*
21,1,0.04488,0.03543,0,0,270.0*
21,1,0.03150,0.04882,0,0,270.0*
1,1,0.01339,-0.01772,-0.01575*
1,1,0.01339,-0.01772,0.01575*
1,1,0.01339,0.01772,0.01575*
1,1,0.01339,0.01772,-0.01575*
%
%ADD53ROUNDEDRECTD53*%
G04:AMPARAMS|DCode=54|XSize=44.88mil|YSize=62.6mil|CornerRadius=6.69mil|HoleSize=0mil|Usage=FLASHONLY|Rotation=90.000|XOffset=0mil|YOffset=0mil|HoleType=Round|Shape=RoundedRectangle|*
%AMROUNDEDRECTD54*
21,1,0.04488,0.04921,0,0,90.0*
21,1,0.03150,0.06260,0,0,90.0*
1,1,0.01339,0.02461,0.01575*
1,1,0.01339,0.02461,-0.01575*
1,1,0.01339,-0.02461,-0.01575*
1,1,0.01339,-0.02461,0.01575*
%
%ADD54ROUNDEDRECTD54*%
G04:AMPARAMS|DCode=55|XSize=31.1mil|YSize=37.01mil|CornerRadius=5.32mil|HoleSize=0mil|Usage=FLASHONLY|Rotation=270.000|XOffset=0mil|YOffset=0mil|HoleType=Round|Shape=RoundedRectangle|*
%AMROUNDEDRECTD55*
21,1,0.03110,0.02638,0,0,270.0*
21,1,0.02047,0.03701,0,0,270.0*
1,1,0.01063,-0.01319,-0.01024*
1,1,0.01063,-0.01319,0.01024*
1,1,0.01063,0.01319,0.01024*
1,1,0.01063,0.01319,-0.01024*
%
%ADD55ROUNDEDRECTD55*%
G04:AMPARAMS|DCode=56|XSize=23.23mil|YSize=37.01mil|CornerRadius=4.53mil|HoleSize=0mil|Usage=FLASHONLY|Rotation=270.000|XOffset=0mil|YOffset=0mil|HoleType=Round|Shape=RoundedRectangle|*
%AMROUNDEDRECTD56*
21,1,0.02323,0.02795,0,0,270.0*
21,1,0.01417,0.03701,0,0,270.0*
1,1,0.00906,-0.01398,-0.00709*
1,1,0.00906,-0.01398,0.00709*
1,1,0.00906,0.01398,0.00709*
1,1,0.00906,0.01398,-0.00709*
%
%ADD56ROUNDEDRECTD56*%
G04:AMPARAMS|DCode=57|XSize=38.98mil|YSize=38.98mil|CornerRadius=6.1mil|HoleSize=0mil|Usage=FLASHONLY|Rotation=180.000|XOffset=0mil|YOffset=0mil|HoleType=Round|Shape=RoundedRectangle|*
%AMROUNDEDRECTD57*
21,1,0.03898,0.02677,0,0,180.0*
21,1,0.02677,0.03898,0,0,180.0*
1,1,0.01221,-0.01339,0.01339*
1,1,0.01221,0.01339,0.01339*
1,1,0.01221,0.01339,-0.01339*
1,1,0.01221,-0.01339,-0.01339*
%
%ADD57ROUNDEDRECTD57*%
G04:AMPARAMS|DCode=58|XSize=31.1mil|YSize=37.01mil|CornerRadius=5.32mil|HoleSize=0mil|Usage=FLASHONLY|Rotation=180.000|XOffset=0mil|YOffset=0mil|HoleType=Round|Shape=RoundedRectangle|*
%AMROUNDEDRECTD58*
21,1,0.03110,0.02638,0,0,180.0*
21,1,0.02047,0.03701,0,0,180.0*
1,1,0.01063,-0.01024,0.01319*
1,1,0.01063,0.01024,0.01319*
1,1,0.01063,0.01024,-0.01319*
1,1,0.01063,-0.01024,-0.01319*
%
%ADD58ROUNDEDRECTD58*%
G04:AMPARAMS|DCode=59|XSize=23.23mil|YSize=37.01mil|CornerRadius=4.53mil|HoleSize=0mil|Usage=FLASHONLY|Rotation=180.000|XOffset=0mil|YOffset=0mil|HoleType=Round|Shape=RoundedRectangle|*
%AMROUNDEDRECTD59*
21,1,0.02323,0.02795,0,0,180.0*
21,1,0.01417,0.03701,0,0,180.0*
1,1,0.00906,-0.00709,0.01398*
1,1,0.00906,0.00709,0.01398*
1,1,0.00906,0.00709,-0.01398*
1,1,0.00906,-0.00709,-0.01398*
%
%ADD59ROUNDEDRECTD59*%
G04:AMPARAMS|DCode=60|XSize=38.98mil|YSize=38.98mil|CornerRadius=6.1mil|HoleSize=0mil|Usage=FLASHONLY|Rotation=90.000|XOffset=0mil|YOffset=0mil|HoleType=Round|Shape=RoundedRectangle|*
%AMROUNDEDRECTD60*
21,1,0.03898,0.02677,0,0,90.0*
21,1,0.02677,0.03898,0,0,90.0*
1,1,0.01221,0.01339,0.01339*
1,1,0.01221,0.01339,-0.01339*
1,1,0.01221,-0.01339,-0.01339*
1,1,0.01221,-0.01339,0.01339*
%
%ADD60ROUNDEDRECTD60*%
G04:AMPARAMS|DCode=61|XSize=29.13mil|YSize=29.13mil|CornerRadius=5.12mil|HoleSize=0mil|Usage=FLASHONLY|Rotation=0.000|XOffset=0mil|YOffset=0mil|HoleType=Round|Shape=RoundedRectangle|*
%AMROUNDEDRECTD61*
21,1,0.02913,0.01890,0,0,0.0*
21,1,0.01890,0.02913,0,0,0.0*
1,1,0.01024,0.00945,-0.00945*
1,1,0.01024,-0.00945,-0.00945*
1,1,0.01024,-0.00945,0.00945*
1,1,0.01024,0.00945,0.00945*
%
%ADD61ROUNDEDRECTD61*%
G04:AMPARAMS|DCode=62|XSize=44.88mil|YSize=48.82mil|CornerRadius=6.69mil|HoleSize=0mil|Usage=FLASHONLY|Rotation=180.000|XOffset=0mil|YOffset=0mil|HoleType=Round|Shape=RoundedRectangle|*
%AMROUNDEDRECTD62*
21,1,0.04488,0.03543,0,0,180.0*
21,1,0.03150,0.04882,0,0,180.0*
1,1,0.01339,-0.01575,0.01772*
1,1,0.01339,0.01575,0.01772*
1,1,0.01339,0.01575,-0.01772*
1,1,0.01339,-0.01575,-0.01772*
%
%ADD62ROUNDEDRECTD62*%
%ADD63O,0.06457X0.10000*%
%ADD64C,0.00551*%
%ADD65C,0.06951*%
%ADD66C,0.02913*%
%ADD67C,0.06693*%
%ADD68R,0.06693X0.06693*%
%ADD69C,0.06457*%
%ADD70R,0.06457X0.06457*%
%ADD71R,0.06457X0.06457*%
D37*
X340277Y225611D02*
D03*
X340158Y230610D02*
D03*
X516417Y390453D02*
D03*
X516417Y382973D02*
D03*
D38*
X279035Y215158D02*
D03*
D39*
X212480Y413996D02*
D03*
X213287Y172047D02*
D03*
Y174803D02*
D03*
Y178248D02*
D03*
X177067Y170276D02*
D03*
Y179724D02*
D03*
D40*
X171732Y414193D02*
D03*
X173701D02*
D03*
D41*
X437972Y404626D02*
D03*
X91613Y393126D02*
D03*
D42*
X458347Y445571D02*
D03*
D43*
X443504Y451968D02*
D03*
D44*
X296870Y257283D02*
D03*
D45*
X389652Y212736D02*
D03*
D46*
X480935Y198971D02*
D03*
X475990D02*
D03*
X425301D02*
D03*
D47*
X110177Y379824D02*
D03*
X114803D02*
D03*
X142028D02*
D03*
X136811D02*
D03*
X132185D02*
D03*
X118445D02*
D03*
X127559D02*
D03*
X124733D02*
D03*
D48*
X237402Y176772D02*
D03*
Y183071D02*
D03*
D49*
X485236Y451673D02*
D03*
X468701D02*
D03*
X485039Y426083D02*
D03*
X468504D02*
D03*
D50*
X543504Y398622D02*
D03*
X536024D02*
D03*
Y336417D02*
D03*
X543504D02*
D03*
Y366811D02*
D03*
X536024D02*
D03*
X535748Y315866D02*
D03*
X543228D02*
D03*
D51*
X562205Y431496D02*
D03*
Y337008D02*
D03*
Y368504D02*
D03*
Y400000D02*
D03*
X376791Y437106D02*
D03*
X424193D02*
D03*
D52*
X285827Y180216D02*
D03*
X277165D02*
D03*
X516240Y288878D02*
D03*
X524902D02*
D03*
X516043Y302165D02*
D03*
X524705D02*
D03*
X516732Y316043D02*
D03*
X525394D02*
D03*
X259842Y180216D02*
D03*
X251181D02*
D03*
X272835D02*
D03*
X264173D02*
D03*
D53*
X278543Y163386D02*
D03*
Y170079D02*
D03*
X71063Y356693D02*
D03*
Y363386D02*
D03*
X81693Y356693D02*
D03*
Y363386D02*
D03*
X92323Y356693D02*
D03*
Y363386D02*
D03*
X102953Y356693D02*
D03*
Y363386D02*
D03*
X113583Y356693D02*
D03*
Y363386D02*
D03*
X124213Y356693D02*
D03*
Y363386D02*
D03*
X134843Y356693D02*
D03*
Y363386D02*
D03*
X145473Y356693D02*
D03*
Y363386D02*
D03*
X415945Y149213D02*
D03*
Y155905D02*
D03*
X405315Y149213D02*
D03*
Y155905D02*
D03*
X394685Y149213D02*
D03*
Y155905D02*
D03*
X384055Y149213D02*
D03*
Y155905D02*
D03*
X348327Y149213D02*
D03*
Y155905D02*
D03*
X424803Y149213D02*
D03*
Y155905D02*
D03*
X358957Y149213D02*
D03*
Y155905D02*
D03*
X435433Y149213D02*
D03*
Y155905D02*
D03*
X456693Y149213D02*
D03*
Y155905D02*
D03*
X446063Y149213D02*
D03*
Y155905D02*
D03*
X337697Y149213D02*
D03*
Y155905D02*
D03*
X369587Y149213D02*
D03*
Y155905D02*
D03*
X552165Y155905D02*
D03*
Y149213D02*
D03*
X541536Y155905D02*
D03*
Y149213D02*
D03*
X530906Y155905D02*
D03*
Y149213D02*
D03*
X520276Y155905D02*
D03*
Y149213D02*
D03*
X475787Y155905D02*
D03*
Y149213D02*
D03*
X486417Y155905D02*
D03*
Y149213D02*
D03*
X497047Y155905D02*
D03*
Y149213D02*
D03*
X507677Y155905D02*
D03*
Y149213D02*
D03*
X307677Y155905D02*
D03*
Y149213D02*
D03*
X318307Y155905D02*
D03*
Y149213D02*
D03*
X328937Y155905D02*
D03*
Y149213D02*
D03*
X258465Y163386D02*
D03*
Y170079D02*
D03*
X268701Y163386D02*
D03*
Y170079D02*
D03*
D54*
X258661Y155315D02*
D03*
Y147835D02*
D03*
X190748Y155315D02*
D03*
Y147835D02*
D03*
X200591Y155315D02*
D03*
Y147835D02*
D03*
X291142D02*
D03*
Y155315D02*
D03*
X245866Y147835D02*
D03*
Y155315D02*
D03*
X236024Y147835D02*
D03*
Y155315D02*
D03*
X223228Y147835D02*
D03*
Y155315D02*
D03*
X213386Y147835D02*
D03*
Y155315D02*
D03*
X177953Y147835D02*
D03*
Y155315D02*
D03*
X278346D02*
D03*
Y147835D02*
D03*
X268504Y155315D02*
D03*
Y147835D02*
D03*
D55*
X292913Y190847D02*
D03*
X300000D02*
D03*
Y180807D02*
D03*
X292913D02*
D03*
X523622Y415059D02*
D03*
X516535D02*
D03*
Y405020D02*
D03*
X523622D02*
D03*
D56*
X292913Y187402D02*
D03*
Y184252D02*
D03*
X300000D02*
D03*
Y187402D02*
D03*
X516535Y408465D02*
D03*
Y411614D02*
D03*
X523622D02*
D03*
Y408465D02*
D03*
D57*
X61654Y414764D02*
D03*
X67874D02*
D03*
D58*
X92716Y331004D02*
D03*
Y323917D02*
D03*
X82677D02*
D03*
Y331004D02*
D03*
X124409D02*
D03*
Y323917D02*
D03*
X134449D02*
D03*
Y331004D02*
D03*
X408957Y177264D02*
D03*
Y184350D02*
D03*
X398917D02*
D03*
Y177264D02*
D03*
X449114Y177953D02*
D03*
Y185039D02*
D03*
X439075D02*
D03*
Y177953D02*
D03*
X358268Y178740D02*
D03*
Y185827D02*
D03*
X348228D02*
D03*
Y178740D02*
D03*
X538091Y177953D02*
D03*
Y185039D02*
D03*
X528051D02*
D03*
Y177953D02*
D03*
X505807Y178740D02*
D03*
Y185827D02*
D03*
X495768D02*
D03*
Y178740D02*
D03*
X506004Y326654D02*
D03*
Y333740D02*
D03*
X516043D02*
D03*
Y326654D02*
D03*
X314665Y178740D02*
D03*
Y185827D02*
D03*
X324705D02*
D03*
Y178740D02*
D03*
D59*
X89272Y331004D02*
D03*
X86122D02*
D03*
Y323917D02*
D03*
X89272D02*
D03*
X131004D02*
D03*
X127854D02*
D03*
Y331004D02*
D03*
X131004D02*
D03*
X402362Y184350D02*
D03*
X405512D02*
D03*
Y177264D02*
D03*
X402362D02*
D03*
X442520Y185039D02*
D03*
X445669D02*
D03*
Y177953D02*
D03*
X442520D02*
D03*
X351673Y185827D02*
D03*
X354823D02*
D03*
Y178740D02*
D03*
X351673D02*
D03*
X531496Y185039D02*
D03*
X534646D02*
D03*
Y177953D02*
D03*
X531496D02*
D03*
X499213Y185827D02*
D03*
X502362D02*
D03*
Y178740D02*
D03*
X499213D02*
D03*
X509449Y326654D02*
D03*
X512598D02*
D03*
Y333740D02*
D03*
X509449D02*
D03*
X318110Y178740D02*
D03*
X321260D02*
D03*
Y185827D02*
D03*
X318110D02*
D03*
D60*
X463484Y458701D02*
D03*
Y464921D02*
D03*
X364728Y417717D02*
D03*
Y423937D02*
D03*
D61*
X454528Y172441D02*
D03*
Y163779D02*
D03*
X348524Y172835D02*
D03*
Y164173D02*
D03*
X435630Y172441D02*
D03*
Y163779D02*
D03*
X405118Y172441D02*
D03*
Y163779D02*
D03*
X415748Y172441D02*
D03*
Y163779D02*
D03*
X394882Y172441D02*
D03*
Y163779D02*
D03*
X424606Y172441D02*
D03*
Y163779D02*
D03*
X368701Y172933D02*
D03*
Y164272D02*
D03*
X358760Y172835D02*
D03*
Y164173D02*
D03*
X337894Y172835D02*
D03*
Y164173D02*
D03*
X385827Y172933D02*
D03*
Y164272D02*
D03*
X446260Y172441D02*
D03*
Y163779D02*
D03*
X552362Y163779D02*
D03*
Y172441D02*
D03*
X541339Y163779D02*
D03*
Y172441D02*
D03*
X530709Y163779D02*
D03*
Y172441D02*
D03*
X520079Y163779D02*
D03*
Y172441D02*
D03*
X476378Y163386D02*
D03*
Y172047D02*
D03*
X486221Y163779D02*
D03*
Y172441D02*
D03*
X496850Y163779D02*
D03*
Y172441D02*
D03*
X507480Y163779D02*
D03*
Y172441D02*
D03*
X307480Y164173D02*
D03*
Y172835D02*
D03*
X318110Y163779D02*
D03*
Y172441D02*
D03*
X328740Y163976D02*
D03*
Y172638D02*
D03*
D62*
X542913Y288661D02*
D03*
X536221D02*
D03*
X542913Y302087D02*
D03*
X536221D02*
D03*
D63*
X142913Y92520D02*
D03*
Y78347D02*
D03*
X153937Y92520D02*
D03*
Y78347D02*
D03*
X163779Y92520D02*
D03*
Y78347D02*
D03*
X173622Y92520D02*
D03*
X183465D02*
D03*
Y78347D02*
D03*
X193307Y92520D02*
D03*
Y78347D02*
D03*
X203150Y92520D02*
D03*
X212992Y78347D02*
D03*
Y92520D02*
D03*
X222835Y78347D02*
D03*
Y92520D02*
D03*
X232677Y78347D02*
D03*
Y92520D02*
D03*
X242520Y78347D02*
D03*
Y92520D02*
D03*
X238858Y109843D02*
D03*
X252362Y78347D02*
D03*
Y92520D02*
D03*
X251181Y109843D02*
D03*
X274409Y78347D02*
D03*
Y92520D02*
D03*
Y109843D02*
D03*
X284252Y78347D02*
D03*
Y92520D02*
D03*
X285433Y109843D02*
D03*
X294094Y78347D02*
D03*
Y92520D02*
D03*
X303937D02*
D03*
X297756Y109843D02*
D03*
X313779Y78347D02*
D03*
Y92520D02*
D03*
X310079Y109843D02*
D03*
X323622Y78347D02*
D03*
Y92520D02*
D03*
X322402Y109843D02*
D03*
X333465Y78347D02*
D03*
Y92520D02*
D03*
X343307Y78347D02*
D03*
Y92520D02*
D03*
Y109843D02*
D03*
X354331Y78347D02*
D03*
Y92520D02*
D03*
Y109843D02*
D03*
X377559Y78347D02*
D03*
Y92520D02*
D03*
Y109843D02*
D03*
X387402Y78347D02*
D03*
Y92520D02*
D03*
Y109843D02*
D03*
X397244Y92520D02*
D03*
X407087Y78347D02*
D03*
Y92520D02*
D03*
Y109843D02*
D03*
X416929Y78347D02*
D03*
Y92520D02*
D03*
X426772Y78347D02*
D03*
Y92520D02*
D03*
X416929Y109843D02*
D03*
X426772D02*
D03*
X216850D02*
D03*
X204528D02*
D03*
X192205D02*
D03*
X179882D02*
D03*
X167559D02*
D03*
X155236D02*
D03*
X142913D02*
D03*
X397244D02*
D03*
D64*
X173622Y56890D02*
D03*
X397244D02*
D03*
X135256Y484803D02*
D03*
X44272D02*
D03*
X19879Y279921D02*
D03*
X586614Y20079D02*
D03*
Y605905D02*
D03*
X19685D02*
D03*
Y20079D02*
D03*
D65*
X405413Y426437D02*
D03*
Y439094D02*
D03*
X395571D02*
D03*
Y426437D02*
D03*
D66*
X296919Y223002D02*
D03*
X335531Y248819D02*
D03*
X303012Y217224D02*
D03*
X281693Y216634D02*
D03*
X303199Y243258D02*
D03*
X469488Y396850D02*
D03*
X512402D02*
D03*
X370768Y382677D02*
D03*
X413583Y396850D02*
D03*
X365302D02*
D03*
X200374Y437323D02*
D03*
X200669Y423346D02*
D03*
X199488Y418327D02*
D03*
X196043Y420394D02*
D03*
X452067Y415748D02*
D03*
X455610D02*
D03*
X440551D02*
D03*
X445571D02*
D03*
X447756Y441043D02*
D03*
X286122Y558287D02*
D03*
X313583Y536339D02*
D03*
X330906D02*
D03*
X322146D02*
D03*
X292323Y538976D02*
D03*
X308957Y536339D02*
D03*
X342339Y539012D02*
D03*
D67*
X114764Y435433D02*
D03*
X104764D02*
D03*
X94764D02*
D03*
X84764D02*
D03*
X74764D02*
D03*
D68*
X64764D02*
D03*
D69*
X342126Y490551D02*
D03*
X332126D02*
D03*
X322126D02*
D03*
X312126D02*
D03*
X302126D02*
D03*
X181142Y580472D02*
D03*
X191142D02*
D03*
X181142Y570472D02*
D03*
X191142D02*
D03*
X181142Y560472D02*
D03*
X191142D02*
D03*
X181142Y550472D02*
D03*
X191142D02*
D03*
X181142Y540472D02*
D03*
X191142D02*
D03*
X181142Y530472D02*
D03*
X191142D02*
D03*
X181142Y520472D02*
D03*
X191142D02*
D03*
X181142Y510472D02*
D03*
X191142D02*
D03*
X181142Y500472D02*
D03*
X191142D02*
D03*
X181142Y490472D02*
D03*
X191142D02*
D03*
X181142Y480472D02*
D03*
X191142D02*
D03*
X181142Y470472D02*
D03*
D70*
X292126Y490551D02*
D03*
D71*
X191142Y470472D02*
D03*
M02*
