G75*
G70*
%OFA0B0*%
%FSLAX25Y25*%
%IPPOS*%
%LPD*%
%AMOC8*
5,1,8,0,0,1.08239X$1,22.5*
%
%AMM100*
21,1,0.041340,0.026770,0.000000,0.000000,180.000000*
21,1,0.029130,0.038980,0.000000,0.000000,180.000000*
1,1,0.012210,-0.014570,0.013390*
1,1,0.012210,0.014570,0.013390*
1,1,0.012210,0.014570,-0.013390*
1,1,0.012210,-0.014570,-0.013390*
%
%AMM109*
21,1,0.111810,0.050390,0.000000,0.000000,0.000000*
21,1,0.093700,0.068500,0.000000,0.000000,0.000000*
1,1,0.018110,0.046850,-0.025200*
1,1,0.018110,-0.046850,-0.025200*
1,1,0.018110,-0.046850,0.025200*
1,1,0.018110,0.046850,0.025200*
%
%AMM110*
21,1,0.080320,0.083460,0.000000,0.000000,180.000000*
21,1,0.059840,0.103940,0.000000,0.000000,180.000000*
1,1,0.020470,-0.029920,0.041730*
1,1,0.020470,0.029920,0.041730*
1,1,0.020470,0.029920,-0.041730*
1,1,0.020470,-0.029920,-0.041730*
%
%AMM111*
21,1,0.127560,0.075590,0.000000,0.000000,270.000000*
21,1,0.103150,0.100000,0.000000,0.000000,270.000000*
1,1,0.024410,-0.037800,-0.051580*
1,1,0.024410,-0.037800,0.051580*
1,1,0.024410,0.037800,0.051580*
1,1,0.024410,0.037800,-0.051580*
%
%AMM112*
21,1,0.084250,0.053540,0.000000,0.000000,180.000000*
21,1,0.065350,0.072440,0.000000,0.000000,180.000000*
1,1,0.018900,-0.032680,0.026770*
1,1,0.018900,0.032680,0.026770*
1,1,0.018900,0.032680,-0.026770*
1,1,0.018900,-0.032680,-0.026770*
%
%AMM113*
21,1,0.076380,0.036220,0.000000,0.000000,180.000000*
21,1,0.061810,0.050790,0.000000,0.000000,180.000000*
1,1,0.014570,-0.030910,0.018110*
1,1,0.014570,0.030910,0.018110*
1,1,0.014570,0.030910,-0.018110*
1,1,0.014570,-0.030910,-0.018110*
%
%AMM114*
21,1,0.092130,0.073230,0.000000,0.000000,90.000000*
21,1,0.069290,0.096060,0.000000,0.000000,90.000000*
1,1,0.022840,0.036610,0.034650*
1,1,0.022840,0.036610,-0.034650*
1,1,0.022840,-0.036610,-0.034650*
1,1,0.022840,-0.036610,0.034650*
%
%AMM117*
21,1,0.084250,0.045670,0.000000,0.000000,270.000000*
21,1,0.067320,0.062600,0.000000,0.000000,270.000000*
1,1,0.016930,-0.022840,-0.033660*
1,1,0.016930,-0.022840,0.033660*
1,1,0.016930,0.022840,0.033660*
1,1,0.016930,0.022840,-0.033660*
%
%AMM118*
21,1,0.064570,0.020470,0.000000,0.000000,270.000000*
21,1,0.053940,0.031100,0.000000,0.000000,270.000000*
1,1,0.010630,-0.010240,-0.026970*
1,1,0.010630,-0.010240,0.026970*
1,1,0.010630,0.010240,0.026970*
1,1,0.010630,0.010240,-0.026970*
%
%AMM125*
21,1,0.100000,0.111020,0.000000,0.000000,180.000000*
21,1,0.075590,0.135430,0.000000,0.000000,180.000000*
1,1,0.024410,-0.037800,0.055510*
1,1,0.024410,0.037800,0.055510*
1,1,0.024410,0.037800,-0.055510*
1,1,0.024410,-0.037800,-0.055510*
%
%AMM126*
21,1,0.041340,0.026770,0.000000,0.000000,0.000000*
21,1,0.029130,0.038980,0.000000,0.000000,0.000000*
1,1,0.012210,0.014570,-0.013390*
1,1,0.012210,-0.014570,-0.013390*
1,1,0.012210,-0.014570,0.013390*
1,1,0.012210,0.014570,0.013390*
%
%AMM127*
21,1,0.040950,0.030320,0.000000,0.000000,0.000000*
21,1,0.028350,0.042910,0.000000,0.000000,0.000000*
1,1,0.012600,0.014170,-0.015160*
1,1,0.012600,-0.014170,-0.015160*
1,1,0.012600,-0.014170,0.015160*
1,1,0.012600,0.014170,0.015160*
%
%AMM128*
21,1,0.084250,0.070870,0.000000,0.000000,270.000000*
21,1,0.062990,0.092130,0.000000,0.000000,270.000000*
1,1,0.021260,-0.035430,-0.031500*
1,1,0.021260,-0.035430,0.031500*
1,1,0.021260,0.035430,0.031500*
1,1,0.021260,0.035430,-0.031500*
%
%AMM129*
21,1,0.056690,0.068500,0.000000,0.000000,180.000000*
21,1,0.040950,0.084250,0.000000,0.000000,180.000000*
1,1,0.015750,-0.020470,0.034250*
1,1,0.015750,0.020470,0.034250*
1,1,0.015750,0.020470,-0.034250*
1,1,0.015750,-0.020470,-0.034250*
%
%AMM130*
21,1,0.041340,0.026770,0.000000,0.000000,90.000000*
21,1,0.029130,0.038980,0.000000,0.000000,90.000000*
1,1,0.012210,0.013390,0.014570*
1,1,0.012210,0.013390,-0.014570*
1,1,0.012210,-0.013390,-0.014570*
1,1,0.012210,-0.013390,0.014570*
%
%AMM132*
21,1,0.027170,0.052760,0.000000,0.000000,270.000000*
21,1,0.017320,0.062600,0.000000,0.000000,270.000000*
1,1,0.009840,-0.026380,-0.008660*
1,1,0.009840,-0.026380,0.008660*
1,1,0.009840,0.026380,0.008660*
1,1,0.009840,0.026380,-0.008660*
%
%AMM140*
21,1,0.076380,0.036220,0.000000,0.000000,270.000000*
21,1,0.061810,0.050790,0.000000,0.000000,270.000000*
1,1,0.014570,-0.018110,-0.030910*
1,1,0.014570,-0.018110,0.030910*
1,1,0.014570,0.018110,0.030910*
1,1,0.014570,0.018110,-0.030910*
%
%AMM141*
21,1,0.040950,0.030320,0.000000,0.000000,90.000000*
21,1,0.028350,0.042910,0.000000,0.000000,90.000000*
1,1,0.012600,0.015160,0.014170*
1,1,0.012600,0.015160,-0.014170*
1,1,0.012600,-0.015160,-0.014170*
1,1,0.012600,-0.015160,0.014170*
%
%AMM142*
21,1,0.048820,0.075980,0.000000,0.000000,180.000000*
21,1,0.034650,0.090160,0.000000,0.000000,180.000000*
1,1,0.014170,-0.017320,0.037990*
1,1,0.014170,0.017320,0.037990*
1,1,0.014170,0.017320,-0.037990*
1,1,0.014170,-0.017320,-0.037990*
%
%AMM143*
21,1,0.048820,0.075990,0.000000,0.000000,180.000000*
21,1,0.034650,0.090160,0.000000,0.000000,180.000000*
1,1,0.014170,-0.017320,0.037990*
1,1,0.014170,0.017320,0.037990*
1,1,0.014170,0.017320,-0.037990*
1,1,0.014170,-0.017320,-0.037990*
%
%AMM144*
21,1,0.143310,0.067720,0.000000,0.000000,180.000000*
21,1,0.120870,0.090160,0.000000,0.000000,180.000000*
1,1,0.022440,-0.060430,0.033860*
1,1,0.022440,0.060430,0.033860*
1,1,0.022440,0.060430,-0.033860*
1,1,0.022440,-0.060430,-0.033860*
%
%AMM145*
21,1,0.031100,0.026380,0.000000,0.000000,90.000000*
21,1,0.020470,0.037010,0.000000,0.000000,90.000000*
1,1,0.010630,0.013190,0.010240*
1,1,0.010630,0.013190,-0.010240*
1,1,0.010630,-0.013190,-0.010240*
1,1,0.010630,-0.013190,0.010240*
%
%AMM146*
21,1,0.023230,0.027950,0.000000,0.000000,90.000000*
21,1,0.014170,0.037010,0.000000,0.000000,90.000000*
1,1,0.009060,0.013980,0.007090*
1,1,0.009060,0.013980,-0.007090*
1,1,0.009060,-0.013980,-0.007090*
1,1,0.009060,-0.013980,0.007090*
%
%AMM45*
21,1,0.048820,0.075980,0.000000,0.000000,0.000000*
21,1,0.034650,0.090160,0.000000,0.000000,0.000000*
1,1,0.014170,0.017320,-0.037990*
1,1,0.014170,-0.017320,-0.037990*
1,1,0.014170,-0.017320,0.037990*
1,1,0.014170,0.017320,0.037990*
%
%AMM46*
21,1,0.048820,0.075990,0.000000,0.000000,0.000000*
21,1,0.034650,0.090160,0.000000,0.000000,0.000000*
1,1,0.014170,0.017320,-0.037990*
1,1,0.014170,-0.017320,-0.037990*
1,1,0.014170,-0.017320,0.037990*
1,1,0.014170,0.017320,0.037990*
%
%AMM47*
21,1,0.143310,0.067720,0.000000,0.000000,0.000000*
21,1,0.120870,0.090160,0.000000,0.000000,0.000000*
1,1,0.022440,0.060430,-0.033860*
1,1,0.022440,-0.060430,-0.033860*
1,1,0.022440,-0.060430,0.033860*
1,1,0.022440,0.060430,0.033860*
%
%AMM48*
21,1,0.031100,0.026380,0.000000,0.000000,0.000000*
21,1,0.020470,0.037010,0.000000,0.000000,0.000000*
1,1,0.010630,0.010240,-0.013190*
1,1,0.010630,-0.010240,-0.013190*
1,1,0.010630,-0.010240,0.013190*
1,1,0.010630,0.010240,0.013190*
%
%AMM49*
21,1,0.023230,0.027950,0.000000,0.000000,0.000000*
21,1,0.014170,0.037010,0.000000,0.000000,0.000000*
1,1,0.009060,0.007090,-0.013980*
1,1,0.009060,-0.007090,-0.013980*
1,1,0.009060,-0.007090,0.013980*
1,1,0.009060,0.007090,0.013980*
%
%AMM50*
21,1,0.029130,0.018900,0.000000,0.000000,270.000000*
21,1,0.018900,0.029130,0.000000,0.000000,270.000000*
1,1,0.010240,-0.009450,-0.009450*
1,1,0.010240,-0.009450,0.009450*
1,1,0.010240,0.009450,0.009450*
1,1,0.010240,0.009450,-0.009450*
%
%AMM51*
21,1,0.044880,0.049210,0.000000,0.000000,0.000000*
21,1,0.031500,0.062600,0.000000,0.000000,0.000000*
1,1,0.013390,0.015750,-0.024610*
1,1,0.013390,-0.015750,-0.024610*
1,1,0.013390,-0.015750,0.024610*
1,1,0.013390,0.015750,0.024610*
%
%AMM52*
21,1,0.044880,0.035430,0.000000,0.000000,270.000000*
21,1,0.031500,0.048820,0.000000,0.000000,270.000000*
1,1,0.013390,-0.017720,-0.015750*
1,1,0.013390,-0.017720,0.015750*
1,1,0.013390,0.017720,0.015750*
1,1,0.013390,0.017720,-0.015750*
%
%AMM53*
21,1,0.029130,0.018900,0.000000,0.000000,180.000000*
21,1,0.018900,0.029130,0.000000,0.000000,180.000000*
1,1,0.010240,-0.009450,0.009450*
1,1,0.010240,0.009450,0.009450*
1,1,0.010240,0.009450,-0.009450*
1,1,0.010240,-0.009450,-0.009450*
%
%AMM54*
21,1,0.033070,0.030710,0.000000,0.000000,180.000000*
21,1,0.022050,0.041730,0.000000,0.000000,180.000000*
1,1,0.011020,-0.011020,0.015350*
1,1,0.011020,0.011020,0.015350*
1,1,0.011020,0.011020,-0.015350*
1,1,0.011020,-0.011020,-0.015350*
%
%AMM55*
21,1,0.015350,0.017720,0.000000,0.000000,180.000000*
21,1,0.000000,0.033070,0.000000,0.000000,180.000000*
1,1,0.015350,0.000000,0.008860*
1,1,0.015350,0.000000,0.008860*
1,1,0.015350,0.000000,-0.008860*
1,1,0.015350,0.000000,-0.008860*
%
%AMM56*
21,1,0.038980,0.026770,0.000000,0.000000,0.000000*
21,1,0.026770,0.038980,0.000000,0.000000,0.000000*
1,1,0.012210,0.013390,-0.013390*
1,1,0.012210,-0.013390,-0.013390*
1,1,0.012210,-0.013390,0.013390*
1,1,0.012210,0.013390,0.013390*
%
%AMM57*
21,1,0.033070,0.030710,0.000000,0.000000,270.000000*
21,1,0.022050,0.041730,0.000000,0.000000,270.000000*
1,1,0.011020,-0.015350,-0.011020*
1,1,0.011020,-0.015350,0.011020*
1,1,0.011020,0.015350,0.011020*
1,1,0.011020,0.015350,-0.011020*
%
%AMM58*
21,1,0.037010,0.072440,0.000000,0.000000,0.000000*
21,1,0.025200,0.084250,0.000000,0.000000,0.000000*
1,1,0.011810,0.012600,-0.036220*
1,1,0.011810,-0.012600,-0.036220*
1,1,0.011810,-0.012600,0.036220*
1,1,0.011810,0.012600,0.036220*
%
%AMM59*
21,1,0.056690,0.048820,0.000000,0.000000,0.000000*
21,1,0.040950,0.064570,0.000000,0.000000,0.000000*
1,1,0.015750,0.020470,-0.024410*
1,1,0.015750,-0.020470,-0.024410*
1,1,0.015750,-0.020470,0.024410*
1,1,0.015750,0.020470,0.024410*
%
%AMM60*
21,1,0.044880,0.049210,0.000000,0.000000,90.000000*
21,1,0.031500,0.062600,0.000000,0.000000,90.000000*
1,1,0.013390,0.024610,0.015750*
1,1,0.013390,0.024610,-0.015750*
1,1,0.013390,-0.024610,-0.015750*
1,1,0.013390,-0.024610,0.015750*
%
%AMM61*
21,1,0.031100,0.026380,0.000000,0.000000,270.000000*
21,1,0.020470,0.037010,0.000000,0.000000,270.000000*
1,1,0.010630,-0.013190,-0.010240*
1,1,0.010630,-0.013190,0.010240*
1,1,0.010630,0.013190,0.010240*
1,1,0.010630,0.013190,-0.010240*
%
%AMM62*
21,1,0.023230,0.027950,0.000000,0.000000,270.000000*
21,1,0.014170,0.037010,0.000000,0.000000,270.000000*
1,1,0.009060,-0.013980,-0.007090*
1,1,0.009060,-0.013980,0.007090*
1,1,0.009060,0.013980,0.007090*
1,1,0.009060,0.013980,-0.007090*
%
%AMM63*
21,1,0.038980,0.026770,0.000000,0.000000,90.000000*
21,1,0.026770,0.038980,0.000000,0.000000,90.000000*
1,1,0.012210,0.013390,0.013390*
1,1,0.012210,0.013390,-0.013390*
1,1,0.012210,-0.013390,-0.013390*
1,1,0.012210,-0.013390,0.013390*
%
%AMM79*
21,1,0.040950,0.050000,0.000000,0.000000,270.000000*
21,1,0.028350,0.062600,0.000000,0.000000,270.000000*
1,1,0.012600,-0.025000,-0.014170*
1,1,0.012600,-0.025000,0.014170*
1,1,0.012600,0.025000,0.014170*
1,1,0.012600,0.025000,-0.014170*
%
%AMM80*
21,1,0.092130,0.073230,0.000000,0.000000,270.000000*
21,1,0.069290,0.096060,0.000000,0.000000,270.000000*
1,1,0.022840,-0.036610,-0.034650*
1,1,0.022840,-0.036610,0.034650*
1,1,0.022840,0.036610,0.034650*
1,1,0.022840,0.036610,-0.034650*
%
%AMM81*
21,1,0.033070,0.030710,0.000000,0.000000,90.000000*
21,1,0.022050,0.041730,0.000000,0.000000,90.000000*
1,1,0.011020,0.015350,0.011020*
1,1,0.011020,0.015350,-0.011020*
1,1,0.011020,-0.015350,-0.011020*
1,1,0.011020,-0.015350,0.011020*
%
%AMM82*
21,1,0.044880,0.049210,0.000000,0.000000,180.000000*
21,1,0.031500,0.062600,0.000000,0.000000,180.000000*
1,1,0.013390,-0.015750,0.024610*
1,1,0.013390,0.015750,0.024610*
1,1,0.013390,0.015750,-0.024610*
1,1,0.013390,-0.015750,-0.024610*
%
%AMM83*
21,1,0.029130,0.030710,0.000000,0.000000,90.000000*
21,1,0.018900,0.040950,0.000000,0.000000,90.000000*
1,1,0.010240,0.015350,0.009450*
1,1,0.010240,0.015350,-0.009450*
1,1,0.010240,-0.015350,-0.009450*
1,1,0.010240,-0.015350,0.009450*
%
%AMM84*
21,1,0.038980,0.026770,0.000000,0.000000,270.000000*
21,1,0.026770,0.038980,0.000000,0.000000,270.000000*
1,1,0.012210,-0.013390,-0.013390*
1,1,0.012210,-0.013390,0.013390*
1,1,0.012210,0.013390,0.013390*
1,1,0.012210,0.013390,-0.013390*
%
%AMM85*
21,1,0.033070,0.030710,0.000000,0.000000,0.000000*
21,1,0.022050,0.041730,0.000000,0.000000,0.000000*
1,1,0.011020,0.011020,-0.015350*
1,1,0.011020,-0.011020,-0.015350*
1,1,0.011020,-0.011020,0.015350*
1,1,0.011020,0.011020,0.015350*
%
%AMM86*
21,1,0.038980,0.026770,0.000000,0.000000,180.000000*
21,1,0.026770,0.038980,0.000000,0.000000,180.000000*
1,1,0.012210,-0.013390,0.013390*
1,1,0.012210,0.013390,0.013390*
1,1,0.012210,0.013390,-0.013390*
1,1,0.012210,-0.013390,-0.013390*
%
%AMM94*
21,1,0.033070,0.018900,0.000000,0.000000,180.000000*
21,1,0.022840,0.029130,0.000000,0.000000,180.000000*
1,1,0.010240,-0.011420,0.009450*
1,1,0.010240,0.011420,0.009450*
1,1,0.010240,0.011420,-0.009450*
1,1,0.010240,-0.011420,-0.009450*
%
%AMM95*
21,1,0.040950,0.030320,0.000000,0.000000,270.000000*
21,1,0.028350,0.042910,0.000000,0.000000,270.000000*
1,1,0.012600,-0.015160,-0.014170*
1,1,0.012600,-0.015160,0.014170*
1,1,0.012600,0.015160,0.014170*
1,1,0.012600,0.015160,-0.014170*
%
%AMM96*
21,1,0.029130,0.030710,0.000000,0.000000,180.000000*
21,1,0.018900,0.040950,0.000000,0.000000,180.000000*
1,1,0.010240,-0.009450,0.015350*
1,1,0.010240,0.009450,0.015350*
1,1,0.010240,0.009450,-0.015350*
1,1,0.010240,-0.009450,-0.015350*
%
%AMM97*
21,1,0.041340,0.026770,0.000000,0.000000,270.000000*
21,1,0.029130,0.038980,0.000000,0.000000,270.000000*
1,1,0.012210,-0.013390,-0.014570*
1,1,0.012210,-0.013390,0.014570*
1,1,0.012210,0.013390,0.014570*
1,1,0.012210,0.013390,-0.014570*
%
%AMM98*
21,1,0.040950,0.030320,0.000000,0.000000,180.000000*
21,1,0.028350,0.042910,0.000000,0.000000,180.000000*
1,1,0.012600,-0.014170,0.015160*
1,1,0.012600,0.014170,0.015160*
1,1,0.012600,0.014170,-0.015160*
1,1,0.012600,-0.014170,-0.015160*
%
%AMM99*
21,1,0.033070,0.049610,0.000000,0.000000,270.000000*
21,1,0.022050,0.060630,0.000000,0.000000,270.000000*
1,1,0.011020,-0.024800,-0.011020*
1,1,0.011020,-0.024800,0.011020*
1,1,0.011020,0.024800,0.011020*
1,1,0.011020,0.024800,-0.011020*
%
%ADD10M54*%
%ADD100M125*%
%ADD103M95*%
%ADD104M117*%
%ADD105M48*%
%ADD109O,0.01417X0.05669*%
%ADD111C,0.03651*%
%ADD112C,0.04451*%
%ADD12M81*%
%ADD121M45*%
%ADD124M52*%
%ADD132R,0.12756X0.01535*%
%ADD133O,0.04567X0.11772*%
%ADD135M82*%
%ADD145R,0.10394X0.10394*%
%ADD147O,0.01535X0.02520*%
%ADD150M128*%
%ADD151M130*%
%ADD154M114*%
%ADD155R,0.04291X0.01535*%
%ADD159R,0.06457X0.06457*%
%ADD16M61*%
%ADD165O,0.03701X0.02913*%
%ADD168M146*%
%ADD17M111*%
%ADD174M98*%
%ADD175M141*%
%ADD176O,0.02913X0.09213*%
%ADD18M55*%
%ADD181M58*%
%ADD186M127*%
%ADD193C,0.04286*%
%ADD197M63*%
%ADD201M50*%
%ADD204C,0.00551*%
%ADD209M110*%
%ADD210O,0.09213X0.02913*%
%ADD211M83*%
%ADD215M99*%
%ADD220M84*%
%ADD221C,0.03701*%
%ADD222C,0.06951*%
%ADD225M132*%
%ADD226M86*%
%ADD228M113*%
%ADD23M112*%
%ADD230M143*%
%ADD231O,0.05669X0.01417*%
%ADD234M46*%
%ADD240M140*%
%ADD244R,0.07244X0.10000*%
%ADD246M144*%
%ADD247R,0.20433X0.01535*%
%ADD248O,0.04488X0.02520*%
%ADD25M100*%
%ADD253O,0.05512X0.01535*%
%ADD258M79*%
%ADD260M96*%
%ADD264M53*%
%ADD265M126*%
%ADD270O,0.06457X0.10000*%
%ADD274M85*%
%ADD277O,0.09213X0.02520*%
%ADD278O,0.02520X0.01535*%
%ADD284M59*%
%ADD286M145*%
%ADD287M56*%
%ADD288R,0.12165X0.01535*%
%ADD290M62*%
%ADD298O,0.07441X0.10394*%
%ADD301C,0.03486*%
%ADD306M109*%
%ADD307M51*%
%ADD310M60*%
%ADD312M118*%
%ADD318C,0.12362*%
%ADD326M47*%
%ADD329M142*%
%ADD33C,0.16299*%
%ADD331R,0.06457X0.05669*%
%ADD332M57*%
%ADD333R,0.09409X0.01535*%
%ADD35O,0.02520X0.04488*%
%ADD37M94*%
%ADD41C,0.06693*%
%ADD49O,0.01339X0.02520*%
%ADD50R,0.06693X0.06693*%
%ADD52M80*%
%ADD57R,0.01535X1.55079*%
%ADD58O,0.01339X0.02126*%
%ADD62O,0.04882X0.01732*%
%ADD68M49*%
%ADD71M129*%
%ADD72R,0.01535X0.01929*%
%ADD74C,0.06551*%
%ADD81R,0.01929X0.01535*%
%ADD82C,0.06457*%
%ADD87O,0.04488X0.06457*%
%ADD91M97*%
%ADD94C,0.03307*%
%ADD95C,0.02913*%
%ADD99O,0.01339X0.03307*%
X0000000Y0000000D02*
G01*
G75*
G36*
X0169961Y0463695D02*
X0169819Y0463695D01*
X0169819Y0466398D01*
X0169961Y0466398D01*
X0169961Y0463695D01*
D02*
G37*
G36*
X0169961Y0467025D02*
X0169722Y0467025D01*
X0169722Y0468366D01*
X0169961Y0468366D01*
X0169961Y0467025D01*
D02*
G37*
G36*
X0169961Y0470329D02*
X0169772Y0470329D01*
X0169772Y0470335D01*
X0169961Y0470335D01*
X0169961Y0470329D01*
D02*
G37*
D121*
X0362008Y0256594D02*
D03*
X0380118Y0256594D02*
D03*
X0355807Y0217618D02*
D03*
X0373917Y0217618D02*
D03*
D234*
X0371063Y0256594D02*
D03*
X0364862Y0217618D02*
D03*
D326*
X0371063Y0281004D02*
D03*
X0364862Y0242028D02*
D03*
D105*
X0491634Y0177362D02*
D03*
X0491634Y0184449D02*
D03*
X0501673Y0184449D02*
D03*
X0501673Y0177362D02*
D03*
X0092714Y0286164D02*
D03*
X0092714Y0279078D02*
D03*
X0082675Y0279078D02*
D03*
X0082675Y0286164D02*
D03*
X0124407Y0286164D02*
D03*
X0124407Y0279078D02*
D03*
X0134447Y0279078D02*
D03*
X0134447Y0286164D02*
D03*
X0408957Y0177264D02*
D03*
X0408957Y0184350D02*
D03*
X0398917Y0184350D02*
D03*
X0398917Y0177264D02*
D03*
X0449114Y0177953D02*
D03*
X0449114Y0185039D02*
D03*
X0439075Y0185039D02*
D03*
X0439075Y0177953D02*
D03*
X0358268Y0178740D02*
D03*
X0358268Y0185827D02*
D03*
X0348228Y0185827D02*
D03*
X0348228Y0178740D02*
D03*
X0568504Y0178543D02*
D03*
X0568504Y0185630D02*
D03*
X0558465Y0185630D02*
D03*
X0558465Y0178543D02*
D03*
X0575591Y0178347D02*
D03*
X0575591Y0185433D02*
D03*
X0585630Y0185433D02*
D03*
X0585630Y0178347D02*
D03*
X0300394Y0169488D02*
D03*
X0300394Y0162402D02*
D03*
X0290354Y0162402D02*
D03*
X0290354Y0169488D02*
D03*
D68*
X0495079Y0177362D02*
D03*
X0498228Y0177362D02*
D03*
X0498228Y0184449D02*
D03*
X0495079Y0184449D02*
D03*
X0089269Y0286164D02*
D03*
X0086120Y0286164D02*
D03*
X0086120Y0279078D02*
D03*
X0089269Y0279078D02*
D03*
X0131002Y0279078D02*
D03*
X0127852Y0279078D02*
D03*
X0127852Y0286164D02*
D03*
X0131002Y0286164D02*
D03*
X0402362Y0184350D02*
D03*
X0405512Y0184350D02*
D03*
X0405512Y0177264D02*
D03*
X0402362Y0177264D02*
D03*
X0442520Y0185039D02*
D03*
X0445669Y0185039D02*
D03*
X0445669Y0177953D02*
D03*
X0442520Y0177953D02*
D03*
X0351673Y0185827D02*
D03*
X0354823Y0185827D02*
D03*
X0354823Y0178740D02*
D03*
X0351673Y0178740D02*
D03*
X0561909Y0185630D02*
D03*
X0565059Y0185630D02*
D03*
X0565059Y0178543D02*
D03*
X0561909Y0178543D02*
D03*
X0579035Y0178347D02*
D03*
X0582185Y0178347D02*
D03*
X0582185Y0185433D02*
D03*
X0579035Y0185433D02*
D03*
X0296949Y0169488D02*
D03*
X0293799Y0169488D02*
D03*
X0293799Y0162402D02*
D03*
X0296949Y0162402D02*
D03*
D201*
X0550787Y0385827D02*
D03*
X0559449Y0385827D02*
D03*
X0285827Y0180216D02*
D03*
X0277165Y0180216D02*
D03*
X0259842Y0180216D02*
D03*
X0251181Y0180216D02*
D03*
X0272835Y0180216D02*
D03*
X0264173Y0180216D02*
D03*
D307*
X0331201Y0416929D02*
D03*
X0323721Y0416929D02*
D03*
X0331201Y0410138D02*
D03*
X0323721Y0410138D02*
D03*
D124*
X0588583Y0155905D02*
D03*
X0588583Y0149213D02*
D03*
X0278543Y0163386D02*
D03*
X0278543Y0170079D02*
D03*
X0071061Y0311854D02*
D03*
X0071061Y0318546D02*
D03*
X0081691Y0311854D02*
D03*
X0081691Y0318546D02*
D03*
X0092321Y0311854D02*
D03*
X0092321Y0318546D02*
D03*
X0102950Y0311854D02*
D03*
X0102950Y0318546D02*
D03*
X0113580Y0311854D02*
D03*
X0113580Y0318546D02*
D03*
X0124210Y0311854D02*
D03*
X0124210Y0318546D02*
D03*
X0134840Y0311854D02*
D03*
X0134840Y0318546D02*
D03*
X0145470Y0311854D02*
D03*
X0145470Y0318546D02*
D03*
X0415945Y0149213D02*
D03*
X0415945Y0155905D02*
D03*
X0405315Y0149213D02*
D03*
X0405315Y0155905D02*
D03*
X0394685Y0149213D02*
D03*
X0394685Y0155905D02*
D03*
X0384055Y0149213D02*
D03*
X0384055Y0155905D02*
D03*
X0348327Y0149213D02*
D03*
X0348327Y0155905D02*
D03*
X0424803Y0149213D02*
D03*
X0424803Y0155905D02*
D03*
X0358957Y0149213D02*
D03*
X0358957Y0155905D02*
D03*
X0435433Y0149213D02*
D03*
X0435433Y0155905D02*
D03*
X0456693Y0149213D02*
D03*
X0456693Y0155905D02*
D03*
X0446063Y0149213D02*
D03*
X0446063Y0155905D02*
D03*
X0337697Y0149213D02*
D03*
X0337697Y0155905D02*
D03*
X0369587Y0149213D02*
D03*
X0369587Y0155905D02*
D03*
X0552165Y0155905D02*
D03*
X0552165Y0149213D02*
D03*
X0541536Y0155905D02*
D03*
X0541536Y0149213D02*
D03*
X0530906Y0155905D02*
D03*
X0530906Y0149213D02*
D03*
X0520276Y0155905D02*
D03*
X0520276Y0149213D02*
D03*
X0475787Y0155905D02*
D03*
X0475787Y0149213D02*
D03*
X0486417Y0155905D02*
D03*
X0486417Y0149213D02*
D03*
X0497047Y0155905D02*
D03*
X0497047Y0149213D02*
D03*
X0507677Y0155905D02*
D03*
X0507677Y0149213D02*
D03*
X0565551Y0155905D02*
D03*
X0565551Y0149213D02*
D03*
X0307677Y0155905D02*
D03*
X0307677Y0149213D02*
D03*
X0576958Y0155905D02*
D03*
X0576958Y0149213D02*
D03*
X0318307Y0155905D02*
D03*
X0318307Y0149213D02*
D03*
X0328937Y0155905D02*
D03*
X0328937Y0149213D02*
D03*
X0258465Y0163386D02*
D03*
X0258465Y0170079D02*
D03*
X0268701Y0163386D02*
D03*
X0268701Y0170079D02*
D03*
D264*
X0217421Y0414862D02*
D03*
X0217421Y0423524D02*
D03*
X0224016Y0414862D02*
D03*
X0224016Y0423524D02*
D03*
X0454528Y0172441D02*
D03*
X0454528Y0163779D02*
D03*
X0348524Y0172835D02*
D03*
X0348524Y0164173D02*
D03*
X0435630Y0172441D02*
D03*
X0435630Y0163779D02*
D03*
X0405118Y0172441D02*
D03*
X0405118Y0163779D02*
D03*
X0415748Y0172441D02*
D03*
X0415748Y0163779D02*
D03*
X0394882Y0172441D02*
D03*
X0394882Y0163779D02*
D03*
X0424606Y0172441D02*
D03*
X0424606Y0163779D02*
D03*
X0368701Y0172933D02*
D03*
X0368701Y0164272D02*
D03*
X0358760Y0172835D02*
D03*
X0358760Y0164173D02*
D03*
X0337894Y0172835D02*
D03*
X0337894Y0164173D02*
D03*
X0385827Y0172933D02*
D03*
X0385827Y0164272D02*
D03*
X0446260Y0172441D02*
D03*
X0446260Y0163779D02*
D03*
X0552362Y0163779D02*
D03*
X0552362Y0172441D02*
D03*
X0541339Y0163779D02*
D03*
X0541339Y0172441D02*
D03*
X0530709Y0163779D02*
D03*
X0530709Y0172441D02*
D03*
X0520079Y0163779D02*
D03*
X0520079Y0172441D02*
D03*
X0476378Y0163386D02*
D03*
X0476378Y0172047D02*
D03*
X0486221Y0163779D02*
D03*
X0486221Y0172441D02*
D03*
X0496850Y0163779D02*
D03*
X0496850Y0172441D02*
D03*
X0507480Y0163779D02*
D03*
X0507480Y0172441D02*
D03*
X0566437Y0162992D02*
D03*
X0566437Y0171653D02*
D03*
X0307480Y0164173D02*
D03*
X0307480Y0172835D02*
D03*
X0576772Y0163779D02*
D03*
X0576772Y0172441D02*
D03*
X0318110Y0163779D02*
D03*
X0318110Y0172441D02*
D03*
X0588386Y0163779D02*
D03*
X0588386Y0172441D02*
D03*
X0328740Y0163976D02*
D03*
X0328740Y0172638D02*
D03*
D10*
X0204134Y0405709D02*
D03*
X0197835Y0405709D02*
D03*
D155*
X0531988Y0227756D02*
D03*
D57*
X0530610Y0304528D02*
D03*
X0588681Y0304528D02*
D03*
D333*
X0563484Y0381299D02*
D03*
D132*
X0583071Y0381299D02*
D03*
D247*
X0540059Y0381299D02*
D03*
D288*
X0583366Y0227756D02*
D03*
D318*
X0570472Y0234154D02*
D03*
X0556693Y0234154D02*
D03*
D18*
X0296870Y0257283D02*
D03*
D248*
X0340158Y0231102D02*
D03*
X0516417Y0382973D02*
D03*
X0516417Y0390453D02*
D03*
D49*
X0279035Y0215158D02*
D03*
D331*
X0057382Y0090650D02*
D03*
X0057382Y0083169D02*
D03*
D287*
X0078799Y0083563D02*
D03*
X0072579Y0083563D02*
D03*
X0168268Y0458465D02*
D03*
X0162047Y0458465D02*
D03*
X0061654Y0414764D02*
D03*
X0067874Y0414764D02*
D03*
D278*
X0212480Y0413996D02*
D03*
X0152559Y0179232D02*
D03*
X0152559Y0169783D02*
D03*
X0222736Y0177756D02*
D03*
X0222736Y0174311D02*
D03*
X0222736Y0171555D02*
D03*
D147*
X0171732Y0414193D02*
D03*
X0173701Y0414193D02*
D03*
D35*
X0443504Y0451968D02*
D03*
D99*
X0458347Y0445571D02*
D03*
D147*
X0437972Y0404626D02*
D03*
D87*
X0425301Y0198971D02*
D03*
X0481896Y0198971D02*
D03*
X0486840Y0198971D02*
D03*
D165*
X0389652Y0212736D02*
D03*
D332*
X0520571Y0416240D02*
D03*
X0520571Y0409941D02*
D03*
X0237402Y0176772D02*
D03*
X0237402Y0183071D02*
D03*
D81*
X0162795Y0467618D02*
D03*
X0162795Y0465650D02*
D03*
X0162795Y0469587D02*
D03*
X0162795Y0463681D02*
D03*
X0169095Y0469587D02*
D03*
X0169095Y0467618D02*
D03*
X0169095Y0465650D02*
D03*
X0169095Y0463681D02*
D03*
D72*
X0164961Y0469783D02*
D03*
X0166929Y0469783D02*
D03*
X0166929Y0463484D02*
D03*
X0164961Y0463484D02*
D03*
D58*
X0132776Y0351379D02*
D03*
X0136083Y0351379D02*
D03*
X0129823Y0351379D02*
D03*
X0140709Y0351379D02*
D03*
X0145334Y0351379D02*
D03*
X0148327Y0351379D02*
D03*
X0125197Y0351379D02*
D03*
X0120571Y0351379D02*
D03*
D181*
X0485236Y0457579D02*
D03*
X0468701Y0457579D02*
D03*
X0485039Y0431988D02*
D03*
X0468504Y0431988D02*
D03*
D284*
X0544488Y0469488D02*
D03*
X0537008Y0469488D02*
D03*
X0537008Y0406398D02*
D03*
X0544488Y0406398D02*
D03*
X0544488Y0438268D02*
D03*
X0537008Y0438268D02*
D03*
D33*
X0563189Y0500984D02*
D03*
X0563189Y0406496D02*
D03*
X0563189Y0437992D02*
D03*
X0563189Y0469488D02*
D03*
X0376791Y0437106D02*
D03*
X0424193Y0437106D02*
D03*
D310*
X0258661Y0155315D02*
D03*
X0258661Y0147835D02*
D03*
X0190748Y0155315D02*
D03*
X0190748Y0147835D02*
D03*
X0200591Y0155315D02*
D03*
X0200591Y0147835D02*
D03*
X0291142Y0147835D02*
D03*
X0291142Y0155315D02*
D03*
X0245866Y0147835D02*
D03*
X0245866Y0155315D02*
D03*
X0236024Y0147835D02*
D03*
X0236024Y0155315D02*
D03*
X0223228Y0147835D02*
D03*
X0223228Y0155315D02*
D03*
X0213386Y0147835D02*
D03*
X0213386Y0155315D02*
D03*
X0177953Y0147835D02*
D03*
X0177953Y0155315D02*
D03*
X0278346Y0155315D02*
D03*
X0278346Y0147835D02*
D03*
X0268504Y0155315D02*
D03*
X0268504Y0147835D02*
D03*
D16*
X0290945Y0187894D02*
D03*
X0298031Y0187894D02*
D03*
X0298031Y0177854D02*
D03*
X0290945Y0177854D02*
D03*
X0510433Y0415453D02*
D03*
X0503346Y0415453D02*
D03*
X0503346Y0405413D02*
D03*
X0510433Y0405413D02*
D03*
D290*
X0290945Y0184449D02*
D03*
X0290945Y0181299D02*
D03*
X0298031Y0181299D02*
D03*
X0298031Y0184449D02*
D03*
X0503346Y0408858D02*
D03*
X0503346Y0412008D02*
D03*
X0510433Y0412008D02*
D03*
X0510433Y0408858D02*
D03*
D197*
X0463484Y0458701D02*
D03*
X0463484Y0464921D02*
D03*
X0364728Y0417717D02*
D03*
X0364728Y0423937D02*
D03*
D145*
X0108858Y0038878D02*
D03*
X0064370Y0038878D02*
D03*
X0117323Y0021654D02*
D03*
X0055905Y0021654D02*
D03*
D82*
X0106614Y0070866D02*
D03*
X0096614Y0070866D02*
D03*
X0086614Y0070866D02*
D03*
X0076614Y0070866D02*
D03*
X0342126Y0494488D02*
D03*
X0332126Y0494488D02*
D03*
X0322126Y0494488D02*
D03*
X0312126Y0494488D02*
D03*
X0302126Y0494488D02*
D03*
X0181142Y0580472D02*
D03*
X0191142Y0580472D02*
D03*
X0181142Y0570472D02*
D03*
X0191142Y0570472D02*
D03*
X0181142Y0560472D02*
D03*
X0191142Y0560472D02*
D03*
X0181142Y0550472D02*
D03*
X0191142Y0550472D02*
D03*
X0181142Y0540472D02*
D03*
X0191142Y0540472D02*
D03*
X0181142Y0530472D02*
D03*
X0191142Y0530472D02*
D03*
X0181142Y0520472D02*
D03*
X0191142Y0520472D02*
D03*
X0181142Y0510472D02*
D03*
X0191142Y0510472D02*
D03*
X0181142Y0500472D02*
D03*
X0191142Y0500472D02*
D03*
X0181142Y0490472D02*
D03*
X0191142Y0490472D02*
D03*
X0181142Y0480472D02*
D03*
X0191142Y0480472D02*
D03*
X0181142Y0470472D02*
D03*
D159*
X0066614Y0070866D02*
D03*
X0292126Y0494488D02*
D03*
D298*
X0529823Y0211122D02*
D03*
X0569193Y0211122D02*
D03*
X0588878Y0211122D02*
D03*
X0579035Y0211122D02*
D03*
X0559350Y0211122D02*
D03*
X0549508Y0211122D02*
D03*
X0539665Y0211122D02*
D03*
X0519980Y0211122D02*
D03*
D94*
X0552559Y0379823D02*
D03*
X0556496Y0379823D02*
D03*
X0570472Y0379823D02*
D03*
X0574409Y0379823D02*
D03*
X0548228Y0229232D02*
D03*
X0544291Y0229232D02*
D03*
X0540354Y0229232D02*
D03*
X0536417Y0229232D02*
D03*
D95*
X0303219Y0223002D02*
D03*
X0335531Y0248819D02*
D03*
X0310630Y0221063D02*
D03*
X0281693Y0216634D02*
D03*
X0303150Y0243602D02*
D03*
X0286122Y0562225D02*
D03*
X0313583Y0540276D02*
D03*
X0330906Y0540276D02*
D03*
X0322146Y0540276D02*
D03*
X0292323Y0542914D02*
D03*
X0308957Y0540276D02*
D03*
X0342339Y0542949D02*
D03*
X0200374Y0437323D02*
D03*
X0200669Y0423347D02*
D03*
X0199488Y0418327D02*
D03*
X0196043Y0420394D02*
D03*
X0447756Y0441043D02*
D03*
X0445571Y0415748D02*
D03*
X0440551Y0415748D02*
D03*
X0455610Y0415748D02*
D03*
X0452067Y0415748D02*
D03*
X0365302Y0397638D02*
D03*
X0413583Y0397638D02*
D03*
X0370768Y0382677D02*
D03*
X0512402Y0397638D02*
D03*
X0469488Y0397638D02*
D03*
X0140413Y0391142D02*
D03*
X0147638Y0389468D02*
D03*
X0139567Y0387303D02*
D03*
X0140413Y0383858D02*
D03*
X0147638Y0379232D02*
D03*
X0140709Y0380512D02*
D03*
X0142480Y0374114D02*
D03*
X0147638Y0371555D02*
D03*
X0140354Y0398622D02*
D03*
X0124311Y0399803D02*
D03*
D74*
X0030315Y0139016D02*
D03*
X0040315Y0139016D02*
D03*
X0050315Y0139016D02*
D03*
X0060315Y0139016D02*
D03*
X0070315Y0139016D02*
D03*
X0030315Y0149016D02*
D03*
X0070315Y0149016D02*
D03*
X0060315Y0149016D02*
D03*
X0050315Y0149016D02*
D03*
X0040315Y0149016D02*
D03*
X0040315Y0159016D02*
D03*
X0050315Y0159016D02*
D03*
X0060315Y0159016D02*
D03*
X0070315Y0159016D02*
D03*
X0030315Y0159016D02*
D03*
X0030315Y0215945D02*
D03*
X0040315Y0215945D02*
D03*
X0050315Y0215945D02*
D03*
X0060315Y0215945D02*
D03*
X0070315Y0215945D02*
D03*
X0030315Y0225945D02*
D03*
X0070315Y0225945D02*
D03*
X0060315Y0225945D02*
D03*
X0050315Y0225945D02*
D03*
X0040315Y0225945D02*
D03*
X0040315Y0235945D02*
D03*
X0050315Y0235945D02*
D03*
X0060315Y0235945D02*
D03*
X0070315Y0235945D02*
D03*
X0030315Y0235945D02*
D03*
D204*
X0460630Y0027559D02*
D03*
X0086614Y0027559D02*
D03*
X0173622Y0056890D02*
D03*
X0397244Y0056890D02*
D03*
X0135256Y0484803D02*
D03*
X0044272Y0484803D02*
D03*
X0019879Y0279921D02*
D03*
X0586614Y0020079D02*
D03*
X0586614Y0605905D02*
D03*
X0019685Y0605905D02*
D03*
X0019685Y0020079D02*
D03*
D270*
X0142913Y0092520D02*
D03*
X0142913Y0078347D02*
D03*
X0153937Y0092520D02*
D03*
X0153937Y0078347D02*
D03*
X0163779Y0092520D02*
D03*
X0163779Y0078347D02*
D03*
X0173622Y0092520D02*
D03*
X0183465Y0092520D02*
D03*
X0183465Y0078347D02*
D03*
X0193307Y0092520D02*
D03*
X0193307Y0078347D02*
D03*
X0203150Y0092520D02*
D03*
X0212992Y0078347D02*
D03*
X0212992Y0092520D02*
D03*
X0222835Y0078347D02*
D03*
X0222835Y0092520D02*
D03*
X0232677Y0078347D02*
D03*
X0232677Y0092520D02*
D03*
X0242520Y0078347D02*
D03*
X0242520Y0092520D02*
D03*
X0238858Y0109843D02*
D03*
X0252362Y0078347D02*
D03*
X0252362Y0092520D02*
D03*
X0251181Y0109843D02*
D03*
X0274409Y0078347D02*
D03*
X0274409Y0092520D02*
D03*
X0274409Y0109843D02*
D03*
X0284252Y0078347D02*
D03*
X0284252Y0092520D02*
D03*
X0285433Y0109843D02*
D03*
X0294094Y0078347D02*
D03*
X0294094Y0092520D02*
D03*
X0303937Y0092520D02*
D03*
X0297756Y0109843D02*
D03*
X0313779Y0078347D02*
D03*
X0313779Y0092520D02*
D03*
X0310079Y0109843D02*
D03*
X0323622Y0078347D02*
D03*
X0323622Y0092520D02*
D03*
X0322402Y0109843D02*
D03*
X0333465Y0078347D02*
D03*
X0333465Y0092520D02*
D03*
X0343307Y0078347D02*
D03*
X0343307Y0092520D02*
D03*
X0343307Y0109843D02*
D03*
X0354331Y0078347D02*
D03*
X0354331Y0092520D02*
D03*
X0354331Y0109843D02*
D03*
X0377559Y0078347D02*
D03*
X0377559Y0092520D02*
D03*
X0377559Y0109843D02*
D03*
X0387402Y0078347D02*
D03*
X0387402Y0092520D02*
D03*
X0387402Y0109843D02*
D03*
X0397244Y0092520D02*
D03*
X0407087Y0078347D02*
D03*
X0407087Y0092520D02*
D03*
X0407087Y0109843D02*
D03*
X0416929Y0078347D02*
D03*
X0416929Y0092520D02*
D03*
X0426772Y0078347D02*
D03*
X0426772Y0092520D02*
D03*
X0416929Y0109843D02*
D03*
X0426772Y0109843D02*
D03*
X0216850Y0109843D02*
D03*
X0204528Y0109843D02*
D03*
X0192205Y0109843D02*
D03*
X0179882Y0109843D02*
D03*
X0167559Y0109843D02*
D03*
X0155236Y0109843D02*
D03*
X0142913Y0109843D02*
D03*
X0397244Y0109843D02*
D03*
D222*
X0405413Y0426437D02*
D03*
X0405413Y0439094D02*
D03*
X0395571Y0439094D02*
D03*
X0395571Y0426437D02*
D03*
D41*
X0114764Y0435433D02*
D03*
X0104764Y0435433D02*
D03*
X0094764Y0435433D02*
D03*
X0084764Y0435433D02*
D03*
X0074764Y0435433D02*
D03*
D50*
X0064764Y0435433D02*
D03*
D159*
X0191142Y0470472D02*
D03*
X0154331Y0194882D02*
G01*
G75*
D258*
X0172638Y0211417D02*
D03*
X0172638Y0203937D02*
D03*
D52*
X0162992Y0247540D02*
D03*
X0162992Y0229823D02*
D03*
D12*
X0254626Y0201181D02*
D03*
X0254626Y0207480D02*
D03*
D135*
X0171359Y0198425D02*
D03*
X0163878Y0198425D02*
D03*
D221*
X0167126Y0210236D02*
D03*
X0167126Y0203937D02*
D03*
D211*
X0269095Y0225886D02*
D03*
X0269095Y0229626D02*
D03*
X0269095Y0233366D02*
D03*
X0259646Y0233366D02*
D03*
X0259646Y0229626D02*
D03*
X0259646Y0225886D02*
D03*
X0191929Y0225886D02*
D03*
X0191929Y0229626D02*
D03*
X0191929Y0233366D02*
D03*
X0201378Y0233366D02*
D03*
X0201378Y0229626D02*
D03*
X0201378Y0225886D02*
D03*
X0184449Y0225886D02*
D03*
X0184449Y0229626D02*
D03*
X0184449Y0233366D02*
D03*
X0175000Y0233366D02*
D03*
X0175000Y0229626D02*
D03*
X0175000Y0225886D02*
D03*
X0208859Y0225886D02*
D03*
X0208859Y0229626D02*
D03*
X0208859Y0233366D02*
D03*
X0218307Y0233366D02*
D03*
X0218307Y0229626D02*
D03*
X0218307Y0225886D02*
D03*
X0235236Y0225886D02*
D03*
X0235236Y0229626D02*
D03*
X0235236Y0233366D02*
D03*
X0225788Y0233366D02*
D03*
X0225788Y0229626D02*
D03*
X0225788Y0225886D02*
D03*
X0242717Y0225886D02*
D03*
X0242717Y0229626D02*
D03*
X0242717Y0233366D02*
D03*
X0252166Y0233366D02*
D03*
X0252166Y0229626D02*
D03*
X0252166Y0225886D02*
D03*
D105*
X0268800Y0200492D02*
D03*
X0268800Y0207579D02*
D03*
X0258760Y0207579D02*
D03*
X0258760Y0200492D02*
D03*
X0193701Y0200492D02*
D03*
X0193701Y0207579D02*
D03*
X0203740Y0207579D02*
D03*
X0203740Y0200492D02*
D03*
X0189174Y0200492D02*
D03*
X0189174Y0207579D02*
D03*
X0179134Y0207579D02*
D03*
X0179134Y0200492D02*
D03*
X0208760Y0200492D02*
D03*
X0208760Y0207579D02*
D03*
X0218799Y0207579D02*
D03*
X0218799Y0200492D02*
D03*
X0235630Y0200492D02*
D03*
X0235630Y0207579D02*
D03*
X0225591Y0207579D02*
D03*
X0225591Y0200492D02*
D03*
X0240552Y0200492D02*
D03*
X0240552Y0207579D02*
D03*
X0250591Y0207579D02*
D03*
X0250591Y0200492D02*
D03*
X0203642Y0214272D02*
D03*
X0203642Y0221358D02*
D03*
X0193603Y0221358D02*
D03*
X0193603Y0214272D02*
D03*
X0177658Y0214272D02*
D03*
X0177658Y0221358D02*
D03*
X0187697Y0221358D02*
D03*
X0187697Y0214272D02*
D03*
X0218898Y0214272D02*
D03*
X0218898Y0221358D02*
D03*
X0208859Y0221358D02*
D03*
X0208859Y0214272D02*
D03*
X0225591Y0214272D02*
D03*
X0225591Y0221358D02*
D03*
X0235630Y0221358D02*
D03*
X0235630Y0214272D02*
D03*
X0250886Y0214272D02*
D03*
X0250886Y0221358D02*
D03*
X0240847Y0221358D02*
D03*
X0240847Y0214272D02*
D03*
X0258268Y0214370D02*
D03*
X0258268Y0221457D02*
D03*
X0268307Y0221457D02*
D03*
X0268307Y0214370D02*
D03*
D68*
X0262205Y0207579D02*
D03*
X0265355Y0207579D02*
D03*
X0265355Y0200492D02*
D03*
X0262205Y0200492D02*
D03*
X0197146Y0200492D02*
D03*
X0200296Y0200492D02*
D03*
X0200296Y0207579D02*
D03*
X0197146Y0207579D02*
D03*
X0182579Y0207579D02*
D03*
X0185729Y0207579D02*
D03*
X0185729Y0200492D02*
D03*
X0182579Y0200492D02*
D03*
X0212205Y0200492D02*
D03*
X0215355Y0200492D02*
D03*
X0215355Y0207579D02*
D03*
X0212205Y0207579D02*
D03*
X0229036Y0207579D02*
D03*
X0232185Y0207579D02*
D03*
X0232185Y0200492D02*
D03*
X0229036Y0200492D02*
D03*
X0243996Y0200492D02*
D03*
X0247146Y0200492D02*
D03*
X0247146Y0207579D02*
D03*
X0243996Y0207579D02*
D03*
X0197048Y0221358D02*
D03*
X0200197Y0221358D02*
D03*
X0200197Y0214272D02*
D03*
X0197048Y0214272D02*
D03*
X0181103Y0214272D02*
D03*
X0184252Y0214272D02*
D03*
X0184252Y0221358D02*
D03*
X0181103Y0221358D02*
D03*
X0212304Y0221358D02*
D03*
X0215453Y0221358D02*
D03*
X0215453Y0214272D02*
D03*
X0212304Y0214272D02*
D03*
X0229036Y0214272D02*
D03*
X0232185Y0214272D02*
D03*
X0232185Y0221358D02*
D03*
X0229036Y0221358D02*
D03*
X0244292Y0221358D02*
D03*
X0247441Y0221358D02*
D03*
X0247441Y0214272D02*
D03*
X0244292Y0214272D02*
D03*
X0261713Y0214370D02*
D03*
X0264862Y0214370D02*
D03*
X0264862Y0221457D02*
D03*
X0261713Y0221457D02*
D03*
D220*
X0272835Y0200630D02*
D03*
X0272835Y0206851D02*
D03*
X0238288Y0242067D02*
D03*
X0238288Y0248288D02*
D03*
X0233957Y0248288D02*
D03*
X0233957Y0242067D02*
D03*
X0229626Y0242067D02*
D03*
X0229626Y0248288D02*
D03*
X0225296Y0248288D02*
D03*
X0225296Y0242067D02*
D03*
X0242618Y0242067D02*
D03*
X0242618Y0248288D02*
D03*
X0246949Y0248288D02*
D03*
X0246949Y0242067D02*
D03*
X0251280Y0242067D02*
D03*
X0251280Y0248288D02*
D03*
X0255610Y0248288D02*
D03*
X0255610Y0242067D02*
D03*
X0207973Y0242067D02*
D03*
X0207973Y0248288D02*
D03*
X0212304Y0248288D02*
D03*
X0212304Y0242067D02*
D03*
X0216634Y0242067D02*
D03*
X0216634Y0248288D02*
D03*
X0220965Y0248288D02*
D03*
X0220965Y0242067D02*
D03*
X0173327Y0242067D02*
D03*
X0173327Y0248288D02*
D03*
X0177658Y0248288D02*
D03*
X0177658Y0242067D02*
D03*
X0181988Y0242067D02*
D03*
X0181988Y0248288D02*
D03*
X0186319Y0248288D02*
D03*
X0186319Y0242067D02*
D03*
X0190650Y0242067D02*
D03*
X0190650Y0248288D02*
D03*
X0194981Y0248288D02*
D03*
X0194981Y0242067D02*
D03*
X0199311Y0242067D02*
D03*
X0199311Y0248288D02*
D03*
X0203642Y0248288D02*
D03*
X0203642Y0242067D02*
D03*
X0272835Y0214016D02*
D03*
X0272835Y0220236D02*
D03*
X0259941Y0242067D02*
D03*
X0259941Y0248288D02*
D03*
X0264272Y0248288D02*
D03*
X0264272Y0242067D02*
D03*
X0268603Y0242067D02*
D03*
X0268603Y0248288D02*
D03*
X0272933Y0248288D02*
D03*
X0272933Y0242067D02*
D03*
D274*
X0156890Y0209154D02*
D03*
X0163189Y0209154D02*
D03*
X0163189Y0204626D02*
D03*
X0156890Y0204626D02*
D03*
X0164174Y0218110D02*
D03*
X0157874Y0218110D02*
D03*
X0164174Y0222736D02*
D03*
X0157874Y0222736D02*
D03*
D310*
X0169488Y0223622D02*
D03*
X0169488Y0216142D02*
D03*
D226*
X0157126Y0213681D02*
D03*
X0163347Y0213681D02*
D03*
X0153937Y0255512D02*
G01*
G75*
D37*
X0226772Y0279725D02*
D03*
X0226772Y0283662D02*
D03*
D18*
X0296870Y0257284D02*
D03*
D326*
X0321850Y0318504D02*
D03*
D121*
X0330906Y0294095D02*
D03*
X0312795Y0294095D02*
D03*
D234*
X0321850Y0294095D02*
D03*
D62*
X0304921Y0260827D02*
D03*
X0304921Y0263386D02*
D03*
X0304921Y0265945D02*
D03*
X0304921Y0268504D02*
D03*
X0304921Y0271063D02*
D03*
X0304921Y0273622D02*
D03*
X0304921Y0276181D02*
D03*
X0282480Y0260827D02*
D03*
X0282480Y0263386D02*
D03*
X0282480Y0265945D02*
D03*
X0282480Y0268504D02*
D03*
X0282480Y0271063D02*
D03*
X0282480Y0273622D02*
D03*
X0282480Y0276181D02*
D03*
X0180906Y0295177D02*
D03*
X0180906Y0297736D02*
D03*
X0180906Y0300295D02*
D03*
X0180906Y0302855D02*
D03*
X0180906Y0305414D02*
D03*
X0180906Y0307973D02*
D03*
X0180906Y0310532D02*
D03*
X0158464Y0295177D02*
D03*
X0158464Y0297736D02*
D03*
X0158464Y0300295D02*
D03*
X0158464Y0302855D02*
D03*
X0158464Y0305414D02*
D03*
X0158464Y0307973D02*
D03*
X0158464Y0310532D02*
D03*
X0180413Y0340158D02*
D03*
X0180413Y0342717D02*
D03*
X0180413Y0345276D02*
D03*
X0180413Y0347835D02*
D03*
X0180413Y0350394D02*
D03*
X0180413Y0352953D02*
D03*
X0180413Y0355512D02*
D03*
X0157972Y0340158D02*
D03*
X0157972Y0342717D02*
D03*
X0157972Y0345276D02*
D03*
X0157972Y0347835D02*
D03*
X0157972Y0350394D02*
D03*
X0157972Y0352953D02*
D03*
X0157972Y0355512D02*
D03*
X0186221Y0276181D02*
D03*
X0186221Y0273622D02*
D03*
X0186221Y0271063D02*
D03*
X0186221Y0268504D02*
D03*
X0186221Y0265945D02*
D03*
X0186221Y0263386D02*
D03*
X0186221Y0260827D02*
D03*
X0208661Y0276181D02*
D03*
X0208661Y0273622D02*
D03*
X0208661Y0271063D02*
D03*
X0208661Y0268504D02*
D03*
X0208661Y0265945D02*
D03*
X0208661Y0263386D02*
D03*
X0208661Y0260827D02*
D03*
X0230610Y0276181D02*
D03*
X0230610Y0273622D02*
D03*
X0230610Y0271063D02*
D03*
X0230610Y0268504D02*
D03*
X0230610Y0265945D02*
D03*
X0230610Y0263386D02*
D03*
X0230610Y0260827D02*
D03*
X0253051Y0276181D02*
D03*
X0253051Y0273622D02*
D03*
X0253051Y0271063D02*
D03*
X0253051Y0268504D02*
D03*
X0253051Y0265945D02*
D03*
X0253051Y0263386D02*
D03*
X0253051Y0260827D02*
D03*
X0180610Y0260827D02*
D03*
X0180610Y0263386D02*
D03*
X0180610Y0265945D02*
D03*
X0180610Y0268504D02*
D03*
X0180610Y0271063D02*
D03*
X0180610Y0273622D02*
D03*
X0180610Y0276181D02*
D03*
X0158169Y0260827D02*
D03*
X0158169Y0263386D02*
D03*
X0158169Y0265945D02*
D03*
X0158169Y0268504D02*
D03*
X0158169Y0271063D02*
D03*
X0158169Y0273622D02*
D03*
X0158169Y0276181D02*
D03*
D109*
X0207677Y0392126D02*
D03*
X0209646Y0392126D02*
D03*
X0211614Y0392126D02*
D03*
X0213583Y0392126D02*
D03*
X0215551Y0392126D02*
D03*
X0217520Y0392126D02*
D03*
X0219488Y0392126D02*
D03*
X0221457Y0392126D02*
D03*
X0223425Y0392126D02*
D03*
X0225394Y0392126D02*
D03*
X0227362Y0392126D02*
D03*
X0229331Y0392126D02*
D03*
X0231299Y0392126D02*
D03*
X0233268Y0392126D02*
D03*
X0235236Y0392126D02*
D03*
X0237205Y0392126D02*
D03*
X0239173Y0392126D02*
D03*
X0241142Y0392126D02*
D03*
X0243110Y0392126D02*
D03*
X0245079Y0392126D02*
D03*
X0247047Y0392126D02*
D03*
X0249016Y0392126D02*
D03*
X0250984Y0392126D02*
D03*
X0252953Y0392126D02*
D03*
X0254921Y0392126D02*
D03*
X0256890Y0392126D02*
D03*
X0258858Y0392126D02*
D03*
X0260827Y0392126D02*
D03*
X0262795Y0392126D02*
D03*
X0264764Y0392126D02*
D03*
X0266732Y0392126D02*
D03*
X0268701Y0392126D02*
D03*
X0270669Y0392126D02*
D03*
X0272638Y0392126D02*
D03*
X0274606Y0392126D02*
D03*
X0276575Y0392126D02*
D03*
X0278543Y0392126D02*
D03*
X0280512Y0392126D02*
D03*
X0282480Y0392126D02*
D03*
X0284449Y0392126D02*
D03*
X0286417Y0392126D02*
D03*
X0288386Y0392126D02*
D03*
X0290354Y0392126D02*
D03*
X0292323Y0392126D02*
D03*
X0292323Y0288583D02*
D03*
X0290354Y0288583D02*
D03*
X0288386Y0288583D02*
D03*
X0286417Y0288583D02*
D03*
X0284449Y0288583D02*
D03*
X0282480Y0288583D02*
D03*
X0280512Y0288583D02*
D03*
X0278543Y0288583D02*
D03*
X0276575Y0288583D02*
D03*
X0274606Y0288583D02*
D03*
X0272638Y0288583D02*
D03*
X0270669Y0288583D02*
D03*
X0268701Y0288583D02*
D03*
X0266732Y0288583D02*
D03*
X0264764Y0288583D02*
D03*
X0262795Y0288583D02*
D03*
X0260827Y0288583D02*
D03*
X0258858Y0288583D02*
D03*
X0256890Y0288583D02*
D03*
X0254921Y0288583D02*
D03*
X0252953Y0288583D02*
D03*
X0250984Y0288583D02*
D03*
X0249016Y0288583D02*
D03*
X0247047Y0288583D02*
D03*
X0245079Y0288583D02*
D03*
X0243110Y0288583D02*
D03*
X0241142Y0288583D02*
D03*
X0239173Y0288583D02*
D03*
X0237205Y0288583D02*
D03*
X0235236Y0288583D02*
D03*
X0233268Y0288583D02*
D03*
X0231299Y0288583D02*
D03*
X0229331Y0288583D02*
D03*
X0227362Y0288583D02*
D03*
X0225394Y0288583D02*
D03*
X0223425Y0288583D02*
D03*
X0221457Y0288583D02*
D03*
X0219488Y0288583D02*
D03*
X0217520Y0288583D02*
D03*
X0215551Y0288583D02*
D03*
X0213583Y0288583D02*
D03*
X0211614Y0288583D02*
D03*
X0209646Y0288583D02*
D03*
X0207677Y0288583D02*
D03*
D231*
X0301772Y0382677D02*
D03*
X0301772Y0380709D02*
D03*
X0301772Y0378740D02*
D03*
X0301772Y0376772D02*
D03*
X0301772Y0374803D02*
D03*
X0301772Y0372835D02*
D03*
X0301772Y0370866D02*
D03*
X0301772Y0368898D02*
D03*
X0301772Y0366929D02*
D03*
X0301772Y0364961D02*
D03*
X0301772Y0362992D02*
D03*
X0301772Y0361024D02*
D03*
X0301772Y0359055D02*
D03*
X0301772Y0357087D02*
D03*
X0301772Y0355118D02*
D03*
X0301772Y0353150D02*
D03*
X0301772Y0351181D02*
D03*
X0301772Y0349213D02*
D03*
X0301772Y0347244D02*
D03*
X0301772Y0345276D02*
D03*
X0301772Y0343307D02*
D03*
X0301772Y0341339D02*
D03*
X0301772Y0339370D02*
D03*
X0301772Y0337402D02*
D03*
X0301772Y0335433D02*
D03*
X0301772Y0333465D02*
D03*
X0301772Y0331496D02*
D03*
X0301772Y0329528D02*
D03*
X0301772Y0327559D02*
D03*
X0301772Y0325591D02*
D03*
X0301772Y0323622D02*
D03*
X0301772Y0321654D02*
D03*
X0301772Y0319685D02*
D03*
X0301772Y0317717D02*
D03*
X0301772Y0315748D02*
D03*
X0301772Y0313780D02*
D03*
X0301772Y0311811D02*
D03*
X0301772Y0309843D02*
D03*
X0301772Y0307874D02*
D03*
X0301772Y0305906D02*
D03*
X0301772Y0303937D02*
D03*
X0301772Y0301969D02*
D03*
X0301772Y0300000D02*
D03*
X0301772Y0298032D02*
D03*
X0198228Y0298032D02*
D03*
X0198228Y0300000D02*
D03*
X0198228Y0301969D02*
D03*
X0198228Y0303937D02*
D03*
X0198228Y0305906D02*
D03*
X0198228Y0307874D02*
D03*
X0198228Y0309843D02*
D03*
X0198228Y0311811D02*
D03*
X0198228Y0313780D02*
D03*
X0198228Y0315748D02*
D03*
X0198228Y0317717D02*
D03*
X0198228Y0319685D02*
D03*
X0198228Y0321654D02*
D03*
X0198228Y0323622D02*
D03*
X0198228Y0325591D02*
D03*
X0198228Y0327559D02*
D03*
X0198228Y0329528D02*
D03*
X0198228Y0331496D02*
D03*
X0198228Y0333465D02*
D03*
X0198228Y0335433D02*
D03*
X0198228Y0337402D02*
D03*
X0198228Y0339370D02*
D03*
X0198228Y0341339D02*
D03*
X0198228Y0343307D02*
D03*
X0198228Y0345276D02*
D03*
X0198228Y0347244D02*
D03*
X0198228Y0349213D02*
D03*
X0198228Y0351181D02*
D03*
X0198228Y0353150D02*
D03*
X0198228Y0355118D02*
D03*
X0198228Y0357087D02*
D03*
X0198228Y0359055D02*
D03*
X0198228Y0361024D02*
D03*
X0198228Y0362992D02*
D03*
X0198228Y0364961D02*
D03*
X0198228Y0366929D02*
D03*
X0198228Y0368898D02*
D03*
X0198228Y0370866D02*
D03*
X0198228Y0372835D02*
D03*
X0198228Y0374803D02*
D03*
X0198228Y0376772D02*
D03*
X0198228Y0378740D02*
D03*
X0198228Y0380709D02*
D03*
X0198228Y0382677D02*
D03*
D226*
X0316102Y0275591D02*
D03*
X0309882Y0275591D02*
D03*
X0313346Y0384252D02*
D03*
X0307126Y0384252D02*
D03*
X0322697Y0325394D02*
D03*
X0316476Y0325394D02*
D03*
X0222323Y0283366D02*
D03*
X0216102Y0283366D02*
D03*
X0283661Y0397323D02*
D03*
X0289882Y0397323D02*
D03*
X0288051Y0282677D02*
D03*
X0281831Y0282677D02*
D03*
X0202224Y0391339D02*
D03*
X0196004Y0391339D02*
D03*
X0318464Y0350689D02*
D03*
X0312244Y0350689D02*
D03*
X0211378Y0283268D02*
D03*
X0205157Y0283268D02*
D03*
X0264331Y0278543D02*
D03*
X0258110Y0278543D02*
D03*
X0185473Y0349705D02*
D03*
X0191693Y0349705D02*
D03*
X0214213Y0397441D02*
D03*
X0220433Y0397441D02*
D03*
X0246122Y0397343D02*
D03*
X0239902Y0397343D02*
D03*
X0263248Y0397343D02*
D03*
X0257028Y0397343D02*
D03*
X0301319Y0294784D02*
D03*
X0307539Y0294784D02*
D03*
X0247402Y0283268D02*
D03*
X0241181Y0283268D02*
D03*
X0255158Y0282973D02*
D03*
X0261378Y0282973D02*
D03*
X0185374Y0354035D02*
D03*
X0191594Y0354035D02*
D03*
X0192776Y0309744D02*
D03*
X0186555Y0309744D02*
D03*
D220*
X0319587Y0390000D02*
D03*
X0319587Y0396221D02*
D03*
X0333366Y0285000D02*
D03*
X0333366Y0278780D02*
D03*
X0307185Y0379685D02*
D03*
X0307185Y0373465D02*
D03*
X0191240Y0345335D02*
D03*
X0191240Y0339114D02*
D03*
X0311713Y0378898D02*
D03*
X0311713Y0372677D02*
D03*
X0276280Y0269252D02*
D03*
X0276280Y0263032D02*
D03*
X0310728Y0270729D02*
D03*
X0310728Y0264508D02*
D03*
X0315158Y0264508D02*
D03*
X0315158Y0270728D02*
D03*
X0166437Y0327992D02*
D03*
X0166437Y0334213D02*
D03*
X0186713Y0345335D02*
D03*
X0186713Y0339114D02*
D03*
X0191339Y0300650D02*
D03*
X0191339Y0294429D02*
D03*
X0312106Y0321693D02*
D03*
X0312106Y0327914D02*
D03*
X0186516Y0300551D02*
D03*
X0186516Y0294331D02*
D03*
X0172933Y0288150D02*
D03*
X0172933Y0281929D02*
D03*
X0159350Y0334114D02*
D03*
X0159350Y0327894D02*
D03*
X0307480Y0351043D02*
D03*
X0307480Y0344823D02*
D03*
X0307579Y0323859D02*
D03*
X0307579Y0330079D02*
D03*
X0187697Y0321417D02*
D03*
X0187697Y0315197D02*
D03*
X0192421Y0368248D02*
D03*
X0192421Y0374469D02*
D03*
D124*
X0332382Y0337205D02*
D03*
X0332382Y0343898D02*
D03*
X0319882Y0343996D02*
D03*
X0319882Y0337303D02*
D03*
X0326083Y0337205D02*
D03*
X0326083Y0343898D02*
D03*
X0313957Y0344587D02*
D03*
X0313957Y0337894D02*
D03*
D331*
X0327165Y0286319D02*
D03*
X0327165Y0278839D02*
D03*
D10*
X0236811Y0282776D02*
D03*
X0230512Y0282776D02*
D03*
X0319094Y0332480D02*
D03*
X0312795Y0332480D02*
D03*
X0267421Y0397540D02*
D03*
X0273721Y0397540D02*
D03*
X0325000Y0332284D02*
D03*
X0331299Y0332284D02*
D03*
X0326870Y0326772D02*
D03*
X0333169Y0326772D02*
D03*
X0192815Y0305217D02*
D03*
X0186516Y0305217D02*
D03*
X0332480Y0375689D02*
D03*
X0326181Y0375689D02*
D03*
D12*
X0301181Y0392618D02*
D03*
X0301181Y0386319D02*
D03*
X0296457Y0397441D02*
D03*
X0296457Y0391142D02*
D03*
X0307579Y0334351D02*
D03*
X0307579Y0340650D02*
D03*
X0324114Y0390748D02*
D03*
X0324114Y0397047D02*
D03*
X0333169Y0379921D02*
D03*
X0333169Y0386221D02*
D03*
X0333169Y0390059D02*
D03*
X0333169Y0396358D02*
D03*
X0328543Y0381496D02*
D03*
X0328543Y0387795D02*
D03*
X0192520Y0321555D02*
D03*
X0192520Y0315256D02*
D03*
D103*
X0305787Y0396851D02*
D03*
X0315039Y0393111D02*
D03*
D103*
X0305787Y0389370D02*
D03*
D244*
X0187106Y0330611D02*
D03*
X0172539Y0330611D02*
D03*
D260*
X0314468Y0365945D02*
D03*
X0310728Y0365945D02*
D03*
X0306988Y0365945D02*
D03*
X0306988Y0356496D02*
D03*
X0310728Y0356496D02*
D03*
X0314468Y0356496D02*
D03*
D105*
X0322933Y0263681D02*
D03*
X0322933Y0270768D02*
D03*
X0332972Y0270768D02*
D03*
X0332972Y0263681D02*
D03*
X0321555Y0280217D02*
D03*
X0321555Y0287303D02*
D03*
X0311516Y0287303D02*
D03*
X0311516Y0280217D02*
D03*
X0173327Y0314665D02*
D03*
X0173327Y0321752D02*
D03*
X0183366Y0321752D02*
D03*
X0183366Y0314665D02*
D03*
X0168110Y0314666D02*
D03*
X0168110Y0321752D02*
D03*
X0158071Y0321752D02*
D03*
X0158071Y0314666D02*
D03*
X0177264Y0281299D02*
D03*
X0177264Y0288386D02*
D03*
X0187303Y0288386D02*
D03*
X0187303Y0281299D02*
D03*
X0168602Y0281299D02*
D03*
X0168602Y0288386D02*
D03*
X0158563Y0288386D02*
D03*
X0158563Y0281299D02*
D03*
X0173524Y0359843D02*
D03*
X0173524Y0366929D02*
D03*
X0183563Y0366929D02*
D03*
X0183563Y0359843D02*
D03*
X0305709Y0280512D02*
D03*
X0305709Y0287599D02*
D03*
X0295669Y0287599D02*
D03*
X0295669Y0280512D02*
D03*
X0158169Y0359843D02*
D03*
X0158169Y0366929D02*
D03*
X0168209Y0366929D02*
D03*
X0168209Y0359843D02*
D03*
X0213090Y0279036D02*
D03*
X0213090Y0271949D02*
D03*
X0223130Y0271949D02*
D03*
X0223130Y0279036D02*
D03*
X0224311Y0260729D02*
D03*
X0224311Y0267815D02*
D03*
X0214272Y0267815D02*
D03*
X0214272Y0260729D02*
D03*
D68*
X0326378Y0263681D02*
D03*
X0329528Y0263681D02*
D03*
X0329528Y0270768D02*
D03*
X0326378Y0270768D02*
D03*
X0314961Y0287303D02*
D03*
X0318110Y0287303D02*
D03*
X0318110Y0280217D02*
D03*
X0314961Y0280217D02*
D03*
X0176772Y0314665D02*
D03*
X0179921Y0314665D02*
D03*
X0179921Y0321752D02*
D03*
X0176772Y0321752D02*
D03*
X0161516Y0321752D02*
D03*
X0164665Y0321752D02*
D03*
X0164665Y0314666D02*
D03*
X0161516Y0314666D02*
D03*
X0180709Y0281299D02*
D03*
X0183858Y0281299D02*
D03*
X0183858Y0288386D02*
D03*
X0180709Y0288386D02*
D03*
X0162008Y0288386D02*
D03*
X0165158Y0288386D02*
D03*
X0165158Y0281299D02*
D03*
X0162008Y0281299D02*
D03*
X0176969Y0359843D02*
D03*
X0180118Y0359843D02*
D03*
X0180118Y0366929D02*
D03*
X0176969Y0366929D02*
D03*
X0299114Y0287599D02*
D03*
X0302264Y0287599D02*
D03*
X0302264Y0280512D02*
D03*
X0299114Y0280512D02*
D03*
X0161614Y0359843D02*
D03*
X0164764Y0359843D02*
D03*
X0164764Y0366929D02*
D03*
X0161614Y0366929D02*
D03*
X0219685Y0271949D02*
D03*
X0216535Y0271949D02*
D03*
X0216535Y0279036D02*
D03*
X0219685Y0279036D02*
D03*
X0217717Y0267815D02*
D03*
X0220866Y0267815D02*
D03*
X0220866Y0260729D02*
D03*
X0217717Y0260729D02*
D03*
D91*
X0320669Y0385433D02*
D03*
X0320669Y0372441D02*
D03*
D174*
X0196555Y0280591D02*
D03*
X0200295Y0289843D02*
D03*
D174*
X0192815Y0289843D02*
D03*
D16*
X0259154Y0259744D02*
D03*
X0266240Y0259744D02*
D03*
X0266240Y0269784D02*
D03*
X0259154Y0269784D02*
D03*
X0268799Y0273622D02*
D03*
X0275886Y0273622D02*
D03*
X0275886Y0283662D02*
D03*
X0268799Y0283662D02*
D03*
X0182441Y0374389D02*
D03*
X0175354Y0374389D02*
D03*
X0175354Y0384429D02*
D03*
X0182441Y0384429D02*
D03*
X0166831Y0384154D02*
D03*
X0159744Y0384154D02*
D03*
X0159744Y0394193D02*
D03*
X0166831Y0394193D02*
D03*
D290*
X0266240Y0266339D02*
D03*
X0266240Y0263189D02*
D03*
X0259154Y0263189D02*
D03*
X0259154Y0266339D02*
D03*
X0275886Y0280217D02*
D03*
X0275886Y0277067D02*
D03*
X0268799Y0277067D02*
D03*
X0268799Y0280217D02*
D03*
X0182441Y0377834D02*
D03*
X0182441Y0380984D02*
D03*
X0175354Y0380984D02*
D03*
X0175354Y0377834D02*
D03*
X0166831Y0387599D02*
D03*
X0166831Y0390748D02*
D03*
X0159744Y0390748D02*
D03*
X0159744Y0387599D02*
D03*
D111*
X0324862Y0365433D02*
D03*
X0329862Y0365433D02*
D03*
X0324862Y0360433D02*
D03*
X0329862Y0360433D02*
D03*
X0324862Y0355433D02*
D03*
X0329862Y0355433D02*
D03*
D215*
X0190551Y0358268D02*
D03*
X0190551Y0364173D02*
D03*
D25*
X0196260Y0397343D02*
D03*
X0209252Y0397343D02*
D03*
D112*
X0327362Y0370433D02*
D03*
X0331362Y0350433D02*
D03*
X0323362Y0350433D02*
D03*
X0362795Y0370472D02*
G01*
G75*
D310*
D03*
D03*
D03*
D03*
D306*
D03*
D03*
D209*
D03*
D03*
D10*
D03*
D03*
D03*
D03*
D03*
D03*
D226*
D03*
D03*
D03*
D03*
D03*
D03*
D220*
D03*
D03*
D277*
D03*
D03*
D03*
D03*
D03*
D03*
D03*
D03*
D17*
D03*
D23*
D03*
D03*
D248*
D03*
D03*
D228*
D03*
D03*
D03*
D03*
D03*
D03*
D03*
D03*
D154*
D03*
D03*
D12*
D03*
D03*
D35*
D03*
D95*
D03*
D03*
D03*
D03*
D03*
X0272638Y0508780D02*
G01*
G75*
D104*
X0290256Y0556811D02*
D03*
X0290256Y0524134D02*
D03*
X0344390Y0524134D02*
D03*
X0344390Y0556811D02*
D03*
D312*
X0335020Y0546575D02*
D03*
X0330689Y0546575D02*
D03*
X0326358Y0546575D02*
D03*
X0322028Y0546575D02*
D03*
X0317697Y0546575D02*
D03*
X0313366Y0546575D02*
D03*
X0309036Y0546575D02*
D03*
X0304705Y0546575D02*
D03*
D197*
X0284351Y0561378D02*
D03*
X0284351Y0567599D02*
D03*
X0279725Y0561378D02*
D03*
X0279725Y0567599D02*
D03*
D332*
X0275197Y0567638D02*
D03*
X0275197Y0561339D02*
D03*
D95*
X0286122Y0562225D02*
D03*
X0313583Y0540276D02*
D03*
X0330906Y0540276D02*
D03*
X0322146Y0540276D02*
D03*
X0292323Y0542914D02*
D03*
X0308957Y0540276D02*
D03*
X0342339Y0542950D02*
D03*
X0278248Y0188976D02*
G01*
G75*
D248*
X0340158Y0231102D02*
D03*
D49*
X0279035Y0215157D02*
D03*
D100*
X0335728Y0202067D02*
D03*
X0308366Y0202067D02*
D03*
D201*
X0294193Y0217126D02*
D03*
X0285531Y0217126D02*
D03*
X0285827Y0227165D02*
D03*
X0294488Y0227165D02*
D03*
D265*
X0323327Y0246752D02*
D03*
X0336319Y0246752D02*
D03*
D264*
X0338287Y0231102D02*
D03*
X0338287Y0239763D02*
D03*
X0308169Y0219389D02*
D03*
X0308169Y0228051D02*
D03*
D274*
X0297835Y0217322D02*
D03*
X0304134Y0217322D02*
D03*
X0297933Y0222145D02*
D03*
X0291634Y0222145D02*
D03*
X0319094Y0230118D02*
D03*
X0312795Y0230118D02*
D03*
D103*
X0330689Y0226673D02*
D03*
X0339941Y0222933D02*
D03*
X0316713Y0225393D02*
D03*
X0325965Y0221653D02*
D03*
D103*
X0330689Y0219193D02*
D03*
X0316712Y0217913D02*
D03*
D186*
X0328051Y0240728D02*
D03*
X0324311Y0231476D02*
D03*
D186*
X0331791Y0231476D02*
D03*
D150*
X0284744Y0233267D02*
D03*
X0284744Y0245078D02*
D03*
D71*
X0293405Y0245078D02*
D03*
X0307972Y0245078D02*
D03*
D12*
X0293701Y0231693D02*
D03*
X0293701Y0237992D02*
D03*
D197*
X0281890Y0220472D02*
D03*
X0281890Y0226692D02*
D03*
D151*
X0300689Y0239665D02*
D03*
X0300689Y0226673D02*
D03*
D228*
X0316535Y0246653D02*
D03*
X0316535Y0235236D02*
D03*
D95*
X0303219Y0223002D02*
D03*
X0335532Y0248818D02*
D03*
X0310630Y0221063D02*
D03*
X0281693Y0216633D02*
D03*
X0303150Y0243602D02*
D03*
X0151280Y0166929D02*
G01*
G75*
D278*
X0222737Y0171555D02*
D03*
X0222737Y0174311D02*
D03*
X0222737Y0177756D02*
D03*
X0152560Y0169783D02*
D03*
X0152560Y0179232D02*
D03*
D220*
X0198623Y0175256D02*
D03*
X0198623Y0169035D02*
D03*
X0203938Y0170905D02*
D03*
X0203938Y0177126D02*
D03*
X0194095Y0169035D02*
D03*
X0194095Y0175256D02*
D03*
X0154233Y0176043D02*
D03*
X0154233Y0169823D02*
D03*
X0185138Y0169331D02*
D03*
X0185138Y0175551D02*
D03*
D225*
X0217914Y0177460D02*
D03*
X0217914Y0169980D02*
D03*
X0209449Y0169980D02*
D03*
X0209449Y0173720D02*
D03*
X0174548Y0177953D02*
D03*
X0174548Y0170472D02*
D03*
X0166083Y0170472D02*
D03*
X0166083Y0174212D02*
D03*
D225*
X0209449Y0177460D02*
D03*
X0166083Y0177953D02*
D03*
D10*
X0202166Y0180020D02*
D03*
X0195867Y0180020D02*
D03*
X0192127Y0180807D02*
D03*
X0185827Y0180807D02*
D03*
D332*
X0189666Y0176673D02*
D03*
X0189666Y0170374D02*
D03*
X0160335Y0176673D02*
D03*
X0160335Y0170374D02*
D03*
X0180217Y0176673D02*
D03*
X0180217Y0170374D02*
D03*
X0387795Y0195669D02*
G01*
G75*
D174*
X0458563Y0322953D02*
D03*
X0454822Y0313701D02*
D03*
X0415452Y0208346D02*
D03*
X0411712Y0199094D02*
D03*
X0397736Y0199094D02*
D03*
X0401476Y0208346D02*
D03*
X0425295Y0199094D02*
D03*
X0429035Y0208346D02*
D03*
X0437795Y0231831D02*
D03*
X0441535Y0241083D02*
D03*
X0404823Y0227047D02*
D03*
X0408563Y0236299D02*
D03*
D174*
X0451082Y0322953D02*
D03*
X0407972Y0208346D02*
D03*
X0393996Y0208346D02*
D03*
X0421555Y0208346D02*
D03*
X0445275Y0231831D02*
D03*
X0401082Y0236299D02*
D03*
D87*
X0425301Y0198971D02*
D03*
X0481896Y0198971D02*
D03*
X0486840Y0198971D02*
D03*
D165*
X0389651Y0212736D02*
D03*
D228*
X0464173Y0200197D02*
D03*
X0464173Y0211614D02*
D03*
D240*
X0458464Y0213582D02*
D03*
X0447047Y0213582D02*
D03*
D175*
X0460945Y0233071D02*
D03*
X0451693Y0236811D02*
D03*
X0458346Y0223720D02*
D03*
X0449094Y0227460D02*
D03*
D175*
X0460945Y0240551D02*
D03*
X0449094Y0219980D02*
D03*
D12*
X0462992Y0222047D02*
D03*
X0462992Y0228346D02*
D03*
X0494586Y0326142D02*
D03*
X0494586Y0332441D02*
D03*
X0473622Y0329134D02*
D03*
X0473622Y0322834D02*
D03*
X0478248Y0318012D02*
D03*
X0478248Y0324311D02*
D03*
D329*
X0466535Y0306456D02*
D03*
X0448425Y0306456D02*
D03*
X0466535Y0248189D02*
D03*
X0448425Y0248189D02*
D03*
X0475787Y0248189D02*
D03*
X0493897Y0248189D02*
D03*
X0475787Y0306456D02*
D03*
X0493897Y0306456D02*
D03*
X0439173Y0306456D02*
D03*
X0421063Y0306456D02*
D03*
X0393701Y0306456D02*
D03*
X0411811Y0306456D02*
D03*
X0420669Y0248189D02*
D03*
X0438779Y0248189D02*
D03*
X0411023Y0248189D02*
D03*
X0392913Y0248189D02*
D03*
D230*
X0457480Y0306456D02*
D03*
X0457480Y0248189D02*
D03*
X0484842Y0248189D02*
D03*
X0484842Y0306456D02*
D03*
X0430118Y0306456D02*
D03*
X0402756Y0306456D02*
D03*
X0429724Y0248189D02*
D03*
X0401968Y0248189D02*
D03*
D246*
X0457480Y0282047D02*
D03*
X0457480Y0272598D02*
D03*
X0484842Y0272598D02*
D03*
X0484842Y0282047D02*
D03*
X0430118Y0282047D02*
D03*
X0402756Y0282047D02*
D03*
X0429724Y0272598D02*
D03*
X0401968Y0272598D02*
D03*
D286*
X0419389Y0272697D02*
D03*
X0412303Y0272697D02*
D03*
X0412303Y0282736D02*
D03*
X0419389Y0282736D02*
D03*
X0398425Y0319252D02*
D03*
X0391338Y0319252D02*
D03*
X0391338Y0329291D02*
D03*
X0398425Y0329291D02*
D03*
X0475098Y0282244D02*
D03*
X0468011Y0282244D02*
D03*
X0468011Y0272204D02*
D03*
X0475098Y0272204D02*
D03*
D168*
X0419389Y0276141D02*
D03*
X0419389Y0279291D02*
D03*
X0412303Y0279291D02*
D03*
X0412303Y0276141D02*
D03*
X0398425Y0322697D02*
D03*
X0398425Y0325846D02*
D03*
X0391338Y0325846D02*
D03*
X0391338Y0322697D02*
D03*
X0468011Y0275649D02*
D03*
X0468011Y0278799D02*
D03*
X0475098Y0278799D02*
D03*
X0475098Y0275649D02*
D03*
D176*
X0393228Y0339330D02*
D03*
X0398228Y0339330D02*
D03*
X0403228Y0339330D02*
D03*
X0408228Y0339330D02*
D03*
X0413228Y0339330D02*
D03*
X0418228Y0339330D02*
D03*
X0423228Y0339330D02*
D03*
X0428228Y0339330D02*
D03*
X0393228Y0358228D02*
D03*
X0398228Y0358228D02*
D03*
X0403228Y0358228D02*
D03*
X0408228Y0358228D02*
D03*
X0413228Y0358228D02*
D03*
X0418228Y0358228D02*
D03*
X0423228Y0358228D02*
D03*
X0428228Y0358228D02*
D03*
X0469665Y0358425D02*
D03*
X0464665Y0358425D02*
D03*
X0459665Y0358425D02*
D03*
X0454665Y0358425D02*
D03*
X0449665Y0358425D02*
D03*
X0444665Y0358425D02*
D03*
X0439665Y0358425D02*
D03*
X0434665Y0358425D02*
D03*
X0469665Y0339527D02*
D03*
X0464665Y0339527D02*
D03*
X0459665Y0339527D02*
D03*
X0454665Y0339527D02*
D03*
X0449665Y0339527D02*
D03*
X0444665Y0339527D02*
D03*
X0439665Y0339527D02*
D03*
X0434665Y0339527D02*
D03*
X0476260Y0339527D02*
D03*
X0481260Y0339527D02*
D03*
X0486260Y0339527D02*
D03*
X0491260Y0339527D02*
D03*
X0476260Y0358425D02*
D03*
X0481260Y0358425D02*
D03*
X0486260Y0358425D02*
D03*
X0491260Y0358425D02*
D03*
D210*
X0473032Y0214350D02*
D03*
X0473032Y0209350D02*
D03*
X0473032Y0204350D02*
D03*
X0473032Y0199350D02*
D03*
X0491929Y0214350D02*
D03*
X0491929Y0209350D02*
D03*
X0491929Y0204350D02*
D03*
X0491929Y0199350D02*
D03*
X0490158Y0221201D02*
D03*
X0490158Y0226200D02*
D03*
X0490158Y0231200D02*
D03*
X0490158Y0236201D02*
D03*
X0471260Y0221201D02*
D03*
X0471260Y0226200D02*
D03*
X0471260Y0231200D02*
D03*
X0471260Y0236201D02*
D03*
D310*
X0392716Y0220728D02*
D03*
X0392716Y0213248D02*
D03*
X0399606Y0213248D02*
D03*
X0399606Y0220728D02*
D03*
X0406496Y0220728D02*
D03*
X0406496Y0213248D02*
D03*
X0413386Y0213248D02*
D03*
X0413386Y0220728D02*
D03*
X0420275Y0220728D02*
D03*
X0420275Y0213248D02*
D03*
X0427165Y0213248D02*
D03*
X0427165Y0220728D02*
D03*
X0434055Y0220728D02*
D03*
X0434055Y0213248D02*
D03*
X0440945Y0213248D02*
D03*
X0440945Y0220728D02*
D03*
X0453445Y0199763D02*
D03*
X0453445Y0207244D02*
D03*
X0446260Y0207047D02*
D03*
X0446260Y0199567D02*
D03*
D151*
X0431201Y0227027D02*
D03*
X0431201Y0240019D02*
D03*
X0393996Y0239626D02*
D03*
X0393996Y0226634D02*
D03*
X0415157Y0227027D02*
D03*
X0415157Y0240019D02*
D03*
X0423326Y0240019D02*
D03*
X0423326Y0227027D02*
D03*
D10*
X0440748Y0206653D02*
D03*
X0434449Y0206653D02*
D03*
X0434350Y0201043D02*
D03*
X0440649Y0201043D02*
D03*
X0438287Y0227126D02*
D03*
X0444586Y0227126D02*
D03*
X0469162Y0316689D02*
D03*
X0462863Y0316689D02*
D03*
X0409153Y0241004D02*
D03*
X0402854Y0241004D02*
D03*
D135*
X0482185Y0331161D02*
D03*
X0489665Y0331161D02*
D03*
X0117717Y0350295D02*
G01*
G75*
D58*
X0120276Y0351379D02*
D03*
X0124902Y0351379D02*
D03*
X0148032Y0351379D02*
D03*
X0145040Y0351379D02*
D03*
X0140414Y0351379D02*
D03*
X0129528Y0351379D02*
D03*
X0135788Y0351379D02*
D03*
X0132481Y0351379D02*
D03*
D253*
X0144765Y0368996D02*
D03*
X0144765Y0371555D02*
D03*
X0144765Y0374114D02*
D03*
X0144765Y0376673D02*
D03*
X0144765Y0379232D02*
D03*
X0144765Y0381791D02*
D03*
X0144765Y0384350D02*
D03*
X0144765Y0386909D02*
D03*
X0144765Y0389468D02*
D03*
X0144765Y0392027D02*
D03*
X0144765Y0394586D02*
D03*
X0144765Y0397145D02*
D03*
X0121772Y0368996D02*
D03*
X0121772Y0371555D02*
D03*
X0121772Y0374114D02*
D03*
X0121772Y0376673D02*
D03*
X0121772Y0379232D02*
D03*
X0121772Y0381791D02*
D03*
X0121772Y0384350D02*
D03*
X0121772Y0386909D02*
D03*
X0121772Y0389468D02*
D03*
X0121772Y0392027D02*
D03*
X0121772Y0394586D02*
D03*
X0121772Y0397145D02*
D03*
D287*
X0121792Y0401082D02*
D03*
X0128013Y0401082D02*
D03*
X0138544Y0401082D02*
D03*
X0132323Y0401082D02*
D03*
D274*
X0140552Y0363878D02*
D03*
X0146851Y0363878D02*
D03*
X0127560Y0363484D02*
D03*
X0133859Y0363484D02*
D03*
D332*
X0135635Y0352854D02*
D03*
X0135635Y0359153D02*
D03*
X0129312Y0359153D02*
D03*
X0129312Y0352854D02*
D03*
X0124686Y0352854D02*
D03*
X0124686Y0359153D02*
D03*
X0144863Y0359055D02*
D03*
X0144863Y0352756D02*
D03*
X0120060Y0359153D02*
D03*
X0120060Y0352854D02*
D03*
X0140257Y0359153D02*
D03*
X0140257Y0352854D02*
D03*
D95*
X0124016Y0399803D02*
D03*
X0140060Y0398622D02*
D03*
X0147343Y0371555D02*
D03*
X0142186Y0374114D02*
D03*
X0140414Y0380512D02*
D03*
X0147343Y0379232D02*
D03*
X0140119Y0383858D02*
D03*
X0139272Y0387303D02*
D03*
X0147343Y0389468D02*
D03*
X0140119Y0391141D02*
D03*
X0437106Y0403150D02*
G01*
G75*
D147*
X0437972Y0404626D02*
D03*
D99*
X0458346Y0445571D02*
D03*
D35*
X0443504Y0451969D02*
D03*
D287*
X0440492Y0435138D02*
D03*
X0446712Y0435138D02*
D03*
D265*
X0443602Y0449607D02*
D03*
X0456594Y0449607D02*
D03*
X0456791Y0441437D02*
D03*
X0443799Y0441437D02*
D03*
D274*
X0450787Y0435276D02*
D03*
X0457086Y0435276D02*
D03*
D176*
X0455630Y0428150D02*
D03*
X0450630Y0428150D02*
D03*
X0445630Y0428150D02*
D03*
X0440630Y0428150D02*
D03*
X0455630Y0409253D02*
D03*
X0450630Y0409253D02*
D03*
X0445630Y0409253D02*
D03*
X0440630Y0409253D02*
D03*
D95*
X0452067Y0415748D02*
D03*
X0455610Y0415748D02*
D03*
X0440551Y0415748D02*
D03*
X0445571Y0415748D02*
D03*
X0447756Y0441044D02*
D03*
X0169173Y0412913D02*
G01*
G75*
D278*
X0212480Y0413996D02*
D03*
D147*
X0171732Y0414193D02*
D03*
X0173701Y0414193D02*
D03*
D174*
X0180590Y0425925D02*
D03*
X0176850Y0416673D02*
D03*
D174*
X0173110Y0425925D02*
D03*
D210*
X0188149Y0437539D02*
D03*
X0188149Y0432539D02*
D03*
X0188149Y0427539D02*
D03*
X0188149Y0422539D02*
D03*
X0207047Y0437539D02*
D03*
X0207047Y0432539D02*
D03*
X0207047Y0427539D02*
D03*
X0207047Y0422539D02*
D03*
D287*
X0203858Y0417244D02*
D03*
X0210078Y0417244D02*
D03*
X0195512Y0417244D02*
D03*
X0189291Y0417244D02*
D03*
D10*
X0173700Y0430826D02*
D03*
X0180000Y0430826D02*
D03*
D95*
X0184330Y0414783D02*
D03*
X0200374Y0437322D02*
D03*
X0200669Y0423346D02*
D03*
X0199488Y0418326D02*
D03*
X0196043Y0420393D02*
D03*
X0270571Y0426476D02*
G01*
G75*
D133*
X0318228Y0437106D02*
D03*
X0318228Y0460531D02*
D03*
X0308228Y0437106D02*
D03*
X0308228Y0460531D02*
D03*
X0298228Y0437106D02*
D03*
X0298228Y0460531D02*
D03*
X0288228Y0437106D02*
D03*
X0288228Y0460531D02*
D03*
X0278228Y0437106D02*
D03*
X0278228Y0460531D02*
D03*
D226*
X0328287Y0450196D02*
D03*
X0334508Y0450196D02*
D03*
X0330846Y0438189D02*
D03*
X0337067Y0438189D02*
D03*
D265*
X0338484Y0444193D02*
D03*
X0325492Y0444193D02*
D03*
D274*
X0337008Y0433563D02*
D03*
X0330709Y0433563D02*
D03*
D186*
X0331004Y0464055D02*
D03*
X0327264Y0454803D02*
D03*
D186*
X0334744Y0454803D02*
D03*
D220*
X0326378Y0433012D02*
D03*
X0326378Y0439232D02*
D03*
D82*
X0318228Y0453819D02*
D03*
X0318228Y0443819D02*
D03*
X0308228Y0453819D02*
D03*
X0308228Y0443819D02*
D03*
X0298228Y0453819D02*
D03*
X0298228Y0443819D02*
D03*
X0288228Y0453819D02*
D03*
X0288228Y0443819D02*
D03*
X0278228Y0453819D02*
D03*
D159*
X0278228Y0443819D02*
D03*
X0529921Y0381988D02*
%LPD*%
G01*
G36*
G01*
X0566028Y0313300D02*
X0566028Y0314851D01*
G75*
G02*
X0566705Y0315528I0000677J0000000D01*
G01*
X0568059Y0315528D01*
G75*
G02*
X0568736Y0314851I0000000J-000677D01*
G01*
X0568736Y0313300D01*
G75*
G02*
X0568059Y0312622I-000677J0000000D01*
G01*
X0566705Y0312622D01*
G75*
G02*
X0566028Y0313300I0000000J0000677D01*
G01*
G37*
G36*
G01*
X0569847Y0313300D02*
X0569847Y0314851D01*
G75*
G02*
X0570524Y0315528I0000677J0000000D01*
G01*
X0571878Y0315528D01*
G75*
G02*
X0572555Y0314851I0000000J-000677D01*
G01*
X0572555Y0313300D01*
G75*
G02*
X0571878Y0312622I-000677J0000000D01*
G01*
X0570524Y0312622D01*
G75*
G02*
X0569847Y0313300I0000000J0000677D01*
G01*
G37*
G36*
G01*
X0541660Y0278380D02*
X0540108Y0278380D01*
G75*
G02*
X0539431Y0279057I0000000J0000677D01*
G01*
X0539431Y0280412D01*
G75*
G02*
X0540108Y0281089I0000677J0000000D01*
G01*
X0541660Y0281089D01*
G75*
G02*
X0542337Y0280412I0000000J-000677D01*
G01*
X0542337Y0279057D01*
G75*
G02*
X0541660Y0278380I-000677J0000000D01*
G01*
G37*
G36*
G01*
X0541660Y0282199D02*
X0540108Y0282199D01*
G75*
G02*
X0539431Y0282876I0000000J0000677D01*
G01*
X0539431Y0284231D01*
G75*
G02*
X0540108Y0284908I0000677J0000000D01*
G01*
X0541660Y0284908D01*
G75*
G02*
X0542337Y0284231I0000000J-000677D01*
G01*
X0542337Y0282876D01*
G75*
G02*
X0541660Y0282199I-000677J0000000D01*
G01*
G37*
G36*
G01*
X0566358Y0276158D02*
X0567910Y0276158D01*
G75*
G02*
X0568587Y0275481I0000000J-000677D01*
G01*
X0568587Y0274126D01*
G75*
G02*
X0567910Y0273449I-000677J0000000D01*
G01*
X0566358Y0273449D01*
G75*
G02*
X0565681Y0274126I0000000J0000677D01*
G01*
X0565681Y0275481D01*
G75*
G02*
X0566358Y0276158I0000677J0000000D01*
G01*
G37*
G36*
G01*
X0566358Y0272339D02*
X0567910Y0272339D01*
G75*
G02*
X0568587Y0271662I0000000J-000677D01*
G01*
X0568587Y0270307D01*
G75*
G02*
X0567910Y0269630I-000677J0000000D01*
G01*
X0566358Y0269630D01*
G75*
G02*
X0565681Y0270307I0000000J0000677D01*
G01*
X0565681Y0271662D01*
G75*
G02*
X0566358Y0272339I0000677J0000000D01*
G01*
G37*
G36*
G01*
X0549977Y0376181D02*
X0551528Y0376181D01*
G75*
G02*
X0552205Y0375504I0000000J-000677D01*
G01*
X0552205Y0374150D01*
G75*
G02*
X0551528Y0373473I-000677J0000000D01*
G01*
X0549977Y0373473D01*
G75*
G02*
X0549299Y0374150I0000000J0000677D01*
G01*
X0549299Y0375504D01*
G75*
G02*
X0549977Y0376181I0000677J0000000D01*
G01*
G37*
G36*
G01*
X0549977Y0372363D02*
X0551528Y0372363D01*
G75*
G02*
X0552205Y0371685I0000000J-000677D01*
G01*
X0552205Y0370331D01*
G75*
G02*
X0551528Y0369654I-000677J0000000D01*
G01*
X0549977Y0369654D01*
G75*
G02*
X0549299Y0370331I0000000J0000677D01*
G01*
X0549299Y0371685D01*
G75*
G02*
X0549977Y0372363I0000677J0000000D01*
G01*
G37*
G36*
G01*
X0564268Y0362523D02*
X0564268Y0360312D01*
G75*
G02*
X0563310Y0359355I-000958J0000000D01*
G01*
X0561395Y0359355D01*
G75*
G02*
X0560437Y0360312I0000000J0000958D01*
G01*
X0560437Y0362523D01*
G75*
G02*
X0561395Y0363481I0000958J0000000D01*
G01*
X0563310Y0363481D01*
G75*
G02*
X0564268Y0362523I0000000J-000958D01*
G01*
G37*
G36*
G01*
X0558067Y0362523D02*
X0558067Y0360312D01*
G75*
G02*
X0557109Y0359355I-000958J0000000D01*
G01*
X0555194Y0359355D01*
G75*
G02*
X0554236Y0360312I0000000J0000958D01*
G01*
X0554236Y0362523D01*
G75*
G02*
X0555194Y0363481I0000958J0000000D01*
G01*
X0557109Y0363481D01*
G75*
G02*
X0558067Y0362523I0000000J-000958D01*
G01*
G37*
G36*
G01*
X0567029Y0291910D02*
X0569239Y0291910D01*
G75*
G02*
X0570197Y0290952I0000000J-000958D01*
G01*
X0570197Y0289037D01*
G75*
G02*
X0569239Y0288079I-000958J0000000D01*
G01*
X0567029Y0288079D01*
G75*
G02*
X0566071Y0289037I0000000J0000958D01*
G01*
X0566071Y0290952D01*
G75*
G02*
X0567029Y0291910I0000958J0000000D01*
G01*
G37*
G36*
G01*
X0567029Y0285709D02*
X0569239Y0285709D01*
G75*
G02*
X0570197Y0284751I0000000J-000958D01*
G01*
X0570197Y0282836D01*
G75*
G02*
X0569239Y0281878I-000958J0000000D01*
G01*
X0567029Y0281878D01*
G75*
G02*
X0566071Y0282836I0000000J0000958D01*
G01*
X0566071Y0284751D01*
G75*
G02*
X0567029Y0285709I0000958J0000000D01*
G01*
G37*
G36*
G01*
X0541660Y0286130D02*
X0540108Y0286130D01*
G75*
G02*
X0539431Y0286807I0000000J0000677D01*
G01*
X0539431Y0288162D01*
G75*
G02*
X0540108Y0288839I0000677J0000000D01*
G01*
X0541660Y0288839D01*
G75*
G02*
X0542337Y0288162I0000000J-000677D01*
G01*
X0542337Y0286807D01*
G75*
G02*
X0541660Y0286130I-000677J0000000D01*
G01*
G37*
G36*
G01*
X0541660Y0289949D02*
X0540108Y0289949D01*
G75*
G02*
X0539431Y0290626I0000000J0000677D01*
G01*
X0539431Y0291981D01*
G75*
G02*
X0540108Y0292658I0000677J0000000D01*
G01*
X0541660Y0292658D01*
G75*
G02*
X0542337Y0291981I0000000J-000677D01*
G01*
X0542337Y0290626D01*
G75*
G02*
X0541660Y0289949I-000677J0000000D01*
G01*
G37*
G36*
G01*
X0557870Y0274118D02*
X0557870Y0275670D01*
G75*
G02*
X0558547Y0276347I0000677J0000000D01*
G01*
X0559902Y0276347D01*
G75*
G02*
X0560579Y0275670I0000000J-000677D01*
G01*
X0560579Y0274118D01*
G75*
G02*
X0559902Y0273441I-000677J0000000D01*
G01*
X0558547Y0273441D01*
G75*
G02*
X0557870Y0274118I0000000J0000677D01*
G01*
G37*
G36*
G01*
X0561689Y0274118D02*
X0561689Y0275670D01*
G75*
G02*
X0562366Y0276347I0000677J0000000D01*
G01*
X0563721Y0276347D01*
G75*
G02*
X0564398Y0275670I0000000J-000677D01*
G01*
X0564398Y0274118D01*
G75*
G02*
X0563721Y0273441I-000677J0000000D01*
G01*
X0562366Y0273441D01*
G75*
G02*
X0561689Y0274118I0000000J0000677D01*
G01*
G37*
G36*
G01*
X0580232Y0280599D02*
X0580232Y0279048D01*
G75*
G02*
X0579555Y0278370I-000677J0000000D01*
G01*
X0578201Y0278370D01*
G75*
G02*
X0577524Y0279048I0000000J0000677D01*
G01*
X0577524Y0280599D01*
G75*
G02*
X0578201Y0281276I0000677J0000000D01*
G01*
X0579555Y0281276D01*
G75*
G02*
X0580232Y0280599I0000000J-000677D01*
G01*
G37*
G36*
G01*
X0576414Y0280599D02*
X0576414Y0279048D01*
G75*
G02*
X0575736Y0278370I-000677J0000000D01*
G01*
X0574382Y0278370D01*
G75*
G02*
X0573705Y0279048I0000000J0000677D01*
G01*
X0573705Y0280599D01*
G75*
G02*
X0574382Y0281276I0000677J0000000D01*
G01*
X0575736Y0281276D01*
G75*
G02*
X0576414Y0280599I0000000J-000677D01*
G01*
G37*
G36*
G01*
X0583280Y0285252D02*
X0584831Y0285252D01*
G75*
G02*
X0585508Y0284575I0000000J-000677D01*
G01*
X0585508Y0283221D01*
G75*
G02*
X0584831Y0282544I-000677J0000000D01*
G01*
X0583280Y0282544D01*
G75*
G02*
X0582603Y0283221I0000000J0000677D01*
G01*
X0582603Y0284575D01*
G75*
G02*
X0583280Y0285252I0000677J0000000D01*
G01*
G37*
G36*
G01*
X0583280Y0281433D02*
X0584831Y0281433D01*
G75*
G02*
X0585508Y0280756I0000000J-000677D01*
G01*
X0585508Y0279402D01*
G75*
G02*
X0584831Y0278725I-000677J0000000D01*
G01*
X0583280Y0278725D01*
G75*
G02*
X0582603Y0279402I0000000J0000677D01*
G01*
X0582603Y0280756D01*
G75*
G02*
X0583280Y0281433I0000677J0000000D01*
G01*
G37*
G36*
G01*
X0584461Y0310055D02*
X0586012Y0310055D01*
G75*
G02*
X0586689Y0309378I0000000J-000677D01*
G01*
X0586689Y0308024D01*
G75*
G02*
X0586012Y0307347I-000677J0000000D01*
G01*
X0584461Y0307347D01*
G75*
G02*
X0583784Y0308024I0000000J0000677D01*
G01*
X0583784Y0309378D01*
G75*
G02*
X0584461Y0310055I0000677J0000000D01*
G01*
G37*
G36*
G01*
X0584461Y0306237D02*
X0586012Y0306237D01*
G75*
G02*
X0586689Y0305559I0000000J-000677D01*
G01*
X0586689Y0304205D01*
G75*
G02*
X0586012Y0303528I-000677J0000000D01*
G01*
X0584461Y0303528D01*
G75*
G02*
X0583784Y0304205I0000000J0000677D01*
G01*
X0583784Y0305559D01*
G75*
G02*
X0584461Y0306237I0000677J0000000D01*
G01*
G37*
G36*
G01*
X0541660Y0293880D02*
X0540108Y0293880D01*
G75*
G02*
X0539431Y0294557I0000000J0000677D01*
G01*
X0539431Y0295912D01*
G75*
G02*
X0540108Y0296589I0000677J0000000D01*
G01*
X0541660Y0296589D01*
G75*
G02*
X0542337Y0295912I0000000J-000677D01*
G01*
X0542337Y0294557D01*
G75*
G02*
X0541660Y0293880I-000677J0000000D01*
G01*
G37*
G36*
G01*
X0541660Y0297699D02*
X0540108Y0297699D01*
G75*
G02*
X0539431Y0298376I0000000J0000677D01*
G01*
X0539431Y0299731D01*
G75*
G02*
X0540108Y0300408I0000677J0000000D01*
G01*
X0541660Y0300408D01*
G75*
G02*
X0542337Y0299731I0000000J-000677D01*
G01*
X0542337Y0298376D01*
G75*
G02*
X0541660Y0297699I-000677J0000000D01*
G01*
G37*
G36*
G01*
X0541660Y0301630D02*
X0540108Y0301630D01*
G75*
G02*
X0539431Y0302307I0000000J0000677D01*
G01*
X0539431Y0303662D01*
G75*
G02*
X0540108Y0304339I0000677J0000000D01*
G01*
X0541660Y0304339D01*
G75*
G02*
X0542337Y0303662I0000000J-000677D01*
G01*
X0542337Y0302307D01*
G75*
G02*
X0541660Y0301630I-000677J0000000D01*
G01*
G37*
G36*
G01*
X0541660Y0305449D02*
X0540108Y0305449D01*
G75*
G02*
X0539431Y0306126I0000000J0000677D01*
G01*
X0539431Y0307481D01*
G75*
G02*
X0540108Y0308158I0000677J0000000D01*
G01*
X0541660Y0308158D01*
G75*
G02*
X0542337Y0307481I0000000J-000677D01*
G01*
X0542337Y0306126D01*
G75*
G02*
X0541660Y0305449I-000677J0000000D01*
G01*
G37*
G36*
G01*
X0565870Y0278118D02*
X0565870Y0279670D01*
G75*
G02*
X0566547Y0280347I0000677J0000000D01*
G01*
X0567902Y0280347D01*
G75*
G02*
X0568579Y0279670I0000000J-000677D01*
G01*
X0568579Y0278118D01*
G75*
G02*
X0567902Y0277441I-000677J0000000D01*
G01*
X0566547Y0277441D01*
G75*
G02*
X0565870Y0278118I0000000J0000677D01*
G01*
G37*
G36*
G01*
X0569689Y0278118D02*
X0569689Y0279670D01*
G75*
G02*
X0570366Y0280347I0000677J0000000D01*
G01*
X0571721Y0280347D01*
G75*
G02*
X0572398Y0279670I0000000J-000677D01*
G01*
X0572398Y0278118D01*
G75*
G02*
X0571721Y0277441I-000677J0000000D01*
G01*
X0570366Y0277441D01*
G75*
G02*
X0569689Y0278118I0000000J0000677D01*
G01*
G37*
G36*
G01*
X0557687Y0366016D02*
X0554537Y0366016D01*
G75*
G02*
X0554344Y0366209I0000000J0000193D01*
G01*
X0554344Y0369752D01*
G75*
G02*
X0554537Y0369945I0000193J0000000D01*
G01*
X0557687Y0369945D01*
G75*
G02*
X0557880Y0369752I0000000J-000193D01*
G01*
X0557880Y0366209D01*
G75*
G02*
X0557687Y0366016I-000193J0000000D01*
G01*
G37*
G36*
G01*
X0565167Y0366016D02*
X0562017Y0366016D01*
G75*
G02*
X0561825Y0366209I0000000J0000193D01*
G01*
X0561825Y0369752D01*
G75*
G02*
X0562017Y0369945I0000193J0000000D01*
G01*
X0565167Y0369945D01*
G75*
G02*
X0565360Y0369752I0000000J-000193D01*
G01*
X0565360Y0366209D01*
G75*
G02*
X0565167Y0366016I-000193J0000000D01*
G01*
G37*
G36*
G01*
X0561427Y0373890D02*
X0558277Y0373890D01*
G75*
G02*
X0558084Y0374083I0000000J0000193D01*
G01*
X0558084Y0377626D01*
G75*
G02*
X0558277Y0377819I0000193J0000000D01*
G01*
X0561427Y0377819D01*
G75*
G02*
X0561620Y0377626I0000000J-000193D01*
G01*
X0561620Y0374083D01*
G75*
G02*
X0561427Y0373890I-000193J0000000D01*
G01*
G37*
G36*
G01*
X0560925Y0307555D02*
X0562697Y0307555D01*
G75*
G02*
X0562890Y0307363I0000000J-000193D01*
G01*
X0562890Y0301654D01*
G75*
G02*
X0562697Y0301461I-000193J0000000D01*
G01*
X0560925Y0301461D01*
G75*
G02*
X0560732Y0301654I0000000J0000193D01*
G01*
X0560732Y0307363D01*
G75*
G02*
X0560925Y0307555I0000193J0000000D01*
G01*
G37*
G36*
G01*
X0558366Y0307555D02*
X0560138Y0307555D01*
G75*
G02*
X0560331Y0307363I0000000J-000193D01*
G01*
X0560331Y0301654D01*
G75*
G02*
X0560138Y0301461I-000193J0000000D01*
G01*
X0558366Y0301461D01*
G75*
G02*
X0558173Y0301654I0000000J0000193D01*
G01*
X0558173Y0307363D01*
G75*
G02*
X0558366Y0307555I0000193J0000000D01*
G01*
G37*
G36*
G01*
X0555807Y0307555D02*
X0557579Y0307555D01*
G75*
G02*
X0557772Y0307363I0000000J-000193D01*
G01*
X0557772Y0301654D01*
G75*
G02*
X0557579Y0301461I-000193J0000000D01*
G01*
X0555807Y0301461D01*
G75*
G02*
X0555614Y0301654I0000000J0000193D01*
G01*
X0555614Y0307363D01*
G75*
G02*
X0555807Y0307555I0000193J0000000D01*
G01*
G37*
G36*
G01*
X0553248Y0307555D02*
X0555020Y0307555D01*
G75*
G02*
X0555213Y0307363I0000000J-000193D01*
G01*
X0555213Y0301654D01*
G75*
G02*
X0555020Y0301461I-000193J0000000D01*
G01*
X0553248Y0301461D01*
G75*
G02*
X0553055Y0301654I0000000J0000193D01*
G01*
X0553055Y0307363D01*
G75*
G02*
X0553248Y0307555I0000193J0000000D01*
G01*
G37*
G36*
G01*
X0550689Y0307555D02*
X0552461Y0307555D01*
G75*
G02*
X0552654Y0307363I0000000J-000193D01*
G01*
X0552654Y0301654D01*
G75*
G02*
X0552461Y0301461I-000193J0000000D01*
G01*
X0550689Y0301461D01*
G75*
G02*
X0550496Y0301654I0000000J0000193D01*
G01*
X0550496Y0307363D01*
G75*
G02*
X0550689Y0307555I0000193J0000000D01*
G01*
G37*
G36*
G01*
X0548130Y0307555D02*
X0549902Y0307555D01*
G75*
G02*
X0550095Y0307363I0000000J-000193D01*
G01*
X0550095Y0301654D01*
G75*
G02*
X0549902Y0301461I-000193J0000000D01*
G01*
X0548130Y0301461D01*
G75*
G02*
X0547937Y0301654I0000000J0000193D01*
G01*
X0547937Y0307363D01*
G75*
G02*
X0548130Y0307555I0000193J0000000D01*
G01*
G37*
G36*
G01*
X0545571Y0307555D02*
X0547343Y0307555D01*
G75*
G02*
X0547536Y0307363I0000000J-000193D01*
G01*
X0547536Y0301654D01*
G75*
G02*
X0547343Y0301461I-000193J0000000D01*
G01*
X0545571Y0301461D01*
G75*
G02*
X0545378Y0301654I0000000J0000193D01*
G01*
X0545378Y0307363D01*
G75*
G02*
X0545571Y0307555I0000193J0000000D01*
G01*
G37*
G36*
G01*
X0545571Y0284327D02*
X0547343Y0284327D01*
G75*
G02*
X0547536Y0284134I0000000J-000193D01*
G01*
X0547536Y0278425D01*
G75*
G02*
X0547343Y0278233I-000193J0000000D01*
G01*
X0545571Y0278233D01*
G75*
G02*
X0545378Y0278425I0000000J0000193D01*
G01*
X0545378Y0284134D01*
G75*
G02*
X0545571Y0284327I0000193J0000000D01*
G01*
G37*
G36*
G01*
X0548130Y0284327D02*
X0549902Y0284327D01*
G75*
G02*
X0550095Y0284134I0000000J-000193D01*
G01*
X0550095Y0278425D01*
G75*
G02*
X0549902Y0278233I-000193J0000000D01*
G01*
X0548130Y0278233D01*
G75*
G02*
X0547937Y0278425I0000000J0000193D01*
G01*
X0547937Y0284134D01*
G75*
G02*
X0548130Y0284327I0000193J0000000D01*
G01*
G37*
G36*
G01*
X0550689Y0284327D02*
X0552461Y0284327D01*
G75*
G02*
X0552654Y0284134I0000000J-000193D01*
G01*
X0552654Y0278425D01*
G75*
G02*
X0552461Y0278233I-000193J0000000D01*
G01*
X0550689Y0278233D01*
G75*
G02*
X0550496Y0278425I0000000J0000193D01*
G01*
X0550496Y0284134D01*
G75*
G02*
X0550689Y0284327I0000193J0000000D01*
G01*
G37*
G36*
G01*
X0553248Y0284327D02*
X0555020Y0284327D01*
G75*
G02*
X0555213Y0284134I0000000J-000193D01*
G01*
X0555213Y0278425D01*
G75*
G02*
X0555020Y0278233I-000193J0000000D01*
G01*
X0553248Y0278233D01*
G75*
G02*
X0553055Y0278425I0000000J0000193D01*
G01*
X0553055Y0284134D01*
G75*
G02*
X0553248Y0284327I0000193J0000000D01*
G01*
G37*
G36*
G01*
X0555807Y0284327D02*
X0557579Y0284327D01*
G75*
G02*
X0557772Y0284134I0000000J-000193D01*
G01*
X0557772Y0278425D01*
G75*
G02*
X0557579Y0278233I-000193J0000000D01*
G01*
X0555807Y0278233D01*
G75*
G02*
X0555614Y0278425I0000000J0000193D01*
G01*
X0555614Y0284134D01*
G75*
G02*
X0555807Y0284327I0000193J0000000D01*
G01*
G37*
G36*
G01*
X0558366Y0284327D02*
X0560138Y0284327D01*
G75*
G02*
X0560331Y0284134I0000000J-000193D01*
G01*
X0560331Y0278425D01*
G75*
G02*
X0560138Y0278233I-000193J0000000D01*
G01*
X0558366Y0278233D01*
G75*
G02*
X0558173Y0278425I0000000J0000193D01*
G01*
X0558173Y0284134D01*
G75*
G02*
X0558366Y0284327I0000193J0000000D01*
G01*
G37*
G36*
G01*
X0560925Y0284327D02*
X0562697Y0284327D01*
G75*
G02*
X0562890Y0284134I0000000J-000193D01*
G01*
X0562890Y0278425D01*
G75*
G02*
X0562697Y0278233I-000193J0000000D01*
G01*
X0560925Y0278233D01*
G75*
G02*
X0560732Y0278425I0000000J0000193D01*
G01*
X0560732Y0284134D01*
G75*
G02*
X0560925Y0284327I0000193J0000000D01*
G01*
G37*
G36*
G01*
X0557870Y0270118D02*
X0557870Y0271670D01*
G75*
G02*
X0558547Y0272347I0000677J0000000D01*
G01*
X0559902Y0272347D01*
G75*
G02*
X0560579Y0271670I0000000J-000677D01*
G01*
X0560579Y0270118D01*
G75*
G02*
X0559902Y0269441I-000677J0000000D01*
G01*
X0558547Y0269441D01*
G75*
G02*
X0557870Y0270118I0000000J0000677D01*
G01*
G37*
G36*
G01*
X0561689Y0270118D02*
X0561689Y0271670D01*
G75*
G02*
X0562366Y0272347I0000677J0000000D01*
G01*
X0563721Y0272347D01*
G75*
G02*
X0564398Y0271670I0000000J-000677D01*
G01*
X0564398Y0270118D01*
G75*
G02*
X0563721Y0269441I-000677J0000000D01*
G01*
X0562366Y0269441D01*
G75*
G02*
X0561689Y0270118I0000000J0000677D01*
G01*
G37*
G36*
G01*
X0580721Y0317536D02*
X0582272Y0317536D01*
G75*
G02*
X0582949Y0316859I0000000J-000677D01*
G01*
X0582949Y0315504D01*
G75*
G02*
X0582272Y0314827I-000677J0000000D01*
G01*
X0580721Y0314827D01*
G75*
G02*
X0580043Y0315504I0000000J0000677D01*
G01*
X0580043Y0316859D01*
G75*
G02*
X0580721Y0317536I0000677J0000000D01*
G01*
G37*
G36*
G01*
X0580721Y0313717D02*
X0582272Y0313717D01*
G75*
G02*
X0582949Y0313040I0000000J-000677D01*
G01*
X0582949Y0311685D01*
G75*
G02*
X0582272Y0311008I-000677J0000000D01*
G01*
X0580721Y0311008D01*
G75*
G02*
X0580043Y0311685I0000000J0000677D01*
G01*
X0580043Y0313040D01*
G75*
G02*
X0580721Y0313717I0000677J0000000D01*
G01*
G37*
G36*
G01*
X0586012Y0311008D02*
X0584461Y0311008D01*
G75*
G02*
X0583784Y0311685I0000000J0000677D01*
G01*
X0583784Y0313040D01*
G75*
G02*
X0584461Y0313717I0000677J0000000D01*
G01*
X0586012Y0313717D01*
G75*
G02*
X0586689Y0313040I0000000J-000677D01*
G01*
X0586689Y0311685D01*
G75*
G02*
X0586012Y0311008I-000677J0000000D01*
G01*
G37*
G36*
G01*
X0586012Y0314827D02*
X0584461Y0314827D01*
G75*
G02*
X0583784Y0315504I0000000J0000677D01*
G01*
X0583784Y0316859D01*
G75*
G02*
X0584461Y0317536I0000677J0000000D01*
G01*
X0586012Y0317536D01*
G75*
G02*
X0586689Y0316859I0000000J-000677D01*
G01*
X0586689Y0315504D01*
G75*
G02*
X0586012Y0314827I-000677J0000000D01*
G01*
G37*
G36*
G01*
X0565075Y0314851D02*
X0565075Y0313300D01*
G75*
G02*
X0564398Y0312622I-000677J0000000D01*
G01*
X0563043Y0312622D01*
G75*
G02*
X0562366Y0313300I0000000J0000677D01*
G01*
X0562366Y0314851D01*
G75*
G02*
X0563043Y0315528I0000677J0000000D01*
G01*
X0564398Y0315528D01*
G75*
G02*
X0565075Y0314851I0000000J-000677D01*
G01*
G37*
G36*
G01*
X0561256Y0314851D02*
X0561256Y0313300D01*
G75*
G02*
X0560579Y0312622I-000677J0000000D01*
G01*
X0559225Y0312622D01*
G75*
G02*
X0558547Y0313300I0000000J0000677D01*
G01*
X0558547Y0314851D01*
G75*
G02*
X0559225Y0315528I0000677J0000000D01*
G01*
X0560579Y0315528D01*
G75*
G02*
X0561256Y0314851I0000000J-000677D01*
G01*
G37*
G36*
G01*
X0574886Y0268221D02*
X0574886Y0269772D01*
G75*
G02*
X0575563Y0270449I0000677J0000000D01*
G01*
X0576917Y0270449D01*
G75*
G02*
X0577595Y0269772I0000000J-000677D01*
G01*
X0577595Y0268221D01*
G75*
G02*
X0576917Y0267544I-000677J0000000D01*
G01*
X0575563Y0267544D01*
G75*
G02*
X0574886Y0268221I0000000J0000677D01*
G01*
G37*
G36*
G01*
X0578705Y0268221D02*
X0578705Y0269772D01*
G75*
G02*
X0579382Y0270449I0000677J0000000D01*
G01*
X0580736Y0270449D01*
G75*
G02*
X0581414Y0269772I0000000J-000677D01*
G01*
X0581414Y0268221D01*
G75*
G02*
X0580736Y0267544I-000677J0000000D01*
G01*
X0579382Y0267544D01*
G75*
G02*
X0578705Y0268221I0000000J0000677D01*
G01*
G37*
G36*
G01*
X0584461Y0343067D02*
X0586012Y0343067D01*
G75*
G02*
X0586689Y0342390I0000000J-000677D01*
G01*
X0586689Y0341036D01*
G75*
G02*
X0586012Y0340359I-000677J0000000D01*
G01*
X0584461Y0340359D01*
G75*
G02*
X0583784Y0341036I0000000J0000677D01*
G01*
X0583784Y0342390D01*
G75*
G02*
X0584461Y0343067I0000677J0000000D01*
G01*
G37*
G36*
G01*
X0584461Y0339248D02*
X0586012Y0339248D01*
G75*
G02*
X0586689Y0338571I0000000J-000677D01*
G01*
X0586689Y0337217D01*
G75*
G02*
X0586012Y0336540I-000677J0000000D01*
G01*
X0584461Y0336540D01*
G75*
G02*
X0583784Y0337217I0000000J0000677D01*
G01*
X0583784Y0338571D01*
G75*
G02*
X0584461Y0339248I0000677J0000000D01*
G01*
G37*
G36*
G01*
X0548933Y0319575D02*
X0548933Y0318024D01*
G75*
G02*
X0548256Y0317347I-000677J0000000D01*
G01*
X0546902Y0317347D01*
G75*
G02*
X0546225Y0318024I0000000J0000677D01*
G01*
X0546225Y0319575D01*
G75*
G02*
X0546902Y0320252I0000677J0000000D01*
G01*
X0548256Y0320252D01*
G75*
G02*
X0548933Y0319575I0000000J-000677D01*
G01*
G37*
G36*
G01*
X0545114Y0319575D02*
X0545114Y0318024D01*
G75*
G02*
X0544437Y0317347I-000677J0000000D01*
G01*
X0543083Y0317347D01*
G75*
G02*
X0542406Y0318024I0000000J0000677D01*
G01*
X0542406Y0319575D01*
G75*
G02*
X0543083Y0320252I0000677J0000000D01*
G01*
X0544437Y0320252D01*
G75*
G02*
X0545114Y0319575I0000000J-000677D01*
G01*
G37*
G36*
G01*
X0577642Y0353851D02*
X0577642Y0355402D01*
G75*
G02*
X0578319Y0356079I0000677J0000000D01*
G01*
X0579673Y0356079D01*
G75*
G02*
X0580351Y0355402I0000000J-000677D01*
G01*
X0580351Y0353851D01*
G75*
G02*
X0579673Y0353174I-000677J0000000D01*
G01*
X0578319Y0353174D01*
G75*
G02*
X0577642Y0353851I0000000J0000677D01*
G01*
G37*
G36*
G01*
X0581461Y0353851D02*
X0581461Y0355402D01*
G75*
G02*
X0582138Y0356079I0000677J0000000D01*
G01*
X0583492Y0356079D01*
G75*
G02*
X0584169Y0355402I0000000J-000677D01*
G01*
X0584169Y0353851D01*
G75*
G02*
X0583492Y0353174I-000677J0000000D01*
G01*
X0582138Y0353174D01*
G75*
G02*
X0581461Y0353851I0000000J0000677D01*
G01*
G37*
G36*
G01*
X0583953Y0246634D02*
X0583953Y0241910D01*
G75*
G02*
X0583760Y0241717I-000193J0000000D01*
G01*
X0575099Y0241717D01*
G75*
G02*
X0574906Y0241910I0000000J0000193D01*
G01*
X0574906Y0246634D01*
G75*
G02*
X0575099Y0246827I0000193J0000000D01*
G01*
X0583760Y0246827D01*
G75*
G02*
X0583953Y0246634I0000000J-000193D01*
G01*
G37*
G36*
G01*
X0567417Y0264666D02*
X0567417Y0241831D01*
G75*
G02*
X0567225Y0241638I-000193J0000000D01*
G01*
X0542028Y0241638D01*
G75*
G02*
X0541835Y0241831I0000000J0000193D01*
G01*
X0541835Y0264666D01*
G75*
G02*
X0542028Y0264859I0000193J0000000D01*
G01*
X0567225Y0264859D01*
G75*
G02*
X0567417Y0264666I0000000J-000193D01*
G01*
G37*
G36*
G01*
X0583953Y0264587D02*
X0583953Y0259863D01*
G75*
G02*
X0583760Y0259670I-000193J0000000D01*
G01*
X0575099Y0259670D01*
G75*
G02*
X0574906Y0259863I0000000J0000193D01*
G01*
X0574906Y0264587D01*
G75*
G02*
X0575099Y0264780I0000193J0000000D01*
G01*
X0583760Y0264780D01*
G75*
G02*
X0583953Y0264587I0000000J-000193D01*
G01*
G37*
G36*
G01*
X0536823Y0275666D02*
X0538374Y0275666D01*
G75*
G02*
X0539051Y0274988I0000000J-000677D01*
G01*
X0539051Y0273634D01*
G75*
G02*
X0538374Y0272957I-000677J0000000D01*
G01*
X0536823Y0272957D01*
G75*
G02*
X0536146Y0273634I0000000J0000677D01*
G01*
X0536146Y0274988D01*
G75*
G02*
X0536823Y0275666I0000677J0000000D01*
G01*
G37*
G36*
G01*
X0536823Y0271847D02*
X0538374Y0271847D01*
G75*
G02*
X0539051Y0271170I0000000J-000677D01*
G01*
X0539051Y0269815D01*
G75*
G02*
X0538374Y0269138I-000677J0000000D01*
G01*
X0536823Y0269138D01*
G75*
G02*
X0536146Y0269815I0000000J0000677D01*
G01*
X0536146Y0271170D01*
G75*
G02*
X0536823Y0271847I0000677J0000000D01*
G01*
G37*
G36*
G01*
X0542406Y0313496D02*
X0542406Y0315048D01*
G75*
G02*
X0543083Y0315725I0000677J0000000D01*
G01*
X0544437Y0315725D01*
G75*
G02*
X0545114Y0315048I0000000J-000677D01*
G01*
X0545114Y0313496D01*
G75*
G02*
X0544437Y0312819I-000677J0000000D01*
G01*
X0543083Y0312819D01*
G75*
G02*
X0542406Y0313496I0000000J0000677D01*
G01*
G37*
G36*
G01*
X0546225Y0313496D02*
X0546225Y0315048D01*
G75*
G02*
X0546902Y0315725I0000677J0000000D01*
G01*
X0548256Y0315725D01*
G75*
G02*
X0548933Y0315048I0000000J-000677D01*
G01*
X0548933Y0313496D01*
G75*
G02*
X0548256Y0312819I-000677J0000000D01*
G01*
X0546902Y0312819D01*
G75*
G02*
X0546225Y0313496I0000000J0000677D01*
G01*
G37*
G36*
G01*
X0583083Y0277437D02*
X0584634Y0277437D01*
G75*
G02*
X0585311Y0276760I0000000J-000677D01*
G01*
X0585311Y0275406D01*
G75*
G02*
X0584634Y0274729I-000677J0000000D01*
G01*
X0583083Y0274729D01*
G75*
G02*
X0582406Y0275406I0000000J0000677D01*
G01*
X0582406Y0276760D01*
G75*
G02*
X0583083Y0277437I0000677J0000000D01*
G01*
G37*
G36*
G01*
X0583083Y0273618D02*
X0584634Y0273618D01*
G75*
G02*
X0585311Y0272941I0000000J-000677D01*
G01*
X0585311Y0271587D01*
G75*
G02*
X0584634Y0270910I-000677J0000000D01*
G01*
X0583083Y0270910D01*
G75*
G02*
X0582406Y0271587I0000000J0000677D01*
G01*
X0582406Y0272941D01*
G75*
G02*
X0583083Y0273618I0000677J0000000D01*
G01*
G37*
G36*
G01*
X0549898Y0311170D02*
X0549898Y0309618D01*
G75*
G02*
X0549221Y0308941I-000677J0000000D01*
G01*
X0547866Y0308941D01*
G75*
G02*
X0547189Y0309618I0000000J0000677D01*
G01*
X0547189Y0311170D01*
G75*
G02*
X0547866Y0311847I0000677J0000000D01*
G01*
X0549221Y0311847D01*
G75*
G02*
X0549898Y0311170I0000000J-000677D01*
G01*
G37*
G36*
G01*
X0546079Y0311170D02*
X0546079Y0309618D01*
G75*
G02*
X0545402Y0308941I-000677J0000000D01*
G01*
X0544047Y0308941D01*
G75*
G02*
X0543370Y0309618I0000000J0000677D01*
G01*
X0543370Y0311170D01*
G75*
G02*
X0544047Y0311847I0000677J0000000D01*
G01*
X0545402Y0311847D01*
G75*
G02*
X0546079Y0311170I0000000J-000677D01*
G01*
G37*
G36*
G01*
X0550012Y0365370D02*
X0551563Y0365370D01*
G75*
G02*
X0552240Y0364693I0000000J-000677D01*
G01*
X0552240Y0363339D01*
G75*
G02*
X0551563Y0362662I-000677J0000000D01*
G01*
X0550012Y0362662D01*
G75*
G02*
X0549335Y0363339I0000000J0000677D01*
G01*
X0549335Y0364693D01*
G75*
G02*
X0550012Y0365370I0000677J0000000D01*
G01*
G37*
G36*
G01*
X0550012Y0361551D02*
X0551563Y0361551D01*
G75*
G02*
X0552240Y0360874I0000000J-000677D01*
G01*
X0552240Y0359520D01*
G75*
G02*
X0551563Y0358843I-000677J0000000D01*
G01*
X0550012Y0358843D01*
G75*
G02*
X0549335Y0359520I0000000J0000677D01*
G01*
X0549335Y0360874D01*
G75*
G02*
X0550012Y0361551I0000677J0000000D01*
G01*
G37*
G36*
G01*
X0540239Y0325878D02*
X0538029Y0325878D01*
G75*
G02*
X0537071Y0326836I0000000J0000958D01*
G01*
X0537071Y0328751D01*
G75*
G02*
X0538029Y0329709I0000958J0000000D01*
G01*
X0540239Y0329709D01*
G75*
G02*
X0541197Y0328751I0000000J-000958D01*
G01*
X0541197Y0326836D01*
G75*
G02*
X0540239Y0325878I-000958J0000000D01*
G01*
G37*
G36*
G01*
X0540239Y0332079D02*
X0538029Y0332079D01*
G75*
G02*
X0537071Y0333037I0000000J0000958D01*
G01*
X0537071Y0334952D01*
G75*
G02*
X0538029Y0335910I0000958J0000000D01*
G01*
X0540239Y0335910D01*
G75*
G02*
X0541197Y0334952I0000000J-000958D01*
G01*
X0541197Y0333037D01*
G75*
G02*
X0540239Y0332079I-000958J0000000D01*
G01*
G37*
G36*
G01*
X0539910Y0317630D02*
X0538358Y0317630D01*
G75*
G02*
X0537681Y0318307I0000000J0000677D01*
G01*
X0537681Y0319662D01*
G75*
G02*
X0538358Y0320339I0000677J0000000D01*
G01*
X0539910Y0320339D01*
G75*
G02*
X0540587Y0319662I0000000J-000677D01*
G01*
X0540587Y0318307D01*
G75*
G02*
X0539910Y0317630I-000677J0000000D01*
G01*
G37*
G36*
G01*
X0539910Y0321449D02*
X0538358Y0321449D01*
G75*
G02*
X0537681Y0322126I0000000J0000677D01*
G01*
X0537681Y0323481D01*
G75*
G02*
X0538358Y0324158I0000677J0000000D01*
G01*
X0539910Y0324158D01*
G75*
G02*
X0540587Y0323481I0000000J-000677D01*
G01*
X0540587Y0322126D01*
G75*
G02*
X0539910Y0321449I-000677J0000000D01*
G01*
G37*
G36*
G01*
X0567910Y0305130D02*
X0566358Y0305130D01*
G75*
G02*
X0565681Y0305807I0000000J0000677D01*
G01*
X0565681Y0307162D01*
G75*
G02*
X0566358Y0307839I0000677J0000000D01*
G01*
X0567910Y0307839D01*
G75*
G02*
X0568587Y0307162I0000000J-000677D01*
G01*
X0568587Y0305807D01*
G75*
G02*
X0567910Y0305130I-000677J0000000D01*
G01*
G37*
G36*
G01*
X0567910Y0308949D02*
X0566358Y0308949D01*
G75*
G02*
X0565681Y0309626I0000000J0000677D01*
G01*
X0565681Y0310981D01*
G75*
G02*
X0566358Y0311658I0000677J0000000D01*
G01*
X0567910Y0311658D01*
G75*
G02*
X0568587Y0310981I0000000J-000677D01*
G01*
X0568587Y0309626D01*
G75*
G02*
X0567910Y0308949I-000677J0000000D01*
G01*
G37*
G36*
G01*
X0572398Y0299670D02*
X0572398Y0298118D01*
G75*
G02*
X0571721Y0297441I-000677J0000000D01*
G01*
X0570366Y0297441D01*
G75*
G02*
X0569689Y0298118I0000000J0000677D01*
G01*
X0569689Y0299670D01*
G75*
G02*
X0570366Y0300347I0000677J0000000D01*
G01*
X0571721Y0300347D01*
G75*
G02*
X0572398Y0299670I0000000J-000677D01*
G01*
G37*
G36*
G01*
X0568579Y0299670D02*
X0568579Y0298118D01*
G75*
G02*
X0567902Y0297441I-000677J0000000D01*
G01*
X0566547Y0297441D01*
G75*
G02*
X0565870Y0298118I0000000J0000677D01*
G01*
X0565870Y0299670D01*
G75*
G02*
X0566547Y0300347I0000677J0000000D01*
G01*
X0567902Y0300347D01*
G75*
G02*
X0568579Y0299670I0000000J-000677D01*
G01*
G37*
G36*
G01*
X0572398Y0303433D02*
X0572398Y0301882D01*
G75*
G02*
X0571721Y0301205I-000677J0000000D01*
G01*
X0570366Y0301205D01*
G75*
G02*
X0569689Y0301882I0000000J0000677D01*
G01*
X0569689Y0303433D01*
G75*
G02*
X0570366Y0304111I0000677J0000000D01*
G01*
X0571721Y0304111D01*
G75*
G02*
X0572398Y0303433I0000000J-000677D01*
G01*
G37*
G36*
G01*
X0568579Y0303433D02*
X0568579Y0301882D01*
G75*
G02*
X0567902Y0301205I-000677J0000000D01*
G01*
X0566547Y0301205D01*
G75*
G02*
X0565870Y0301882I0000000J0000677D01*
G01*
X0565870Y0303433D01*
G75*
G02*
X0566547Y0304111I0000677J0000000D01*
G01*
X0567902Y0304111D01*
G75*
G02*
X0568579Y0303433I0000000J-000677D01*
G01*
G37*
G36*
G01*
X0571910Y0305130D02*
X0570358Y0305130D01*
G75*
G02*
X0569681Y0305807I0000000J0000677D01*
G01*
X0569681Y0307162D01*
G75*
G02*
X0570358Y0307839I0000677J0000000D01*
G01*
X0571910Y0307839D01*
G75*
G02*
X0572587Y0307162I0000000J-000677D01*
G01*
X0572587Y0305807D01*
G75*
G02*
X0571910Y0305130I-000677J0000000D01*
G01*
G37*
G36*
G01*
X0571910Y0308949D02*
X0570358Y0308949D01*
G75*
G02*
X0569681Y0309626I0000000J0000677D01*
G01*
X0569681Y0310981D01*
G75*
G02*
X0570358Y0311658I0000677J0000000D01*
G01*
X0571910Y0311658D01*
G75*
G02*
X0572587Y0310981I0000000J-000677D01*
G01*
X0572587Y0309626D01*
G75*
G02*
X0571910Y0308949I-000677J0000000D01*
G01*
G37*
G36*
G01*
X0577658Y0286638D02*
X0575099Y0286638D01*
G75*
G02*
X0574906Y0286831I0000000J0000193D01*
G01*
X0574906Y0291634D01*
G75*
G02*
X0575099Y0291827I0000193J0000000D01*
G01*
X0577658Y0291827D01*
G75*
G02*
X0577851Y0291634I0000000J-000193D01*
G01*
X0577851Y0286831D01*
G75*
G02*
X0577658Y0286638I-000193J0000000D01*
G01*
G37*
G36*
G01*
X0581398Y0286638D02*
X0578839Y0286638D01*
G75*
G02*
X0578646Y0286831I0000000J0000193D01*
G01*
X0578646Y0291634D01*
G75*
G02*
X0578839Y0291827I0000193J0000000D01*
G01*
X0581398Y0291827D01*
G75*
G02*
X0581591Y0291634I0000000J-000193D01*
G01*
X0581591Y0286831D01*
G75*
G02*
X0581398Y0286638I-000193J0000000D01*
G01*
G37*
G36*
G01*
X0585138Y0286638D02*
X0582579Y0286638D01*
G75*
G02*
X0582386Y0286831I0000000J0000193D01*
G01*
X0582386Y0291634D01*
G75*
G02*
X0582579Y0291827I0000193J0000000D01*
G01*
X0585138Y0291827D01*
G75*
G02*
X0585331Y0291634I0000000J-000193D01*
G01*
X0585331Y0286831D01*
G75*
G02*
X0585138Y0286638I-000193J0000000D01*
G01*
G37*
G36*
G01*
X0585138Y0296953D02*
X0582579Y0296953D01*
G75*
G02*
X0582386Y0297146I0000000J0000193D01*
G01*
X0582386Y0301949D01*
G75*
G02*
X0582579Y0302142I0000193J0000000D01*
G01*
X0585138Y0302142D01*
G75*
G02*
X0585331Y0301949I0000000J-000193D01*
G01*
X0585331Y0297146D01*
G75*
G02*
X0585138Y0296953I-000193J0000000D01*
G01*
G37*
G36*
G01*
X0577658Y0296953D02*
X0575099Y0296953D01*
G75*
G02*
X0574906Y0297146I0000000J0000193D01*
G01*
X0574906Y0301949D01*
G75*
G02*
X0575099Y0302142I0000193J0000000D01*
G01*
X0577658Y0302142D01*
G75*
G02*
X0577851Y0301949I0000000J-000193D01*
G01*
X0577851Y0297146D01*
G75*
G02*
X0577658Y0296953I-000193J0000000D01*
G01*
G37*
G36*
G01*
X0572398Y0295670D02*
X0572398Y0294118D01*
G75*
G02*
X0571721Y0293441I-000677J0000000D01*
G01*
X0570366Y0293441D01*
G75*
G02*
X0569689Y0294118I0000000J0000677D01*
G01*
X0569689Y0295670D01*
G75*
G02*
X0570366Y0296347I0000677J0000000D01*
G01*
X0571721Y0296347D01*
G75*
G02*
X0572398Y0295670I0000000J-000677D01*
G01*
G37*
G36*
G01*
X0568579Y0295670D02*
X0568579Y0294118D01*
G75*
G02*
X0567902Y0293441I-000677J0000000D01*
G01*
X0566547Y0293441D01*
G75*
G02*
X0565870Y0294118I0000000J0000677D01*
G01*
X0565870Y0295670D01*
G75*
G02*
X0566547Y0296347I0000677J0000000D01*
G01*
X0567902Y0296347D01*
G75*
G02*
X0568579Y0295670I0000000J-000677D01*
G01*
G37*
G36*
G01*
X0579445Y0284536D02*
X0579445Y0282985D01*
G75*
G02*
X0578768Y0282307I-000677J0000000D01*
G01*
X0577414Y0282307D01*
G75*
G02*
X0576736Y0282985I0000000J0000677D01*
G01*
X0576736Y0284536D01*
G75*
G02*
X0577414Y0285213I0000677J0000000D01*
G01*
X0578768Y0285213D01*
G75*
G02*
X0579445Y0284536I0000000J-000677D01*
G01*
G37*
G36*
G01*
X0575626Y0284536D02*
X0575626Y0282985D01*
G75*
G02*
X0574949Y0282307I-000677J0000000D01*
G01*
X0573595Y0282307D01*
G75*
G02*
X0572917Y0282985I0000000J0000677D01*
G01*
X0572917Y0284536D01*
G75*
G02*
X0573595Y0285213I0000677J0000000D01*
G01*
X0574949Y0285213D01*
G75*
G02*
X0575626Y0284536I0000000J-000677D01*
G01*
G37*
G36*
G01*
X0556898Y0271170D02*
X0556898Y0269618D01*
G75*
G02*
X0556221Y0268941I-000677J0000000D01*
G01*
X0554866Y0268941D01*
G75*
G02*
X0554189Y0269618I0000000J0000677D01*
G01*
X0554189Y0271170D01*
G75*
G02*
X0554866Y0271847I0000677J0000000D01*
G01*
X0556221Y0271847D01*
G75*
G02*
X0556898Y0271170I0000000J-000677D01*
G01*
G37*
G36*
G01*
X0553079Y0271170D02*
X0553079Y0269618D01*
G75*
G02*
X0552402Y0268941I-000677J0000000D01*
G01*
X0551047Y0268941D01*
G75*
G02*
X0550370Y0269618I0000000J0000677D01*
G01*
X0550370Y0271170D01*
G75*
G02*
X0551047Y0271847I0000677J0000000D01*
G01*
X0552402Y0271847D01*
G75*
G02*
X0553079Y0271170I0000000J-000677D01*
G01*
G37*
G36*
G01*
X0570118Y0272789D02*
X0570118Y0274999D01*
G75*
G02*
X0571076Y0275957I0000958J0000000D01*
G01*
X0572991Y0275957D01*
G75*
G02*
X0573949Y0274999I0000000J-000958D01*
G01*
X0573949Y0272789D01*
G75*
G02*
X0572991Y0271831I-000958J0000000D01*
G01*
X0571076Y0271831D01*
G75*
G02*
X0570118Y0272789I0000000J0000958D01*
G01*
G37*
G36*
G01*
X0576319Y0272789D02*
X0576319Y0274999D01*
G75*
G02*
X0577277Y0275957I0000958J0000000D01*
G01*
X0579192Y0275957D01*
G75*
G02*
X0580150Y0274999I0000000J-000958D01*
G01*
X0580150Y0272789D01*
G75*
G02*
X0579192Y0271831I-000958J0000000D01*
G01*
X0577277Y0271831D01*
G75*
G02*
X0576319Y0272789I0000000J0000958D01*
G01*
G37*
G36*
G01*
X0545091Y0275666D02*
X0546642Y0275666D01*
G75*
G02*
X0547319Y0274988I0000000J-000677D01*
G01*
X0547319Y0273634D01*
G75*
G02*
X0546642Y0272957I-000677J0000000D01*
G01*
X0545091Y0272957D01*
G75*
G02*
X0544414Y0273634I0000000J0000677D01*
G01*
X0544414Y0274988D01*
G75*
G02*
X0545091Y0275666I0000677J0000000D01*
G01*
G37*
G36*
G01*
X0545091Y0271847D02*
X0546642Y0271847D01*
G75*
G02*
X0547319Y0271170I0000000J-000677D01*
G01*
X0547319Y0269815D01*
G75*
G02*
X0546642Y0269138I-000677J0000000D01*
G01*
X0545091Y0269138D01*
G75*
G02*
X0544414Y0269815I0000000J0000677D01*
G01*
X0544414Y0271170D01*
G75*
G02*
X0545091Y0271847I0000677J0000000D01*
G01*
G37*
G36*
G01*
X0542508Y0269138D02*
X0540957Y0269138D01*
G75*
G02*
X0540280Y0269815I0000000J0000677D01*
G01*
X0540280Y0271170D01*
G75*
G02*
X0540957Y0271847I0000677J0000000D01*
G01*
X0542508Y0271847D01*
G75*
G02*
X0543185Y0271170I0000000J-000677D01*
G01*
X0543185Y0269815D01*
G75*
G02*
X0542508Y0269138I-000677J0000000D01*
G01*
G37*
G36*
G01*
X0542508Y0272957D02*
X0540957Y0272957D01*
G75*
G02*
X0540280Y0273634I0000000J0000677D01*
G01*
X0540280Y0274988D01*
G75*
G02*
X0540957Y0275666I0000677J0000000D01*
G01*
X0542508Y0275666D01*
G75*
G02*
X0543185Y0274988I0000000J-000677D01*
G01*
X0543185Y0273634D01*
G75*
G02*
X0542508Y0272957I-000677J0000000D01*
G01*
G37*
G36*
G01*
X0538029Y0347910D02*
X0540239Y0347910D01*
G75*
G02*
X0541197Y0346952I0000000J-000958D01*
G01*
X0541197Y0345037D01*
G75*
G02*
X0540239Y0344079I-000958J0000000D01*
G01*
X0538029Y0344079D01*
G75*
G02*
X0537071Y0345037I0000000J0000958D01*
G01*
X0537071Y0346952D01*
G75*
G02*
X0538029Y0347910I0000958J0000000D01*
G01*
G37*
G36*
G01*
X0538029Y0341709D02*
X0540239Y0341709D01*
G75*
G02*
X0541197Y0340751I0000000J-000958D01*
G01*
X0541197Y0338836D01*
G75*
G02*
X0540239Y0337878I-000958J0000000D01*
G01*
X0538029Y0337878D01*
G75*
G02*
X0537071Y0338836I0000000J0000958D01*
G01*
X0537071Y0340751D01*
G75*
G02*
X0538029Y0341709I0000958J0000000D01*
G01*
G37*
G36*
G01*
X0533477Y0351138D02*
X0535028Y0351138D01*
G75*
G02*
X0535705Y0350461I0000000J-000677D01*
G01*
X0535705Y0349107D01*
G75*
G02*
X0535028Y0348429I-000677J0000000D01*
G01*
X0533477Y0348429D01*
G75*
G02*
X0532799Y0349107I0000000J0000677D01*
G01*
X0532799Y0350461D01*
G75*
G02*
X0533477Y0351138I0000677J0000000D01*
G01*
G37*
G36*
G01*
X0533477Y0347319D02*
X0535028Y0347319D01*
G75*
G02*
X0535705Y0346642I0000000J-000677D01*
G01*
X0535705Y0345288D01*
G75*
G02*
X0535028Y0344611I-000677J0000000D01*
G01*
X0533477Y0344611D01*
G75*
G02*
X0532799Y0345288I0000000J0000677D01*
G01*
X0532799Y0346642D01*
G75*
G02*
X0533477Y0347319I0000677J0000000D01*
G01*
G37*
G36*
G01*
X0575776Y0303528D02*
X0574225Y0303528D01*
G75*
G02*
X0573547Y0304205I0000000J0000677D01*
G01*
X0573547Y0305559D01*
G75*
G02*
X0574225Y0306237I0000677J0000000D01*
G01*
X0575776Y0306237D01*
G75*
G02*
X0576453Y0305559I0000000J-000677D01*
G01*
X0576453Y0304205D01*
G75*
G02*
X0575776Y0303528I-000677J0000000D01*
G01*
G37*
G36*
G01*
X0575776Y0307347D02*
X0574225Y0307347D01*
G75*
G02*
X0573547Y0308024I0000000J0000677D01*
G01*
X0573547Y0309378D01*
G75*
G02*
X0574225Y0310055I0000677J0000000D01*
G01*
X0575776Y0310055D01*
G75*
G02*
X0576453Y0309378I0000000J-000677D01*
G01*
X0576453Y0308024D01*
G75*
G02*
X0575776Y0307347I-000677J0000000D01*
G01*
G37*
G36*
G01*
X0552164Y0316933D02*
X0550986Y0316933D01*
G75*
G02*
X0550398Y0317522I0000000J0000589D01*
G01*
X0550398Y0322636D01*
G75*
G02*
X0550986Y0323225I0000589J0000000D01*
G01*
X0552164Y0323225D01*
G75*
G02*
X0552752Y0322636I0000000J-000589D01*
G01*
X0552752Y0317522D01*
G75*
G02*
X0552164Y0316933I-000589J0000000D01*
G01*
G37*
G36*
G01*
X0555313Y0316933D02*
X0554136Y0316933D01*
G75*
G02*
X0553547Y0317522I0000000J0000589D01*
G01*
X0553547Y0322636D01*
G75*
G02*
X0554136Y0323225I0000589J0000000D01*
G01*
X0555313Y0323225D01*
G75*
G02*
X0555902Y0322636I0000000J-000589D01*
G01*
X0555902Y0317522D01*
G75*
G02*
X0555313Y0316933I-000589J0000000D01*
G01*
G37*
G36*
G01*
X0558463Y0316933D02*
X0557286Y0316933D01*
G75*
G02*
X0556697Y0317522I0000000J0000589D01*
G01*
X0556697Y0322636D01*
G75*
G02*
X0557286Y0323225I0000589J0000000D01*
G01*
X0558463Y0323225D01*
G75*
G02*
X0559051Y0322636I0000000J-000589D01*
G01*
X0559051Y0317522D01*
G75*
G02*
X0558463Y0316933I-000589J0000000D01*
G01*
G37*
G36*
G01*
X0561612Y0316933D02*
X0560435Y0316933D01*
G75*
G02*
X0559847Y0317522I0000000J0000589D01*
G01*
X0559847Y0322636D01*
G75*
G02*
X0560435Y0323225I0000589J0000000D01*
G01*
X0561612Y0323225D01*
G75*
G02*
X0562201Y0322636I0000000J-000589D01*
G01*
X0562201Y0317522D01*
G75*
G02*
X0561612Y0316933I-000589J0000000D01*
G01*
G37*
G36*
G01*
X0564762Y0316933D02*
X0563585Y0316933D01*
G75*
G02*
X0562996Y0317522I0000000J0000589D01*
G01*
X0562996Y0322636D01*
G75*
G02*
X0563585Y0323225I0000589J0000000D01*
G01*
X0564762Y0323225D01*
G75*
G02*
X0565351Y0322636I0000000J-000589D01*
G01*
X0565351Y0317522D01*
G75*
G02*
X0564762Y0316933I-000589J0000000D01*
G01*
G37*
G36*
G01*
X0567912Y0316933D02*
X0566734Y0316933D01*
G75*
G02*
X0566146Y0317522I0000000J0000589D01*
G01*
X0566146Y0322636D01*
G75*
G02*
X0566734Y0323225I0000589J0000000D01*
G01*
X0567912Y0323225D01*
G75*
G02*
X0568500Y0322636I0000000J-000589D01*
G01*
X0568500Y0317522D01*
G75*
G02*
X0567912Y0316933I-000589J0000000D01*
G01*
G37*
G36*
G01*
X0571061Y0316933D02*
X0569884Y0316933D01*
G75*
G02*
X0569295Y0317522I0000000J0000589D01*
G01*
X0569295Y0322636D01*
G75*
G02*
X0569884Y0323225I0000589J0000000D01*
G01*
X0571061Y0323225D01*
G75*
G02*
X0571650Y0322636I0000000J-000589D01*
G01*
X0571650Y0317522D01*
G75*
G02*
X0571061Y0316933I-000589J0000000D01*
G01*
G37*
G36*
G01*
X0574211Y0316933D02*
X0573034Y0316933D01*
G75*
G02*
X0572445Y0317522I0000000J0000589D01*
G01*
X0572445Y0322636D01*
G75*
G02*
X0573034Y0323225I0000589J0000000D01*
G01*
X0574211Y0323225D01*
G75*
G02*
X0574799Y0322636I0000000J-000589D01*
G01*
X0574799Y0317522D01*
G75*
G02*
X0574211Y0316933I-000589J0000000D01*
G01*
G37*
G36*
G01*
X0581593Y0324315D02*
X0576478Y0324315D01*
G75*
G02*
X0575890Y0324904I0000000J0000589D01*
G01*
X0575890Y0326081D01*
G75*
G02*
X0576478Y0326670I0000589J0000000D01*
G01*
X0581593Y0326670D01*
G75*
G02*
X0582181Y0326081I0000000J-000589D01*
G01*
X0582181Y0324904D01*
G75*
G02*
X0581593Y0324315I-000589J0000000D01*
G01*
G37*
G36*
G01*
X0581593Y0327465D02*
X0576478Y0327465D01*
G75*
G02*
X0575890Y0328053I0000000J0000589D01*
G01*
X0575890Y0329231D01*
G75*
G02*
X0576478Y0329819I0000589J0000000D01*
G01*
X0581593Y0329819D01*
G75*
G02*
X0582181Y0329231I0000000J-000589D01*
G01*
X0582181Y0328053D01*
G75*
G02*
X0581593Y0327465I-000589J0000000D01*
G01*
G37*
G36*
G01*
X0581593Y0330614D02*
X0576478Y0330614D01*
G75*
G02*
X0575890Y0331203I0000000J0000589D01*
G01*
X0575890Y0332380D01*
G75*
G02*
X0576478Y0332969I0000589J0000000D01*
G01*
X0581593Y0332969D01*
G75*
G02*
X0582181Y0332380I0000000J-000589D01*
G01*
X0582181Y0331203D01*
G75*
G02*
X0581593Y0330614I-000589J0000000D01*
G01*
G37*
G36*
G01*
X0581593Y0333764D02*
X0576478Y0333764D01*
G75*
G02*
X0575890Y0334353I0000000J0000589D01*
G01*
X0575890Y0335530D01*
G75*
G02*
X0576478Y0336118I0000589J0000000D01*
G01*
X0581593Y0336118D01*
G75*
G02*
X0582181Y0335530I0000000J-000589D01*
G01*
X0582181Y0334353D01*
G75*
G02*
X0581593Y0333764I-000589J0000000D01*
G01*
G37*
G36*
G01*
X0581593Y0336914D02*
X0576478Y0336914D01*
G75*
G02*
X0575890Y0337502I0000000J0000589D01*
G01*
X0575890Y0338679D01*
G75*
G02*
X0576478Y0339268I0000589J0000000D01*
G01*
X0581593Y0339268D01*
G75*
G02*
X0582181Y0338679I0000000J-000589D01*
G01*
X0582181Y0337502D01*
G75*
G02*
X0581593Y0336914I-000589J0000000D01*
G01*
G37*
G36*
G01*
X0581593Y0340063D02*
X0576478Y0340063D01*
G75*
G02*
X0575890Y0340652I0000000J0000589D01*
G01*
X0575890Y0341829D01*
G75*
G02*
X0576478Y0342418I0000589J0000000D01*
G01*
X0581593Y0342418D01*
G75*
G02*
X0582181Y0341829I0000000J-000589D01*
G01*
X0582181Y0340652D01*
G75*
G02*
X0581593Y0340063I-000589J0000000D01*
G01*
G37*
G36*
G01*
X0581593Y0343213D02*
X0576478Y0343213D01*
G75*
G02*
X0575890Y0343801I0000000J0000589D01*
G01*
X0575890Y0344979D01*
G75*
G02*
X0576478Y0345567I0000589J0000000D01*
G01*
X0581593Y0345567D01*
G75*
G02*
X0582181Y0344979I0000000J-000589D01*
G01*
X0582181Y0343801D01*
G75*
G02*
X0581593Y0343213I-000589J0000000D01*
G01*
G37*
G36*
G01*
X0581593Y0346363D02*
X0576478Y0346363D01*
G75*
G02*
X0575890Y0346951I0000000J0000589D01*
G01*
X0575890Y0348128D01*
G75*
G02*
X0576478Y0348717I0000589J0000000D01*
G01*
X0581593Y0348717D01*
G75*
G02*
X0582181Y0348128I0000000J-000589D01*
G01*
X0582181Y0346951D01*
G75*
G02*
X0581593Y0346363I-000589J0000000D01*
G01*
G37*
G36*
G01*
X0574211Y0349807D02*
X0573034Y0349807D01*
G75*
G02*
X0572445Y0350396I0000000J0000589D01*
G01*
X0572445Y0355510D01*
G75*
G02*
X0573034Y0356099I0000589J0000000D01*
G01*
X0574211Y0356099D01*
G75*
G02*
X0574799Y0355510I0000000J-000589D01*
G01*
X0574799Y0350396D01*
G75*
G02*
X0574211Y0349807I-000589J0000000D01*
G01*
G37*
G36*
G01*
X0571061Y0349807D02*
X0569884Y0349807D01*
G75*
G02*
X0569295Y0350396I0000000J0000589D01*
G01*
X0569295Y0355510D01*
G75*
G02*
X0569884Y0356099I0000589J0000000D01*
G01*
X0571061Y0356099D01*
G75*
G02*
X0571650Y0355510I0000000J-000589D01*
G01*
X0571650Y0350396D01*
G75*
G02*
X0571061Y0349807I-000589J0000000D01*
G01*
G37*
G36*
G01*
X0567912Y0349807D02*
X0566734Y0349807D01*
G75*
G02*
X0566146Y0350396I0000000J0000589D01*
G01*
X0566146Y0355510D01*
G75*
G02*
X0566734Y0356099I0000589J0000000D01*
G01*
X0567912Y0356099D01*
G75*
G02*
X0568500Y0355510I0000000J-000589D01*
G01*
X0568500Y0350396D01*
G75*
G02*
X0567912Y0349807I-000589J0000000D01*
G01*
G37*
G36*
G01*
X0564762Y0349807D02*
X0563585Y0349807D01*
G75*
G02*
X0562996Y0350396I0000000J0000589D01*
G01*
X0562996Y0355510D01*
G75*
G02*
X0563585Y0356099I0000589J0000000D01*
G01*
X0564762Y0356099D01*
G75*
G02*
X0565351Y0355510I0000000J-000589D01*
G01*
X0565351Y0350396D01*
G75*
G02*
X0564762Y0349807I-000589J0000000D01*
G01*
G37*
G36*
G01*
X0561612Y0349807D02*
X0560435Y0349807D01*
G75*
G02*
X0559847Y0350396I0000000J0000589D01*
G01*
X0559847Y0355510D01*
G75*
G02*
X0560435Y0356099I0000589J0000000D01*
G01*
X0561612Y0356099D01*
G75*
G02*
X0562201Y0355510I0000000J-000589D01*
G01*
X0562201Y0350396D01*
G75*
G02*
X0561612Y0349807I-000589J0000000D01*
G01*
G37*
G36*
G01*
X0558463Y0349807D02*
X0557286Y0349807D01*
G75*
G02*
X0556697Y0350396I0000000J0000589D01*
G01*
X0556697Y0355510D01*
G75*
G02*
X0557286Y0356099I0000589J0000000D01*
G01*
X0558463Y0356099D01*
G75*
G02*
X0559051Y0355510I0000000J-000589D01*
G01*
X0559051Y0350396D01*
G75*
G02*
X0558463Y0349807I-000589J0000000D01*
G01*
G37*
G36*
G01*
X0555313Y0349807D02*
X0554136Y0349807D01*
G75*
G02*
X0553547Y0350396I0000000J0000589D01*
G01*
X0553547Y0355510D01*
G75*
G02*
X0554136Y0356099I0000589J0000000D01*
G01*
X0555313Y0356099D01*
G75*
G02*
X0555902Y0355510I0000000J-000589D01*
G01*
X0555902Y0350396D01*
G75*
G02*
X0555313Y0349807I-000589J0000000D01*
G01*
G37*
G36*
G01*
X0552164Y0349807D02*
X0550986Y0349807D01*
G75*
G02*
X0550398Y0350396I0000000J0000589D01*
G01*
X0550398Y0355510D01*
G75*
G02*
X0550986Y0356099I0000589J0000000D01*
G01*
X0552164Y0356099D01*
G75*
G02*
X0552752Y0355510I0000000J-000589D01*
G01*
X0552752Y0350396D01*
G75*
G02*
X0552164Y0349807I-000589J0000000D01*
G01*
G37*
G36*
G01*
X0548719Y0346363D02*
X0543604Y0346363D01*
G75*
G02*
X0543016Y0346951I0000000J0000589D01*
G01*
X0543016Y0348128D01*
G75*
G02*
X0543604Y0348717I0000589J0000000D01*
G01*
X0548719Y0348717D01*
G75*
G02*
X0549307Y0348128I0000000J-000589D01*
G01*
X0549307Y0346951D01*
G75*
G02*
X0548719Y0346363I-000589J0000000D01*
G01*
G37*
G36*
G01*
X0548719Y0343213D02*
X0543604Y0343213D01*
G75*
G02*
X0543016Y0343801I0000000J0000589D01*
G01*
X0543016Y0344979D01*
G75*
G02*
X0543604Y0345567I0000589J0000000D01*
G01*
X0548719Y0345567D01*
G75*
G02*
X0549307Y0344979I0000000J-000589D01*
G01*
X0549307Y0343801D01*
G75*
G02*
X0548719Y0343213I-000589J0000000D01*
G01*
G37*
G36*
G01*
X0548719Y0340063D02*
X0543604Y0340063D01*
G75*
G02*
X0543016Y0340652I0000000J0000589D01*
G01*
X0543016Y0341829D01*
G75*
G02*
X0543604Y0342418I0000589J0000000D01*
G01*
X0548719Y0342418D01*
G75*
G02*
X0549307Y0341829I0000000J-000589D01*
G01*
X0549307Y0340652D01*
G75*
G02*
X0548719Y0340063I-000589J0000000D01*
G01*
G37*
G36*
G01*
X0548719Y0336914D02*
X0543604Y0336914D01*
G75*
G02*
X0543016Y0337502I0000000J0000589D01*
G01*
X0543016Y0338679D01*
G75*
G02*
X0543604Y0339268I0000589J0000000D01*
G01*
X0548719Y0339268D01*
G75*
G02*
X0549307Y0338679I0000000J-000589D01*
G01*
X0549307Y0337502D01*
G75*
G02*
X0548719Y0336914I-000589J0000000D01*
G01*
G37*
G36*
G01*
X0548719Y0333764D02*
X0543604Y0333764D01*
G75*
G02*
X0543016Y0334353I0000000J0000589D01*
G01*
X0543016Y0335530D01*
G75*
G02*
X0543604Y0336118I0000589J0000000D01*
G01*
X0548719Y0336118D01*
G75*
G02*
X0549307Y0335530I0000000J-000589D01*
G01*
X0549307Y0334353D01*
G75*
G02*
X0548719Y0333764I-000589J0000000D01*
G01*
G37*
G36*
G01*
X0548719Y0330614D02*
X0543604Y0330614D01*
G75*
G02*
X0543016Y0331203I0000000J0000589D01*
G01*
X0543016Y0332380D01*
G75*
G02*
X0543604Y0332969I0000589J0000000D01*
G01*
X0548719Y0332969D01*
G75*
G02*
X0549307Y0332380I0000000J-000589D01*
G01*
X0549307Y0331203D01*
G75*
G02*
X0548719Y0330614I-000589J0000000D01*
G01*
G37*
G36*
G01*
X0548719Y0327465D02*
X0543604Y0327465D01*
G75*
G02*
X0543016Y0328053I0000000J0000589D01*
G01*
X0543016Y0329231D01*
G75*
G02*
X0543604Y0329819I0000589J0000000D01*
G01*
X0548719Y0329819D01*
G75*
G02*
X0549307Y0329231I0000000J-000589D01*
G01*
X0549307Y0328053D01*
G75*
G02*
X0548719Y0327465I-000589J0000000D01*
G01*
G37*
G36*
G01*
X0548719Y0324315D02*
X0543604Y0324315D01*
G75*
G02*
X0543016Y0324904I0000000J0000589D01*
G01*
X0543016Y0326081D01*
G75*
G02*
X0543604Y0326670I0000589J0000000D01*
G01*
X0548719Y0326670D01*
G75*
G02*
X0549307Y0326081I0000000J-000589D01*
G01*
X0549307Y0324904D01*
G75*
G02*
X0548719Y0324315I-000589J0000000D01*
G01*
G37*
G36*
G01*
X0576980Y0317536D02*
X0578532Y0317536D01*
G75*
G02*
X0579209Y0316859I0000000J-000677D01*
G01*
X0579209Y0315504D01*
G75*
G02*
X0578532Y0314827I-000677J0000000D01*
G01*
X0576980Y0314827D01*
G75*
G02*
X0576303Y0315504I0000000J0000677D01*
G01*
X0576303Y0316859D01*
G75*
G02*
X0576980Y0317536I0000677J0000000D01*
G01*
G37*
G36*
G01*
X0576980Y0313717D02*
X0578532Y0313717D01*
G75*
G02*
X0579209Y0313040I0000000J-000677D01*
G01*
X0579209Y0311685D01*
G75*
G02*
X0578532Y0311008I-000677J0000000D01*
G01*
X0576980Y0311008D01*
G75*
G02*
X0576303Y0311685I0000000J0000677D01*
G01*
X0576303Y0313040D01*
G75*
G02*
X0576980Y0313717I0000677J0000000D01*
G01*
G37*
G36*
G01*
X0579713Y0303528D02*
X0578162Y0303528D01*
G75*
G02*
X0577484Y0304205I0000000J0000677D01*
G01*
X0577484Y0305559D01*
G75*
G02*
X0578162Y0306237I0000677J0000000D01*
G01*
X0579713Y0306237D01*
G75*
G02*
X0580390Y0305559I0000000J-000677D01*
G01*
X0580390Y0304205D01*
G75*
G02*
X0579713Y0303528I-000677J0000000D01*
G01*
G37*
G36*
G01*
X0579713Y0307347D02*
X0578162Y0307347D01*
G75*
G02*
X0577484Y0308024I0000000J0000677D01*
G01*
X0577484Y0309378D01*
G75*
G02*
X0578162Y0310055I0000677J0000000D01*
G01*
X0579713Y0310055D01*
G75*
G02*
X0580390Y0309378I0000000J-000677D01*
G01*
X0580390Y0308024D01*
G75*
G02*
X0579713Y0307347I-000677J0000000D01*
G01*
G37*
G36*
G01*
X0554516Y0309040D02*
X0552965Y0309040D01*
G75*
G02*
X0552288Y0309717I0000000J0000677D01*
G01*
X0552288Y0311071D01*
G75*
G02*
X0552965Y0311748I0000677J0000000D01*
G01*
X0554516Y0311748D01*
G75*
G02*
X0555193Y0311071I0000000J-000677D01*
G01*
X0555193Y0309717D01*
G75*
G02*
X0554516Y0309040I-000677J0000000D01*
G01*
G37*
G36*
G01*
X0554516Y0312859D02*
X0552965Y0312859D01*
G75*
G02*
X0552288Y0313536I0000000J0000677D01*
G01*
X0552288Y0314890D01*
G75*
G02*
X0552965Y0315567I0000677J0000000D01*
G01*
X0554516Y0315567D01*
G75*
G02*
X0555193Y0314890I0000000J-000677D01*
G01*
X0555193Y0313536D01*
G75*
G02*
X0554516Y0312859I-000677J0000000D01*
G01*
G37*
G36*
G01*
X0572791Y0362124D02*
X0572791Y0360573D01*
G75*
G02*
X0572114Y0359896I-000677J0000000D01*
G01*
X0570760Y0359896D01*
G75*
G02*
X0570083Y0360573I0000000J0000677D01*
G01*
X0570083Y0362124D01*
G75*
G02*
X0570760Y0362801I0000677J0000000D01*
G01*
X0572114Y0362801D01*
G75*
G02*
X0572791Y0362124I0000000J-000677D01*
G01*
G37*
G36*
G01*
X0568972Y0362124D02*
X0568972Y0360573D01*
G75*
G02*
X0568295Y0359896I-000677J0000000D01*
G01*
X0566941Y0359896D01*
G75*
G02*
X0566264Y0360573I0000000J0000677D01*
G01*
X0566264Y0362124D01*
G75*
G02*
X0566941Y0362801I0000677J0000000D01*
G01*
X0568295Y0362801D01*
G75*
G02*
X0568972Y0362124I0000000J-000677D01*
G01*
G37*
G36*
G01*
X0546433Y0352843D02*
X0546433Y0351292D01*
G75*
G02*
X0545756Y0350614I-000677J0000000D01*
G01*
X0544402Y0350614D01*
G75*
G02*
X0543725Y0351292I0000000J0000677D01*
G01*
X0543725Y0352843D01*
G75*
G02*
X0544402Y0353520I0000677J0000000D01*
G01*
X0545756Y0353520D01*
G75*
G02*
X0546433Y0352843I0000000J-000677D01*
G01*
G37*
G36*
G01*
X0542614Y0352843D02*
X0542614Y0351292D01*
G75*
G02*
X0541937Y0350614I-000677J0000000D01*
G01*
X0540583Y0350614D01*
G75*
G02*
X0539906Y0351292I0000000J0000677D01*
G01*
X0539906Y0352843D01*
G75*
G02*
X0540583Y0353520I0000677J0000000D01*
G01*
X0541937Y0353520D01*
G75*
G02*
X0542614Y0352843I0000000J-000677D01*
G01*
G37*
G36*
G01*
X0568477Y0376681D02*
X0570028Y0376681D01*
G75*
G02*
X0570705Y0376004I0000000J-000677D01*
G01*
X0570705Y0374650D01*
G75*
G02*
X0570028Y0373973I-000677J0000000D01*
G01*
X0568477Y0373973D01*
G75*
G02*
X0567799Y0374650I0000000J0000677D01*
G01*
X0567799Y0376004D01*
G75*
G02*
X0568477Y0376681I0000677J0000000D01*
G01*
G37*
G36*
G01*
X0568477Y0372863D02*
X0570028Y0372863D01*
G75*
G02*
X0570705Y0372185I0000000J-000677D01*
G01*
X0570705Y0370831D01*
G75*
G02*
X0570028Y0370154I-000677J0000000D01*
G01*
X0568477Y0370154D01*
G75*
G02*
X0567799Y0370831I0000000J0000677D01*
G01*
X0567799Y0372185D01*
G75*
G02*
X0568477Y0372863I0000677J0000000D01*
G01*
G37*
G36*
G01*
X0572351Y0373583D02*
X0572351Y0376733D01*
G75*
G02*
X0572543Y0376925I0000193J0000000D01*
G01*
X0576087Y0376925D01*
G75*
G02*
X0576280Y0376733I0000000J-000193D01*
G01*
X0576280Y0373583D01*
G75*
G02*
X0576087Y0373390I-000193J0000000D01*
G01*
X0572543Y0373390D01*
G75*
G02*
X0572351Y0373583I0000000J0000193D01*
G01*
G37*
G36*
G01*
X0572351Y0366103D02*
X0572351Y0369252D01*
G75*
G02*
X0572543Y0369445I0000193J0000000D01*
G01*
X0576087Y0369445D01*
G75*
G02*
X0576280Y0369252I0000000J-000193D01*
G01*
X0576280Y0366103D01*
G75*
G02*
X0576087Y0365910I-000193J0000000D01*
G01*
X0572543Y0365910D01*
G75*
G02*
X0572351Y0366103I0000000J0000193D01*
G01*
G37*
G36*
G01*
X0580225Y0369843D02*
X0580225Y0372992D01*
G75*
G02*
X0580417Y0373185I0000193J0000000D01*
G01*
X0583961Y0373185D01*
G75*
G02*
X0584154Y0372992I0000000J-000193D01*
G01*
X0584154Y0369843D01*
G75*
G02*
X0583961Y0369650I-000193J0000000D01*
G01*
X0580417Y0369650D01*
G75*
G02*
X0580225Y0369843I0000000J0000193D01*
G01*
G37*
G36*
G01*
X0550370Y0273618D02*
X0550370Y0275170D01*
G75*
G02*
X0551047Y0275847I0000677J0000000D01*
G01*
X0552402Y0275847D01*
G75*
G02*
X0553079Y0275170I0000000J-000677D01*
G01*
X0553079Y0273618D01*
G75*
G02*
X0552402Y0272941I-000677J0000000D01*
G01*
X0551047Y0272941D01*
G75*
G02*
X0550370Y0273618I0000000J0000677D01*
G01*
G37*
G36*
G01*
X0554189Y0273618D02*
X0554189Y0275170D01*
G75*
G02*
X0554866Y0275847I0000677J0000000D01*
G01*
X0556221Y0275847D01*
G75*
G02*
X0556898Y0275170I0000000J-000677D01*
G01*
X0556898Y0273618D01*
G75*
G02*
X0556221Y0272941I-000677J0000000D01*
G01*
X0554866Y0272941D01*
G75*
G02*
X0554189Y0273618I0000000J0000677D01*
G01*
G37*
G36*
G01*
X0584425Y0362159D02*
X0584425Y0359948D01*
G75*
G02*
X0583467Y0358990I-000958J0000000D01*
G01*
X0581552Y0358990D01*
G75*
G02*
X0580594Y0359948I0000000J0000958D01*
G01*
X0580594Y0362159D01*
G75*
G02*
X0581552Y0363116I0000958J0000000D01*
G01*
X0583467Y0363116D01*
G75*
G02*
X0584425Y0362159I0000000J-000958D01*
G01*
G37*
G36*
G01*
X0578224Y0362159D02*
X0578224Y0359948D01*
G75*
G02*
X0577267Y0358990I-000958J0000000D01*
G01*
X0575351Y0358990D01*
G75*
G02*
X0574394Y0359948I0000000J0000958D01*
G01*
X0574394Y0362159D01*
G75*
G02*
X0575351Y0363116I0000958J0000000D01*
G01*
X0577267Y0363116D01*
G75*
G02*
X0578224Y0362159I0000000J-000958D01*
G01*
G37*
D193*
X0540748Y0377815D03*
X0536748Y0357815D03*
X0544748Y0357815D03*
D301*
X0538248Y0372815D03*
X0543248Y0372815D03*
X0538248Y0367815D03*
X0543248Y0367815D03*
X0538248Y0362815D03*
X0543248Y0362815D03*
G36*
X0547989Y0284250D02*
G01*
X0547959Y0284205D01*
X0547945Y0284133D01*
X0547945Y0278426D01*
X0547959Y0278355D01*
X0547989Y0278310D01*
X0547990Y0278302D01*
X0547983Y0278298D01*
X0547978Y0278299D01*
X0547952Y0278317D01*
X0547721Y0278382D01*
X0547521Y0278317D01*
X0547494Y0278299D01*
X0547487Y0278298D01*
X0547482Y0278305D01*
X0547484Y0278310D01*
X0547513Y0278355D01*
X0547528Y0278426D01*
X0547528Y0284133D01*
X0547513Y0284205D01*
X0547484Y0284250D01*
X0547483Y0284258D01*
X0547490Y0284262D01*
X0547494Y0284261D01*
X0547521Y0284243D01*
X0547752Y0284178D01*
X0547952Y0284243D01*
X0547978Y0284261D01*
X0547986Y0284261D01*
X0547991Y0284255D01*
X0547989Y0284250D01*
G37*
G36*
X0547989Y0307478D02*
G01*
X0547959Y0307433D01*
X0547945Y0307362D01*
X0547945Y0301655D01*
X0547959Y0301583D01*
X0547989Y0301538D01*
X0547990Y0301530D01*
X0547983Y0301526D01*
X0547978Y0301527D01*
X0547952Y0301545D01*
X0547721Y0301610D01*
X0547521Y0301545D01*
X0547494Y0301527D01*
X0547487Y0301527D01*
X0547482Y0301533D01*
X0547484Y0301538D01*
X0547513Y0301583D01*
X0547528Y0301655D01*
X0547528Y0307362D01*
X0547513Y0307433D01*
X0547484Y0307478D01*
X0547483Y0307486D01*
X0547490Y0307490D01*
X0547494Y0307489D01*
X0547521Y0307471D01*
X0547752Y0307406D01*
X0547952Y0307471D01*
X0547978Y0307489D01*
X0547986Y0307490D01*
X0547991Y0307483D01*
X0547989Y0307478D01*
G37*
G36*
X0550548Y0284250D02*
G01*
X0550518Y0284205D01*
X0550504Y0284133D01*
X0550504Y0278426D01*
X0550518Y0278355D01*
X0550548Y0278310D01*
X0550549Y0278302D01*
X0550542Y0278298D01*
X0550537Y0278299D01*
X0550511Y0278317D01*
X0550280Y0278382D01*
X0550080Y0278317D01*
X0550053Y0278299D01*
X0550046Y0278298D01*
X0550041Y0278305D01*
X0550043Y0278310D01*
X0550073Y0278355D01*
X0550087Y0278426D01*
X0550087Y0284133D01*
X0550073Y0284205D01*
X0550043Y0284250D01*
X0550042Y0284258D01*
X0550049Y0284262D01*
X0550053Y0284261D01*
X0550080Y0284243D01*
X0550311Y0284178D01*
X0550511Y0284243D01*
X0550537Y0284261D01*
X0550545Y0284261D01*
X0550550Y0284255D01*
X0550548Y0284250D01*
G37*
G36*
X0550548Y0307478D02*
G01*
X0550518Y0307433D01*
X0550504Y0307362D01*
X0550504Y0301655D01*
X0550518Y0301583D01*
X0550548Y0301538D01*
X0550549Y0301530D01*
X0550542Y0301526D01*
X0550537Y0301527D01*
X0550511Y0301545D01*
X0550280Y0301610D01*
X0550080Y0301545D01*
X0550053Y0301527D01*
X0550046Y0301527D01*
X0550041Y0301533D01*
X0550043Y0301538D01*
X0550073Y0301583D01*
X0550087Y0301655D01*
X0550087Y0307362D01*
X0550073Y0307433D01*
X0550043Y0307478D01*
X0550042Y0307486D01*
X0550049Y0307490D01*
X0550053Y0307489D01*
X0550080Y0307471D01*
X0550311Y0307406D01*
X0550511Y0307471D01*
X0550537Y0307489D01*
X0550545Y0307490D01*
X0550550Y0307483D01*
X0550548Y0307478D01*
G37*
G36*
X0553107Y0307478D02*
G01*
X0553077Y0307433D01*
X0553063Y0307362D01*
X0553063Y0301655D01*
X0553077Y0301583D01*
X0553107Y0301538D01*
X0553108Y0301530D01*
X0553101Y0301526D01*
X0553096Y0301527D01*
X0553070Y0301545D01*
X0552839Y0301610D01*
X0552639Y0301545D01*
X0552613Y0301527D01*
X0552605Y0301527D01*
X0552600Y0301533D01*
X0552602Y0301538D01*
X0552632Y0301583D01*
X0552646Y0301655D01*
X0552646Y0307362D01*
X0552632Y0307433D01*
X0552602Y0307478D01*
X0552601Y0307486D01*
X0552608Y0307490D01*
X0552613Y0307489D01*
X0552639Y0307471D01*
X0552870Y0307406D01*
X0553070Y0307471D01*
X0553096Y0307489D01*
X0553104Y0307490D01*
X0553109Y0307483D01*
X0553107Y0307478D01*
G37*
G36*
X0553107Y0284250D02*
G01*
X0553077Y0284205D01*
X0553063Y0284133D01*
X0553063Y0278426D01*
X0553077Y0278355D01*
X0553107Y0278310D01*
X0553108Y0278302D01*
X0553101Y0278298D01*
X0553096Y0278299D01*
X0553070Y0278317D01*
X0552839Y0278382D01*
X0552639Y0278317D01*
X0552613Y0278299D01*
X0552605Y0278298D01*
X0552600Y0278305D01*
X0552602Y0278310D01*
X0552632Y0278355D01*
X0552646Y0278426D01*
X0552646Y0284133D01*
X0552632Y0284205D01*
X0552602Y0284250D01*
X0552601Y0284258D01*
X0552608Y0284262D01*
X0552613Y0284261D01*
X0552639Y0284243D01*
X0552870Y0284178D01*
X0553070Y0284243D01*
X0553096Y0284261D01*
X0553104Y0284261D01*
X0553109Y0284255D01*
X0553107Y0284250D01*
G37*
G36*
X0555666Y0284250D02*
G01*
X0555636Y0284205D01*
X0555622Y0284133D01*
X0555622Y0278426D01*
X0555636Y0278355D01*
X0555666Y0278310D01*
X0555667Y0278302D01*
X0555660Y0278298D01*
X0555655Y0278299D01*
X0555629Y0278317D01*
X0555398Y0278382D01*
X0555198Y0278317D01*
X0555172Y0278299D01*
X0555164Y0278298D01*
X0555159Y0278305D01*
X0555161Y0278310D01*
X0555191Y0278355D01*
X0555205Y0278426D01*
X0555205Y0284133D01*
X0555191Y0284205D01*
X0555161Y0284250D01*
X0555160Y0284258D01*
X0555167Y0284262D01*
X0555172Y0284261D01*
X0555198Y0284243D01*
X0555429Y0284178D01*
X0555629Y0284243D01*
X0555655Y0284261D01*
X0555663Y0284261D01*
X0555668Y0284255D01*
X0555666Y0284250D01*
G37*
G36*
X0555666Y0307478D02*
G01*
X0555636Y0307433D01*
X0555622Y0307362D01*
X0555622Y0301655D01*
X0555636Y0301583D01*
X0555666Y0301538D01*
X0555667Y0301530D01*
X0555660Y0301526D01*
X0555655Y0301527D01*
X0555629Y0301545D01*
X0555398Y0301610D01*
X0555198Y0301545D01*
X0555172Y0301527D01*
X0555164Y0301527D01*
X0555159Y0301533D01*
X0555161Y0301538D01*
X0555191Y0301583D01*
X0555205Y0301655D01*
X0555205Y0307362D01*
X0555191Y0307433D01*
X0555161Y0307478D01*
X0555160Y0307486D01*
X0555167Y0307490D01*
X0555172Y0307489D01*
X0555198Y0307471D01*
X0555429Y0307406D01*
X0555629Y0307471D01*
X0555655Y0307489D01*
X0555663Y0307490D01*
X0555668Y0307483D01*
X0555666Y0307478D01*
G37*
G36*
X0558225Y0284250D02*
G01*
X0558195Y0284205D01*
X0558181Y0284133D01*
X0558181Y0278426D01*
X0558195Y0278355D01*
X0558225Y0278310D01*
X0558226Y0278302D01*
X0558219Y0278298D01*
X0558215Y0278299D01*
X0558188Y0278317D01*
X0557957Y0278382D01*
X0557757Y0278317D01*
X0557731Y0278299D01*
X0557723Y0278298D01*
X0557718Y0278305D01*
X0557720Y0278310D01*
X0557750Y0278355D01*
X0557764Y0278426D01*
X0557764Y0284133D01*
X0557750Y0284205D01*
X0557720Y0284250D01*
X0557719Y0284258D01*
X0557726Y0284262D01*
X0557731Y0284261D01*
X0557757Y0284243D01*
X0557988Y0284178D01*
X0558188Y0284243D01*
X0558215Y0284261D01*
X0558222Y0284261D01*
X0558227Y0284255D01*
X0558225Y0284250D01*
G37*
G36*
X0558225Y0307478D02*
G01*
X0558195Y0307433D01*
X0558181Y0307362D01*
X0558181Y0301655D01*
X0558195Y0301583D01*
X0558225Y0301538D01*
X0558226Y0301530D01*
X0558219Y0301526D01*
X0558215Y0301527D01*
X0558188Y0301545D01*
X0557957Y0301610D01*
X0557757Y0301545D01*
X0557731Y0301527D01*
X0557723Y0301527D01*
X0557718Y0301533D01*
X0557720Y0301538D01*
X0557750Y0301583D01*
X0557764Y0301655D01*
X0557764Y0307362D01*
X0557750Y0307433D01*
X0557720Y0307478D01*
X0557719Y0307486D01*
X0557726Y0307490D01*
X0557731Y0307489D01*
X0557757Y0307471D01*
X0557988Y0307406D01*
X0558188Y0307471D01*
X0558215Y0307489D01*
X0558222Y0307490D01*
X0558227Y0307483D01*
X0558225Y0307478D01*
G37*
G36*
X0560784Y0307478D02*
G01*
X0560755Y0307433D01*
X0560740Y0307362D01*
X0560740Y0301655D01*
X0560755Y0301583D01*
X0560784Y0301538D01*
X0560785Y0301530D01*
X0560778Y0301526D01*
X0560774Y0301527D01*
X0560747Y0301545D01*
X0560516Y0301610D01*
X0560316Y0301545D01*
X0560290Y0301527D01*
X0560282Y0301527D01*
X0560277Y0301533D01*
X0560279Y0301538D01*
X0560309Y0301583D01*
X0560323Y0301655D01*
X0560323Y0307362D01*
X0560309Y0307433D01*
X0560279Y0307478D01*
X0560278Y0307486D01*
X0560285Y0307490D01*
X0560290Y0307489D01*
X0560316Y0307471D01*
X0560547Y0307406D01*
X0560747Y0307471D01*
X0560774Y0307489D01*
X0560781Y0307490D01*
X0560786Y0307483D01*
X0560784Y0307478D01*
G37*
G36*
X0560784Y0284250D02*
G01*
X0560755Y0284205D01*
X0560740Y0284133D01*
X0560740Y0278426D01*
X0560755Y0278355D01*
X0560784Y0278310D01*
X0560785Y0278302D01*
X0560778Y0278298D01*
X0560774Y0278299D01*
X0560747Y0278317D01*
X0560516Y0278382D01*
X0560316Y0278317D01*
X0560290Y0278299D01*
X0560282Y0278298D01*
X0560277Y0278305D01*
X0560279Y0278310D01*
X0560309Y0278355D01*
X0560323Y0278426D01*
X0560323Y0284133D01*
X0560309Y0284205D01*
X0560279Y0284250D01*
X0560278Y0284258D01*
X0560285Y0284262D01*
X0560290Y0284261D01*
X0560316Y0284243D01*
X0560547Y0284178D01*
X0560747Y0284243D01*
X0560774Y0284261D01*
X0560781Y0284261D01*
X0560786Y0284255D01*
X0560784Y0284250D01*
G37*
M02*
