M48
INCH,TZ
T01C0.011800
T02C0.033450
T03C0.039000
T04C0.045250
T05C0.137800
T06C0.157500
T07C0.196900
%
T01
X4291Y748
X866Y4449
X787Y14134
X11811Y13189
X14331Y12283
X15394Y14035
X12465Y3994
X15118Y669
X19803Y5079
X19803Y5305
X19803Y5531
X20157Y8189
X20197Y9941
X21742Y9911
X23366Y10049
X23150Y10364
X24558Y10158
X26102Y10207
X27047Y10394
X26732Y9685
X26732Y8858
X26476Y6732
X26467Y5748
X26240Y5748
X26240Y5522
X26240Y5295
X26467Y5295
X26467Y5522
X26004Y5522
X26004Y5748
X26004Y5295
X24734Y7146
X24715Y8484
X23386Y8583
X22520Y11604
X20276Y11634
X19774Y11604
X20079Y12618
X19321Y12894
X17677Y12874
X16796Y12598
X16408Y12540
X15915Y12638
X16004Y14272
X19419Y14557
X19538Y15070
X20571Y15591
X21781Y15207
X22628Y14793
X24094Y14469
X24055Y12559
X24852Y11654
X26142Y11417
X26754Y12630
X27126Y12441
X27451Y13159
X27579Y13494
X27589Y14341
X27392Y14813
X28661Y14705
X29783Y14646
X29764Y15541
X29045Y12441
X28691Y11978
X30630Y11929
X30157Y10354
X29980Y7274
X29892Y6900
X28947Y3110
X27953Y3307
X27086Y2756
X26771Y2756
X28031Y787
X31132Y3287
X23760Y3760
X23760Y3986
X23760Y4213
X18543Y8543
X18504Y10000
X17323Y11654
X32293Y12362
X32913Y10512
X33898Y9892
X36201Y9636
X36201Y9409
X36201Y9183
X36299Y8878
X35483Y8679
X35236Y7087
X34724Y7087
X35423Y5748
X35423Y5522
X35423Y5295
X35659Y5295
X35659Y5522
X35659Y5748
X35886Y5748
X35886Y5522
X35886Y5295
X36358Y5374
X36358Y5138
X36358Y4892
X36772Y4262
X36772Y4035
X36772Y3809
X37008Y3809
X37234Y3809
X37234Y4035
X37234Y4262
X37008Y4262
X37008Y4035
X37756Y4449
X37766Y4695
X37756Y4921
X38051Y5295
X38051Y5522
X38051Y5748
X38287Y5748
X38514Y5748
X38514Y5522
X38514Y5295
X38287Y5295
X38287Y5522
X38209Y7077
X38435Y7077
X37982Y7077
X37600Y6558
X40605Y5983
X42913Y3839
X44646Y2480
X44646Y768
X44902Y6988
X45069Y7156
X45246Y7313
X45148Y9173
X45148Y9400
X45148Y9626
X45571Y9370
X45925Y9350
X46565Y10315
X46565Y10551
X46575Y10787
X46811Y10787
X46811Y10551
X46821Y11024
X45630Y11772
X44700Y10940
X45118Y13425
X45256Y14419
X46358Y14173
X44222Y13957
X43839Y14193
X43179Y14429
X42815Y14331
X42323Y14528
X43228Y13701
X43189Y12953
X41063Y13071
X41506Y12293
X40285Y12313
X40285Y12539
X40285Y12087
X39783Y12146
X39783Y12372
X39783Y11919
X39104Y12825
X38819Y13199
X38268Y12717
X38268Y12490
X38268Y12264
X36969Y12323
X36575Y12421
X36988Y12874
X36073Y13307
X35325Y13898
X35325Y14124
X35325Y14350
X34518Y14798
X34291Y13780
X32982Y14577
X35472Y12520
X36506Y11260
X39754Y14400
X40256Y14439
X34990Y2992
X31437Y2756
X31746Y4685
X47057Y10787
X47057Y11024
X47067Y11260
X47303Y11260
X47303Y11024
X47549Y11024
X47549Y11260
X47549Y11496
X47313Y11496
X47598Y12687
X48081Y14242
X48337Y14734
X47579Y15148
X48996Y13711
X49429Y13445
X50118Y14528
X50512Y14547
X50984Y14488
X50276Y12470
X50394Y10157
X52677Y10915
X52972Y11457
X53858Y12835
X53898Y13386
X55669Y14911
X59616Y11535
X59921Y4331
X56220Y906
X58091Y17274
X57205Y18209
X59665Y16919
X51132Y16998
X50769Y19850
X50157Y20157
X51230Y20364
X52805Y22648
X53642Y22923
X54035Y22923
X54429Y22923
X54823Y22923
X52628Y30541
X59843Y30984
X47175Y19409
X47975Y17629
X48445Y18071
X46742Y19035
X45827Y18780
X45709Y18228
X45157Y17461
X43494Y16791
X42835Y17795
X41821Y18012
X39104Y18002
X37618Y17766
X37382Y17766
X37382Y17520
X37618Y17530
X37776Y19213
X37776Y19439
X37776Y19665
X38327Y19633
X38337Y19852
X38327Y20082
X38332Y20399
X38616Y19504
X36831Y19616
X36831Y19377
X36831Y19138
X36437Y19577
X36437Y19813
X36693Y19911
X35758Y19252
X35807Y18228
X33937Y17943
X32943Y16811
X31988Y16654
X32453Y16102
X31673Y17913
X31506Y18858
X34805Y19843
X34488Y20315
X34468Y20699
X34577Y21073
X35906Y21033
X35996Y21773
X35917Y22282
X36840Y22343
X36732Y22087
X36742Y21806
X37372Y22402
X37923Y22776
X38012Y22991
X38012Y23219
X37638Y23209
X36929Y23224
X36752Y24833
X37854Y24951
X38465Y24567
X38465Y26102
X38541Y27757
X36821Y27402
X36102Y26339
X33947Y26299
X34459Y25335
X33553Y24882
X35541Y24685
X34461Y23307
X34429Y23071
X34685Y22756
X38346Y22303
X38474Y21506
X44291Y19370
X35709Y28346
X29685Y25335
X30315Y24360
X30322Y22300
X31063Y22106
X29646Y20945
X28858Y20906
X28406Y20989
X28169Y21663
X27726Y22018
X27913Y19911
X28425Y19724
X27254Y18839
X26386Y18926
X26181Y18583
X25285Y19291
X24911Y17116
X24774Y16368
X25305Y16181
X23474Y16299
X22923Y16339
X22628Y17402
X22866Y18071
X23238Y18425
X23760Y18150
X22785Y19075
X22323Y19262
X20915Y19262
X19862Y19282
X20217Y18848
X17008Y18760
X16604Y18809
X16063Y19094
X15778Y19350
X17283Y16220
X18199Y16014
X28781Y17255
X30512Y17047
X31240Y16870
X30069Y16486
X30361Y18094
X30325Y18504
X30551Y18504
X30778Y18504
X30699Y18888
X27732Y24811
X15157Y25118
X15197Y25669
X13888Y27028
X13769Y27908
X13858Y28730
X14212Y28813
X14567Y28685
X13937Y30398
X12943Y30398
X11850Y30437
X12077Y27888
X9596Y27918
X9400Y27165
X9449Y29217
X8346Y29217
X7382Y28681
X6931Y28044
X9173Y24793
X13071Y20699
X15236Y19724
X15394Y18750
X15482Y16211
X14213Y15925
X866Y25079
X5059Y31506
X7372Y32579
X8169Y32455
X8740Y32524
X9222Y32317
X9882Y32445
X11762Y32317
X12411Y32189
X14065Y32126
X15128Y33120
X15177Y37274
X14764Y37156
X14764Y37923
X14071Y38051
X14041Y38386
X13957Y38730
X14041Y39114
X14035Y39862
X15157Y40276
X14764Y38947
X14248Y37411
X12431Y39980
X11417Y39567
X11486Y34715
X6693Y35433
X6112Y41083
X5925Y41486
X7057Y41683
X5354Y43504
X12510Y43504
X827Y37283
X16634Y41476
X17717Y41024
X19596Y40935
X20382Y41101
X20659Y40620
X20984Y40384
X21083Y41329
X21429Y41170
X21447Y41939
X21553Y42487
X22264Y41801
X19949Y41833
X19604Y42039
X20067Y42335
X20037Y43732
X22087Y44075
X22628Y44734
X20600Y45640
X18976Y45640
X17175Y45866
X17224Y46506
X16024Y46555
X16320Y44771
X25591Y45640
X26043Y45876
X27156Y46703
X25600Y43209
X25423Y42736
X25000Y42392
X25984Y42421
X25659Y41329
X24772Y41288
X24213Y40955
X25207Y40600
X25571Y40433
X26437Y40443
X29508Y41843
X31220Y42096
X31567Y41996
X31693Y42392
X31742Y41467
X31978Y40817
X33228Y40128
X33839Y40370
X33740Y41053
X33543Y41368
X34400Y40098
X34700Y39857
X34992Y39697
X35256Y39469
X35543Y39303
X35748Y38996
X36122Y39163
X36530Y39764
X36378Y40669
X35366Y40677
X35335Y40354
X34419Y42992
X37215Y42589
X38573Y42087
X39941Y42648
X41358Y39764
X42047Y40433
X43356Y40256
X42864Y41122
X44055Y41575
X44557Y41575
X45207Y41575
X45561Y41575
X46181Y42047
X46171Y40974
X46102Y45069
X45827Y45866
X45768Y46831
X43110Y46260
X43127Y45403
X43858Y44291
X44776Y44104
X43858Y36850
X38583Y35965
X37244Y36772
X36220Y36850
X34660Y36650
X34482Y36817
X34311Y36988
X37077Y38268
X36358Y34902
X36112Y32821
X36240Y45591
X37476Y45343
X47805Y46467
X48829Y46476
X52402Y44646
X53386Y44961
X53268Y41890
X52057Y41939
X50603Y42049
X51240Y39764
X52008Y40039
X52047Y39094
X52283Y39094
X52530Y39094
X52047Y38671
X52051Y38448
X52047Y38228
X52047Y38002
X52047Y37776
X52100Y36799
X52835Y36821
X50906Y36850
X49919Y36801
X50157Y32362
X53468Y39193
X53179Y39902
X54518Y38248
X55256Y37982
X55650Y37982
X56289Y38278
X57047Y37982
X57441Y37982
X59921Y38819
X59843Y44882
X46949Y39764
X55591Y61850
X59764Y58150
X34882Y56732
X34234Y54295
X33091Y54028
X32215Y54028
X31358Y54028
X34961Y50630
X34988Y48339
X35984Y47510
X27589Y49094
X26860Y49432
X27087Y49843
X27359Y50065
X28622Y50354
X26486Y48858
X26053Y48612
X26053Y48337
X25591Y49587
X22756Y48612
X22756Y48327
X21762Y48415
X17795Y48465
X16663Y48091
X16329Y47825
X16102Y48425
X19882Y50787
X19843Y51368
X18577Y53565
X19882Y55315
X17205Y56378
X22697Y56673
X25551Y55354
X25167Y53199
X23386Y53100
X29232Y54291
X28425Y55246
X28612Y56222
X28071Y56811
X27834Y61847
X30896Y54028
X15217Y49203
X15551Y61732
X4409Y61693
X709Y58268
X709Y48819
X15689Y20216
X15945Y21270
X16102Y21545
X15783Y22505
X15774Y23427
X16812Y23422
X17264Y23799
X17645Y23741
X18199Y23769
X18583Y23707
X18937Y23811
X19321Y23707
X20020Y23661
X20374Y23750
X20817Y23779
X21240Y23632
X21457Y23380
X21703Y23661
X22126Y23769
X22539Y23858
X23002Y23819
X23130Y23376
X23435Y23661
X23829Y23799
X24203Y23710
X24705Y23710
X25118Y23661
X24842Y23366
X24508Y23021
X24970Y22647
X25561Y21762
X25886Y21762
X25472Y21446
X25443Y21053
X25128Y21063
X24766Y21048
X24439Y20994
X23895Y20691
X23878Y21781
X23554Y21781
X23287Y22628
X22835Y22953
X21594Y22628
X21132Y22962
X19862Y22628
X19468Y22953
X19755Y23377
X18199Y23023
X17904Y22649
X18073Y22382
X17411Y21978
X17402Y21663
X17411Y21348
X17352Y20768
X17785Y21063
X18120Y21092
X18442Y21085
X18779Y21069
X19272Y21073
X19587Y21084
X20081Y21068
X20403Y21073
X20925Y21151
X21241Y21074
X22342Y20920
X22808Y21073
X22284Y21773
X21890Y21781
X26289Y21112
X26604Y21092
X26919Y21014
X27205Y20462
X27245Y21635
X27164Y22096
X26673Y22579
X26290Y22895
X26535Y23327
X26427Y23740
X26811Y23661
X27303Y23671
X25827Y23661
X25512Y23865
X16319Y24262
X16821Y22569
X17549Y19970
X16368Y26092
X16742Y26073
X17185Y26653
X17707Y26850
X17677Y27165
X17343Y27795
X16516Y27667
X16181Y27155
X16191Y26604
X18209Y26594
X18898Y26584
X19144Y26378
X19557Y26053
X19991Y26043
X19803Y26565
X19331Y27047
X18937Y27096
X19046Y27588
X19518Y27510
X20217Y27145
X20433Y27962
X20985Y27874
X20975Y28356
X20562Y28848
X20335Y29516
X20857Y29478
X21093Y29695
X21241Y29390
X21723Y29311
X21851Y29655
X22166Y29537
X22303Y29911
X22638Y29685
X22796Y29331
X23101Y29429
X23967Y29970
X23494Y30699
X24135Y31211
X24429Y31378
X24715Y31151
X25985Y31082
X25936Y30167
X25945Y29852
X25945Y29537
X25768Y28405
X25148Y28405
X26034Y27913
X26654Y27982
X26624Y28327
X27235Y28110
X27431Y28376
X27383Y29390
X27225Y29665
X27146Y29970
X26920Y30197
X26772Y30502
X28111Y29803
X28406Y29685
X28603Y28366
X28809Y27431
X29066Y27214
X29370Y27352
X29725Y27382
X29883Y27854
X30207Y27857
X30523Y27874
X29518Y27854
X29588Y28957
X29912Y28957
X30227Y28966
X30581Y28957
X29813Y26073
X29095Y26742
X27264Y26890
X26979Y27037
X26585Y27106
X26270Y27116
X26073Y26466
X24883Y26457
X24872Y26142
X24853Y27008
X24577Y27559
X24085Y27962
X23288Y27923
X23593Y27500
X23465Y27205
X22648Y27441
X22186Y27579
X21939Y27342
X21496Y27411
X21634Y27972
X22294Y28317
X21792Y26840
X21034Y26850
X21949Y26161
X23977Y26299
X24203Y26525
X27609Y25895
X28622Y32018
X28622Y32337
X28445Y32736
X28165Y32528
X27914Y32736
X28003Y33209
X28248Y33484
X28061Y34271
X28366Y34360
X28681Y34390
X29012Y34429
X27766Y34645
X27973Y34902
X27934Y35392
X28219Y35532
X28603Y35817
X28987Y36014
X29567Y36348
X29734Y36821
X29744Y38474
X30453Y38533
X30798Y39311
X29225Y38848
X28452Y38824
X28160Y37904
X28140Y37579
X28003Y37294
X28042Y36821
X27776Y36638
X27116Y36240
X26827Y35723
X26772Y34734
X26792Y34409
X27136Y34124
X27265Y34597
X27727Y34085
X26063Y34163
X26083Y34518
X26251Y34813
X26053Y35108
X25177Y34980
X24528Y35275
X24213Y35256
X23347Y35177
X23137Y34262
X23652Y34124
X24213Y33760
X24390Y33474
X24341Y33071
X23928Y32815
X24154Y32195
X24557Y32460
X25148Y32766
X25700Y33386
X26034Y33376
X26373Y33373
X25788Y33691
X24853Y33976
X22481Y34016
X22156Y33947
X22540Y33425
X23298Y33120
X22953Y32697
X23425Y32362
X22225Y32205
X22373Y31693
X21733Y31742
X21260Y31555
X21172Y30936
X20640Y30600
X20305Y30266
X20296Y31338
X20384Y32254
X20699Y32244
X20798Y31939
X20699Y32727
X20611Y33031
X20296Y33061
X20965Y32903
X20532Y35512
X20305Y35905
X20483Y36397
X20424Y36771
X20463Y37205
X19105Y37244
X18652Y37490
X18448Y37783
X17963Y38100
X17983Y38415
X17175Y38622
X16910Y38799
X16988Y39380
X17244Y39193
X18120Y39419
X18396Y39193
X18691Y38907
X19085Y38543
X19105Y39547
X19841Y39364
X20148Y39754
X20463Y39705
X20719Y38750
X20847Y38455
X21162Y38494
X21231Y37874
X21988Y38563
X22195Y38809
X23347Y38130
X23170Y37855
X23261Y37545
X23534Y37214
X23800Y37037
X24105Y36949
X24269Y37421
X24016Y37628
X24612Y37971
X24321Y38730
X25040Y38758
X24902Y39665
X25237Y39645
X25955Y39665
X26959Y39665
X28623Y37720
X25198Y36536
X24528Y36594
X21024Y36358
X22166Y34970
X18918Y35315
X18657Y34804
X17855Y34527
X17618Y34311
X17766Y35039
X17254Y34911
X16939Y34547
X15985Y34783
X16319Y35581
X17333Y35748
X17540Y36525
X18160Y36486
X16624Y36525
X16014Y36506
X15699Y37214
X17038Y37116
X16772Y40079
X16427Y39941
X15935Y33671
X15630Y33750
X16221Y32834
X16322Y32520
X16644Y32401
X16614Y31801
X17146Y32018
X17963Y32343
X18064Y31742
X18859Y31929
X18902Y31096
X17451Y31112
X16969Y31033
X16890Y30718
X16103Y30561
X16191Y30049
X17136Y29901
X17766Y30029
X17805Y30551
X18780Y29655
X19134Y29665
X19666Y29537
X20020Y29212
X18553Y28494
X21752Y30600
X21998Y30866
X22235Y30541
X26181Y32406
X26969Y32539
X28918Y31910
X29273Y32047
X29410Y32332
X29725Y32362
X30866Y32529
X30946Y33829
X16664Y33179
X15748Y31821
X31212Y30276
X31703Y30433
X32098Y30226
X32481Y30226
X32973Y30433
X32894Y30787
X33179Y30177
X33150Y28651
X33061Y27431
X32739Y27431
X32510Y26939
X31890Y26703
X31894Y26260
X31388Y27480
X31437Y28533
X31782Y28533
X31609Y29124
X32027Y32864
X32265Y32864
X32707Y33218
X32933Y32716
X31487Y33297
X31132Y35443
X31063Y36388
X32087Y36230
X32160Y35758
X33209Y35915
X33228Y36496
X33111Y37647
X32924Y37943
X32628Y37825
X32303Y37829
X32343Y37195
X31960Y38160
X31643Y38140
X31157Y38804
X31555Y39606
X31929Y39252
X32441Y38680
X32796Y38927
X33012Y39399
X33386Y39281
X33238Y38159
X37077Y38267
X36531Y39764
X41359Y39764
X46949Y39764
X51241Y39764
X29233Y54291
X30896Y54028
X31358Y54028
X32215Y54028
X33091Y54028
X34234Y54295
X28612Y56222
X28169Y21664
X30322Y22301
X31063Y22107
X30315Y24361
X33553Y24882
X39046Y24209
X40601Y24361
X40660Y24803
X40689Y23711
X40483Y23471
X41969Y23540
X41752Y22963
X41516Y25370
X41516Y25577
X41516Y25813
X40886Y25758
X40739Y26093
X40414Y25728
X39548Y25474
X39154Y26512
X39213Y27500
X39213Y27756
X39056Y28057
X39056Y28372
X39075Y28736
X39077Y29063
X39087Y29378
X39126Y29693
X39105Y30016
X39449Y29823
X39686Y29833
X39833Y30341
X39833Y30587
X40069Y30592
X40325Y31266
X40630Y31187
X41014Y31738
X41300Y32043
X41290Y33244
X42166Y33205
X42390Y34295
X42796Y34287
X42894Y34593
X42658Y34809
X42335Y34811
X42135Y34530
X41843Y34693
X41831Y34374
X41526Y34514
X41487Y34199
X39695Y34917
X39623Y33106
X39489Y32793
X39489Y32478
X40229Y32527
X40857Y29780
X41103Y29780
X41355Y29780
X41685Y29290
X42166Y29253
X42471Y29144
X42727Y30177
X42727Y30394
X42520Y30437
X42520Y30752
X42450Y31199
X44115Y31791
X44065Y32185
X43623Y32382
X43524Y33350
X43898Y33327
X43967Y33648
X44469Y33480
X44976Y33603
X45467Y33638
X45857Y33638
X46290Y33638
X46983Y33318
X47422Y33287
X47815Y32815
X47894Y31683
X47382Y31289
X47225Y31940
X46812Y32560
X46743Y33032
X46359Y31703
X44912Y31404
X44745Y30020
X44745Y29803
X44538Y29734
X44321Y29967
X44430Y27982
X45454Y28987
X47274Y29459
X47571Y29830
X48012Y30571
X48017Y30814
X48839Y30099
X48701Y29051
X48367Y29213
X47589Y28620
X47402Y27565
X47599Y27112
X47067Y26709
X47323Y26286
X47402Y25715
X46790Y25345
X47058Y23937
X47215Y23622
X47028Y23110
X46936Y22617
X46930Y21752
X46969Y21102
X47402Y21526
X47865Y21801
X47857Y22406
X47837Y22625
X47938Y23593
X48386Y23878
X48918Y24075
X49321Y23618
X49321Y23372
X49321Y23126
X49046Y22634
X49036Y22388
X49036Y22122
X47914Y20463
X46487Y20473
X45089Y19868
X44794Y19868
X45109Y22028
X45443Y22047
X45434Y23002
X45561Y23435
X45237Y23396
X44628Y23570
X45552Y23947
X45375Y24213
X45148Y25154
X45140Y26406
X44115Y25911
X44115Y25675
X44115Y25439
X43800Y25587
X43800Y25823
X43800Y26059
X43485Y26161
X43485Y25823
X43485Y25587
X43485Y25350
X40945Y26644
X41083Y26930
X41093Y27254
X41585Y27847
X41585Y28177
X41920Y28219
X41280Y28780
X43249Y34967
X44311Y34622
X47284Y34455
X48386Y34478
X48288Y34794
X48406Y35177
X49154Y34587
X49676Y34730
X49676Y34986
X48557Y33340
X48810Y32500
X48642Y26433
X48642Y26187
X48642Y25941
X48642Y25695
X48642Y25449
X48251Y26464
X49203Y35342
X49676Y35223
X47284Y35419
X46469Y35343
X45967Y35343
X45475Y35343
X44941Y35439
X44449Y35439
X42874Y35469
X40138Y36177
X39646Y36187
X14218Y37412
X14734Y37156
X14734Y37924
X14041Y38052
X14012Y38386
X13927Y38731
X14012Y39115
X14006Y39863
X14734Y38947
X12401Y39981
X44055Y41575
X44557Y41575
X45207Y41575
X45561Y41575
X44776Y44104
X19604Y42039
X19948Y41832
X20067Y42334
X20037Y43732
X28829Y43209
X29321Y43672
X30374Y43819
X31338Y43809
X32323Y43613
X33335Y43769
X33396Y44607
X33789Y44961
X32421Y45050
X33868Y46447
X29321Y46378
X58741Y38022
X57796Y38003
X57442Y37983
X57048Y37983
X55650Y37983
X55257Y37983
X56005Y37963
X53209Y37963
X56694Y37944
X54883Y37944
X53662Y37668
X58249Y37550
X53524Y37333
X54508Y37097
X53544Y37018
X55976Y36792
X57839Y36766
X56930Y36762
X58288Y36585
X53347Y36211
X55276Y35818
X57304Y35759
X56127Y35719
X53229Y35522
X58682Y35463
X53760Y35207
X54804Y35188
X58308Y35148
X55970Y34833
X55650Y34755
X56320Y34577
X58544Y34538
X55375Y34341
X53229Y34203
X57323Y34066
X55906Y33790
X55119Y33455
X58485Y33436
X53308Y33022
X57404Y32890
X56044Y32825
X55674Y32593
X56424Y32570
X57363Y32570
X57048Y32570
X54646Y32215
X54312Y32215
X53505Y31959
X57914Y31920
X55670Y31487
X53209Y31467
X57461Y31408
X53795Y31093
X56164Y31090
X54095Y30955
X58209Y30896
X54646Y29971
X55217Y29814
X56241Y29735
X55926Y29577
X57619Y29558
X58386Y29440
X58091Y29361
X53209Y29026
X57146Y28928
X53800Y28908
X54902Y28790
X55768Y28633
X55414Y28633
X56260Y28534
X58052Y28495
X57146Y28199
X56464Y27890
X53701Y27865
X57501Y27668
X54904Y27480
X58406Y26940
X55254Y26750
X56201Y26743
X55564Y26740
X54494Y26740
X57245Y26664
X53209Y26152
X58150Y25818
X57717Y25818
X58150Y25503
X57717Y25503
X57205Y25345
X53682Y24538
X58682Y24479
X57107Y24282
X58229Y23869
X57855Y23869
X58229Y23416
X57855Y23416
X58701Y22963
X57875Y22924
X54823Y22924
X54430Y22924
X54036Y22924
X53642Y22924
X53209Y22904
T02
X5591Y2165
X6437Y3888
X6661Y7087
X7661Y7087
X8661Y7087
X9661Y7087
X10661Y7087
X10886Y3888
X11732Y2165
X7031Y13902
X6032Y13902
X5031Y13902
X4031Y13902
X3031Y13902
X3031Y14902
X4031Y14902
X5031Y14902
X6032Y14902
X7031Y14902
X51998Y21112
X52982Y21112
X53967Y21112
X54951Y21112
X55935Y21112
X56919Y21112
X57904Y21112
X58888Y21112
X7031Y21594
X6032Y21594
X5031Y21594
X4031Y21594
X3031Y21594
X3031Y22594
X4031Y22594
X5031Y22594
X6032Y22594
X7031Y22594
X7031Y23594
X6032Y23594
X5031Y23594
X4031Y23594
X3031Y23594
X3031Y15902
X4031Y15902
X5031Y15902
X6032Y15902
X7031Y15902
X32213Y49449
X33213Y49449
X34213Y49449
X31213Y49449
X30213Y49449
X29213Y49449
X19114Y49047
X19114Y50047
X19114Y51047
X19114Y52047
X19114Y53047
X19114Y54047
X19114Y55047
X19114Y56047
X19114Y57047
X19114Y58047
X18114Y58047
X18114Y57047
X18114Y56047
X18114Y55047
X18114Y54047
X18114Y53047
X18114Y52047
X18114Y51047
X18114Y50047
X18114Y49047
X18114Y48047
X19114Y48047
X19114Y47047
X18114Y47047
X39720Y43464
X40350Y43464
X40665Y44212
X40035Y44212
X39405Y44212
X27823Y44382
X28823Y44382
X29823Y44382
X30823Y44382
X31823Y44382
X31823Y45382
X30823Y45382
X29823Y45382
X28823Y45382
X27823Y45382
T03
X32337Y35043
X33137Y35043
X32737Y37043
X54075Y37782
X54475Y35782
X53675Y35782
T04
X14291Y7835
X15394Y7835
X15394Y9252
X14291Y9252
X14291Y10984
X15524Y10984
X16756Y10984
X17988Y10984
X19220Y10984
X20453Y10984
X21685Y10984
X21299Y9252
X20315Y9252
X19331Y9252
X18346Y9252
X17362Y9252
X16378Y9252
X16378Y7835
X18346Y7835
X19331Y7835
X21299Y7835
X22283Y7835
X23268Y7835
X24252Y7835
X25236Y7835
X25236Y9252
X24252Y9252
X23268Y9252
X22283Y9252
X23886Y10984
X25118Y10984
X27441Y10984
X28543Y10984
X29776Y10984
X31008Y10984
X30394Y9252
X29409Y9252
X28425Y9252
X27441Y9252
X27441Y7835
X28425Y7835
X29409Y7835
X31378Y7835
X32362Y7835
X33346Y7835
X34331Y7835
X35433Y7835
X35433Y9252
X34331Y9252
X33346Y9252
X32362Y9252
X31378Y9252
X32240Y10984
X34331Y10984
X35433Y10984
X37756Y10984
X38740Y10984
X39724Y10984
X40709Y10984
X41693Y10984
X42677Y10984
X42677Y9252
X41693Y9252
X40709Y9252
X39724Y9252
X38740Y9252
X37756Y9252
X37756Y7835
X38740Y7835
X40709Y7835
X41693Y7835
X42677Y7835
X6476Y43543
X7476Y43543
X8476Y43543
X9476Y43543
X10476Y43543
X11476Y43543
T05
X17362Y5689
X39724Y5689
T06
X4427Y48480
X13526Y48480
T07
X1969Y2008
X8661Y2756
X46063Y2756
X58661Y2008
X1988Y27992
X58661Y60591
X1969Y60591
M30
