G75*
G70*
%OFA0B0*%
%FSLAX25Y25*%
%IPPOS*%
%LPD*%
%AMOC8*
5,1,8,0,0,1.08239X$1,22.5*
%
%AMM143*
21,1,0.027560,0.030710,-0.000000,0.000000,180.000000*
21,1,0.022050,0.036220,-0.000000,0.000000,180.000000*
1,1,0.005510,-0.011020,0.015350*
1,1,0.005510,0.011020,0.015350*
1,1,0.005510,0.011020,-0.015350*
1,1,0.005510,-0.011020,-0.015350*
%
%AMM148*
21,1,0.033470,0.026770,-0.000000,0.000000,0.000000*
21,1,0.026770,0.033470,-0.000000,0.000000,0.000000*
1,1,0.006690,0.013390,-0.013390*
1,1,0.006690,-0.013390,-0.013390*
1,1,0.006690,-0.013390,0.013390*
1,1,0.006690,0.013390,0.013390*
%
%AMM149*
21,1,0.027560,0.030710,-0.000000,0.000000,90.000000*
21,1,0.022050,0.036220,-0.000000,0.000000,90.000000*
1,1,0.005510,0.015350,0.011020*
1,1,0.005510,0.015350,-0.011020*
1,1,0.005510,-0.015350,-0.011020*
1,1,0.005510,-0.015350,0.011020*
%
%AMM150*
21,1,0.039370,0.049210,-0.000000,0.000000,180.000000*
21,1,0.031500,0.057090,-0.000000,0.000000,180.000000*
1,1,0.007870,-0.015750,0.024610*
1,1,0.007870,0.015750,0.024610*
1,1,0.007870,0.015750,-0.024610*
1,1,0.007870,-0.015750,-0.024610*
%
%AMM151*
21,1,0.033470,0.026770,-0.000000,0.000000,270.000000*
21,1,0.026770,0.033470,-0.000000,0.000000,270.000000*
1,1,0.006690,-0.013390,-0.013390*
1,1,0.006690,-0.013390,0.013390*
1,1,0.006690,0.013390,0.013390*
1,1,0.006690,0.013390,-0.013390*
%
%AMM170*
21,1,0.035430,0.050000,-0.000000,-0.000000,90.000000*
21,1,0.028350,0.057090,-0.000000,-0.000000,90.000000*
1,1,0.007090,0.025000,0.014170*
1,1,0.007090,0.025000,-0.014170*
1,1,0.007090,-0.025000,-0.014170*
1,1,0.007090,-0.025000,0.014170*
%
%AMM171*
21,1,0.086610,0.073230,-0.000000,-0.000000,90.000000*
21,1,0.069290,0.090550,-0.000000,-0.000000,90.000000*
1,1,0.017320,0.036610,0.034650*
1,1,0.017320,0.036610,-0.034650*
1,1,0.017320,-0.036610,-0.034650*
1,1,0.017320,-0.036610,0.034650*
%
%AMM172*
21,1,0.027560,0.030710,-0.000000,-0.000000,270.000000*
21,1,0.022050,0.036220,-0.000000,-0.000000,270.000000*
1,1,0.005510,-0.015350,-0.011020*
1,1,0.005510,-0.015350,0.011020*
1,1,0.005510,0.015350,0.011020*
1,1,0.005510,0.015350,-0.011020*
%
%AMM173*
21,1,0.039370,0.049210,-0.000000,-0.000000,0.000000*
21,1,0.031500,0.057090,-0.000000,-0.000000,0.000000*
1,1,0.007870,0.015750,-0.024610*
1,1,0.007870,-0.015750,-0.024610*
1,1,0.007870,-0.015750,0.024610*
1,1,0.007870,0.015750,0.024610*
%
%AMM174*
21,1,0.023620,0.030710,-0.000000,-0.000000,270.000000*
21,1,0.018900,0.035430,-0.000000,-0.000000,270.000000*
1,1,0.004720,-0.015350,-0.009450*
1,1,0.004720,-0.015350,0.009450*
1,1,0.004720,0.015350,0.009450*
1,1,0.004720,0.015350,-0.009450*
%
%AMM175*
21,1,0.025590,0.026380,-0.000000,-0.000000,180.000000*
21,1,0.020470,0.031500,-0.000000,-0.000000,180.000000*
1,1,0.005120,-0.010240,0.013190*
1,1,0.005120,0.010240,0.013190*
1,1,0.005120,0.010240,-0.013190*
1,1,0.005120,-0.010240,-0.013190*
%
%AMM176*
21,1,0.017720,0.027950,-0.000000,-0.000000,180.000000*
21,1,0.014170,0.031500,-0.000000,-0.000000,180.000000*
1,1,0.003540,-0.007090,0.013980*
1,1,0.003540,0.007090,0.013980*
1,1,0.003540,0.007090,-0.013980*
1,1,0.003540,-0.007090,-0.013980*
%
%AMM177*
21,1,0.033470,0.026770,-0.000000,-0.000000,90.000000*
21,1,0.026770,0.033470,-0.000000,-0.000000,90.000000*
1,1,0.006690,0.013390,0.013390*
1,1,0.006690,0.013390,-0.013390*
1,1,0.006690,-0.013390,-0.013390*
1,1,0.006690,-0.013390,0.013390*
%
%AMM178*
21,1,0.027560,0.030710,-0.000000,-0.000000,180.000000*
21,1,0.022050,0.036220,-0.000000,-0.000000,180.000000*
1,1,0.005510,-0.011020,0.015350*
1,1,0.005510,0.011020,0.015350*
1,1,0.005510,0.011020,-0.015350*
1,1,0.005510,-0.011020,-0.015350*
%
%AMM179*
21,1,0.039370,0.049210,-0.000000,-0.000000,270.000000*
21,1,0.031500,0.057090,-0.000000,-0.000000,270.000000*
1,1,0.007870,-0.024610,-0.015750*
1,1,0.007870,-0.024610,0.015750*
1,1,0.007870,0.024610,0.015750*
1,1,0.007870,0.024610,-0.015750*
%
%AMM180*
21,1,0.033470,0.026770,-0.000000,-0.000000,0.000000*
21,1,0.026770,0.033470,-0.000000,-0.000000,0.000000*
1,1,0.006690,0.013390,-0.013390*
1,1,0.006690,-0.013390,-0.013390*
1,1,0.006690,-0.013390,0.013390*
1,1,0.006690,0.013390,0.013390*
%
%AMM204*
21,1,0.033470,0.026770,-0.000000,-0.000000,180.000000*
21,1,0.026770,0.033470,-0.000000,-0.000000,180.000000*
1,1,0.006690,-0.013390,0.013390*
1,1,0.006690,0.013390,0.013390*
1,1,0.006690,0.013390,-0.013390*
1,1,0.006690,-0.013390,-0.013390*
%
%AMM205*
21,1,0.027560,0.030710,-0.000000,-0.000000,90.000000*
21,1,0.022050,0.036220,-0.000000,-0.000000,90.000000*
1,1,0.005510,0.015350,0.011020*
1,1,0.005510,0.015350,-0.011020*
1,1,0.005510,-0.015350,-0.011020*
1,1,0.005510,-0.015350,0.011020*
%
%AMM209*
21,1,0.033470,0.026770,-0.000000,0.000000,180.000000*
21,1,0.026770,0.033470,-0.000000,0.000000,180.000000*
1,1,0.006690,-0.013390,0.013390*
1,1,0.006690,0.013390,0.013390*
1,1,0.006690,0.013390,-0.013390*
1,1,0.006690,-0.013390,-0.013390*
%
%AMM210*
21,1,0.070870,0.036220,-0.000000,0.000000,90.000000*
21,1,0.061810,0.045280,-0.000000,0.000000,90.000000*
1,1,0.009060,0.018110,0.030910*
1,1,0.009060,0.018110,-0.030910*
1,1,0.009060,-0.018110,-0.030910*
1,1,0.009060,-0.018110,0.030910*
%
%AMM211*
21,1,0.027560,0.030710,-0.000000,0.000000,270.000000*
21,1,0.022050,0.036220,-0.000000,0.000000,270.000000*
1,1,0.005510,-0.015350,-0.011020*
1,1,0.005510,-0.015350,0.011020*
1,1,0.005510,0.015350,0.011020*
1,1,0.005510,0.015350,-0.011020*
%
%AMM254*
21,1,0.033470,0.026770,-0.000000,-0.000000,270.000000*
21,1,0.026770,0.033470,-0.000000,-0.000000,270.000000*
1,1,0.006690,-0.013390,-0.013390*
1,1,0.006690,-0.013390,0.013390*
1,1,0.006690,0.013390,0.013390*
1,1,0.006690,0.013390,-0.013390*
%
%AMM255*
21,1,0.070870,0.036220,-0.000000,-0.000000,180.000000*
21,1,0.061810,0.045280,-0.000000,-0.000000,180.000000*
1,1,0.009060,-0.030910,0.018110*
1,1,0.009060,0.030910,0.018110*
1,1,0.009060,0.030910,-0.018110*
1,1,0.009060,-0.030910,-0.018110*
%
%AMM256*
21,1,0.027560,0.030710,-0.000000,-0.000000,0.000000*
21,1,0.022050,0.036220,-0.000000,-0.000000,0.000000*
1,1,0.005510,0.011020,-0.015350*
1,1,0.005510,-0.011020,-0.015350*
1,1,0.005510,-0.011020,0.015350*
1,1,0.005510,0.011020,0.015350*
%
%AMM257*
21,1,0.137800,0.067720,-0.000000,-0.000000,180.000000*
21,1,0.120870,0.084650,-0.000000,-0.000000,180.000000*
1,1,0.016930,-0.060430,0.033860*
1,1,0.016930,0.060430,0.033860*
1,1,0.016930,0.060430,-0.033860*
1,1,0.016930,-0.060430,-0.033860*
%
%AMM258*
21,1,0.043310,0.075980,-0.000000,-0.000000,180.000000*
21,1,0.034650,0.084650,-0.000000,-0.000000,180.000000*
1,1,0.008660,-0.017320,0.037990*
1,1,0.008660,0.017320,0.037990*
1,1,0.008660,0.017320,-0.037990*
1,1,0.008660,-0.017320,-0.037990*
%
%AMM259*
21,1,0.043310,0.075990,-0.000000,-0.000000,180.000000*
21,1,0.034650,0.084650,-0.000000,-0.000000,180.000000*
1,1,0.008660,-0.017320,0.037990*
1,1,0.008660,0.017320,0.037990*
1,1,0.008660,0.017320,-0.037990*
1,1,0.008660,-0.017320,-0.037990*
%
%AMM260*
21,1,0.039370,0.035430,-0.000000,-0.000000,90.000000*
21,1,0.031500,0.043310,-0.000000,-0.000000,90.000000*
1,1,0.007870,0.017720,0.015750*
1,1,0.007870,0.017720,-0.015750*
1,1,0.007870,-0.017720,-0.015750*
1,1,0.007870,-0.017720,0.015750*
%
%AMM261*
21,1,0.035430,0.030320,-0.000000,-0.000000,90.000000*
21,1,0.028350,0.037400,-0.000000,-0.000000,90.000000*
1,1,0.007090,0.015160,0.014170*
1,1,0.007090,0.015160,-0.014170*
1,1,0.007090,-0.015160,-0.014170*
1,1,0.007090,-0.015160,0.014170*
%
%AMM262*
21,1,0.023620,0.030710,-0.000000,-0.000000,0.000000*
21,1,0.018900,0.035430,-0.000000,-0.000000,0.000000*
1,1,0.004720,0.009450,-0.015350*
1,1,0.004720,-0.009450,-0.015350*
1,1,0.004720,-0.009450,0.015350*
1,1,0.004720,0.009450,0.015350*
%
%AMM263*
21,1,0.035830,0.026770,-0.000000,-0.000000,90.000000*
21,1,0.029130,0.033470,-0.000000,-0.000000,90.000000*
1,1,0.006690,0.013390,0.014570*
1,1,0.006690,0.013390,-0.014570*
1,1,0.006690,-0.013390,-0.014570*
1,1,0.006690,-0.013390,0.014570*
%
%AMM264*
21,1,0.035430,0.030320,-0.000000,-0.000000,0.000000*
21,1,0.028350,0.037400,-0.000000,-0.000000,0.000000*
1,1,0.007090,0.014170,-0.015160*
1,1,0.007090,-0.014170,-0.015160*
1,1,0.007090,-0.014170,0.015160*
1,1,0.007090,0.014170,0.015160*
%
%AMM265*
21,1,0.025590,0.026380,-0.000000,-0.000000,90.000000*
21,1,0.020470,0.031500,-0.000000,-0.000000,90.000000*
1,1,0.005120,0.013190,0.010240*
1,1,0.005120,0.013190,-0.010240*
1,1,0.005120,-0.013190,-0.010240*
1,1,0.005120,-0.013190,0.010240*
%
%AMM266*
21,1,0.017720,0.027950,-0.000000,-0.000000,90.000000*
21,1,0.014170,0.031500,-0.000000,-0.000000,90.000000*
1,1,0.003540,0.013980,0.007090*
1,1,0.003540,0.013980,-0.007090*
1,1,0.003540,-0.013980,-0.007090*
1,1,0.003540,-0.013980,0.007090*
%
%AMM267*
21,1,0.027560,0.049610,-0.000000,-0.000000,90.000000*
21,1,0.022050,0.055120,-0.000000,-0.000000,90.000000*
1,1,0.005510,0.024800,0.011020*
1,1,0.005510,0.024800,-0.011020*
1,1,0.005510,-0.024800,-0.011020*
1,1,0.005510,-0.024800,0.011020*
%
%AMM268*
21,1,0.027560,0.018900,-0.000000,-0.000000,0.000000*
21,1,0.022840,0.023620,-0.000000,-0.000000,0.000000*
1,1,0.004720,0.011420,-0.009450*
1,1,0.004720,-0.011420,-0.009450*
1,1,0.004720,-0.011420,0.009450*
1,1,0.004720,0.011420,0.009450*
%
%AMM269*
21,1,0.035830,0.026770,-0.000000,-0.000000,0.000000*
21,1,0.029130,0.033470,-0.000000,-0.000000,0.000000*
1,1,0.006690,0.014570,-0.013390*
1,1,0.006690,-0.014570,-0.013390*
1,1,0.006690,-0.014570,0.013390*
1,1,0.006690,0.014570,0.013390*
%
%AMM299*
21,1,0.035430,0.030320,-0.000000,0.000000,90.000000*
21,1,0.028350,0.037400,-0.000000,0.000000,90.000000*
1,1,0.007090,0.015160,0.014170*
1,1,0.007090,0.015160,-0.014170*
1,1,0.007090,-0.015160,-0.014170*
1,1,0.007090,-0.015160,0.014170*
%
%AMM303*
21,1,0.025590,0.026380,-0.000000,0.000000,180.000000*
21,1,0.020470,0.031500,-0.000000,0.000000,180.000000*
1,1,0.005120,-0.010240,0.013190*
1,1,0.005120,0.010240,0.013190*
1,1,0.005120,0.010240,-0.013190*
1,1,0.005120,-0.010240,-0.013190*
%
%AMM304*
21,1,0.017720,0.027950,-0.000000,0.000000,180.000000*
21,1,0.014170,0.031500,-0.000000,0.000000,180.000000*
1,1,0.003540,-0.007090,0.013980*
1,1,0.003540,0.007090,0.013980*
1,1,0.003540,0.007090,-0.013980*
1,1,0.003540,-0.007090,-0.013980*
%
%AMM305*
21,1,0.035830,0.026770,-0.000000,0.000000,180.000000*
21,1,0.029130,0.033470,-0.000000,0.000000,180.000000*
1,1,0.006690,-0.014570,0.013390*
1,1,0.006690,0.014570,0.013390*
1,1,0.006690,0.014570,-0.013390*
1,1,0.006690,-0.014570,-0.013390*
%
%AMM31*
21,1,0.027560,0.030710,0.000000,0.000000,270.000000*
21,1,0.022050,0.036220,0.000000,0.000000,270.000000*
1,1,0.005510,-0.015350,-0.011020*
1,1,0.005510,-0.015350,0.011020*
1,1,0.005510,0.015350,0.011020*
1,1,0.005510,0.015350,-0.011020*
%
%AMM317*
21,1,0.035430,0.030320,-0.000000,-0.000000,180.000000*
21,1,0.028350,0.037400,-0.000000,-0.000000,180.000000*
1,1,0.007090,-0.014170,0.015160*
1,1,0.007090,0.014170,0.015160*
1,1,0.007090,0.014170,-0.015160*
1,1,0.007090,-0.014170,-0.015160*
%
%AMM318*
21,1,0.043310,0.075980,-0.000000,-0.000000,0.000000*
21,1,0.034650,0.084650,-0.000000,-0.000000,0.000000*
1,1,0.008660,0.017320,-0.037990*
1,1,0.008660,-0.017320,-0.037990*
1,1,0.008660,-0.017320,0.037990*
1,1,0.008660,0.017320,0.037990*
%
%AMM319*
21,1,0.043310,0.075990,-0.000000,-0.000000,0.000000*
21,1,0.034650,0.084650,-0.000000,-0.000000,0.000000*
1,1,0.008660,0.017320,-0.037990*
1,1,0.008660,-0.017320,-0.037990*
1,1,0.008660,-0.017320,0.037990*
1,1,0.008660,0.017320,0.037990*
%
%AMM320*
21,1,0.137800,0.067720,-0.000000,-0.000000,0.000000*
21,1,0.120870,0.084650,-0.000000,-0.000000,0.000000*
1,1,0.016930,0.060430,-0.033860*
1,1,0.016930,-0.060430,-0.033860*
1,1,0.016930,-0.060430,0.033860*
1,1,0.016930,0.060430,0.033860*
%
%AMM321*
21,1,0.025590,0.026380,-0.000000,-0.000000,270.000000*
21,1,0.020470,0.031500,-0.000000,-0.000000,270.000000*
1,1,0.005120,-0.013190,-0.010240*
1,1,0.005120,-0.013190,0.010240*
1,1,0.005120,0.013190,0.010240*
1,1,0.005120,0.013190,-0.010240*
%
%AMM322*
21,1,0.017720,0.027950,-0.000000,-0.000000,270.000000*
21,1,0.014170,0.031500,-0.000000,-0.000000,270.000000*
1,1,0.003540,-0.013980,-0.007090*
1,1,0.003540,-0.013980,0.007090*
1,1,0.003540,0.013980,0.007090*
1,1,0.003540,0.013980,-0.007090*
%
%AMM323*
21,1,0.035830,0.026770,-0.000000,-0.000000,270.000000*
21,1,0.029130,0.033470,-0.000000,-0.000000,270.000000*
1,1,0.006690,-0.013390,-0.014570*
1,1,0.006690,-0.013390,0.014570*
1,1,0.006690,0.013390,0.014570*
1,1,0.006690,0.013390,-0.014570*
%
%AMM335*
21,1,0.012600,0.028980,-0.000000,0.000000,0.000000*
21,1,0.010080,0.031500,-0.000000,0.000000,0.000000*
1,1,0.002520,0.005040,-0.014490*
1,1,0.002520,-0.005040,-0.014490*
1,1,0.002520,-0.005040,0.014490*
1,1,0.002520,0.005040,0.014490*
%
%AMM337*
21,1,0.035830,0.026770,-0.000000,0.000000,90.000000*
21,1,0.029130,0.033470,-0.000000,0.000000,90.000000*
1,1,0.006690,0.013390,0.014570*
1,1,0.006690,0.013390,-0.014570*
1,1,0.006690,-0.013390,-0.014570*
1,1,0.006690,-0.013390,0.014570*
%
%AMM35*
21,1,0.033470,0.026770,0.000000,0.000000,90.000000*
21,1,0.026770,0.033470,0.000000,0.000000,90.000000*
1,1,0.006690,0.013390,0.013390*
1,1,0.006690,0.013390,-0.013390*
1,1,0.006690,-0.013390,-0.013390*
1,1,0.006690,-0.013390,0.013390*
%
%AMM351*
21,1,0.021650,0.052760,-0.000000,-0.000000,90.000000*
21,1,0.017320,0.057090,-0.000000,-0.000000,90.000000*
1,1,0.004330,0.026380,0.008660*
1,1,0.004330,0.026380,-0.008660*
1,1,0.004330,-0.026380,-0.008660*
1,1,0.004330,-0.026380,0.008660*
%
%AMM353*
21,1,0.035430,0.030320,-0.000000,0.000000,180.000000*
21,1,0.028350,0.037400,-0.000000,0.000000,180.000000*
1,1,0.007090,-0.014170,0.015160*
1,1,0.007090,0.014170,0.015160*
1,1,0.007090,0.014170,-0.015160*
1,1,0.007090,-0.014170,-0.015160*
%
%AMM354*
21,1,0.021650,0.052760,-0.000000,0.000000,90.000000*
21,1,0.017320,0.057090,-0.000000,0.000000,90.000000*
1,1,0.004330,0.026380,0.008660*
1,1,0.004330,0.026380,-0.008660*
1,1,0.004330,-0.026380,-0.008660*
1,1,0.004330,-0.026380,0.008660*
%
%AMM355*
21,1,0.094490,0.111020,-0.000000,0.000000,270.000000*
21,1,0.075590,0.129920,-0.000000,0.000000,270.000000*
1,1,0.018900,-0.055510,-0.037800*
1,1,0.018900,-0.055510,0.037800*
1,1,0.018900,0.055510,0.037800*
1,1,0.018900,0.055510,-0.037800*
%
%AMM356*
21,1,0.023620,0.018900,-0.000000,0.000000,0.000000*
21,1,0.018900,0.023620,-0.000000,0.000000,0.000000*
1,1,0.004720,0.009450,-0.009450*
1,1,0.004720,-0.009450,-0.009450*
1,1,0.004720,-0.009450,0.009450*
1,1,0.004720,0.009450,0.009450*
%
%AMM357*
21,1,0.023620,0.018900,-0.000000,0.000000,270.000000*
21,1,0.018900,0.023620,-0.000000,0.000000,270.000000*
1,1,0.004720,-0.009450,-0.009450*
1,1,0.004720,-0.009450,0.009450*
1,1,0.004720,0.009450,0.009450*
1,1,0.004720,0.009450,-0.009450*
%
%AMM364*
21,1,0.106300,0.050390,-0.000000,0.000000,90.000000*
21,1,0.093700,0.062990,-0.000000,0.000000,90.000000*
1,1,0.012600,0.025200,0.046850*
1,1,0.012600,0.025200,-0.046850*
1,1,0.012600,-0.025200,-0.046850*
1,1,0.012600,-0.025200,0.046850*
%
%AMM365*
21,1,0.074800,0.083460,-0.000000,0.000000,270.000000*
21,1,0.059840,0.098430,-0.000000,0.000000,270.000000*
1,1,0.014960,-0.041730,-0.029920*
1,1,0.014960,-0.041730,0.029920*
1,1,0.014960,0.041730,0.029920*
1,1,0.014960,0.041730,-0.029920*
%
%AMM366*
21,1,0.122050,0.075590,-0.000000,0.000000,0.000000*
21,1,0.103150,0.094490,-0.000000,0.000000,0.000000*
1,1,0.018900,0.051580,-0.037800*
1,1,0.018900,-0.051580,-0.037800*
1,1,0.018900,-0.051580,0.037800*
1,1,0.018900,0.051580,0.037800*
%
%AMM367*
21,1,0.078740,0.053540,-0.000000,0.000000,270.000000*
21,1,0.065350,0.066930,-0.000000,0.000000,270.000000*
1,1,0.013390,-0.026770,-0.032680*
1,1,0.013390,-0.026770,0.032680*
1,1,0.013390,0.026770,0.032680*
1,1,0.013390,0.026770,-0.032680*
%
%AMM368*
21,1,0.070870,0.036220,-0.000000,0.000000,270.000000*
21,1,0.061810,0.045280,-0.000000,0.000000,270.000000*
1,1,0.009060,-0.018110,-0.030910*
1,1,0.009060,-0.018110,0.030910*
1,1,0.009060,0.018110,0.030910*
1,1,0.009060,0.018110,-0.030910*
%
%AMM369*
21,1,0.086610,0.073230,-0.000000,0.000000,180.000000*
21,1,0.069290,0.090550,-0.000000,0.000000,180.000000*
1,1,0.017320,-0.034650,0.036610*
1,1,0.017320,0.034650,0.036610*
1,1,0.017320,0.034650,-0.036610*
1,1,0.017320,-0.034650,-0.036610*
%
%AMM80*
21,1,0.078740,0.045670,0.000000,0.000000,270.000000*
21,1,0.067320,0.057090,0.000000,0.000000,270.000000*
1,1,0.011420,-0.022840,-0.033660*
1,1,0.011420,-0.022840,0.033660*
1,1,0.011420,0.022840,0.033660*
1,1,0.011420,0.022840,-0.033660*
%
%AMM81*
21,1,0.059060,0.020470,0.000000,0.000000,270.000000*
21,1,0.053940,0.025590,0.000000,0.000000,270.000000*
1,1,0.005120,-0.010240,-0.026970*
1,1,0.005120,-0.010240,0.026970*
1,1,0.005120,0.010240,0.026970*
1,1,0.005120,0.010240,-0.026970*
%
%ADD100C,0.03150*%
%ADD105O,0.00000X0.00000*%
%ADD163O,0.04961X0.00984*%
%ADD165M31*%
%ADD17C,0.02362*%
%ADD173M35*%
%ADD179O,0.04331X0.01181*%
%ADD180O,0.05118X0.00866*%
%ADD181O,0.00866X0.05118*%
%ADD184R,0.06693X0.09449*%
%ADD232M80*%
%ADD233M81*%
%ADD247O,0.02362X0.08661*%
%ADD248O,0.08661X0.02362*%
%ADD307O,0.03937X0.01968*%
%ADD350R,0.03543X0.03150*%
%ADD355R,0.03150X0.03543*%
%ADD362M143*%
%ADD367M148*%
%ADD368M149*%
%ADD369M150*%
%ADD370M151*%
%ADD389M170*%
%ADD390M171*%
%ADD391M172*%
%ADD392M173*%
%ADD393M174*%
%ADD394M175*%
%ADD395M176*%
%ADD396M177*%
%ADD397M178*%
%ADD398M179*%
%ADD399M180*%
%ADD427M204*%
%ADD428M205*%
%ADD432M209*%
%ADD433M210*%
%ADD434M211*%
%ADD48R,0.01476X0.01378*%
%ADD481M254*%
%ADD482M255*%
%ADD483M256*%
%ADD484M257*%
%ADD485M258*%
%ADD486M259*%
%ADD487M260*%
%ADD488M261*%
%ADD489M262*%
%ADD49R,0.01378X0.01476*%
%ADD490M263*%
%ADD491M264*%
%ADD492M265*%
%ADD493M266*%
%ADD494M267*%
%ADD495M268*%
%ADD496M269*%
%ADD50R,0.10236X0.14173*%
%ADD526M299*%
%ADD530M303*%
%ADD531M304*%
%ADD532M305*%
%ADD559M317*%
%ADD560M318*%
%ADD561M319*%
%ADD562M320*%
%ADD563M321*%
%ADD564M322*%
%ADD565M323*%
%ADD577M335*%
%ADD579O,0.11221X0.04016*%
%ADD580M337*%
%ADD598M351*%
%ADD600M353*%
%ADD601M354*%
%ADD602M355*%
%ADD603M356*%
%ADD604M357*%
%ADD615M364*%
%ADD616M365*%
%ADD617O,0.01968X0.08661*%
%ADD618M366*%
%ADD619M367*%
%ADD620M368*%
%ADD621M369*%
%ADD633R,0.01772X0.05709*%
%ADD634R,0.08661X0.04724*%
%ADD636R,0.02559X0.04803*%
%ADD637R,0.12008X0.10827*%
%ADD68R,0.05906X0.07874*%
%ADD69R,0.14961X0.07874*%
%ADD83R,0.03150X0.08661*%
%ADD84R,0.08000X0.20000*%
%ADD85R,0.45000X0.30000*%
X0000000Y0000000D02*
%LPD*%
G01*
D105*
X0354207Y0023012D03*
X0323695Y0076358D03*
X0326727Y0017992D03*
G36*
G01*
X0584286Y0525612D02*
X0587003Y0525612D01*
G75*
G02*
X0587908Y0524706I0000000J-000906D01*
G01*
X0587908Y0519430D01*
G75*
G02*
X0587003Y0518525I-000906J0000000D01*
G01*
X0584286Y0518525D01*
G75*
G02*
X0583381Y0519430I0000000J0000906D01*
G01*
X0583381Y0524706D01*
G75*
G02*
X0584286Y0525612I0000906J0000000D01*
G01*
G37*
G36*
G01*
X0572869Y0525612D02*
X0575585Y0525612D01*
G75*
G02*
X0576491Y0524706I0000000J-000906D01*
G01*
X0576491Y0519430D01*
G75*
G02*
X0575585Y0518525I-000906J0000000D01*
G01*
X0572869Y0518525D01*
G75*
G02*
X0571963Y0519430I0000000J0000906D01*
G01*
X0571963Y0524706D01*
G75*
G02*
X0572869Y0525612I0000906J0000000D01*
G01*
G37*
G36*
G01*
X0464396Y0476360D02*
X0459475Y0476360D01*
G75*
G02*
X0459081Y0476753I0000000J0000394D01*
G01*
X0459081Y0479903D01*
G75*
G02*
X0459475Y0480297I0000394J0000000D01*
G01*
X0464396Y0480297D01*
G75*
G02*
X0464790Y0479903I0000000J-000394D01*
G01*
X0464790Y0476753D01*
G75*
G02*
X0464396Y0476360I-000394J0000000D01*
G01*
G37*
G36*
G01*
X0464396Y0483840D02*
X0459475Y0483840D01*
G75*
G02*
X0459081Y0484234I0000000J0000394D01*
G01*
X0459081Y0487383D01*
G75*
G02*
X0459475Y0487777I0000394J0000000D01*
G01*
X0464396Y0487777D01*
G75*
G02*
X0464790Y0487383I0000000J-000394D01*
G01*
X0464790Y0484234D01*
G75*
G02*
X0464396Y0483840I-000394J0000000D01*
G01*
G37*
G36*
G01*
X0559396Y0476360D02*
X0554475Y0476360D01*
G75*
G02*
X0554081Y0476753I0000000J0000394D01*
G01*
X0554081Y0479903D01*
G75*
G02*
X0554475Y0480297I0000394J0000000D01*
G01*
X0559396Y0480297D01*
G75*
G02*
X0559790Y0479903I0000000J-000394D01*
G01*
X0559790Y0476753D01*
G75*
G02*
X0559396Y0476360I-000394J0000000D01*
G01*
G37*
G36*
G01*
X0559396Y0483840D02*
X0554475Y0483840D01*
G75*
G02*
X0554081Y0484234I0000000J0000394D01*
G01*
X0554081Y0487383D01*
G75*
G02*
X0554475Y0487777I0000394J0000000D01*
G01*
X0559396Y0487777D01*
G75*
G02*
X0559790Y0487383I0000000J-000394D01*
G01*
X0559790Y0484234D01*
G75*
G02*
X0559396Y0483840I-000394J0000000D01*
G01*
G37*
G36*
G01*
X0097283Y0343159D02*
X0100354Y0343159D01*
G75*
G02*
X0100630Y0342884I0000000J-000276D01*
G01*
X0100630Y0340679D01*
G75*
G02*
X0100354Y0340404I-000276J0000000D01*
G01*
X0097283Y0340404D01*
G75*
G02*
X0097008Y0340679I0000000J0000276D01*
G01*
X0097008Y0342884D01*
G75*
G02*
X0097283Y0343159I0000276J0000000D01*
G01*
G37*
G36*
G01*
X0097283Y0336860D02*
X0100354Y0336860D01*
G75*
G02*
X0100630Y0336585I0000000J-000276D01*
G01*
X0100630Y0334380D01*
G75*
G02*
X0100354Y0334104I-000276J0000000D01*
G01*
X0097283Y0334104D01*
G75*
G02*
X0097008Y0334380I0000000J0000276D01*
G01*
X0097008Y0336585D01*
G75*
G02*
X0097283Y0336860I0000276J0000000D01*
G01*
G37*
G36*
G01*
X0450007Y0331281D02*
X0450007Y0328210D01*
G75*
G02*
X0449731Y0327934I-000276J0000000D01*
G01*
X0447526Y0327934D01*
G75*
G02*
X0447251Y0328210I0000000J0000276D01*
G01*
X0447251Y0331281D01*
G75*
G02*
X0447526Y0331556I0000276J0000000D01*
G01*
X0449731Y0331556D01*
G75*
G02*
X0450007Y0331281I0000000J-000276D01*
G01*
G37*
G36*
G01*
X0443707Y0331281D02*
X0443707Y0328210D01*
G75*
G02*
X0443432Y0327934I-000276J0000000D01*
G01*
X0441227Y0327934D01*
G75*
G02*
X0440951Y0328210I0000000J0000276D01*
G01*
X0440951Y0331281D01*
G75*
G02*
X0441227Y0331556I0000276J0000000D01*
G01*
X0443432Y0331556D01*
G75*
G02*
X0443707Y0331281I0000000J-000276D01*
G01*
G37*
G36*
G01*
X0242507Y0102226D02*
X0242507Y0104903D01*
G75*
G02*
X0242841Y0105238I0000335J0000000D01*
G01*
X0245518Y0105238D01*
G75*
G02*
X0245853Y0104903I0000000J-000335D01*
G01*
X0245853Y0102226D01*
G75*
G02*
X0245518Y0101891I-000335J0000000D01*
G01*
X0242841Y0101891D01*
G75*
G02*
X0242507Y0102226I0000000J0000335D01*
G01*
G37*
G36*
G01*
X0248727Y0102226D02*
X0248727Y0104903D01*
G75*
G02*
X0249062Y0105238I0000335J0000000D01*
G01*
X0251739Y0105238D01*
G75*
G02*
X0252074Y0104903I0000000J-000335D01*
G01*
X0252074Y0102226D01*
G75*
G02*
X0251739Y0101891I-000335J0000000D01*
G01*
X0249062Y0101891D01*
G75*
G02*
X0248727Y0102226I0000000J0000335D01*
G01*
G37*
G36*
G01*
X0488396Y0476360D02*
X0483475Y0476360D01*
G75*
G02*
X0483081Y0476753I0000000J0000394D01*
G01*
X0483081Y0479903D01*
G75*
G02*
X0483475Y0480297I0000394J0000000D01*
G01*
X0488396Y0480297D01*
G75*
G02*
X0488790Y0479903I0000000J-000394D01*
G01*
X0488790Y0476753D01*
G75*
G02*
X0488396Y0476360I-000394J0000000D01*
G01*
G37*
G36*
G01*
X0488396Y0483840D02*
X0483475Y0483840D01*
G75*
G02*
X0483081Y0484234I0000000J0000394D01*
G01*
X0483081Y0487383D01*
G75*
G02*
X0483475Y0487777I0000394J0000000D01*
G01*
X0488396Y0487777D01*
G75*
G02*
X0488790Y0487383I0000000J-000394D01*
G01*
X0488790Y0484234D01*
G75*
G02*
X0488396Y0483840I-000394J0000000D01*
G01*
G37*
G36*
G01*
X0172054Y0391517D02*
X0172054Y0388446D01*
G75*
G02*
X0171778Y0388171I-000276J0000000D01*
G01*
X0169574Y0388171D01*
G75*
G02*
X0169298Y0388446I0000000J0000276D01*
G01*
X0169298Y0391517D01*
G75*
G02*
X0169574Y0391793I0000276J0000000D01*
G01*
X0171778Y0391793D01*
G75*
G02*
X0172054Y0391517I0000000J-000276D01*
G01*
G37*
G36*
G01*
X0165755Y0391517D02*
X0165755Y0388446D01*
G75*
G02*
X0165479Y0388171I-000276J0000000D01*
G01*
X0163274Y0388171D01*
G75*
G02*
X0162999Y0388446I0000000J0000276D01*
G01*
X0162999Y0391517D01*
G75*
G02*
X0163274Y0391793I0000276J0000000D01*
G01*
X0165479Y0391793D01*
G75*
G02*
X0165755Y0391517I0000000J-000276D01*
G01*
G37*
X0225374Y0268983D03*
G36*
G01*
X0267347Y0025001D02*
X0267347Y0020119D01*
G75*
G02*
X0266835Y0019608I-000512J0000000D01*
G01*
X0262740Y0019608D01*
G75*
G02*
X0262228Y0020119I0000000J0000512D01*
G01*
X0262228Y0025001D01*
G75*
G02*
X0262740Y0025513I0000512J0000000D01*
G01*
X0266835Y0025513D01*
G75*
G02*
X0267347Y0025001I0000000J-000512D01*
G01*
G37*
G36*
G01*
X0274827Y0025001D02*
X0274827Y0020119D01*
G75*
G02*
X0274315Y0019608I-000512J0000000D01*
G01*
X0270221Y0019608D01*
G75*
G02*
X0269709Y0020119I0000000J0000512D01*
G01*
X0269709Y0025001D01*
G75*
G02*
X0270221Y0025513I0000512J0000000D01*
G01*
X0274315Y0025513D01*
G75*
G02*
X0274827Y0025001I0000000J-000512D01*
G01*
G37*
G36*
G01*
X0353396Y0473360D02*
X0348475Y0473360D01*
G75*
G02*
X0348081Y0473753I0000000J0000394D01*
G01*
X0348081Y0476903D01*
G75*
G02*
X0348475Y0477297I0000394J0000000D01*
G01*
X0353396Y0477297D01*
G75*
G02*
X0353790Y0476903I0000000J-000394D01*
G01*
X0353790Y0473753D01*
G75*
G02*
X0353396Y0473360I-000394J0000000D01*
G01*
G37*
G36*
G01*
X0353396Y0480840D02*
X0348475Y0480840D01*
G75*
G02*
X0348081Y0481234I0000000J0000394D01*
G01*
X0348081Y0484383D01*
G75*
G02*
X0348475Y0484777I0000394J0000000D01*
G01*
X0353396Y0484777D01*
G75*
G02*
X0353790Y0484383I0000000J-000394D01*
G01*
X0353790Y0481234D01*
G75*
G02*
X0353396Y0480840I-000394J0000000D01*
G01*
G37*
G36*
G01*
X0243354Y0297793D02*
X0243354Y0299682D01*
G75*
G02*
X0243590Y0299919I0000236J0000000D01*
G01*
X0245480Y0299919D01*
G75*
G02*
X0245716Y0299682I0000000J-000236D01*
G01*
X0245716Y0297793D01*
G75*
G02*
X0245480Y0297556I-000236J0000000D01*
G01*
X0243590Y0297556D01*
G75*
G02*
X0243354Y0297793I0000000J0000236D01*
G01*
G37*
G36*
G01*
X0243354Y0306454D02*
X0243354Y0308344D01*
G75*
G02*
X0243590Y0308580I0000236J0000000D01*
G01*
X0245480Y0308580D01*
G75*
G02*
X0245716Y0308344I0000000J-000236D01*
G01*
X0245716Y0306454D01*
G75*
G02*
X0245480Y0306218I-000236J0000000D01*
G01*
X0243590Y0306218D01*
G75*
G02*
X0243354Y0306454I0000000J0000236D01*
G01*
G37*
G36*
G01*
X0136969Y0474515D02*
X0139646Y0474515D01*
G75*
G02*
X0139981Y0474180I0000000J-000335D01*
G01*
X0139981Y0471503D01*
G75*
G02*
X0139646Y0471168I-000335J0000000D01*
G01*
X0136969Y0471168D01*
G75*
G02*
X0136635Y0471503I0000000J0000335D01*
G01*
X0136635Y0474180D01*
G75*
G02*
X0136969Y0474515I0000335J0000000D01*
G01*
G37*
G36*
G01*
X0136969Y0468294D02*
X0139646Y0468294D01*
G75*
G02*
X0139981Y0467960I0000000J-000335D01*
G01*
X0139981Y0465283D01*
G75*
G02*
X0139646Y0464948I-000335J0000000D01*
G01*
X0136969Y0464948D01*
G75*
G02*
X0136635Y0465283I0000000J0000335D01*
G01*
X0136635Y0467960D01*
G75*
G02*
X0136969Y0468294I0000335J0000000D01*
G01*
G37*
G36*
G01*
X0260676Y0090336D02*
X0263353Y0090336D01*
G75*
G02*
X0263688Y0090001I0000000J-000335D01*
G01*
X0263688Y0087324D01*
G75*
G02*
X0263353Y0086990I-000335J0000000D01*
G01*
X0260676Y0086990D01*
G75*
G02*
X0260341Y0087324I0000000J0000335D01*
G01*
X0260341Y0090001D01*
G75*
G02*
X0260676Y0090336I0000335J0000000D01*
G01*
G37*
G36*
G01*
X0260676Y0084116D02*
X0263353Y0084116D01*
G75*
G02*
X0263688Y0083781I0000000J-000335D01*
G01*
X0263688Y0081104D01*
G75*
G02*
X0263353Y0080769I-000335J0000000D01*
G01*
X0260676Y0080769D01*
G75*
G02*
X0260341Y0081104I0000000J0000335D01*
G01*
X0260341Y0083781D01*
G75*
G02*
X0260676Y0084116I0000335J0000000D01*
G01*
G37*
G36*
G01*
X0453928Y0455336D02*
X0457944Y0455336D01*
G75*
G02*
X0458298Y0454982I0000000J-000354D01*
G01*
X0458298Y0452147D01*
G75*
G02*
X0457944Y0451793I-000354J0000000D01*
G01*
X0453928Y0451793D01*
G75*
G02*
X0453574Y0452147I0000000J0000354D01*
G01*
X0453574Y0454982D01*
G75*
G02*
X0453928Y0455336I0000354J0000000D01*
G01*
G37*
G36*
G01*
X0453928Y0442344D02*
X0457944Y0442344D01*
G75*
G02*
X0458298Y0441990I0000000J-000354D01*
G01*
X0458298Y0439155D01*
G75*
G02*
X0457944Y0438801I-000354J0000000D01*
G01*
X0453928Y0438801D01*
G75*
G02*
X0453574Y0439155I0000000J0000354D01*
G01*
X0453574Y0441990D01*
G75*
G02*
X0453928Y0442344I0000354J0000000D01*
G01*
G37*
G36*
G01*
X0249140Y0083486D02*
X0256385Y0083486D01*
G75*
G02*
X0256700Y0083171I0000000J-000315D01*
G01*
X0256700Y0080651D01*
G75*
G02*
X0256385Y0080336I-000315J0000000D01*
G01*
X0249140Y0080336D01*
G75*
G02*
X0248826Y0080651I0000000J0000315D01*
G01*
X0248826Y0083171D01*
G75*
G02*
X0249140Y0083486I0000315J0000000D01*
G01*
G37*
G36*
G01*
X0249140Y0066950D02*
X0256385Y0066950D01*
G75*
G02*
X0256700Y0066635I0000000J-000315D01*
G01*
X0256700Y0064116D01*
G75*
G02*
X0256385Y0063801I-000315J0000000D01*
G01*
X0249140Y0063801D01*
G75*
G02*
X0248826Y0064116I0000000J0000315D01*
G01*
X0248826Y0066635D01*
G75*
G02*
X0249140Y0066950I0000315J0000000D01*
G01*
G37*
G36*
G01*
X0285874Y0297950D02*
X0282330Y0297950D01*
G75*
G02*
X0281937Y0298344I0000000J0000394D01*
G01*
X0281937Y0301493D01*
G75*
G02*
X0282330Y0301887I0000394J0000000D01*
G01*
X0285874Y0301887D01*
G75*
G02*
X0286267Y0301493I0000000J-000394D01*
G01*
X0286267Y0298344D01*
G75*
G02*
X0285874Y0297950I-000394J0000000D01*
G01*
G37*
G36*
G01*
X0285874Y0304643D02*
X0282330Y0304643D01*
G75*
G02*
X0281937Y0305037I0000000J0000394D01*
G01*
X0281937Y0308186D01*
G75*
G02*
X0282330Y0308580I0000394J0000000D01*
G01*
X0285874Y0308580D01*
G75*
G02*
X0286267Y0308186I0000000J-000394D01*
G01*
X0286267Y0305037D01*
G75*
G02*
X0285874Y0304643I-000394J0000000D01*
G01*
G37*
G36*
G01*
X0518924Y0332856D02*
X0518924Y0330179D01*
G75*
G02*
X0518589Y0329844I-000335J0000000D01*
G01*
X0515912Y0329844D01*
G75*
G02*
X0515577Y0330179I0000000J0000335D01*
G01*
X0515577Y0332856D01*
G75*
G02*
X0515912Y0333190I0000335J0000000D01*
G01*
X0518589Y0333190D01*
G75*
G02*
X0518924Y0332856I0000000J-000335D01*
G01*
G37*
G36*
G01*
X0512703Y0332856D02*
X0512703Y0330179D01*
G75*
G02*
X0512369Y0329844I-000335J0000000D01*
G01*
X0509692Y0329844D01*
G75*
G02*
X0509357Y0330179I0000000J0000335D01*
G01*
X0509357Y0332856D01*
G75*
G02*
X0509692Y0333190I0000335J0000000D01*
G01*
X0512369Y0333190D01*
G75*
G02*
X0512703Y0332856I0000000J-000335D01*
G01*
G37*
G36*
G01*
X0289755Y0297793D02*
X0289755Y0299682D01*
G75*
G02*
X0289991Y0299919I0000236J0000000D01*
G01*
X0291881Y0299919D01*
G75*
G02*
X0292117Y0299682I0000000J-000236D01*
G01*
X0292117Y0297793D01*
G75*
G02*
X0291881Y0297556I-000236J0000000D01*
G01*
X0289991Y0297556D01*
G75*
G02*
X0289755Y0297793I0000000J0000236D01*
G01*
G37*
G36*
G01*
X0289755Y0306454D02*
X0289755Y0308344D01*
G75*
G02*
X0289991Y0308580I0000236J0000000D01*
G01*
X0291881Y0308580D01*
G75*
G02*
X0292117Y0308344I0000000J-000236D01*
G01*
X0292117Y0306454D01*
G75*
G02*
X0291881Y0306218I-000236J0000000D01*
G01*
X0289991Y0306218D01*
G75*
G02*
X0289755Y0306454I0000000J0000236D01*
G01*
G37*
G36*
G01*
X0326060Y0367944D02*
X0326060Y0366054D01*
G75*
G02*
X0325824Y0365818I-000236J0000000D01*
G01*
X0323934Y0365818D01*
G75*
G02*
X0323698Y0366054I0000000J0000236D01*
G01*
X0323698Y0367944D01*
G75*
G02*
X0323934Y0368180I0000236J0000000D01*
G01*
X0325824Y0368180D01*
G75*
G02*
X0326060Y0367944I0000000J-000236D01*
G01*
G37*
G36*
G01*
X0326060Y0359283D02*
X0326060Y0357393D01*
G75*
G02*
X0325824Y0357157I-000236J0000000D01*
G01*
X0323934Y0357157D01*
G75*
G02*
X0323698Y0357393I0000000J0000236D01*
G01*
X0323698Y0359283D01*
G75*
G02*
X0323934Y0359519I0000236J0000000D01*
G01*
X0325824Y0359519D01*
G75*
G02*
X0326060Y0359283I0000000J-000236D01*
G01*
G37*
G36*
G01*
X0114154Y0355167D02*
X0109272Y0355167D01*
G75*
G02*
X0108760Y0355679I0000000J0000512D01*
G01*
X0108760Y0359774D01*
G75*
G02*
X0109272Y0360286I0000512J0000000D01*
G01*
X0114154Y0360286D01*
G75*
G02*
X0114665Y0359774I0000000J-000512D01*
G01*
X0114665Y0355679D01*
G75*
G02*
X0114154Y0355167I-000512J0000000D01*
G01*
G37*
G36*
G01*
X0114154Y0347687D02*
X0109272Y0347687D01*
G75*
G02*
X0108760Y0348199I0000000J0000512D01*
G01*
X0108760Y0352293D01*
G75*
G02*
X0109272Y0352805I0000512J0000000D01*
G01*
X0114154Y0352805D01*
G75*
G02*
X0114665Y0352293I0000000J-000512D01*
G01*
X0114665Y0348199D01*
G75*
G02*
X0114154Y0347687I-000512J0000000D01*
G01*
G37*
G36*
G01*
X0155617Y0396970D02*
X0159751Y0396970D01*
G75*
G02*
X0160144Y0396576I0000000J-000394D01*
G01*
X0160144Y0393427D01*
G75*
G02*
X0159751Y0393033I-000394J0000000D01*
G01*
X0155617Y0393033D01*
G75*
G02*
X0155223Y0393427I0000000J0000394D01*
G01*
X0155223Y0396576D01*
G75*
G02*
X0155617Y0396970I0000394J0000000D01*
G01*
G37*
G36*
G01*
X0155617Y0389096D02*
X0159751Y0389096D01*
G75*
G02*
X0160144Y0388702I0000000J-000394D01*
G01*
X0160144Y0385553D01*
G75*
G02*
X0159751Y0385159I-000394J0000000D01*
G01*
X0155617Y0385159D01*
G75*
G02*
X0155223Y0385553I0000000J0000394D01*
G01*
X0155223Y0388702D01*
G75*
G02*
X0155617Y0389096I0000394J0000000D01*
G01*
G37*
G36*
G01*
X0530396Y0476360D02*
X0525475Y0476360D01*
G75*
G02*
X0525081Y0476753I0000000J0000394D01*
G01*
X0525081Y0479903D01*
G75*
G02*
X0525475Y0480297I0000394J0000000D01*
G01*
X0530396Y0480297D01*
G75*
G02*
X0530790Y0479903I0000000J-000394D01*
G01*
X0530790Y0476753D01*
G75*
G02*
X0530396Y0476360I-000394J0000000D01*
G01*
G37*
G36*
G01*
X0530396Y0483840D02*
X0525475Y0483840D01*
G75*
G02*
X0525081Y0484234I0000000J0000394D01*
G01*
X0525081Y0487383D01*
G75*
G02*
X0525475Y0487777I0000394J0000000D01*
G01*
X0530396Y0487777D01*
G75*
G02*
X0530790Y0487383I0000000J-000394D01*
G01*
X0530790Y0484234D01*
G75*
G02*
X0530396Y0483840I-000394J0000000D01*
G01*
G37*
G36*
G01*
X0273235Y0283930D02*
X0273235Y0281293D01*
G75*
G02*
X0272979Y0281037I-000256J0000000D01*
G01*
X0270932Y0281037D01*
G75*
G02*
X0270676Y0281293I0000000J0000256D01*
G01*
X0270676Y0283930D01*
G75*
G02*
X0270932Y0284186I0000256J0000000D01*
G01*
X0272979Y0284186D01*
G75*
G02*
X0273235Y0283930I0000000J-000256D01*
G01*
G37*
G36*
G01*
X0269396Y0284009D02*
X0269396Y0281214D01*
G75*
G02*
X0269219Y0281037I-000177J0000000D01*
G01*
X0267802Y0281037D01*
G75*
G02*
X0267625Y0281214I0000000J0000177D01*
G01*
X0267625Y0284009D01*
G75*
G02*
X0267802Y0284186I0000177J0000000D01*
G01*
X0269219Y0284186D01*
G75*
G02*
X0269396Y0284009I0000000J-000177D01*
G01*
G37*
G36*
G01*
X0266247Y0284009D02*
X0266247Y0281214D01*
G75*
G02*
X0266070Y0281037I-000177J0000000D01*
G01*
X0264652Y0281037D01*
G75*
G02*
X0264475Y0281214I0000000J0000177D01*
G01*
X0264475Y0284009D01*
G75*
G02*
X0264652Y0284186I0000177J0000000D01*
G01*
X0266070Y0284186D01*
G75*
G02*
X0266247Y0284009I0000000J-000177D01*
G01*
G37*
G36*
G01*
X0263196Y0283930D02*
X0263196Y0281293D01*
G75*
G02*
X0262940Y0281037I-000256J0000000D01*
G01*
X0260892Y0281037D01*
G75*
G02*
X0260637Y0281293I0000000J0000256D01*
G01*
X0260637Y0283930D01*
G75*
G02*
X0260892Y0284186I0000256J0000000D01*
G01*
X0262940Y0284186D01*
G75*
G02*
X0263196Y0283930I0000000J-000256D01*
G01*
G37*
G36*
G01*
X0263196Y0276844D02*
X0263196Y0274206D01*
G75*
G02*
X0262940Y0273950I-000256J0000000D01*
G01*
X0260892Y0273950D01*
G75*
G02*
X0260637Y0274206I0000000J0000256D01*
G01*
X0260637Y0276844D01*
G75*
G02*
X0260892Y0277100I0000256J0000000D01*
G01*
X0262940Y0277100D01*
G75*
G02*
X0263196Y0276844I0000000J-000256D01*
G01*
G37*
G36*
G01*
X0266247Y0276923D02*
X0266247Y0274127D01*
G75*
G02*
X0266070Y0273950I-000177J0000000D01*
G01*
X0264652Y0273950D01*
G75*
G02*
X0264475Y0274127I0000000J0000177D01*
G01*
X0264475Y0276923D01*
G75*
G02*
X0264652Y0277100I0000177J0000000D01*
G01*
X0266070Y0277100D01*
G75*
G02*
X0266247Y0276923I0000000J-000177D01*
G01*
G37*
G36*
G01*
X0269396Y0276923D02*
X0269396Y0274127D01*
G75*
G02*
X0269219Y0273950I-000177J0000000D01*
G01*
X0267802Y0273950D01*
G75*
G02*
X0267625Y0274127I0000000J0000177D01*
G01*
X0267625Y0276923D01*
G75*
G02*
X0267802Y0277100I0000177J0000000D01*
G01*
X0269219Y0277100D01*
G75*
G02*
X0269396Y0276923I0000000J-000177D01*
G01*
G37*
G36*
G01*
X0273235Y0276844D02*
X0273235Y0274206D01*
G75*
G02*
X0272979Y0273950I-000256J0000000D01*
G01*
X0270932Y0273950D01*
G75*
G02*
X0270676Y0274206I0000000J0000256D01*
G01*
X0270676Y0276844D01*
G75*
G02*
X0270932Y0277100I0000256J0000000D01*
G01*
X0272979Y0277100D01*
G75*
G02*
X0273235Y0276844I0000000J-000256D01*
G01*
G37*
G36*
G01*
X0187396Y0473360D02*
X0182475Y0473360D01*
G75*
G02*
X0182081Y0473753I0000000J0000394D01*
G01*
X0182081Y0476903D01*
G75*
G02*
X0182475Y0477297I0000394J0000000D01*
G01*
X0187396Y0477297D01*
G75*
G02*
X0187790Y0476903I0000000J-000394D01*
G01*
X0187790Y0473753D01*
G75*
G02*
X0187396Y0473360I-000394J0000000D01*
G01*
G37*
G36*
G01*
X0187396Y0480840D02*
X0182475Y0480840D01*
G75*
G02*
X0182081Y0481234I0000000J0000394D01*
G01*
X0182081Y0484383D01*
G75*
G02*
X0182475Y0484777I0000394J0000000D01*
G01*
X0187396Y0484777D01*
G75*
G02*
X0187790Y0484383I0000000J-000394D01*
G01*
X0187790Y0481234D01*
G75*
G02*
X0187396Y0480840I-000394J0000000D01*
G01*
G37*
G36*
G01*
X0496396Y0476360D02*
X0491475Y0476360D01*
G75*
G02*
X0491081Y0476753I0000000J0000394D01*
G01*
X0491081Y0479903D01*
G75*
G02*
X0491475Y0480297I0000394J0000000D01*
G01*
X0496396Y0480297D01*
G75*
G02*
X0496790Y0479903I0000000J-000394D01*
G01*
X0496790Y0476753D01*
G75*
G02*
X0496396Y0476360I-000394J0000000D01*
G01*
G37*
G36*
G01*
X0496396Y0483840D02*
X0491475Y0483840D01*
G75*
G02*
X0491081Y0484234I0000000J0000394D01*
G01*
X0491081Y0487383D01*
G75*
G02*
X0491475Y0487777I0000394J0000000D01*
G01*
X0496396Y0487777D01*
G75*
G02*
X0496790Y0487383I0000000J-000394D01*
G01*
X0496790Y0484234D01*
G75*
G02*
X0496396Y0483840I-000394J0000000D01*
G01*
G37*
G36*
G01*
X0196392Y0483419D02*
X0196392Y0486135D01*
G75*
G02*
X0197298Y0487041I0000906J0000000D01*
G01*
X0202574Y0487041D01*
G75*
G02*
X0203479Y0486135I0000000J-000906D01*
G01*
X0203479Y0483419D01*
G75*
G02*
X0202574Y0482513I-000906J0000000D01*
G01*
X0197298Y0482513D01*
G75*
G02*
X0196392Y0483419I0000000J0000906D01*
G01*
G37*
G36*
G01*
X0196392Y0472001D02*
X0196392Y0474718D01*
G75*
G02*
X0197298Y0475623I0000906J0000000D01*
G01*
X0202574Y0475623D01*
G75*
G02*
X0203479Y0474718I0000000J-000906D01*
G01*
X0203479Y0472001D01*
G75*
G02*
X0202574Y0471096I-000906J0000000D01*
G01*
X0197298Y0471096D01*
G75*
G02*
X0196392Y0472001I0000000J0000906D01*
G01*
G37*
G36*
G01*
X0512396Y0476360D02*
X0507475Y0476360D01*
G75*
G02*
X0507081Y0476753I0000000J0000394D01*
G01*
X0507081Y0479903D01*
G75*
G02*
X0507475Y0480297I0000394J0000000D01*
G01*
X0512396Y0480297D01*
G75*
G02*
X0512790Y0479903I0000000J-000394D01*
G01*
X0512790Y0476753D01*
G75*
G02*
X0512396Y0476360I-000394J0000000D01*
G01*
G37*
G36*
G01*
X0512396Y0483840D02*
X0507475Y0483840D01*
G75*
G02*
X0507081Y0484234I0000000J0000394D01*
G01*
X0507081Y0487383D01*
G75*
G02*
X0507475Y0487777I0000394J0000000D01*
G01*
X0512396Y0487777D01*
G75*
G02*
X0512790Y0487383I0000000J-000394D01*
G01*
X0512790Y0484234D01*
G75*
G02*
X0512396Y0483840I-000394J0000000D01*
G01*
G37*
G36*
G01*
X0447290Y0382255D02*
X0449180Y0382255D01*
G75*
G02*
X0449416Y0382019I0000000J-000236D01*
G01*
X0449416Y0380129D01*
G75*
G02*
X0449180Y0379893I-000236J0000000D01*
G01*
X0447290Y0379893D01*
G75*
G02*
X0447054Y0380129I0000000J0000236D01*
G01*
X0447054Y0382019D01*
G75*
G02*
X0447290Y0382255I0000236J0000000D01*
G01*
G37*
G36*
G01*
X0455951Y0382255D02*
X0457841Y0382255D01*
G75*
G02*
X0458077Y0382019I0000000J-000236D01*
G01*
X0458077Y0380129D01*
G75*
G02*
X0457841Y0379893I-000236J0000000D01*
G01*
X0455951Y0379893D01*
G75*
G02*
X0455715Y0380129I0000000J0000236D01*
G01*
X0455715Y0382019D01*
G75*
G02*
X0455951Y0382255I0000236J0000000D01*
G01*
G37*
X0332737Y0409444D03*
G36*
G01*
X0389672Y0424627D02*
X0394593Y0424627D01*
G75*
G02*
X0394987Y0424234I0000000J-000394D01*
G01*
X0394987Y0421084D01*
G75*
G02*
X0394593Y0420690I-000394J0000000D01*
G01*
X0389672Y0420690D01*
G75*
G02*
X0389278Y0421084I0000000J0000394D01*
G01*
X0389278Y0424234D01*
G75*
G02*
X0389672Y0424627I0000394J0000000D01*
G01*
G37*
G36*
G01*
X0389672Y0417147D02*
X0394593Y0417147D01*
G75*
G02*
X0394987Y0416753I0000000J-000394D01*
G01*
X0394987Y0413604D01*
G75*
G02*
X0394593Y0413210I-000394J0000000D01*
G01*
X0389672Y0413210D01*
G75*
G02*
X0389278Y0413604I0000000J0000394D01*
G01*
X0389278Y0416753D01*
G75*
G02*
X0389672Y0417147I0000394J0000000D01*
G01*
G37*
G36*
G01*
X0400475Y0484777D02*
X0405396Y0484777D01*
G75*
G02*
X0405790Y0484383I0000000J-000394D01*
G01*
X0405790Y0481234D01*
G75*
G02*
X0405396Y0480840I-000394J0000000D01*
G01*
X0400475Y0480840D01*
G75*
G02*
X0400081Y0481234I0000000J0000394D01*
G01*
X0400081Y0484383D01*
G75*
G02*
X0400475Y0484777I0000394J0000000D01*
G01*
G37*
G36*
G01*
X0400475Y0477297D02*
X0405396Y0477297D01*
G75*
G02*
X0405790Y0476903I0000000J-000394D01*
G01*
X0405790Y0473753D01*
G75*
G02*
X0405396Y0473360I-000394J0000000D01*
G01*
X0400475Y0473360D01*
G75*
G02*
X0400081Y0473753I0000000J0000394D01*
G01*
X0400081Y0476903D01*
G75*
G02*
X0400475Y0477297I0000394J0000000D01*
G01*
G37*
X0411884Y0076982D03*
G36*
G01*
X0267152Y0083486D02*
X0274396Y0083486D01*
G75*
G02*
X0274711Y0083171I0000000J-000315D01*
G01*
X0274711Y0080651D01*
G75*
G02*
X0274396Y0080336I-000315J0000000D01*
G01*
X0267152Y0080336D01*
G75*
G02*
X0266837Y0080651I0000000J0000315D01*
G01*
X0266837Y0083171D01*
G75*
G02*
X0267152Y0083486I0000315J0000000D01*
G01*
G37*
G36*
G01*
X0267152Y0066950D02*
X0274396Y0066950D01*
G75*
G02*
X0274711Y0066635I0000000J-000315D01*
G01*
X0274711Y0064116D01*
G75*
G02*
X0274396Y0063801I-000315J0000000D01*
G01*
X0267152Y0063801D01*
G75*
G02*
X0266837Y0064116I0000000J0000315D01*
G01*
X0266837Y0066635D01*
G75*
G02*
X0267152Y0066950I0000315J0000000D01*
G01*
G37*
G36*
G01*
X0472396Y0476360D02*
X0467475Y0476360D01*
G75*
G02*
X0467081Y0476753I0000000J0000394D01*
G01*
X0467081Y0479903D01*
G75*
G02*
X0467475Y0480297I0000394J0000000D01*
G01*
X0472396Y0480297D01*
G75*
G02*
X0472790Y0479903I0000000J-000394D01*
G01*
X0472790Y0476753D01*
G75*
G02*
X0472396Y0476360I-000394J0000000D01*
G01*
G37*
G36*
G01*
X0472396Y0483840D02*
X0467475Y0483840D01*
G75*
G02*
X0467081Y0484234I0000000J0000394D01*
G01*
X0467081Y0487383D01*
G75*
G02*
X0467475Y0487777I0000394J0000000D01*
G01*
X0472396Y0487777D01*
G75*
G02*
X0472790Y0487383I0000000J-000394D01*
G01*
X0472790Y0484234D01*
G75*
G02*
X0472396Y0483840I-000394J0000000D01*
G01*
G37*
G36*
G01*
X0206392Y0483419D02*
X0206392Y0486135D01*
G75*
G02*
X0207298Y0487041I0000906J0000000D01*
G01*
X0212574Y0487041D01*
G75*
G02*
X0213479Y0486135I0000000J-000906D01*
G01*
X0213479Y0483419D01*
G75*
G02*
X0212574Y0482513I-000906J0000000D01*
G01*
X0207298Y0482513D01*
G75*
G02*
X0206392Y0483419I0000000J0000906D01*
G01*
G37*
G36*
G01*
X0206392Y0472001D02*
X0206392Y0474718D01*
G75*
G02*
X0207298Y0475623I0000906J0000000D01*
G01*
X0212574Y0475623D01*
G75*
G02*
X0213479Y0474718I0000000J-000906D01*
G01*
X0213479Y0472001D01*
G75*
G02*
X0212574Y0471096I-000906J0000000D01*
G01*
X0207298Y0471096D01*
G75*
G02*
X0206392Y0472001I0000000J0000906D01*
G01*
G37*
G36*
G01*
X0313117Y0367950D02*
X0313117Y0366060D01*
G75*
G02*
X0312881Y0365824I-000236J0000000D01*
G01*
X0310991Y0365824D01*
G75*
G02*
X0310755Y0366060I0000000J0000236D01*
G01*
X0310755Y0367950D01*
G75*
G02*
X0310991Y0368186I0000236J0000000D01*
G01*
X0312881Y0368186D01*
G75*
G02*
X0313117Y0367950I0000000J-000236D01*
G01*
G37*
G36*
G01*
X0313117Y0359289D02*
X0313117Y0357399D01*
G75*
G02*
X0312881Y0357163I-000236J0000000D01*
G01*
X0310991Y0357163D01*
G75*
G02*
X0310755Y0357399I0000000J0000236D01*
G01*
X0310755Y0359289D01*
G75*
G02*
X0310991Y0359525I0000236J0000000D01*
G01*
X0312881Y0359525D01*
G75*
G02*
X0313117Y0359289I0000000J-000236D01*
G01*
G37*
G36*
G01*
X0447054Y0393328D02*
X0447054Y0396871D01*
G75*
G02*
X0447448Y0397265I0000394J0000000D01*
G01*
X0450597Y0397265D01*
G75*
G02*
X0450991Y0396871I0000000J-000394D01*
G01*
X0450991Y0393328D01*
G75*
G02*
X0450597Y0392934I-000394J0000000D01*
G01*
X0447448Y0392934D01*
G75*
G02*
X0447054Y0393328I0000000J0000394D01*
G01*
G37*
G36*
G01*
X0453747Y0393328D02*
X0453747Y0396871D01*
G75*
G02*
X0454140Y0397265I0000394J0000000D01*
G01*
X0457290Y0397265D01*
G75*
G02*
X0457684Y0396871I0000000J-000394D01*
G01*
X0457684Y0393328D01*
G75*
G02*
X0457290Y0392934I-000394J0000000D01*
G01*
X0454140Y0392934D01*
G75*
G02*
X0453747Y0393328I0000000J0000394D01*
G01*
G37*
G36*
G01*
X0171674Y0476818D02*
X0175808Y0476818D01*
G75*
G02*
X0176202Y0476424I0000000J-000394D01*
G01*
X0176202Y0473275D01*
G75*
G02*
X0175808Y0472881I-000394J0000000D01*
G01*
X0171674Y0472881D01*
G75*
G02*
X0171280Y0473275I0000000J0000394D01*
G01*
X0171280Y0476424D01*
G75*
G02*
X0171674Y0476818I0000394J0000000D01*
G01*
G37*
G36*
G01*
X0171674Y0468944D02*
X0175808Y0468944D01*
G75*
G02*
X0176202Y0468550I0000000J-000394D01*
G01*
X0176202Y0465401D01*
G75*
G02*
X0175808Y0465007I-000394J0000000D01*
G01*
X0171674Y0465007D01*
G75*
G02*
X0171280Y0465401I0000000J0000394D01*
G01*
X0171280Y0468550D01*
G75*
G02*
X0171674Y0468944I0000394J0000000D01*
G01*
G37*
G36*
G01*
X0430381Y0397659D02*
X0433018Y0397659D01*
G75*
G02*
X0433274Y0397403I0000000J-000256D01*
G01*
X0433274Y0395356D01*
G75*
G02*
X0433018Y0395100I-000256J0000000D01*
G01*
X0430381Y0395100D01*
G75*
G02*
X0430125Y0395356I0000000J0000256D01*
G01*
X0430125Y0397403D01*
G75*
G02*
X0430381Y0397659I0000256J0000000D01*
G01*
G37*
G36*
G01*
X0430302Y0393820D02*
X0433097Y0393820D01*
G75*
G02*
X0433274Y0393643I0000000J-000177D01*
G01*
X0433274Y0392226D01*
G75*
G02*
X0433097Y0392049I-000177J0000000D01*
G01*
X0430302Y0392049D01*
G75*
G02*
X0430125Y0392226I0000000J0000177D01*
G01*
X0430125Y0393643D01*
G75*
G02*
X0430302Y0393820I0000177J0000000D01*
G01*
G37*
G36*
G01*
X0430302Y0390671D02*
X0433097Y0390671D01*
G75*
G02*
X0433274Y0390493I0000000J-000177D01*
G01*
X0433274Y0389076D01*
G75*
G02*
X0433097Y0388899I-000177J0000000D01*
G01*
X0430302Y0388899D01*
G75*
G02*
X0430125Y0389076I0000000J0000177D01*
G01*
X0430125Y0390493D01*
G75*
G02*
X0430302Y0390671I0000177J0000000D01*
G01*
G37*
G36*
G01*
X0430381Y0387619D02*
X0433018Y0387619D01*
G75*
G02*
X0433274Y0387364I0000000J-000256D01*
G01*
X0433274Y0385316D01*
G75*
G02*
X0433018Y0385060I-000256J0000000D01*
G01*
X0430381Y0385060D01*
G75*
G02*
X0430125Y0385316I0000000J0000256D01*
G01*
X0430125Y0387364D01*
G75*
G02*
X0430381Y0387619I0000256J0000000D01*
G01*
G37*
G36*
G01*
X0437467Y0387619D02*
X0440105Y0387619D01*
G75*
G02*
X0440361Y0387364I0000000J-000256D01*
G01*
X0440361Y0385316D01*
G75*
G02*
X0440105Y0385060I-000256J0000000D01*
G01*
X0437467Y0385060D01*
G75*
G02*
X0437211Y0385316I0000000J0000256D01*
G01*
X0437211Y0387364D01*
G75*
G02*
X0437467Y0387619I0000256J0000000D01*
G01*
G37*
G36*
G01*
X0437389Y0390671D02*
X0440184Y0390671D01*
G75*
G02*
X0440361Y0390493I0000000J-000177D01*
G01*
X0440361Y0389076D01*
G75*
G02*
X0440184Y0388899I-000177J0000000D01*
G01*
X0437389Y0388899D01*
G75*
G02*
X0437211Y0389076I0000000J0000177D01*
G01*
X0437211Y0390493D01*
G75*
G02*
X0437389Y0390671I0000177J0000000D01*
G01*
G37*
G36*
G01*
X0437389Y0393820D02*
X0440184Y0393820D01*
G75*
G02*
X0440361Y0393643I0000000J-000177D01*
G01*
X0440361Y0392226D01*
G75*
G02*
X0440184Y0392049I-000177J0000000D01*
G01*
X0437389Y0392049D01*
G75*
G02*
X0437211Y0392226I0000000J0000177D01*
G01*
X0437211Y0393643D01*
G75*
G02*
X0437389Y0393820I0000177J0000000D01*
G01*
G37*
G36*
G01*
X0437467Y0397659D02*
X0440105Y0397659D01*
G75*
G02*
X0440361Y0397403I0000000J-000256D01*
G01*
X0440361Y0395356D01*
G75*
G02*
X0440105Y0395100I-000256J0000000D01*
G01*
X0437467Y0395100D01*
G75*
G02*
X0437211Y0395356I0000000J0000256D01*
G01*
X0437211Y0397403D01*
G75*
G02*
X0437467Y0397659I0000256J0000000D01*
G01*
G37*
G36*
G01*
X0472511Y0191950D02*
X0468967Y0191950D01*
G75*
G02*
X0468574Y0192344I0000000J0000394D01*
G01*
X0468574Y0195493D01*
G75*
G02*
X0468967Y0195887I0000394J0000000D01*
G01*
X0472511Y0195887D01*
G75*
G02*
X0472904Y0195493I0000000J-000394D01*
G01*
X0472904Y0192344D01*
G75*
G02*
X0472511Y0191950I-000394J0000000D01*
G01*
G37*
G36*
G01*
X0472511Y0198643D02*
X0468967Y0198643D01*
G75*
G02*
X0468574Y0199037I0000000J0000394D01*
G01*
X0468574Y0202186D01*
G75*
G02*
X0468967Y0202580I0000394J0000000D01*
G01*
X0472511Y0202580D01*
G75*
G02*
X0472904Y0202186I0000000J-000394D01*
G01*
X0472904Y0199037D01*
G75*
G02*
X0472511Y0198643I-000394J0000000D01*
G01*
G37*
G36*
G01*
X0252511Y0297950D02*
X0248967Y0297950D01*
G75*
G02*
X0248574Y0298344I0000000J0000394D01*
G01*
X0248574Y0301493D01*
G75*
G02*
X0248967Y0301887I0000394J0000000D01*
G01*
X0252511Y0301887D01*
G75*
G02*
X0252904Y0301493I0000000J-000394D01*
G01*
X0252904Y0298344D01*
G75*
G02*
X0252511Y0297950I-000394J0000000D01*
G01*
G37*
G36*
G01*
X0252511Y0304643D02*
X0248967Y0304643D01*
G75*
G02*
X0248574Y0305037I0000000J0000394D01*
G01*
X0248574Y0308186D01*
G75*
G02*
X0248967Y0308580I0000394J0000000D01*
G01*
X0252511Y0308580D01*
G75*
G02*
X0252904Y0308186I0000000J-000394D01*
G01*
X0252904Y0305037D01*
G75*
G02*
X0252511Y0304643I-000394J0000000D01*
G01*
G37*
G36*
G01*
X0265401Y0297950D02*
X0261858Y0297950D01*
G75*
G02*
X0261464Y0298344I0000000J0000394D01*
G01*
X0261464Y0301493D01*
G75*
G02*
X0261858Y0301887I0000394J0000000D01*
G01*
X0265401Y0301887D01*
G75*
G02*
X0265795Y0301493I0000000J-000394D01*
G01*
X0265795Y0298344D01*
G75*
G02*
X0265401Y0297950I-000394J0000000D01*
G01*
G37*
G36*
G01*
X0265401Y0304643D02*
X0261858Y0304643D01*
G75*
G02*
X0261464Y0305037I0000000J0000394D01*
G01*
X0261464Y0308186D01*
G75*
G02*
X0261858Y0308580I0000394J0000000D01*
G01*
X0265401Y0308580D01*
G75*
G02*
X0265795Y0308186I0000000J-000394D01*
G01*
X0265795Y0305037D01*
G75*
G02*
X0265401Y0304643I-000394J0000000D01*
G01*
G37*
G36*
G01*
X0384152Y0436478D02*
X0384152Y0439155D01*
G75*
G02*
X0384487Y0439490I0000335J0000000D01*
G01*
X0387164Y0439490D01*
G75*
G02*
X0387499Y0439155I0000000J-000335D01*
G01*
X0387499Y0436478D01*
G75*
G02*
X0387164Y0436143I-000335J0000000D01*
G01*
X0384487Y0436143D01*
G75*
G02*
X0384152Y0436478I0000000J0000335D01*
G01*
G37*
G36*
G01*
X0390373Y0436478D02*
X0390373Y0439155D01*
G75*
G02*
X0390707Y0439490I0000335J0000000D01*
G01*
X0393385Y0439490D01*
G75*
G02*
X0393719Y0439155I0000000J-000335D01*
G01*
X0393719Y0436478D01*
G75*
G02*
X0393385Y0436143I-000335J0000000D01*
G01*
X0390707Y0436143D01*
G75*
G02*
X0390373Y0436478I0000000J0000335D01*
G01*
G37*
G36*
G01*
X0256346Y0297793D02*
X0256346Y0299682D01*
G75*
G02*
X0256582Y0299919I0000236J0000000D01*
G01*
X0258472Y0299919D01*
G75*
G02*
X0258708Y0299682I0000000J-000236D01*
G01*
X0258708Y0297793D01*
G75*
G02*
X0258472Y0297556I-000236J0000000D01*
G01*
X0256582Y0297556D01*
G75*
G02*
X0256346Y0297793I0000000J0000236D01*
G01*
G37*
G36*
G01*
X0256346Y0306454D02*
X0256346Y0308344D01*
G75*
G02*
X0256582Y0308580I0000236J0000000D01*
G01*
X0258472Y0308580D01*
G75*
G02*
X0258708Y0308344I0000000J-000236D01*
G01*
X0258708Y0306454D01*
G75*
G02*
X0258472Y0306218I-000236J0000000D01*
G01*
X0256582Y0306218D01*
G75*
G02*
X0256346Y0306454I0000000J0000236D01*
G01*
G37*
G36*
G01*
X0163997Y0465007D02*
X0159863Y0465007D01*
G75*
G02*
X0159469Y0465401I0000000J0000394D01*
G01*
X0159469Y0468550D01*
G75*
G02*
X0159863Y0468944I0000394J0000000D01*
G01*
X0163997Y0468944D01*
G75*
G02*
X0164391Y0468550I0000000J-000394D01*
G01*
X0164391Y0465401D01*
G75*
G02*
X0163997Y0465007I-000394J0000000D01*
G01*
G37*
G36*
G01*
X0163997Y0472881D02*
X0159863Y0472881D01*
G75*
G02*
X0159469Y0473275I0000000J0000394D01*
G01*
X0159469Y0476424D01*
G75*
G02*
X0159863Y0476818I0000394J0000000D01*
G01*
X0163997Y0476818D01*
G75*
G02*
X0164391Y0476424I0000000J-000394D01*
G01*
X0164391Y0473275D01*
G75*
G02*
X0163997Y0472881I-000394J0000000D01*
G01*
G37*
G36*
G01*
X0447290Y0402777D02*
X0449180Y0402777D01*
G75*
G02*
X0449416Y0402541I0000000J-000236D01*
G01*
X0449416Y0400651D01*
G75*
G02*
X0449180Y0400415I-000236J0000000D01*
G01*
X0447290Y0400415D01*
G75*
G02*
X0447054Y0400651I0000000J0000236D01*
G01*
X0447054Y0402541D01*
G75*
G02*
X0447290Y0402777I0000236J0000000D01*
G01*
G37*
G36*
G01*
X0455951Y0402777D02*
X0457841Y0402777D01*
G75*
G02*
X0458077Y0402541I0000000J-000236D01*
G01*
X0458077Y0400651D01*
G75*
G02*
X0457841Y0400415I-000236J0000000D01*
G01*
X0455951Y0400415D01*
G75*
G02*
X0455715Y0400651I0000000J0000236D01*
G01*
X0455715Y0402541D01*
G75*
G02*
X0455951Y0402777I0000236J0000000D01*
G01*
G37*
G36*
G01*
X0397396Y0473360D02*
X0392475Y0473360D01*
G75*
G02*
X0392081Y0473753I0000000J0000394D01*
G01*
X0392081Y0476903D01*
G75*
G02*
X0392475Y0477297I0000394J0000000D01*
G01*
X0397396Y0477297D01*
G75*
G02*
X0397790Y0476903I0000000J-000394D01*
G01*
X0397790Y0473753D01*
G75*
G02*
X0397396Y0473360I-000394J0000000D01*
G01*
G37*
G36*
G01*
X0397396Y0480840D02*
X0392475Y0480840D01*
G75*
G02*
X0392081Y0481234I0000000J0000394D01*
G01*
X0392081Y0484383D01*
G75*
G02*
X0392475Y0484777I0000394J0000000D01*
G01*
X0397396Y0484777D01*
G75*
G02*
X0397790Y0484383I0000000J-000394D01*
G01*
X0397790Y0481234D01*
G75*
G02*
X0397396Y0480840I-000394J0000000D01*
G01*
G37*
G36*
G01*
X0146280Y0465007D02*
X0142146Y0465007D01*
G75*
G02*
X0141753Y0465401I0000000J0000394D01*
G01*
X0141753Y0468550D01*
G75*
G02*
X0142146Y0468944I0000394J0000000D01*
G01*
X0146280Y0468944D01*
G75*
G02*
X0146674Y0468550I0000000J-000394D01*
G01*
X0146674Y0465401D01*
G75*
G02*
X0146280Y0465007I-000394J0000000D01*
G01*
G37*
G36*
G01*
X0146280Y0472881D02*
X0142146Y0472881D01*
G75*
G02*
X0141753Y0473275I0000000J0000394D01*
G01*
X0141753Y0476424D01*
G75*
G02*
X0142146Y0476818I0000394J0000000D01*
G01*
X0146280Y0476818D01*
G75*
G02*
X0146674Y0476424I0000000J-000394D01*
G01*
X0146674Y0473275D01*
G75*
G02*
X0146280Y0472881I-000394J0000000D01*
G01*
G37*
G36*
G01*
X0349928Y0368214D02*
X0353471Y0368214D01*
G75*
G02*
X0353865Y0367820I0000000J-000394D01*
G01*
X0353865Y0364671D01*
G75*
G02*
X0353471Y0364277I-000394J0000000D01*
G01*
X0349928Y0364277D01*
G75*
G02*
X0349534Y0364671I0000000J0000394D01*
G01*
X0349534Y0367820D01*
G75*
G02*
X0349928Y0368214I0000394J0000000D01*
G01*
G37*
G36*
G01*
X0349928Y0361521D02*
X0353471Y0361521D01*
G75*
G02*
X0353865Y0361128I0000000J-000394D01*
G01*
X0353865Y0357978D01*
G75*
G02*
X0353471Y0357584I-000394J0000000D01*
G01*
X0349928Y0357584D01*
G75*
G02*
X0349534Y0357978I0000000J0000394D01*
G01*
X0349534Y0361128D01*
G75*
G02*
X0349928Y0361521I0000394J0000000D01*
G01*
G37*
G36*
G01*
X0344101Y0301537D02*
X0344101Y0304608D01*
G75*
G02*
X0344377Y0304883I0000276J0000000D01*
G01*
X0346581Y0304883D01*
G75*
G02*
X0346857Y0304608I0000000J-000276D01*
G01*
X0346857Y0301537D01*
G75*
G02*
X0346581Y0301261I-000276J0000000D01*
G01*
X0344377Y0301261D01*
G75*
G02*
X0344101Y0301537I0000000J0000276D01*
G01*
G37*
G36*
G01*
X0350400Y0301537D02*
X0350400Y0304608D01*
G75*
G02*
X0350676Y0304883I0000276J0000000D01*
G01*
X0352881Y0304883D01*
G75*
G02*
X0353156Y0304608I0000000J-000276D01*
G01*
X0353156Y0301537D01*
G75*
G02*
X0352881Y0301261I-000276J0000000D01*
G01*
X0350676Y0301261D01*
G75*
G02*
X0350400Y0301537I0000000J0000276D01*
G01*
G37*
G36*
G01*
X0384455Y0441399D02*
X0384455Y0444470D01*
G75*
G02*
X0384731Y0444745I0000276J0000000D01*
G01*
X0386936Y0444745D01*
G75*
G02*
X0387211Y0444470I0000000J-000276D01*
G01*
X0387211Y0441399D01*
G75*
G02*
X0386936Y0441123I-000276J0000000D01*
G01*
X0384731Y0441123D01*
G75*
G02*
X0384455Y0441399I0000000J0000276D01*
G01*
G37*
G36*
G01*
X0390755Y0441399D02*
X0390755Y0444470D01*
G75*
G02*
X0391030Y0444745I0000276J0000000D01*
G01*
X0393235Y0444745D01*
G75*
G02*
X0393511Y0444470I0000000J-000276D01*
G01*
X0393511Y0441399D01*
G75*
G02*
X0393235Y0441123I-000276J0000000D01*
G01*
X0391030Y0441123D01*
G75*
G02*
X0390755Y0441399I0000000J0000276D01*
G01*
G37*
G36*
G01*
X0480396Y0476360D02*
X0475475Y0476360D01*
G75*
G02*
X0475081Y0476753I0000000J0000394D01*
G01*
X0475081Y0479903D01*
G75*
G02*
X0475475Y0480297I0000394J0000000D01*
G01*
X0480396Y0480297D01*
G75*
G02*
X0480790Y0479903I0000000J-000394D01*
G01*
X0480790Y0476753D01*
G75*
G02*
X0480396Y0476360I-000394J0000000D01*
G01*
G37*
G36*
G01*
X0480396Y0483840D02*
X0475475Y0483840D01*
G75*
G02*
X0475081Y0484234I0000000J0000394D01*
G01*
X0475081Y0487383D01*
G75*
G02*
X0475475Y0487777I0000394J0000000D01*
G01*
X0480396Y0487777D01*
G75*
G02*
X0480790Y0487383I0000000J-000394D01*
G01*
X0480790Y0484234D01*
G75*
G02*
X0480396Y0483840I-000394J0000000D01*
G01*
G37*
G36*
G01*
X0316660Y0368186D02*
X0320203Y0368186D01*
G75*
G02*
X0320597Y0367793I0000000J-000394D01*
G01*
X0320597Y0364643D01*
G75*
G02*
X0320203Y0364249I-000394J0000000D01*
G01*
X0316660Y0364249D01*
G75*
G02*
X0316266Y0364643I0000000J0000394D01*
G01*
X0316266Y0367793D01*
G75*
G02*
X0316660Y0368186I0000394J0000000D01*
G01*
G37*
G36*
G01*
X0316660Y0361493D02*
X0320203Y0361493D01*
G75*
G02*
X0320597Y0361100I0000000J-000394D01*
G01*
X0320597Y0357950D01*
G75*
G02*
X0320203Y0357556I-000394J0000000D01*
G01*
X0316660Y0357556D01*
G75*
G02*
X0316266Y0357950I0000000J0000394D01*
G01*
X0316266Y0361100D01*
G75*
G02*
X0316660Y0361493I0000394J0000000D01*
G01*
G37*
G36*
G01*
X0346581Y0367950D02*
X0346581Y0366060D01*
G75*
G02*
X0346345Y0365824I-000236J0000000D01*
G01*
X0344455Y0365824D01*
G75*
G02*
X0344219Y0366060I0000000J0000236D01*
G01*
X0344219Y0367950D01*
G75*
G02*
X0344455Y0368186I0000236J0000000D01*
G01*
X0346345Y0368186D01*
G75*
G02*
X0346581Y0367950I0000000J-000236D01*
G01*
G37*
G36*
G01*
X0346581Y0359289D02*
X0346581Y0357399D01*
G75*
G02*
X0346345Y0357163I-000236J0000000D01*
G01*
X0344455Y0357163D01*
G75*
G02*
X0344219Y0357399I0000000J0000236D01*
G01*
X0344219Y0359289D01*
G75*
G02*
X0344455Y0359525I0000236J0000000D01*
G01*
X0346345Y0359525D01*
G75*
G02*
X0346581Y0359289I0000000J-000236D01*
G01*
G37*
G36*
G01*
X0424396Y0473360D02*
X0419475Y0473360D01*
G75*
G02*
X0419081Y0473753I0000000J0000394D01*
G01*
X0419081Y0476903D01*
G75*
G02*
X0419475Y0477297I0000394J0000000D01*
G01*
X0424396Y0477297D01*
G75*
G02*
X0424790Y0476903I0000000J-000394D01*
G01*
X0424790Y0473753D01*
G75*
G02*
X0424396Y0473360I-000394J0000000D01*
G01*
G37*
G36*
G01*
X0424396Y0480840D02*
X0419475Y0480840D01*
G75*
G02*
X0419081Y0481234I0000000J0000394D01*
G01*
X0419081Y0484383D01*
G75*
G02*
X0419475Y0484777I0000394J0000000D01*
G01*
X0424396Y0484777D01*
G75*
G02*
X0424790Y0484383I0000000J-000394D01*
G01*
X0424790Y0481234D01*
G75*
G02*
X0424396Y0480840I-000394J0000000D01*
G01*
G37*
G36*
G01*
X0504396Y0476360D02*
X0499475Y0476360D01*
G75*
G02*
X0499081Y0476753I0000000J0000394D01*
G01*
X0499081Y0479903D01*
G75*
G02*
X0499475Y0480297I0000394J0000000D01*
G01*
X0504396Y0480297D01*
G75*
G02*
X0504790Y0479903I0000000J-000394D01*
G01*
X0504790Y0476753D01*
G75*
G02*
X0504396Y0476360I-000394J0000000D01*
G01*
G37*
G36*
G01*
X0504396Y0483840D02*
X0499475Y0483840D01*
G75*
G02*
X0499081Y0484234I0000000J0000394D01*
G01*
X0499081Y0487383D01*
G75*
G02*
X0499475Y0487777I0000394J0000000D01*
G01*
X0504396Y0487777D01*
G75*
G02*
X0504790Y0487383I0000000J-000394D01*
G01*
X0504790Y0484234D01*
G75*
G02*
X0504396Y0483840I-000394J0000000D01*
G01*
G37*
D48*
X0254190Y0109667D03*
X0254190Y0111635D03*
X0254190Y0113604D03*
X0254190Y0115572D03*
D49*
X0252172Y0115621D03*
X0250203Y0115621D03*
D48*
X0248186Y0115572D03*
X0248186Y0113604D03*
X0248186Y0111635D03*
X0248186Y0109667D03*
D49*
X0250203Y0109617D03*
X0252172Y0109617D03*
D50*
X0169495Y0046084D03*
X0054140Y0046084D03*
G36*
G01*
X0433396Y0473360D02*
X0428475Y0473360D01*
G75*
G02*
X0428081Y0473753I0000000J0000394D01*
G01*
X0428081Y0476903D01*
G75*
G02*
X0428475Y0477297I0000394J0000000D01*
G01*
X0433396Y0477297D01*
G75*
G02*
X0433790Y0476903I0000000J-000394D01*
G01*
X0433790Y0473753D01*
G75*
G02*
X0433396Y0473360I-000394J0000000D01*
G01*
G37*
G36*
G01*
X0433396Y0480840D02*
X0428475Y0480840D01*
G75*
G02*
X0428081Y0481234I0000000J0000394D01*
G01*
X0428081Y0484383D01*
G75*
G02*
X0428475Y0484777I0000394J0000000D01*
G01*
X0433396Y0484777D01*
G75*
G02*
X0433790Y0484383I0000000J-000394D01*
G01*
X0433790Y0481234D01*
G75*
G02*
X0433396Y0480840I-000394J0000000D01*
G01*
G37*
G36*
G01*
X0267034Y0041143D02*
X0267034Y0036261D01*
G75*
G02*
X0266522Y0035749I-000512J0000000D01*
G01*
X0262428Y0035749D01*
G75*
G02*
X0261916Y0036261I0000000J0000512D01*
G01*
X0261916Y0041143D01*
G75*
G02*
X0262428Y0041655I0000512J0000000D01*
G01*
X0266522Y0041655D01*
G75*
G02*
X0267034Y0041143I0000000J-000512D01*
G01*
G37*
G36*
G01*
X0274514Y0041143D02*
X0274514Y0036261D01*
G75*
G02*
X0274003Y0035749I-000512J0000000D01*
G01*
X0269908Y0035749D01*
G75*
G02*
X0269396Y0036261I0000000J0000512D01*
G01*
X0269396Y0041143D01*
G75*
G02*
X0269908Y0041655I0000512J0000000D01*
G01*
X0274003Y0041655D01*
G75*
G02*
X0274514Y0041143I0000000J-000512D01*
G01*
G37*
G36*
G01*
X0099546Y0354774D02*
X0094664Y0354774D01*
G75*
G02*
X0094153Y0355286I0000000J0000512D01*
G01*
X0094153Y0359380D01*
G75*
G02*
X0094664Y0359892I0000512J0000000D01*
G01*
X0099546Y0359892D01*
G75*
G02*
X0100058Y0359380I0000000J-000512D01*
G01*
X0100058Y0355286D01*
G75*
G02*
X0099546Y0354774I-000512J0000000D01*
G01*
G37*
G36*
G01*
X0099546Y0347293D02*
X0094664Y0347293D01*
G75*
G02*
X0094153Y0347805I0000000J0000512D01*
G01*
X0094153Y0351900D01*
G75*
G02*
X0094664Y0352411I0000512J0000000D01*
G01*
X0099546Y0352411D01*
G75*
G02*
X0100058Y0351900I0000000J-000512D01*
G01*
X0100058Y0347805D01*
G75*
G02*
X0099546Y0347293I-000512J0000000D01*
G01*
G37*
D105*
X0076232Y0476610D03*
X0097895Y0476275D03*
G36*
G01*
X0115307Y0441866D02*
X0115307Y0441866D01*
X0115307Y0441866D01*
X0115307Y0441866D01*
X0115307Y0441866D01*
G37*
X0103496Y0439898D03*
G36*
G01*
X0337133Y0368186D02*
X0340676Y0368186D01*
G75*
G02*
X0341070Y0367793I0000000J-000394D01*
G01*
X0341070Y0364643D01*
G75*
G02*
X0340676Y0364249I-000394J0000000D01*
G01*
X0337133Y0364249D01*
G75*
G02*
X0336739Y0364643I0000000J0000394D01*
G01*
X0336739Y0367793D01*
G75*
G02*
X0337133Y0368186I0000394J0000000D01*
G01*
G37*
G36*
G01*
X0337133Y0361493D02*
X0340676Y0361493D01*
G75*
G02*
X0341070Y0361100I0000000J-000394D01*
G01*
X0341070Y0357950D01*
G75*
G02*
X0340676Y0357556I-000394J0000000D01*
G01*
X0337133Y0357556D01*
G75*
G02*
X0336739Y0357950I0000000J0000394D01*
G01*
X0336739Y0361100D01*
G75*
G02*
X0337133Y0361493I0000394J0000000D01*
G01*
G37*
G36*
G01*
X0185440Y0386694D02*
X0185440Y0383623D01*
G75*
G02*
X0185164Y0383348I-000276J0000000D01*
G01*
X0182959Y0383348D01*
G75*
G02*
X0182684Y0383623I0000000J0000276D01*
G01*
X0182684Y0386694D01*
G75*
G02*
X0182959Y0386970I0000276J0000000D01*
G01*
X0185164Y0386970D01*
G75*
G02*
X0185440Y0386694I0000000J-000276D01*
G01*
G37*
G36*
G01*
X0179140Y0386694D02*
X0179140Y0383623D01*
G75*
G02*
X0178865Y0383348I-000276J0000000D01*
G01*
X0176660Y0383348D01*
G75*
G02*
X0176385Y0383623I0000000J0000276D01*
G01*
X0176385Y0386694D01*
G75*
G02*
X0176660Y0386970I0000276J0000000D01*
G01*
X0178865Y0386970D01*
G75*
G02*
X0179140Y0386694I0000000J-000276D01*
G01*
G37*
G36*
G01*
X0399121Y0424627D02*
X0404042Y0424627D01*
G75*
G02*
X0404436Y0424234I0000000J-000394D01*
G01*
X0404436Y0421084D01*
G75*
G02*
X0404042Y0420690I-000394J0000000D01*
G01*
X0399121Y0420690D01*
G75*
G02*
X0398727Y0421084I0000000J0000394D01*
G01*
X0398727Y0424234D01*
G75*
G02*
X0399121Y0424627I0000394J0000000D01*
G01*
G37*
G36*
G01*
X0399121Y0417147D02*
X0404042Y0417147D01*
G75*
G02*
X0404436Y0416753I0000000J-000394D01*
G01*
X0404436Y0413604D01*
G75*
G02*
X0404042Y0413210I-000394J0000000D01*
G01*
X0399121Y0413210D01*
G75*
G02*
X0398727Y0413604I0000000J0000394D01*
G01*
X0398727Y0416753D01*
G75*
G02*
X0399121Y0417147I0000394J0000000D01*
G01*
G37*
G36*
G01*
X0488511Y0191950D02*
X0484967Y0191950D01*
G75*
G02*
X0484574Y0192344I0000000J0000394D01*
G01*
X0484574Y0195493D01*
G75*
G02*
X0484967Y0195887I0000394J0000000D01*
G01*
X0488511Y0195887D01*
G75*
G02*
X0488904Y0195493I0000000J-000394D01*
G01*
X0488904Y0192344D01*
G75*
G02*
X0488511Y0191950I-000394J0000000D01*
G01*
G37*
G36*
G01*
X0488511Y0198643D02*
X0484967Y0198643D01*
G75*
G02*
X0484574Y0199037I0000000J0000394D01*
G01*
X0484574Y0202186D01*
G75*
G02*
X0484967Y0202580I0000394J0000000D01*
G01*
X0488511Y0202580D01*
G75*
G02*
X0488904Y0202186I0000000J-000394D01*
G01*
X0488904Y0199037D01*
G75*
G02*
X0488511Y0198643I-000394J0000000D01*
G01*
G37*
G36*
G01*
X0504554Y0336438D02*
X0505735Y0336438D01*
G75*
G02*
X0506326Y0335848I0000000J-000591D01*
G01*
X0506326Y0329352D01*
G75*
G02*
X0505735Y0328761I-000591J0000000D01*
G01*
X0504554Y0328761D01*
G75*
G02*
X0503963Y0329352I0000000J0000591D01*
G01*
X0503963Y0335848D01*
G75*
G02*
X0504554Y0336438I0000591J0000000D01*
G01*
G37*
G36*
G01*
X0499554Y0336438D02*
X0500735Y0336438D01*
G75*
G02*
X0501326Y0335848I0000000J-000591D01*
G01*
X0501326Y0329352D01*
G75*
G02*
X0500735Y0328761I-000591J0000000D01*
G01*
X0499554Y0328761D01*
G75*
G02*
X0498963Y0329352I0000000J0000591D01*
G01*
X0498963Y0335848D01*
G75*
G02*
X0499554Y0336438I0000591J0000000D01*
G01*
G37*
G36*
G01*
X0494554Y0336438D02*
X0495735Y0336438D01*
G75*
G02*
X0496326Y0335848I0000000J-000591D01*
G01*
X0496326Y0329352D01*
G75*
G02*
X0495735Y0328761I-000591J0000000D01*
G01*
X0494554Y0328761D01*
G75*
G02*
X0493963Y0329352I0000000J0000591D01*
G01*
X0493963Y0335848D01*
G75*
G02*
X0494554Y0336438I0000591J0000000D01*
G01*
G37*
G36*
G01*
X0489554Y0336438D02*
X0490735Y0336438D01*
G75*
G02*
X0491326Y0335848I0000000J-000591D01*
G01*
X0491326Y0329352D01*
G75*
G02*
X0490735Y0328761I-000591J0000000D01*
G01*
X0489554Y0328761D01*
G75*
G02*
X0488963Y0329352I0000000J0000591D01*
G01*
X0488963Y0335848D01*
G75*
G02*
X0489554Y0336438I0000591J0000000D01*
G01*
G37*
G36*
G01*
X0489554Y0316950D02*
X0490735Y0316950D01*
G75*
G02*
X0491326Y0316360I0000000J-000591D01*
G01*
X0491326Y0309864D01*
G75*
G02*
X0490735Y0309273I-000591J0000000D01*
G01*
X0489554Y0309273D01*
G75*
G02*
X0488963Y0309864I0000000J0000591D01*
G01*
X0488963Y0316360D01*
G75*
G02*
X0489554Y0316950I0000591J0000000D01*
G01*
G37*
G36*
G01*
X0494554Y0316950D02*
X0495735Y0316950D01*
G75*
G02*
X0496326Y0316360I0000000J-000591D01*
G01*
X0496326Y0309864D01*
G75*
G02*
X0495735Y0309273I-000591J0000000D01*
G01*
X0494554Y0309273D01*
G75*
G02*
X0493963Y0309864I0000000J0000591D01*
G01*
X0493963Y0316360D01*
G75*
G02*
X0494554Y0316950I0000591J0000000D01*
G01*
G37*
G36*
G01*
X0499554Y0316950D02*
X0500735Y0316950D01*
G75*
G02*
X0501326Y0316360I0000000J-000591D01*
G01*
X0501326Y0309864D01*
G75*
G02*
X0500735Y0309273I-000591J0000000D01*
G01*
X0499554Y0309273D01*
G75*
G02*
X0498963Y0309864I0000000J0000591D01*
G01*
X0498963Y0316360D01*
G75*
G02*
X0499554Y0316950I0000591J0000000D01*
G01*
G37*
G36*
G01*
X0504554Y0316950D02*
X0505735Y0316950D01*
G75*
G02*
X0506326Y0316360I0000000J-000591D01*
G01*
X0506326Y0309864D01*
G75*
G02*
X0505735Y0309273I-000591J0000000D01*
G01*
X0504554Y0309273D01*
G75*
G02*
X0503963Y0309864I0000000J0000591D01*
G01*
X0503963Y0316360D01*
G75*
G02*
X0504554Y0316950I0000591J0000000D01*
G01*
G37*
G36*
G01*
X0480511Y0191950D02*
X0476967Y0191950D01*
G75*
G02*
X0476574Y0192344I0000000J0000394D01*
G01*
X0476574Y0195493D01*
G75*
G02*
X0476967Y0195887I0000394J0000000D01*
G01*
X0480511Y0195887D01*
G75*
G02*
X0480904Y0195493I0000000J-000394D01*
G01*
X0480904Y0192344D01*
G75*
G02*
X0480511Y0191950I-000394J0000000D01*
G01*
G37*
G36*
G01*
X0480511Y0198643D02*
X0476967Y0198643D01*
G75*
G02*
X0476574Y0199037I0000000J0000394D01*
G01*
X0476574Y0202186D01*
G75*
G02*
X0476967Y0202580I0000394J0000000D01*
G01*
X0480511Y0202580D01*
G75*
G02*
X0480904Y0202186I0000000J-000394D01*
G01*
X0480904Y0199037D01*
G75*
G02*
X0480511Y0198643I-000394J0000000D01*
G01*
G37*
G36*
G01*
X0528747Y0045395D02*
X0528747Y0046182D01*
G75*
G02*
X0529140Y0046576I0000394J0000000D01*
G01*
X0530518Y0046576D01*
G75*
G02*
X0530912Y0046182I0000000J-000394D01*
G01*
X0530912Y0045395D01*
G75*
G02*
X0530518Y0045001I-000394J0000000D01*
G01*
X0529140Y0045001D01*
G75*
G02*
X0528747Y0045395I0000000J0000394D01*
G01*
G37*
G36*
G01*
X0528747Y0043033D02*
X0528747Y0043820D01*
G75*
G02*
X0529140Y0044214I0000394J0000000D01*
G01*
X0530518Y0044214D01*
G75*
G02*
X0530912Y0043820I0000000J-000394D01*
G01*
X0530912Y0043033D01*
G75*
G02*
X0530518Y0042639I-000394J0000000D01*
G01*
X0529140Y0042639D01*
G75*
G02*
X0528747Y0043033I0000000J0000394D01*
G01*
G37*
G36*
G01*
X0530322Y0040277D02*
X0530322Y0041655D01*
G75*
G02*
X0530715Y0042049I0000394J0000000D01*
G01*
X0531503Y0042049D01*
G75*
G02*
X0531896Y0041655I0000000J-000394D01*
G01*
X0531896Y0040277D01*
G75*
G02*
X0531503Y0039883I-000394J0000000D01*
G01*
X0530715Y0039883D01*
G75*
G02*
X0530322Y0040277I0000000J0000394D01*
G01*
G37*
G36*
G01*
X0532684Y0040277D02*
X0532684Y0041655D01*
G75*
G02*
X0533077Y0042049I0000394J0000000D01*
G01*
X0533865Y0042049D01*
G75*
G02*
X0534259Y0041655I0000000J-000394D01*
G01*
X0534259Y0040277D01*
G75*
G02*
X0533865Y0039883I-000394J0000000D01*
G01*
X0533077Y0039883D01*
G75*
G02*
X0532684Y0040277I0000000J0000394D01*
G01*
G37*
G36*
G01*
X0535046Y0040277D02*
X0535046Y0041655D01*
G75*
G02*
X0535440Y0042049I0000394J0000000D01*
G01*
X0536227Y0042049D01*
G75*
G02*
X0536621Y0041655I0000000J-000394D01*
G01*
X0536621Y0040277D01*
G75*
G02*
X0536227Y0039883I-000394J0000000D01*
G01*
X0535440Y0039883D01*
G75*
G02*
X0535046Y0040277I0000000J0000394D01*
G01*
G37*
G36*
G01*
X0536030Y0043033D02*
X0536030Y0043820D01*
G75*
G02*
X0536424Y0044214I0000394J0000000D01*
G01*
X0537802Y0044214D01*
G75*
G02*
X0538196Y0043820I0000000J-000394D01*
G01*
X0538196Y0043033D01*
G75*
G02*
X0537802Y0042639I-000394J0000000D01*
G01*
X0536424Y0042639D01*
G75*
G02*
X0536030Y0043033I0000000J0000394D01*
G01*
G37*
G36*
G01*
X0536030Y0045395D02*
X0536030Y0046182D01*
G75*
G02*
X0536424Y0046576I0000394J0000000D01*
G01*
X0537802Y0046576D01*
G75*
G02*
X0538196Y0046182I0000000J-000394D01*
G01*
X0538196Y0045395D01*
G75*
G02*
X0537802Y0045001I-000394J0000000D01*
G01*
X0536424Y0045001D01*
G75*
G02*
X0536030Y0045395I0000000J0000394D01*
G01*
G37*
G36*
G01*
X0535046Y0047560D02*
X0535046Y0048938D01*
G75*
G02*
X0535440Y0049332I0000394J0000000D01*
G01*
X0536227Y0049332D01*
G75*
G02*
X0536621Y0048938I0000000J-000394D01*
G01*
X0536621Y0047560D01*
G75*
G02*
X0536227Y0047167I-000394J0000000D01*
G01*
X0535440Y0047167D01*
G75*
G02*
X0535046Y0047560I0000000J0000394D01*
G01*
G37*
G36*
G01*
X0532684Y0047560D02*
X0532684Y0048938D01*
G75*
G02*
X0533077Y0049332I0000394J0000000D01*
G01*
X0533865Y0049332D01*
G75*
G02*
X0534259Y0048938I0000000J-000394D01*
G01*
X0534259Y0047560D01*
G75*
G02*
X0533865Y0047167I-000394J0000000D01*
G01*
X0533077Y0047167D01*
G75*
G02*
X0532684Y0047560I0000000J0000394D01*
G01*
G37*
G36*
G01*
X0530322Y0047560D02*
X0530322Y0048938D01*
G75*
G02*
X0530715Y0049332I0000394J0000000D01*
G01*
X0531503Y0049332D01*
G75*
G02*
X0531896Y0048938I0000000J-000394D01*
G01*
X0531896Y0047560D01*
G75*
G02*
X0531503Y0047167I-000394J0000000D01*
G01*
X0530715Y0047167D01*
G75*
G02*
X0530322Y0047560I0000000J0000394D01*
G01*
G37*
D68*
X0464881Y0435667D03*
X0473936Y0435667D03*
X0482991Y0435667D03*
D69*
X0473936Y0460470D03*
G36*
G01*
X0142034Y0385159D02*
X0137900Y0385159D01*
G75*
G02*
X0137507Y0385553I0000000J0000394D01*
G01*
X0137507Y0388702D01*
G75*
G02*
X0137900Y0389096I0000394J0000000D01*
G01*
X0142034Y0389096D01*
G75*
G02*
X0142428Y0388702I0000000J-000394D01*
G01*
X0142428Y0385553D01*
G75*
G02*
X0142034Y0385159I-000394J0000000D01*
G01*
G37*
G36*
G01*
X0142034Y0393033D02*
X0137900Y0393033D01*
G75*
G02*
X0137507Y0393427I0000000J0000394D01*
G01*
X0137507Y0396576D01*
G75*
G02*
X0137900Y0396970I0000394J0000000D01*
G01*
X0142034Y0396970D01*
G75*
G02*
X0142428Y0396576I0000000J-000394D01*
G01*
X0142428Y0393427D01*
G75*
G02*
X0142034Y0393033I-000394J0000000D01*
G01*
G37*
G36*
G01*
X0329396Y0473360D02*
X0324475Y0473360D01*
G75*
G02*
X0324081Y0473753I0000000J0000394D01*
G01*
X0324081Y0476903D01*
G75*
G02*
X0324475Y0477297I0000394J0000000D01*
G01*
X0329396Y0477297D01*
G75*
G02*
X0329790Y0476903I0000000J-000394D01*
G01*
X0329790Y0473753D01*
G75*
G02*
X0329396Y0473360I-000394J0000000D01*
G01*
G37*
G36*
G01*
X0329396Y0480840D02*
X0324475Y0480840D01*
G75*
G02*
X0324081Y0481234I0000000J0000394D01*
G01*
X0324081Y0484383D01*
G75*
G02*
X0324475Y0484777I0000394J0000000D01*
G01*
X0329396Y0484777D01*
G75*
G02*
X0329790Y0484383I0000000J-000394D01*
G01*
X0329790Y0481234D01*
G75*
G02*
X0329396Y0480840I-000394J0000000D01*
G01*
G37*
G36*
G01*
X0172507Y0396143D02*
X0172507Y0393466D01*
G75*
G02*
X0172172Y0393131I-000335J0000000D01*
G01*
X0169495Y0393131D01*
G75*
G02*
X0169160Y0393466I0000000J0000335D01*
G01*
X0169160Y0396143D01*
G75*
G02*
X0169495Y0396478I0000335J0000000D01*
G01*
X0172172Y0396478D01*
G75*
G02*
X0172507Y0396143I0000000J-000335D01*
G01*
G37*
G36*
G01*
X0166286Y0396143D02*
X0166286Y0393466D01*
G75*
G02*
X0165951Y0393131I-000335J0000000D01*
G01*
X0163274Y0393131D01*
G75*
G02*
X0162940Y0393466I0000000J0000335D01*
G01*
X0162940Y0396143D01*
G75*
G02*
X0163274Y0396478I0000335J0000000D01*
G01*
X0165951Y0396478D01*
G75*
G02*
X0166286Y0396143I0000000J-000335D01*
G01*
G37*
G36*
G01*
X0575877Y0529525D02*
X0573160Y0529525D01*
G75*
G02*
X0572255Y0530430I0000000J0000906D01*
G01*
X0572255Y0535706D01*
G75*
G02*
X0573160Y0536612I0000906J0000000D01*
G01*
X0575877Y0536612D01*
G75*
G02*
X0576782Y0535706I0000000J-000906D01*
G01*
X0576782Y0530430D01*
G75*
G02*
X0575877Y0529525I-000906J0000000D01*
G01*
G37*
G36*
G01*
X0587294Y0529525D02*
X0584577Y0529525D01*
G75*
G02*
X0583672Y0530430I0000000J0000906D01*
G01*
X0583672Y0535706D01*
G75*
G02*
X0584577Y0536612I0000906J0000000D01*
G01*
X0587294Y0536612D01*
G75*
G02*
X0588200Y0535706I0000000J-000906D01*
G01*
X0588200Y0530430D01*
G75*
G02*
X0587294Y0529525I-000906J0000000D01*
G01*
G37*
G36*
G01*
X0140000Y0462657D02*
X0142677Y0462657D01*
G75*
G02*
X0143012Y0462323I0000000J-000335D01*
G01*
X0143012Y0459646D01*
G75*
G02*
X0142677Y0459311I-000335J0000000D01*
G01*
X0140000Y0459311D01*
G75*
G02*
X0139665Y0459646I0000000J0000335D01*
G01*
X0139665Y0462323D01*
G75*
G02*
X0140000Y0462657I0000335J0000000D01*
G01*
G37*
G36*
G01*
X0140000Y0456437D02*
X0142677Y0456437D01*
G75*
G02*
X0143012Y0456102I0000000J-000335D01*
G01*
X0143012Y0453425D01*
G75*
G02*
X0142677Y0453091I-000335J0000000D01*
G01*
X0140000Y0453091D01*
G75*
G02*
X0139665Y0453425I0000000J0000335D01*
G01*
X0139665Y0456102D01*
G75*
G02*
X0140000Y0456437I0000335J0000000D01*
G01*
G37*
G36*
G01*
X0471660Y0396832D02*
X0471660Y0393761D01*
G75*
G02*
X0471385Y0393486I-000276J0000000D01*
G01*
X0469180Y0393486D01*
G75*
G02*
X0468904Y0393761I0000000J0000276D01*
G01*
X0468904Y0396832D01*
G75*
G02*
X0469180Y0397108I0000276J0000000D01*
G01*
X0471385Y0397108D01*
G75*
G02*
X0471660Y0396832I0000000J-000276D01*
G01*
G37*
G36*
G01*
X0465361Y0396832D02*
X0465361Y0393761D01*
G75*
G02*
X0465085Y0393486I-000276J0000000D01*
G01*
X0462881Y0393486D01*
G75*
G02*
X0462605Y0393761I0000000J0000276D01*
G01*
X0462605Y0396832D01*
G75*
G02*
X0462881Y0397108I0000276J0000000D01*
G01*
X0465085Y0397108D01*
G75*
G02*
X0465361Y0396832I0000000J-000276D01*
G01*
G37*
G36*
G01*
X0105413Y0359262D02*
X0105413Y0357372D01*
G75*
G02*
X0105177Y0357136I-000236J0000000D01*
G01*
X0103287Y0357136D01*
G75*
G02*
X0103051Y0357372I0000000J0000236D01*
G01*
X0103051Y0359262D01*
G75*
G02*
X0103287Y0359498I0000236J0000000D01*
G01*
X0105177Y0359498D01*
G75*
G02*
X0105413Y0359262I0000000J-000236D01*
G01*
G37*
G36*
G01*
X0105413Y0350600D02*
X0105413Y0348711D01*
G75*
G02*
X0105177Y0348474I-000236J0000000D01*
G01*
X0103287Y0348474D01*
G75*
G02*
X0103051Y0348711I0000000J0000236D01*
G01*
X0103051Y0350600D01*
G75*
G02*
X0103287Y0350837I0000236J0000000D01*
G01*
X0105177Y0350837D01*
G75*
G02*
X0105413Y0350600I0000000J-000236D01*
G01*
G37*
G36*
G01*
X0575877Y0562525D02*
X0573160Y0562525D01*
G75*
G02*
X0572255Y0563430I0000000J0000906D01*
G01*
X0572255Y0568706D01*
G75*
G02*
X0573160Y0569612I0000906J0000000D01*
G01*
X0575877Y0569612D01*
G75*
G02*
X0576782Y0568706I0000000J-000906D01*
G01*
X0576782Y0563430D01*
G75*
G02*
X0575877Y0562525I-000906J0000000D01*
G01*
G37*
G36*
G01*
X0587294Y0562525D02*
X0584577Y0562525D01*
G75*
G02*
X0583672Y0563430I0000000J0000906D01*
G01*
X0583672Y0568706D01*
G75*
G02*
X0584577Y0569612I0000906J0000000D01*
G01*
X0587294Y0569612D01*
G75*
G02*
X0588200Y0568706I0000000J-000906D01*
G01*
X0588200Y0563430D01*
G75*
G02*
X0587294Y0562525I-000906J0000000D01*
G01*
G37*
G36*
G01*
X0152186Y0465007D02*
X0148052Y0465007D01*
G75*
G02*
X0147658Y0465401I0000000J0000394D01*
G01*
X0147658Y0468550D01*
G75*
G02*
X0148052Y0468944I0000394J0000000D01*
G01*
X0152186Y0468944D01*
G75*
G02*
X0152580Y0468550I0000000J-000394D01*
G01*
X0152580Y0465401D01*
G75*
G02*
X0152186Y0465007I-000394J0000000D01*
G01*
G37*
G36*
G01*
X0152186Y0472881D02*
X0148052Y0472881D01*
G75*
G02*
X0147658Y0473275I0000000J0000394D01*
G01*
X0147658Y0476424D01*
G75*
G02*
X0148052Y0476818I0000394J0000000D01*
G01*
X0152186Y0476818D01*
G75*
G02*
X0152580Y0476424I0000000J-000394D01*
G01*
X0152580Y0473275D01*
G75*
G02*
X0152186Y0472881I-000394J0000000D01*
G01*
G37*
G36*
G01*
X0147940Y0385159D02*
X0143806Y0385159D01*
G75*
G02*
X0143412Y0385553I0000000J0000394D01*
G01*
X0143412Y0388702D01*
G75*
G02*
X0143806Y0389096I0000394J0000000D01*
G01*
X0147940Y0389096D01*
G75*
G02*
X0148333Y0388702I0000000J-000394D01*
G01*
X0148333Y0385553D01*
G75*
G02*
X0147940Y0385159I-000394J0000000D01*
G01*
G37*
G36*
G01*
X0147940Y0393033D02*
X0143806Y0393033D01*
G75*
G02*
X0143412Y0393427I0000000J0000394D01*
G01*
X0143412Y0396576D01*
G75*
G02*
X0143806Y0396970I0000394J0000000D01*
G01*
X0147940Y0396970D01*
G75*
G02*
X0148333Y0396576I0000000J-000394D01*
G01*
X0148333Y0393427D01*
G75*
G02*
X0147940Y0393033I-000394J0000000D01*
G01*
G37*
G36*
G01*
X0173408Y0388533D02*
X0173408Y0391604D01*
G75*
G02*
X0173684Y0391879I0000276J0000000D01*
G01*
X0175889Y0391879D01*
G75*
G02*
X0176164Y0391604I0000000J-000276D01*
G01*
X0176164Y0388533D01*
G75*
G02*
X0175889Y0388257I-000276J0000000D01*
G01*
X0173684Y0388257D01*
G75*
G02*
X0173408Y0388533I0000000J0000276D01*
G01*
G37*
G36*
G01*
X0179707Y0388533D02*
X0179707Y0391604D01*
G75*
G02*
X0179983Y0391879I0000276J0000000D01*
G01*
X0182188Y0391879D01*
G75*
G02*
X0182463Y0391604I0000000J-000276D01*
G01*
X0182463Y0388533D01*
G75*
G02*
X0182188Y0388257I-000276J0000000D01*
G01*
X0179983Y0388257D01*
G75*
G02*
X0179707Y0388533I0000000J0000276D01*
G01*
G37*
G36*
G01*
X0210944Y0444801D02*
X0206928Y0444801D01*
G75*
G02*
X0206574Y0445155I0000000J0000354D01*
G01*
X0206574Y0447990D01*
G75*
G02*
X0206928Y0448344I0000354J0000000D01*
G01*
X0210944Y0448344D01*
G75*
G02*
X0211298Y0447990I0000000J-000354D01*
G01*
X0211298Y0445155D01*
G75*
G02*
X0210944Y0444801I-000354J0000000D01*
G01*
G37*
G36*
G01*
X0210944Y0457793D02*
X0206928Y0457793D01*
G75*
G02*
X0206574Y0458147I0000000J0000354D01*
G01*
X0206574Y0460982D01*
G75*
G02*
X0206928Y0461336I0000354J0000000D01*
G01*
X0210944Y0461336D01*
G75*
G02*
X0211298Y0460982I0000000J-000354D01*
G01*
X0211298Y0458147D01*
G75*
G02*
X0210944Y0457793I-000354J0000000D01*
G01*
G37*
G36*
G01*
X0329652Y0368186D02*
X0333196Y0368186D01*
G75*
G02*
X0333589Y0367793I0000000J-000394D01*
G01*
X0333589Y0364643D01*
G75*
G02*
X0333196Y0364249I-000394J0000000D01*
G01*
X0329652Y0364249D01*
G75*
G02*
X0329259Y0364643I0000000J0000394D01*
G01*
X0329259Y0367793D01*
G75*
G02*
X0329652Y0368186I0000394J0000000D01*
G01*
G37*
G36*
G01*
X0329652Y0361493D02*
X0333196Y0361493D01*
G75*
G02*
X0333589Y0361100I0000000J-000394D01*
G01*
X0333589Y0357950D01*
G75*
G02*
X0333196Y0357556I-000394J0000000D01*
G01*
X0329652Y0357556D01*
G75*
G02*
X0329259Y0357950I0000000J0000394D01*
G01*
X0329259Y0361100D01*
G75*
G02*
X0329652Y0361493I0000394J0000000D01*
G01*
G37*
G36*
G01*
X0359180Y0367972D02*
X0359180Y0366082D01*
G75*
G02*
X0358944Y0365846I-000236J0000000D01*
G01*
X0357054Y0365846D01*
G75*
G02*
X0356818Y0366082I0000000J0000236D01*
G01*
X0356818Y0367972D01*
G75*
G02*
X0357054Y0368208I0000236J0000000D01*
G01*
X0358944Y0368208D01*
G75*
G02*
X0359180Y0367972I0000000J-000236D01*
G01*
G37*
G36*
G01*
X0359180Y0359311D02*
X0359180Y0357421D01*
G75*
G02*
X0358944Y0357185I-000236J0000000D01*
G01*
X0357054Y0357185D01*
G75*
G02*
X0356818Y0357421I0000000J0000236D01*
G01*
X0356818Y0359311D01*
G75*
G02*
X0357054Y0359547I0000236J0000000D01*
G01*
X0358944Y0359547D01*
G75*
G02*
X0359180Y0359311I0000000J-000236D01*
G01*
G37*
G36*
G01*
X0158721Y0380385D02*
X0156831Y0380385D01*
G75*
G02*
X0156595Y0380621I0000000J0000236D01*
G01*
X0156595Y0382511D01*
G75*
G02*
X0156831Y0382747I0000236J0000000D01*
G01*
X0158721Y0382747D01*
G75*
G02*
X0158957Y0382511I0000000J-000236D01*
G01*
X0158957Y0380621D01*
G75*
G02*
X0158721Y0380385I-000236J0000000D01*
G01*
G37*
G36*
G01*
X0150060Y0380385D02*
X0148170Y0380385D01*
G75*
G02*
X0147934Y0380621I0000000J0000236D01*
G01*
X0147934Y0382511D01*
G75*
G02*
X0148170Y0382747I0000236J0000000D01*
G01*
X0150060Y0382747D01*
G75*
G02*
X0150296Y0382511I0000000J-000236D01*
G01*
X0150296Y0380621D01*
G75*
G02*
X0150060Y0380385I-000236J0000000D01*
G01*
G37*
G36*
G01*
X0447054Y0385848D02*
X0447054Y0389391D01*
G75*
G02*
X0447448Y0389785I0000394J0000000D01*
G01*
X0450597Y0389785D01*
G75*
G02*
X0450991Y0389391I0000000J-000394D01*
G01*
X0450991Y0385848D01*
G75*
G02*
X0450597Y0385454I-000394J0000000D01*
G01*
X0447448Y0385454D01*
G75*
G02*
X0447054Y0385848I0000000J0000394D01*
G01*
G37*
G36*
G01*
X0453747Y0385848D02*
X0453747Y0389391D01*
G75*
G02*
X0454140Y0389785I0000394J0000000D01*
G01*
X0457290Y0389785D01*
G75*
G02*
X0457684Y0389391I0000000J-000394D01*
G01*
X0457684Y0385848D01*
G75*
G02*
X0457290Y0385454I-000394J0000000D01*
G01*
X0454140Y0385454D01*
G75*
G02*
X0453747Y0385848I0000000J0000394D01*
G01*
G37*
G36*
G01*
X0149711Y0396970D02*
X0153845Y0396970D01*
G75*
G02*
X0154239Y0396576I0000000J-000394D01*
G01*
X0154239Y0393427D01*
G75*
G02*
X0153845Y0393033I-000394J0000000D01*
G01*
X0149711Y0393033D01*
G75*
G02*
X0149318Y0393427I0000000J0000394D01*
G01*
X0149318Y0396576D01*
G75*
G02*
X0149711Y0396970I0000394J0000000D01*
G01*
G37*
G36*
G01*
X0149711Y0389096D02*
X0153845Y0389096D01*
G75*
G02*
X0154239Y0388702I0000000J-000394D01*
G01*
X0154239Y0385553D01*
G75*
G02*
X0153845Y0385159I-000394J0000000D01*
G01*
X0149711Y0385159D01*
G75*
G02*
X0149318Y0385553I0000000J0000394D01*
G01*
X0149318Y0388702D01*
G75*
G02*
X0149711Y0389096I0000394J0000000D01*
G01*
G37*
D68*
X0339881Y0429667D03*
X0348936Y0429667D03*
X0357991Y0429667D03*
D69*
X0348936Y0454470D03*
G36*
G01*
X0434471Y0426541D02*
X0431400Y0426541D01*
G75*
G02*
X0431125Y0426816I0000000J0000276D01*
G01*
X0431125Y0429021D01*
G75*
G02*
X0431400Y0429297I0000276J0000000D01*
G01*
X0434471Y0429297D01*
G75*
G02*
X0434747Y0429021I0000000J-000276D01*
G01*
X0434747Y0426816D01*
G75*
G02*
X0434471Y0426541I-000276J0000000D01*
G01*
G37*
G36*
G01*
X0434471Y0432840D02*
X0431400Y0432840D01*
G75*
G02*
X0431125Y0433116I0000000J0000276D01*
G01*
X0431125Y0435320D01*
G75*
G02*
X0431400Y0435596I0000276J0000000D01*
G01*
X0434471Y0435596D01*
G75*
G02*
X0434747Y0435320I0000000J-000276D01*
G01*
X0434747Y0433116D01*
G75*
G02*
X0434471Y0432840I-000276J0000000D01*
G01*
G37*
G36*
G01*
X0361396Y0473360D02*
X0356475Y0473360D01*
G75*
G02*
X0356081Y0473753I0000000J0000394D01*
G01*
X0356081Y0476903D01*
G75*
G02*
X0356475Y0477297I0000394J0000000D01*
G01*
X0361396Y0477297D01*
G75*
G02*
X0361790Y0476903I0000000J-000394D01*
G01*
X0361790Y0473753D01*
G75*
G02*
X0361396Y0473360I-000394J0000000D01*
G01*
G37*
G36*
G01*
X0361396Y0480840D02*
X0356475Y0480840D01*
G75*
G02*
X0356081Y0481234I0000000J0000394D01*
G01*
X0356081Y0484383D01*
G75*
G02*
X0356475Y0484777I0000394J0000000D01*
G01*
X0361396Y0484777D01*
G75*
G02*
X0361790Y0484383I0000000J-000394D01*
G01*
X0361790Y0481234D01*
G75*
G02*
X0361396Y0480840I-000394J0000000D01*
G01*
G37*
G36*
G01*
X0463408Y0424533D02*
X0463408Y0427604D01*
G75*
G02*
X0463684Y0427879I0000276J0000000D01*
G01*
X0465889Y0427879D01*
G75*
G02*
X0466164Y0427604I0000000J-000276D01*
G01*
X0466164Y0424533D01*
G75*
G02*
X0465889Y0424257I-000276J0000000D01*
G01*
X0463684Y0424257D01*
G75*
G02*
X0463408Y0424533I0000000J0000276D01*
G01*
G37*
G36*
G01*
X0469707Y0424533D02*
X0469707Y0427604D01*
G75*
G02*
X0469983Y0427879I0000276J0000000D01*
G01*
X0472188Y0427879D01*
G75*
G02*
X0472463Y0427604I0000000J-000276D01*
G01*
X0472463Y0424533D01*
G75*
G02*
X0472188Y0424257I-000276J0000000D01*
G01*
X0469983Y0424257D01*
G75*
G02*
X0469707Y0424533I0000000J0000276D01*
G01*
G37*
G36*
G01*
X0321396Y0473360D02*
X0316475Y0473360D01*
G75*
G02*
X0316081Y0473753I0000000J0000394D01*
G01*
X0316081Y0476903D01*
G75*
G02*
X0316475Y0477297I0000394J0000000D01*
G01*
X0321396Y0477297D01*
G75*
G02*
X0321790Y0476903I0000000J-000394D01*
G01*
X0321790Y0473753D01*
G75*
G02*
X0321396Y0473360I-000394J0000000D01*
G01*
G37*
G36*
G01*
X0321396Y0480840D02*
X0316475Y0480840D01*
G75*
G02*
X0316081Y0481234I0000000J0000394D01*
G01*
X0316081Y0484383D01*
G75*
G02*
X0316475Y0484777I0000394J0000000D01*
G01*
X0321396Y0484777D01*
G75*
G02*
X0321790Y0484383I0000000J-000394D01*
G01*
X0321790Y0481234D01*
G75*
G02*
X0321396Y0480840I-000394J0000000D01*
G01*
G37*
G36*
G01*
X0178402Y0023098D02*
X0178402Y0024988D01*
G75*
G02*
X0178639Y0025224I0000236J0000000D01*
G01*
X0180528Y0025224D01*
G75*
G02*
X0180764Y0024988I0000000J-000236D01*
G01*
X0180764Y0023098D01*
G75*
G02*
X0180528Y0022862I-000236J0000000D01*
G01*
X0178639Y0022862D01*
G75*
G02*
X0178402Y0023098I0000000J0000236D01*
G01*
G37*
G36*
G01*
X0178402Y0031759D02*
X0178402Y0033649D01*
G75*
G02*
X0178639Y0033885I0000236J0000000D01*
G01*
X0180528Y0033885D01*
G75*
G02*
X0180764Y0033649I0000000J-000236D01*
G01*
X0180764Y0031759D01*
G75*
G02*
X0180528Y0031523I-000236J0000000D01*
G01*
X0178639Y0031523D01*
G75*
G02*
X0178402Y0031759I0000000J0000236D01*
G01*
G37*
G36*
G01*
X0288396Y0473360D02*
X0283475Y0473360D01*
G75*
G02*
X0283081Y0473753I0000000J0000394D01*
G01*
X0283081Y0476903D01*
G75*
G02*
X0283475Y0477297I0000394J0000000D01*
G01*
X0288396Y0477297D01*
G75*
G02*
X0288790Y0476903I0000000J-000394D01*
G01*
X0288790Y0473753D01*
G75*
G02*
X0288396Y0473360I-000394J0000000D01*
G01*
G37*
G36*
G01*
X0288396Y0480840D02*
X0283475Y0480840D01*
G75*
G02*
X0283081Y0481234I0000000J0000394D01*
G01*
X0283081Y0484383D01*
G75*
G02*
X0283475Y0484777I0000394J0000000D01*
G01*
X0288396Y0484777D01*
G75*
G02*
X0288790Y0484383I0000000J-000394D01*
G01*
X0288790Y0481234D01*
G75*
G02*
X0288396Y0480840I-000394J0000000D01*
G01*
G37*
G36*
G01*
X0173432Y0393466D02*
X0173432Y0396143D01*
G75*
G02*
X0173766Y0396478I0000335J0000000D01*
G01*
X0176444Y0396478D01*
G75*
G02*
X0176778Y0396143I0000000J-000335D01*
G01*
X0176778Y0393466D01*
G75*
G02*
X0176444Y0393131I-000335J0000000D01*
G01*
X0173766Y0393131D01*
G75*
G02*
X0173432Y0393466I0000000J0000335D01*
G01*
G37*
G36*
G01*
X0179652Y0393466D02*
X0179652Y0396143D01*
G75*
G02*
X0179987Y0396478I0000335J0000000D01*
G01*
X0182664Y0396478D01*
G75*
G02*
X0182999Y0396143I0000000J-000335D01*
G01*
X0182999Y0393466D01*
G75*
G02*
X0182664Y0393131I-000335J0000000D01*
G01*
X0179987Y0393131D01*
G75*
G02*
X0179652Y0393466I0000000J0000335D01*
G01*
G37*
G36*
G01*
X0173392Y0383879D02*
X0171503Y0383879D01*
G75*
G02*
X0171266Y0384116I0000000J0000236D01*
G01*
X0171266Y0386005D01*
G75*
G02*
X0171503Y0386241I0000236J0000000D01*
G01*
X0173392Y0386241D01*
G75*
G02*
X0173629Y0386005I0000000J-000236D01*
G01*
X0173629Y0384116D01*
G75*
G02*
X0173392Y0383879I-000236J0000000D01*
G01*
G37*
G36*
G01*
X0164731Y0383879D02*
X0162841Y0383879D01*
G75*
G02*
X0162605Y0384116I0000000J0000236D01*
G01*
X0162605Y0386005D01*
G75*
G02*
X0162841Y0386241I0000236J0000000D01*
G01*
X0164731Y0386241D01*
G75*
G02*
X0164967Y0386005I0000000J-000236D01*
G01*
X0164967Y0384116D01*
G75*
G02*
X0164731Y0383879I-000236J0000000D01*
G01*
G37*
G36*
G01*
X0340475Y0484777D02*
X0345396Y0484777D01*
G75*
G02*
X0345790Y0484383I0000000J-000394D01*
G01*
X0345790Y0481234D01*
G75*
G02*
X0345396Y0480840I-000394J0000000D01*
G01*
X0340475Y0480840D01*
G75*
G02*
X0340081Y0481234I0000000J0000394D01*
G01*
X0340081Y0484383D01*
G75*
G02*
X0340475Y0484777I0000394J0000000D01*
G01*
G37*
G36*
G01*
X0340475Y0477297D02*
X0345396Y0477297D01*
G75*
G02*
X0345790Y0476903I0000000J-000394D01*
G01*
X0345790Y0473753D01*
G75*
G02*
X0345396Y0473360I-000394J0000000D01*
G01*
X0340475Y0473360D01*
G75*
G02*
X0340081Y0473753I0000000J0000394D01*
G01*
X0340081Y0476903D01*
G75*
G02*
X0340475Y0477297I0000394J0000000D01*
G01*
G37*
G36*
G01*
X0282389Y0037167D02*
X0282389Y0040238D01*
G75*
G02*
X0282664Y0040513I0000276J0000000D01*
G01*
X0284869Y0040513D01*
G75*
G02*
X0285144Y0040238I0000000J-000276D01*
G01*
X0285144Y0037167D01*
G75*
G02*
X0284869Y0036891I-000276J0000000D01*
G01*
X0282664Y0036891D01*
G75*
G02*
X0282389Y0037167I0000000J0000276D01*
G01*
G37*
G36*
G01*
X0288688Y0037167D02*
X0288688Y0040238D01*
G75*
G02*
X0288963Y0040513I0000276J0000000D01*
G01*
X0291168Y0040513D01*
G75*
G02*
X0291444Y0040238I0000000J-000276D01*
G01*
X0291444Y0037167D01*
G75*
G02*
X0291168Y0036891I-000276J0000000D01*
G01*
X0288963Y0036891D01*
G75*
G02*
X0288688Y0037167I0000000J0000276D01*
G01*
G37*
G36*
G01*
X0538609Y0057462D02*
X0538609Y0054785D01*
G75*
G02*
X0538274Y0054450I-000335J0000000D01*
G01*
X0535597Y0054450D01*
G75*
G02*
X0535263Y0054785I0000000J0000335D01*
G01*
X0535263Y0057462D01*
G75*
G02*
X0535597Y0057797I0000335J0000000D01*
G01*
X0538274Y0057797D01*
G75*
G02*
X0538609Y0057462I0000000J-000335D01*
G01*
G37*
G36*
G01*
X0532389Y0057462D02*
X0532389Y0054785D01*
G75*
G02*
X0532054Y0054450I-000335J0000000D01*
G01*
X0529377Y0054450D01*
G75*
G02*
X0529042Y0054785I0000000J0000335D01*
G01*
X0529042Y0057462D01*
G75*
G02*
X0529377Y0057797I0000335J0000000D01*
G01*
X0532054Y0057797D01*
G75*
G02*
X0532389Y0057462I0000000J-000335D01*
G01*
G37*
G36*
G01*
X0471660Y0389352D02*
X0471660Y0386281D01*
G75*
G02*
X0471385Y0386005I-000276J0000000D01*
G01*
X0469180Y0386005D01*
G75*
G02*
X0468904Y0386281I0000000J0000276D01*
G01*
X0468904Y0389352D01*
G75*
G02*
X0469180Y0389627I0000276J0000000D01*
G01*
X0471385Y0389627D01*
G75*
G02*
X0471660Y0389352I0000000J-000276D01*
G01*
G37*
G36*
G01*
X0465361Y0389352D02*
X0465361Y0386281D01*
G75*
G02*
X0465085Y0386005I-000276J0000000D01*
G01*
X0462881Y0386005D01*
G75*
G02*
X0462605Y0386281I0000000J0000276D01*
G01*
X0462605Y0389352D01*
G75*
G02*
X0462881Y0389627I0000276J0000000D01*
G01*
X0465085Y0389627D01*
G75*
G02*
X0465361Y0389352I0000000J-000276D01*
G01*
G37*
G36*
G01*
X0107270Y0343156D02*
X0110341Y0343156D01*
G75*
G02*
X0110616Y0342881I0000000J-000276D01*
G01*
X0110616Y0340676D01*
G75*
G02*
X0110341Y0340401I-000276J0000000D01*
G01*
X0107270Y0340401D01*
G75*
G02*
X0106994Y0340676I0000000J0000276D01*
G01*
X0106994Y0342881D01*
G75*
G02*
X0107270Y0343156I0000276J0000000D01*
G01*
G37*
G36*
G01*
X0107270Y0336857D02*
X0110341Y0336857D01*
G75*
G02*
X0110616Y0336582I0000000J-000276D01*
G01*
X0110616Y0334377D01*
G75*
G02*
X0110341Y0334101I-000276J0000000D01*
G01*
X0107270Y0334101D01*
G75*
G02*
X0106994Y0334377I0000000J0000276D01*
G01*
X0106994Y0336582D01*
G75*
G02*
X0107270Y0336857I0000276J0000000D01*
G01*
G37*
G36*
G01*
X0575227Y0510608D02*
X0575227Y0515529D01*
G75*
G02*
X0575621Y0515923I0000394J0000000D01*
G01*
X0578770Y0515923D01*
G75*
G02*
X0579164Y0515529I0000000J-000394D01*
G01*
X0579164Y0510608D01*
G75*
G02*
X0578770Y0510214I-000394J0000000D01*
G01*
X0575621Y0510214D01*
G75*
G02*
X0575227Y0510608I0000000J0000394D01*
G01*
G37*
G36*
G01*
X0582707Y0510608D02*
X0582707Y0515529D01*
G75*
G02*
X0583101Y0515923I0000394J0000000D01*
G01*
X0586251Y0515923D01*
G75*
G02*
X0586644Y0515529I0000000J-000394D01*
G01*
X0586644Y0510608D01*
G75*
G02*
X0586251Y0510214I-000394J0000000D01*
G01*
X0583101Y0510214D01*
G75*
G02*
X0582707Y0510608I0000000J0000394D01*
G01*
G37*
G36*
G01*
X0337396Y0473360D02*
X0332475Y0473360D01*
G75*
G02*
X0332081Y0473753I0000000J0000394D01*
G01*
X0332081Y0476903D01*
G75*
G02*
X0332475Y0477297I0000394J0000000D01*
G01*
X0337396Y0477297D01*
G75*
G02*
X0337790Y0476903I0000000J-000394D01*
G01*
X0337790Y0473753D01*
G75*
G02*
X0337396Y0473360I-000394J0000000D01*
G01*
G37*
G36*
G01*
X0337396Y0480840D02*
X0332475Y0480840D01*
G75*
G02*
X0332081Y0481234I0000000J0000394D01*
G01*
X0332081Y0484383D01*
G75*
G02*
X0332475Y0484777I0000394J0000000D01*
G01*
X0337396Y0484777D01*
G75*
G02*
X0337790Y0484383I0000000J-000394D01*
G01*
X0337790Y0481234D01*
G75*
G02*
X0337396Y0480840I-000394J0000000D01*
G01*
G37*
G36*
G01*
X0464511Y0191950D02*
X0460967Y0191950D01*
G75*
G02*
X0460574Y0192344I0000000J0000394D01*
G01*
X0460574Y0195493D01*
G75*
G02*
X0460967Y0195887I0000394J0000000D01*
G01*
X0464511Y0195887D01*
G75*
G02*
X0464904Y0195493I0000000J-000394D01*
G01*
X0464904Y0192344D01*
G75*
G02*
X0464511Y0191950I-000394J0000000D01*
G01*
G37*
G36*
G01*
X0464511Y0198643D02*
X0460967Y0198643D01*
G75*
G02*
X0460574Y0199037I0000000J0000394D01*
G01*
X0460574Y0202186D01*
G75*
G02*
X0460967Y0202580I0000394J0000000D01*
G01*
X0464511Y0202580D01*
G75*
G02*
X0464904Y0202186I0000000J-000394D01*
G01*
X0464904Y0199037D01*
G75*
G02*
X0464511Y0198643I-000394J0000000D01*
G01*
G37*
G36*
G01*
X0272881Y0297950D02*
X0269338Y0297950D01*
G75*
G02*
X0268944Y0298344I0000000J0000394D01*
G01*
X0268944Y0301493D01*
G75*
G02*
X0269338Y0301887I0000394J0000000D01*
G01*
X0272881Y0301887D01*
G75*
G02*
X0273275Y0301493I0000000J-000394D01*
G01*
X0273275Y0298344D01*
G75*
G02*
X0272881Y0297950I-000394J0000000D01*
G01*
G37*
G36*
G01*
X0272881Y0304643D02*
X0269338Y0304643D01*
G75*
G02*
X0268944Y0305037I0000000J0000394D01*
G01*
X0268944Y0308186D01*
G75*
G02*
X0269338Y0308580I0000394J0000000D01*
G01*
X0272881Y0308580D01*
G75*
G02*
X0273275Y0308186I0000000J-000394D01*
G01*
X0273275Y0305037D01*
G75*
G02*
X0272881Y0304643I-000394J0000000D01*
G01*
G37*
G36*
G01*
X0510085Y0318584D02*
X0512763Y0318584D01*
G75*
G02*
X0513097Y0318249I0000000J-000335D01*
G01*
X0513097Y0315572D01*
G75*
G02*
X0512763Y0315238I-000335J0000000D01*
G01*
X0510085Y0315238D01*
G75*
G02*
X0509751Y0315572I0000000J0000335D01*
G01*
X0509751Y0318249D01*
G75*
G02*
X0510085Y0318584I0000335J0000000D01*
G01*
G37*
G36*
G01*
X0510085Y0312364D02*
X0512763Y0312364D01*
G75*
G02*
X0513097Y0312029I0000000J-000335D01*
G01*
X0513097Y0309352D01*
G75*
G02*
X0512763Y0309017I-000335J0000000D01*
G01*
X0510085Y0309017D01*
G75*
G02*
X0509751Y0309352I0000000J0000335D01*
G01*
X0509751Y0312029D01*
G75*
G02*
X0510085Y0312364I0000335J0000000D01*
G01*
G37*
G36*
G01*
X0378396Y0473360D02*
X0373475Y0473360D01*
G75*
G02*
X0373081Y0473753I0000000J0000394D01*
G01*
X0373081Y0476903D01*
G75*
G02*
X0373475Y0477297I0000394J0000000D01*
G01*
X0378396Y0477297D01*
G75*
G02*
X0378790Y0476903I0000000J-000394D01*
G01*
X0378790Y0473753D01*
G75*
G02*
X0378396Y0473360I-000394J0000000D01*
G01*
G37*
G36*
G01*
X0378396Y0480840D02*
X0373475Y0480840D01*
G75*
G02*
X0373081Y0481234I0000000J0000394D01*
G01*
X0373081Y0484383D01*
G75*
G02*
X0373475Y0484777I0000394J0000000D01*
G01*
X0378396Y0484777D01*
G75*
G02*
X0378790Y0484383I0000000J-000394D01*
G01*
X0378790Y0481234D01*
G75*
G02*
X0378396Y0480840I-000394J0000000D01*
G01*
G37*
G36*
G01*
X0456396Y0476360D02*
X0451475Y0476360D01*
G75*
G02*
X0451081Y0476753I0000000J0000394D01*
G01*
X0451081Y0479903D01*
G75*
G02*
X0451475Y0480297I0000394J0000000D01*
G01*
X0456396Y0480297D01*
G75*
G02*
X0456790Y0479903I0000000J-000394D01*
G01*
X0456790Y0476753D01*
G75*
G02*
X0456396Y0476360I-000394J0000000D01*
G01*
G37*
G36*
G01*
X0456396Y0483840D02*
X0451475Y0483840D01*
G75*
G02*
X0451081Y0484234I0000000J0000394D01*
G01*
X0451081Y0487383D01*
G75*
G02*
X0451475Y0487777I0000394J0000000D01*
G01*
X0456396Y0487777D01*
G75*
G02*
X0456790Y0487383I0000000J-000394D01*
G01*
X0456790Y0484234D01*
G75*
G02*
X0456396Y0483840I-000394J0000000D01*
G01*
G37*
G36*
G01*
X0489235Y0217930D02*
X0489235Y0215293D01*
G75*
G02*
X0488979Y0215037I-000256J0000000D01*
G01*
X0486932Y0215037D01*
G75*
G02*
X0486676Y0215293I0000000J0000256D01*
G01*
X0486676Y0217930D01*
G75*
G02*
X0486932Y0218186I0000256J0000000D01*
G01*
X0488979Y0218186D01*
G75*
G02*
X0489235Y0217930I0000000J-000256D01*
G01*
G37*
G36*
G01*
X0485396Y0218009D02*
X0485396Y0215214D01*
G75*
G02*
X0485219Y0215037I-000177J0000000D01*
G01*
X0483802Y0215037D01*
G75*
G02*
X0483625Y0215214I0000000J0000177D01*
G01*
X0483625Y0218009D01*
G75*
G02*
X0483802Y0218186I0000177J0000000D01*
G01*
X0485219Y0218186D01*
G75*
G02*
X0485396Y0218009I0000000J-000177D01*
G01*
G37*
G36*
G01*
X0482247Y0218009D02*
X0482247Y0215214D01*
G75*
G02*
X0482070Y0215037I-000177J0000000D01*
G01*
X0480652Y0215037D01*
G75*
G02*
X0480475Y0215214I0000000J0000177D01*
G01*
X0480475Y0218009D01*
G75*
G02*
X0480652Y0218186I0000177J0000000D01*
G01*
X0482070Y0218186D01*
G75*
G02*
X0482247Y0218009I0000000J-000177D01*
G01*
G37*
G36*
G01*
X0479196Y0217930D02*
X0479196Y0215293D01*
G75*
G02*
X0478940Y0215037I-000256J0000000D01*
G01*
X0476892Y0215037D01*
G75*
G02*
X0476637Y0215293I0000000J0000256D01*
G01*
X0476637Y0217930D01*
G75*
G02*
X0476892Y0218186I0000256J0000000D01*
G01*
X0478940Y0218186D01*
G75*
G02*
X0479196Y0217930I0000000J-000256D01*
G01*
G37*
G36*
G01*
X0479196Y0210844D02*
X0479196Y0208206D01*
G75*
G02*
X0478940Y0207950I-000256J0000000D01*
G01*
X0476892Y0207950D01*
G75*
G02*
X0476637Y0208206I0000000J0000256D01*
G01*
X0476637Y0210844D01*
G75*
G02*
X0476892Y0211100I0000256J0000000D01*
G01*
X0478940Y0211100D01*
G75*
G02*
X0479196Y0210844I0000000J-000256D01*
G01*
G37*
G36*
G01*
X0482247Y0210923D02*
X0482247Y0208127D01*
G75*
G02*
X0482070Y0207950I-000177J0000000D01*
G01*
X0480652Y0207950D01*
G75*
G02*
X0480475Y0208127I0000000J0000177D01*
G01*
X0480475Y0210923D01*
G75*
G02*
X0480652Y0211100I0000177J0000000D01*
G01*
X0482070Y0211100D01*
G75*
G02*
X0482247Y0210923I0000000J-000177D01*
G01*
G37*
G36*
G01*
X0485396Y0210923D02*
X0485396Y0208127D01*
G75*
G02*
X0485219Y0207950I-000177J0000000D01*
G01*
X0483802Y0207950D01*
G75*
G02*
X0483625Y0208127I0000000J0000177D01*
G01*
X0483625Y0210923D01*
G75*
G02*
X0483802Y0211100I0000177J0000000D01*
G01*
X0485219Y0211100D01*
G75*
G02*
X0485396Y0210923I0000000J-000177D01*
G01*
G37*
G36*
G01*
X0489235Y0210844D02*
X0489235Y0208206D01*
G75*
G02*
X0488979Y0207950I-000256J0000000D01*
G01*
X0486932Y0207950D01*
G75*
G02*
X0486676Y0208206I0000000J0000256D01*
G01*
X0486676Y0210844D01*
G75*
G02*
X0486932Y0211100I0000256J0000000D01*
G01*
X0488979Y0211100D01*
G75*
G02*
X0489235Y0210844I0000000J-000256D01*
G01*
G37*
G36*
G01*
X0282701Y0021025D02*
X0282701Y0024096D01*
G75*
G02*
X0282977Y0024371I0000276J0000000D01*
G01*
X0285181Y0024371D01*
G75*
G02*
X0285457Y0024096I0000000J-000276D01*
G01*
X0285457Y0021025D01*
G75*
G02*
X0285181Y0020749I-000276J0000000D01*
G01*
X0282977Y0020749D01*
G75*
G02*
X0282701Y0021025I0000000J0000276D01*
G01*
G37*
G36*
G01*
X0289000Y0021025D02*
X0289000Y0024096D01*
G75*
G02*
X0289276Y0024371I0000276J0000000D01*
G01*
X0291480Y0024371D01*
G75*
G02*
X0291756Y0024096I0000000J-000276D01*
G01*
X0291756Y0021025D01*
G75*
G02*
X0291480Y0020749I-000276J0000000D01*
G01*
X0289276Y0020749D01*
G75*
G02*
X0289000Y0021025I0000000J0000276D01*
G01*
G37*
G36*
G01*
X0332471Y0426541D02*
X0329400Y0426541D01*
G75*
G02*
X0329125Y0426816I0000000J0000276D01*
G01*
X0329125Y0429021D01*
G75*
G02*
X0329400Y0429297I0000276J0000000D01*
G01*
X0332471Y0429297D01*
G75*
G02*
X0332747Y0429021I0000000J-000276D01*
G01*
X0332747Y0426816D01*
G75*
G02*
X0332471Y0426541I-000276J0000000D01*
G01*
G37*
G36*
G01*
X0332471Y0432840D02*
X0329400Y0432840D01*
G75*
G02*
X0329125Y0433116I0000000J0000276D01*
G01*
X0329125Y0435320D01*
G75*
G02*
X0329400Y0435596I0000276J0000000D01*
G01*
X0332471Y0435596D01*
G75*
G02*
X0332747Y0435320I0000000J-000276D01*
G01*
X0332747Y0433116D01*
G75*
G02*
X0332471Y0432840I-000276J0000000D01*
G01*
G37*
G36*
G01*
X0346235Y0381930D02*
X0346235Y0379293D01*
G75*
G02*
X0345979Y0379037I-000256J0000000D01*
G01*
X0343932Y0379037D01*
G75*
G02*
X0343676Y0379293I0000000J0000256D01*
G01*
X0343676Y0381930D01*
G75*
G02*
X0343932Y0382186I0000256J0000000D01*
G01*
X0345979Y0382186D01*
G75*
G02*
X0346235Y0381930I0000000J-000256D01*
G01*
G37*
G36*
G01*
X0342396Y0382009D02*
X0342396Y0379214D01*
G75*
G02*
X0342219Y0379037I-000177J0000000D01*
G01*
X0340802Y0379037D01*
G75*
G02*
X0340625Y0379214I0000000J0000177D01*
G01*
X0340625Y0382009D01*
G75*
G02*
X0340802Y0382186I0000177J0000000D01*
G01*
X0342219Y0382186D01*
G75*
G02*
X0342396Y0382009I0000000J-000177D01*
G01*
G37*
G36*
G01*
X0339247Y0382009D02*
X0339247Y0379214D01*
G75*
G02*
X0339070Y0379037I-000177J0000000D01*
G01*
X0337652Y0379037D01*
G75*
G02*
X0337475Y0379214I0000000J0000177D01*
G01*
X0337475Y0382009D01*
G75*
G02*
X0337652Y0382186I0000177J0000000D01*
G01*
X0339070Y0382186D01*
G75*
G02*
X0339247Y0382009I0000000J-000177D01*
G01*
G37*
G36*
G01*
X0336196Y0381930D02*
X0336196Y0379293D01*
G75*
G02*
X0335940Y0379037I-000256J0000000D01*
G01*
X0333892Y0379037D01*
G75*
G02*
X0333637Y0379293I0000000J0000256D01*
G01*
X0333637Y0381930D01*
G75*
G02*
X0333892Y0382186I0000256J0000000D01*
G01*
X0335940Y0382186D01*
G75*
G02*
X0336196Y0381930I0000000J-000256D01*
G01*
G37*
G36*
G01*
X0336196Y0374844D02*
X0336196Y0372206D01*
G75*
G02*
X0335940Y0371950I-000256J0000000D01*
G01*
X0333892Y0371950D01*
G75*
G02*
X0333637Y0372206I0000000J0000256D01*
G01*
X0333637Y0374844D01*
G75*
G02*
X0333892Y0375100I0000256J0000000D01*
G01*
X0335940Y0375100D01*
G75*
G02*
X0336196Y0374844I0000000J-000256D01*
G01*
G37*
G36*
G01*
X0339247Y0374923D02*
X0339247Y0372127D01*
G75*
G02*
X0339070Y0371950I-000177J0000000D01*
G01*
X0337652Y0371950D01*
G75*
G02*
X0337475Y0372127I0000000J0000177D01*
G01*
X0337475Y0374923D01*
G75*
G02*
X0337652Y0375100I0000177J0000000D01*
G01*
X0339070Y0375100D01*
G75*
G02*
X0339247Y0374923I0000000J-000177D01*
G01*
G37*
G36*
G01*
X0342396Y0374923D02*
X0342396Y0372127D01*
G75*
G02*
X0342219Y0371950I-000177J0000000D01*
G01*
X0340802Y0371950D01*
G75*
G02*
X0340625Y0372127I0000000J0000177D01*
G01*
X0340625Y0374923D01*
G75*
G02*
X0340802Y0375100I0000177J0000000D01*
G01*
X0342219Y0375100D01*
G75*
G02*
X0342396Y0374923I0000000J-000177D01*
G01*
G37*
G36*
G01*
X0346235Y0374844D02*
X0346235Y0372206D01*
G75*
G02*
X0345979Y0371950I-000256J0000000D01*
G01*
X0343932Y0371950D01*
G75*
G02*
X0343676Y0372206I0000000J0000256D01*
G01*
X0343676Y0374844D01*
G75*
G02*
X0343932Y0375100I0000256J0000000D01*
G01*
X0345979Y0375100D01*
G75*
G02*
X0346235Y0374844I0000000J-000256D01*
G01*
G37*
G36*
G01*
X0494734Y0177667D02*
X0497411Y0177667D01*
G75*
G02*
X0497746Y0177332I0000000J-000335D01*
G01*
X0497746Y0174655D01*
G75*
G02*
X0497411Y0174320I-000335J0000000D01*
G01*
X0494734Y0174320D01*
G75*
G02*
X0494399Y0174655I0000000J0000335D01*
G01*
X0494399Y0177332D01*
G75*
G02*
X0494734Y0177667I0000335J0000000D01*
G01*
G37*
G36*
G01*
X0494734Y0171446D02*
X0497411Y0171446D01*
G75*
G02*
X0497746Y0171112I0000000J-000335D01*
G01*
X0497746Y0168435D01*
G75*
G02*
X0497411Y0168100I-000335J0000000D01*
G01*
X0494734Y0168100D01*
G75*
G02*
X0494399Y0168435I0000000J0000335D01*
G01*
X0494399Y0171112D01*
G75*
G02*
X0494734Y0171446I0000335J0000000D01*
G01*
G37*
G36*
G01*
X0408475Y0484777D02*
X0413396Y0484777D01*
G75*
G02*
X0413790Y0484383I0000000J-000394D01*
G01*
X0413790Y0481234D01*
G75*
G02*
X0413396Y0480840I-000394J0000000D01*
G01*
X0408475Y0480840D01*
G75*
G02*
X0408081Y0481234I0000000J0000394D01*
G01*
X0408081Y0484383D01*
G75*
G02*
X0408475Y0484777I0000394J0000000D01*
G01*
G37*
G36*
G01*
X0408475Y0477297D02*
X0413396Y0477297D01*
G75*
G02*
X0413790Y0476903I0000000J-000394D01*
G01*
X0413790Y0473753D01*
G75*
G02*
X0413396Y0473360I-000394J0000000D01*
G01*
X0408475Y0473360D01*
G75*
G02*
X0408081Y0473753I0000000J0000394D01*
G01*
X0408081Y0476903D01*
G75*
G02*
X0408475Y0477297I0000394J0000000D01*
G01*
G37*
G36*
G01*
X0158091Y0465007D02*
X0153957Y0465007D01*
G75*
G02*
X0153564Y0465401I0000000J0000394D01*
G01*
X0153564Y0468550D01*
G75*
G02*
X0153957Y0468944I0000394J0000000D01*
G01*
X0158091Y0468944D01*
G75*
G02*
X0158485Y0468550I0000000J-000394D01*
G01*
X0158485Y0465401D01*
G75*
G02*
X0158091Y0465007I-000394J0000000D01*
G01*
G37*
G36*
G01*
X0158091Y0472881D02*
X0153957Y0472881D01*
G75*
G02*
X0153564Y0473275I0000000J0000394D01*
G01*
X0153564Y0476424D01*
G75*
G02*
X0153957Y0476818I0000394J0000000D01*
G01*
X0158091Y0476818D01*
G75*
G02*
X0158485Y0476424I0000000J-000394D01*
G01*
X0158485Y0473275D01*
G75*
G02*
X0158091Y0472881I-000394J0000000D01*
G01*
G37*
G36*
G01*
X0169902Y0465007D02*
X0165768Y0465007D01*
G75*
G02*
X0165375Y0465401I0000000J0000394D01*
G01*
X0165375Y0468550D01*
G75*
G02*
X0165768Y0468944I0000394J0000000D01*
G01*
X0169902Y0468944D01*
G75*
G02*
X0170296Y0468550I0000000J-000394D01*
G01*
X0170296Y0465401D01*
G75*
G02*
X0169902Y0465007I-000394J0000000D01*
G01*
G37*
G36*
G01*
X0169902Y0472881D02*
X0165768Y0472881D01*
G75*
G02*
X0165375Y0473275I0000000J0000394D01*
G01*
X0165375Y0476424D01*
G75*
G02*
X0165768Y0476818I0000394J0000000D01*
G01*
X0169902Y0476818D01*
G75*
G02*
X0170296Y0476424I0000000J-000394D01*
G01*
X0170296Y0473275D01*
G75*
G02*
X0169902Y0472881I-000394J0000000D01*
G01*
G37*
G36*
G01*
X0387396Y0473360D02*
X0382475Y0473360D01*
G75*
G02*
X0382081Y0473753I0000000J0000394D01*
G01*
X0382081Y0476903D01*
G75*
G02*
X0382475Y0477297I0000394J0000000D01*
G01*
X0387396Y0477297D01*
G75*
G02*
X0387790Y0476903I0000000J-000394D01*
G01*
X0387790Y0473753D01*
G75*
G02*
X0387396Y0473360I-000394J0000000D01*
G01*
G37*
G36*
G01*
X0387396Y0480840D02*
X0382475Y0480840D01*
G75*
G02*
X0382081Y0481234I0000000J0000394D01*
G01*
X0382081Y0484383D01*
G75*
G02*
X0382475Y0484777I0000394J0000000D01*
G01*
X0387396Y0484777D01*
G75*
G02*
X0387790Y0484383I0000000J-000394D01*
G01*
X0387790Y0481234D01*
G75*
G02*
X0387396Y0480840I-000394J0000000D01*
G01*
G37*
G36*
G01*
X0276769Y0297793D02*
X0276769Y0299682D01*
G75*
G02*
X0277005Y0299919I0000236J0000000D01*
G01*
X0278895Y0299919D01*
G75*
G02*
X0279131Y0299682I0000000J-000236D01*
G01*
X0279131Y0297793D01*
G75*
G02*
X0278895Y0297556I-000236J0000000D01*
G01*
X0277005Y0297556D01*
G75*
G02*
X0276769Y0297793I0000000J0000236D01*
G01*
G37*
G36*
G01*
X0276769Y0306454D02*
X0276769Y0308344D01*
G75*
G02*
X0277005Y0308580I0000236J0000000D01*
G01*
X0278895Y0308580D01*
G75*
G02*
X0279131Y0308344I0000000J-000236D01*
G01*
X0279131Y0306454D01*
G75*
G02*
X0278895Y0306218I-000236J0000000D01*
G01*
X0277005Y0306218D01*
G75*
G02*
X0276769Y0306454I0000000J0000236D01*
G01*
G37*
D105*
X0057529Y0287008D03*
X0070938Y0228445D03*
X0073081Y0380787D03*
X0065600Y0380787D03*
X0078820Y0235138D03*
G36*
G01*
X0316928Y0437336D02*
X0320944Y0437336D01*
G75*
G02*
X0321298Y0436982I0000000J-000354D01*
G01*
X0321298Y0434147D01*
G75*
G02*
X0320944Y0433793I-000354J0000000D01*
G01*
X0316928Y0433793D01*
G75*
G02*
X0316574Y0434147I0000000J0000354D01*
G01*
X0316574Y0436982D01*
G75*
G02*
X0316928Y0437336I0000354J0000000D01*
G01*
G37*
G36*
G01*
X0316928Y0424344D02*
X0320944Y0424344D01*
G75*
G02*
X0321298Y0423990I0000000J-000354D01*
G01*
X0321298Y0421155D01*
G75*
G02*
X0320944Y0420801I-000354J0000000D01*
G01*
X0316928Y0420801D01*
G75*
G02*
X0316574Y0421155I0000000J0000354D01*
G01*
X0316574Y0423990D01*
G75*
G02*
X0316928Y0424344I0000354J0000000D01*
G01*
G37*
D83*
X0149455Y0404155D03*
X0154455Y0404155D03*
X0159455Y0404155D03*
X0164455Y0404155D03*
X0169455Y0404155D03*
X0174455Y0404155D03*
X0179455Y0404155D03*
X0184455Y0404155D03*
X0189455Y0404155D03*
X0194455Y0404155D03*
X0194455Y0456123D03*
X0189455Y0456123D03*
X0184455Y0456123D03*
X0179455Y0456123D03*
X0174455Y0456123D03*
X0169455Y0456123D03*
X0164455Y0456123D03*
X0159455Y0456123D03*
X0154455Y0456123D03*
X0149455Y0456123D03*
D84*
X0143955Y0430139D03*
D85*
X0171955Y0430139D03*
D84*
X0199955Y0430139D03*
G36*
G01*
X0584286Y0548612D02*
X0587003Y0548612D01*
G75*
G02*
X0587908Y0547706I0000000J-000906D01*
G01*
X0587908Y0542430D01*
G75*
G02*
X0587003Y0541525I-000906J0000000D01*
G01*
X0584286Y0541525D01*
G75*
G02*
X0583381Y0542430I0000000J0000906D01*
G01*
X0583381Y0547706D01*
G75*
G02*
X0584286Y0548612I0000906J0000000D01*
G01*
G37*
G36*
G01*
X0572869Y0548612D02*
X0575585Y0548612D01*
G75*
G02*
X0576491Y0547706I0000000J-000906D01*
G01*
X0576491Y0542430D01*
G75*
G02*
X0575585Y0541525I-000906J0000000D01*
G01*
X0572869Y0541525D01*
G75*
G02*
X0571963Y0542430I0000000J0000906D01*
G01*
X0571963Y0547706D01*
G75*
G02*
X0572869Y0548612I0000906J0000000D01*
G01*
G37*
X0456447Y0297579D02*
G01*
G75*
D389*
X0438140Y0281044D02*
D03*
X0438140Y0288524D02*
D03*
D390*
X0447786Y0244921D02*
D03*
X0447786Y0262638D02*
D03*
D391*
X0356152Y0291280D02*
D03*
X0356152Y0284981D02*
D03*
D392*
X0439419Y0294036D02*
D03*
X0446900Y0294036D02*
D03*
D100*
X0443652Y0282225D02*
D03*
X0443652Y0288524D02*
D03*
D393*
X0341683Y0266575D02*
D03*
X0341683Y0262835D02*
D03*
X0341683Y0259095D02*
D03*
X0351132Y0259095D02*
D03*
X0351132Y0262835D02*
D03*
X0351132Y0266575D02*
D03*
X0418849Y0266575D02*
D03*
X0418849Y0262835D02*
D03*
X0418849Y0259095D02*
D03*
X0409400Y0259095D02*
D03*
X0409400Y0262835D02*
D03*
X0409400Y0266575D02*
D03*
X0426329Y0266575D02*
D03*
X0426329Y0262835D02*
D03*
X0426329Y0259095D02*
D03*
X0435778Y0259095D02*
D03*
X0435778Y0262835D02*
D03*
X0435778Y0266575D02*
D03*
X0401919Y0266575D02*
D03*
X0401919Y0262835D02*
D03*
X0401919Y0259095D02*
D03*
X0392471Y0259095D02*
D03*
X0392471Y0262835D02*
D03*
X0392471Y0266575D02*
D03*
X0375542Y0266575D02*
D03*
X0375542Y0262835D02*
D03*
X0375542Y0259095D02*
D03*
X0384990Y0259095D02*
D03*
X0384990Y0262835D02*
D03*
X0384990Y0266575D02*
D03*
X0368061Y0266575D02*
D03*
X0368061Y0262835D02*
D03*
X0368061Y0259095D02*
D03*
X0358612Y0259095D02*
D03*
X0358612Y0262835D02*
D03*
X0358612Y0266575D02*
D03*
D394*
X0341978Y0291969D02*
D03*
X0341978Y0284882D02*
D03*
X0352018Y0284882D02*
D03*
X0352018Y0291969D02*
D03*
X0417077Y0291969D02*
D03*
X0417077Y0284882D02*
D03*
X0407038Y0284882D02*
D03*
X0407038Y0291969D02*
D03*
X0421604Y0291969D02*
D03*
X0421604Y0284882D02*
D03*
X0431644Y0284882D02*
D03*
X0431644Y0291969D02*
D03*
X0402018Y0291969D02*
D03*
X0402018Y0284882D02*
D03*
X0391979Y0284882D02*
D03*
X0391979Y0291969D02*
D03*
X0375148Y0291969D02*
D03*
X0375148Y0284882D02*
D03*
X0385187Y0284882D02*
D03*
X0385187Y0291969D02*
D03*
X0370226Y0291969D02*
D03*
X0370226Y0284882D02*
D03*
X0360187Y0284882D02*
D03*
X0360187Y0291969D02*
D03*
X0407136Y0278189D02*
D03*
X0407136Y0271103D02*
D03*
X0417175Y0271103D02*
D03*
X0417175Y0278189D02*
D03*
X0433120Y0278189D02*
D03*
X0433120Y0271103D02*
D03*
X0423081Y0271103D02*
D03*
X0423081Y0278189D02*
D03*
X0391880Y0278189D02*
D03*
X0391880Y0271103D02*
D03*
X0401919Y0271103D02*
D03*
X0401919Y0278189D02*
D03*
X0385187Y0278189D02*
D03*
X0385187Y0271103D02*
D03*
X0375148Y0271103D02*
D03*
X0375148Y0278189D02*
D03*
X0359892Y0278189D02*
D03*
X0359892Y0271103D02*
D03*
X0369931Y0271103D02*
D03*
X0369931Y0278189D02*
D03*
X0352510Y0278091D02*
D03*
X0352510Y0271004D02*
D03*
X0342471Y0271004D02*
D03*
X0342471Y0278091D02*
D03*
D395*
X0348573Y0284882D02*
D03*
X0345423Y0284882D02*
D03*
X0345423Y0291969D02*
D03*
X0348573Y0291969D02*
D03*
X0413632Y0291969D02*
D03*
X0410482Y0291969D02*
D03*
X0410482Y0284882D02*
D03*
X0413632Y0284882D02*
D03*
X0428199Y0284882D02*
D03*
X0425049Y0284882D02*
D03*
X0425049Y0291969D02*
D03*
X0428199Y0291969D02*
D03*
X0398573Y0291969D02*
D03*
X0395423Y0291969D02*
D03*
X0395423Y0284882D02*
D03*
X0398573Y0284882D02*
D03*
X0381742Y0284882D02*
D03*
X0378593Y0284882D02*
D03*
X0378593Y0291969D02*
D03*
X0381742Y0291969D02*
D03*
X0366782Y0291969D02*
D03*
X0363632Y0291969D02*
D03*
X0363632Y0284882D02*
D03*
X0366782Y0284882D02*
D03*
X0413730Y0271103D02*
D03*
X0410581Y0271103D02*
D03*
X0410581Y0278189D02*
D03*
X0413730Y0278189D02*
D03*
X0429675Y0278189D02*
D03*
X0426526Y0278189D02*
D03*
X0426526Y0271103D02*
D03*
X0429675Y0271103D02*
D03*
X0398474Y0271103D02*
D03*
X0395325Y0271103D02*
D03*
X0395325Y0278189D02*
D03*
X0398474Y0278189D02*
D03*
X0381742Y0278189D02*
D03*
X0378593Y0278189D02*
D03*
X0378593Y0271103D02*
D03*
X0381742Y0271103D02*
D03*
X0366486Y0271103D02*
D03*
X0363337Y0271103D02*
D03*
X0363337Y0278189D02*
D03*
X0366486Y0278189D02*
D03*
X0349065Y0278091D02*
D03*
X0345916Y0278091D02*
D03*
X0345916Y0271004D02*
D03*
X0349065Y0271004D02*
D03*
D396*
X0337943Y0291831D02*
D03*
X0337943Y0285610D02*
D03*
X0372490Y0250394D02*
D03*
X0372490Y0244173D02*
D03*
X0376821Y0244173D02*
D03*
X0376821Y0250394D02*
D03*
X0381152Y0250394D02*
D03*
X0381152Y0244173D02*
D03*
X0385482Y0244173D02*
D03*
X0385482Y0250394D02*
D03*
X0368160Y0250394D02*
D03*
X0368160Y0244173D02*
D03*
X0363829Y0244173D02*
D03*
X0363829Y0250394D02*
D03*
X0359498Y0250394D02*
D03*
X0359498Y0244173D02*
D03*
X0355168Y0244173D02*
D03*
X0355168Y0250394D02*
D03*
X0402805Y0250394D02*
D03*
X0402805Y0244173D02*
D03*
X0398474Y0244173D02*
D03*
X0398474Y0250394D02*
D03*
X0394144Y0250394D02*
D03*
X0394144Y0244173D02*
D03*
X0389813Y0244173D02*
D03*
X0389813Y0250394D02*
D03*
X0437451Y0250394D02*
D03*
X0437451Y0244173D02*
D03*
X0433120Y0244173D02*
D03*
X0433120Y0250394D02*
D03*
X0428790Y0250394D02*
D03*
X0428790Y0244173D02*
D03*
X0424459Y0244173D02*
D03*
X0424459Y0250394D02*
D03*
X0420128Y0250394D02*
D03*
X0420128Y0244173D02*
D03*
X0415797Y0244173D02*
D03*
X0415797Y0250394D02*
D03*
X0411467Y0250394D02*
D03*
X0411467Y0244173D02*
D03*
X0407136Y0244173D02*
D03*
X0407136Y0250394D02*
D03*
X0337943Y0278445D02*
D03*
X0337943Y0272225D02*
D03*
X0350837Y0250394D02*
D03*
X0350837Y0244173D02*
D03*
X0346506Y0244173D02*
D03*
X0346506Y0250394D02*
D03*
X0342175Y0250394D02*
D03*
X0342175Y0244173D02*
D03*
X0337845Y0244173D02*
D03*
X0337845Y0250394D02*
D03*
D397*
X0453888Y0283307D02*
D03*
X0447589Y0283307D02*
D03*
X0447589Y0287835D02*
D03*
X0453888Y0287835D02*
D03*
X0446604Y0274351D02*
D03*
X0452904Y0274351D02*
D03*
X0446604Y0269725D02*
D03*
X0452904Y0269725D02*
D03*
D398*
X0441290Y0268839D02*
D03*
X0441290Y0276319D02*
D03*
D399*
X0453652Y0278780D02*
D03*
X0447431Y0278780D02*
D03*
X0495674Y0132764D02*
G01*
G75*
D163*
X0468331Y0114063D02*
D03*
X0468331Y0111504D02*
D03*
X0468331Y0108945D02*
D03*
X0468331Y0106386D02*
D03*
X0468331Y0103827D02*
D03*
X0468331Y0101268D02*
D03*
X0468331Y0098709D02*
D03*
X0468331Y0096150D02*
D03*
X0468331Y0093591D02*
D03*
X0468331Y0091032D02*
D03*
X0468331Y0088473D02*
D03*
X0468331Y0085914D02*
D03*
X0491324Y0114063D02*
D03*
X0491324Y0111504D02*
D03*
X0491324Y0108945D02*
D03*
X0491324Y0106386D02*
D03*
X0491324Y0103827D02*
D03*
X0491324Y0101268D02*
D03*
X0491324Y0098709D02*
D03*
X0491324Y0096150D02*
D03*
X0491324Y0093591D02*
D03*
X0491324Y0091032D02*
D03*
X0491324Y0088473D02*
D03*
X0491324Y0085914D02*
D03*
D427*
X0491304Y0081977D02*
D03*
X0485083Y0081977D02*
D03*
X0474552Y0081977D02*
D03*
X0480773Y0081977D02*
D03*
D397*
X0472544Y0119181D02*
D03*
X0466245Y0119181D02*
D03*
X0485536Y0119575D02*
D03*
X0479237Y0119575D02*
D03*
D428*
X0477461Y0130205D02*
D03*
X0477461Y0123906D02*
D03*
X0483784Y0123906D02*
D03*
X0483784Y0130205D02*
D03*
X0488410Y0130205D02*
D03*
X0488410Y0123906D02*
D03*
X0468233Y0124004D02*
D03*
X0468233Y0130303D02*
D03*
X0493036Y0123906D02*
D03*
X0493036Y0130205D02*
D03*
X0472839Y0123906D02*
D03*
X0472839Y0130205D02*
D03*
X0456963Y0230173D02*
G01*
G75*
D428*
X0445349Y0106945D02*
D03*
X0445349Y0113244D02*
D03*
X0440526Y0106945D02*
D03*
X0440526Y0113244D02*
D03*
X0309719Y0099366D02*
D03*
X0309719Y0093067D02*
D03*
X0314443Y0094543D02*
D03*
X0314443Y0088244D02*
D03*
X0303321Y0145035D02*
D03*
X0303321Y0151334D02*
D03*
X0286786Y0088638D02*
D03*
X0286786Y0094937D02*
D03*
X0277731Y0099464D02*
D03*
X0277731Y0105764D02*
D03*
X0277731Y0089327D02*
D03*
X0277731Y0095626D02*
D03*
X0282357Y0097890D02*
D03*
X0282357Y0104189D02*
D03*
X0418380Y0170429D02*
D03*
X0418380Y0164130D02*
D03*
D481*
X0450073Y0113303D02*
D03*
X0450073Y0107082D02*
D03*
X0291313Y0089464D02*
D03*
X0291313Y0095685D02*
D03*
X0277337Y0206905D02*
D03*
X0277337Y0200685D02*
D03*
X0303715Y0112220D02*
D03*
X0303715Y0106000D02*
D03*
X0419660Y0146571D02*
D03*
X0419660Y0140350D02*
D03*
X0299187Y0113008D02*
D03*
X0299187Y0106787D02*
D03*
X0334620Y0222653D02*
D03*
X0334620Y0216433D02*
D03*
X0300172Y0221177D02*
D03*
X0300172Y0214956D02*
D03*
X0295742Y0214957D02*
D03*
X0295742Y0221177D02*
D03*
X0444463Y0151472D02*
D03*
X0444463Y0157693D02*
D03*
X0424187Y0146571D02*
D03*
X0424187Y0140350D02*
D03*
X0419561Y0191256D02*
D03*
X0419561Y0185035D02*
D03*
X0298794Y0157771D02*
D03*
X0298794Y0163992D02*
D03*
X0424384Y0191354D02*
D03*
X0424384Y0185134D02*
D03*
X0437967Y0203756D02*
D03*
X0437967Y0197535D02*
D03*
X0451550Y0157791D02*
D03*
X0451550Y0151571D02*
D03*
X0303420Y0140862D02*
D03*
X0303420Y0134642D02*
D03*
X0303321Y0155606D02*
D03*
X0303321Y0161826D02*
D03*
X0423203Y0170488D02*
D03*
X0423203Y0164268D02*
D03*
X0418479Y0111216D02*
D03*
X0418479Y0117437D02*
D03*
D482*
X0283538Y0199071D02*
D03*
X0283538Y0210488D02*
D03*
D483*
X0346530Y0212752D02*
D03*
X0352829Y0212752D02*
D03*
X0380388Y0202909D02*
D03*
X0374089Y0202909D02*
D03*
X0298105Y0153205D02*
D03*
X0291806Y0153205D02*
D03*
X0337179Y0088145D02*
D03*
X0343479Y0088145D02*
D03*
X0279601Y0153401D02*
D03*
X0285900Y0153401D02*
D03*
X0277731Y0158913D02*
D03*
X0284030Y0158913D02*
D03*
X0424384Y0180468D02*
D03*
X0418085Y0180468D02*
D03*
X0284719Y0109996D02*
D03*
X0278420Y0109996D02*
D03*
D484*
X0289050Y0167181D02*
D03*
D485*
X0279994Y0191590D02*
D03*
X0298105Y0191590D02*
D03*
D486*
X0289050Y0191590D02*
D03*
D179*
X0328420Y0209504D02*
D03*
X0328420Y0212063D02*
D03*
X0328420Y0214622D02*
D03*
X0328420Y0217181D02*
D03*
X0328420Y0219740D02*
D03*
X0328420Y0222299D02*
D03*
X0328420Y0224858D02*
D03*
X0305979Y0209504D02*
D03*
X0305979Y0212063D02*
D03*
X0305979Y0214622D02*
D03*
X0305979Y0217181D02*
D03*
X0305979Y0219740D02*
D03*
X0305979Y0222299D02*
D03*
X0305979Y0224858D02*
D03*
X0452436Y0175153D02*
D03*
X0452436Y0177712D02*
D03*
X0452436Y0180271D02*
D03*
X0452436Y0182830D02*
D03*
X0452436Y0185390D02*
D03*
X0452436Y0187949D02*
D03*
X0452436Y0190508D02*
D03*
X0429994Y0175153D02*
D03*
X0429994Y0177712D02*
D03*
X0429994Y0180271D02*
D03*
X0429994Y0182830D02*
D03*
X0429994Y0185390D02*
D03*
X0429994Y0187949D02*
D03*
X0429994Y0190508D02*
D03*
X0452928Y0130173D02*
D03*
X0452928Y0132732D02*
D03*
X0452928Y0135291D02*
D03*
X0452928Y0137850D02*
D03*
X0452928Y0140409D02*
D03*
X0452928Y0142968D02*
D03*
X0452928Y0145527D02*
D03*
X0430487Y0130173D02*
D03*
X0430487Y0132732D02*
D03*
X0430487Y0135291D02*
D03*
X0430487Y0137850D02*
D03*
X0430487Y0140409D02*
D03*
X0430487Y0142968D02*
D03*
X0430487Y0145527D02*
D03*
X0402239Y0224858D02*
D03*
X0402239Y0222299D02*
D03*
X0402239Y0219740D02*
D03*
X0402239Y0217181D02*
D03*
X0402239Y0214622D02*
D03*
X0402239Y0212063D02*
D03*
X0402239Y0209504D02*
D03*
X0424679Y0224858D02*
D03*
X0424679Y0222299D02*
D03*
X0424679Y0219740D02*
D03*
X0424679Y0217181D02*
D03*
X0424679Y0214622D02*
D03*
X0424679Y0212063D02*
D03*
X0424679Y0209504D02*
D03*
X0357947Y0224858D02*
D03*
X0357947Y0222299D02*
D03*
X0357947Y0219740D02*
D03*
X0357947Y0217181D02*
D03*
X0357947Y0214622D02*
D03*
X0357947Y0212063D02*
D03*
X0357947Y0209504D02*
D03*
X0380388Y0224858D02*
D03*
X0380388Y0222299D02*
D03*
X0380388Y0219740D02*
D03*
X0380388Y0217181D02*
D03*
X0380388Y0214622D02*
D03*
X0380388Y0212063D02*
D03*
X0380388Y0209504D02*
D03*
X0452731Y0209504D02*
D03*
X0452731Y0212063D02*
D03*
X0452731Y0214622D02*
D03*
X0452731Y0217181D02*
D03*
X0452731Y0219740D02*
D03*
X0452731Y0222299D02*
D03*
X0452731Y0224858D02*
D03*
X0430290Y0209504D02*
D03*
X0430290Y0212063D02*
D03*
X0430290Y0214622D02*
D03*
X0430290Y0217181D02*
D03*
X0430290Y0219740D02*
D03*
X0430290Y0222299D02*
D03*
X0430290Y0224858D02*
D03*
D180*
X0412672Y0103008D02*
D03*
X0412672Y0104976D02*
D03*
X0412672Y0106945D02*
D03*
X0412672Y0108913D02*
D03*
X0412672Y0110882D02*
D03*
X0412672Y0112850D02*
D03*
X0412672Y0114819D02*
D03*
X0412672Y0116787D02*
D03*
X0412672Y0118756D02*
D03*
X0412672Y0120724D02*
D03*
X0412672Y0122693D02*
D03*
X0412672Y0124661D02*
D03*
X0412672Y0126630D02*
D03*
X0412672Y0128598D02*
D03*
X0412672Y0130567D02*
D03*
X0412672Y0132535D02*
D03*
X0412672Y0134504D02*
D03*
X0412672Y0136472D02*
D03*
X0412672Y0138441D02*
D03*
X0412672Y0140409D02*
D03*
X0412672Y0142378D02*
D03*
X0412672Y0144346D02*
D03*
X0412672Y0146315D02*
D03*
X0412672Y0148283D02*
D03*
X0412672Y0150252D02*
D03*
X0412672Y0152220D02*
D03*
X0412672Y0154189D02*
D03*
X0412672Y0156157D02*
D03*
X0412672Y0158126D02*
D03*
X0412672Y0160094D02*
D03*
X0412672Y0162063D02*
D03*
X0412672Y0164031D02*
D03*
X0412672Y0166000D02*
D03*
X0412672Y0167968D02*
D03*
X0412672Y0169937D02*
D03*
X0412672Y0171905D02*
D03*
X0412672Y0173874D02*
D03*
X0412672Y0175842D02*
D03*
X0412672Y0177811D02*
D03*
X0412672Y0179779D02*
D03*
X0412672Y0181748D02*
D03*
X0412672Y0183716D02*
D03*
X0412672Y0185685D02*
D03*
X0412672Y0187653D02*
D03*
X0309128Y0187653D02*
D03*
X0309128Y0185685D02*
D03*
X0309128Y0183716D02*
D03*
X0309128Y0181748D02*
D03*
X0309128Y0179779D02*
D03*
X0309128Y0177811D02*
D03*
X0309128Y0175842D02*
D03*
X0309128Y0173874D02*
D03*
X0309128Y0171905D02*
D03*
X0309128Y0169937D02*
D03*
X0309128Y0167968D02*
D03*
X0309128Y0166000D02*
D03*
X0309128Y0164031D02*
D03*
X0309128Y0162063D02*
D03*
X0309128Y0160094D02*
D03*
X0309128Y0158126D02*
D03*
X0309128Y0156157D02*
D03*
X0309128Y0154189D02*
D03*
X0309128Y0152220D02*
D03*
X0309128Y0150252D02*
D03*
X0309128Y0148283D02*
D03*
X0309128Y0146315D02*
D03*
X0309128Y0144346D02*
D03*
X0309128Y0142378D02*
D03*
X0309128Y0140409D02*
D03*
X0309128Y0138441D02*
D03*
X0309128Y0136472D02*
D03*
X0309128Y0134504D02*
D03*
X0309128Y0132535D02*
D03*
X0309128Y0130567D02*
D03*
X0309128Y0128598D02*
D03*
X0309128Y0126630D02*
D03*
X0309128Y0124661D02*
D03*
X0309128Y0122693D02*
D03*
X0309128Y0120724D02*
D03*
X0309128Y0118756D02*
D03*
X0309128Y0116787D02*
D03*
X0309128Y0114819D02*
D03*
X0309128Y0112850D02*
D03*
X0309128Y0110882D02*
D03*
X0309128Y0108913D02*
D03*
X0309128Y0106945D02*
D03*
X0309128Y0104976D02*
D03*
X0309128Y0103008D02*
D03*
D181*
X0403223Y0197102D02*
D03*
X0401254Y0197102D02*
D03*
X0399286Y0197102D02*
D03*
X0397317Y0197102D02*
D03*
X0395349Y0197102D02*
D03*
X0393380Y0197102D02*
D03*
X0391412Y0197102D02*
D03*
X0389443Y0197102D02*
D03*
X0387475Y0197102D02*
D03*
X0385506Y0197102D02*
D03*
X0383538Y0197102D02*
D03*
X0381569Y0197102D02*
D03*
X0379601Y0197102D02*
D03*
X0377632Y0197102D02*
D03*
X0375664Y0197102D02*
D03*
X0373695Y0197102D02*
D03*
X0371727Y0197102D02*
D03*
X0369758Y0197102D02*
D03*
X0367790Y0197102D02*
D03*
X0365821Y0197102D02*
D03*
X0363853Y0197102D02*
D03*
X0361884Y0197102D02*
D03*
X0359916Y0197102D02*
D03*
X0357947Y0197102D02*
D03*
X0355979Y0197102D02*
D03*
X0354010Y0197102D02*
D03*
X0352042Y0197102D02*
D03*
X0350073Y0197102D02*
D03*
X0348105Y0197102D02*
D03*
X0346136Y0197102D02*
D03*
X0344168Y0197102D02*
D03*
X0342199Y0197102D02*
D03*
X0340231Y0197102D02*
D03*
X0338262Y0197102D02*
D03*
X0336294Y0197102D02*
D03*
X0334325Y0197102D02*
D03*
X0332357Y0197102D02*
D03*
X0330388Y0197102D02*
D03*
X0328420Y0197102D02*
D03*
X0326451Y0197102D02*
D03*
X0324483Y0197102D02*
D03*
X0322514Y0197102D02*
D03*
X0320546Y0197102D02*
D03*
X0318577Y0197102D02*
D03*
X0318577Y0093559D02*
D03*
X0320546Y0093559D02*
D03*
X0322514Y0093559D02*
D03*
X0324483Y0093559D02*
D03*
X0326451Y0093559D02*
D03*
X0328420Y0093559D02*
D03*
X0330388Y0093559D02*
D03*
X0332357Y0093559D02*
D03*
X0334325Y0093559D02*
D03*
X0336294Y0093559D02*
D03*
X0338262Y0093559D02*
D03*
X0340231Y0093559D02*
D03*
X0342199Y0093559D02*
D03*
X0344168Y0093559D02*
D03*
X0346136Y0093559D02*
D03*
X0348105Y0093559D02*
D03*
X0350073Y0093559D02*
D03*
X0352042Y0093559D02*
D03*
X0354010Y0093559D02*
D03*
X0355979Y0093559D02*
D03*
X0357947Y0093559D02*
D03*
X0359916Y0093559D02*
D03*
X0361884Y0093559D02*
D03*
X0363853Y0093559D02*
D03*
X0365821Y0093559D02*
D03*
X0367790Y0093559D02*
D03*
X0369758Y0093559D02*
D03*
X0371727Y0093559D02*
D03*
X0373695Y0093559D02*
D03*
X0375664Y0093559D02*
D03*
X0377632Y0093559D02*
D03*
X0379601Y0093559D02*
D03*
X0381569Y0093559D02*
D03*
X0383538Y0093559D02*
D03*
X0385506Y0093559D02*
D03*
X0387475Y0093559D02*
D03*
X0389443Y0093559D02*
D03*
X0391412Y0093559D02*
D03*
X0393380Y0093559D02*
D03*
X0395349Y0093559D02*
D03*
X0397317Y0093559D02*
D03*
X0399286Y0093559D02*
D03*
X0401254Y0093559D02*
D03*
X0403223Y0093559D02*
D03*
D399*
X0301018Y0210094D02*
D03*
X0294798Y0210094D02*
D03*
X0303774Y0101433D02*
D03*
X0297554Y0101433D02*
D03*
X0294424Y0160291D02*
D03*
X0288203Y0160291D02*
D03*
X0394798Y0202319D02*
D03*
X0388577Y0202319D02*
D03*
X0321018Y0088362D02*
D03*
X0327239Y0088362D02*
D03*
X0329069Y0203008D02*
D03*
X0322849Y0203008D02*
D03*
X0414896Y0094346D02*
D03*
X0408676Y0094346D02*
D03*
X0298656Y0134996D02*
D03*
X0292436Y0134996D02*
D03*
X0405743Y0202417D02*
D03*
X0399522Y0202417D02*
D03*
X0352790Y0206846D02*
D03*
X0346569Y0206846D02*
D03*
X0419207Y0135980D02*
D03*
X0425427Y0135980D02*
D03*
X0390467Y0088244D02*
D03*
X0396687Y0088244D02*
D03*
X0370998Y0088342D02*
D03*
X0364778Y0088342D02*
D03*
X0353872Y0088342D02*
D03*
X0347652Y0088342D02*
D03*
X0303361Y0190901D02*
D03*
X0309581Y0190901D02*
D03*
X0369719Y0202417D02*
D03*
X0363498Y0202417D02*
D03*
X0349522Y0202516D02*
D03*
X0355742Y0202516D02*
D03*
X0419306Y0131650D02*
D03*
X0425526Y0131650D02*
D03*
X0424345Y0175941D02*
D03*
X0418124Y0175941D02*
D03*
D487*
X0278518Y0141787D02*
D03*
X0278518Y0148480D02*
D03*
X0291018Y0148382D02*
D03*
X0291018Y0141689D02*
D03*
X0284817Y0141787D02*
D03*
X0284817Y0148480D02*
D03*
X0296943Y0147791D02*
D03*
X0296943Y0141098D02*
D03*
D488*
X0295861Y0092574D02*
D03*
X0305113Y0088834D02*
D03*
D488*
X0305113Y0096315D02*
D03*
D184*
X0438361Y0155074D02*
D03*
X0423794Y0155074D02*
D03*
D489*
X0296432Y0129189D02*
D03*
X0300172Y0129189D02*
D03*
X0303912Y0129189D02*
D03*
X0303912Y0119740D02*
D03*
X0300172Y0119740D02*
D03*
X0296432Y0119740D02*
D03*
D394*
X0277928Y0222397D02*
D03*
X0277928Y0215311D02*
D03*
X0287967Y0215311D02*
D03*
X0287967Y0222397D02*
D03*
X0299384Y0205468D02*
D03*
X0299384Y0198382D02*
D03*
X0289345Y0198382D02*
D03*
X0289345Y0205468D02*
D03*
X0427534Y0171020D02*
D03*
X0427534Y0163933D02*
D03*
X0437573Y0163933D02*
D03*
X0437573Y0171020D02*
D03*
X0452829Y0171019D02*
D03*
X0452829Y0163933D02*
D03*
X0442790Y0163933D02*
D03*
X0442790Y0171019D02*
D03*
X0423597Y0204386D02*
D03*
X0423597Y0197299D02*
D03*
X0433636Y0197299D02*
D03*
X0433636Y0204386D02*
D03*
X0452337Y0204386D02*
D03*
X0452337Y0197299D02*
D03*
X0442298Y0197299D02*
D03*
X0442298Y0204386D02*
D03*
X0427337Y0125842D02*
D03*
X0427337Y0118756D02*
D03*
X0437376Y0118756D02*
D03*
X0437376Y0125842D02*
D03*
X0315231Y0205173D02*
D03*
X0315231Y0198086D02*
D03*
X0305191Y0198086D02*
D03*
X0305191Y0205173D02*
D03*
X0442691Y0125842D02*
D03*
X0442691Y0118756D02*
D03*
X0452731Y0118756D02*
D03*
X0452731Y0125842D02*
D03*
X0387770Y0206649D02*
D03*
X0387770Y0213736D02*
D03*
X0397810Y0213736D02*
D03*
X0397810Y0206649D02*
D03*
X0396628Y0224956D02*
D03*
X0396628Y0217870D02*
D03*
X0386589Y0217870D02*
D03*
X0386589Y0224956D02*
D03*
D395*
X0284522Y0215311D02*
D03*
X0281372Y0215311D02*
D03*
X0281372Y0222397D02*
D03*
X0284522Y0222397D02*
D03*
X0295939Y0205468D02*
D03*
X0292790Y0205468D02*
D03*
X0292790Y0198382D02*
D03*
X0295939Y0198382D02*
D03*
X0434128Y0163933D02*
D03*
X0430979Y0163933D02*
D03*
X0430979Y0171020D02*
D03*
X0434128Y0171020D02*
D03*
X0449384Y0171019D02*
D03*
X0446235Y0171019D02*
D03*
X0446235Y0163933D02*
D03*
X0449384Y0163933D02*
D03*
X0430191Y0197299D02*
D03*
X0427042Y0197299D02*
D03*
X0427042Y0204386D02*
D03*
X0430191Y0204386D02*
D03*
X0448892Y0204386D02*
D03*
X0445742Y0204386D02*
D03*
X0445742Y0197299D02*
D03*
X0448892Y0197299D02*
D03*
X0433931Y0118756D02*
D03*
X0430782Y0118756D02*
D03*
X0430782Y0125842D02*
D03*
X0433931Y0125842D02*
D03*
X0311786Y0205173D02*
D03*
X0308636Y0205173D02*
D03*
X0308636Y0198086D02*
D03*
X0311786Y0198086D02*
D03*
X0449286Y0118756D02*
D03*
X0446136Y0118756D02*
D03*
X0446136Y0125842D02*
D03*
X0449286Y0125842D02*
D03*
X0391215Y0206649D02*
D03*
X0394365Y0206649D02*
D03*
X0394365Y0213736D02*
D03*
X0391215Y0213736D02*
D03*
X0393183Y0224956D02*
D03*
X0390034Y0224956D02*
D03*
X0390034Y0217870D02*
D03*
X0393183Y0217870D02*
D03*
D490*
X0290231Y0113244D02*
D03*
X0290231Y0100252D02*
D03*
D491*
X0410605Y0195842D02*
D03*
X0414345Y0205094D02*
D03*
D491*
X0418085Y0195842D02*
D03*
D492*
X0351767Y0216789D02*
D03*
X0344680Y0216789D02*
D03*
X0344680Y0226828D02*
D03*
X0351767Y0226828D02*
D03*
X0342002Y0201925D02*
D03*
X0334916Y0201925D02*
D03*
X0334916Y0211964D02*
D03*
X0342002Y0211964D02*
D03*
X0428459Y0101256D02*
D03*
X0435546Y0101256D02*
D03*
X0435546Y0111296D02*
D03*
X0428459Y0111296D02*
D03*
X0444069Y0091492D02*
D03*
X0451156Y0091492D02*
D03*
X0451156Y0101531D02*
D03*
X0444069Y0101531D02*
D03*
D493*
X0351767Y0220233D02*
D03*
X0351767Y0223383D02*
D03*
X0344680Y0223383D02*
D03*
X0344680Y0220233D02*
D03*
X0342002Y0205370D02*
D03*
X0342002Y0208519D02*
D03*
X0334916Y0208519D02*
D03*
X0334916Y0205370D02*
D03*
X0435546Y0107851D02*
D03*
X0435546Y0104701D02*
D03*
X0428459Y0104701D02*
D03*
X0428459Y0107851D02*
D03*
X0451156Y0098086D02*
D03*
X0451156Y0094937D02*
D03*
X0444069Y0094937D02*
D03*
X0444069Y0098086D02*
D03*
D494*
X0420349Y0121512D02*
D03*
X0420349Y0127417D02*
D03*
D495*
X0384128Y0202023D02*
D03*
X0384128Y0205960D02*
D03*
D496*
X0401648Y0088342D02*
D03*
X0414640Y0088342D02*
D03*
X0283636Y0016614D02*
G01*
G75*
D232*
X0301254Y0064645D02*
D03*
X0301254Y0031968D02*
D03*
X0355388Y0031968D02*
D03*
X0355388Y0064645D02*
D03*
D233*
X0346018Y0054409D02*
D03*
X0341687Y0054409D02*
D03*
X0337356Y0054409D02*
D03*
X0333026Y0054409D02*
D03*
X0328695Y0054409D02*
D03*
X0324364Y0054409D02*
D03*
X0320034Y0054409D02*
D03*
X0315703Y0054409D02*
D03*
D173*
X0295349Y0069212D02*
D03*
X0295349Y0075433D02*
D03*
X0290723Y0069212D02*
D03*
X0290723Y0075433D02*
D03*
D165*
X0286195Y0075472D02*
D03*
X0286195Y0069173D02*
D03*
X0227230Y0286050D02*
G01*
G75*
D427*
X0174533Y0199633D02*
D03*
X0168313Y0199633D02*
D03*
D396*
X0119553Y0127133D02*
D03*
X0119553Y0133353D02*
D03*
X0119454Y0137664D02*
D03*
X0119454Y0143885D02*
D03*
D392*
X0133628Y0121483D02*
D03*
X0141108Y0121483D02*
D03*
X0121226Y0121483D02*
D03*
X0128707Y0121483D02*
D03*
D391*
X0135301Y0167349D02*
D03*
X0135301Y0161050D02*
D03*
X0130675Y0167349D02*
D03*
X0130675Y0161050D02*
D03*
X0150262Y0250125D02*
D03*
X0150262Y0243826D02*
D03*
X0163549Y0252979D02*
D03*
X0163549Y0259278D02*
D03*
X0120045Y0167841D02*
D03*
X0120045Y0161542D02*
D03*
X0119750Y0147959D02*
D03*
X0119750Y0154259D02*
D03*
X0125065Y0167841D02*
D03*
X0125065Y0161542D02*
D03*
D488*
X0164454Y0241956D02*
D03*
X0155202Y0245696D02*
D03*
X0159139Y0266267D02*
D03*
X0168391Y0262526D02*
D03*
D488*
X0164454Y0249436D02*
D03*
X0168391Y0270007D02*
D03*
D559*
X0158135Y0260577D02*
D03*
X0154395Y0251326D02*
D03*
X0156462Y0158766D02*
D03*
X0160203Y0168018D02*
D03*
X0199573Y0273373D02*
D03*
X0203313Y0282625D02*
D03*
X0217289Y0282625D02*
D03*
X0213549Y0273373D02*
D03*
X0189730Y0282625D02*
D03*
X0185990Y0273373D02*
D03*
X0177230Y0249888D02*
D03*
X0173490Y0240636D02*
D03*
X0210202Y0254672D02*
D03*
X0206462Y0245420D02*
D03*
D559*
X0150655Y0260577D02*
D03*
X0163943Y0158766D02*
D03*
X0207053Y0273373D02*
D03*
X0221029Y0273373D02*
D03*
X0193470Y0273373D02*
D03*
X0169750Y0249888D02*
D03*
X0213943Y0245420D02*
D03*
D482*
X0150065Y0270105D02*
D03*
X0150065Y0281523D02*
D03*
D560*
X0148490Y0175263D02*
D03*
X0166600Y0175263D02*
D03*
X0148490Y0233530D02*
D03*
X0166600Y0233530D02*
D03*
X0139238Y0233530D02*
D03*
X0121128Y0233530D02*
D03*
X0139238Y0175263D02*
D03*
X0121128Y0175263D02*
D03*
X0175852Y0175263D02*
D03*
X0193962Y0175263D02*
D03*
X0221324Y0175263D02*
D03*
X0203214Y0175263D02*
D03*
X0194356Y0233530D02*
D03*
X0176246Y0233530D02*
D03*
X0204002Y0233530D02*
D03*
X0222112Y0233530D02*
D03*
D561*
X0157545Y0175263D02*
D03*
X0157545Y0233530D02*
D03*
X0130183Y0233530D02*
D03*
X0130183Y0175263D02*
D03*
X0184907Y0175263D02*
D03*
X0212269Y0175263D02*
D03*
X0185301Y0233530D02*
D03*
X0213057Y0233530D02*
D03*
D562*
X0157545Y0199672D02*
D03*
X0157545Y0209121D02*
D03*
X0130183Y0209121D02*
D03*
X0130183Y0199672D02*
D03*
X0184907Y0199672D02*
D03*
X0212269Y0199672D02*
D03*
X0185301Y0209121D02*
D03*
X0213057Y0209121D02*
D03*
D563*
X0195636Y0209022D02*
D03*
X0202722Y0209022D02*
D03*
X0202722Y0198983D02*
D03*
X0195636Y0198983D02*
D03*
X0216600Y0162467D02*
D03*
X0223687Y0162467D02*
D03*
X0223687Y0152428D02*
D03*
X0216600Y0152428D02*
D03*
X0139927Y0199475D02*
D03*
X0147014Y0199475D02*
D03*
X0147014Y0209515D02*
D03*
X0139927Y0209515D02*
D03*
D564*
X0195636Y0205578D02*
D03*
X0195636Y0202428D02*
D03*
X0202722Y0202428D02*
D03*
X0202722Y0205578D02*
D03*
X0216600Y0159022D02*
D03*
X0216600Y0155873D02*
D03*
X0223687Y0155873D02*
D03*
X0223687Y0159022D02*
D03*
X0147014Y0206070D02*
D03*
X0147014Y0202920D02*
D03*
X0139927Y0202920D02*
D03*
X0139927Y0206070D02*
D03*
D247*
X0221797Y0142389D02*
D03*
X0216797Y0142389D02*
D03*
X0211797Y0142389D02*
D03*
X0206797Y0142389D02*
D03*
X0201797Y0142389D02*
D03*
X0196797Y0142389D02*
D03*
X0191797Y0142389D02*
D03*
X0186797Y0142389D02*
D03*
X0221797Y0123491D02*
D03*
X0216797Y0123491D02*
D03*
X0211797Y0123491D02*
D03*
X0206797Y0123491D02*
D03*
X0201797Y0123491D02*
D03*
X0196797Y0123491D02*
D03*
X0191797Y0123491D02*
D03*
X0186797Y0123491D02*
D03*
X0145360Y0123294D02*
D03*
X0150360Y0123294D02*
D03*
X0155360Y0123294D02*
D03*
X0160360Y0123294D02*
D03*
X0165360Y0123294D02*
D03*
X0170360Y0123294D02*
D03*
X0175360Y0123294D02*
D03*
X0180360Y0123294D02*
D03*
X0145360Y0142192D02*
D03*
X0150360Y0142192D02*
D03*
X0155360Y0142192D02*
D03*
X0160360Y0142192D02*
D03*
X0165360Y0142192D02*
D03*
X0170360Y0142192D02*
D03*
X0175360Y0142192D02*
D03*
X0180360Y0142192D02*
D03*
X0139455Y0148589D02*
D03*
X0134455Y0148589D02*
D03*
X0129454Y0148589D02*
D03*
X0124454Y0148589D02*
D03*
X0139455Y0129692D02*
D03*
X0134455Y0129692D02*
D03*
X0129454Y0129692D02*
D03*
X0124454Y0129692D02*
D03*
D248*
X0141206Y0267369D02*
D03*
X0141206Y0272369D02*
D03*
X0141206Y0277369D02*
D03*
X0141206Y0282369D02*
D03*
X0122308Y0267369D02*
D03*
X0122308Y0272369D02*
D03*
X0122308Y0277369D02*
D03*
X0122308Y0282369D02*
D03*
X0124080Y0260518D02*
D03*
X0124080Y0255519D02*
D03*
X0124080Y0250519D02*
D03*
X0124080Y0245518D02*
D03*
X0142978Y0260518D02*
D03*
X0142978Y0255519D02*
D03*
X0142978Y0250519D02*
D03*
X0142978Y0245518D02*
D03*
D398*
X0222309Y0260991D02*
D03*
X0222309Y0268471D02*
D03*
X0215419Y0268471D02*
D03*
X0215419Y0260991D02*
D03*
X0208529Y0260991D02*
D03*
X0208529Y0268471D02*
D03*
X0201639Y0268471D02*
D03*
X0201639Y0260991D02*
D03*
X0194750Y0260991D02*
D03*
X0194750Y0268471D02*
D03*
X0187860Y0268471D02*
D03*
X0187860Y0260991D02*
D03*
X0180970Y0260991D02*
D03*
X0180970Y0268471D02*
D03*
X0174080Y0268471D02*
D03*
X0174080Y0260991D02*
D03*
X0161580Y0282743D02*
D03*
X0161580Y0275263D02*
D03*
X0168765Y0275164D02*
D03*
X0168765Y0282645D02*
D03*
D565*
X0183824Y0254692D02*
D03*
X0183824Y0241700D02*
D03*
X0221029Y0242093D02*
D03*
X0221029Y0255085D02*
D03*
X0199868Y0254692D02*
D03*
X0199868Y0241700D02*
D03*
X0191699Y0241700D02*
D03*
X0191699Y0254692D02*
D03*
D483*
X0174277Y0275066D02*
D03*
X0180576Y0275066D02*
D03*
X0180675Y0280676D02*
D03*
X0174376Y0280676D02*
D03*
X0176738Y0254101D02*
D03*
X0170439Y0254101D02*
D03*
X0140813Y0155932D02*
D03*
X0134514Y0155932D02*
D03*
X0205872Y0240715D02*
D03*
X0212171Y0240715D02*
D03*
X0330026Y0241556D02*
G01*
G75*
D577*
X0321463Y0244115D02*
D03*
X0324022Y0244115D02*
D03*
X0326581Y0244115D02*
D03*
X0321463Y0251595D02*
D03*
X0324022Y0251595D02*
D03*
X0326581Y0251595D02*
D03*
X0316837Y0251595D02*
D03*
X0314278Y0251595D02*
D03*
X0311719Y0251595D02*
D03*
X0316837Y0244115D02*
D03*
X0314278Y0244115D02*
D03*
X0311719Y0244115D02*
D03*
D370*
X0312703Y0264351D02*
D03*
X0312703Y0258131D02*
D03*
X0312802Y0274883D02*
D03*
X0312802Y0268662D02*
D03*
D367*
X0321994Y0256517D02*
D03*
X0328215Y0256517D02*
D03*
X0326345Y0260847D02*
D03*
X0320124Y0260847D02*
D03*
D530*
X0316739Y0273544D02*
D03*
X0316739Y0266458D02*
D03*
X0326778Y0266458D02*
D03*
X0326778Y0273544D02*
D03*
X0316739Y0284765D02*
D03*
X0316739Y0277678D02*
D03*
X0326778Y0277678D02*
D03*
X0326778Y0284765D02*
D03*
D531*
X0323333Y0266458D02*
D03*
X0320184Y0266458D02*
D03*
X0320184Y0273544D02*
D03*
X0323333Y0273544D02*
D03*
X0323333Y0277678D02*
D03*
X0320184Y0277678D02*
D03*
X0320184Y0284765D02*
D03*
X0323333Y0284765D02*
D03*
X0225705Y0040135D02*
G01*
G75*
D579*
X0215075Y0087792D02*
D03*
X0191650Y0087792D02*
D03*
X0215075Y0077792D02*
D03*
X0191650Y0077792D02*
D03*
X0215075Y0067792D02*
D03*
X0191650Y0067792D02*
D03*
X0215075Y0057792D02*
D03*
X0191650Y0057792D02*
D03*
X0215075Y0047792D02*
D03*
X0191650Y0047792D02*
D03*
D370*
X0201985Y0097851D02*
D03*
X0201985Y0104072D02*
D03*
X0213992Y0100410D02*
D03*
X0213992Y0106631D02*
D03*
D580*
X0207988Y0108048D02*
D03*
X0207988Y0095056D02*
D03*
D368*
X0218618Y0106572D02*
D03*
X0218618Y0100273D02*
D03*
D526*
X0188126Y0100568D02*
D03*
X0197378Y0096828D02*
D03*
D526*
X0197378Y0104308D02*
D03*
D367*
X0219169Y0095942D02*
D03*
X0212949Y0095942D02*
D03*
X0357835Y0410526D02*
G01*
G75*
D491*
X0346418Y0397514D02*
D03*
X0350158Y0406766D02*
D03*
D491*
X0353898Y0397514D02*
D03*
D248*
X0338859Y0385900D02*
D03*
X0338859Y0390900D02*
D03*
X0338859Y0395900D02*
D03*
X0338859Y0400900D02*
D03*
X0319961Y0385900D02*
D03*
X0319961Y0390900D02*
D03*
X0319961Y0395900D02*
D03*
X0319961Y0400900D02*
D03*
D427*
X0323150Y0406195D02*
D03*
X0316930Y0406195D02*
D03*
X0331496Y0406195D02*
D03*
X0337717Y0406195D02*
D03*
D483*
X0353308Y0392613D02*
D03*
X0347008Y0392613D02*
D03*
D17*
X0342678Y0408656D02*
D03*
X0426936Y0354068D02*
G01*
G75*
D396*
X0379593Y0345741D02*
D03*
X0379593Y0351962D02*
D03*
X0374278Y0350092D02*
D03*
X0374278Y0343871D02*
D03*
X0384121Y0351962D02*
D03*
X0384121Y0345741D02*
D03*
X0423983Y0344954D02*
D03*
X0423983Y0351174D02*
D03*
X0393078Y0351666D02*
D03*
X0393078Y0345446D02*
D03*
D598*
X0360302Y0343537D02*
D03*
X0360302Y0351017D02*
D03*
X0368767Y0351017D02*
D03*
X0368767Y0347277D02*
D03*
X0403668Y0343044D02*
D03*
X0403668Y0350525D02*
D03*
X0412133Y0350525D02*
D03*
X0412133Y0346785D02*
D03*
D598*
X0368767Y0343537D02*
D03*
X0412133Y0343044D02*
D03*
D483*
X0376050Y0340977D02*
D03*
X0382349Y0340977D02*
D03*
X0386089Y0340190D02*
D03*
X0392389Y0340190D02*
D03*
D428*
X0388550Y0344324D02*
D03*
X0388550Y0350623D02*
D03*
X0417881Y0344324D02*
D03*
X0417881Y0350623D02*
D03*
X0397999Y0344324D02*
D03*
X0397999Y0350623D02*
D03*
X0118358Y0414701D02*
G01*
G75*
D433*
X0062551Y0428284D02*
D03*
X0073968Y0428284D02*
D03*
X0062453Y0420213D02*
D03*
X0073870Y0420213D02*
D03*
X0060878Y0457024D02*
D03*
X0072295Y0457024D02*
D03*
D370*
X0082925Y0450095D02*
D03*
X0082925Y0443874D02*
D03*
D600*
X0089913Y0465902D02*
D03*
X0086173Y0456650D02*
D03*
D600*
X0082433Y0465902D02*
D03*
D601*
X0068909Y0442358D02*
D03*
X0068909Y0449839D02*
D03*
X0077374Y0449839D02*
D03*
X0077374Y0446099D02*
D03*
D601*
X0077374Y0442358D02*
D03*
D602*
X0105267Y0472181D02*
D03*
X0105267Y0444819D02*
D03*
D603*
X0090208Y0430646D02*
D03*
X0090208Y0421984D02*
D03*
X0080169Y0422280D02*
D03*
X0080169Y0430941D02*
D03*
D580*
X0060878Y0463323D02*
D03*
X0060878Y0476315D02*
D03*
D604*
X0076232Y0474740D02*
D03*
X0067571Y0474740D02*
D03*
X0077915Y0466069D02*
D03*
X0069254Y0466069D02*
D03*
D368*
X0090012Y0434288D02*
D03*
X0090012Y0440587D02*
D03*
X0085189Y0434386D02*
D03*
X0085189Y0428087D02*
D03*
X0090208Y0444622D02*
D03*
X0090208Y0450921D02*
D03*
D432*
X0086862Y0418343D02*
D03*
X0080642Y0418343D02*
D03*
D532*
X0060189Y0435862D02*
D03*
X0073181Y0435862D02*
D03*
X0085581Y0227165D02*
G01*
G75*
D369*
X0067175Y0246752D02*
D03*
X0059695Y0246752D02*
D03*
X0067372Y0278149D02*
D03*
X0059892Y0278149D02*
D03*
D615*
X0067471Y0376082D02*
D03*
X0078494Y0376082D02*
D03*
D616*
X0073475Y0254429D02*
D03*
X0073475Y0270571D02*
D03*
D434*
X0061565Y0379921D02*
D03*
X0061565Y0373622D02*
D03*
X0060975Y0329035D02*
D03*
X0060975Y0335334D02*
D03*
X0061565Y0290354D02*
D03*
X0061565Y0284055D02*
D03*
D370*
X0060679Y0369055D02*
D03*
X0060679Y0362834D02*
D03*
X0066093Y0283996D02*
D03*
X0066093Y0290216D02*
D03*
X0081152Y0337834D02*
D03*
X0081152Y0344055D02*
D03*
D367*
X0062294Y0294586D02*
D03*
X0068514Y0294586D02*
D03*
D617*
X0065187Y0307480D02*
D03*
X0070187Y0307480D02*
D03*
X0075187Y0307480D02*
D03*
X0080187Y0307480D02*
D03*
X0065187Y0330118D02*
D03*
X0070187Y0330118D02*
D03*
X0075187Y0330118D02*
D03*
X0080187Y0330118D02*
D03*
D618*
X0072687Y0318799D02*
D03*
D619*
X0076034Y0296949D02*
D03*
X0076034Y0281200D02*
D03*
D620*
X0065798Y0358169D02*
D03*
X0077215Y0358169D02*
D03*
X0059695Y0341240D02*
D03*
X0071112Y0341240D02*
D03*
X0077116Y0350000D02*
D03*
X0065699Y0350000D02*
D03*
X0077313Y0366240D02*
D03*
X0065896Y0366240D02*
D03*
D621*
X0062156Y0235236D02*
D03*
X0079872Y0235236D02*
D03*
D362*
X0062254Y0299015D02*
D03*
X0068553Y0299015D02*
D03*
D307*
X0059695Y0235236D02*
D03*
X0275290Y0338517D02*
%LPD*%
G01*
G36*
G01*
X0238991Y0407110D02*
X0238991Y0405751D01*
G75*
G02*
X0238410Y0405171I-000581J0000000D01*
G01*
X0237249Y0405171D01*
G75*
G02*
X0236668Y0405751I0000000J0000581D01*
G01*
X0236668Y0407110D01*
G75*
G02*
X0237249Y0407690I0000581J0000000D01*
G01*
X0238410Y0407690D01*
G75*
G02*
X0238991Y0407110I0000000J-000581D01*
G01*
G37*
G36*
G01*
X0235172Y0407110D02*
X0235172Y0405751D01*
G75*
G02*
X0234591Y0405171I-000581J0000000D01*
G01*
X0233430Y0405171D01*
G75*
G02*
X0232849Y0405751I0000000J0000581D01*
G01*
X0232849Y0407110D01*
G75*
G02*
X0233430Y0407690I0000581J0000000D01*
G01*
X0234591Y0407690D01*
G75*
G02*
X0235172Y0407110I0000000J-000581D01*
G01*
G37*
G36*
G01*
X0263648Y0441932D02*
X0265007Y0441932D01*
G75*
G02*
X0265587Y0441352I0000000J-000581D01*
G01*
X0265587Y0440190D01*
G75*
G02*
X0265007Y0439610I-000581J0000000D01*
G01*
X0263648Y0439610D01*
G75*
G02*
X0263068Y0440190I0000000J0000581D01*
G01*
X0263068Y0441352D01*
G75*
G02*
X0263648Y0441932I0000581J0000000D01*
G01*
G37*
G36*
G01*
X0263648Y0438113D02*
X0265007Y0438113D01*
G75*
G02*
X0265587Y0437533I0000000J-000581D01*
G01*
X0265587Y0436371D01*
G75*
G02*
X0265007Y0435791I-000581J0000000D01*
G01*
X0263648Y0435791D01*
G75*
G02*
X0263068Y0436371I0000000J0000581D01*
G01*
X0263068Y0437533D01*
G75*
G02*
X0263648Y0438113I0000581J0000000D01*
G01*
G37*
G36*
G01*
X0238757Y0444541D02*
X0237398Y0444541D01*
G75*
G02*
X0236818Y0445121I0000000J0000581D01*
G01*
X0236818Y0446283D01*
G75*
G02*
X0237398Y0446863I0000581J0000000D01*
G01*
X0238757Y0446863D01*
G75*
G02*
X0239337Y0446283I0000000J-000581D01*
G01*
X0239337Y0445121D01*
G75*
G02*
X0238757Y0444541I-000581J0000000D01*
G01*
G37*
G36*
G01*
X0238757Y0448360D02*
X0237398Y0448360D01*
G75*
G02*
X0236818Y0448940I0000000J0000581D01*
G01*
X0236818Y0450102D01*
G75*
G02*
X0237398Y0450682I0000581J0000000D01*
G01*
X0238757Y0450682D01*
G75*
G02*
X0239337Y0450102I0000000J-000581D01*
G01*
X0239337Y0448940D01*
G75*
G02*
X0238757Y0448360I-000581J0000000D01*
G01*
G37*
G36*
G01*
X0255138Y0344517D02*
X0253780Y0344517D01*
G75*
G02*
X0253199Y0345098I0000000J0000581D01*
G01*
X0253199Y0346259D01*
G75*
G02*
X0253780Y0346840I0000581J0000000D01*
G01*
X0255138Y0346840D01*
G75*
G02*
X0255719Y0346259I0000000J-000581D01*
G01*
X0255719Y0345098D01*
G75*
G02*
X0255138Y0344517I-000581J0000000D01*
G01*
G37*
G36*
G01*
X0255138Y0348336D02*
X0253780Y0348336D01*
G75*
G02*
X0253199Y0348917I0000000J0000581D01*
G01*
X0253199Y0350078D01*
G75*
G02*
X0253780Y0350659I0000581J0000000D01*
G01*
X0255138Y0350659D01*
G75*
G02*
X0255719Y0350078I0000000J-000581D01*
G01*
X0255719Y0348917D01*
G75*
G02*
X0255138Y0348336I-000581J0000000D01*
G01*
G37*
G36*
G01*
X0241136Y0358079D02*
X0241136Y0360097D01*
G75*
G02*
X0241998Y0360958I0000861J0000000D01*
G01*
X0243720Y0360958D01*
G75*
G02*
X0244581Y0360097I0000000J-000861D01*
G01*
X0244581Y0358079D01*
G75*
G02*
X0243720Y0357218I-000861J0000000D01*
G01*
X0241998Y0357218D01*
G75*
G02*
X0241136Y0358079I0000000J0000861D01*
G01*
G37*
G36*
G01*
X0247337Y0358079D02*
X0247337Y0360097D01*
G75*
G02*
X0248198Y0360958I0000861J0000000D01*
G01*
X0249921Y0360958D01*
G75*
G02*
X0250782Y0360097I0000000J-000861D01*
G01*
X0250782Y0358079D01*
G75*
G02*
X0249921Y0357218I-000861J0000000D01*
G01*
X0248198Y0357218D01*
G75*
G02*
X0247337Y0358079I0000000J0000861D01*
G01*
G37*
G36*
G01*
X0238086Y0428789D02*
X0236069Y0428789D01*
G75*
G02*
X0235207Y0429650I0000000J0000861D01*
G01*
X0235207Y0431372D01*
G75*
G02*
X0236069Y0432234I0000861J0000000D01*
G01*
X0238086Y0432234D01*
G75*
G02*
X0238947Y0431372I0000000J-000861D01*
G01*
X0238947Y0429650D01*
G75*
G02*
X0238086Y0428789I-000861J0000000D01*
G01*
G37*
G36*
G01*
X0238086Y0434989D02*
X0236069Y0434989D01*
G75*
G02*
X0235207Y0435851I0000000J0000861D01*
G01*
X0235207Y0437573D01*
G75*
G02*
X0236069Y0438434I0000861J0000000D01*
G01*
X0238086Y0438434D01*
G75*
G02*
X0238947Y0437573I0000000J-000861D01*
G01*
X0238947Y0435851D01*
G75*
G02*
X0238086Y0434989I-000861J0000000D01*
G01*
G37*
G36*
G01*
X0263648Y0434182D02*
X0265007Y0434182D01*
G75*
G02*
X0265587Y0433602I0000000J-000581D01*
G01*
X0265587Y0432440D01*
G75*
G02*
X0265007Y0431860I-000581J0000000D01*
G01*
X0263648Y0431860D01*
G75*
G02*
X0263068Y0432440I0000000J0000581D01*
G01*
X0263068Y0433602D01*
G75*
G02*
X0263648Y0434182I0000581J0000000D01*
G01*
G37*
G36*
G01*
X0263648Y0430363D02*
X0265007Y0430363D01*
G75*
G02*
X0265587Y0429783I0000000J-000581D01*
G01*
X0265587Y0428621D01*
G75*
G02*
X0265007Y0428041I-000581J0000000D01*
G01*
X0263648Y0428041D01*
G75*
G02*
X0263068Y0428621I0000000J0000581D01*
G01*
X0263068Y0429783D01*
G75*
G02*
X0263648Y0430363I0000581J0000000D01*
G01*
G37*
G36*
G01*
X0247148Y0446291D02*
X0247148Y0444932D01*
G75*
G02*
X0246568Y0444352I-000581J0000000D01*
G01*
X0245406Y0444352D01*
G75*
G02*
X0244825Y0444932I0000000J0000581D01*
G01*
X0244825Y0446291D01*
G75*
G02*
X0245406Y0446871I0000581J0000000D01*
G01*
X0246568Y0446871D01*
G75*
G02*
X0247148Y0446291I0000000J-000581D01*
G01*
G37*
G36*
G01*
X0243329Y0446291D02*
X0243329Y0444932D01*
G75*
G02*
X0242749Y0444352I-000581J0000000D01*
G01*
X0241587Y0444352D01*
G75*
G02*
X0241007Y0444932I0000000J0000581D01*
G01*
X0241007Y0446291D01*
G75*
G02*
X0241587Y0446871I0000581J0000000D01*
G01*
X0242749Y0446871D01*
G75*
G02*
X0243329Y0446291I0000000J-000581D01*
G01*
G37*
G36*
G01*
X0225172Y0440003D02*
X0225172Y0441361D01*
G75*
G02*
X0225753Y0441942I0000581J0000000D01*
G01*
X0226914Y0441942D01*
G75*
G02*
X0227495Y0441361I0000000J-000581D01*
G01*
X0227495Y0440003D01*
G75*
G02*
X0226914Y0439423I-000581J0000000D01*
G01*
X0225753Y0439423D01*
G75*
G02*
X0225172Y0440003I0000000J0000581D01*
G01*
G37*
G36*
G01*
X0228991Y0440003D02*
X0228991Y0441361D01*
G75*
G02*
X0229571Y0441942I0000581J0000000D01*
G01*
X0230733Y0441942D01*
G75*
G02*
X0231314Y0441361I0000000J-000581D01*
G01*
X0231314Y0440003D01*
G75*
G02*
X0230733Y0439423I-000581J0000000D01*
G01*
X0229571Y0439423D01*
G75*
G02*
X0228991Y0440003I0000000J0000581D01*
G01*
G37*
G36*
G01*
X0221835Y0435446D02*
X0220477Y0435446D01*
G75*
G02*
X0219896Y0436027I0000000J0000581D01*
G01*
X0219896Y0437188D01*
G75*
G02*
X0220477Y0437769I0000581J0000000D01*
G01*
X0221835Y0437769D01*
G75*
G02*
X0222416Y0437188I0000000J-000581D01*
G01*
X0222416Y0436027D01*
G75*
G02*
X0221835Y0435446I-000581J0000000D01*
G01*
G37*
G36*
G01*
X0221835Y0439265D02*
X0220477Y0439265D01*
G75*
G02*
X0219896Y0439846I0000000J0000581D01*
G01*
X0219896Y0441007D01*
G75*
G02*
X0220477Y0441588I0000581J0000000D01*
G01*
X0221835Y0441588D01*
G75*
G02*
X0222416Y0441007I0000000J-000581D01*
G01*
X0222416Y0439846D01*
G75*
G02*
X0221835Y0439265I-000581J0000000D01*
G01*
G37*
G36*
G01*
X0220654Y0410643D02*
X0219296Y0410643D01*
G75*
G02*
X0218715Y0411224I0000000J0000581D01*
G01*
X0218715Y0412385D01*
G75*
G02*
X0219296Y0412966I0000581J0000000D01*
G01*
X0220654Y0412966D01*
G75*
G02*
X0221235Y0412385I0000000J-000581D01*
G01*
X0221235Y0411224D01*
G75*
G02*
X0220654Y0410643I-000581J0000000D01*
G01*
G37*
G36*
G01*
X0220654Y0414462D02*
X0219296Y0414462D01*
G75*
G02*
X0218715Y0415043I0000000J0000581D01*
G01*
X0218715Y0416204D01*
G75*
G02*
X0219296Y0416785I0000581J0000000D01*
G01*
X0220654Y0416785D01*
G75*
G02*
X0221235Y0416204I0000000J-000581D01*
G01*
X0221235Y0415043D01*
G75*
G02*
X0220654Y0414462I-000581J0000000D01*
G01*
G37*
G36*
G01*
X0263648Y0426432D02*
X0265007Y0426432D01*
G75*
G02*
X0265587Y0425852I0000000J-000581D01*
G01*
X0265587Y0424690D01*
G75*
G02*
X0265007Y0424110I-000581J0000000D01*
G01*
X0263648Y0424110D01*
G75*
G02*
X0263068Y0424690I0000000J0000581D01*
G01*
X0263068Y0425852D01*
G75*
G02*
X0263648Y0426432I0000581J0000000D01*
G01*
G37*
G36*
G01*
X0263648Y0422613D02*
X0265007Y0422613D01*
G75*
G02*
X0265587Y0422033I0000000J-000581D01*
G01*
X0265587Y0420871D01*
G75*
G02*
X0265007Y0420291I-000581J0000000D01*
G01*
X0263648Y0420291D01*
G75*
G02*
X0263068Y0420871I0000000J0000581D01*
G01*
X0263068Y0422033D01*
G75*
G02*
X0263648Y0422613I0000581J0000000D01*
G01*
G37*
G36*
G01*
X0263648Y0418682D02*
X0265007Y0418682D01*
G75*
G02*
X0265587Y0418102I0000000J-000581D01*
G01*
X0265587Y0416940D01*
G75*
G02*
X0265007Y0416360I-000581J0000000D01*
G01*
X0263648Y0416360D01*
G75*
G02*
X0263068Y0416940I0000000J0000581D01*
G01*
X0263068Y0418102D01*
G75*
G02*
X0263648Y0418682I0000581J0000000D01*
G01*
G37*
G36*
G01*
X0263648Y0414863D02*
X0265007Y0414863D01*
G75*
G02*
X0265587Y0414283I0000000J-000581D01*
G01*
X0265587Y0413121D01*
G75*
G02*
X0265007Y0412541I-000581J0000000D01*
G01*
X0263648Y0412541D01*
G75*
G02*
X0263068Y0413121I0000000J0000581D01*
G01*
X0263068Y0414283D01*
G75*
G02*
X0263648Y0414863I0000581J0000000D01*
G01*
G37*
G36*
G01*
X0239148Y0442291D02*
X0239148Y0440932D01*
G75*
G02*
X0238568Y0440352I-000581J0000000D01*
G01*
X0237406Y0440352D01*
G75*
G02*
X0236825Y0440932I0000000J0000581D01*
G01*
X0236825Y0442291D01*
G75*
G02*
X0237406Y0442871I0000581J0000000D01*
G01*
X0238568Y0442871D01*
G75*
G02*
X0239148Y0442291I0000000J-000581D01*
G01*
G37*
G36*
G01*
X0235329Y0442291D02*
X0235329Y0440932D01*
G75*
G02*
X0234749Y0440352I-000581J0000000D01*
G01*
X0233587Y0440352D01*
G75*
G02*
X0233007Y0440932I0000000J0000581D01*
G01*
X0233007Y0442291D01*
G75*
G02*
X0233587Y0442871I0000581J0000000D01*
G01*
X0234749Y0442871D01*
G75*
G02*
X0235329Y0442291I0000000J-000581D01*
G01*
G37*
D355*
X0249099Y0352525D03*
X0241619Y0352525D03*
X0245359Y0344651D03*
D633*
X0243400Y0415997D03*
X0245959Y0415997D03*
X0248518Y0415997D03*
X0251077Y0415997D03*
X0253636Y0415997D03*
X0256196Y0415997D03*
X0258755Y0415997D03*
X0258755Y0439226D03*
X0256196Y0439226D03*
X0253636Y0439226D03*
X0251077Y0439226D03*
X0248518Y0439226D03*
X0245959Y0439226D03*
X0243400Y0439226D03*
G36*
G01*
X0247148Y0450291D02*
X0247148Y0448932D01*
G75*
G02*
X0246568Y0448352I-000581J0000000D01*
G01*
X0245406Y0448352D01*
G75*
G02*
X0244825Y0448932I0000000J0000581D01*
G01*
X0244825Y0450291D01*
G75*
G02*
X0245406Y0450871I0000581J0000000D01*
G01*
X0246568Y0450871D01*
G75*
G02*
X0247148Y0450291I0000000J-000581D01*
G01*
G37*
G36*
G01*
X0243329Y0450291D02*
X0243329Y0448932D01*
G75*
G02*
X0242749Y0448352I-000581J0000000D01*
G01*
X0241587Y0448352D01*
G75*
G02*
X0241007Y0448932I0000000J0000581D01*
G01*
X0241007Y0450291D01*
G75*
G02*
X0241587Y0450871I0000581J0000000D01*
G01*
X0242749Y0450871D01*
G75*
G02*
X0243329Y0450291I0000000J-000581D01*
G01*
G37*
G36*
G01*
X0224394Y0403163D02*
X0223036Y0403163D01*
G75*
G02*
X0222455Y0403743I0000000J0000581D01*
G01*
X0222455Y0404905D01*
G75*
G02*
X0223036Y0405486I0000581J0000000D01*
G01*
X0224394Y0405486D01*
G75*
G02*
X0224975Y0404905I0000000J-000581D01*
G01*
X0224975Y0403743D01*
G75*
G02*
X0224394Y0403163I-000581J0000000D01*
G01*
G37*
G36*
G01*
X0224394Y0406982D02*
X0223036Y0406982D01*
G75*
G02*
X0222455Y0407562I0000000J0000581D01*
G01*
X0222455Y0408724D01*
G75*
G02*
X0223036Y0409304I0000581J0000000D01*
G01*
X0224394Y0409304D01*
G75*
G02*
X0224975Y0408724I0000000J-000581D01*
G01*
X0224975Y0407562D01*
G75*
G02*
X0224394Y0406982I-000581J0000000D01*
G01*
G37*
G36*
G01*
X0219296Y0409304D02*
X0220654Y0409304D01*
G75*
G02*
X0221235Y0408724I0000000J-000581D01*
G01*
X0221235Y0407562D01*
G75*
G02*
X0220654Y0406982I-000581J0000000D01*
G01*
X0219296Y0406982D01*
G75*
G02*
X0218715Y0407562I0000000J0000581D01*
G01*
X0218715Y0408724D01*
G75*
G02*
X0219296Y0409304I0000581J0000000D01*
G01*
G37*
G36*
G01*
X0219296Y0405486D02*
X0220654Y0405486D01*
G75*
G02*
X0221235Y0404905I0000000J-000581D01*
G01*
X0221235Y0403743D01*
G75*
G02*
X0220654Y0403163I-000581J0000000D01*
G01*
X0219296Y0403163D01*
G75*
G02*
X0218715Y0403743I0000000J0000581D01*
G01*
X0218715Y0404905D01*
G75*
G02*
X0219296Y0405486I0000581J0000000D01*
G01*
G37*
G36*
G01*
X0240329Y0405751D02*
X0240329Y0407110D01*
G75*
G02*
X0240910Y0407690I0000581J0000000D01*
G01*
X0242071Y0407690D01*
G75*
G02*
X0242652Y0407110I0000000J-000581D01*
G01*
X0242652Y0405751D01*
G75*
G02*
X0242071Y0405171I-000581J0000000D01*
G01*
X0240910Y0405171D01*
G75*
G02*
X0240329Y0405751I0000000J0000581D01*
G01*
G37*
G36*
G01*
X0244148Y0405751D02*
X0244148Y0407110D01*
G75*
G02*
X0244729Y0407690I0000581J0000000D01*
G01*
X0245890Y0407690D01*
G75*
G02*
X0246471Y0407110I0000000J-000581D01*
G01*
X0246471Y0405751D01*
G75*
G02*
X0245890Y0405171I-000581J0000000D01*
G01*
X0244729Y0405171D01*
G75*
G02*
X0244148Y0405751I0000000J0000581D01*
G01*
G37*
G36*
G01*
X0230133Y0452188D02*
X0230133Y0450830D01*
G75*
G02*
X0229552Y0450249I-000581J0000000D01*
G01*
X0228390Y0450249D01*
G75*
G02*
X0227810Y0450830I0000000J0000581D01*
G01*
X0227810Y0452188D01*
G75*
G02*
X0228390Y0452769I0000581J0000000D01*
G01*
X0229552Y0452769D01*
G75*
G02*
X0230133Y0452188I0000000J-000581D01*
G01*
G37*
G36*
G01*
X0226314Y0452188D02*
X0226314Y0450830D01*
G75*
G02*
X0225733Y0450249I-000581J0000000D01*
G01*
X0224571Y0450249D01*
G75*
G02*
X0223991Y0450830I0000000J0000581D01*
G01*
X0223991Y0452188D01*
G75*
G02*
X0224571Y0452769I0000581J0000000D01*
G01*
X0225733Y0452769D01*
G75*
G02*
X0226314Y0452188I0000000J-000581D01*
G01*
G37*
G36*
G01*
X0220654Y0377631D02*
X0219296Y0377631D01*
G75*
G02*
X0218715Y0378212I0000000J0000581D01*
G01*
X0218715Y0379373D01*
G75*
G02*
X0219296Y0379954I0000581J0000000D01*
G01*
X0220654Y0379954D01*
G75*
G02*
X0221235Y0379373I0000000J-000581D01*
G01*
X0221235Y0378212D01*
G75*
G02*
X0220654Y0377631I-000581J0000000D01*
G01*
G37*
G36*
G01*
X0220654Y0381450D02*
X0219296Y0381450D01*
G75*
G02*
X0218715Y0382031I0000000J0000581D01*
G01*
X0218715Y0383192D01*
G75*
G02*
X0219296Y0383773I0000581J0000000D01*
G01*
X0220654Y0383773D01*
G75*
G02*
X0221235Y0383192I0000000J-000581D01*
G01*
X0221235Y0382031D01*
G75*
G02*
X0220654Y0381450I-000581J0000000D01*
G01*
G37*
G36*
G01*
X0256471Y0401027D02*
X0256471Y0402385D01*
G75*
G02*
X0257052Y0402966I0000581J0000000D01*
G01*
X0258213Y0402966D01*
G75*
G02*
X0258794Y0402385I0000000J-000581D01*
G01*
X0258794Y0401027D01*
G75*
G02*
X0258213Y0400446I-000581J0000000D01*
G01*
X0257052Y0400446D01*
G75*
G02*
X0256471Y0401027I0000000J0000581D01*
G01*
G37*
G36*
G01*
X0260290Y0401027D02*
X0260290Y0402385D01*
G75*
G02*
X0260871Y0402966I0000581J0000000D01*
G01*
X0262032Y0402966D01*
G75*
G02*
X0262613Y0402385I0000000J-000581D01*
G01*
X0262613Y0401027D01*
G75*
G02*
X0262032Y0400446I-000581J0000000D01*
G01*
X0260871Y0400446D01*
G75*
G02*
X0260290Y0401027I0000000J0000581D01*
G01*
G37*
G36*
G01*
X0227377Y0366558D02*
X0227377Y0365200D01*
G75*
G02*
X0226796Y0364619I-000581J0000000D01*
G01*
X0225634Y0364619D01*
G75*
G02*
X0225054Y0365200I0000000J0000581D01*
G01*
X0225054Y0366558D01*
G75*
G02*
X0225634Y0367139I0000581J0000000D01*
G01*
X0226796Y0367139D01*
G75*
G02*
X0227377Y0366558I0000000J-000581D01*
G01*
G37*
G36*
G01*
X0223558Y0366558D02*
X0223558Y0365200D01*
G75*
G02*
X0222977Y0364619I-000581J0000000D01*
G01*
X0221816Y0364619D01*
G75*
G02*
X0221235Y0365200I0000000J0000581D01*
G01*
X0221235Y0366558D01*
G75*
G02*
X0221816Y0367139I0000581J0000000D01*
G01*
X0222977Y0367139D01*
G75*
G02*
X0223558Y0366558I0000000J-000581D01*
G01*
G37*
D634*
X0234345Y0458281D03*
X0234345Y0476234D03*
D637*
X0265743Y0461253D03*
X0265743Y0473261D03*
X0252554Y0461253D03*
X0252554Y0473261D03*
G36*
G01*
X0268292Y0445033D02*
X0266934Y0445033D01*
G75*
G02*
X0266353Y0445613I0000000J0000581D01*
G01*
X0266353Y0446775D01*
G75*
G02*
X0266934Y0447356I0000581J0000000D01*
G01*
X0268292Y0447356D01*
G75*
G02*
X0268873Y0446775I0000000J-000581D01*
G01*
X0268873Y0445613D01*
G75*
G02*
X0268292Y0445033I-000581J0000000D01*
G01*
G37*
G36*
G01*
X0268292Y0448852D02*
X0266934Y0448852D01*
G75*
G02*
X0266353Y0449432I0000000J0000581D01*
G01*
X0266353Y0450594D01*
G75*
G02*
X0266934Y0451174I0000581J0000000D01*
G01*
X0268292Y0451174D01*
G75*
G02*
X0268873Y0450594I0000000J-000581D01*
G01*
X0268873Y0449432D01*
G75*
G02*
X0268292Y0448852I-000581J0000000D01*
G01*
G37*
G36*
G01*
X0262613Y0406913D02*
X0262613Y0405554D01*
G75*
G02*
X0262032Y0404974I-000581J0000000D01*
G01*
X0260871Y0404974D01*
G75*
G02*
X0260290Y0405554I0000000J0000581D01*
G01*
X0260290Y0406913D01*
G75*
G02*
X0260871Y0407493I0000581J0000000D01*
G01*
X0262032Y0407493D01*
G75*
G02*
X0262613Y0406913I0000000J-000581D01*
G01*
G37*
G36*
G01*
X0258794Y0406913D02*
X0258794Y0405554D01*
G75*
G02*
X0258213Y0404974I-000581J0000000D01*
G01*
X0257052Y0404974D01*
G75*
G02*
X0256471Y0405554I0000000J0000581D01*
G01*
X0256471Y0406913D01*
G75*
G02*
X0257052Y0407493I0000581J0000000D01*
G01*
X0258213Y0407493D01*
G75*
G02*
X0258794Y0406913I0000000J-000581D01*
G01*
G37*
G36*
G01*
X0222032Y0443261D02*
X0220674Y0443261D01*
G75*
G02*
X0220093Y0443842I0000000J0000581D01*
G01*
X0220093Y0445003D01*
G75*
G02*
X0220674Y0445584I0000581J0000000D01*
G01*
X0222032Y0445584D01*
G75*
G02*
X0222613Y0445003I0000000J-000581D01*
G01*
X0222613Y0443842D01*
G75*
G02*
X0222032Y0443261I-000581J0000000D01*
G01*
G37*
G36*
G01*
X0222032Y0447080D02*
X0220674Y0447080D01*
G75*
G02*
X0220093Y0447661I0000000J0000581D01*
G01*
X0220093Y0448822D01*
G75*
G02*
X0220674Y0449403I0000581J0000000D01*
G01*
X0222032Y0449403D01*
G75*
G02*
X0222613Y0448822I0000000J-000581D01*
G01*
X0222613Y0447661D01*
G75*
G02*
X0222032Y0447080I-000581J0000000D01*
G01*
G37*
G36*
G01*
X0255507Y0409432D02*
X0255507Y0410791D01*
G75*
G02*
X0256087Y0411371I0000581J0000000D01*
G01*
X0257249Y0411371D01*
G75*
G02*
X0257829Y0410791I0000000J-000581D01*
G01*
X0257829Y0409432D01*
G75*
G02*
X0257249Y0408852I-000581J0000000D01*
G01*
X0256087Y0408852D01*
G75*
G02*
X0255507Y0409432I0000000J0000581D01*
G01*
G37*
G36*
G01*
X0259325Y0409432D02*
X0259325Y0410791D01*
G75*
G02*
X0259906Y0411371I0000581J0000000D01*
G01*
X0261068Y0411371D01*
G75*
G02*
X0261648Y0410791I0000000J-000581D01*
G01*
X0261648Y0409432D01*
G75*
G02*
X0261068Y0408852I-000581J0000000D01*
G01*
X0259906Y0408852D01*
G75*
G02*
X0259325Y0409432I0000000J0000581D01*
G01*
G37*
G36*
G01*
X0255103Y0355328D02*
X0253745Y0355328D01*
G75*
G02*
X0253164Y0355909I0000000J0000581D01*
G01*
X0253164Y0357070D01*
G75*
G02*
X0253745Y0357651I0000581J0000000D01*
G01*
X0255103Y0357651D01*
G75*
G02*
X0255684Y0357070I0000000J-000581D01*
G01*
X0255684Y0355909D01*
G75*
G02*
X0255103Y0355328I-000581J0000000D01*
G01*
G37*
G36*
G01*
X0255103Y0359147D02*
X0253745Y0359147D01*
G75*
G02*
X0253164Y0359728I0000000J0000581D01*
G01*
X0253164Y0360889D01*
G75*
G02*
X0253745Y0361470I0000581J0000000D01*
G01*
X0255103Y0361470D01*
G75*
G02*
X0255684Y0360889I0000000J-000581D01*
G01*
X0255684Y0359728D01*
G75*
G02*
X0255103Y0359147I-000581J0000000D01*
G01*
G37*
G36*
G01*
X0265069Y0394434D02*
X0267086Y0394434D01*
G75*
G02*
X0267947Y0393573I0000000J-000861D01*
G01*
X0267947Y0391851D01*
G75*
G02*
X0267086Y0390989I-000861J0000000D01*
G01*
X0265069Y0390989D01*
G75*
G02*
X0264207Y0391851I0000000J0000861D01*
G01*
X0264207Y0393573D01*
G75*
G02*
X0265069Y0394434I0000861J0000000D01*
G01*
G37*
G36*
G01*
X0265069Y0388234D02*
X0267086Y0388234D01*
G75*
G02*
X0267947Y0387372I0000000J-000861D01*
G01*
X0267947Y0385650D01*
G75*
G02*
X0267086Y0384789I-000861J0000000D01*
G01*
X0265069Y0384789D01*
G75*
G02*
X0264207Y0385650I0000000J0000861D01*
G01*
X0264207Y0387372D01*
G75*
G02*
X0265069Y0388234I0000861J0000000D01*
G01*
G37*
G36*
G01*
X0265398Y0402682D02*
X0266757Y0402682D01*
G75*
G02*
X0267337Y0402102I0000000J-000581D01*
G01*
X0267337Y0400940D01*
G75*
G02*
X0266757Y0400360I-000581J0000000D01*
G01*
X0265398Y0400360D01*
G75*
G02*
X0264818Y0400940I0000000J0000581D01*
G01*
X0264818Y0402102D01*
G75*
G02*
X0265398Y0402682I0000581J0000000D01*
G01*
G37*
G36*
G01*
X0265398Y0398863D02*
X0266757Y0398863D01*
G75*
G02*
X0267337Y0398283I0000000J-000581D01*
G01*
X0267337Y0397121D01*
G75*
G02*
X0266757Y0396541I-000581J0000000D01*
G01*
X0265398Y0396541D01*
G75*
G02*
X0264818Y0397121I0000000J0000581D01*
G01*
X0264818Y0398283D01*
G75*
G02*
X0265398Y0398863I0000581J0000000D01*
G01*
G37*
G36*
G01*
X0237398Y0415182D02*
X0238757Y0415182D01*
G75*
G02*
X0239337Y0414602I0000000J-000581D01*
G01*
X0239337Y0413440D01*
G75*
G02*
X0238757Y0412860I-000581J0000000D01*
G01*
X0237398Y0412860D01*
G75*
G02*
X0236818Y0413440I0000000J0000581D01*
G01*
X0236818Y0414602D01*
G75*
G02*
X0237398Y0415182I0000581J0000000D01*
G01*
G37*
G36*
G01*
X0237398Y0411363D02*
X0238757Y0411363D01*
G75*
G02*
X0239337Y0410783I0000000J-000581D01*
G01*
X0239337Y0409621D01*
G75*
G02*
X0238757Y0409041I-000581J0000000D01*
G01*
X0237398Y0409041D01*
G75*
G02*
X0236818Y0409621I0000000J0000581D01*
G01*
X0236818Y0410783D01*
G75*
G02*
X0237398Y0411363I0000581J0000000D01*
G01*
G37*
G36*
G01*
X0233007Y0420932D02*
X0233007Y0422291D01*
G75*
G02*
X0233587Y0422871I0000581J0000000D01*
G01*
X0234749Y0422871D01*
G75*
G02*
X0235329Y0422291I0000000J-000581D01*
G01*
X0235329Y0420932D01*
G75*
G02*
X0234749Y0420352I-000581J0000000D01*
G01*
X0233587Y0420352D01*
G75*
G02*
X0233007Y0420932I0000000J0000581D01*
G01*
G37*
G36*
G01*
X0236825Y0420932D02*
X0236825Y0422291D01*
G75*
G02*
X0237406Y0422871I0000581J0000000D01*
G01*
X0238568Y0422871D01*
G75*
G02*
X0239148Y0422291I0000000J-000581D01*
G01*
X0239148Y0420932D01*
G75*
G02*
X0238568Y0420352I-000581J0000000D01*
G01*
X0237406Y0420352D01*
G75*
G02*
X0236825Y0420932I0000000J0000581D01*
G01*
G37*
G36*
G01*
X0233007Y0417169D02*
X0233007Y0418527D01*
G75*
G02*
X0233587Y0419108I0000581J0000000D01*
G01*
X0234749Y0419108D01*
G75*
G02*
X0235329Y0418527I0000000J-000581D01*
G01*
X0235329Y0417169D01*
G75*
G02*
X0234749Y0416588I-000581J0000000D01*
G01*
X0233587Y0416588D01*
G75*
G02*
X0233007Y0417169I0000000J0000581D01*
G01*
G37*
G36*
G01*
X0236825Y0417169D02*
X0236825Y0418527D01*
G75*
G02*
X0237406Y0419108I0000581J0000000D01*
G01*
X0238568Y0419108D01*
G75*
G02*
X0239148Y0418527I0000000J-000581D01*
G01*
X0239148Y0417169D01*
G75*
G02*
X0238568Y0416588I-000581J0000000D01*
G01*
X0237406Y0416588D01*
G75*
G02*
X0236825Y0417169I0000000J0000581D01*
G01*
G37*
G36*
G01*
X0233398Y0415182D02*
X0234757Y0415182D01*
G75*
G02*
X0235337Y0414602I0000000J-000581D01*
G01*
X0235337Y0413440D01*
G75*
G02*
X0234757Y0412860I-000581J0000000D01*
G01*
X0233398Y0412860D01*
G75*
G02*
X0232818Y0413440I0000000J0000581D01*
G01*
X0232818Y0414602D01*
G75*
G02*
X0233398Y0415182I0000581J0000000D01*
G01*
G37*
G36*
G01*
X0233398Y0411363D02*
X0234757Y0411363D01*
G75*
G02*
X0235337Y0410783I0000000J-000581D01*
G01*
X0235337Y0409621D01*
G75*
G02*
X0234757Y0409041I-000581J0000000D01*
G01*
X0233398Y0409041D01*
G75*
G02*
X0232818Y0409621I0000000J0000581D01*
G01*
X0232818Y0410783D01*
G75*
G02*
X0233398Y0411363I0000581J0000000D01*
G01*
G37*
D636*
X0228833Y0431273D03*
X0225093Y0431273D03*
X0221353Y0431273D03*
X0221353Y0420958D03*
X0228833Y0420958D03*
G36*
G01*
X0233007Y0424932D02*
X0233007Y0426291D01*
G75*
G02*
X0233587Y0426871I0000581J0000000D01*
G01*
X0234749Y0426871D01*
G75*
G02*
X0235329Y0426291I0000000J-000581D01*
G01*
X0235329Y0424932D01*
G75*
G02*
X0234749Y0424352I-000581J0000000D01*
G01*
X0233587Y0424352D01*
G75*
G02*
X0233007Y0424932I0000000J0000581D01*
G01*
G37*
G36*
G01*
X0236825Y0424932D02*
X0236825Y0426291D01*
G75*
G02*
X0237406Y0426871I0000581J0000000D01*
G01*
X0238568Y0426871D01*
G75*
G02*
X0239148Y0426291I0000000J-000581D01*
G01*
X0239148Y0424932D01*
G75*
G02*
X0238568Y0424352I-000581J0000000D01*
G01*
X0237406Y0424352D01*
G75*
G02*
X0236825Y0424932I0000000J0000581D01*
G01*
G37*
G36*
G01*
X0225959Y0436066D02*
X0225959Y0437424D01*
G75*
G02*
X0226540Y0438005I0000581J0000000D01*
G01*
X0227701Y0438005D01*
G75*
G02*
X0228282Y0437424I0000000J-000581D01*
G01*
X0228282Y0436066D01*
G75*
G02*
X0227701Y0435486I-000581J0000000D01*
G01*
X0226540Y0435486D01*
G75*
G02*
X0225959Y0436066I0000000J0000581D01*
G01*
G37*
G36*
G01*
X0229778Y0436066D02*
X0229778Y0437424D01*
G75*
G02*
X0230359Y0438005I0000581J0000000D01*
G01*
X0231520Y0438005D01*
G75*
G02*
X0232101Y0437424I0000000J-000581D01*
G01*
X0232101Y0436066D01*
G75*
G02*
X0231520Y0435486I-000581J0000000D01*
G01*
X0230359Y0435486D01*
G75*
G02*
X0229778Y0436066I0000000J0000581D01*
G01*
G37*
G36*
G01*
X0248507Y0449432D02*
X0248507Y0450791D01*
G75*
G02*
X0249087Y0451371I0000581J0000000D01*
G01*
X0250249Y0451371D01*
G75*
G02*
X0250829Y0450791I0000000J-000581D01*
G01*
X0250829Y0449432D01*
G75*
G02*
X0250249Y0448852I-000581J0000000D01*
G01*
X0249087Y0448852D01*
G75*
G02*
X0248507Y0449432I0000000J0000581D01*
G01*
G37*
G36*
G01*
X0252325Y0449432D02*
X0252325Y0450791D01*
G75*
G02*
X0252906Y0451371I0000581J0000000D01*
G01*
X0254068Y0451371D01*
G75*
G02*
X0254648Y0450791I0000000J-000581D01*
G01*
X0254648Y0449432D01*
G75*
G02*
X0254068Y0448852I-000581J0000000D01*
G01*
X0252906Y0448852D01*
G75*
G02*
X0252325Y0449432I0000000J0000581D01*
G01*
G37*
G36*
G01*
X0234900Y0447620D02*
X0234900Y0445603D01*
G75*
G02*
X0234039Y0444741I-000861J0000000D01*
G01*
X0232317Y0444741D01*
G75*
G02*
X0231455Y0445603I0000000J0000861D01*
G01*
X0231455Y0447620D01*
G75*
G02*
X0232317Y0448482I0000861J0000000D01*
G01*
X0234039Y0448482D01*
G75*
G02*
X0234900Y0447620I0000000J-000861D01*
G01*
G37*
G36*
G01*
X0228699Y0447620D02*
X0228699Y0445603D01*
G75*
G02*
X0227838Y0444741I-000861J0000000D01*
G01*
X0226116Y0444741D01*
G75*
G02*
X0225255Y0445603I0000000J0000861D01*
G01*
X0225255Y0447620D01*
G75*
G02*
X0226116Y0448482I0000861J0000000D01*
G01*
X0227838Y0448482D01*
G75*
G02*
X0228699Y0447620I0000000J-000861D01*
G01*
G37*
G36*
G01*
X0260024Y0445033D02*
X0258666Y0445033D01*
G75*
G02*
X0258085Y0445613I0000000J0000581D01*
G01*
X0258085Y0446775D01*
G75*
G02*
X0258666Y0447356I0000581J0000000D01*
G01*
X0260024Y0447356D01*
G75*
G02*
X0260605Y0446775I0000000J-000581D01*
G01*
X0260605Y0445613D01*
G75*
G02*
X0260024Y0445033I-000581J0000000D01*
G01*
G37*
G36*
G01*
X0260024Y0448852D02*
X0258666Y0448852D01*
G75*
G02*
X0258085Y0449432I0000000J0000581D01*
G01*
X0258085Y0450594D01*
G75*
G02*
X0258666Y0451174I0000581J0000000D01*
G01*
X0260024Y0451174D01*
G75*
G02*
X0260605Y0450594I0000000J-000581D01*
G01*
X0260605Y0449432D01*
G75*
G02*
X0260024Y0448852I-000581J0000000D01*
G01*
G37*
G36*
G01*
X0262800Y0451174D02*
X0264158Y0451174D01*
G75*
G02*
X0264739Y0450594I0000000J-000581D01*
G01*
X0264739Y0449432D01*
G75*
G02*
X0264158Y0448852I-000581J0000000D01*
G01*
X0262800Y0448852D01*
G75*
G02*
X0262219Y0449432I0000000J0000581D01*
G01*
X0262219Y0450594D01*
G75*
G02*
X0262800Y0451174I0000581J0000000D01*
G01*
G37*
G36*
G01*
X0262800Y0447356D02*
X0264158Y0447356D01*
G75*
G02*
X0264739Y0446775I0000000J-000581D01*
G01*
X0264739Y0445613D01*
G75*
G02*
X0264158Y0445033I-000581J0000000D01*
G01*
X0262800Y0445033D01*
G75*
G02*
X0262219Y0445613I0000000J0000581D01*
G01*
X0262219Y0446775D01*
G75*
G02*
X0262800Y0447356I0000581J0000000D01*
G01*
G37*
G36*
G01*
X0267086Y0372789D02*
X0265069Y0372789D01*
G75*
G02*
X0264207Y0373650I0000000J0000861D01*
G01*
X0264207Y0375372D01*
G75*
G02*
X0265069Y0376234I0000861J0000000D01*
G01*
X0267086Y0376234D01*
G75*
G02*
X0267947Y0375372I0000000J-000861D01*
G01*
X0267947Y0373650D01*
G75*
G02*
X0267086Y0372789I-000861J0000000D01*
G01*
G37*
G36*
G01*
X0267086Y0378989D02*
X0265069Y0378989D01*
G75*
G02*
X0264207Y0379851I0000000J0000861D01*
G01*
X0264207Y0381573D01*
G75*
G02*
X0265069Y0382434I0000861J0000000D01*
G01*
X0267086Y0382434D01*
G75*
G02*
X0267947Y0381573I0000000J-000861D01*
G01*
X0267947Y0379851D01*
G75*
G02*
X0267086Y0378989I-000861J0000000D01*
G01*
G37*
G36*
G01*
X0271638Y0369560D02*
X0270280Y0369560D01*
G75*
G02*
X0269699Y0370141I0000000J0000581D01*
G01*
X0269699Y0371302D01*
G75*
G02*
X0270280Y0371883I0000581J0000000D01*
G01*
X0271638Y0371883D01*
G75*
G02*
X0272219Y0371302I0000000J-000581D01*
G01*
X0272219Y0370141D01*
G75*
G02*
X0271638Y0369560I-000581J0000000D01*
G01*
G37*
G36*
G01*
X0271638Y0373379D02*
X0270280Y0373379D01*
G75*
G02*
X0269699Y0373960I0000000J0000581D01*
G01*
X0269699Y0375121D01*
G75*
G02*
X0270280Y0375702I0000581J0000000D01*
G01*
X0271638Y0375702D01*
G75*
G02*
X0272219Y0375121I0000000J-000581D01*
G01*
X0272219Y0373960D01*
G75*
G02*
X0271638Y0373379I-000581J0000000D01*
G01*
G37*
G36*
G01*
X0229532Y0416785D02*
X0230890Y0416785D01*
G75*
G02*
X0231471Y0416204I0000000J-000581D01*
G01*
X0231471Y0415043D01*
G75*
G02*
X0230890Y0414462I-000581J0000000D01*
G01*
X0229532Y0414462D01*
G75*
G02*
X0228951Y0415043I0000000J0000581D01*
G01*
X0228951Y0416204D01*
G75*
G02*
X0229532Y0416785I0000581J0000000D01*
G01*
G37*
G36*
G01*
X0229532Y0412966D02*
X0230890Y0412966D01*
G75*
G02*
X0231471Y0412385I0000000J-000581D01*
G01*
X0231471Y0411224D01*
G75*
G02*
X0230890Y0410643I-000581J0000000D01*
G01*
X0229532Y0410643D01*
G75*
G02*
X0228951Y0411224I0000000J0000581D01*
G01*
X0228951Y0412385D01*
G75*
G02*
X0229532Y0412966I0000581J0000000D01*
G01*
G37*
G36*
G01*
X0253144Y0403379D02*
X0254129Y0403379D01*
G75*
G02*
X0254621Y0402887I0000000J-000492D01*
G01*
X0254621Y0397966D01*
G75*
G02*
X0254129Y0397474I-000492J0000000D01*
G01*
X0253144Y0397474D01*
G75*
G02*
X0252652Y0397966I0000000J0000492D01*
G01*
X0252652Y0402887D01*
G75*
G02*
X0253144Y0403379I0000492J0000000D01*
G01*
G37*
G36*
G01*
X0249995Y0403379D02*
X0250979Y0403379D01*
G75*
G02*
X0251471Y0402887I0000000J-000492D01*
G01*
X0251471Y0397966D01*
G75*
G02*
X0250979Y0397474I-000492J0000000D01*
G01*
X0249995Y0397474D01*
G75*
G02*
X0249503Y0397966I0000000J0000492D01*
G01*
X0249503Y0402887D01*
G75*
G02*
X0249995Y0403379I0000492J0000000D01*
G01*
G37*
G36*
G01*
X0246845Y0403379D02*
X0247829Y0403379D01*
G75*
G02*
X0248321Y0402887I0000000J-000492D01*
G01*
X0248321Y0397966D01*
G75*
G02*
X0247829Y0397474I-000492J0000000D01*
G01*
X0246845Y0397474D01*
G75*
G02*
X0246353Y0397966I0000000J0000492D01*
G01*
X0246353Y0402887D01*
G75*
G02*
X0246845Y0403379I0000492J0000000D01*
G01*
G37*
G36*
G01*
X0243696Y0403379D02*
X0244680Y0403379D01*
G75*
G02*
X0245172Y0402887I0000000J-000492D01*
G01*
X0245172Y0397966D01*
G75*
G02*
X0244680Y0397474I-000492J0000000D01*
G01*
X0243696Y0397474D01*
G75*
G02*
X0243203Y0397966I0000000J0000492D01*
G01*
X0243203Y0402887D01*
G75*
G02*
X0243696Y0403379I0000492J0000000D01*
G01*
G37*
G36*
G01*
X0240546Y0403379D02*
X0241530Y0403379D01*
G75*
G02*
X0242022Y0402887I0000000J-000492D01*
G01*
X0242022Y0397966D01*
G75*
G02*
X0241530Y0397474I-000492J0000000D01*
G01*
X0240546Y0397474D01*
G75*
G02*
X0240054Y0397966I0000000J0000492D01*
G01*
X0240054Y0402887D01*
G75*
G02*
X0240546Y0403379I0000492J0000000D01*
G01*
G37*
G36*
G01*
X0237396Y0403379D02*
X0238381Y0403379D01*
G75*
G02*
X0238873Y0402887I0000000J-000492D01*
G01*
X0238873Y0397966D01*
G75*
G02*
X0238381Y0397474I-000492J0000000D01*
G01*
X0237396Y0397474D01*
G75*
G02*
X0236904Y0397966I0000000J0000492D01*
G01*
X0236904Y0402887D01*
G75*
G02*
X0237396Y0403379I0000492J0000000D01*
G01*
G37*
G36*
G01*
X0234247Y0403379D02*
X0235231Y0403379D01*
G75*
G02*
X0235723Y0402887I0000000J-000492D01*
G01*
X0235723Y0397966D01*
G75*
G02*
X0235231Y0397474I-000492J0000000D01*
G01*
X0234247Y0397474D01*
G75*
G02*
X0233755Y0397966I0000000J0000492D01*
G01*
X0233755Y0402887D01*
G75*
G02*
X0234247Y0403379I0000492J0000000D01*
G01*
G37*
G36*
G01*
X0231097Y0403379D02*
X0232081Y0403379D01*
G75*
G02*
X0232573Y0402887I0000000J-000492D01*
G01*
X0232573Y0397966D01*
G75*
G02*
X0232081Y0397474I-000492J0000000D01*
G01*
X0231097Y0397474D01*
G75*
G02*
X0230605Y0397966I0000000J0000492D01*
G01*
X0230605Y0402887D01*
G75*
G02*
X0231097Y0403379I0000492J0000000D01*
G01*
G37*
G36*
G01*
X0223715Y0395997D02*
X0228636Y0395997D01*
G75*
G02*
X0229129Y0395505I0000000J-000492D01*
G01*
X0229129Y0394521D01*
G75*
G02*
X0228636Y0394029I-000492J0000000D01*
G01*
X0223715Y0394029D01*
G75*
G02*
X0223223Y0394521I0000000J0000492D01*
G01*
X0223223Y0395505D01*
G75*
G02*
X0223715Y0395997I0000492J0000000D01*
G01*
G37*
G36*
G01*
X0223715Y0392848D02*
X0228636Y0392848D01*
G75*
G02*
X0229129Y0392356I0000000J-000492D01*
G01*
X0229129Y0391371D01*
G75*
G02*
X0228636Y0390879I-000492J0000000D01*
G01*
X0223715Y0390879D01*
G75*
G02*
X0223223Y0391371I0000000J0000492D01*
G01*
X0223223Y0392356D01*
G75*
G02*
X0223715Y0392848I0000492J0000000D01*
G01*
G37*
G36*
G01*
X0223715Y0389698D02*
X0228636Y0389698D01*
G75*
G02*
X0229129Y0389206I0000000J-000492D01*
G01*
X0229129Y0388222D01*
G75*
G02*
X0228636Y0387730I-000492J0000000D01*
G01*
X0223715Y0387730D01*
G75*
G02*
X0223223Y0388222I0000000J0000492D01*
G01*
X0223223Y0389206D01*
G75*
G02*
X0223715Y0389698I0000492J0000000D01*
G01*
G37*
G36*
G01*
X0223715Y0386548D02*
X0228636Y0386548D01*
G75*
G02*
X0229129Y0386056I0000000J-000492D01*
G01*
X0229129Y0385072D01*
G75*
G02*
X0228636Y0384580I-000492J0000000D01*
G01*
X0223715Y0384580D01*
G75*
G02*
X0223223Y0385072I0000000J0000492D01*
G01*
X0223223Y0386056D01*
G75*
G02*
X0223715Y0386548I0000492J0000000D01*
G01*
G37*
G36*
G01*
X0223715Y0383399D02*
X0228636Y0383399D01*
G75*
G02*
X0229129Y0382907I0000000J-000492D01*
G01*
X0229129Y0381923D01*
G75*
G02*
X0228636Y0381430I-000492J0000000D01*
G01*
X0223715Y0381430D01*
G75*
G02*
X0223223Y0381923I0000000J0000492D01*
G01*
X0223223Y0382907D01*
G75*
G02*
X0223715Y0383399I0000492J0000000D01*
G01*
G37*
G36*
G01*
X0223715Y0380249D02*
X0228636Y0380249D01*
G75*
G02*
X0229129Y0379757I0000000J-000492D01*
G01*
X0229129Y0378773D01*
G75*
G02*
X0228636Y0378281I-000492J0000000D01*
G01*
X0223715Y0378281D01*
G75*
G02*
X0223223Y0378773I0000000J0000492D01*
G01*
X0223223Y0379757D01*
G75*
G02*
X0223715Y0380249I0000492J0000000D01*
G01*
G37*
G36*
G01*
X0223715Y0377100D02*
X0228636Y0377100D01*
G75*
G02*
X0229129Y0376608I0000000J-000492D01*
G01*
X0229129Y0375623D01*
G75*
G02*
X0228636Y0375131I-000492J0000000D01*
G01*
X0223715Y0375131D01*
G75*
G02*
X0223223Y0375623I0000000J0000492D01*
G01*
X0223223Y0376608D01*
G75*
G02*
X0223715Y0377100I0000492J0000000D01*
G01*
G37*
G36*
G01*
X0223715Y0373950D02*
X0228636Y0373950D01*
G75*
G02*
X0229129Y0373458I0000000J-000492D01*
G01*
X0229129Y0372474D01*
G75*
G02*
X0228636Y0371982I-000492J0000000D01*
G01*
X0223715Y0371982D01*
G75*
G02*
X0223223Y0372474I0000000J0000492D01*
G01*
X0223223Y0373458D01*
G75*
G02*
X0223715Y0373950I0000492J0000000D01*
G01*
G37*
G36*
G01*
X0231097Y0370505D02*
X0232081Y0370505D01*
G75*
G02*
X0232573Y0370013I0000000J-000492D01*
G01*
X0232573Y0365092D01*
G75*
G02*
X0232081Y0364600I-000492J0000000D01*
G01*
X0231097Y0364600D01*
G75*
G02*
X0230605Y0365092I0000000J0000492D01*
G01*
X0230605Y0370013D01*
G75*
G02*
X0231097Y0370505I0000492J0000000D01*
G01*
G37*
G36*
G01*
X0234247Y0370505D02*
X0235231Y0370505D01*
G75*
G02*
X0235723Y0370013I0000000J-000492D01*
G01*
X0235723Y0365092D01*
G75*
G02*
X0235231Y0364600I-000492J0000000D01*
G01*
X0234247Y0364600D01*
G75*
G02*
X0233755Y0365092I0000000J0000492D01*
G01*
X0233755Y0370013D01*
G75*
G02*
X0234247Y0370505I0000492J0000000D01*
G01*
G37*
G36*
G01*
X0237396Y0370505D02*
X0238381Y0370505D01*
G75*
G02*
X0238873Y0370013I0000000J-000492D01*
G01*
X0238873Y0365092D01*
G75*
G02*
X0238381Y0364600I-000492J0000000D01*
G01*
X0237396Y0364600D01*
G75*
G02*
X0236904Y0365092I0000000J0000492D01*
G01*
X0236904Y0370013D01*
G75*
G02*
X0237396Y0370505I0000492J0000000D01*
G01*
G37*
G36*
G01*
X0240546Y0370505D02*
X0241530Y0370505D01*
G75*
G02*
X0242022Y0370013I0000000J-000492D01*
G01*
X0242022Y0365092D01*
G75*
G02*
X0241530Y0364600I-000492J0000000D01*
G01*
X0240546Y0364600D01*
G75*
G02*
X0240054Y0365092I0000000J0000492D01*
G01*
X0240054Y0370013D01*
G75*
G02*
X0240546Y0370505I0000492J0000000D01*
G01*
G37*
G36*
G01*
X0243696Y0370505D02*
X0244680Y0370505D01*
G75*
G02*
X0245172Y0370013I0000000J-000492D01*
G01*
X0245172Y0365092D01*
G75*
G02*
X0244680Y0364600I-000492J0000000D01*
G01*
X0243696Y0364600D01*
G75*
G02*
X0243203Y0365092I0000000J0000492D01*
G01*
X0243203Y0370013D01*
G75*
G02*
X0243696Y0370505I0000492J0000000D01*
G01*
G37*
G36*
G01*
X0246845Y0370505D02*
X0247829Y0370505D01*
G75*
G02*
X0248321Y0370013I0000000J-000492D01*
G01*
X0248321Y0365092D01*
G75*
G02*
X0247829Y0364600I-000492J0000000D01*
G01*
X0246845Y0364600D01*
G75*
G02*
X0246353Y0365092I0000000J0000492D01*
G01*
X0246353Y0370013D01*
G75*
G02*
X0246845Y0370505I0000492J0000000D01*
G01*
G37*
G36*
G01*
X0249995Y0370505D02*
X0250979Y0370505D01*
G75*
G02*
X0251471Y0370013I0000000J-000492D01*
G01*
X0251471Y0365092D01*
G75*
G02*
X0250979Y0364600I-000492J0000000D01*
G01*
X0249995Y0364600D01*
G75*
G02*
X0249503Y0365092I0000000J0000492D01*
G01*
X0249503Y0370013D01*
G75*
G02*
X0249995Y0370505I0000492J0000000D01*
G01*
G37*
G36*
G01*
X0253144Y0370505D02*
X0254129Y0370505D01*
G75*
G02*
X0254621Y0370013I0000000J-000492D01*
G01*
X0254621Y0365092D01*
G75*
G02*
X0254129Y0364600I-000492J0000000D01*
G01*
X0253144Y0364600D01*
G75*
G02*
X0252652Y0365092I0000000J0000492D01*
G01*
X0252652Y0370013D01*
G75*
G02*
X0253144Y0370505I0000492J0000000D01*
G01*
G37*
G36*
G01*
X0256589Y0373950D02*
X0261510Y0373950D01*
G75*
G02*
X0262003Y0373458I0000000J-000492D01*
G01*
X0262003Y0372474D01*
G75*
G02*
X0261510Y0371982I-000492J0000000D01*
G01*
X0256589Y0371982D01*
G75*
G02*
X0256097Y0372474I0000000J0000492D01*
G01*
X0256097Y0373458D01*
G75*
G02*
X0256589Y0373950I0000492J0000000D01*
G01*
G37*
G36*
G01*
X0256589Y0377100D02*
X0261510Y0377100D01*
G75*
G02*
X0262003Y0376608I0000000J-000492D01*
G01*
X0262003Y0375623D01*
G75*
G02*
X0261510Y0375131I-000492J0000000D01*
G01*
X0256589Y0375131D01*
G75*
G02*
X0256097Y0375623I0000000J0000492D01*
G01*
X0256097Y0376608D01*
G75*
G02*
X0256589Y0377100I0000492J0000000D01*
G01*
G37*
G36*
G01*
X0256589Y0380249D02*
X0261510Y0380249D01*
G75*
G02*
X0262003Y0379757I0000000J-000492D01*
G01*
X0262003Y0378773D01*
G75*
G02*
X0261510Y0378281I-000492J0000000D01*
G01*
X0256589Y0378281D01*
G75*
G02*
X0256097Y0378773I0000000J0000492D01*
G01*
X0256097Y0379757D01*
G75*
G02*
X0256589Y0380249I0000492J0000000D01*
G01*
G37*
G36*
G01*
X0256589Y0383399D02*
X0261510Y0383399D01*
G75*
G02*
X0262003Y0382907I0000000J-000492D01*
G01*
X0262003Y0381923D01*
G75*
G02*
X0261510Y0381430I-000492J0000000D01*
G01*
X0256589Y0381430D01*
G75*
G02*
X0256097Y0381923I0000000J0000492D01*
G01*
X0256097Y0382907D01*
G75*
G02*
X0256589Y0383399I0000492J0000000D01*
G01*
G37*
G36*
G01*
X0256589Y0386548D02*
X0261510Y0386548D01*
G75*
G02*
X0262003Y0386056I0000000J-000492D01*
G01*
X0262003Y0385072D01*
G75*
G02*
X0261510Y0384580I-000492J0000000D01*
G01*
X0256589Y0384580D01*
G75*
G02*
X0256097Y0385072I0000000J0000492D01*
G01*
X0256097Y0386056D01*
G75*
G02*
X0256589Y0386548I0000492J0000000D01*
G01*
G37*
G36*
G01*
X0256589Y0389698D02*
X0261510Y0389698D01*
G75*
G02*
X0262003Y0389206I0000000J-000492D01*
G01*
X0262003Y0388222D01*
G75*
G02*
X0261510Y0387730I-000492J0000000D01*
G01*
X0256589Y0387730D01*
G75*
G02*
X0256097Y0388222I0000000J0000492D01*
G01*
X0256097Y0389206D01*
G75*
G02*
X0256589Y0389698I0000492J0000000D01*
G01*
G37*
G36*
G01*
X0256589Y0392848D02*
X0261510Y0392848D01*
G75*
G02*
X0262003Y0392356I0000000J-000492D01*
G01*
X0262003Y0391371D01*
G75*
G02*
X0261510Y0390879I-000492J0000000D01*
G01*
X0256589Y0390879D01*
G75*
G02*
X0256097Y0391371I0000000J0000492D01*
G01*
X0256097Y0392356D01*
G75*
G02*
X0256589Y0392848I0000492J0000000D01*
G01*
G37*
G36*
G01*
X0256589Y0395997D02*
X0261510Y0395997D01*
G75*
G02*
X0262003Y0395505I0000000J-000492D01*
G01*
X0262003Y0394521D01*
G75*
G02*
X0261510Y0394029I-000492J0000000D01*
G01*
X0256589Y0394029D01*
G75*
G02*
X0256097Y0394521I0000000J0000492D01*
G01*
X0256097Y0395505D01*
G75*
G02*
X0256589Y0395997I0000492J0000000D01*
G01*
G37*
G36*
G01*
X0228134Y0403163D02*
X0226776Y0403163D01*
G75*
G02*
X0226196Y0403743I0000000J0000581D01*
G01*
X0226196Y0404905D01*
G75*
G02*
X0226776Y0405486I0000581J0000000D01*
G01*
X0228134Y0405486D01*
G75*
G02*
X0228715Y0404905I0000000J-000581D01*
G01*
X0228715Y0403743D01*
G75*
G02*
X0228134Y0403163I-000581J0000000D01*
G01*
G37*
G36*
G01*
X0228134Y0406982D02*
X0226776Y0406982D01*
G75*
G02*
X0226196Y0407562I0000000J0000581D01*
G01*
X0226196Y0408724D01*
G75*
G02*
X0226776Y0409304I0000581J0000000D01*
G01*
X0228134Y0409304D01*
G75*
G02*
X0228715Y0408724I0000000J-000581D01*
G01*
X0228715Y0407562D01*
G75*
G02*
X0228134Y0406982I-000581J0000000D01*
G01*
G37*
G36*
G01*
X0225595Y0416785D02*
X0226953Y0416785D01*
G75*
G02*
X0227534Y0416204I0000000J-000581D01*
G01*
X0227534Y0415043D01*
G75*
G02*
X0226953Y0414462I-000581J0000000D01*
G01*
X0225595Y0414462D01*
G75*
G02*
X0225014Y0415043I0000000J0000581D01*
G01*
X0225014Y0416204D01*
G75*
G02*
X0225595Y0416785I0000581J0000000D01*
G01*
G37*
G36*
G01*
X0225595Y0412966D02*
X0226953Y0412966D01*
G75*
G02*
X0227534Y0412385I0000000J-000581D01*
G01*
X0227534Y0411224D01*
G75*
G02*
X0226953Y0410643I-000581J0000000D01*
G01*
X0225595Y0410643D01*
G75*
G02*
X0225014Y0411224I0000000J0000581D01*
G01*
X0225014Y0412385D01*
G75*
G02*
X0225595Y0412966I0000581J0000000D01*
G01*
G37*
G36*
G01*
X0250792Y0411273D02*
X0252150Y0411273D01*
G75*
G02*
X0252731Y0410692I0000000J-000581D01*
G01*
X0252731Y0409531D01*
G75*
G02*
X0252150Y0408950I-000581J0000000D01*
G01*
X0250792Y0408950D01*
G75*
G02*
X0250211Y0409531I0000000J0000581D01*
G01*
X0250211Y0410692D01*
G75*
G02*
X0250792Y0411273I0000581J0000000D01*
G01*
G37*
G36*
G01*
X0250792Y0407454D02*
X0252150Y0407454D01*
G75*
G02*
X0252731Y0406873I0000000J-000581D01*
G01*
X0252731Y0405712D01*
G75*
G02*
X0252150Y0405131I-000581J0000000D01*
G01*
X0250792Y0405131D01*
G75*
G02*
X0250211Y0405712I0000000J0000581D01*
G01*
X0250211Y0406873D01*
G75*
G02*
X0250792Y0407454I0000581J0000000D01*
G01*
G37*
G36*
G01*
X0232613Y0358478D02*
X0232613Y0359836D01*
G75*
G02*
X0233194Y0360417I0000581J0000000D01*
G01*
X0234355Y0360417D01*
G75*
G02*
X0234936Y0359836I0000000J-000581D01*
G01*
X0234936Y0358478D01*
G75*
G02*
X0234355Y0357897I-000581J0000000D01*
G01*
X0233194Y0357897D01*
G75*
G02*
X0232613Y0358478I0000000J0000581D01*
G01*
G37*
G36*
G01*
X0236432Y0358478D02*
X0236432Y0359836D01*
G75*
G02*
X0237013Y0360417I0000581J0000000D01*
G01*
X0238174Y0360417D01*
G75*
G02*
X0238755Y0359836I0000000J-000581D01*
G01*
X0238755Y0358478D01*
G75*
G02*
X0238174Y0357897I-000581J0000000D01*
G01*
X0237013Y0357897D01*
G75*
G02*
X0236432Y0358478I0000000J0000581D01*
G01*
G37*
G36*
G01*
X0258971Y0367759D02*
X0258971Y0369117D01*
G75*
G02*
X0259552Y0369698I0000581J0000000D01*
G01*
X0260713Y0369698D01*
G75*
G02*
X0261294Y0369117I0000000J-000581D01*
G01*
X0261294Y0367759D01*
G75*
G02*
X0260713Y0367178I-000581J0000000D01*
G01*
X0259552Y0367178D01*
G75*
G02*
X0258971Y0367759I0000000J0000581D01*
G01*
G37*
G36*
G01*
X0262790Y0367759D02*
X0262790Y0369117D01*
G75*
G02*
X0263371Y0369698I0000581J0000000D01*
G01*
X0264532Y0369698D01*
G75*
G02*
X0265113Y0369117I0000000J-000581D01*
G01*
X0265113Y0367759D01*
G75*
G02*
X0264532Y0367178I-000581J0000000D01*
G01*
X0263371Y0367178D01*
G75*
G02*
X0262790Y0367759I0000000J0000581D01*
G01*
G37*
G36*
G01*
X0236638Y0344017D02*
X0235280Y0344017D01*
G75*
G02*
X0234699Y0344598I0000000J0000581D01*
G01*
X0234699Y0345759D01*
G75*
G02*
X0235280Y0346340I0000581J0000000D01*
G01*
X0236638Y0346340D01*
G75*
G02*
X0237219Y0345759I0000000J-000581D01*
G01*
X0237219Y0344598D01*
G75*
G02*
X0236638Y0344017I-000581J0000000D01*
G01*
G37*
G36*
G01*
X0236638Y0347836D02*
X0235280Y0347836D01*
G75*
G02*
X0234699Y0348417I0000000J0000581D01*
G01*
X0234699Y0349578D01*
G75*
G02*
X0235280Y0350159I0000581J0000000D01*
G01*
X0236638Y0350159D01*
G75*
G02*
X0237219Y0349578I0000000J-000581D01*
G01*
X0237219Y0348417D01*
G75*
G02*
X0236638Y0347836I-000581J0000000D01*
G01*
G37*
D350*
X0230896Y0345348D03*
X0230896Y0352828D03*
X0223022Y0349088D03*
G36*
G01*
X0254648Y0446791D02*
X0254648Y0445432D01*
G75*
G02*
X0254068Y0444852I-000581J0000000D01*
G01*
X0252906Y0444852D01*
G75*
G02*
X0252325Y0445432I0000000J0000581D01*
G01*
X0252325Y0446791D01*
G75*
G02*
X0252906Y0447371I0000581J0000000D01*
G01*
X0254068Y0447371D01*
G75*
G02*
X0254648Y0446791I0000000J-000581D01*
G01*
G37*
G36*
G01*
X0250829Y0446791D02*
X0250829Y0445432D01*
G75*
G02*
X0250249Y0444852I-000581J0000000D01*
G01*
X0249087Y0444852D01*
G75*
G02*
X0248507Y0445432I0000000J0000581D01*
G01*
X0248507Y0446791D01*
G75*
G02*
X0249087Y0447371I0000581J0000000D01*
G01*
X0250249Y0447371D01*
G75*
G02*
X0250829Y0446791I0000000J-000581D01*
G01*
G37*
G36*
G01*
X0220979Y0358443D02*
X0220979Y0360461D01*
G75*
G02*
X0221840Y0361322I0000861J0000000D01*
G01*
X0223563Y0361322D01*
G75*
G02*
X0224424Y0360461I0000000J-000861D01*
G01*
X0224424Y0358443D01*
G75*
G02*
X0223563Y0357582I-000861J0000000D01*
G01*
X0221840Y0357582D01*
G75*
G02*
X0220979Y0358443I0000000J0000861D01*
G01*
G37*
G36*
G01*
X0227180Y0358443D02*
X0227180Y0360461D01*
G75*
G02*
X0228041Y0361322I0000861J0000000D01*
G01*
X0229764Y0361322D01*
G75*
G02*
X0230625Y0360461I0000000J-000861D01*
G01*
X0230625Y0358443D01*
G75*
G02*
X0229764Y0357582I-000861J0000000D01*
G01*
X0228041Y0357582D01*
G75*
G02*
X0227180Y0358443I0000000J0000861D01*
G01*
G37*
X0436982Y0078065D02*
G01*
G75*
D491*
X0425565Y0065053D02*
D03*
X0429305Y0074305D02*
D03*
D491*
X0433045Y0065053D02*
D03*
D248*
X0418006Y0053439D02*
D03*
X0418006Y0058439D02*
D03*
X0418006Y0063439D02*
D03*
X0418006Y0068439D02*
D03*
X0399108Y0053439D02*
D03*
X0399108Y0058439D02*
D03*
X0399108Y0063439D02*
D03*
X0399108Y0068439D02*
D03*
D427*
X0402297Y0073734D02*
D03*
X0396077Y0073734D02*
D03*
X0410643Y0073734D02*
D03*
X0416864Y0073734D02*
D03*
D483*
X0432455Y0060152D02*
D03*
X0426155Y0060152D02*
D03*
D17*
X0421825Y0076195D02*
D03*
M02*
