G75*
G70*
%OFA0B0*%
%FSLAX25Y25*%
%IPPOS*%
%LPD*%
%AMOC8*
5,1,8,0,0,1.08239X$1,22.5*
%
%AMM102*
21,1,0.033070,0.030710,0.000000,0.000000,180.000000*
21,1,0.022050,0.041730,0.000000,0.000000,180.000000*
1,1,0.011020,-0.011020,0.015350*
1,1,0.011020,0.011020,0.015350*
1,1,0.011020,0.011020,-0.015350*
1,1,0.011020,-0.011020,-0.015350*
%
%AMM103*
21,1,0.040950,0.030320,0.000000,0.000000,270.000000*
21,1,0.028350,0.042910,0.000000,0.000000,270.000000*
1,1,0.012600,-0.015160,-0.014170*
1,1,0.012600,-0.015160,0.014170*
1,1,0.012600,0.015160,0.014170*
1,1,0.012600,0.015160,-0.014170*
%
%AMM104*
21,1,0.029130,0.030710,0.000000,0.000000,180.000000*
21,1,0.018900,0.040950,0.000000,0.000000,180.000000*
1,1,0.010240,-0.009450,0.015350*
1,1,0.010240,0.009450,0.015350*
1,1,0.010240,0.009450,-0.015350*
1,1,0.010240,-0.009450,-0.015350*
%
%AMM105*
21,1,0.041340,0.026770,0.000000,0.000000,270.000000*
21,1,0.029130,0.038980,0.000000,0.000000,270.000000*
1,1,0.012210,-0.013390,-0.014570*
1,1,0.012210,-0.013390,0.014570*
1,1,0.012210,0.013390,0.014570*
1,1,0.012210,0.013390,-0.014570*
%
%AMM106*
21,1,0.040950,0.030320,0.000000,0.000000,180.000000*
21,1,0.028350,0.042910,0.000000,0.000000,180.000000*
1,1,0.012600,-0.014170,0.015160*
1,1,0.012600,0.014170,0.015160*
1,1,0.012600,0.014170,-0.015160*
1,1,0.012600,-0.014170,-0.015160*
%
%AMM107*
21,1,0.033070,0.049610,0.000000,0.000000,270.000000*
21,1,0.022050,0.060630,0.000000,0.000000,270.000000*
1,1,0.011020,-0.024800,-0.011020*
1,1,0.011020,-0.024800,0.011020*
1,1,0.011020,0.024800,0.011020*
1,1,0.011020,0.024800,-0.011020*
%
%AMM108*
21,1,0.033070,0.018900,0.000000,0.000000,180.000000*
21,1,0.022840,0.029130,0.000000,0.000000,180.000000*
1,1,0.010240,-0.011420,0.009450*
1,1,0.010240,0.011420,0.009450*
1,1,0.010240,0.011420,-0.009450*
1,1,0.010240,-0.011420,-0.009450*
%
%AMM109*
21,1,0.041340,0.026770,0.000000,0.000000,180.000000*
21,1,0.029130,0.038980,0.000000,0.000000,180.000000*
1,1,0.012210,-0.014570,0.013390*
1,1,0.012210,0.014570,0.013390*
1,1,0.012210,0.014570,-0.013390*
1,1,0.012210,-0.014570,-0.013390*
%
%AMM116*
21,1,0.111810,0.050390,0.000000,0.000000,0.000000*
21,1,0.093700,0.068500,0.000000,0.000000,0.000000*
1,1,0.018110,0.046850,-0.025200*
1,1,0.018110,-0.046850,-0.025200*
1,1,0.018110,-0.046850,0.025200*
1,1,0.018110,0.046850,0.025200*
%
%AMM117*
21,1,0.080320,0.083460,0.000000,0.000000,180.000000*
21,1,0.059840,0.103940,0.000000,0.000000,180.000000*
1,1,0.020470,-0.029920,0.041730*
1,1,0.020470,0.029920,0.041730*
1,1,0.020470,0.029920,-0.041730*
1,1,0.020470,-0.029920,-0.041730*
%
%AMM118*
21,1,0.127560,0.075590,0.000000,0.000000,270.000000*
21,1,0.103150,0.100000,0.000000,0.000000,270.000000*
1,1,0.024410,-0.037800,-0.051580*
1,1,0.024410,-0.037800,0.051580*
1,1,0.024410,0.037800,0.051580*
1,1,0.024410,0.037800,-0.051580*
%
%AMM119*
21,1,0.084250,0.053540,0.000000,0.000000,180.000000*
21,1,0.065350,0.072440,0.000000,0.000000,180.000000*
1,1,0.018900,-0.032680,0.026770*
1,1,0.018900,0.032680,0.026770*
1,1,0.018900,0.032680,-0.026770*
1,1,0.018900,-0.032680,-0.026770*
%
%AMM120*
21,1,0.076380,0.036220,0.000000,0.000000,180.000000*
21,1,0.061810,0.050790,0.000000,0.000000,180.000000*
1,1,0.014570,-0.030910,0.018110*
1,1,0.014570,0.030910,0.018110*
1,1,0.014570,0.030910,-0.018110*
1,1,0.014570,-0.030910,-0.018110*
%
%AMM121*
21,1,0.092130,0.073230,0.000000,0.000000,90.000000*
21,1,0.069290,0.096060,0.000000,0.000000,90.000000*
1,1,0.022840,0.036610,0.034650*
1,1,0.022840,0.036610,-0.034650*
1,1,0.022840,-0.036610,-0.034650*
1,1,0.022840,-0.036610,0.034650*
%
%AMM125*
21,1,0.084250,0.045670,0.000000,0.000000,270.000000*
21,1,0.067320,0.062600,0.000000,0.000000,270.000000*
1,1,0.016930,-0.022840,-0.033660*
1,1,0.016930,-0.022840,0.033660*
1,1,0.016930,0.022840,0.033660*
1,1,0.016930,0.022840,-0.033660*
%
%AMM126*
21,1,0.064570,0.020470,0.000000,0.000000,270.000000*
21,1,0.053940,0.031100,0.000000,0.000000,270.000000*
1,1,0.010630,-0.010240,-0.026970*
1,1,0.010630,-0.010240,0.026970*
1,1,0.010630,0.010240,0.026970*
1,1,0.010630,0.010240,-0.026970*
%
%AMM127*
21,1,0.038980,0.026770,0.000000,0.000000,90.000000*
21,1,0.026770,0.038980,0.000000,0.000000,90.000000*
1,1,0.012210,0.013390,0.013390*
1,1,0.012210,0.013390,-0.013390*
1,1,0.012210,-0.013390,-0.013390*
1,1,0.012210,-0.013390,0.013390*
%
%AMM136*
21,1,0.076380,0.036220,0.000000,0.000000,0.000000*
21,1,0.061810,0.050790,0.000000,0.000000,0.000000*
1,1,0.014570,0.030910,-0.018110*
1,1,0.014570,-0.030910,-0.018110*
1,1,0.014570,-0.030910,0.018110*
1,1,0.014570,0.030910,0.018110*
%
%AMM137*
21,1,0.040950,0.030320,0.000000,0.000000,90.000000*
21,1,0.028350,0.042910,0.000000,0.000000,90.000000*
1,1,0.012600,0.015160,0.014170*
1,1,0.012600,0.015160,-0.014170*
1,1,0.012600,-0.015160,-0.014170*
1,1,0.012600,-0.015160,0.014170*
%
%AMM138*
21,1,0.027170,0.052760,0.000000,0.000000,0.000000*
21,1,0.017320,0.062600,0.000000,0.000000,0.000000*
1,1,0.009840,0.008660,-0.026380*
1,1,0.009840,-0.008660,-0.026380*
1,1,0.009840,-0.008660,0.026380*
1,1,0.009840,0.008660,0.026380*
%
%AMM139*
21,1,0.100000,0.111020,0.000000,0.000000,180.000000*
21,1,0.075590,0.135430,0.000000,0.000000,180.000000*
1,1,0.024410,-0.037800,0.055510*
1,1,0.024410,0.037800,0.055510*
1,1,0.024410,0.037800,-0.055510*
1,1,0.024410,-0.037800,-0.055510*
%
%AMM140*
21,1,0.029130,0.018900,0.000000,0.000000,270.000000*
21,1,0.018900,0.029130,0.000000,0.000000,270.000000*
1,1,0.010240,-0.009450,-0.009450*
1,1,0.010240,-0.009450,0.009450*
1,1,0.010240,0.009450,0.009450*
1,1,0.010240,0.009450,-0.009450*
%
%AMM141*
21,1,0.041340,0.026770,0.000000,0.000000,0.000000*
21,1,0.029130,0.038980,0.000000,0.000000,0.000000*
1,1,0.012210,0.014570,-0.013390*
1,1,0.012210,-0.014570,-0.013390*
1,1,0.012210,-0.014570,0.013390*
1,1,0.012210,0.014570,0.013390*
%
%AMM142*
21,1,0.029130,0.018900,0.000000,0.000000,180.000000*
21,1,0.018900,0.029130,0.000000,0.000000,180.000000*
1,1,0.010240,-0.009450,0.009450*
1,1,0.010240,0.009450,0.009450*
1,1,0.010240,0.009450,-0.009450*
1,1,0.010240,-0.009450,-0.009450*
%
%AMM143*
21,1,0.041340,0.026770,0.000000,0.000000,90.000000*
21,1,0.029130,0.038980,0.000000,0.000000,90.000000*
1,1,0.012210,0.013390,0.014570*
1,1,0.012210,0.013390,-0.014570*
1,1,0.012210,-0.013390,-0.014570*
1,1,0.012210,-0.013390,0.014570*
%
%AMM145*
21,1,0.027170,0.052760,0.000000,0.000000,270.000000*
21,1,0.017320,0.062600,0.000000,0.000000,270.000000*
1,1,0.009840,-0.026380,-0.008660*
1,1,0.009840,-0.026380,0.008660*
1,1,0.009840,0.026380,0.008660*
1,1,0.009840,0.026380,-0.008660*
%
%AMM152*
21,1,0.040950,0.030320,0.000000,0.000000,0.000000*
21,1,0.028350,0.042910,0.000000,0.000000,0.000000*
1,1,0.012600,0.014170,-0.015160*
1,1,0.012600,-0.014170,-0.015160*
1,1,0.012600,-0.014170,0.015160*
1,1,0.012600,0.014170,0.015160*
%
%AMM153*
21,1,0.048820,0.075980,0.000000,0.000000,180.000000*
21,1,0.034650,0.090160,0.000000,0.000000,180.000000*
1,1,0.014170,-0.017320,0.037990*
1,1,0.014170,0.017320,0.037990*
1,1,0.014170,0.017320,-0.037990*
1,1,0.014170,-0.017320,-0.037990*
%
%AMM154*
21,1,0.048820,0.075990,0.000000,0.000000,180.000000*
21,1,0.034650,0.090160,0.000000,0.000000,180.000000*
1,1,0.014170,-0.017320,0.037990*
1,1,0.014170,0.017320,0.037990*
1,1,0.014170,0.017320,-0.037990*
1,1,0.014170,-0.017320,-0.037990*
%
%AMM155*
21,1,0.143310,0.067720,0.000000,0.000000,180.000000*
21,1,0.120870,0.090160,0.000000,0.000000,180.000000*
1,1,0.022440,-0.060430,0.033860*
1,1,0.022440,0.060430,0.033860*
1,1,0.022440,0.060430,-0.033860*
1,1,0.022440,-0.060430,-0.033860*
%
%AMM156*
21,1,0.031100,0.026380,0.000000,0.000000,90.000000*
21,1,0.020470,0.037010,0.000000,0.000000,90.000000*
1,1,0.010630,0.013190,0.010240*
1,1,0.010630,0.013190,-0.010240*
1,1,0.010630,-0.013190,-0.010240*
1,1,0.010630,-0.013190,0.010240*
%
%AMM157*
21,1,0.023230,0.027950,0.000000,0.000000,90.000000*
21,1,0.014170,0.037010,0.000000,0.000000,90.000000*
1,1,0.009060,0.013980,0.007090*
1,1,0.009060,0.013980,-0.007090*
1,1,0.009060,-0.013980,-0.007090*
1,1,0.009060,-0.013980,0.007090*
%
%AMM163*
21,1,0.040950,0.030320,-0.000000,0.000000,270.000000*
21,1,0.028350,0.042910,-0.000000,0.000000,270.000000*
1,1,0.012600,-0.015160,-0.014170*
1,1,0.012600,-0.015160,0.014170*
1,1,0.012600,0.015160,0.014170*
1,1,0.012600,0.015160,-0.014170*
%
%AMM164*
21,1,0.038980,0.026770,-0.000000,0.000000,90.000000*
21,1,0.026770,0.038980,-0.000000,0.000000,90.000000*
1,1,0.012210,0.013390,0.013390*
1,1,0.012210,0.013390,-0.013390*
1,1,0.012210,-0.013390,-0.013390*
1,1,0.012210,-0.013390,0.013390*
%
%AMM165*
21,1,0.033070,0.030710,-0.000000,0.000000,270.000000*
21,1,0.022050,0.041730,-0.000000,0.000000,270.000000*
1,1,0.011020,-0.015350,-0.011020*
1,1,0.011020,-0.015350,0.011020*
1,1,0.011020,0.015350,0.011020*
1,1,0.011020,0.015350,-0.011020*
%
%AMM49*
21,1,0.015350,0.017720,0.000000,0.000000,180.000000*
21,1,0.000000,0.033070,0.000000,0.000000,180.000000*
1,1,0.015350,0.000000,0.008860*
1,1,0.015350,0.000000,0.008860*
1,1,0.015350,0.000000,-0.008860*
1,1,0.015350,0.000000,-0.008860*
%
%AMM50*
21,1,0.025200,0.054130,0.000000,0.000000,90.000000*
21,1,0.014760,0.064570,0.000000,0.000000,90.000000*
1,1,0.010430,0.027070,0.007380*
1,1,0.010430,0.027070,-0.007380*
1,1,0.010430,-0.027070,-0.007380*
1,1,0.010430,-0.027070,0.007380*
%
%AMM51*
21,1,0.064570,0.014760,0.000000,0.000000,90.000000*
21,1,0.054130,0.025200,0.000000,0.000000,90.000000*
1,1,0.010430,0.007380,0.027070*
1,1,0.010430,0.007380,-0.027070*
1,1,0.010430,-0.007380,-0.027070*
1,1,0.010430,-0.007380,0.027070*
%
%AMM52*
21,1,0.025200,0.014760,0.000000,0.000000,90.000000*
21,1,0.014760,0.025200,0.000000,0.000000,90.000000*
1,1,0.010430,0.007380,0.007380*
1,1,0.010430,0.007380,-0.007380*
1,1,0.010430,-0.007380,-0.007380*
1,1,0.010430,-0.007380,0.007380*
%
%AMM53*
21,1,0.025200,0.014760,0.000000,0.000000,180.000000*
21,1,0.014760,0.025200,0.000000,0.000000,180.000000*
1,1,0.010430,-0.007380,0.007380*
1,1,0.010430,0.007380,0.007380*
1,1,0.010430,0.007380,-0.007380*
1,1,0.010430,-0.007380,-0.007380*
%
%AMM54*
21,1,0.033070,0.030710,0.000000,0.000000,0.000000*
21,1,0.022050,0.041730,0.000000,0.000000,0.000000*
1,1,0.011020,0.011020,-0.015350*
1,1,0.011020,-0.011020,-0.015350*
1,1,0.011020,-0.011020,0.015350*
1,1,0.011020,0.011020,0.015350*
%
%AMM55*
21,1,0.029130,0.018900,0.000000,0.000000,90.000000*
21,1,0.018900,0.029130,0.000000,0.000000,90.000000*
1,1,0.010240,0.009450,0.009450*
1,1,0.010240,0.009450,-0.009450*
1,1,0.010240,-0.009450,-0.009450*
1,1,0.010240,-0.009450,0.009450*
%
%AMM56*
21,1,0.029130,0.018900,0.000000,0.000000,0.000000*
21,1,0.018900,0.029130,0.000000,0.000000,0.000000*
1,1,0.010240,0.009450,-0.009450*
1,1,0.010240,-0.009450,-0.009450*
1,1,0.010240,-0.009450,0.009450*
1,1,0.010240,0.009450,0.009450*
%
%AMM57*
21,1,0.038980,0.026770,0.000000,0.000000,270.000000*
21,1,0.026770,0.038980,0.000000,0.000000,270.000000*
1,1,0.012210,-0.013390,-0.013390*
1,1,0.012210,-0.013390,0.013390*
1,1,0.012210,0.013390,0.013390*
1,1,0.012210,0.013390,-0.013390*
%
%AMM58*
21,1,0.048820,0.075980,0.000000,0.000000,0.000000*
21,1,0.034650,0.090160,0.000000,0.000000,0.000000*
1,1,0.014170,0.017320,-0.037990*
1,1,0.014170,-0.017320,-0.037990*
1,1,0.014170,-0.017320,0.037990*
1,1,0.014170,0.017320,0.037990*
%
%AMM59*
21,1,0.048820,0.075990,0.000000,0.000000,0.000000*
21,1,0.034650,0.090160,0.000000,0.000000,0.000000*
1,1,0.014170,0.017320,-0.037990*
1,1,0.014170,-0.017320,-0.037990*
1,1,0.014170,-0.017320,0.037990*
1,1,0.014170,0.017320,0.037990*
%
%AMM60*
21,1,0.143310,0.067720,0.000000,0.000000,0.000000*
21,1,0.120870,0.090160,0.000000,0.000000,0.000000*
1,1,0.022440,0.060430,-0.033860*
1,1,0.022440,-0.060430,-0.033860*
1,1,0.022440,-0.060430,0.033860*
1,1,0.022440,0.060430,0.033860*
%
%AMM61*
21,1,0.031100,0.026380,0.000000,0.000000,0.000000*
21,1,0.020470,0.037010,0.000000,0.000000,0.000000*
1,1,0.010630,0.010240,-0.013190*
1,1,0.010630,-0.010240,-0.013190*
1,1,0.010630,-0.010240,0.013190*
1,1,0.010630,0.010240,0.013190*
%
%AMM62*
21,1,0.023230,0.027950,0.000000,0.000000,0.000000*
21,1,0.014170,0.037010,0.000000,0.000000,0.000000*
1,1,0.009060,0.007090,-0.013980*
1,1,0.009060,-0.007090,-0.013980*
1,1,0.009060,-0.007090,0.013980*
1,1,0.009060,0.007090,0.013980*
%
%AMM63*
21,1,0.044880,0.049210,0.000000,0.000000,0.000000*
21,1,0.031500,0.062600,0.000000,0.000000,0.000000*
1,1,0.013390,0.015750,-0.024610*
1,1,0.013390,-0.015750,-0.024610*
1,1,0.013390,-0.015750,0.024610*
1,1,0.013390,0.015750,0.024610*
%
%AMM64*
21,1,0.044880,0.035430,0.000000,0.000000,270.000000*
21,1,0.031500,0.048820,0.000000,0.000000,270.000000*
1,1,0.013390,-0.017720,-0.015750*
1,1,0.013390,-0.017720,0.015750*
1,1,0.013390,0.017720,0.015750*
1,1,0.013390,0.017720,-0.015750*
%
%AMM65*
21,1,0.038980,0.026770,0.000000,0.000000,0.000000*
21,1,0.026770,0.038980,0.000000,0.000000,0.000000*
1,1,0.012210,0.013390,-0.013390*
1,1,0.012210,-0.013390,-0.013390*
1,1,0.012210,-0.013390,0.013390*
1,1,0.012210,0.013390,0.013390*
%
%AMM66*
21,1,0.033070,0.030710,0.000000,0.000000,270.000000*
21,1,0.022050,0.041730,0.000000,0.000000,270.000000*
1,1,0.011020,-0.015350,-0.011020*
1,1,0.011020,-0.015350,0.011020*
1,1,0.011020,0.015350,0.011020*
1,1,0.011020,0.015350,-0.011020*
%
%AMM67*
21,1,0.037010,0.072440,0.000000,0.000000,0.000000*
21,1,0.025200,0.084250,0.000000,0.000000,0.000000*
1,1,0.011810,0.012600,-0.036220*
1,1,0.011810,-0.012600,-0.036220*
1,1,0.011810,-0.012600,0.036220*
1,1,0.011810,0.012600,0.036220*
%
%AMM68*
21,1,0.056690,0.048820,0.000000,0.000000,0.000000*
21,1,0.040950,0.064570,0.000000,0.000000,0.000000*
1,1,0.015750,0.020470,-0.024410*
1,1,0.015750,-0.020470,-0.024410*
1,1,0.015750,-0.020470,0.024410*
1,1,0.015750,0.020470,0.024410*
%
%AMM69*
21,1,0.044880,0.049210,0.000000,0.000000,90.000000*
21,1,0.031500,0.062600,0.000000,0.000000,90.000000*
1,1,0.013390,0.024610,0.015750*
1,1,0.013390,0.024610,-0.015750*
1,1,0.013390,-0.024610,-0.015750*
1,1,0.013390,-0.024610,0.015750*
%
%AMM70*
21,1,0.031100,0.026380,0.000000,0.000000,270.000000*
21,1,0.020470,0.037010,0.000000,0.000000,270.000000*
1,1,0.010630,-0.013190,-0.010240*
1,1,0.010630,-0.013190,0.010240*
1,1,0.010630,0.013190,0.010240*
1,1,0.010630,0.013190,-0.010240*
%
%AMM71*
21,1,0.023230,0.027950,0.000000,0.000000,270.000000*
21,1,0.014170,0.037010,0.000000,0.000000,270.000000*
1,1,0.009060,-0.013980,-0.007090*
1,1,0.009060,-0.013980,0.007090*
1,1,0.009060,0.013980,0.007090*
1,1,0.009060,0.013980,-0.007090*
%
%AMM86*
21,1,0.040950,0.050000,0.000000,0.000000,270.000000*
21,1,0.028350,0.062600,0.000000,0.000000,270.000000*
1,1,0.012600,-0.025000,-0.014170*
1,1,0.012600,-0.025000,0.014170*
1,1,0.012600,0.025000,0.014170*
1,1,0.012600,0.025000,-0.014170*
%
%AMM87*
21,1,0.092130,0.073230,0.000000,0.000000,270.000000*
21,1,0.069290,0.096060,0.000000,0.000000,270.000000*
1,1,0.022840,-0.036610,-0.034650*
1,1,0.022840,-0.036610,0.034650*
1,1,0.022840,0.036610,0.034650*
1,1,0.022840,0.036610,-0.034650*
%
%AMM88*
21,1,0.033070,0.030710,0.000000,0.000000,90.000000*
21,1,0.022050,0.041730,0.000000,0.000000,90.000000*
1,1,0.011020,0.015350,0.011020*
1,1,0.011020,0.015350,-0.011020*
1,1,0.011020,-0.015350,-0.011020*
1,1,0.011020,-0.015350,0.011020*
%
%AMM89*
21,1,0.044880,0.049210,0.000000,0.000000,180.000000*
21,1,0.031500,0.062600,0.000000,0.000000,180.000000*
1,1,0.013390,-0.015750,0.024610*
1,1,0.013390,0.015750,0.024610*
1,1,0.013390,0.015750,-0.024610*
1,1,0.013390,-0.015750,-0.024610*
%
%AMM90*
21,1,0.029130,0.030710,0.000000,0.000000,90.000000*
21,1,0.018900,0.040950,0.000000,0.000000,90.000000*
1,1,0.010240,0.015350,0.009450*
1,1,0.010240,0.015350,-0.009450*
1,1,0.010240,-0.015350,-0.009450*
1,1,0.010240,-0.015350,0.009450*
%
%AMM91*
21,1,0.038980,0.026770,0.000000,0.000000,180.000000*
21,1,0.026770,0.038980,0.000000,0.000000,180.000000*
1,1,0.012210,-0.013390,0.013390*
1,1,0.012210,0.013390,0.013390*
1,1,0.012210,0.013390,-0.013390*
1,1,0.012210,-0.013390,-0.013390*
%
%ADD103M108*%
%ADD104O,0.02520X0.04488*%
%ADD107M140*%
%ADD108R,0.01535X1.55079*%
%ADD109R,0.03150X0.03543*%
%ADD111O,0.04882X0.01732*%
%ADD114R,0.01535X0.01929*%
%ADD116R,0.01929X0.01535*%
%ADD117M68*%
%ADD122C,0.03651*%
%ADD125R,0.12756X0.01535*%
%ADD131O,0.07441X0.10394*%
%ADD134R,0.04291X0.01535*%
%ADD135O,0.04488X0.06457*%
%ADD142M137*%
%ADD145M127*%
%ADD147O,0.05276X0.06063*%
%ADD148M157*%
%ADD15C,0.16299*%
%ADD150M50*%
%ADD151M64*%
%ADD154M105*%
%ADD157O,0.03701X0.02913*%
%ADD158R,0.03543X0.03150*%
%ADD16M69*%
%ADD169M145*%
%ADD170R,0.12165X0.01535*%
%ADD174M86*%
%ADD179R,0.09409X0.01535*%
%ADD18M143*%
%ADD180M54*%
%ADD186C,0.06693*%
%ADD189R,0.06693X0.06693*%
%ADD190M153*%
%ADD195M152*%
%ADD20R,0.07244X0.10000*%
%ADD201M141*%
%ADD203C,0.03307*%
%ADD205M106*%
%ADD207M109*%
%ADD208M67*%
%ADD21M91*%
%ADD210O,0.04567X0.11772*%
%ADD221M58*%
%ADD224M102*%
%ADD229M136*%
%ADD230M120*%
%ADD231M156*%
%ADD238M51*%
%ADD240M63*%
%ADD245M119*%
%ADD248R,0.06457X0.06457*%
%ADD252M103*%
%ADD26M88*%
%ADD264M142*%
%ADD267C,0.03100*%
%ADD270M89*%
%ADD275O,0.01339X0.02520*%
%ADD277M55*%
%ADD281O,0.05512X0.01535*%
%ADD283C,0.06551*%
%ADD290C,0.08425*%
%ADD291C,0.02913*%
%ADD292M139*%
%ADD293M125*%
%ADD295M155*%
%ADD297C,0.04451*%
%ADD299M52*%
%ADD300M117*%
%ADD301M70*%
%ADD303M107*%
%ADD311M66*%
%ADD317O,0.02913X0.09213*%
%ADD321R,0.06260X0.01535*%
%ADD323M59*%
%ADD326R,0.05276X0.06063*%
%ADD328O,0.09213X0.02913*%
%ADD33O,0.01417X0.05669*%
%ADD330O,0.04488X0.02520*%
%ADD338M121*%
%ADD34O,0.09213X0.02520*%
%ADD341O,0.02520X0.01535*%
%ADD343M56*%
%ADD344O,0.01339X0.03307*%
%ADD346M62*%
%ADD351M118*%
%ADD353C,0.12362*%
%ADD354C,0.03900*%
%ADD358M163*%
%ADD359M164*%
%ADD360M165*%
%ADD361R,0.25197X0.22835*%
%ADD362R,0.08661X0.04724*%
%ADD363R,0.02559X0.04803*%
%ADD364R,0.01772X0.05709*%
%ADD43M138*%
%ADD45M126*%
%ADD46R,0.10394X0.10394*%
%ADD47M154*%
%ADD49M53*%
%ADD50O,0.06850X0.15906*%
%ADD51M71*%
%ADD52M116*%
%ADD55M104*%
%ADD56M90*%
%ADD58M65*%
%ADD63C,0.03701*%
%ADD64O,0.05669X0.01417*%
%ADD66C,0.06457*%
%ADD67O,0.01339X0.02126*%
%ADD70O,0.01535X0.02520*%
%ADD75M87*%
%ADD81C,0.00551*%
%ADD84M60*%
%ADD91O,0.06457X0.10000*%
%ADD95M57*%
%ADD96R,0.06457X0.05669*%
%ADD97M49*%
%ADD98M61*%
X0000000Y0000000D02*
G01*
G75*
G36*
X0163181Y0456596D02*
X0163181Y0456738D01*
X0165884Y0456738D01*
X0165884Y0456596D01*
X0163181Y0456596D01*
D02*
G37*
G36*
X0166511Y0456596D02*
X0166511Y0456835D01*
X0167852Y0456835D01*
X0167852Y0456596D01*
X0166511Y0456596D01*
D02*
G37*
G36*
X0169815Y0456596D02*
X0169815Y0456785D01*
X0169821Y0456785D01*
X0169821Y0456596D01*
X0169815Y0456596D01*
D02*
G37*
D97*
X0296870Y0257283D02*
D03*
D70*
X0537402Y0380413D02*
D03*
X0549606Y0380413D02*
D03*
X0547638Y0380413D02*
D03*
X0545669Y0380413D02*
D03*
X0526476Y0361024D02*
D03*
X0437972Y0404626D02*
D03*
D353*
X0556693Y0234154D02*
D03*
X0570472Y0234154D02*
D03*
D170*
X0583366Y0227756D02*
D03*
D321*
X0532972Y0381299D02*
D03*
D125*
X0583071Y0381299D02*
D03*
D108*
X0588681Y0304528D02*
D03*
X0530610Y0304528D02*
D03*
D179*
X0563484Y0381299D02*
D03*
D134*
X0531988Y0227756D02*
D03*
D150*
X0579035Y0344390D02*
D03*
X0579035Y0347539D02*
D03*
D238*
X0573622Y0352953D02*
D03*
X0570472Y0352953D02*
D03*
D299*
X0573622Y0344390D02*
D03*
D49*
X0570472Y0347342D02*
D03*
D180*
X0360827Y0306299D02*
D03*
X0367126Y0306299D02*
D03*
X0364075Y0300787D02*
D03*
X0370374Y0300787D02*
D03*
D277*
X0363484Y0183268D02*
D03*
X0372146Y0183268D02*
D03*
X0285827Y0180216D02*
D03*
X0277165Y0180216D02*
D03*
X0259842Y0180216D02*
D03*
X0251181Y0180216D02*
D03*
X0272835Y0180216D02*
D03*
X0264173Y0180216D02*
D03*
D343*
X0374606Y0196949D02*
D03*
X0374606Y0188287D02*
D03*
X0454528Y0172441D02*
D03*
X0454528Y0163779D02*
D03*
X0348524Y0172835D02*
D03*
X0348524Y0164173D02*
D03*
X0435630Y0172441D02*
D03*
X0435630Y0163779D02*
D03*
X0405118Y0172441D02*
D03*
X0405118Y0163779D02*
D03*
X0415748Y0172441D02*
D03*
X0415748Y0163779D02*
D03*
X0394882Y0172441D02*
D03*
X0394882Y0163779D02*
D03*
X0424606Y0172441D02*
D03*
X0424606Y0163779D02*
D03*
X0368701Y0172933D02*
D03*
X0368701Y0164272D02*
D03*
X0358760Y0172835D02*
D03*
X0358760Y0164173D02*
D03*
X0337894Y0172835D02*
D03*
X0337894Y0164173D02*
D03*
X0385827Y0172933D02*
D03*
X0385827Y0164272D02*
D03*
X0446260Y0172441D02*
D03*
X0446260Y0163779D02*
D03*
X0552362Y0163779D02*
D03*
X0552362Y0172441D02*
D03*
X0541339Y0163779D02*
D03*
X0541339Y0172441D02*
D03*
X0530709Y0163779D02*
D03*
X0530709Y0172441D02*
D03*
X0520079Y0163779D02*
D03*
X0520079Y0172441D02*
D03*
X0476378Y0163386D02*
D03*
X0476378Y0172047D02*
D03*
X0486221Y0163779D02*
D03*
X0486221Y0172441D02*
D03*
X0496850Y0163779D02*
D03*
X0496850Y0172441D02*
D03*
X0507480Y0163779D02*
D03*
X0507480Y0172441D02*
D03*
X0566437Y0162992D02*
D03*
X0566437Y0171653D02*
D03*
X0307480Y0164173D02*
D03*
X0307480Y0172835D02*
D03*
X0576772Y0163779D02*
D03*
X0576772Y0172441D02*
D03*
X0318110Y0163779D02*
D03*
X0318110Y0172441D02*
D03*
X0588386Y0163779D02*
D03*
X0588386Y0172441D02*
D03*
X0328740Y0163976D02*
D03*
X0328740Y0172638D02*
D03*
D341*
X0526279Y0322244D02*
D03*
X0526279Y0320276D02*
D03*
D95*
X0394882Y0420118D02*
D03*
X0394882Y0426339D02*
D03*
X0463484Y0458701D02*
D03*
X0463484Y0464921D02*
D03*
D221*
X0362008Y0256594D02*
D03*
X0380118Y0256594D02*
D03*
X0355807Y0217618D02*
D03*
X0373917Y0217618D02*
D03*
D323*
X0371063Y0256594D02*
D03*
X0364862Y0217618D02*
D03*
D84*
X0371063Y0281004D02*
D03*
X0364862Y0242028D02*
D03*
D98*
X0491634Y0177362D02*
D03*
X0491634Y0184449D02*
D03*
X0501673Y0184449D02*
D03*
X0501673Y0177362D02*
D03*
X0092714Y0286164D02*
D03*
X0092714Y0279078D02*
D03*
X0082675Y0279078D02*
D03*
X0082675Y0286164D02*
D03*
X0124407Y0286164D02*
D03*
X0124407Y0279078D02*
D03*
X0134447Y0279078D02*
D03*
X0134447Y0286164D02*
D03*
X0408957Y0177264D02*
D03*
X0408957Y0184350D02*
D03*
X0398917Y0184350D02*
D03*
X0398917Y0177264D02*
D03*
X0449114Y0177953D02*
D03*
X0449114Y0185039D02*
D03*
X0439075Y0185039D02*
D03*
X0439075Y0177953D02*
D03*
X0358268Y0178740D02*
D03*
X0358268Y0185827D02*
D03*
X0348228Y0185827D02*
D03*
X0348228Y0178740D02*
D03*
X0568504Y0178543D02*
D03*
X0568504Y0185630D02*
D03*
X0558465Y0185630D02*
D03*
X0558465Y0178543D02*
D03*
X0575591Y0178347D02*
D03*
X0575591Y0185433D02*
D03*
X0585630Y0185433D02*
D03*
X0585630Y0178347D02*
D03*
X0300394Y0169488D02*
D03*
X0300394Y0162402D02*
D03*
X0290354Y0162402D02*
D03*
X0290354Y0169488D02*
D03*
D346*
X0495079Y0177362D02*
D03*
X0498228Y0177362D02*
D03*
X0498228Y0184449D02*
D03*
X0495079Y0184449D02*
D03*
X0089269Y0286164D02*
D03*
X0086120Y0286164D02*
D03*
X0086120Y0279078D02*
D03*
X0089269Y0279078D02*
D03*
X0131002Y0279078D02*
D03*
X0127852Y0279078D02*
D03*
X0127852Y0286164D02*
D03*
X0131002Y0286164D02*
D03*
X0402362Y0184350D02*
D03*
X0405512Y0184350D02*
D03*
X0405512Y0177264D02*
D03*
X0402362Y0177264D02*
D03*
X0442520Y0185039D02*
D03*
X0445669Y0185039D02*
D03*
X0445669Y0177953D02*
D03*
X0442520Y0177953D02*
D03*
X0351673Y0185827D02*
D03*
X0354823Y0185827D02*
D03*
X0354823Y0178740D02*
D03*
X0351673Y0178740D02*
D03*
X0561909Y0185630D02*
D03*
X0565059Y0185630D02*
D03*
X0565059Y0178543D02*
D03*
X0561909Y0178543D02*
D03*
X0579035Y0178347D02*
D03*
X0582185Y0178347D02*
D03*
X0582185Y0185433D02*
D03*
X0579035Y0185433D02*
D03*
X0296949Y0169488D02*
D03*
X0293799Y0169488D02*
D03*
X0293799Y0162402D02*
D03*
X0296949Y0162402D02*
D03*
D240*
X0331201Y0416929D02*
D03*
X0323721Y0416929D02*
D03*
X0331201Y0410138D02*
D03*
X0323721Y0410138D02*
D03*
D151*
X0588583Y0155905D02*
D03*
X0588583Y0149213D02*
D03*
X0278543Y0163386D02*
D03*
X0278543Y0170079D02*
D03*
X0071061Y0311854D02*
D03*
X0071061Y0318546D02*
D03*
X0081691Y0311854D02*
D03*
X0081691Y0318546D02*
D03*
X0092321Y0311854D02*
D03*
X0092321Y0318546D02*
D03*
X0102950Y0311854D02*
D03*
X0102950Y0318546D02*
D03*
X0113580Y0311854D02*
D03*
X0113580Y0318546D02*
D03*
X0124210Y0311854D02*
D03*
X0124210Y0318546D02*
D03*
X0134840Y0311854D02*
D03*
X0134840Y0318546D02*
D03*
X0145470Y0311854D02*
D03*
X0145470Y0318546D02*
D03*
X0415945Y0149213D02*
D03*
X0415945Y0155905D02*
D03*
X0405315Y0149213D02*
D03*
X0405315Y0155905D02*
D03*
X0394685Y0149213D02*
D03*
X0394685Y0155905D02*
D03*
X0384055Y0149213D02*
D03*
X0384055Y0155905D02*
D03*
X0348327Y0149213D02*
D03*
X0348327Y0155905D02*
D03*
X0424803Y0149213D02*
D03*
X0424803Y0155905D02*
D03*
X0358957Y0149213D02*
D03*
X0358957Y0155905D02*
D03*
X0435433Y0149213D02*
D03*
X0435433Y0155905D02*
D03*
X0456693Y0149213D02*
D03*
X0456693Y0155905D02*
D03*
X0446063Y0149213D02*
D03*
X0446063Y0155905D02*
D03*
X0337697Y0149213D02*
D03*
X0337697Y0155905D02*
D03*
X0369587Y0149213D02*
D03*
X0369587Y0155905D02*
D03*
X0552165Y0155905D02*
D03*
X0552165Y0149213D02*
D03*
X0541536Y0155905D02*
D03*
X0541536Y0149213D02*
D03*
X0530906Y0155905D02*
D03*
X0530906Y0149213D02*
D03*
X0520276Y0155905D02*
D03*
X0520276Y0149213D02*
D03*
X0475787Y0155905D02*
D03*
X0475787Y0149213D02*
D03*
X0486417Y0155905D02*
D03*
X0486417Y0149213D02*
D03*
X0497047Y0155905D02*
D03*
X0497047Y0149213D02*
D03*
X0507677Y0155905D02*
D03*
X0507677Y0149213D02*
D03*
X0565551Y0155905D02*
D03*
X0565551Y0149213D02*
D03*
X0307677Y0155905D02*
D03*
X0307677Y0149213D02*
D03*
X0576958Y0155905D02*
D03*
X0576958Y0149213D02*
D03*
X0318307Y0155905D02*
D03*
X0318307Y0149213D02*
D03*
X0328937Y0155905D02*
D03*
X0328937Y0149213D02*
D03*
X0258465Y0163386D02*
D03*
X0258465Y0170079D02*
D03*
X0268701Y0163386D02*
D03*
X0268701Y0170079D02*
D03*
D330*
X0340158Y0231102D02*
D03*
X0516417Y0382973D02*
D03*
X0516417Y0390453D02*
D03*
D275*
X0279035Y0215158D02*
D03*
D96*
X0057382Y0090650D02*
D03*
X0057382Y0083169D02*
D03*
D58*
X0078799Y0083563D02*
D03*
X0072579Y0083563D02*
D03*
X0173560Y0458698D02*
D03*
X0179780Y0458698D02*
D03*
X0061654Y0414764D02*
D03*
X0067874Y0414764D02*
D03*
D341*
X0212480Y0413996D02*
D03*
X0152559Y0179232D02*
D03*
X0152559Y0169783D02*
D03*
X0222736Y0177756D02*
D03*
X0222736Y0174311D02*
D03*
X0222736Y0171555D02*
D03*
D70*
X0171732Y0414193D02*
D03*
X0173701Y0414193D02*
D03*
D104*
X0443504Y0451968D02*
D03*
D344*
X0458347Y0445571D02*
D03*
D135*
X0425301Y0198971D02*
D03*
X0481896Y0198971D02*
D03*
X0486840Y0198971D02*
D03*
D157*
X0389652Y0212736D02*
D03*
D311*
X0520571Y0416240D02*
D03*
X0520571Y0409941D02*
D03*
X0230217Y0175984D02*
D03*
X0230217Y0169685D02*
D03*
D114*
X0167104Y0463762D02*
D03*
X0165136Y0463762D02*
D03*
X0169073Y0463762D02*
D03*
X0163167Y0463762D02*
D03*
X0169073Y0457463D02*
D03*
X0167104Y0457463D02*
D03*
X0165136Y0457463D02*
D03*
X0163167Y0457463D02*
D03*
D116*
X0169270Y0461596D02*
D03*
X0169270Y0459628D02*
D03*
X0162971Y0459628D02*
D03*
X0162971Y0461596D02*
D03*
D67*
X0132776Y0351379D02*
D03*
X0136083Y0351379D02*
D03*
X0129823Y0351379D02*
D03*
X0140709Y0351379D02*
D03*
X0145334Y0351379D02*
D03*
X0148327Y0351379D02*
D03*
X0125197Y0351379D02*
D03*
X0120571Y0351379D02*
D03*
D208*
X0485236Y0457579D02*
D03*
X0468701Y0457579D02*
D03*
X0485039Y0431988D02*
D03*
X0468504Y0431988D02*
D03*
D117*
X0544488Y0474213D02*
D03*
X0537008Y0474213D02*
D03*
X0537008Y0413484D02*
D03*
X0544488Y0413484D02*
D03*
X0544488Y0442992D02*
D03*
X0537008Y0442992D02*
D03*
D15*
X0563189Y0505709D02*
D03*
X0563189Y0413583D02*
D03*
X0563189Y0442717D02*
D03*
X0563189Y0474213D02*
D03*
D16*
X0258661Y0155315D02*
D03*
X0258661Y0147835D02*
D03*
X0190748Y0155315D02*
D03*
X0190748Y0147835D02*
D03*
X0200591Y0155315D02*
D03*
X0200591Y0147835D02*
D03*
X0291142Y0147835D02*
D03*
X0291142Y0155315D02*
D03*
X0245866Y0147835D02*
D03*
X0245866Y0155315D02*
D03*
X0236024Y0147835D02*
D03*
X0236024Y0155315D02*
D03*
X0223228Y0147835D02*
D03*
X0223228Y0155315D02*
D03*
X0213386Y0147835D02*
D03*
X0213386Y0155315D02*
D03*
X0177953Y0147835D02*
D03*
X0177953Y0155315D02*
D03*
X0278346Y0155315D02*
D03*
X0278346Y0147835D02*
D03*
X0268504Y0155315D02*
D03*
X0268504Y0147835D02*
D03*
D301*
X0290945Y0187894D02*
D03*
X0298031Y0187894D02*
D03*
X0298031Y0177854D02*
D03*
X0290945Y0177854D02*
D03*
X0510433Y0415453D02*
D03*
X0503346Y0415453D02*
D03*
X0503346Y0405413D02*
D03*
X0510433Y0405413D02*
D03*
D51*
X0290945Y0184449D02*
D03*
X0290945Y0181299D02*
D03*
X0298031Y0181299D02*
D03*
X0298031Y0184449D02*
D03*
X0503346Y0408858D02*
D03*
X0503346Y0412008D02*
D03*
X0510433Y0412008D02*
D03*
X0510433Y0408858D02*
D03*
D66*
X0592126Y0393110D02*
D03*
X0582126Y0393110D02*
D03*
X0572126Y0393110D02*
D03*
X0562126Y0393110D02*
D03*
X0552126Y0393110D02*
D03*
X0106614Y0070866D02*
D03*
X0096614Y0070866D02*
D03*
X0086614Y0070866D02*
D03*
X0076614Y0070866D02*
D03*
X0342126Y0494488D02*
D03*
X0332126Y0494488D02*
D03*
X0322126Y0494488D02*
D03*
X0312126Y0494488D02*
D03*
X0302126Y0494488D02*
D03*
X0181142Y0582047D02*
D03*
X0191142Y0582047D02*
D03*
X0181142Y0572047D02*
D03*
X0191142Y0572047D02*
D03*
X0181142Y0562047D02*
D03*
X0191142Y0562047D02*
D03*
X0181142Y0552047D02*
D03*
X0191142Y0552047D02*
D03*
X0181142Y0542047D02*
D03*
X0191142Y0542047D02*
D03*
X0181142Y0532047D02*
D03*
X0191142Y0532047D02*
D03*
X0181142Y0522047D02*
D03*
X0191142Y0522047D02*
D03*
X0181142Y0512047D02*
D03*
X0191142Y0512047D02*
D03*
X0181142Y0502047D02*
D03*
X0191142Y0502047D02*
D03*
X0181142Y0492047D02*
D03*
X0191142Y0492047D02*
D03*
X0181142Y0482047D02*
D03*
X0191142Y0482047D02*
D03*
X0181142Y0472047D02*
D03*
D248*
X0542126Y0393110D02*
D03*
X0066614Y0070866D02*
D03*
X0292126Y0494488D02*
D03*
D203*
X0536417Y0229232D02*
D03*
X0540354Y0229232D02*
D03*
X0544291Y0229232D02*
D03*
X0548228Y0229232D02*
D03*
X0574409Y0379823D02*
D03*
X0570472Y0379823D02*
D03*
X0556496Y0379823D02*
D03*
X0552559Y0379823D02*
D03*
D290*
X0243681Y0171555D02*
D03*
X0243681Y0183563D02*
D03*
D291*
X0520079Y0344587D02*
D03*
X0522146Y0348031D02*
D03*
X0517126Y0349213D02*
D03*
X0503150Y0348917D02*
D03*
X0303219Y0223002D02*
D03*
X0335531Y0248819D02*
D03*
X0310630Y0221063D02*
D03*
X0281693Y0216634D02*
D03*
X0303150Y0243602D02*
D03*
X0286122Y0562225D02*
D03*
X0313583Y0540276D02*
D03*
X0330906Y0540276D02*
D03*
X0322146Y0540276D02*
D03*
X0292323Y0542914D02*
D03*
X0308957Y0540276D02*
D03*
X0342339Y0542949D02*
D03*
X0200374Y0437323D02*
D03*
X0200669Y0423347D02*
D03*
X0199488Y0418327D02*
D03*
X0196043Y0420394D02*
D03*
X0447756Y0441043D02*
D03*
X0445571Y0415748D02*
D03*
X0440551Y0415748D02*
D03*
X0455610Y0415748D02*
D03*
X0452067Y0415748D02*
D03*
X0365302Y0397638D02*
D03*
X0413583Y0397638D02*
D03*
X0370768Y0382677D02*
D03*
X0512402Y0397638D02*
D03*
X0469488Y0397638D02*
D03*
X0140413Y0391142D02*
D03*
X0147638Y0389468D02*
D03*
X0139567Y0387303D02*
D03*
X0140413Y0383858D02*
D03*
X0147638Y0379232D02*
D03*
X0140709Y0380512D02*
D03*
X0142480Y0374114D02*
D03*
X0147638Y0371555D02*
D03*
X0140354Y0398622D02*
D03*
X0124311Y0399803D02*
D03*
D283*
X0017224Y0437500D02*
D03*
X0037224Y0437500D02*
D03*
X0027224Y0437500D02*
D03*
X0027224Y0427500D02*
D03*
X0037224Y0427500D02*
D03*
X0017224Y0427500D02*
D03*
X0037224Y0417500D02*
D03*
X0027224Y0417500D02*
D03*
X0017224Y0417500D02*
D03*
X0017224Y0397500D02*
D03*
X0027224Y0397500D02*
D03*
X0037224Y0397500D02*
D03*
X0017224Y0407500D02*
D03*
X0037224Y0407500D02*
D03*
X0027224Y0407500D02*
D03*
X0017224Y0377500D02*
D03*
X0027224Y0377500D02*
D03*
X0037224Y0377500D02*
D03*
X0017224Y0387500D02*
D03*
X0037224Y0387500D02*
D03*
X0027224Y0387500D02*
D03*
X0017224Y0357500D02*
D03*
X0027224Y0357500D02*
D03*
X0037224Y0357500D02*
D03*
X0017224Y0367500D02*
D03*
X0037224Y0367500D02*
D03*
X0027224Y0367500D02*
D03*
X0017224Y0347500D02*
D03*
X0037224Y0347500D02*
D03*
X0027224Y0347500D02*
D03*
X0040315Y0125945D02*
D03*
X0050315Y0125945D02*
D03*
X0060315Y0125945D02*
D03*
X0070315Y0125945D02*
D03*
X0030315Y0125945D02*
D03*
X0070315Y0115945D02*
D03*
X0060315Y0115945D02*
D03*
X0050315Y0115945D02*
D03*
X0040315Y0115945D02*
D03*
X0030315Y0115945D02*
D03*
X0080315Y0115945D02*
D03*
X0090315Y0115945D02*
D03*
X0100315Y0115945D02*
D03*
X0100315Y0125945D02*
D03*
X0090315Y0125945D02*
D03*
X0080315Y0125945D02*
D03*
X0040315Y0145945D02*
D03*
X0050315Y0145945D02*
D03*
X0060315Y0145945D02*
D03*
X0070315Y0145945D02*
D03*
X0030315Y0145945D02*
D03*
X0070315Y0135945D02*
D03*
X0060315Y0135945D02*
D03*
X0050315Y0135945D02*
D03*
X0040315Y0135945D02*
D03*
X0030315Y0135945D02*
D03*
X0080315Y0135945D02*
D03*
X0090315Y0135945D02*
D03*
X0100315Y0135945D02*
D03*
X0100315Y0145945D02*
D03*
X0090315Y0145945D02*
D03*
X0080315Y0145945D02*
D03*
X0040315Y0165945D02*
D03*
X0050315Y0165945D02*
D03*
X0060315Y0165945D02*
D03*
X0070315Y0165945D02*
D03*
X0030315Y0165945D02*
D03*
X0070315Y0155945D02*
D03*
X0060315Y0155945D02*
D03*
X0050315Y0155945D02*
D03*
X0040315Y0155945D02*
D03*
X0030315Y0155945D02*
D03*
X0080315Y0155945D02*
D03*
X0090315Y0155945D02*
D03*
X0100315Y0155945D02*
D03*
X0100315Y0165945D02*
D03*
X0090315Y0165945D02*
D03*
X0080315Y0165945D02*
D03*
X0040315Y0185945D02*
D03*
X0050315Y0185945D02*
D03*
X0060315Y0185945D02*
D03*
X0070315Y0185945D02*
D03*
X0030315Y0185945D02*
D03*
X0070315Y0175945D02*
D03*
X0060315Y0175945D02*
D03*
X0050315Y0175945D02*
D03*
X0040315Y0175945D02*
D03*
X0030315Y0175945D02*
D03*
X0080315Y0175945D02*
D03*
X0090315Y0175945D02*
D03*
X0100315Y0175945D02*
D03*
X0100315Y0185945D02*
D03*
X0090315Y0185945D02*
D03*
X0080315Y0185945D02*
D03*
X0040315Y0205945D02*
D03*
X0050315Y0205945D02*
D03*
X0060315Y0205945D02*
D03*
X0070315Y0205945D02*
D03*
X0030315Y0205945D02*
D03*
X0070315Y0195945D02*
D03*
X0060315Y0195945D02*
D03*
X0050315Y0195945D02*
D03*
X0040315Y0195945D02*
D03*
X0030315Y0195945D02*
D03*
X0080315Y0195945D02*
D03*
X0090315Y0195945D02*
D03*
X0100315Y0195945D02*
D03*
X0100315Y0205945D02*
D03*
X0090315Y0205945D02*
D03*
X0080315Y0205945D02*
D03*
X0100315Y0235945D02*
D03*
X0090315Y0235945D02*
D03*
X0080315Y0235945D02*
D03*
X0080315Y0225945D02*
D03*
X0090315Y0225945D02*
D03*
X0100315Y0225945D02*
D03*
X0100315Y0215945D02*
D03*
X0090315Y0215945D02*
D03*
X0080315Y0215945D02*
D03*
X0030315Y0215945D02*
D03*
X0040315Y0215945D02*
D03*
X0050315Y0215945D02*
D03*
X0060315Y0215945D02*
D03*
X0070315Y0215945D02*
D03*
X0030315Y0225945D02*
D03*
X0070315Y0225945D02*
D03*
X0060315Y0225945D02*
D03*
X0050315Y0225945D02*
D03*
X0040315Y0225945D02*
D03*
X0040315Y0235945D02*
D03*
X0050315Y0235945D02*
D03*
X0060315Y0235945D02*
D03*
X0070315Y0235945D02*
D03*
X0030315Y0235945D02*
D03*
D50*
X0385881Y0438385D02*
D03*
X0414818Y0438385D02*
D03*
D147*
X0397200Y0434645D02*
D03*
X0403499Y0434645D02*
D03*
X0394050Y0442125D02*
D03*
X0400350Y0442125D02*
D03*
D326*
X0406649Y0442125D02*
D03*
D46*
X0108858Y0038878D02*
D03*
X0064370Y0038878D02*
D03*
X0117323Y0021654D02*
D03*
X0055905Y0021654D02*
D03*
D131*
X0529823Y0211122D02*
D03*
X0569193Y0211122D02*
D03*
X0588878Y0211122D02*
D03*
X0579035Y0211122D02*
D03*
X0559350Y0211122D02*
D03*
X0549508Y0211122D02*
D03*
X0539665Y0211122D02*
D03*
X0519980Y0211122D02*
D03*
D81*
X0460630Y0027559D02*
D03*
X0086614Y0027559D02*
D03*
X0173622Y0056890D02*
D03*
X0397244Y0056890D02*
D03*
X0135256Y0484803D02*
D03*
X0044272Y0484803D02*
D03*
X0019879Y0279921D02*
D03*
X0586614Y0020079D02*
D03*
X0586614Y0605905D02*
D03*
X0019685Y0605905D02*
D03*
X0019685Y0020079D02*
D03*
D91*
X0142913Y0092520D02*
D03*
X0142913Y0078347D02*
D03*
X0153937Y0092520D02*
D03*
X0153937Y0078347D02*
D03*
X0163779Y0092520D02*
D03*
X0163779Y0078347D02*
D03*
X0173622Y0092520D02*
D03*
X0183465Y0092520D02*
D03*
X0183465Y0078347D02*
D03*
X0193307Y0092520D02*
D03*
X0193307Y0078347D02*
D03*
X0203150Y0092520D02*
D03*
X0212992Y0078347D02*
D03*
X0212992Y0092520D02*
D03*
X0222835Y0078347D02*
D03*
X0222835Y0092520D02*
D03*
X0232677Y0078347D02*
D03*
X0232677Y0092520D02*
D03*
X0242520Y0078347D02*
D03*
X0242520Y0092520D02*
D03*
X0238858Y0109843D02*
D03*
X0252362Y0078347D02*
D03*
X0252362Y0092520D02*
D03*
X0251181Y0109843D02*
D03*
X0274409Y0078347D02*
D03*
X0274409Y0092520D02*
D03*
X0274409Y0109843D02*
D03*
X0284252Y0078347D02*
D03*
X0284252Y0092520D02*
D03*
X0285433Y0109843D02*
D03*
X0294094Y0078347D02*
D03*
X0294094Y0092520D02*
D03*
X0303937Y0092520D02*
D03*
X0297756Y0109843D02*
D03*
X0313779Y0078347D02*
D03*
X0313779Y0092520D02*
D03*
X0310079Y0109843D02*
D03*
X0323622Y0078347D02*
D03*
X0323622Y0092520D02*
D03*
X0322402Y0109843D02*
D03*
X0333465Y0078347D02*
D03*
X0333465Y0092520D02*
D03*
X0343307Y0078347D02*
D03*
X0343307Y0092520D02*
D03*
X0343307Y0109843D02*
D03*
X0354331Y0078347D02*
D03*
X0354331Y0092520D02*
D03*
X0354331Y0109843D02*
D03*
X0377559Y0078347D02*
D03*
X0377559Y0092520D02*
D03*
X0377559Y0109843D02*
D03*
X0387402Y0078347D02*
D03*
X0387402Y0092520D02*
D03*
X0387402Y0109843D02*
D03*
X0397244Y0092520D02*
D03*
X0407087Y0078347D02*
D03*
X0407087Y0092520D02*
D03*
X0407087Y0109843D02*
D03*
X0416929Y0078347D02*
D03*
X0416929Y0092520D02*
D03*
X0426772Y0078347D02*
D03*
X0426772Y0092520D02*
D03*
X0416929Y0109843D02*
D03*
X0426772Y0109843D02*
D03*
X0216850Y0109843D02*
D03*
X0204528Y0109843D02*
D03*
X0192205Y0109843D02*
D03*
X0179882Y0109843D02*
D03*
X0167559Y0109843D02*
D03*
X0155236Y0109843D02*
D03*
X0142913Y0109843D02*
D03*
X0397244Y0109843D02*
D03*
D186*
X0114764Y0435433D02*
D03*
X0104764Y0435433D02*
D03*
X0094764Y0435433D02*
D03*
X0084764Y0435433D02*
D03*
X0074764Y0435433D02*
D03*
D189*
X0064764Y0435433D02*
D03*
D248*
X0191142Y0472047D02*
D03*
X0154331Y0194882D02*
G01*
G75*
D174*
X0172638Y0211417D02*
D03*
X0172638Y0203937D02*
D03*
D75*
X0162992Y0247540D02*
D03*
X0162992Y0229823D02*
D03*
D26*
X0254626Y0201181D02*
D03*
X0254626Y0207480D02*
D03*
D270*
X0171359Y0198425D02*
D03*
X0163878Y0198425D02*
D03*
D63*
X0167126Y0210236D02*
D03*
X0167126Y0203937D02*
D03*
D56*
X0269095Y0225886D02*
D03*
X0269095Y0229626D02*
D03*
X0269095Y0233366D02*
D03*
X0259646Y0233366D02*
D03*
X0259646Y0229626D02*
D03*
X0259646Y0225886D02*
D03*
X0191929Y0225886D02*
D03*
X0191929Y0229626D02*
D03*
X0191929Y0233366D02*
D03*
X0201378Y0233366D02*
D03*
X0201378Y0229626D02*
D03*
X0201378Y0225886D02*
D03*
X0184449Y0225886D02*
D03*
X0184449Y0229626D02*
D03*
X0184449Y0233366D02*
D03*
X0175000Y0233366D02*
D03*
X0175000Y0229626D02*
D03*
X0175000Y0225886D02*
D03*
X0208859Y0225886D02*
D03*
X0208859Y0229626D02*
D03*
X0208859Y0233366D02*
D03*
X0218307Y0233366D02*
D03*
X0218307Y0229626D02*
D03*
X0218307Y0225886D02*
D03*
X0235236Y0225886D02*
D03*
X0235236Y0229626D02*
D03*
X0235236Y0233366D02*
D03*
X0225788Y0233366D02*
D03*
X0225788Y0229626D02*
D03*
X0225788Y0225886D02*
D03*
X0242717Y0225886D02*
D03*
X0242717Y0229626D02*
D03*
X0242717Y0233366D02*
D03*
X0252166Y0233366D02*
D03*
X0252166Y0229626D02*
D03*
X0252166Y0225886D02*
D03*
D98*
X0268800Y0200492D02*
D03*
X0268800Y0207579D02*
D03*
X0258760Y0207579D02*
D03*
X0258760Y0200492D02*
D03*
X0193701Y0200492D02*
D03*
X0193701Y0207579D02*
D03*
X0203740Y0207579D02*
D03*
X0203740Y0200492D02*
D03*
X0189174Y0200492D02*
D03*
X0189174Y0207579D02*
D03*
X0179134Y0207579D02*
D03*
X0179134Y0200492D02*
D03*
X0208760Y0200492D02*
D03*
X0208760Y0207579D02*
D03*
X0218799Y0207579D02*
D03*
X0218799Y0200492D02*
D03*
X0235630Y0200492D02*
D03*
X0235630Y0207579D02*
D03*
X0225591Y0207579D02*
D03*
X0225591Y0200492D02*
D03*
X0240552Y0200492D02*
D03*
X0240552Y0207579D02*
D03*
X0250591Y0207579D02*
D03*
X0250591Y0200492D02*
D03*
X0203642Y0214272D02*
D03*
X0203642Y0221358D02*
D03*
X0193603Y0221358D02*
D03*
X0193603Y0214272D02*
D03*
X0177658Y0214272D02*
D03*
X0177658Y0221358D02*
D03*
X0187697Y0221358D02*
D03*
X0187697Y0214272D02*
D03*
X0218898Y0214272D02*
D03*
X0218898Y0221358D02*
D03*
X0208859Y0221358D02*
D03*
X0208859Y0214272D02*
D03*
X0225591Y0214272D02*
D03*
X0225591Y0221358D02*
D03*
X0235630Y0221358D02*
D03*
X0235630Y0214272D02*
D03*
X0250886Y0214272D02*
D03*
X0250886Y0221358D02*
D03*
X0240847Y0221358D02*
D03*
X0240847Y0214272D02*
D03*
X0258268Y0214370D02*
D03*
X0258268Y0221457D02*
D03*
X0268307Y0221457D02*
D03*
X0268307Y0214370D02*
D03*
D346*
X0262205Y0207579D02*
D03*
X0265355Y0207579D02*
D03*
X0265355Y0200492D02*
D03*
X0262205Y0200492D02*
D03*
X0197146Y0200492D02*
D03*
X0200296Y0200492D02*
D03*
X0200296Y0207579D02*
D03*
X0197146Y0207579D02*
D03*
X0182579Y0207579D02*
D03*
X0185729Y0207579D02*
D03*
X0185729Y0200492D02*
D03*
X0182579Y0200492D02*
D03*
X0212205Y0200492D02*
D03*
X0215355Y0200492D02*
D03*
X0215355Y0207579D02*
D03*
X0212205Y0207579D02*
D03*
X0229036Y0207579D02*
D03*
X0232185Y0207579D02*
D03*
X0232185Y0200492D02*
D03*
X0229036Y0200492D02*
D03*
X0243996Y0200492D02*
D03*
X0247146Y0200492D02*
D03*
X0247146Y0207579D02*
D03*
X0243996Y0207579D02*
D03*
X0197048Y0221358D02*
D03*
X0200197Y0221358D02*
D03*
X0200197Y0214272D02*
D03*
X0197048Y0214272D02*
D03*
X0181103Y0214272D02*
D03*
X0184252Y0214272D02*
D03*
X0184252Y0221358D02*
D03*
X0181103Y0221358D02*
D03*
X0212304Y0221358D02*
D03*
X0215453Y0221358D02*
D03*
X0215453Y0214272D02*
D03*
X0212304Y0214272D02*
D03*
X0229036Y0214272D02*
D03*
X0232185Y0214272D02*
D03*
X0232185Y0221358D02*
D03*
X0229036Y0221358D02*
D03*
X0244292Y0221358D02*
D03*
X0247441Y0221358D02*
D03*
X0247441Y0214272D02*
D03*
X0244292Y0214272D02*
D03*
X0261713Y0214370D02*
D03*
X0264862Y0214370D02*
D03*
X0264862Y0221457D02*
D03*
X0261713Y0221457D02*
D03*
D95*
X0272835Y0200630D02*
D03*
X0272835Y0206851D02*
D03*
X0238288Y0242067D02*
D03*
X0238288Y0248288D02*
D03*
X0233957Y0248288D02*
D03*
X0233957Y0242067D02*
D03*
X0229626Y0242067D02*
D03*
X0229626Y0248288D02*
D03*
X0225296Y0248288D02*
D03*
X0225296Y0242067D02*
D03*
X0242618Y0242067D02*
D03*
X0242618Y0248288D02*
D03*
X0246949Y0248288D02*
D03*
X0246949Y0242067D02*
D03*
X0251280Y0242067D02*
D03*
X0251280Y0248288D02*
D03*
X0255610Y0248288D02*
D03*
X0255610Y0242067D02*
D03*
X0207973Y0242067D02*
D03*
X0207973Y0248288D02*
D03*
X0212304Y0248288D02*
D03*
X0212304Y0242067D02*
D03*
X0216634Y0242067D02*
D03*
X0216634Y0248288D02*
D03*
X0220965Y0248288D02*
D03*
X0220965Y0242067D02*
D03*
X0173327Y0242067D02*
D03*
X0173327Y0248288D02*
D03*
X0177658Y0248288D02*
D03*
X0177658Y0242067D02*
D03*
X0181988Y0242067D02*
D03*
X0181988Y0248288D02*
D03*
X0186319Y0248288D02*
D03*
X0186319Y0242067D02*
D03*
X0190650Y0242067D02*
D03*
X0190650Y0248288D02*
D03*
X0194981Y0248288D02*
D03*
X0194981Y0242067D02*
D03*
X0199311Y0242067D02*
D03*
X0199311Y0248288D02*
D03*
X0203642Y0248288D02*
D03*
X0203642Y0242067D02*
D03*
X0272835Y0214016D02*
D03*
X0272835Y0220236D02*
D03*
X0259941Y0242067D02*
D03*
X0259941Y0248288D02*
D03*
X0264272Y0248288D02*
D03*
X0264272Y0242067D02*
D03*
X0268603Y0242067D02*
D03*
X0268603Y0248288D02*
D03*
X0272933Y0248288D02*
D03*
X0272933Y0242067D02*
D03*
D180*
X0156890Y0209154D02*
D03*
X0163189Y0209154D02*
D03*
X0163189Y0204626D02*
D03*
X0156890Y0204626D02*
D03*
X0164174Y0218110D02*
D03*
X0157874Y0218110D02*
D03*
X0164174Y0222736D02*
D03*
X0157874Y0222736D02*
D03*
D16*
X0169488Y0223622D02*
D03*
X0169488Y0216142D02*
D03*
D21*
X0157126Y0213681D02*
D03*
X0163347Y0213681D02*
D03*
X0153937Y0255512D02*
G01*
G75*
D97*
X0296870Y0257284D02*
D03*
D84*
X0321850Y0318504D02*
D03*
D221*
X0330906Y0294095D02*
D03*
X0312795Y0294095D02*
D03*
D323*
X0321850Y0294095D02*
D03*
D111*
X0282480Y0276181D02*
D03*
X0282480Y0273622D02*
D03*
X0282480Y0271063D02*
D03*
X0282480Y0268504D02*
D03*
X0282480Y0265945D02*
D03*
X0282480Y0263386D02*
D03*
X0282480Y0260827D02*
D03*
X0304921Y0276181D02*
D03*
X0304921Y0273622D02*
D03*
X0304921Y0271063D02*
D03*
X0304921Y0268504D02*
D03*
X0304921Y0265945D02*
D03*
X0304921Y0263386D02*
D03*
X0304921Y0260827D02*
D03*
X0158464Y0310532D02*
D03*
X0158464Y0307973D02*
D03*
X0158464Y0305414D02*
D03*
X0158464Y0302855D02*
D03*
X0158464Y0300295D02*
D03*
X0158464Y0297736D02*
D03*
X0158464Y0295177D02*
D03*
X0180906Y0310532D02*
D03*
X0180906Y0307973D02*
D03*
X0180906Y0305414D02*
D03*
X0180906Y0302855D02*
D03*
X0180906Y0300295D02*
D03*
X0180906Y0297736D02*
D03*
X0180906Y0295177D02*
D03*
X0157972Y0355512D02*
D03*
X0157972Y0352953D02*
D03*
X0157972Y0350394D02*
D03*
X0157972Y0347835D02*
D03*
X0157972Y0345276D02*
D03*
X0157972Y0342717D02*
D03*
X0157972Y0340158D02*
D03*
X0180413Y0355512D02*
D03*
X0180413Y0352953D02*
D03*
X0180413Y0350394D02*
D03*
X0180413Y0347835D02*
D03*
X0180413Y0345276D02*
D03*
X0180413Y0342717D02*
D03*
X0180413Y0340158D02*
D03*
X0208661Y0260827D02*
D03*
X0208661Y0263386D02*
D03*
X0208661Y0265945D02*
D03*
X0208661Y0268504D02*
D03*
X0208661Y0271063D02*
D03*
X0208661Y0273622D02*
D03*
X0208661Y0276181D02*
D03*
X0186221Y0260827D02*
D03*
X0186221Y0263386D02*
D03*
X0186221Y0265945D02*
D03*
X0186221Y0268504D02*
D03*
X0186221Y0271063D02*
D03*
X0186221Y0273622D02*
D03*
X0186221Y0276181D02*
D03*
X0253051Y0260827D02*
D03*
X0253051Y0263386D02*
D03*
X0253051Y0265945D02*
D03*
X0253051Y0268504D02*
D03*
X0253051Y0271063D02*
D03*
X0253051Y0273622D02*
D03*
X0253051Y0276181D02*
D03*
X0230610Y0260827D02*
D03*
X0230610Y0263386D02*
D03*
X0230610Y0265945D02*
D03*
X0230610Y0268504D02*
D03*
X0230610Y0271063D02*
D03*
X0230610Y0273622D02*
D03*
X0230610Y0276181D02*
D03*
X0158169Y0276181D02*
D03*
X0158169Y0273622D02*
D03*
X0158169Y0271063D02*
D03*
X0158169Y0268504D02*
D03*
X0158169Y0265945D02*
D03*
X0158169Y0263386D02*
D03*
X0158169Y0260827D02*
D03*
X0180610Y0276181D02*
D03*
X0180610Y0273622D02*
D03*
X0180610Y0271063D02*
D03*
X0180610Y0268504D02*
D03*
X0180610Y0265945D02*
D03*
X0180610Y0263386D02*
D03*
X0180610Y0260827D02*
D03*
D64*
X0198228Y0382677D02*
D03*
X0198228Y0380709D02*
D03*
X0198228Y0378740D02*
D03*
X0198228Y0376772D02*
D03*
X0198228Y0374803D02*
D03*
X0198228Y0372835D02*
D03*
X0198228Y0370866D02*
D03*
X0198228Y0368898D02*
D03*
X0198228Y0366929D02*
D03*
X0198228Y0364961D02*
D03*
X0198228Y0362992D02*
D03*
X0198228Y0361024D02*
D03*
X0198228Y0359055D02*
D03*
X0198228Y0357087D02*
D03*
X0198228Y0355118D02*
D03*
X0198228Y0353150D02*
D03*
X0198228Y0351181D02*
D03*
X0198228Y0349213D02*
D03*
X0198228Y0347244D02*
D03*
X0198228Y0345276D02*
D03*
X0198228Y0343307D02*
D03*
X0198228Y0341339D02*
D03*
X0198228Y0339370D02*
D03*
X0198228Y0337402D02*
D03*
X0198228Y0335433D02*
D03*
X0198228Y0333465D02*
D03*
X0198228Y0331496D02*
D03*
X0198228Y0329528D02*
D03*
X0198228Y0327559D02*
D03*
X0198228Y0325591D02*
D03*
X0198228Y0323622D02*
D03*
X0198228Y0321654D02*
D03*
X0198228Y0319685D02*
D03*
X0198228Y0317717D02*
D03*
X0198228Y0315748D02*
D03*
X0198228Y0313780D02*
D03*
X0198228Y0311811D02*
D03*
X0198228Y0309843D02*
D03*
X0198228Y0307874D02*
D03*
X0198228Y0305906D02*
D03*
X0198228Y0303937D02*
D03*
X0198228Y0301969D02*
D03*
X0198228Y0300000D02*
D03*
X0198228Y0298032D02*
D03*
X0301772Y0298032D02*
D03*
X0301772Y0300000D02*
D03*
X0301772Y0301969D02*
D03*
X0301772Y0303937D02*
D03*
X0301772Y0305906D02*
D03*
X0301772Y0307874D02*
D03*
X0301772Y0309843D02*
D03*
X0301772Y0311811D02*
D03*
X0301772Y0313780D02*
D03*
X0301772Y0315748D02*
D03*
X0301772Y0317717D02*
D03*
X0301772Y0319685D02*
D03*
X0301772Y0321654D02*
D03*
X0301772Y0323622D02*
D03*
X0301772Y0325591D02*
D03*
X0301772Y0327559D02*
D03*
X0301772Y0329528D02*
D03*
X0301772Y0331496D02*
D03*
X0301772Y0333465D02*
D03*
X0301772Y0335433D02*
D03*
X0301772Y0337402D02*
D03*
X0301772Y0339370D02*
D03*
X0301772Y0341339D02*
D03*
X0301772Y0343307D02*
D03*
X0301772Y0345276D02*
D03*
X0301772Y0347244D02*
D03*
X0301772Y0349213D02*
D03*
X0301772Y0351181D02*
D03*
X0301772Y0353150D02*
D03*
X0301772Y0355118D02*
D03*
X0301772Y0357087D02*
D03*
X0301772Y0359055D02*
D03*
X0301772Y0361024D02*
D03*
X0301772Y0362992D02*
D03*
X0301772Y0364961D02*
D03*
X0301772Y0366929D02*
D03*
X0301772Y0368898D02*
D03*
X0301772Y0370866D02*
D03*
X0301772Y0372835D02*
D03*
X0301772Y0374803D02*
D03*
X0301772Y0376772D02*
D03*
X0301772Y0378740D02*
D03*
X0301772Y0380709D02*
D03*
X0301772Y0382677D02*
D03*
D33*
X0207677Y0288583D02*
D03*
X0209646Y0288583D02*
D03*
X0211614Y0288583D02*
D03*
X0213583Y0288583D02*
D03*
X0215551Y0288583D02*
D03*
X0217520Y0288583D02*
D03*
X0219488Y0288583D02*
D03*
X0221457Y0288583D02*
D03*
X0223425Y0288583D02*
D03*
X0225394Y0288583D02*
D03*
X0227362Y0288583D02*
D03*
X0229331Y0288583D02*
D03*
X0231299Y0288583D02*
D03*
X0233268Y0288583D02*
D03*
X0235236Y0288583D02*
D03*
X0237205Y0288583D02*
D03*
X0239173Y0288583D02*
D03*
X0241142Y0288583D02*
D03*
X0243110Y0288583D02*
D03*
X0245079Y0288583D02*
D03*
X0247047Y0288583D02*
D03*
X0249016Y0288583D02*
D03*
X0250984Y0288583D02*
D03*
X0252953Y0288583D02*
D03*
X0254921Y0288583D02*
D03*
X0256890Y0288583D02*
D03*
X0258858Y0288583D02*
D03*
X0260827Y0288583D02*
D03*
X0262795Y0288583D02*
D03*
X0264764Y0288583D02*
D03*
X0266732Y0288583D02*
D03*
X0268701Y0288583D02*
D03*
X0270669Y0288583D02*
D03*
X0272638Y0288583D02*
D03*
X0274606Y0288583D02*
D03*
X0276575Y0288583D02*
D03*
X0278543Y0288583D02*
D03*
X0280512Y0288583D02*
D03*
X0282480Y0288583D02*
D03*
X0284449Y0288583D02*
D03*
X0286417Y0288583D02*
D03*
X0288386Y0288583D02*
D03*
X0290354Y0288583D02*
D03*
X0292323Y0288583D02*
D03*
X0292323Y0392126D02*
D03*
X0290354Y0392126D02*
D03*
X0288386Y0392126D02*
D03*
X0286417Y0392126D02*
D03*
X0284449Y0392126D02*
D03*
X0282480Y0392126D02*
D03*
X0280512Y0392126D02*
D03*
X0278543Y0392126D02*
D03*
X0276575Y0392126D02*
D03*
X0274606Y0392126D02*
D03*
X0272638Y0392126D02*
D03*
X0270669Y0392126D02*
D03*
X0268701Y0392126D02*
D03*
X0266732Y0392126D02*
D03*
X0264764Y0392126D02*
D03*
X0262795Y0392126D02*
D03*
X0260827Y0392126D02*
D03*
X0258858Y0392126D02*
D03*
X0256890Y0392126D02*
D03*
X0254921Y0392126D02*
D03*
X0252953Y0392126D02*
D03*
X0250984Y0392126D02*
D03*
X0249016Y0392126D02*
D03*
X0247047Y0392126D02*
D03*
X0245079Y0392126D02*
D03*
X0243110Y0392126D02*
D03*
X0241142Y0392126D02*
D03*
X0239173Y0392126D02*
D03*
X0237205Y0392126D02*
D03*
X0235236Y0392126D02*
D03*
X0233268Y0392126D02*
D03*
X0231299Y0392126D02*
D03*
X0229331Y0392126D02*
D03*
X0227362Y0392126D02*
D03*
X0225394Y0392126D02*
D03*
X0223425Y0392126D02*
D03*
X0221457Y0392126D02*
D03*
X0219488Y0392126D02*
D03*
X0217520Y0392126D02*
D03*
X0215551Y0392126D02*
D03*
X0213583Y0392126D02*
D03*
X0211614Y0392126D02*
D03*
X0209646Y0392126D02*
D03*
X0207677Y0392126D02*
D03*
D21*
X0309882Y0275591D02*
D03*
X0316102Y0275591D02*
D03*
X0307126Y0384252D02*
D03*
X0313346Y0384252D02*
D03*
X0316476Y0325394D02*
D03*
X0322697Y0325394D02*
D03*
X0216102Y0283366D02*
D03*
X0222323Y0283366D02*
D03*
X0289882Y0397323D02*
D03*
X0283661Y0397323D02*
D03*
X0281831Y0282677D02*
D03*
X0288051Y0282677D02*
D03*
X0196004Y0391339D02*
D03*
X0202224Y0391339D02*
D03*
X0312244Y0350689D02*
D03*
X0318464Y0350689D02*
D03*
X0205157Y0283268D02*
D03*
X0211378Y0283268D02*
D03*
X0258110Y0278543D02*
D03*
X0264331Y0278543D02*
D03*
X0191693Y0349705D02*
D03*
X0185473Y0349705D02*
D03*
X0220433Y0397441D02*
D03*
X0214213Y0397441D02*
D03*
X0239902Y0397343D02*
D03*
X0246122Y0397343D02*
D03*
X0257028Y0397343D02*
D03*
X0263248Y0397343D02*
D03*
X0307539Y0294784D02*
D03*
X0301319Y0294784D02*
D03*
X0241181Y0283268D02*
D03*
X0247402Y0283268D02*
D03*
X0261378Y0282973D02*
D03*
X0255158Y0282973D02*
D03*
X0191594Y0354035D02*
D03*
X0185374Y0354035D02*
D03*
X0186555Y0309744D02*
D03*
X0192776Y0309744D02*
D03*
D95*
X0319587Y0396221D02*
D03*
X0319587Y0390000D02*
D03*
X0333366Y0278780D02*
D03*
X0333366Y0285000D02*
D03*
X0307185Y0373465D02*
D03*
X0307185Y0379685D02*
D03*
X0191240Y0339114D02*
D03*
X0191240Y0345335D02*
D03*
X0311713Y0372677D02*
D03*
X0311713Y0378898D02*
D03*
X0276280Y0263032D02*
D03*
X0276280Y0269252D02*
D03*
X0310728Y0264508D02*
D03*
X0310728Y0270729D02*
D03*
X0315158Y0270728D02*
D03*
X0315158Y0264508D02*
D03*
X0166437Y0334213D02*
D03*
X0166437Y0327992D02*
D03*
X0186713Y0339114D02*
D03*
X0186713Y0345335D02*
D03*
X0191339Y0294429D02*
D03*
X0191339Y0300650D02*
D03*
X0312106Y0327914D02*
D03*
X0312106Y0321693D02*
D03*
X0186516Y0294331D02*
D03*
X0186516Y0300551D02*
D03*
X0172933Y0281929D02*
D03*
X0172933Y0288150D02*
D03*
X0159350Y0327894D02*
D03*
X0159350Y0334114D02*
D03*
X0307480Y0344823D02*
D03*
X0307480Y0351043D02*
D03*
X0307579Y0330079D02*
D03*
X0307579Y0323859D02*
D03*
X0187697Y0315197D02*
D03*
X0187697Y0321417D02*
D03*
X0192421Y0374469D02*
D03*
X0192421Y0368248D02*
D03*
D151*
X0332382Y0343898D02*
D03*
X0332382Y0337205D02*
D03*
X0319882Y0337303D02*
D03*
X0319882Y0343996D02*
D03*
X0326083Y0343898D02*
D03*
X0326083Y0337205D02*
D03*
X0313957Y0337894D02*
D03*
X0313957Y0344587D02*
D03*
D96*
X0327165Y0278839D02*
D03*
X0327165Y0286319D02*
D03*
D224*
X0230512Y0282776D02*
D03*
X0236811Y0282776D02*
D03*
X0312795Y0332480D02*
D03*
X0319094Y0332480D02*
D03*
X0273721Y0397540D02*
D03*
X0267421Y0397540D02*
D03*
X0331299Y0332284D02*
D03*
X0325000Y0332284D02*
D03*
X0333169Y0326772D02*
D03*
X0326870Y0326772D02*
D03*
X0186516Y0305217D02*
D03*
X0192815Y0305217D02*
D03*
X0326181Y0375689D02*
D03*
X0332480Y0375689D02*
D03*
D26*
X0301181Y0386319D02*
D03*
X0301181Y0392618D02*
D03*
X0296457Y0391142D02*
D03*
X0296457Y0397441D02*
D03*
X0307579Y0340650D02*
D03*
X0307579Y0334351D02*
D03*
X0324114Y0397047D02*
D03*
X0324114Y0390748D02*
D03*
X0333169Y0386221D02*
D03*
X0333169Y0379921D02*
D03*
X0333169Y0396358D02*
D03*
X0333169Y0390059D02*
D03*
X0328543Y0387795D02*
D03*
X0328543Y0381496D02*
D03*
X0192520Y0315256D02*
D03*
X0192520Y0321555D02*
D03*
D252*
X0315039Y0393111D02*
D03*
X0305787Y0396851D02*
D03*
D252*
X0305787Y0389370D02*
D03*
D20*
X0172539Y0330611D02*
D03*
X0187106Y0330611D02*
D03*
D55*
X0314468Y0356496D02*
D03*
X0310728Y0356496D02*
D03*
X0306988Y0356496D02*
D03*
X0306988Y0365945D02*
D03*
X0310728Y0365945D02*
D03*
X0314468Y0365945D02*
D03*
D98*
X0332972Y0263681D02*
D03*
X0332972Y0270768D02*
D03*
X0322933Y0270768D02*
D03*
X0322933Y0263681D02*
D03*
X0311516Y0280217D02*
D03*
X0311516Y0287303D02*
D03*
X0321555Y0287303D02*
D03*
X0321555Y0280217D02*
D03*
X0183366Y0314665D02*
D03*
X0183366Y0321752D02*
D03*
X0173327Y0321752D02*
D03*
X0173327Y0314665D02*
D03*
X0158071Y0314666D02*
D03*
X0158071Y0321752D02*
D03*
X0168110Y0321752D02*
D03*
X0168110Y0314666D02*
D03*
X0187303Y0281299D02*
D03*
X0187303Y0288386D02*
D03*
X0177264Y0288386D02*
D03*
X0177264Y0281299D02*
D03*
X0158563Y0281299D02*
D03*
X0158563Y0288386D02*
D03*
X0168602Y0288386D02*
D03*
X0168602Y0281299D02*
D03*
X0183563Y0359843D02*
D03*
X0183563Y0366929D02*
D03*
X0173524Y0366929D02*
D03*
X0173524Y0359843D02*
D03*
X0295669Y0280512D02*
D03*
X0295669Y0287599D02*
D03*
X0305709Y0287599D02*
D03*
X0305709Y0280512D02*
D03*
X0168209Y0359843D02*
D03*
X0168209Y0366929D02*
D03*
X0158169Y0366929D02*
D03*
X0158169Y0359843D02*
D03*
X0223130Y0279036D02*
D03*
X0223130Y0271949D02*
D03*
X0213090Y0271949D02*
D03*
X0213090Y0279036D02*
D03*
X0214272Y0260729D02*
D03*
X0214272Y0267815D02*
D03*
X0224311Y0267815D02*
D03*
X0224311Y0260729D02*
D03*
D346*
X0326378Y0270768D02*
D03*
X0329528Y0270768D02*
D03*
X0329528Y0263681D02*
D03*
X0326378Y0263681D02*
D03*
X0314961Y0280217D02*
D03*
X0318110Y0280217D02*
D03*
X0318110Y0287303D02*
D03*
X0314961Y0287303D02*
D03*
X0176772Y0321752D02*
D03*
X0179921Y0321752D02*
D03*
X0179921Y0314665D02*
D03*
X0176772Y0314665D02*
D03*
X0161516Y0314666D02*
D03*
X0164665Y0314666D02*
D03*
X0164665Y0321752D02*
D03*
X0161516Y0321752D02*
D03*
X0180709Y0288386D02*
D03*
X0183858Y0288386D02*
D03*
X0183858Y0281299D02*
D03*
X0180709Y0281299D02*
D03*
X0162008Y0281299D02*
D03*
X0165158Y0281299D02*
D03*
X0165158Y0288386D02*
D03*
X0162008Y0288386D02*
D03*
X0176969Y0366929D02*
D03*
X0180118Y0366929D02*
D03*
X0180118Y0359843D02*
D03*
X0176969Y0359843D02*
D03*
X0299114Y0280512D02*
D03*
X0302264Y0280512D02*
D03*
X0302264Y0287599D02*
D03*
X0299114Y0287599D02*
D03*
X0161614Y0366929D02*
D03*
X0164764Y0366929D02*
D03*
X0164764Y0359843D02*
D03*
X0161614Y0359843D02*
D03*
X0219685Y0279036D02*
D03*
X0216535Y0279036D02*
D03*
X0216535Y0271949D02*
D03*
X0219685Y0271949D02*
D03*
X0217717Y0260729D02*
D03*
X0220866Y0260729D02*
D03*
X0220866Y0267815D02*
D03*
X0217717Y0267815D02*
D03*
D154*
X0320669Y0372441D02*
D03*
X0320669Y0385433D02*
D03*
D205*
X0200295Y0289843D02*
D03*
X0196555Y0280591D02*
D03*
D205*
X0192815Y0289843D02*
D03*
D301*
X0259154Y0269784D02*
D03*
X0266240Y0269784D02*
D03*
X0266240Y0259744D02*
D03*
X0259154Y0259744D02*
D03*
X0268799Y0283662D02*
D03*
X0275886Y0283662D02*
D03*
X0275886Y0273622D02*
D03*
X0268799Y0273622D02*
D03*
X0182441Y0384429D02*
D03*
X0175354Y0384429D02*
D03*
X0175354Y0374389D02*
D03*
X0182441Y0374389D02*
D03*
X0166831Y0394193D02*
D03*
X0159744Y0394193D02*
D03*
X0159744Y0384154D02*
D03*
X0166831Y0384154D02*
D03*
D51*
X0259154Y0266339D02*
D03*
X0259154Y0263189D02*
D03*
X0266240Y0263189D02*
D03*
X0266240Y0266339D02*
D03*
X0268799Y0280217D02*
D03*
X0268799Y0277067D02*
D03*
X0275886Y0277067D02*
D03*
X0275886Y0280217D02*
D03*
X0175354Y0377834D02*
D03*
X0175354Y0380984D02*
D03*
X0182441Y0380984D02*
D03*
X0182441Y0377834D02*
D03*
X0159744Y0387599D02*
D03*
X0159744Y0390748D02*
D03*
X0166831Y0390748D02*
D03*
X0166831Y0387599D02*
D03*
D122*
X0329862Y0355433D02*
D03*
X0324862Y0355433D02*
D03*
X0329862Y0360433D02*
D03*
X0324862Y0360433D02*
D03*
X0329862Y0365433D02*
D03*
X0324862Y0365433D02*
D03*
D303*
X0190551Y0364173D02*
D03*
X0190551Y0358268D02*
D03*
D103*
X0226772Y0283662D02*
D03*
X0226772Y0279725D02*
D03*
D207*
X0209252Y0397343D02*
D03*
X0196260Y0397343D02*
D03*
D297*
X0323362Y0350433D02*
D03*
X0331362Y0350433D02*
D03*
X0327362Y0370433D02*
D03*
X0362795Y0370472D02*
G01*
G75*
D16*
X0382382Y0388878D02*
D03*
X0382382Y0396358D02*
D03*
X0413779Y0388681D02*
D03*
X0413779Y0396161D02*
D03*
D52*
X0511712Y0388582D02*
D03*
X0511712Y0377559D02*
D03*
D300*
X0390059Y0382578D02*
D03*
X0406201Y0382578D02*
D03*
D224*
X0515551Y0394488D02*
D03*
X0509252Y0394488D02*
D03*
X0464665Y0395078D02*
D03*
X0470964Y0395078D02*
D03*
X0425984Y0394488D02*
D03*
X0419685Y0394488D02*
D03*
D21*
X0504685Y0395374D02*
D03*
X0498464Y0395374D02*
D03*
X0419626Y0389960D02*
D03*
X0425846Y0389960D02*
D03*
X0473464Y0374901D02*
D03*
X0479685Y0374901D02*
D03*
D95*
X0430216Y0393759D02*
D03*
X0430216Y0387539D02*
D03*
D34*
X0443110Y0390866D02*
D03*
X0443110Y0385866D02*
D03*
X0443110Y0380866D02*
D03*
X0443110Y0375866D02*
D03*
X0465748Y0390866D02*
D03*
X0465748Y0385866D02*
D03*
X0465748Y0380866D02*
D03*
X0465748Y0375866D02*
D03*
D351*
X0454429Y0383366D02*
D03*
D245*
X0432579Y0380019D02*
D03*
X0416830Y0380019D02*
D03*
D330*
X0516417Y0390452D02*
D03*
X0516417Y0382972D02*
D03*
D230*
X0493799Y0390255D02*
D03*
X0493799Y0378838D02*
D03*
X0476870Y0396358D02*
D03*
X0476870Y0384941D02*
D03*
X0485630Y0378937D02*
D03*
X0485630Y0390354D02*
D03*
X0501870Y0378740D02*
D03*
X0501870Y0390157D02*
D03*
D338*
X0370866Y0393897D02*
D03*
X0370866Y0376181D02*
D03*
D26*
X0434645Y0393799D02*
D03*
X0434645Y0387500D02*
D03*
D104*
X0370866Y0396358D02*
D03*
D291*
X0469488Y0397637D02*
D03*
X0512401Y0397637D02*
D03*
X0370767Y0382677D02*
D03*
X0413582Y0397637D02*
D03*
X0365302Y0397637D02*
D03*
X0272638Y0508780D02*
G01*
G75*
D293*
X0290256Y0556811D02*
D03*
X0290256Y0524134D02*
D03*
X0344390Y0524134D02*
D03*
X0344390Y0556811D02*
D03*
D45*
X0335020Y0546575D02*
D03*
X0330689Y0546575D02*
D03*
X0326358Y0546575D02*
D03*
X0322028Y0546575D02*
D03*
X0317697Y0546575D02*
D03*
X0313366Y0546575D02*
D03*
X0309036Y0546575D02*
D03*
X0304705Y0546575D02*
D03*
D145*
X0284351Y0561378D02*
D03*
X0284351Y0567599D02*
D03*
X0279725Y0561378D02*
D03*
X0279725Y0567599D02*
D03*
D311*
X0275197Y0567638D02*
D03*
X0275197Y0561339D02*
D03*
D291*
X0286122Y0562225D02*
D03*
X0313583Y0540276D02*
D03*
X0330906Y0540276D02*
D03*
X0322146Y0540276D02*
D03*
X0292323Y0542914D02*
D03*
X0308957Y0540276D02*
D03*
X0342339Y0542950D02*
D03*
X0278248Y0188976D02*
G01*
G75*
D229*
X0291831Y0244783D02*
D03*
X0291831Y0233366D02*
D03*
X0283760Y0244881D02*
D03*
X0283760Y0233464D02*
D03*
X0320571Y0246456D02*
D03*
X0320571Y0235039D02*
D03*
D21*
X0313642Y0224409D02*
D03*
X0307421Y0224409D02*
D03*
D142*
X0329449Y0217421D02*
D03*
X0320197Y0221161D02*
D03*
D142*
X0329449Y0224901D02*
D03*
D43*
X0305905Y0238425D02*
D03*
X0313386Y0238425D02*
D03*
X0313386Y0229960D02*
D03*
X0309646Y0229960D02*
D03*
D43*
X0305905Y0229960D02*
D03*
D330*
X0340158Y0231102D02*
D03*
D275*
X0279035Y0215157D02*
D03*
D292*
X0335728Y0202067D02*
D03*
X0308366Y0202067D02*
D03*
D107*
X0294193Y0217126D02*
D03*
X0285531Y0217126D02*
D03*
X0285827Y0227165D02*
D03*
X0294488Y0227165D02*
D03*
D201*
X0326870Y0246456D02*
D03*
X0339862Y0246456D02*
D03*
D264*
X0338287Y0231102D02*
D03*
X0338287Y0239763D02*
D03*
X0329616Y0229419D02*
D03*
X0329616Y0238080D02*
D03*
D180*
X0297835Y0217322D02*
D03*
X0304134Y0217322D02*
D03*
X0297933Y0222145D02*
D03*
X0291634Y0222145D02*
D03*
X0308169Y0217126D02*
D03*
X0314468Y0217126D02*
D03*
D145*
X0281890Y0220472D02*
D03*
X0281890Y0226692D02*
D03*
D18*
X0299409Y0247145D02*
D03*
X0299409Y0234153D02*
D03*
D291*
X0303219Y0223002D02*
D03*
X0335532Y0248818D02*
D03*
X0310630Y0221063D02*
D03*
X0281693Y0216633D02*
D03*
X0303150Y0243602D02*
D03*
X0151280Y0166929D02*
G01*
G75*
D341*
X0222737Y0171555D02*
D03*
X0222737Y0174311D02*
D03*
X0222737Y0177756D02*
D03*
X0152560Y0169783D02*
D03*
X0152560Y0179232D02*
D03*
D95*
X0198623Y0175256D02*
D03*
X0198623Y0169035D02*
D03*
X0203938Y0170905D02*
D03*
X0203938Y0177126D02*
D03*
X0194095Y0169035D02*
D03*
X0194095Y0175256D02*
D03*
X0154233Y0176043D02*
D03*
X0154233Y0169823D02*
D03*
X0185138Y0169331D02*
D03*
X0185138Y0175551D02*
D03*
D169*
X0217914Y0177460D02*
D03*
X0217914Y0169980D02*
D03*
X0209449Y0169980D02*
D03*
X0209449Y0173720D02*
D03*
X0174548Y0177953D02*
D03*
X0174548Y0170472D02*
D03*
X0166083Y0170472D02*
D03*
X0166083Y0174212D02*
D03*
D169*
X0209449Y0177460D02*
D03*
X0166083Y0177953D02*
D03*
D224*
X0202166Y0180020D02*
D03*
X0195867Y0180020D02*
D03*
X0192127Y0180807D02*
D03*
X0185827Y0180807D02*
D03*
D311*
X0189666Y0176673D02*
D03*
X0189666Y0170374D02*
D03*
X0160335Y0176673D02*
D03*
X0160335Y0170374D02*
D03*
X0180217Y0176673D02*
D03*
X0180217Y0170374D02*
D03*
X0387795Y0195669D02*
G01*
G75*
D252*
X0450571Y0239763D02*
D03*
X0459823Y0236023D02*
D03*
X0455886Y0215452D02*
D03*
X0446634Y0219193D02*
D03*
D252*
X0450571Y0232283D02*
D03*
X0446634Y0211712D02*
D03*
D195*
X0456890Y0221142D02*
D03*
X0460630Y0230393D02*
D03*
X0458563Y0322953D02*
D03*
X0454822Y0313701D02*
D03*
X0415452Y0208346D02*
D03*
X0411712Y0199094D02*
D03*
X0397736Y0199094D02*
D03*
X0401476Y0208346D02*
D03*
X0425295Y0199094D02*
D03*
X0429035Y0208346D02*
D03*
X0437795Y0231831D02*
D03*
X0441535Y0241083D02*
D03*
X0404823Y0227047D02*
D03*
X0408563Y0236299D02*
D03*
D195*
X0464370Y0221142D02*
D03*
X0451082Y0322953D02*
D03*
X0407972Y0208346D02*
D03*
X0393996Y0208346D02*
D03*
X0421555Y0208346D02*
D03*
X0445275Y0231831D02*
D03*
X0401082Y0236299D02*
D03*
D26*
X0464763Y0231594D02*
D03*
X0464763Y0237893D02*
D03*
X0451476Y0228740D02*
D03*
X0451476Y0222441D02*
D03*
X0494586Y0326142D02*
D03*
X0494586Y0332441D02*
D03*
X0473622Y0329134D02*
D03*
X0473622Y0322834D02*
D03*
X0478248Y0318012D02*
D03*
X0478248Y0324311D02*
D03*
D135*
X0425301Y0198971D02*
D03*
X0481896Y0198971D02*
D03*
X0486840Y0198971D02*
D03*
D157*
X0389651Y0212736D02*
D03*
D229*
X0464960Y0211614D02*
D03*
X0464960Y0200196D02*
D03*
D190*
X0466535Y0306456D02*
D03*
X0448425Y0306456D02*
D03*
X0466535Y0248189D02*
D03*
X0448425Y0248189D02*
D03*
X0475787Y0248189D02*
D03*
X0493897Y0248189D02*
D03*
X0475787Y0306456D02*
D03*
X0493897Y0306456D02*
D03*
X0439173Y0306456D02*
D03*
X0421063Y0306456D02*
D03*
X0393701Y0306456D02*
D03*
X0411811Y0306456D02*
D03*
X0420669Y0248189D02*
D03*
X0438779Y0248189D02*
D03*
X0411023Y0248189D02*
D03*
X0392913Y0248189D02*
D03*
D47*
X0457480Y0306456D02*
D03*
X0457480Y0248189D02*
D03*
X0484842Y0248189D02*
D03*
X0484842Y0306456D02*
D03*
X0430118Y0306456D02*
D03*
X0402756Y0306456D02*
D03*
X0429724Y0248189D02*
D03*
X0401968Y0248189D02*
D03*
D295*
X0457480Y0282047D02*
D03*
X0457480Y0272598D02*
D03*
X0484842Y0272598D02*
D03*
X0484842Y0282047D02*
D03*
X0430118Y0282047D02*
D03*
X0402756Y0282047D02*
D03*
X0429724Y0272598D02*
D03*
X0401968Y0272598D02*
D03*
D231*
X0419389Y0272697D02*
D03*
X0412303Y0272697D02*
D03*
X0412303Y0282736D02*
D03*
X0419389Y0282736D02*
D03*
X0398425Y0319252D02*
D03*
X0391338Y0319252D02*
D03*
X0391338Y0329291D02*
D03*
X0398425Y0329291D02*
D03*
X0475098Y0282244D02*
D03*
X0468011Y0282244D02*
D03*
X0468011Y0272204D02*
D03*
X0475098Y0272204D02*
D03*
D148*
X0419389Y0276141D02*
D03*
X0419389Y0279291D02*
D03*
X0412303Y0279291D02*
D03*
X0412303Y0276141D02*
D03*
X0398425Y0322697D02*
D03*
X0398425Y0325846D02*
D03*
X0391338Y0325846D02*
D03*
X0391338Y0322697D02*
D03*
X0468011Y0275649D02*
D03*
X0468011Y0278799D02*
D03*
X0475098Y0278799D02*
D03*
X0475098Y0275649D02*
D03*
D317*
X0393228Y0339330D02*
D03*
X0398228Y0339330D02*
D03*
X0403228Y0339330D02*
D03*
X0408228Y0339330D02*
D03*
X0413228Y0339330D02*
D03*
X0418228Y0339330D02*
D03*
X0423228Y0339330D02*
D03*
X0428228Y0339330D02*
D03*
X0393228Y0358228D02*
D03*
X0398228Y0358228D02*
D03*
X0403228Y0358228D02*
D03*
X0408228Y0358228D02*
D03*
X0413228Y0358228D02*
D03*
X0418228Y0358228D02*
D03*
X0423228Y0358228D02*
D03*
X0428228Y0358228D02*
D03*
X0469665Y0358425D02*
D03*
X0464665Y0358425D02*
D03*
X0459665Y0358425D02*
D03*
X0454665Y0358425D02*
D03*
X0449665Y0358425D02*
D03*
X0444665Y0358425D02*
D03*
X0439665Y0358425D02*
D03*
X0434665Y0358425D02*
D03*
X0469665Y0339527D02*
D03*
X0464665Y0339527D02*
D03*
X0459665Y0339527D02*
D03*
X0454665Y0339527D02*
D03*
X0449665Y0339527D02*
D03*
X0444665Y0339527D02*
D03*
X0439665Y0339527D02*
D03*
X0434665Y0339527D02*
D03*
X0476260Y0339527D02*
D03*
X0481260Y0339527D02*
D03*
X0486260Y0339527D02*
D03*
X0491260Y0339527D02*
D03*
X0476260Y0358425D02*
D03*
X0481260Y0358425D02*
D03*
X0486260Y0358425D02*
D03*
X0491260Y0358425D02*
D03*
D328*
X0473819Y0214350D02*
D03*
X0473819Y0209350D02*
D03*
X0473819Y0204350D02*
D03*
X0473819Y0199350D02*
D03*
X0492717Y0214350D02*
D03*
X0492717Y0209350D02*
D03*
X0492717Y0204350D02*
D03*
X0492717Y0199350D02*
D03*
X0490945Y0221201D02*
D03*
X0490945Y0226200D02*
D03*
X0490945Y0231200D02*
D03*
X0490945Y0236201D02*
D03*
X0472047Y0221201D02*
D03*
X0472047Y0226200D02*
D03*
X0472047Y0231200D02*
D03*
X0472047Y0236201D02*
D03*
D16*
X0392716Y0220728D02*
D03*
X0392716Y0213248D02*
D03*
X0399606Y0213248D02*
D03*
X0399606Y0220728D02*
D03*
X0406496Y0220728D02*
D03*
X0406496Y0213248D02*
D03*
X0413386Y0213248D02*
D03*
X0413386Y0220728D02*
D03*
X0420275Y0220728D02*
D03*
X0420275Y0213248D02*
D03*
X0427165Y0213248D02*
D03*
X0427165Y0220728D02*
D03*
X0434055Y0220728D02*
D03*
X0434055Y0213248D02*
D03*
X0440945Y0213248D02*
D03*
X0440945Y0220728D02*
D03*
X0453445Y0198976D02*
D03*
X0453445Y0206456D02*
D03*
X0446260Y0206555D02*
D03*
X0446260Y0199074D02*
D03*
D18*
X0431201Y0227027D02*
D03*
X0431201Y0240019D02*
D03*
X0393996Y0239626D02*
D03*
X0393996Y0226634D02*
D03*
X0415157Y0227027D02*
D03*
X0415157Y0240019D02*
D03*
X0423326Y0240019D02*
D03*
X0423326Y0227027D02*
D03*
D224*
X0440748Y0206653D02*
D03*
X0434449Y0206653D02*
D03*
X0434350Y0201043D02*
D03*
X0440649Y0201043D02*
D03*
X0438287Y0227618D02*
D03*
X0444586Y0227618D02*
D03*
X0469162Y0316689D02*
D03*
X0462863Y0316689D02*
D03*
X0409153Y0241004D02*
D03*
X0402854Y0241004D02*
D03*
D270*
X0482185Y0331161D02*
D03*
X0489665Y0331161D02*
D03*
X0117717Y0350295D02*
G01*
G75*
D67*
X0120276Y0351379D02*
D03*
X0124902Y0351379D02*
D03*
X0148032Y0351379D02*
D03*
X0145040Y0351379D02*
D03*
X0140414Y0351379D02*
D03*
X0129528Y0351379D02*
D03*
X0135788Y0351379D02*
D03*
X0132481Y0351379D02*
D03*
D281*
X0144765Y0368996D02*
D03*
X0144765Y0371555D02*
D03*
X0144765Y0374114D02*
D03*
X0144765Y0376673D02*
D03*
X0144765Y0379232D02*
D03*
X0144765Y0381791D02*
D03*
X0144765Y0384350D02*
D03*
X0144765Y0386909D02*
D03*
X0144765Y0389468D02*
D03*
X0144765Y0392027D02*
D03*
X0144765Y0394586D02*
D03*
X0144765Y0397145D02*
D03*
X0121772Y0368996D02*
D03*
X0121772Y0371555D02*
D03*
X0121772Y0374114D02*
D03*
X0121772Y0376673D02*
D03*
X0121772Y0379232D02*
D03*
X0121772Y0381791D02*
D03*
X0121772Y0384350D02*
D03*
X0121772Y0386909D02*
D03*
X0121772Y0389468D02*
D03*
X0121772Y0392027D02*
D03*
X0121772Y0394586D02*
D03*
X0121772Y0397145D02*
D03*
D58*
X0121792Y0401082D02*
D03*
X0128013Y0401082D02*
D03*
X0138544Y0401082D02*
D03*
X0132323Y0401082D02*
D03*
D180*
X0140552Y0363878D02*
D03*
X0146851Y0363878D02*
D03*
X0127560Y0363484D02*
D03*
X0133859Y0363484D02*
D03*
D311*
X0135635Y0352854D02*
D03*
X0135635Y0359153D02*
D03*
X0129312Y0359153D02*
D03*
X0129312Y0352854D02*
D03*
X0124686Y0352854D02*
D03*
X0124686Y0359153D02*
D03*
X0144863Y0359055D02*
D03*
X0144863Y0352756D02*
D03*
X0120060Y0359153D02*
D03*
X0120060Y0352854D02*
D03*
X0140257Y0359153D02*
D03*
X0140257Y0352854D02*
D03*
D291*
X0124016Y0399803D02*
D03*
X0140060Y0398622D02*
D03*
X0147343Y0371555D02*
D03*
X0142186Y0374114D02*
D03*
X0140414Y0380512D02*
D03*
X0147343Y0379232D02*
D03*
X0140119Y0383858D02*
D03*
X0139272Y0387303D02*
D03*
X0147343Y0389468D02*
D03*
X0140119Y0391141D02*
D03*
X0437106Y0403150D02*
G01*
G75*
D70*
X0437972Y0404626D02*
D03*
D344*
X0458346Y0445571D02*
D03*
D104*
X0443504Y0451969D02*
D03*
D58*
X0440492Y0435138D02*
D03*
X0446712Y0435138D02*
D03*
D201*
X0443602Y0449607D02*
D03*
X0456594Y0449607D02*
D03*
X0456791Y0441437D02*
D03*
X0443799Y0441437D02*
D03*
D180*
X0450787Y0435276D02*
D03*
X0457086Y0435276D02*
D03*
D317*
X0455630Y0428150D02*
D03*
X0450630Y0428150D02*
D03*
X0445630Y0428150D02*
D03*
X0440630Y0428150D02*
D03*
X0455630Y0409253D02*
D03*
X0450630Y0409253D02*
D03*
X0445630Y0409253D02*
D03*
X0440630Y0409253D02*
D03*
D291*
X0452067Y0415748D02*
D03*
X0455610Y0415748D02*
D03*
X0440551Y0415748D02*
D03*
X0445571Y0415748D02*
D03*
X0447756Y0441044D02*
D03*
X0169173Y0412913D02*
G01*
G75*
D341*
X0212480Y0413996D02*
D03*
D70*
X0171732Y0414193D02*
D03*
X0173701Y0414193D02*
D03*
D205*
X0180590Y0425925D02*
D03*
X0176850Y0416673D02*
D03*
D205*
X0173110Y0425925D02*
D03*
D328*
X0188149Y0437539D02*
D03*
X0188149Y0432539D02*
D03*
X0188149Y0427539D02*
D03*
X0188149Y0422539D02*
D03*
X0207047Y0437539D02*
D03*
X0207047Y0432539D02*
D03*
X0207047Y0427539D02*
D03*
X0207047Y0422539D02*
D03*
D58*
X0203858Y0417244D02*
D03*
X0210078Y0417244D02*
D03*
X0195512Y0417244D02*
D03*
X0189291Y0417244D02*
D03*
D224*
X0173700Y0430826D02*
D03*
X0180000Y0430826D02*
D03*
D291*
X0184330Y0414783D02*
D03*
X0200374Y0437322D02*
D03*
X0200669Y0423346D02*
D03*
X0199488Y0418326D02*
D03*
X0196043Y0420393D02*
D03*
X0527559Y0317717D02*
G01*
G75*
D70*
X0526476Y0361024D02*
D03*
D341*
X0526279Y0320276D02*
D03*
X0526279Y0322245D02*
D03*
D358*
X0514547Y0329134D02*
D03*
X0523799Y0325394D02*
D03*
D358*
X0514547Y0321654D02*
D03*
D317*
X0502933Y0336693D02*
D03*
X0507933Y0336693D02*
D03*
X0512933Y0336693D02*
D03*
X0517933Y0336693D02*
D03*
X0502933Y0355591D02*
D03*
X0507933Y0355591D02*
D03*
X0512933Y0355591D02*
D03*
X0517933Y0355591D02*
D03*
D359*
X0523228Y0352402D02*
D03*
X0523228Y0358622D02*
D03*
X0523228Y0344056D02*
D03*
X0523228Y0337835D02*
D03*
D360*
X0509646Y0322244D02*
D03*
X0509646Y0328544D02*
D03*
D291*
X0525689Y0332874D02*
D03*
X0503150Y0348918D02*
D03*
X0517126Y0349213D02*
D03*
X0522146Y0348032D02*
D03*
X0520079Y0344587D02*
D03*
X0270571Y0426476D02*
G01*
G75*
D210*
X0318228Y0437106D02*
D03*
X0318228Y0460531D02*
D03*
X0308228Y0437106D02*
D03*
X0308228Y0460531D02*
D03*
X0298228Y0437106D02*
D03*
X0298228Y0460531D02*
D03*
X0288228Y0437106D02*
D03*
X0288228Y0460531D02*
D03*
X0278228Y0437106D02*
D03*
X0278228Y0460531D02*
D03*
D21*
X0328287Y0450196D02*
D03*
X0334508Y0450196D02*
D03*
X0330846Y0438189D02*
D03*
X0337067Y0438189D02*
D03*
D201*
X0338484Y0444193D02*
D03*
X0325492Y0444193D02*
D03*
D180*
X0337008Y0433563D02*
D03*
X0330709Y0433563D02*
D03*
D195*
X0331004Y0464055D02*
D03*
X0327264Y0454803D02*
D03*
D195*
X0334744Y0454803D02*
D03*
D95*
X0326378Y0433012D02*
D03*
X0326378Y0439232D02*
D03*
D66*
X0318228Y0453819D02*
D03*
X0318228Y0443819D02*
D03*
X0308228Y0453819D02*
D03*
X0308228Y0443819D02*
D03*
X0298228Y0453819D02*
D03*
X0298228Y0443819D02*
D03*
X0288228Y0453819D02*
D03*
X0288228Y0443819D02*
D03*
X0278228Y0453819D02*
D03*
D248*
X0278228Y0443819D02*
D03*
X0529921Y0381988D02*
%LPD*%
G01*
G36*
G01*
X0566220Y0313395D02*
X0566220Y0314754D01*
G75*
G02*
X0566801Y0315334I0000581J0000000D01*
G01*
X0567962Y0315334D01*
G75*
G02*
X0568543Y0314754I0000000J-000581D01*
G01*
X0568543Y0313395D01*
G75*
G02*
X0567962Y0312815I-000581J0000000D01*
G01*
X0566801Y0312815D01*
G75*
G02*
X0566220Y0313395I0000000J0000581D01*
G01*
G37*
G36*
G01*
X0570039Y0313395D02*
X0570039Y0314754D01*
G75*
G02*
X0570620Y0315334I0000581J0000000D01*
G01*
X0571781Y0315334D01*
G75*
G02*
X0572362Y0314754I0000000J-000581D01*
G01*
X0572362Y0313395D01*
G75*
G02*
X0571781Y0312815I-000581J0000000D01*
G01*
X0570620Y0312815D01*
G75*
G02*
X0570039Y0313395I0000000J0000581D01*
G01*
G37*
G36*
G01*
X0541563Y0278573D02*
X0540204Y0278573D01*
G75*
G02*
X0539624Y0279153I0000000J0000581D01*
G01*
X0539624Y0280315D01*
G75*
G02*
X0540204Y0280895I0000581J0000000D01*
G01*
X0541563Y0280895D01*
G75*
G02*
X0542143Y0280315I0000000J-000581D01*
G01*
X0542143Y0279153D01*
G75*
G02*
X0541563Y0278573I-000581J0000000D01*
G01*
G37*
G36*
G01*
X0541563Y0282392D02*
X0540204Y0282392D01*
G75*
G02*
X0539624Y0282972I0000000J0000581D01*
G01*
X0539624Y0284134D01*
G75*
G02*
X0540204Y0284714I0000581J0000000D01*
G01*
X0541563Y0284714D01*
G75*
G02*
X0542143Y0284134I0000000J-000581D01*
G01*
X0542143Y0282972D01*
G75*
G02*
X0541563Y0282392I-000581J0000000D01*
G01*
G37*
G36*
G01*
X0566454Y0275964D02*
X0567813Y0275964D01*
G75*
G02*
X0568393Y0275384I0000000J-000581D01*
G01*
X0568393Y0274222D01*
G75*
G02*
X0567813Y0273642I-000581J0000000D01*
G01*
X0566454Y0273642D01*
G75*
G02*
X0565874Y0274222I0000000J0000581D01*
G01*
X0565874Y0275384D01*
G75*
G02*
X0566454Y0275964I0000581J0000000D01*
G01*
G37*
G36*
G01*
X0566454Y0272145D02*
X0567813Y0272145D01*
G75*
G02*
X0568393Y0271565I0000000J-000581D01*
G01*
X0568393Y0270403D01*
G75*
G02*
X0567813Y0269823I-000581J0000000D01*
G01*
X0566454Y0269823D01*
G75*
G02*
X0565874Y0270403I0000000J0000581D01*
G01*
X0565874Y0271565D01*
G75*
G02*
X0566454Y0272145I0000581J0000000D01*
G01*
G37*
G36*
G01*
X0550073Y0375988D02*
X0551431Y0375988D01*
G75*
G02*
X0552012Y0375407I0000000J-000581D01*
G01*
X0552012Y0374246D01*
G75*
G02*
X0551431Y0373665I-000581J0000000D01*
G01*
X0550073Y0373665D01*
G75*
G02*
X0549492Y0374246I0000000J0000581D01*
G01*
X0549492Y0375407D01*
G75*
G02*
X0550073Y0375988I0000581J0000000D01*
G01*
G37*
G36*
G01*
X0550073Y0372169D02*
X0551431Y0372169D01*
G75*
G02*
X0552012Y0371588I0000000J-000581D01*
G01*
X0552012Y0370427D01*
G75*
G02*
X0551431Y0369846I-000581J0000000D01*
G01*
X0550073Y0369846D01*
G75*
G02*
X0549492Y0370427I0000000J0000581D01*
G01*
X0549492Y0371588D01*
G75*
G02*
X0550073Y0372169I0000581J0000000D01*
G01*
G37*
G36*
G01*
X0564075Y0362426D02*
X0564075Y0360408D01*
G75*
G02*
X0563213Y0359547I-000861J0000000D01*
G01*
X0561491Y0359547D01*
G75*
G02*
X0560630Y0360408I0000000J0000861D01*
G01*
X0560630Y0362426D01*
G75*
G02*
X0561491Y0363287I0000861J0000000D01*
G01*
X0563213Y0363287D01*
G75*
G02*
X0564075Y0362426I0000000J-000861D01*
G01*
G37*
G36*
G01*
X0557874Y0362426D02*
X0557874Y0360408D01*
G75*
G02*
X0557013Y0359547I-000861J0000000D01*
G01*
X0555290Y0359547D01*
G75*
G02*
X0554429Y0360408I0000000J0000861D01*
G01*
X0554429Y0362426D01*
G75*
G02*
X0555290Y0363287I0000861J0000000D01*
G01*
X0557013Y0363287D01*
G75*
G02*
X0557874Y0362426I0000000J-000861D01*
G01*
G37*
G36*
G01*
X0567125Y0291716D02*
X0569142Y0291716D01*
G75*
G02*
X0570004Y0290855I0000000J-000861D01*
G01*
X0570004Y0289133D01*
G75*
G02*
X0569142Y0288271I-000861J0000000D01*
G01*
X0567125Y0288271D01*
G75*
G02*
X0566264Y0289133I0000000J0000861D01*
G01*
X0566264Y0290855D01*
G75*
G02*
X0567125Y0291716I0000861J0000000D01*
G01*
G37*
G36*
G01*
X0567125Y0285516D02*
X0569142Y0285516D01*
G75*
G02*
X0570004Y0284654I0000000J-000861D01*
G01*
X0570004Y0282932D01*
G75*
G02*
X0569142Y0282071I-000861J0000000D01*
G01*
X0567125Y0282071D01*
G75*
G02*
X0566264Y0282932I0000000J0000861D01*
G01*
X0566264Y0284654D01*
G75*
G02*
X0567125Y0285516I0000861J0000000D01*
G01*
G37*
G36*
G01*
X0541563Y0286323D02*
X0540204Y0286323D01*
G75*
G02*
X0539624Y0286903I0000000J0000581D01*
G01*
X0539624Y0288065D01*
G75*
G02*
X0540204Y0288645I0000581J0000000D01*
G01*
X0541563Y0288645D01*
G75*
G02*
X0542143Y0288065I0000000J-000581D01*
G01*
X0542143Y0286903D01*
G75*
G02*
X0541563Y0286323I-000581J0000000D01*
G01*
G37*
G36*
G01*
X0541563Y0290142D02*
X0540204Y0290142D01*
G75*
G02*
X0539624Y0290722I0000000J0000581D01*
G01*
X0539624Y0291884D01*
G75*
G02*
X0540204Y0292464I0000581J0000000D01*
G01*
X0541563Y0292464D01*
G75*
G02*
X0542143Y0291884I0000000J-000581D01*
G01*
X0542143Y0290722D01*
G75*
G02*
X0541563Y0290142I-000581J0000000D01*
G01*
G37*
G36*
G01*
X0558063Y0274214D02*
X0558063Y0275573D01*
G75*
G02*
X0558643Y0276153I0000581J0000000D01*
G01*
X0559805Y0276153D01*
G75*
G02*
X0560386Y0275573I0000000J-000581D01*
G01*
X0560386Y0274214D01*
G75*
G02*
X0559805Y0273634I-000581J0000000D01*
G01*
X0558643Y0273634D01*
G75*
G02*
X0558063Y0274214I0000000J0000581D01*
G01*
G37*
G36*
G01*
X0561882Y0274214D02*
X0561882Y0275573D01*
G75*
G02*
X0562462Y0276153I0000581J0000000D01*
G01*
X0563624Y0276153D01*
G75*
G02*
X0564204Y0275573I0000000J-000581D01*
G01*
X0564204Y0274214D01*
G75*
G02*
X0563624Y0273634I-000581J0000000D01*
G01*
X0562462Y0273634D01*
G75*
G02*
X0561882Y0274214I0000000J0000581D01*
G01*
G37*
G36*
G01*
X0580039Y0280502D02*
X0580039Y0279144D01*
G75*
G02*
X0579458Y0278563I-000581J0000000D01*
G01*
X0578297Y0278563D01*
G75*
G02*
X0577716Y0279144I0000000J0000581D01*
G01*
X0577716Y0280502D01*
G75*
G02*
X0578297Y0281082I0000581J0000000D01*
G01*
X0579458Y0281082D01*
G75*
G02*
X0580039Y0280502I0000000J-000581D01*
G01*
G37*
G36*
G01*
X0576220Y0280502D02*
X0576220Y0279144D01*
G75*
G02*
X0575640Y0278563I-000581J0000000D01*
G01*
X0574478Y0278563D01*
G75*
G02*
X0573897Y0279144I0000000J0000581D01*
G01*
X0573897Y0280502D01*
G75*
G02*
X0574478Y0281082I0000581J0000000D01*
G01*
X0575640Y0281082D01*
G75*
G02*
X0576220Y0280502I0000000J-000581D01*
G01*
G37*
G36*
G01*
X0583376Y0285059D02*
X0584734Y0285059D01*
G75*
G02*
X0585315Y0284478I0000000J-000581D01*
G01*
X0585315Y0283317D01*
G75*
G02*
X0584734Y0282736I-000581J0000000D01*
G01*
X0583376Y0282736D01*
G75*
G02*
X0582795Y0283317I0000000J0000581D01*
G01*
X0582795Y0284478D01*
G75*
G02*
X0583376Y0285059I0000581J0000000D01*
G01*
G37*
G36*
G01*
X0583376Y0281240D02*
X0584734Y0281240D01*
G75*
G02*
X0585315Y0280659I0000000J-000581D01*
G01*
X0585315Y0279498D01*
G75*
G02*
X0584734Y0278917I-000581J0000000D01*
G01*
X0583376Y0278917D01*
G75*
G02*
X0582795Y0279498I0000000J0000581D01*
G01*
X0582795Y0280659D01*
G75*
G02*
X0583376Y0281240I0000581J0000000D01*
G01*
G37*
G36*
G01*
X0584557Y0309862D02*
X0585915Y0309862D01*
G75*
G02*
X0586496Y0309281I0000000J-000581D01*
G01*
X0586496Y0308120D01*
G75*
G02*
X0585915Y0307539I-000581J0000000D01*
G01*
X0584557Y0307539D01*
G75*
G02*
X0583976Y0308120I0000000J0000581D01*
G01*
X0583976Y0309281D01*
G75*
G02*
X0584557Y0309862I0000581J0000000D01*
G01*
G37*
G36*
G01*
X0584557Y0306043D02*
X0585915Y0306043D01*
G75*
G02*
X0586496Y0305462I0000000J-000581D01*
G01*
X0586496Y0304301D01*
G75*
G02*
X0585915Y0303720I-000581J0000000D01*
G01*
X0584557Y0303720D01*
G75*
G02*
X0583976Y0304301I0000000J0000581D01*
G01*
X0583976Y0305462D01*
G75*
G02*
X0584557Y0306043I0000581J0000000D01*
G01*
G37*
G36*
G01*
X0541563Y0294073D02*
X0540204Y0294073D01*
G75*
G02*
X0539624Y0294653I0000000J0000581D01*
G01*
X0539624Y0295815D01*
G75*
G02*
X0540204Y0296395I0000581J0000000D01*
G01*
X0541563Y0296395D01*
G75*
G02*
X0542143Y0295815I0000000J-000581D01*
G01*
X0542143Y0294653D01*
G75*
G02*
X0541563Y0294073I-000581J0000000D01*
G01*
G37*
G36*
G01*
X0541563Y0297892D02*
X0540204Y0297892D01*
G75*
G02*
X0539624Y0298472I0000000J0000581D01*
G01*
X0539624Y0299634D01*
G75*
G02*
X0540204Y0300214I0000581J0000000D01*
G01*
X0541563Y0300214D01*
G75*
G02*
X0542143Y0299634I0000000J-000581D01*
G01*
X0542143Y0298472D01*
G75*
G02*
X0541563Y0297892I-000581J0000000D01*
G01*
G37*
G36*
G01*
X0541563Y0301823D02*
X0540204Y0301823D01*
G75*
G02*
X0539624Y0302403I0000000J0000581D01*
G01*
X0539624Y0303565D01*
G75*
G02*
X0540204Y0304145I0000581J0000000D01*
G01*
X0541563Y0304145D01*
G75*
G02*
X0542143Y0303565I0000000J-000581D01*
G01*
X0542143Y0302403D01*
G75*
G02*
X0541563Y0301823I-000581J0000000D01*
G01*
G37*
G36*
G01*
X0541563Y0305642D02*
X0540204Y0305642D01*
G75*
G02*
X0539624Y0306222I0000000J0000581D01*
G01*
X0539624Y0307384D01*
G75*
G02*
X0540204Y0307964I0000581J0000000D01*
G01*
X0541563Y0307964D01*
G75*
G02*
X0542143Y0307384I0000000J-000581D01*
G01*
X0542143Y0306222D01*
G75*
G02*
X0541563Y0305642I-000581J0000000D01*
G01*
G37*
G36*
G01*
X0566063Y0278214D02*
X0566063Y0279573D01*
G75*
G02*
X0566643Y0280153I0000581J0000000D01*
G01*
X0567805Y0280153D01*
G75*
G02*
X0568386Y0279573I0000000J-000581D01*
G01*
X0568386Y0278214D01*
G75*
G02*
X0567805Y0277634I-000581J0000000D01*
G01*
X0566643Y0277634D01*
G75*
G02*
X0566063Y0278214I0000000J0000581D01*
G01*
G37*
G36*
G01*
X0569882Y0278214D02*
X0569882Y0279573D01*
G75*
G02*
X0570462Y0280153I0000581J0000000D01*
G01*
X0571624Y0280153D01*
G75*
G02*
X0572204Y0279573I0000000J-000581D01*
G01*
X0572204Y0278214D01*
G75*
G02*
X0571624Y0277634I-000581J0000000D01*
G01*
X0570462Y0277634D01*
G75*
G02*
X0569882Y0278214I0000000J0000581D01*
G01*
G37*
D109*
X0556112Y0367980D03*
X0563592Y0367980D03*
X0559852Y0375854D03*
D364*
X0561811Y0304508D03*
X0559252Y0304508D03*
X0556693Y0304508D03*
X0554134Y0304508D03*
X0551575Y0304508D03*
X0549015Y0304508D03*
X0546456Y0304508D03*
X0546456Y0281279D03*
X0549015Y0281279D03*
X0551575Y0281279D03*
X0554134Y0281279D03*
X0556693Y0281279D03*
X0559252Y0281279D03*
X0561811Y0281279D03*
G36*
G01*
X0558063Y0270214D02*
X0558063Y0271573D01*
G75*
G02*
X0558643Y0272153I0000581J0000000D01*
G01*
X0559805Y0272153D01*
G75*
G02*
X0560386Y0271573I0000000J-000581D01*
G01*
X0560386Y0270214D01*
G75*
G02*
X0559805Y0269634I-000581J0000000D01*
G01*
X0558643Y0269634D01*
G75*
G02*
X0558063Y0270214I0000000J0000581D01*
G01*
G37*
G36*
G01*
X0561882Y0270214D02*
X0561882Y0271573D01*
G75*
G02*
X0562462Y0272153I0000581J0000000D01*
G01*
X0563624Y0272153D01*
G75*
G02*
X0564204Y0271573I0000000J-000581D01*
G01*
X0564204Y0270214D01*
G75*
G02*
X0563624Y0269634I-000581J0000000D01*
G01*
X0562462Y0269634D01*
G75*
G02*
X0561882Y0270214I0000000J0000581D01*
G01*
G37*
G36*
G01*
X0580817Y0317342D02*
X0582175Y0317342D01*
G75*
G02*
X0582756Y0316762I0000000J-000581D01*
G01*
X0582756Y0315600D01*
G75*
G02*
X0582175Y0315019I-000581J0000000D01*
G01*
X0580817Y0315019D01*
G75*
G02*
X0580236Y0315600I0000000J0000581D01*
G01*
X0580236Y0316762D01*
G75*
G02*
X0580817Y0317342I0000581J0000000D01*
G01*
G37*
G36*
G01*
X0580817Y0313523D02*
X0582175Y0313523D01*
G75*
G02*
X0582756Y0312943I0000000J-000581D01*
G01*
X0582756Y0311781D01*
G75*
G02*
X0582175Y0311201I-000581J0000000D01*
G01*
X0580817Y0311201D01*
G75*
G02*
X0580236Y0311781I0000000J0000581D01*
G01*
X0580236Y0312943D01*
G75*
G02*
X0580817Y0313523I0000581J0000000D01*
G01*
G37*
G36*
G01*
X0585915Y0311201D02*
X0584557Y0311201D01*
G75*
G02*
X0583976Y0311781I0000000J0000581D01*
G01*
X0583976Y0312943D01*
G75*
G02*
X0584557Y0313523I0000581J0000000D01*
G01*
X0585915Y0313523D01*
G75*
G02*
X0586496Y0312943I0000000J-000581D01*
G01*
X0586496Y0311781D01*
G75*
G02*
X0585915Y0311201I-000581J0000000D01*
G01*
G37*
G36*
G01*
X0585915Y0315019D02*
X0584557Y0315019D01*
G75*
G02*
X0583976Y0315600I0000000J0000581D01*
G01*
X0583976Y0316762D01*
G75*
G02*
X0584557Y0317342I0000581J0000000D01*
G01*
X0585915Y0317342D01*
G75*
G02*
X0586496Y0316762I0000000J-000581D01*
G01*
X0586496Y0315600D01*
G75*
G02*
X0585915Y0315019I-000581J0000000D01*
G01*
G37*
G36*
G01*
X0564882Y0314754D02*
X0564882Y0313395D01*
G75*
G02*
X0564301Y0312815I-000581J0000000D01*
G01*
X0563140Y0312815D01*
G75*
G02*
X0562559Y0313395I0000000J0000581D01*
G01*
X0562559Y0314754D01*
G75*
G02*
X0563140Y0315334I0000581J0000000D01*
G01*
X0564301Y0315334D01*
G75*
G02*
X0564882Y0314754I0000000J-000581D01*
G01*
G37*
G36*
G01*
X0561063Y0314754D02*
X0561063Y0313395D01*
G75*
G02*
X0560482Y0312815I-000581J0000000D01*
G01*
X0559321Y0312815D01*
G75*
G02*
X0558740Y0313395I0000000J0000581D01*
G01*
X0558740Y0314754D01*
G75*
G02*
X0559321Y0315334I0000581J0000000D01*
G01*
X0560482Y0315334D01*
G75*
G02*
X0561063Y0314754I0000000J-000581D01*
G01*
G37*
G36*
G01*
X0575078Y0268317D02*
X0575078Y0269675D01*
G75*
G02*
X0575659Y0270256I0000581J0000000D01*
G01*
X0576821Y0270256D01*
G75*
G02*
X0577401Y0269675I0000000J-000581D01*
G01*
X0577401Y0268317D01*
G75*
G02*
X0576821Y0267736I-000581J0000000D01*
G01*
X0575659Y0267736D01*
G75*
G02*
X0575078Y0268317I0000000J0000581D01*
G01*
G37*
G36*
G01*
X0578897Y0268317D02*
X0578897Y0269675D01*
G75*
G02*
X0579478Y0270256I0000581J0000000D01*
G01*
X0580640Y0270256D01*
G75*
G02*
X0581220Y0269675I0000000J-000581D01*
G01*
X0581220Y0268317D01*
G75*
G02*
X0580640Y0267736I-000581J0000000D01*
G01*
X0579478Y0267736D01*
G75*
G02*
X0578897Y0268317I0000000J0000581D01*
G01*
G37*
G36*
G01*
X0584557Y0342874D02*
X0585915Y0342874D01*
G75*
G02*
X0586496Y0342293I0000000J-000581D01*
G01*
X0586496Y0341132D01*
G75*
G02*
X0585915Y0340551I-000581J0000000D01*
G01*
X0584557Y0340551D01*
G75*
G02*
X0583976Y0341132I0000000J0000581D01*
G01*
X0583976Y0342293D01*
G75*
G02*
X0584557Y0342874I0000581J0000000D01*
G01*
G37*
G36*
G01*
X0584557Y0339055D02*
X0585915Y0339055D01*
G75*
G02*
X0586496Y0338474I0000000J-000581D01*
G01*
X0586496Y0337313D01*
G75*
G02*
X0585915Y0336732I-000581J0000000D01*
G01*
X0584557Y0336732D01*
G75*
G02*
X0583976Y0337313I0000000J0000581D01*
G01*
X0583976Y0338474D01*
G75*
G02*
X0584557Y0339055I0000581J0000000D01*
G01*
G37*
G36*
G01*
X0548740Y0319478D02*
X0548740Y0318120D01*
G75*
G02*
X0548159Y0317539I-000581J0000000D01*
G01*
X0546998Y0317539D01*
G75*
G02*
X0546417Y0318120I0000000J0000581D01*
G01*
X0546417Y0319478D01*
G75*
G02*
X0546998Y0320059I0000581J0000000D01*
G01*
X0548159Y0320059D01*
G75*
G02*
X0548740Y0319478I0000000J-000581D01*
G01*
G37*
G36*
G01*
X0544921Y0319478D02*
X0544921Y0318120D01*
G75*
G02*
X0544340Y0317539I-000581J0000000D01*
G01*
X0543179Y0317539D01*
G75*
G02*
X0542598Y0318120I0000000J0000581D01*
G01*
X0542598Y0319478D01*
G75*
G02*
X0543179Y0320059I0000581J0000000D01*
G01*
X0544340Y0320059D01*
G75*
G02*
X0544921Y0319478I0000000J-000581D01*
G01*
G37*
G36*
G01*
X0577834Y0353947D02*
X0577834Y0355305D01*
G75*
G02*
X0578415Y0355886I0000581J0000000D01*
G01*
X0579577Y0355886D01*
G75*
G02*
X0580157Y0355305I0000000J-000581D01*
G01*
X0580157Y0353947D01*
G75*
G02*
X0579577Y0353366I-000581J0000000D01*
G01*
X0578415Y0353366D01*
G75*
G02*
X0577834Y0353947I0000000J0000581D01*
G01*
G37*
G36*
G01*
X0581653Y0353947D02*
X0581653Y0355305D01*
G75*
G02*
X0582234Y0355886I0000581J0000000D01*
G01*
X0583395Y0355886D01*
G75*
G02*
X0583976Y0355305I0000000J-000581D01*
G01*
X0583976Y0353947D01*
G75*
G02*
X0583395Y0353366I-000581J0000000D01*
G01*
X0582234Y0353366D01*
G75*
G02*
X0581653Y0353947I0000000J0000581D01*
G01*
G37*
D362*
X0579429Y0244271D03*
D361*
X0554626Y0253248D03*
D362*
X0579429Y0262224D03*
G36*
G01*
X0536919Y0275472D02*
X0538277Y0275472D01*
G75*
G02*
X0538858Y0274892I0000000J-000581D01*
G01*
X0538858Y0273730D01*
G75*
G02*
X0538277Y0273149I-000581J0000000D01*
G01*
X0536919Y0273149D01*
G75*
G02*
X0536338Y0273730I0000000J0000581D01*
G01*
X0536338Y0274892D01*
G75*
G02*
X0536919Y0275472I0000581J0000000D01*
G01*
G37*
G36*
G01*
X0536919Y0271653D02*
X0538277Y0271653D01*
G75*
G02*
X0538858Y0271073I0000000J-000581D01*
G01*
X0538858Y0269911D01*
G75*
G02*
X0538277Y0269331I-000581J0000000D01*
G01*
X0536919Y0269331D01*
G75*
G02*
X0536338Y0269911I0000000J0000581D01*
G01*
X0536338Y0271073D01*
G75*
G02*
X0536919Y0271653I0000581J0000000D01*
G01*
G37*
G36*
G01*
X0542598Y0313592D02*
X0542598Y0314951D01*
G75*
G02*
X0543179Y0315531I0000581J0000000D01*
G01*
X0544340Y0315531D01*
G75*
G02*
X0544921Y0314951I0000000J-000581D01*
G01*
X0544921Y0313592D01*
G75*
G02*
X0544340Y0313012I-000581J0000000D01*
G01*
X0543179Y0313012D01*
G75*
G02*
X0542598Y0313592I0000000J0000581D01*
G01*
G37*
G36*
G01*
X0546417Y0313592D02*
X0546417Y0314951D01*
G75*
G02*
X0546998Y0315531I0000581J0000000D01*
G01*
X0548159Y0315531D01*
G75*
G02*
X0548740Y0314951I0000000J-000581D01*
G01*
X0548740Y0313592D01*
G75*
G02*
X0548159Y0313012I-000581J0000000D01*
G01*
X0546998Y0313012D01*
G75*
G02*
X0546417Y0313592I0000000J0000581D01*
G01*
G37*
G36*
G01*
X0583179Y0277244D02*
X0584537Y0277244D01*
G75*
G02*
X0585118Y0276663I0000000J-000581D01*
G01*
X0585118Y0275502D01*
G75*
G02*
X0584537Y0274921I-000581J0000000D01*
G01*
X0583179Y0274921D01*
G75*
G02*
X0582598Y0275502I0000000J0000581D01*
G01*
X0582598Y0276663D01*
G75*
G02*
X0583179Y0277244I0000581J0000000D01*
G01*
G37*
G36*
G01*
X0583179Y0273425D02*
X0584537Y0273425D01*
G75*
G02*
X0585118Y0272844I0000000J-000581D01*
G01*
X0585118Y0271683D01*
G75*
G02*
X0584537Y0271102I-000581J0000000D01*
G01*
X0583179Y0271102D01*
G75*
G02*
X0582598Y0271683I0000000J0000581D01*
G01*
X0582598Y0272844D01*
G75*
G02*
X0583179Y0273425I0000581J0000000D01*
G01*
G37*
G36*
G01*
X0549704Y0311073D02*
X0549704Y0309714D01*
G75*
G02*
X0549124Y0309134I-000581J0000000D01*
G01*
X0547962Y0309134D01*
G75*
G02*
X0547382Y0309714I0000000J0000581D01*
G01*
X0547382Y0311073D01*
G75*
G02*
X0547962Y0311653I0000581J0000000D01*
G01*
X0549124Y0311653D01*
G75*
G02*
X0549704Y0311073I0000000J-000581D01*
G01*
G37*
G36*
G01*
X0545886Y0311073D02*
X0545886Y0309714D01*
G75*
G02*
X0545305Y0309134I-000581J0000000D01*
G01*
X0544143Y0309134D01*
G75*
G02*
X0543563Y0309714I0000000J0000581D01*
G01*
X0543563Y0311073D01*
G75*
G02*
X0544143Y0311653I0000581J0000000D01*
G01*
X0545305Y0311653D01*
G75*
G02*
X0545886Y0311073I0000000J-000581D01*
G01*
G37*
G36*
G01*
X0550108Y0365177D02*
X0551466Y0365177D01*
G75*
G02*
X0552047Y0364596I0000000J-000581D01*
G01*
X0552047Y0363435D01*
G75*
G02*
X0551466Y0362854I-000581J0000000D01*
G01*
X0550108Y0362854D01*
G75*
G02*
X0549527Y0363435I0000000J0000581D01*
G01*
X0549527Y0364596D01*
G75*
G02*
X0550108Y0365177I0000581J0000000D01*
G01*
G37*
G36*
G01*
X0550108Y0361358D02*
X0551466Y0361358D01*
G75*
G02*
X0552047Y0360777I0000000J-000581D01*
G01*
X0552047Y0359616D01*
G75*
G02*
X0551466Y0359035I-000581J0000000D01*
G01*
X0550108Y0359035D01*
G75*
G02*
X0549527Y0359616I0000000J0000581D01*
G01*
X0549527Y0360777D01*
G75*
G02*
X0550108Y0361358I0000581J0000000D01*
G01*
G37*
G36*
G01*
X0540142Y0326071D02*
X0538125Y0326071D01*
G75*
G02*
X0537264Y0326932I0000000J0000861D01*
G01*
X0537264Y0328654D01*
G75*
G02*
X0538125Y0329516I0000861J0000000D01*
G01*
X0540142Y0329516D01*
G75*
G02*
X0541004Y0328654I0000000J-000861D01*
G01*
X0541004Y0326932D01*
G75*
G02*
X0540142Y0326071I-000861J0000000D01*
G01*
G37*
G36*
G01*
X0540142Y0332271D02*
X0538125Y0332271D01*
G75*
G02*
X0537264Y0333133I0000000J0000861D01*
G01*
X0537264Y0334855D01*
G75*
G02*
X0538125Y0335716I0000861J0000000D01*
G01*
X0540142Y0335716D01*
G75*
G02*
X0541004Y0334855I0000000J-000861D01*
G01*
X0541004Y0333133D01*
G75*
G02*
X0540142Y0332271I-000861J0000000D01*
G01*
G37*
G36*
G01*
X0539813Y0317823D02*
X0538454Y0317823D01*
G75*
G02*
X0537874Y0318403I0000000J0000581D01*
G01*
X0537874Y0319565D01*
G75*
G02*
X0538454Y0320145I0000581J0000000D01*
G01*
X0539813Y0320145D01*
G75*
G02*
X0540393Y0319565I0000000J-000581D01*
G01*
X0540393Y0318403D01*
G75*
G02*
X0539813Y0317823I-000581J0000000D01*
G01*
G37*
G36*
G01*
X0539813Y0321642D02*
X0538454Y0321642D01*
G75*
G02*
X0537874Y0322222I0000000J0000581D01*
G01*
X0537874Y0323384D01*
G75*
G02*
X0538454Y0323964I0000581J0000000D01*
G01*
X0539813Y0323964D01*
G75*
G02*
X0540393Y0323384I0000000J-000581D01*
G01*
X0540393Y0322222D01*
G75*
G02*
X0539813Y0321642I-000581J0000000D01*
G01*
G37*
G36*
G01*
X0567813Y0305323D02*
X0566454Y0305323D01*
G75*
G02*
X0565874Y0305903I0000000J0000581D01*
G01*
X0565874Y0307065D01*
G75*
G02*
X0566454Y0307645I0000581J0000000D01*
G01*
X0567813Y0307645D01*
G75*
G02*
X0568393Y0307065I0000000J-000581D01*
G01*
X0568393Y0305903D01*
G75*
G02*
X0567813Y0305323I-000581J0000000D01*
G01*
G37*
G36*
G01*
X0567813Y0309142D02*
X0566454Y0309142D01*
G75*
G02*
X0565874Y0309722I0000000J0000581D01*
G01*
X0565874Y0310884D01*
G75*
G02*
X0566454Y0311464I0000581J0000000D01*
G01*
X0567813Y0311464D01*
G75*
G02*
X0568393Y0310884I0000000J-000581D01*
G01*
X0568393Y0309722D01*
G75*
G02*
X0567813Y0309142I-000581J0000000D01*
G01*
G37*
G36*
G01*
X0572204Y0299573D02*
X0572204Y0298214D01*
G75*
G02*
X0571624Y0297634I-000581J0000000D01*
G01*
X0570462Y0297634D01*
G75*
G02*
X0569882Y0298214I0000000J0000581D01*
G01*
X0569882Y0299573D01*
G75*
G02*
X0570462Y0300153I0000581J0000000D01*
G01*
X0571624Y0300153D01*
G75*
G02*
X0572204Y0299573I0000000J-000581D01*
G01*
G37*
G36*
G01*
X0568386Y0299573D02*
X0568386Y0298214D01*
G75*
G02*
X0567805Y0297634I-000581J0000000D01*
G01*
X0566643Y0297634D01*
G75*
G02*
X0566063Y0298214I0000000J0000581D01*
G01*
X0566063Y0299573D01*
G75*
G02*
X0566643Y0300153I0000581J0000000D01*
G01*
X0567805Y0300153D01*
G75*
G02*
X0568386Y0299573I0000000J-000581D01*
G01*
G37*
G36*
G01*
X0572204Y0303336D02*
X0572204Y0301978D01*
G75*
G02*
X0571624Y0301397I-000581J0000000D01*
G01*
X0570462Y0301397D01*
G75*
G02*
X0569882Y0301978I0000000J0000581D01*
G01*
X0569882Y0303336D01*
G75*
G02*
X0570462Y0303917I0000581J0000000D01*
G01*
X0571624Y0303917D01*
G75*
G02*
X0572204Y0303336I0000000J-000581D01*
G01*
G37*
G36*
G01*
X0568386Y0303336D02*
X0568386Y0301978D01*
G75*
G02*
X0567805Y0301397I-000581J0000000D01*
G01*
X0566643Y0301397D01*
G75*
G02*
X0566063Y0301978I0000000J0000581D01*
G01*
X0566063Y0303336D01*
G75*
G02*
X0566643Y0303917I0000581J0000000D01*
G01*
X0567805Y0303917D01*
G75*
G02*
X0568386Y0303336I0000000J-000581D01*
G01*
G37*
G36*
G01*
X0571813Y0305323D02*
X0570454Y0305323D01*
G75*
G02*
X0569874Y0305903I0000000J0000581D01*
G01*
X0569874Y0307065D01*
G75*
G02*
X0570454Y0307645I0000581J0000000D01*
G01*
X0571813Y0307645D01*
G75*
G02*
X0572393Y0307065I0000000J-000581D01*
G01*
X0572393Y0305903D01*
G75*
G02*
X0571813Y0305323I-000581J0000000D01*
G01*
G37*
G36*
G01*
X0571813Y0309142D02*
X0570454Y0309142D01*
G75*
G02*
X0569874Y0309722I0000000J0000581D01*
G01*
X0569874Y0310884D01*
G75*
G02*
X0570454Y0311464I0000581J0000000D01*
G01*
X0571813Y0311464D01*
G75*
G02*
X0572393Y0310884I0000000J-000581D01*
G01*
X0572393Y0309722D01*
G75*
G02*
X0571813Y0309142I-000581J0000000D01*
G01*
G37*
D363*
X0576378Y0289232D03*
X0580118Y0289232D03*
X0583858Y0289232D03*
X0583858Y0299547D03*
X0576378Y0299547D03*
G36*
G01*
X0572204Y0295573D02*
X0572204Y0294214D01*
G75*
G02*
X0571624Y0293634I-000581J0000000D01*
G01*
X0570462Y0293634D01*
G75*
G02*
X0569882Y0294214I0000000J0000581D01*
G01*
X0569882Y0295573D01*
G75*
G02*
X0570462Y0296153I0000581J0000000D01*
G01*
X0571624Y0296153D01*
G75*
G02*
X0572204Y0295573I0000000J-000581D01*
G01*
G37*
G36*
G01*
X0568386Y0295573D02*
X0568386Y0294214D01*
G75*
G02*
X0567805Y0293634I-000581J0000000D01*
G01*
X0566643Y0293634D01*
G75*
G02*
X0566063Y0294214I0000000J0000581D01*
G01*
X0566063Y0295573D01*
G75*
G02*
X0566643Y0296153I0000581J0000000D01*
G01*
X0567805Y0296153D01*
G75*
G02*
X0568386Y0295573I0000000J-000581D01*
G01*
G37*
G36*
G01*
X0579252Y0284439D02*
X0579252Y0283081D01*
G75*
G02*
X0578671Y0282500I-000581J0000000D01*
G01*
X0577510Y0282500D01*
G75*
G02*
X0576929Y0283081I0000000J0000581D01*
G01*
X0576929Y0284439D01*
G75*
G02*
X0577510Y0285019I0000581J0000000D01*
G01*
X0578671Y0285019D01*
G75*
G02*
X0579252Y0284439I0000000J-000581D01*
G01*
G37*
G36*
G01*
X0575433Y0284439D02*
X0575433Y0283081D01*
G75*
G02*
X0574852Y0282500I-000581J0000000D01*
G01*
X0573691Y0282500D01*
G75*
G02*
X0573110Y0283081I0000000J0000581D01*
G01*
X0573110Y0284439D01*
G75*
G02*
X0573691Y0285019I0000581J0000000D01*
G01*
X0574852Y0285019D01*
G75*
G02*
X0575433Y0284439I0000000J-000581D01*
G01*
G37*
G36*
G01*
X0556704Y0271073D02*
X0556704Y0269714D01*
G75*
G02*
X0556124Y0269134I-000581J0000000D01*
G01*
X0554962Y0269134D01*
G75*
G02*
X0554382Y0269714I0000000J0000581D01*
G01*
X0554382Y0271073D01*
G75*
G02*
X0554962Y0271653I0000581J0000000D01*
G01*
X0556124Y0271653D01*
G75*
G02*
X0556704Y0271073I0000000J-000581D01*
G01*
G37*
G36*
G01*
X0552886Y0271073D02*
X0552886Y0269714D01*
G75*
G02*
X0552305Y0269134I-000581J0000000D01*
G01*
X0551143Y0269134D01*
G75*
G02*
X0550563Y0269714I0000000J0000581D01*
G01*
X0550563Y0271073D01*
G75*
G02*
X0551143Y0271653I0000581J0000000D01*
G01*
X0552305Y0271653D01*
G75*
G02*
X0552886Y0271073I0000000J-000581D01*
G01*
G37*
G36*
G01*
X0570311Y0272885D02*
X0570311Y0274902D01*
G75*
G02*
X0571172Y0275764I0000861J0000000D01*
G01*
X0572894Y0275764D01*
G75*
G02*
X0573756Y0274902I0000000J-000861D01*
G01*
X0573756Y0272885D01*
G75*
G02*
X0572894Y0272023I-000861J0000000D01*
G01*
X0571172Y0272023D01*
G75*
G02*
X0570311Y0272885I0000000J0000861D01*
G01*
G37*
G36*
G01*
X0576512Y0272885D02*
X0576512Y0274902D01*
G75*
G02*
X0577373Y0275764I0000861J0000000D01*
G01*
X0579095Y0275764D01*
G75*
G02*
X0579956Y0274902I0000000J-000861D01*
G01*
X0579956Y0272885D01*
G75*
G02*
X0579095Y0272023I-000861J0000000D01*
G01*
X0577373Y0272023D01*
G75*
G02*
X0576512Y0272885I0000000J0000861D01*
G01*
G37*
G36*
G01*
X0545187Y0275472D02*
X0546545Y0275472D01*
G75*
G02*
X0547126Y0274892I0000000J-000581D01*
G01*
X0547126Y0273730D01*
G75*
G02*
X0546545Y0273149I-000581J0000000D01*
G01*
X0545187Y0273149D01*
G75*
G02*
X0544606Y0273730I0000000J0000581D01*
G01*
X0544606Y0274892D01*
G75*
G02*
X0545187Y0275472I0000581J0000000D01*
G01*
G37*
G36*
G01*
X0545187Y0271653D02*
X0546545Y0271653D01*
G75*
G02*
X0547126Y0271073I0000000J-000581D01*
G01*
X0547126Y0269911D01*
G75*
G02*
X0546545Y0269331I-000581J0000000D01*
G01*
X0545187Y0269331D01*
G75*
G02*
X0544606Y0269911I0000000J0000581D01*
G01*
X0544606Y0271073D01*
G75*
G02*
X0545187Y0271653I0000581J0000000D01*
G01*
G37*
G36*
G01*
X0542411Y0269331D02*
X0541053Y0269331D01*
G75*
G02*
X0540472Y0269911I0000000J0000581D01*
G01*
X0540472Y0271073D01*
G75*
G02*
X0541053Y0271653I0000581J0000000D01*
G01*
X0542411Y0271653D01*
G75*
G02*
X0542992Y0271073I0000000J-000581D01*
G01*
X0542992Y0269911D01*
G75*
G02*
X0542411Y0269331I-000581J0000000D01*
G01*
G37*
G36*
G01*
X0542411Y0273149D02*
X0541053Y0273149D01*
G75*
G02*
X0540472Y0273730I0000000J0000581D01*
G01*
X0540472Y0274892D01*
G75*
G02*
X0541053Y0275472I0000581J0000000D01*
G01*
X0542411Y0275472D01*
G75*
G02*
X0542992Y0274892I0000000J-000581D01*
G01*
X0542992Y0273730D01*
G75*
G02*
X0542411Y0273149I-000581J0000000D01*
G01*
G37*
G36*
G01*
X0538125Y0347716D02*
X0540142Y0347716D01*
G75*
G02*
X0541004Y0346855I0000000J-000861D01*
G01*
X0541004Y0345133D01*
G75*
G02*
X0540142Y0344271I-000861J0000000D01*
G01*
X0538125Y0344271D01*
G75*
G02*
X0537264Y0345133I0000000J0000861D01*
G01*
X0537264Y0346855D01*
G75*
G02*
X0538125Y0347716I0000861J0000000D01*
G01*
G37*
G36*
G01*
X0538125Y0341516D02*
X0540142Y0341516D01*
G75*
G02*
X0541004Y0340654I0000000J-000861D01*
G01*
X0541004Y0338932D01*
G75*
G02*
X0540142Y0338071I-000861J0000000D01*
G01*
X0538125Y0338071D01*
G75*
G02*
X0537264Y0338932I0000000J0000861D01*
G01*
X0537264Y0340654D01*
G75*
G02*
X0538125Y0341516I0000861J0000000D01*
G01*
G37*
G36*
G01*
X0533573Y0350945D02*
X0534931Y0350945D01*
G75*
G02*
X0535512Y0350364I0000000J-000581D01*
G01*
X0535512Y0349203D01*
G75*
G02*
X0534931Y0348622I-000581J0000000D01*
G01*
X0533573Y0348622D01*
G75*
G02*
X0532992Y0349203I0000000J0000581D01*
G01*
X0532992Y0350364D01*
G75*
G02*
X0533573Y0350945I0000581J0000000D01*
G01*
G37*
G36*
G01*
X0533573Y0347126D02*
X0534931Y0347126D01*
G75*
G02*
X0535512Y0346545I0000000J-000581D01*
G01*
X0535512Y0345384D01*
G75*
G02*
X0534931Y0344803I-000581J0000000D01*
G01*
X0533573Y0344803D01*
G75*
G02*
X0532992Y0345384I0000000J0000581D01*
G01*
X0532992Y0346545D01*
G75*
G02*
X0533573Y0347126I0000581J0000000D01*
G01*
G37*
G36*
G01*
X0575679Y0303720D02*
X0574321Y0303720D01*
G75*
G02*
X0573740Y0304301I0000000J0000581D01*
G01*
X0573740Y0305462D01*
G75*
G02*
X0574321Y0306043I0000581J0000000D01*
G01*
X0575679Y0306043D01*
G75*
G02*
X0576260Y0305462I0000000J-000581D01*
G01*
X0576260Y0304301D01*
G75*
G02*
X0575679Y0303720I-000581J0000000D01*
G01*
G37*
G36*
G01*
X0575679Y0307539D02*
X0574321Y0307539D01*
G75*
G02*
X0573740Y0308120I0000000J0000581D01*
G01*
X0573740Y0309281D01*
G75*
G02*
X0574321Y0309862I0000581J0000000D01*
G01*
X0575679Y0309862D01*
G75*
G02*
X0576260Y0309281I0000000J-000581D01*
G01*
X0576260Y0308120D01*
G75*
G02*
X0575679Y0307539I-000581J0000000D01*
G01*
G37*
G36*
G01*
X0552067Y0317126D02*
X0551082Y0317126D01*
G75*
G02*
X0550590Y0317618I0000000J0000492D01*
G01*
X0550590Y0322539D01*
G75*
G02*
X0551082Y0323031I0000492J0000000D01*
G01*
X0552067Y0323031D01*
G75*
G02*
X0552559Y0322539I0000000J-000492D01*
G01*
X0552559Y0317618D01*
G75*
G02*
X0552067Y0317126I-000492J0000000D01*
G01*
G37*
G36*
G01*
X0555216Y0317126D02*
X0554232Y0317126D01*
G75*
G02*
X0553740Y0317618I0000000J0000492D01*
G01*
X0553740Y0322539D01*
G75*
G02*
X0554232Y0323031I0000492J0000000D01*
G01*
X0555216Y0323031D01*
G75*
G02*
X0555708Y0322539I0000000J-000492D01*
G01*
X0555708Y0317618D01*
G75*
G02*
X0555216Y0317126I-000492J0000000D01*
G01*
G37*
G36*
G01*
X0558366Y0317126D02*
X0557382Y0317126D01*
G75*
G02*
X0556890Y0317618I0000000J0000492D01*
G01*
X0556890Y0322539D01*
G75*
G02*
X0557382Y0323031I0000492J0000000D01*
G01*
X0558366Y0323031D01*
G75*
G02*
X0558858Y0322539I0000000J-000492D01*
G01*
X0558858Y0317618D01*
G75*
G02*
X0558366Y0317126I-000492J0000000D01*
G01*
G37*
G36*
G01*
X0561515Y0317126D02*
X0560531Y0317126D01*
G75*
G02*
X0560039Y0317618I0000000J0000492D01*
G01*
X0560039Y0322539D01*
G75*
G02*
X0560531Y0323031I0000492J0000000D01*
G01*
X0561515Y0323031D01*
G75*
G02*
X0562008Y0322539I0000000J-000492D01*
G01*
X0562008Y0317618D01*
G75*
G02*
X0561515Y0317126I-000492J0000000D01*
G01*
G37*
G36*
G01*
X0564665Y0317126D02*
X0563681Y0317126D01*
G75*
G02*
X0563189Y0317618I0000000J0000492D01*
G01*
X0563189Y0322539D01*
G75*
G02*
X0563681Y0323031I0000492J0000000D01*
G01*
X0564665Y0323031D01*
G75*
G02*
X0565157Y0322539I0000000J-000492D01*
G01*
X0565157Y0317618D01*
G75*
G02*
X0564665Y0317126I-000492J0000000D01*
G01*
G37*
G36*
G01*
X0567815Y0317126D02*
X0566830Y0317126D01*
G75*
G02*
X0566338Y0317618I0000000J0000492D01*
G01*
X0566338Y0322539D01*
G75*
G02*
X0566830Y0323031I0000492J0000000D01*
G01*
X0567815Y0323031D01*
G75*
G02*
X0568307Y0322539I0000000J-000492D01*
G01*
X0568307Y0317618D01*
G75*
G02*
X0567815Y0317126I-000492J0000000D01*
G01*
G37*
G36*
G01*
X0570964Y0317126D02*
X0569980Y0317126D01*
G75*
G02*
X0569488Y0317618I0000000J0000492D01*
G01*
X0569488Y0322539D01*
G75*
G02*
X0569980Y0323031I0000492J0000000D01*
G01*
X0570964Y0323031D01*
G75*
G02*
X0571456Y0322539I0000000J-000492D01*
G01*
X0571456Y0317618D01*
G75*
G02*
X0570964Y0317126I-000492J0000000D01*
G01*
G37*
G36*
G01*
X0574114Y0317126D02*
X0573130Y0317126D01*
G75*
G02*
X0572638Y0317618I0000000J0000492D01*
G01*
X0572638Y0322539D01*
G75*
G02*
X0573130Y0323031I0000492J0000000D01*
G01*
X0574114Y0323031D01*
G75*
G02*
X0574606Y0322539I0000000J-000492D01*
G01*
X0574606Y0317618D01*
G75*
G02*
X0574114Y0317126I-000492J0000000D01*
G01*
G37*
G36*
G01*
X0581496Y0324508D02*
X0576575Y0324508D01*
G75*
G02*
X0576082Y0325000I0000000J0000492D01*
G01*
X0576082Y0325984D01*
G75*
G02*
X0576575Y0326476I0000492J0000000D01*
G01*
X0581496Y0326476D01*
G75*
G02*
X0581988Y0325984I0000000J-000492D01*
G01*
X0581988Y0325000D01*
G75*
G02*
X0581496Y0324508I-000492J0000000D01*
G01*
G37*
G36*
G01*
X0581496Y0327657D02*
X0576575Y0327657D01*
G75*
G02*
X0576082Y0328149I0000000J0000492D01*
G01*
X0576082Y0329134D01*
G75*
G02*
X0576575Y0329626I0000492J0000000D01*
G01*
X0581496Y0329626D01*
G75*
G02*
X0581988Y0329134I0000000J-000492D01*
G01*
X0581988Y0328149D01*
G75*
G02*
X0581496Y0327657I-000492J0000000D01*
G01*
G37*
G36*
G01*
X0581496Y0330807D02*
X0576575Y0330807D01*
G75*
G02*
X0576082Y0331299I0000000J0000492D01*
G01*
X0576082Y0332283D01*
G75*
G02*
X0576575Y0332775I0000492J0000000D01*
G01*
X0581496Y0332775D01*
G75*
G02*
X0581988Y0332283I0000000J-000492D01*
G01*
X0581988Y0331299D01*
G75*
G02*
X0581496Y0330807I-000492J0000000D01*
G01*
G37*
G36*
G01*
X0581496Y0333957D02*
X0576575Y0333957D01*
G75*
G02*
X0576082Y0334449I0000000J0000492D01*
G01*
X0576082Y0335433D01*
G75*
G02*
X0576575Y0335925I0000492J0000000D01*
G01*
X0581496Y0335925D01*
G75*
G02*
X0581988Y0335433I0000000J-000492D01*
G01*
X0581988Y0334449D01*
G75*
G02*
X0581496Y0333957I-000492J0000000D01*
G01*
G37*
G36*
G01*
X0581496Y0337106D02*
X0576575Y0337106D01*
G75*
G02*
X0576082Y0337598I0000000J0000492D01*
G01*
X0576082Y0338582D01*
G75*
G02*
X0576575Y0339075I0000492J0000000D01*
G01*
X0581496Y0339075D01*
G75*
G02*
X0581988Y0338582I0000000J-000492D01*
G01*
X0581988Y0337598D01*
G75*
G02*
X0581496Y0337106I-000492J0000000D01*
G01*
G37*
G36*
G01*
X0581496Y0340256D02*
X0576575Y0340256D01*
G75*
G02*
X0576082Y0340748I0000000J0000492D01*
G01*
X0576082Y0341732D01*
G75*
G02*
X0576575Y0342224I0000492J0000000D01*
G01*
X0581496Y0342224D01*
G75*
G02*
X0581988Y0341732I0000000J-000492D01*
G01*
X0581988Y0340748D01*
G75*
G02*
X0581496Y0340256I-000492J0000000D01*
G01*
G37*
G36*
G01*
X0581496Y0343405D02*
X0576575Y0343405D01*
G75*
G02*
X0576082Y0343897I0000000J0000492D01*
G01*
X0576082Y0344882D01*
G75*
G02*
X0576575Y0345374I0000492J0000000D01*
G01*
X0581496Y0345374D01*
G75*
G02*
X0581988Y0344882I0000000J-000492D01*
G01*
X0581988Y0343897D01*
G75*
G02*
X0581496Y0343405I-000492J0000000D01*
G01*
G37*
G36*
G01*
X0581496Y0346555D02*
X0576575Y0346555D01*
G75*
G02*
X0576082Y0347047I0000000J0000492D01*
G01*
X0576082Y0348031D01*
G75*
G02*
X0576575Y0348523I0000492J0000000D01*
G01*
X0581496Y0348523D01*
G75*
G02*
X0581988Y0348031I0000000J-000492D01*
G01*
X0581988Y0347047D01*
G75*
G02*
X0581496Y0346555I-000492J0000000D01*
G01*
G37*
G36*
G01*
X0574114Y0350000D02*
X0573130Y0350000D01*
G75*
G02*
X0572638Y0350492I0000000J0000492D01*
G01*
X0572638Y0355413D01*
G75*
G02*
X0573130Y0355905I0000492J0000000D01*
G01*
X0574114Y0355905D01*
G75*
G02*
X0574606Y0355413I0000000J-000492D01*
G01*
X0574606Y0350492D01*
G75*
G02*
X0574114Y0350000I-000492J0000000D01*
G01*
G37*
G36*
G01*
X0570964Y0350000D02*
X0569980Y0350000D01*
G75*
G02*
X0569488Y0350492I0000000J0000492D01*
G01*
X0569488Y0355413D01*
G75*
G02*
X0569980Y0355905I0000492J0000000D01*
G01*
X0570964Y0355905D01*
G75*
G02*
X0571456Y0355413I0000000J-000492D01*
G01*
X0571456Y0350492D01*
G75*
G02*
X0570964Y0350000I-000492J0000000D01*
G01*
G37*
G36*
G01*
X0567815Y0350000D02*
X0566830Y0350000D01*
G75*
G02*
X0566338Y0350492I0000000J0000492D01*
G01*
X0566338Y0355413D01*
G75*
G02*
X0566830Y0355905I0000492J0000000D01*
G01*
X0567815Y0355905D01*
G75*
G02*
X0568307Y0355413I0000000J-000492D01*
G01*
X0568307Y0350492D01*
G75*
G02*
X0567815Y0350000I-000492J0000000D01*
G01*
G37*
G36*
G01*
X0564665Y0350000D02*
X0563681Y0350000D01*
G75*
G02*
X0563189Y0350492I0000000J0000492D01*
G01*
X0563189Y0355413D01*
G75*
G02*
X0563681Y0355905I0000492J0000000D01*
G01*
X0564665Y0355905D01*
G75*
G02*
X0565157Y0355413I0000000J-000492D01*
G01*
X0565157Y0350492D01*
G75*
G02*
X0564665Y0350000I-000492J0000000D01*
G01*
G37*
G36*
G01*
X0561515Y0350000D02*
X0560531Y0350000D01*
G75*
G02*
X0560039Y0350492I0000000J0000492D01*
G01*
X0560039Y0355413D01*
G75*
G02*
X0560531Y0355905I0000492J0000000D01*
G01*
X0561515Y0355905D01*
G75*
G02*
X0562008Y0355413I0000000J-000492D01*
G01*
X0562008Y0350492D01*
G75*
G02*
X0561515Y0350000I-000492J0000000D01*
G01*
G37*
G36*
G01*
X0558366Y0350000D02*
X0557382Y0350000D01*
G75*
G02*
X0556890Y0350492I0000000J0000492D01*
G01*
X0556890Y0355413D01*
G75*
G02*
X0557382Y0355905I0000492J0000000D01*
G01*
X0558366Y0355905D01*
G75*
G02*
X0558858Y0355413I0000000J-000492D01*
G01*
X0558858Y0350492D01*
G75*
G02*
X0558366Y0350000I-000492J0000000D01*
G01*
G37*
G36*
G01*
X0555216Y0350000D02*
X0554232Y0350000D01*
G75*
G02*
X0553740Y0350492I0000000J0000492D01*
G01*
X0553740Y0355413D01*
G75*
G02*
X0554232Y0355905I0000492J0000000D01*
G01*
X0555216Y0355905D01*
G75*
G02*
X0555708Y0355413I0000000J-000492D01*
G01*
X0555708Y0350492D01*
G75*
G02*
X0555216Y0350000I-000492J0000000D01*
G01*
G37*
G36*
G01*
X0552067Y0350000D02*
X0551082Y0350000D01*
G75*
G02*
X0550590Y0350492I0000000J0000492D01*
G01*
X0550590Y0355413D01*
G75*
G02*
X0551082Y0355905I0000492J0000000D01*
G01*
X0552067Y0355905D01*
G75*
G02*
X0552559Y0355413I0000000J-000492D01*
G01*
X0552559Y0350492D01*
G75*
G02*
X0552067Y0350000I-000492J0000000D01*
G01*
G37*
G36*
G01*
X0548622Y0346555D02*
X0543701Y0346555D01*
G75*
G02*
X0543208Y0347047I0000000J0000492D01*
G01*
X0543208Y0348031D01*
G75*
G02*
X0543701Y0348523I0000492J0000000D01*
G01*
X0548622Y0348523D01*
G75*
G02*
X0549114Y0348031I0000000J-000492D01*
G01*
X0549114Y0347047D01*
G75*
G02*
X0548622Y0346555I-000492J0000000D01*
G01*
G37*
G36*
G01*
X0548622Y0343405D02*
X0543701Y0343405D01*
G75*
G02*
X0543208Y0343897I0000000J0000492D01*
G01*
X0543208Y0344882D01*
G75*
G02*
X0543701Y0345374I0000492J0000000D01*
G01*
X0548622Y0345374D01*
G75*
G02*
X0549114Y0344882I0000000J-000492D01*
G01*
X0549114Y0343897D01*
G75*
G02*
X0548622Y0343405I-000492J0000000D01*
G01*
G37*
G36*
G01*
X0548622Y0340256D02*
X0543701Y0340256D01*
G75*
G02*
X0543208Y0340748I0000000J0000492D01*
G01*
X0543208Y0341732D01*
G75*
G02*
X0543701Y0342224I0000492J0000000D01*
G01*
X0548622Y0342224D01*
G75*
G02*
X0549114Y0341732I0000000J-000492D01*
G01*
X0549114Y0340748D01*
G75*
G02*
X0548622Y0340256I-000492J0000000D01*
G01*
G37*
G36*
G01*
X0548622Y0337106D02*
X0543701Y0337106D01*
G75*
G02*
X0543208Y0337598I0000000J0000492D01*
G01*
X0543208Y0338582D01*
G75*
G02*
X0543701Y0339075I0000492J0000000D01*
G01*
X0548622Y0339075D01*
G75*
G02*
X0549114Y0338582I0000000J-000492D01*
G01*
X0549114Y0337598D01*
G75*
G02*
X0548622Y0337106I-000492J0000000D01*
G01*
G37*
G36*
G01*
X0548622Y0333957D02*
X0543701Y0333957D01*
G75*
G02*
X0543208Y0334449I0000000J0000492D01*
G01*
X0543208Y0335433D01*
G75*
G02*
X0543701Y0335925I0000492J0000000D01*
G01*
X0548622Y0335925D01*
G75*
G02*
X0549114Y0335433I0000000J-000492D01*
G01*
X0549114Y0334449D01*
G75*
G02*
X0548622Y0333957I-000492J0000000D01*
G01*
G37*
G36*
G01*
X0548622Y0330807D02*
X0543701Y0330807D01*
G75*
G02*
X0543208Y0331299I0000000J0000492D01*
G01*
X0543208Y0332283D01*
G75*
G02*
X0543701Y0332775I0000492J0000000D01*
G01*
X0548622Y0332775D01*
G75*
G02*
X0549114Y0332283I0000000J-000492D01*
G01*
X0549114Y0331299D01*
G75*
G02*
X0548622Y0330807I-000492J0000000D01*
G01*
G37*
G36*
G01*
X0548622Y0327657D02*
X0543701Y0327657D01*
G75*
G02*
X0543208Y0328149I0000000J0000492D01*
G01*
X0543208Y0329134D01*
G75*
G02*
X0543701Y0329626I0000492J0000000D01*
G01*
X0548622Y0329626D01*
G75*
G02*
X0549114Y0329134I0000000J-000492D01*
G01*
X0549114Y0328149D01*
G75*
G02*
X0548622Y0327657I-000492J0000000D01*
G01*
G37*
G36*
G01*
X0548622Y0324508D02*
X0543701Y0324508D01*
G75*
G02*
X0543208Y0325000I0000000J0000492D01*
G01*
X0543208Y0325984D01*
G75*
G02*
X0543701Y0326476I0000492J0000000D01*
G01*
X0548622Y0326476D01*
G75*
G02*
X0549114Y0325984I0000000J-000492D01*
G01*
X0549114Y0325000D01*
G75*
G02*
X0548622Y0324508I-000492J0000000D01*
G01*
G37*
G36*
G01*
X0577077Y0317342D02*
X0578435Y0317342D01*
G75*
G02*
X0579015Y0316762I0000000J-000581D01*
G01*
X0579015Y0315600D01*
G75*
G02*
X0578435Y0315019I-000581J0000000D01*
G01*
X0577077Y0315019D01*
G75*
G02*
X0576496Y0315600I0000000J0000581D01*
G01*
X0576496Y0316762D01*
G75*
G02*
X0577077Y0317342I0000581J0000000D01*
G01*
G37*
G36*
G01*
X0577077Y0313523D02*
X0578435Y0313523D01*
G75*
G02*
X0579015Y0312943I0000000J-000581D01*
G01*
X0579015Y0311781D01*
G75*
G02*
X0578435Y0311201I-000581J0000000D01*
G01*
X0577077Y0311201D01*
G75*
G02*
X0576496Y0311781I0000000J0000581D01*
G01*
X0576496Y0312943D01*
G75*
G02*
X0577077Y0313523I0000581J0000000D01*
G01*
G37*
G36*
G01*
X0579616Y0303720D02*
X0578258Y0303720D01*
G75*
G02*
X0577677Y0304301I0000000J0000581D01*
G01*
X0577677Y0305462D01*
G75*
G02*
X0578258Y0306043I0000581J0000000D01*
G01*
X0579616Y0306043D01*
G75*
G02*
X0580197Y0305462I0000000J-000581D01*
G01*
X0580197Y0304301D01*
G75*
G02*
X0579616Y0303720I-000581J0000000D01*
G01*
G37*
G36*
G01*
X0579616Y0307539D02*
X0578258Y0307539D01*
G75*
G02*
X0577677Y0308120I0000000J0000581D01*
G01*
X0577677Y0309281D01*
G75*
G02*
X0578258Y0309862I0000581J0000000D01*
G01*
X0579616Y0309862D01*
G75*
G02*
X0580197Y0309281I0000000J-000581D01*
G01*
X0580197Y0308120D01*
G75*
G02*
X0579616Y0307539I-000581J0000000D01*
G01*
G37*
G36*
G01*
X0554419Y0309232D02*
X0553061Y0309232D01*
G75*
G02*
X0552480Y0309813I0000000J0000581D01*
G01*
X0552480Y0310974D01*
G75*
G02*
X0553061Y0311555I0000581J0000000D01*
G01*
X0554419Y0311555D01*
G75*
G02*
X0555000Y0310974I0000000J-000581D01*
G01*
X0555000Y0309813D01*
G75*
G02*
X0554419Y0309232I-000581J0000000D01*
G01*
G37*
G36*
G01*
X0554419Y0313051D02*
X0553061Y0313051D01*
G75*
G02*
X0552480Y0313632I0000000J0000581D01*
G01*
X0552480Y0314793D01*
G75*
G02*
X0553061Y0315374I0000581J0000000D01*
G01*
X0554419Y0315374D01*
G75*
G02*
X0555000Y0314793I0000000J-000581D01*
G01*
X0555000Y0313632D01*
G75*
G02*
X0554419Y0313051I-000581J0000000D01*
G01*
G37*
G36*
G01*
X0572598Y0362027D02*
X0572598Y0360669D01*
G75*
G02*
X0572017Y0360088I-000581J0000000D01*
G01*
X0570856Y0360088D01*
G75*
G02*
X0570275Y0360669I0000000J0000581D01*
G01*
X0570275Y0362027D01*
G75*
G02*
X0570856Y0362608I0000581J0000000D01*
G01*
X0572017Y0362608D01*
G75*
G02*
X0572598Y0362027I0000000J-000581D01*
G01*
G37*
G36*
G01*
X0568779Y0362027D02*
X0568779Y0360669D01*
G75*
G02*
X0568198Y0360088I-000581J0000000D01*
G01*
X0567037Y0360088D01*
G75*
G02*
X0566456Y0360669I0000000J0000581D01*
G01*
X0566456Y0362027D01*
G75*
G02*
X0567037Y0362608I0000581J0000000D01*
G01*
X0568198Y0362608D01*
G75*
G02*
X0568779Y0362027I0000000J-000581D01*
G01*
G37*
G36*
G01*
X0546240Y0352746D02*
X0546240Y0351388D01*
G75*
G02*
X0545659Y0350807I-000581J0000000D01*
G01*
X0544498Y0350807D01*
G75*
G02*
X0543917Y0351388I0000000J0000581D01*
G01*
X0543917Y0352746D01*
G75*
G02*
X0544498Y0353327I0000581J0000000D01*
G01*
X0545659Y0353327D01*
G75*
G02*
X0546240Y0352746I0000000J-000581D01*
G01*
G37*
G36*
G01*
X0542421Y0352746D02*
X0542421Y0351388D01*
G75*
G02*
X0541840Y0350807I-000581J0000000D01*
G01*
X0540679Y0350807D01*
G75*
G02*
X0540098Y0351388I0000000J0000581D01*
G01*
X0540098Y0352746D01*
G75*
G02*
X0540679Y0353327I0000581J0000000D01*
G01*
X0541840Y0353327D01*
G75*
G02*
X0542421Y0352746I0000000J-000581D01*
G01*
G37*
G36*
G01*
X0568573Y0376488D02*
X0569931Y0376488D01*
G75*
G02*
X0570512Y0375907I0000000J-000581D01*
G01*
X0570512Y0374746D01*
G75*
G02*
X0569931Y0374165I-000581J0000000D01*
G01*
X0568573Y0374165D01*
G75*
G02*
X0567992Y0374746I0000000J0000581D01*
G01*
X0567992Y0375907D01*
G75*
G02*
X0568573Y0376488I0000581J0000000D01*
G01*
G37*
G36*
G01*
X0568573Y0372669D02*
X0569931Y0372669D01*
G75*
G02*
X0570512Y0372088I0000000J-000581D01*
G01*
X0570512Y0370927D01*
G75*
G02*
X0569931Y0370346I-000581J0000000D01*
G01*
X0568573Y0370346D01*
G75*
G02*
X0567992Y0370927I0000000J0000581D01*
G01*
X0567992Y0372088D01*
G75*
G02*
X0568573Y0372669I0000581J0000000D01*
G01*
G37*
D158*
X0574315Y0375157D03*
X0574315Y0367677D03*
X0582189Y0371417D03*
G36*
G01*
X0550563Y0273714D02*
X0550563Y0275073D01*
G75*
G02*
X0551143Y0275653I0000581J0000000D01*
G01*
X0552305Y0275653D01*
G75*
G02*
X0552886Y0275073I0000000J-000581D01*
G01*
X0552886Y0273714D01*
G75*
G02*
X0552305Y0273134I-000581J0000000D01*
G01*
X0551143Y0273134D01*
G75*
G02*
X0550563Y0273714I0000000J0000581D01*
G01*
G37*
G36*
G01*
X0554382Y0273714D02*
X0554382Y0275073D01*
G75*
G02*
X0554962Y0275653I0000581J0000000D01*
G01*
X0556124Y0275653D01*
G75*
G02*
X0556704Y0275073I0000000J-000581D01*
G01*
X0556704Y0273714D01*
G75*
G02*
X0556124Y0273134I-000581J0000000D01*
G01*
X0554962Y0273134D01*
G75*
G02*
X0554382Y0273714I0000000J0000581D01*
G01*
G37*
G36*
G01*
X0584232Y0362062D02*
X0584232Y0360044D01*
G75*
G02*
X0583371Y0359183I-000861J0000000D01*
G01*
X0581648Y0359183D01*
G75*
G02*
X0580787Y0360044I0000000J0000861D01*
G01*
X0580787Y0362062D01*
G75*
G02*
X0581648Y0362923I0000861J0000000D01*
G01*
X0583371Y0362923D01*
G75*
G02*
X0584232Y0362062I0000000J-000861D01*
G01*
G37*
G36*
G01*
X0578031Y0362062D02*
X0578031Y0360044D01*
G75*
G02*
X0577170Y0359183I-000861J0000000D01*
G01*
X0575447Y0359183D01*
G75*
G02*
X0574586Y0360044I0000000J0000861D01*
G01*
X0574586Y0362062D01*
G75*
G02*
X0575447Y0362923I0000861J0000000D01*
G01*
X0577170Y0362923D01*
G75*
G02*
X0578031Y0362062I0000000J-000861D01*
G01*
G37*
D354*
X0540748Y0377815D03*
X0536748Y0357815D03*
X0544748Y0357815D03*
D267*
X0538248Y0372815D03*
X0543248Y0372815D03*
X0538248Y0367815D03*
X0543248Y0367815D03*
X0538248Y0362815D03*
X0543248Y0362815D03*
M02*
