G75*
G70*
%OFA0B0*%
%FSLAX25Y25*%
%IPPOS*%
%LPD*%
%AMOC8*
5,1,8,0,0,1.08239X$1,22.5*
%
%AMM100*
21,1,0.015350,0.009840,0.000000,0.000000,270.000000*
21,1,0.000000,0.025200,0.000000,0.000000,270.000000*
1,1,0.015350,-0.004920,0.000000*
1,1,0.015350,-0.004920,0.000000*
1,1,0.015350,0.004920,0.000000*
1,1,0.015350,0.004920,0.000000*
%
%AMM150*
21,1,0.015350,0.009840,0.000000,0.000000,180.000000*
21,1,0.000000,0.025200,0.000000,0.000000,180.000000*
1,1,0.015350,0.000000,0.004920*
1,1,0.015350,0.000000,0.004920*
1,1,0.015350,0.000000,-0.004920*
1,1,0.015350,0.000000,-0.004920*
%
%AMM69*
21,1,0.015350,0.009840,0.000000,0.000000,90.000000*
21,1,0.000000,0.025200,0.000000,0.000000,90.000000*
1,1,0.015350,0.004920,0.000000*
1,1,0.015350,0.004920,0.000000*
1,1,0.015350,-0.004920,0.000000*
1,1,0.015350,-0.004920,0.000000*
%
%AMM70*
21,1,0.015350,0.009840,0.000000,0.000000,0.000000*
21,1,0.000000,0.025200,0.000000,0.000000,0.000000*
1,1,0.015350,0.000000,-0.004920*
1,1,0.015350,0.000000,-0.004920*
1,1,0.015350,0.000000,0.004920*
1,1,0.015350,0.000000,0.004920*
%
%ADD100C,0.02913*%
%ADD119C,0.04451*%
%ADD139R,0.12756X0.01535*%
%ADD145M70*%
%ADD152R,0.10394X0.10394*%
%ADD160O,0.02913X0.02126*%
%ADD163R,0.04291X0.01535*%
%ADD167R,0.06457X0.06457*%
%ADD173O,0.03701X0.02913*%
%ADD181O,0.06850X0.15906*%
%ADD201O,0.05276X0.06063*%
%ADD208O,0.04488X0.06457*%
%ADD213C,0.00551*%
%ADD222O,0.45433X0.04882*%
%ADD246C,0.03900*%
%ADD247R,0.05276X0.06063*%
%ADD25M100*%
%ADD256R,0.20433X0.01535*%
%ADD281O,0.06457X0.10000*%
%ADD309O,0.07441X0.10394*%
%ADD315O,0.02913X0.03701*%
%ADD329O,0.02126X0.01339*%
%ADD342R,0.09409X0.01535*%
%ADD39M150*%
%ADD45M69*%
%ADD47C,0.06693*%
%ADD56R,0.06693X0.06693*%
%ADD62R,0.01535X1.55079*%
%ADD79C,0.06551*%
%ADD82O,0.02126X0.02913*%
%ADD86C,0.06457*%
%ADD92R,0.38937X0.01535*%
%ADD98C,0.03307*%
X0000000Y0000000D02*
G01*
G75*
D163*
X0531988Y0227756D02*
D03*
D62*
X0588681Y0304528D02*
D03*
X0530610Y0304528D02*
D03*
D342*
X0563484Y0381299D02*
D03*
D139*
X0583071Y0381299D02*
D03*
D256*
X0540059Y0381299D02*
D03*
D208*
X0495282Y0198873D02*
D03*
X0490337Y0198873D02*
D03*
D173*
X0389652Y0238834D02*
D03*
X0389652Y0235389D02*
D03*
X0389652Y0231156D02*
D03*
X0389652Y0218853D02*
D03*
X0389652Y0209896D02*
D03*
D100*
X0520079Y0344587D02*
D03*
X0522146Y0348031D02*
D03*
X0517126Y0349213D02*
D03*
X0503150Y0348917D02*
D03*
X0303219Y0223002D02*
D03*
X0335531Y0248819D02*
D03*
X0310630Y0221063D02*
D03*
X0281693Y0216634D02*
D03*
X0303150Y0243602D02*
D03*
X0286122Y0562225D02*
D03*
X0313583Y0540276D02*
D03*
X0330906Y0540276D02*
D03*
X0322146Y0540276D02*
D03*
X0292323Y0542914D02*
D03*
X0308957Y0540276D02*
D03*
X0342339Y0542949D02*
D03*
X0200374Y0437323D02*
D03*
X0200669Y0423347D02*
D03*
X0199488Y0418327D02*
D03*
X0196043Y0420394D02*
D03*
X0447756Y0441043D02*
D03*
X0445571Y0415748D02*
D03*
X0440551Y0415748D02*
D03*
X0455610Y0415748D02*
D03*
X0452067Y0415748D02*
D03*
X0365302Y0397638D02*
D03*
X0413583Y0397638D02*
D03*
X0370768Y0382677D02*
D03*
X0512402Y0397638D02*
D03*
X0469488Y0397638D02*
D03*
X0140413Y0391142D02*
D03*
X0147638Y0389468D02*
D03*
X0139567Y0387303D02*
D03*
X0140413Y0383858D02*
D03*
X0147638Y0379232D02*
D03*
X0140709Y0380512D02*
D03*
X0142480Y0374114D02*
D03*
X0147638Y0371555D02*
D03*
X0140354Y0398622D02*
D03*
X0124311Y0399803D02*
D03*
D79*
X0017224Y0437500D02*
D03*
X0037224Y0437500D02*
D03*
X0027224Y0437500D02*
D03*
X0027224Y0427500D02*
D03*
X0037224Y0427500D02*
D03*
X0017224Y0427500D02*
D03*
X0037224Y0417500D02*
D03*
X0027224Y0417500D02*
D03*
X0017224Y0417500D02*
D03*
X0017224Y0397500D02*
D03*
X0027224Y0397500D02*
D03*
X0037224Y0397500D02*
D03*
X0017224Y0407500D02*
D03*
X0037224Y0407500D02*
D03*
X0027224Y0407500D02*
D03*
X0017224Y0377500D02*
D03*
X0027224Y0377500D02*
D03*
X0037224Y0377500D02*
D03*
X0017224Y0387500D02*
D03*
X0037224Y0387500D02*
D03*
X0027224Y0387500D02*
D03*
X0017224Y0357500D02*
D03*
X0027224Y0357500D02*
D03*
X0037224Y0357500D02*
D03*
X0017224Y0367500D02*
D03*
X0037224Y0367500D02*
D03*
X0027224Y0367500D02*
D03*
X0017224Y0347500D02*
D03*
X0037224Y0347500D02*
D03*
X0027224Y0347500D02*
D03*
X0040315Y0125945D02*
D03*
X0050315Y0125945D02*
D03*
X0060315Y0125945D02*
D03*
X0070315Y0125945D02*
D03*
X0030315Y0125945D02*
D03*
X0070315Y0115945D02*
D03*
X0060315Y0115945D02*
D03*
X0050315Y0115945D02*
D03*
X0040315Y0115945D02*
D03*
X0030315Y0115945D02*
D03*
X0080315Y0115945D02*
D03*
X0090315Y0115945D02*
D03*
X0100315Y0115945D02*
D03*
X0100315Y0125945D02*
D03*
X0090315Y0125945D02*
D03*
X0080315Y0125945D02*
D03*
X0040315Y0145945D02*
D03*
X0050315Y0145945D02*
D03*
X0060315Y0145945D02*
D03*
X0070315Y0145945D02*
D03*
X0030315Y0145945D02*
D03*
X0070315Y0135945D02*
D03*
X0060315Y0135945D02*
D03*
X0050315Y0135945D02*
D03*
X0040315Y0135945D02*
D03*
X0030315Y0135945D02*
D03*
X0080315Y0135945D02*
D03*
X0090315Y0135945D02*
D03*
X0100315Y0135945D02*
D03*
X0100315Y0145945D02*
D03*
X0090315Y0145945D02*
D03*
X0080315Y0145945D02*
D03*
X0040315Y0165945D02*
D03*
X0050315Y0165945D02*
D03*
X0060315Y0165945D02*
D03*
X0070315Y0165945D02*
D03*
X0030315Y0165945D02*
D03*
X0070315Y0155945D02*
D03*
X0060315Y0155945D02*
D03*
X0050315Y0155945D02*
D03*
X0040315Y0155945D02*
D03*
X0030315Y0155945D02*
D03*
X0080315Y0155945D02*
D03*
X0090315Y0155945D02*
D03*
X0100315Y0155945D02*
D03*
X0100315Y0165945D02*
D03*
X0090315Y0165945D02*
D03*
X0080315Y0165945D02*
D03*
X0040315Y0185945D02*
D03*
X0050315Y0185945D02*
D03*
X0060315Y0185945D02*
D03*
X0070315Y0185945D02*
D03*
X0030315Y0185945D02*
D03*
X0070315Y0175945D02*
D03*
X0060315Y0175945D02*
D03*
X0050315Y0175945D02*
D03*
X0040315Y0175945D02*
D03*
X0030315Y0175945D02*
D03*
X0080315Y0175945D02*
D03*
X0090315Y0175945D02*
D03*
X0100315Y0175945D02*
D03*
X0100315Y0185945D02*
D03*
X0090315Y0185945D02*
D03*
X0080315Y0185945D02*
D03*
X0040315Y0205945D02*
D03*
X0050315Y0205945D02*
D03*
X0060315Y0205945D02*
D03*
X0070315Y0205945D02*
D03*
X0030315Y0205945D02*
D03*
X0070315Y0195945D02*
D03*
X0060315Y0195945D02*
D03*
X0050315Y0195945D02*
D03*
X0040315Y0195945D02*
D03*
X0030315Y0195945D02*
D03*
X0080315Y0195945D02*
D03*
X0090315Y0195945D02*
D03*
X0100315Y0195945D02*
D03*
X0100315Y0205945D02*
D03*
X0090315Y0205945D02*
D03*
X0080315Y0205945D02*
D03*
X0100315Y0235945D02*
D03*
X0090315Y0235945D02*
D03*
X0080315Y0235945D02*
D03*
X0080315Y0225945D02*
D03*
X0090315Y0225945D02*
D03*
X0100315Y0225945D02*
D03*
X0100315Y0215945D02*
D03*
X0090315Y0215945D02*
D03*
X0080315Y0215945D02*
D03*
X0030315Y0215945D02*
D03*
X0040315Y0215945D02*
D03*
X0050315Y0215945D02*
D03*
X0060315Y0215945D02*
D03*
X0070315Y0215945D02*
D03*
X0030315Y0225945D02*
D03*
X0070315Y0225945D02*
D03*
X0060315Y0225945D02*
D03*
X0050315Y0225945D02*
D03*
X0040315Y0225945D02*
D03*
X0040315Y0235945D02*
D03*
X0050315Y0235945D02*
D03*
X0060315Y0235945D02*
D03*
X0070315Y0235945D02*
D03*
X0030315Y0235945D02*
D03*
D181*
X0385881Y0438385D02*
D03*
X0414818Y0438385D02*
D03*
D201*
X0397200Y0434645D02*
D03*
X0403499Y0434645D02*
D03*
X0394050Y0442125D02*
D03*
X0400350Y0442125D02*
D03*
D247*
X0406649Y0442125D02*
D03*
D152*
X0108858Y0038878D02*
D03*
X0064370Y0038878D02*
D03*
X0117323Y0021654D02*
D03*
X0055905Y0021654D02*
D03*
D86*
X0106614Y0070866D02*
D03*
X0096614Y0070866D02*
D03*
X0086614Y0070866D02*
D03*
X0076614Y0070866D02*
D03*
X0342126Y0494488D02*
D03*
X0332126Y0494488D02*
D03*
X0322126Y0494488D02*
D03*
X0312126Y0494488D02*
D03*
X0302126Y0494488D02*
D03*
X0181142Y0582047D02*
D03*
X0191142Y0582047D02*
D03*
X0181142Y0572047D02*
D03*
X0191142Y0572047D02*
D03*
X0181142Y0562047D02*
D03*
X0191142Y0562047D02*
D03*
X0181142Y0552047D02*
D03*
X0191142Y0552047D02*
D03*
X0181142Y0542047D02*
D03*
X0191142Y0542047D02*
D03*
X0181142Y0532047D02*
D03*
X0191142Y0532047D02*
D03*
X0181142Y0522047D02*
D03*
X0191142Y0522047D02*
D03*
X0181142Y0512047D02*
D03*
X0191142Y0512047D02*
D03*
X0181142Y0502047D02*
D03*
X0191142Y0502047D02*
D03*
X0181142Y0492047D02*
D03*
X0191142Y0492047D02*
D03*
X0181142Y0482047D02*
D03*
X0191142Y0482047D02*
D03*
X0181142Y0472047D02*
D03*
D167*
X0066614Y0070866D02*
D03*
X0292126Y0494488D02*
D03*
D309*
X0529823Y0211122D02*
D03*
X0569193Y0211122D02*
D03*
X0588878Y0211122D02*
D03*
X0579035Y0211122D02*
D03*
X0559350Y0211122D02*
D03*
X0549508Y0211122D02*
D03*
X0539665Y0211122D02*
D03*
X0519980Y0211122D02*
D03*
D98*
X0552559Y0379823D02*
D03*
X0556496Y0379823D02*
D03*
X0570472Y0379823D02*
D03*
X0574409Y0379823D02*
D03*
X0548228Y0229232D02*
D03*
X0544291Y0229232D02*
D03*
X0540354Y0229232D02*
D03*
X0536417Y0229232D02*
D03*
D213*
X0460630Y0027559D02*
D03*
X0086614Y0027559D02*
D03*
X0173622Y0056890D02*
D03*
X0397244Y0056890D02*
D03*
X0135256Y0484803D02*
D03*
X0044272Y0484803D02*
D03*
X0019879Y0279921D02*
D03*
X0586614Y0020079D02*
D03*
X0586614Y0605905D02*
D03*
X0019685Y0605905D02*
D03*
X0019685Y0020079D02*
D03*
D281*
X0142913Y0092520D02*
D03*
X0142913Y0078347D02*
D03*
X0153937Y0092520D02*
D03*
X0153937Y0078347D02*
D03*
X0163779Y0092520D02*
D03*
X0163779Y0078347D02*
D03*
X0173622Y0092520D02*
D03*
X0183465Y0092520D02*
D03*
X0183465Y0078347D02*
D03*
X0193307Y0092520D02*
D03*
X0193307Y0078347D02*
D03*
X0203150Y0092520D02*
D03*
X0212992Y0078347D02*
D03*
X0212992Y0092520D02*
D03*
X0222835Y0078347D02*
D03*
X0222835Y0092520D02*
D03*
X0232677Y0078347D02*
D03*
X0232677Y0092520D02*
D03*
X0242520Y0078347D02*
D03*
X0242520Y0092520D02*
D03*
X0238858Y0109843D02*
D03*
X0252362Y0078347D02*
D03*
X0252362Y0092520D02*
D03*
X0251181Y0109843D02*
D03*
X0274409Y0078347D02*
D03*
X0274409Y0092520D02*
D03*
X0274409Y0109843D02*
D03*
X0284252Y0078347D02*
D03*
X0284252Y0092520D02*
D03*
X0285433Y0109843D02*
D03*
X0294094Y0078347D02*
D03*
X0294094Y0092520D02*
D03*
X0303937Y0092520D02*
D03*
X0297756Y0109843D02*
D03*
X0313779Y0078347D02*
D03*
X0313779Y0092520D02*
D03*
X0310079Y0109843D02*
D03*
X0323622Y0078347D02*
D03*
X0323622Y0092520D02*
D03*
X0322402Y0109843D02*
D03*
X0333465Y0078347D02*
D03*
X0333465Y0092520D02*
D03*
X0343307Y0078347D02*
D03*
X0343307Y0092520D02*
D03*
X0343307Y0109843D02*
D03*
X0354331Y0078347D02*
D03*
X0354331Y0092520D02*
D03*
X0354331Y0109843D02*
D03*
X0377559Y0078347D02*
D03*
X0377559Y0092520D02*
D03*
X0377559Y0109843D02*
D03*
X0387402Y0078347D02*
D03*
X0387402Y0092520D02*
D03*
X0387402Y0109843D02*
D03*
X0397244Y0092520D02*
D03*
X0407087Y0078347D02*
D03*
X0407087Y0092520D02*
D03*
X0407087Y0109843D02*
D03*
X0416929Y0078347D02*
D03*
X0416929Y0092520D02*
D03*
X0426772Y0078347D02*
D03*
X0426772Y0092520D02*
D03*
X0416929Y0109843D02*
D03*
X0426772Y0109843D02*
D03*
X0216850Y0109843D02*
D03*
X0204528Y0109843D02*
D03*
X0192205Y0109843D02*
D03*
X0179882Y0109843D02*
D03*
X0167559Y0109843D02*
D03*
X0155236Y0109843D02*
D03*
X0142913Y0109843D02*
D03*
X0397244Y0109843D02*
D03*
D47*
X0114764Y0435433D02*
D03*
X0104764Y0435433D02*
D03*
X0094764Y0435433D02*
D03*
X0084764Y0435433D02*
D03*
X0074764Y0435433D02*
D03*
D56*
X0064764Y0435433D02*
D03*
D167*
X0191142Y0472047D02*
D03*
D92*
X0569980Y0227756D02*
D03*
D45*
X0275000Y0199127D02*
D03*
X0275000Y0219914D02*
D03*
X0275000Y0217316D02*
D03*
X0275000Y0214717D02*
D03*
X0275000Y0212119D02*
D03*
X0155807Y0396693D02*
D03*
X0155807Y0399291D02*
D03*
X0155807Y0375905D02*
D03*
X0155807Y0378504D02*
D03*
X0155807Y0381102D02*
D03*
X0155807Y0383701D02*
D03*
X0155807Y0386299D02*
D03*
X0155807Y0388898D02*
D03*
X0155807Y0391496D02*
D03*
X0155807Y0394094D02*
D03*
X0335047Y0307421D02*
D03*
X0335047Y0310020D02*
D03*
X0335047Y0312618D02*
D03*
X0335047Y0315216D02*
D03*
X0335047Y0317815D02*
D03*
X0335047Y0320413D02*
D03*
X0335047Y0323012D02*
D03*
X0335047Y0325610D02*
D03*
X0335047Y0328209D02*
D03*
X0335047Y0330807D02*
D03*
X0335047Y0333405D02*
D03*
X0335047Y0336004D02*
D03*
X0335047Y0338602D02*
D03*
X0335047Y0341201D02*
D03*
X0335047Y0343799D02*
D03*
X0335047Y0346398D02*
D03*
X0335047Y0348996D02*
D03*
X0335047Y0351594D02*
D03*
X0335047Y0354193D02*
D03*
X0335047Y0356791D02*
D03*
X0335047Y0359390D02*
D03*
X0335047Y0372382D02*
D03*
X0335047Y0382776D02*
D03*
X0335047Y0380177D02*
D03*
X0335047Y0377579D02*
D03*
X0335047Y0374980D02*
D03*
X0335047Y0286634D02*
D03*
X0335047Y0289232D02*
D03*
X0335047Y0291831D02*
D03*
X0335047Y0294429D02*
D03*
X0335047Y0297027D02*
D03*
X0335047Y0299626D02*
D03*
X0335047Y0302224D02*
D03*
X0335047Y0304823D02*
D03*
D145*
X0174724Y0251287D02*
D03*
X0170394Y0251287D02*
D03*
X0166063Y0251287D02*
D03*
X0161732Y0251287D02*
D03*
X0269012Y0196319D02*
D03*
X0266413Y0196319D02*
D03*
X0263815Y0196319D02*
D03*
X0261217Y0196319D02*
D03*
X0258618Y0196319D02*
D03*
X0256020Y0196319D02*
D03*
X0249717Y0196319D02*
D03*
X0247118Y0196319D02*
D03*
X0244520Y0196319D02*
D03*
X0240107Y0196319D02*
D03*
X0237508Y0196319D02*
D03*
X0234910Y0196319D02*
D03*
X0232311Y0196319D02*
D03*
X0219217Y0196319D02*
D03*
X0216618Y0196319D02*
D03*
X0214020Y0196319D02*
D03*
X0203602Y0196319D02*
D03*
X0201004Y0196319D02*
D03*
X0198406Y0196319D02*
D03*
X0195807Y0196319D02*
D03*
X0193209Y0196319D02*
D03*
X0190610Y0196319D02*
D03*
X0188012Y0196319D02*
D03*
X0185413Y0196319D02*
D03*
X0182815Y0196319D02*
D03*
X0180217Y0196319D02*
D03*
X0179055Y0251287D02*
D03*
X0183386Y0251287D02*
D03*
X0187716Y0251287D02*
D03*
X0192047Y0251287D02*
D03*
X0196378Y0251287D02*
D03*
X0200709Y0251287D02*
D03*
X0205039Y0251287D02*
D03*
X0209370Y0251287D02*
D03*
X0213701Y0251287D02*
D03*
X0218031Y0251287D02*
D03*
X0222362Y0251287D02*
D03*
X0226693Y0251287D02*
D03*
X0231024Y0251287D02*
D03*
X0235354Y0251287D02*
D03*
X0239685Y0251287D02*
D03*
X0244016Y0251287D02*
D03*
X0248346Y0251287D02*
D03*
X0252677Y0251287D02*
D03*
X0257008Y0251287D02*
D03*
X0261338Y0251287D02*
D03*
X0265669Y0251287D02*
D03*
X0270000Y0251287D02*
D03*
X0329626Y0399024D02*
D03*
X0161752Y0257571D02*
D03*
X0183406Y0257571D02*
D03*
X0187736Y0257571D02*
D03*
X0312303Y0399024D02*
D03*
X0307972Y0399024D02*
D03*
X0303642Y0399024D02*
D03*
X0299311Y0399024D02*
D03*
X0294980Y0399024D02*
D03*
X0290650Y0399024D02*
D03*
X0286319Y0399024D02*
D03*
X0281988Y0399024D02*
D03*
X0277657Y0399024D02*
D03*
X0273327Y0399024D02*
D03*
X0268996Y0399024D02*
D03*
X0264665Y0399024D02*
D03*
X0260335Y0399024D02*
D03*
X0256004Y0399024D02*
D03*
X0251673Y0399024D02*
D03*
X0247342Y0399024D02*
D03*
X0243012Y0399024D02*
D03*
X0238681Y0399024D02*
D03*
X0234350Y0399024D02*
D03*
X0230020Y0399024D02*
D03*
X0225689Y0399024D02*
D03*
X0222638Y0399024D02*
D03*
X0201398Y0399024D02*
D03*
X0206594Y0399024D02*
D03*
X0211791Y0399024D02*
D03*
X0217402Y0399024D02*
D03*
X0192067Y0257571D02*
D03*
X0196398Y0257571D02*
D03*
X0200729Y0257571D02*
D03*
X0205059Y0257571D02*
D03*
X0209390Y0257571D02*
D03*
X0213721Y0257571D02*
D03*
X0218051Y0257571D02*
D03*
X0222382Y0257571D02*
D03*
X0226713Y0257571D02*
D03*
X0231043Y0257571D02*
D03*
X0235374Y0257571D02*
D03*
X0239705Y0257571D02*
D03*
X0244036Y0257571D02*
D03*
X0248366Y0257571D02*
D03*
X0252697Y0257571D02*
D03*
X0257028Y0257571D02*
D03*
X0261358Y0257571D02*
D03*
X0265689Y0257571D02*
D03*
X0270020Y0257571D02*
D03*
X0274350Y0257571D02*
D03*
X0278681Y0257571D02*
D03*
X0283012Y0257571D02*
D03*
X0302067Y0257571D02*
D03*
X0296870Y0257571D02*
D03*
X0291673Y0257571D02*
D03*
X0287343Y0257571D02*
D03*
X0166083Y0257571D02*
D03*
X0170414Y0257571D02*
D03*
X0174744Y0257571D02*
D03*
X0179075Y0257571D02*
D03*
X0325295Y0399024D02*
D03*
X0320964Y0399024D02*
D03*
X0316634Y0399024D02*
D03*
X0214784Y0399024D02*
D03*
X0220020Y0399024D02*
D03*
X0295079Y0428051D02*
D03*
X0299409Y0428051D02*
D03*
X0303740Y0428051D02*
D03*
X0308071Y0428051D02*
D03*
X0312402Y0428051D02*
D03*
X0316732Y0428051D02*
D03*
D329*
X0388864Y0356845D02*
D03*
X0388864Y0355113D02*
D03*
X0388864Y0353381D02*
D03*
X0388864Y0351648D02*
D03*
X0388864Y0349916D02*
D03*
X0388864Y0348184D02*
D03*
X0388864Y0346452D02*
D03*
X0388864Y0333046D02*
D03*
X0388864Y0330448D02*
D03*
X0388864Y0327849D02*
D03*
X0388864Y0325251D02*
D03*
X0388864Y0320822D02*
D03*
X0388864Y0319089D02*
D03*
X0388864Y0317357D02*
D03*
X0388864Y0315625D02*
D03*
X0388864Y0313893D02*
D03*
X0388864Y0312160D02*
D03*
X0388864Y0310428D02*
D03*
X0388864Y0308696D02*
D03*
X0388864Y0300054D02*
D03*
X0388864Y0296921D02*
D03*
X0388864Y0293771D02*
D03*
X0388864Y0290621D02*
D03*
X0388864Y0281078D02*
D03*
X0388864Y0283676D02*
D03*
X0388864Y0287849D02*
D03*
D160*
X0389278Y0265113D02*
D03*
X0389278Y0242082D02*
D03*
X0389278Y0201256D02*
D03*
X0389278Y0203991D02*
D03*
X0389278Y0206669D02*
D03*
X0389278Y0215035D02*
D03*
X0389278Y0223873D02*
D03*
X0389278Y0226432D02*
D03*
D315*
X0392821Y0197593D02*
D03*
X0397447Y0197593D02*
D03*
X0402762Y0197593D02*
D03*
X0407388Y0197593D02*
D03*
X0435734Y0197593D02*
D03*
D222*
X0464967Y0198381D02*
D03*
D82*
X0439573Y0197200D02*
D03*
X0432310Y0197200D02*
D03*
X0425913Y0197200D02*
D03*
X0411404Y0197200D02*
D03*
X0414200Y0197200D02*
D03*
X0417743Y0197200D02*
D03*
X0429435Y0197200D02*
D03*
X0154331Y0194882D02*
G01*
G75*
D45*
X0275000Y0199127D02*
D03*
X0275000Y0219914D02*
D03*
X0275000Y0217316D02*
D03*
X0275000Y0214717D02*
D03*
X0275000Y0212119D02*
D03*
D145*
X0174725Y0251288D02*
D03*
X0170394Y0251288D02*
D03*
X0166063Y0251288D02*
D03*
X0161733Y0251288D02*
D03*
X0269012Y0196319D02*
D03*
X0266414Y0196319D02*
D03*
X0263815Y0196319D02*
D03*
X0261217Y0196319D02*
D03*
X0258618Y0196319D02*
D03*
X0256020Y0196319D02*
D03*
X0249717Y0196319D02*
D03*
X0247118Y0196319D02*
D03*
X0244520Y0196319D02*
D03*
X0240107Y0196319D02*
D03*
X0237509Y0196319D02*
D03*
X0234910Y0196319D02*
D03*
X0232312Y0196319D02*
D03*
X0219217Y0196319D02*
D03*
X0216618Y0196319D02*
D03*
X0214020Y0196319D02*
D03*
X0203603Y0196319D02*
D03*
X0201004Y0196319D02*
D03*
X0198406Y0196319D02*
D03*
X0195807Y0196319D02*
D03*
X0193209Y0196319D02*
D03*
X0190611Y0196319D02*
D03*
X0188012Y0196319D02*
D03*
X0185414Y0196319D02*
D03*
X0182815Y0196319D02*
D03*
X0180217Y0196319D02*
D03*
X0179055Y0251288D02*
D03*
X0183386Y0251288D02*
D03*
X0187717Y0251288D02*
D03*
X0192047Y0251288D02*
D03*
X0196378Y0251288D02*
D03*
X0200709Y0251288D02*
D03*
X0205040Y0251288D02*
D03*
X0209370Y0251288D02*
D03*
X0213701Y0251288D02*
D03*
X0218032Y0251288D02*
D03*
X0222362Y0251288D02*
D03*
X0226693Y0251288D02*
D03*
X0231024Y0251288D02*
D03*
X0235355Y0251288D02*
D03*
X0239685Y0251288D02*
D03*
X0244016Y0251288D02*
D03*
X0248347Y0251288D02*
D03*
X0252677Y0251288D02*
D03*
X0257008Y0251288D02*
D03*
X0261339Y0251288D02*
D03*
X0265669Y0251288D02*
D03*
X0270000Y0251288D02*
D03*
X0153937Y0255512D02*
G01*
G75*
D119*
X0327362Y0370433D02*
D03*
X0331362Y0350433D02*
D03*
X0323362Y0350433D02*
D03*
D145*
X0220020Y0399024D02*
D03*
X0214784Y0399024D02*
D03*
X0316634Y0399024D02*
D03*
X0320964Y0399024D02*
D03*
X0325295Y0399024D02*
D03*
X0179075Y0257571D02*
D03*
X0174744Y0257571D02*
D03*
X0170414Y0257571D02*
D03*
X0166083Y0257571D02*
D03*
X0287342Y0257571D02*
D03*
X0291673Y0257571D02*
D03*
X0296870Y0257571D02*
D03*
X0302067Y0257571D02*
D03*
X0283012Y0257571D02*
D03*
X0278681Y0257571D02*
D03*
X0274350Y0257571D02*
D03*
X0270020Y0257571D02*
D03*
X0265689Y0257571D02*
D03*
X0261358Y0257571D02*
D03*
X0257028Y0257571D02*
D03*
X0252697Y0257571D02*
D03*
X0248366Y0257571D02*
D03*
X0244036Y0257571D02*
D03*
X0239705Y0257571D02*
D03*
X0235374Y0257571D02*
D03*
X0231043Y0257571D02*
D03*
X0226713Y0257571D02*
D03*
X0222382Y0257571D02*
D03*
X0218051Y0257571D02*
D03*
X0213721Y0257571D02*
D03*
X0209390Y0257571D02*
D03*
X0205059Y0257571D02*
D03*
X0200728Y0257571D02*
D03*
X0196398Y0257571D02*
D03*
X0192067Y0257571D02*
D03*
X0217402Y0399024D02*
D03*
X0211791Y0399024D02*
D03*
X0206595Y0399024D02*
D03*
X0201398Y0399024D02*
D03*
X0222638Y0399024D02*
D03*
X0225689Y0399024D02*
D03*
X0230020Y0399024D02*
D03*
X0234350Y0399024D02*
D03*
X0238681Y0399024D02*
D03*
X0243012Y0399024D02*
D03*
X0247342Y0399024D02*
D03*
X0251673Y0399024D02*
D03*
X0256004Y0399024D02*
D03*
X0260335Y0399024D02*
D03*
X0264665Y0399024D02*
D03*
X0268996Y0399024D02*
D03*
X0273327Y0399024D02*
D03*
X0277657Y0399024D02*
D03*
X0281988Y0399024D02*
D03*
X0286319Y0399024D02*
D03*
X0290650Y0399024D02*
D03*
X0294980Y0399024D02*
D03*
X0299311Y0399024D02*
D03*
X0303642Y0399024D02*
D03*
X0307972Y0399024D02*
D03*
X0312303Y0399024D02*
D03*
X0187736Y0257571D02*
D03*
X0183406Y0257571D02*
D03*
X0161752Y0257571D02*
D03*
X0329626Y0399024D02*
D03*
D25*
X0335047Y0304823D02*
D03*
X0335047Y0302225D02*
D03*
X0335047Y0299626D02*
D03*
X0335047Y0297028D02*
D03*
X0335047Y0294429D02*
D03*
X0335047Y0291831D02*
D03*
X0335047Y0289232D02*
D03*
X0335047Y0286634D02*
D03*
X0335047Y0374980D02*
D03*
X0335047Y0377579D02*
D03*
X0335047Y0380177D02*
D03*
X0335047Y0382776D02*
D03*
X0335047Y0372382D02*
D03*
X0335047Y0359390D02*
D03*
X0335047Y0356791D02*
D03*
X0335047Y0354193D02*
D03*
X0335047Y0351595D02*
D03*
X0335047Y0348996D02*
D03*
X0335047Y0346398D02*
D03*
X0335047Y0343799D02*
D03*
X0335047Y0341201D02*
D03*
X0335047Y0338603D02*
D03*
X0335047Y0336004D02*
D03*
X0335047Y0333406D02*
D03*
X0335047Y0330807D02*
D03*
X0335047Y0328209D02*
D03*
X0335047Y0325610D02*
D03*
X0335047Y0323012D02*
D03*
X0335047Y0320414D02*
D03*
X0335047Y0317815D02*
D03*
X0335047Y0315217D02*
D03*
X0335047Y0312618D02*
D03*
X0335047Y0310020D02*
D03*
X0335047Y0307421D02*
D03*
X0155807Y0394095D02*
D03*
X0155807Y0391496D02*
D03*
X0155807Y0388898D02*
D03*
X0155807Y0386299D02*
D03*
X0155807Y0383701D02*
D03*
X0155807Y0381103D02*
D03*
X0155807Y0378504D02*
D03*
X0155807Y0375906D02*
D03*
X0155807Y0399292D02*
D03*
X0155807Y0396693D02*
D03*
X0362795Y0370472D02*
G01*
G75*
D100*
X0469488Y0397637D02*
D03*
X0512401Y0397637D02*
D03*
X0370767Y0382677D02*
D03*
X0413582Y0397637D02*
D03*
X0365302Y0397637D02*
D03*
X0272638Y0508780D02*
G01*
G75*
D100*
X0286122Y0562225D02*
D03*
X0313583Y0540276D02*
D03*
X0330906Y0540276D02*
D03*
X0322146Y0540276D02*
D03*
X0292323Y0542914D02*
D03*
X0308957Y0540276D02*
D03*
X0342339Y0542950D02*
D03*
X0278248Y0188976D02*
G01*
G75*
D100*
X0303219Y0223002D02*
D03*
X0335532Y0248818D02*
D03*
X0310630Y0221063D02*
D03*
X0281693Y0216633D02*
D03*
X0303150Y0243602D02*
D03*
X0151280Y0166929D02*
G01*
G75*
X0387795Y0195669D02*
G01*
G75*
D208*
X0495281Y0198873D02*
D03*
X0490337Y0198873D02*
D03*
D173*
X0389651Y0238833D02*
D03*
X0389651Y0235388D02*
D03*
X0389651Y0231156D02*
D03*
X0389651Y0218853D02*
D03*
X0389651Y0209896D02*
D03*
D329*
X0388864Y0356845D02*
D03*
X0388864Y0355113D02*
D03*
X0388864Y0353381D02*
D03*
X0388864Y0351648D02*
D03*
X0388864Y0349916D02*
D03*
X0388864Y0348184D02*
D03*
X0388864Y0346451D02*
D03*
X0388864Y0333046D02*
D03*
X0388864Y0330447D02*
D03*
X0388864Y0327849D02*
D03*
X0388864Y0325250D02*
D03*
X0388864Y0320821D02*
D03*
X0388864Y0319089D02*
D03*
X0388864Y0317357D02*
D03*
X0388864Y0315625D02*
D03*
X0388864Y0313892D02*
D03*
X0388864Y0312160D02*
D03*
X0388864Y0310428D02*
D03*
X0388864Y0308695D02*
D03*
X0388864Y0300054D02*
D03*
X0388864Y0296920D02*
D03*
X0388864Y0293771D02*
D03*
X0388864Y0290621D02*
D03*
X0388864Y0281077D02*
D03*
X0388864Y0283676D02*
D03*
X0388864Y0287849D02*
D03*
D160*
X0389278Y0265113D02*
D03*
X0389278Y0242081D02*
D03*
X0389278Y0201255D02*
D03*
X0389278Y0203991D02*
D03*
X0389278Y0206669D02*
D03*
X0389278Y0215035D02*
D03*
X0389278Y0223873D02*
D03*
X0389278Y0226432D02*
D03*
D315*
X0392821Y0197593D02*
D03*
X0397447Y0197593D02*
D03*
X0402762Y0197593D02*
D03*
X0407388Y0197593D02*
D03*
X0435734Y0197593D02*
D03*
D222*
X0464966Y0198381D02*
D03*
D82*
X0439573Y0197199D02*
D03*
X0432310Y0197199D02*
D03*
X0425912Y0197199D02*
D03*
X0411403Y0197199D02*
D03*
X0414200Y0197199D02*
D03*
X0417743Y0197199D02*
D03*
X0429435Y0197199D02*
D03*
X0117717Y0350295D02*
G01*
G75*
D100*
X0124016Y0399803D02*
D03*
X0140060Y0398622D02*
D03*
X0147343Y0371555D02*
D03*
X0142186Y0374114D02*
D03*
X0140414Y0380512D02*
D03*
X0147343Y0379232D02*
D03*
X0140119Y0383858D02*
D03*
X0139272Y0387303D02*
D03*
X0147343Y0389468D02*
D03*
X0140119Y0391141D02*
D03*
X0437106Y0403150D02*
G01*
G75*
D100*
X0452067Y0415748D02*
D03*
X0455610Y0415748D02*
D03*
X0440551Y0415748D02*
D03*
X0445571Y0415748D02*
D03*
X0447756Y0441044D02*
D03*
X0169173Y0412913D02*
G01*
G75*
D100*
X0200374Y0437322D02*
D03*
X0200669Y0423346D02*
D03*
X0199488Y0418326D02*
D03*
X0196043Y0420393D02*
D03*
X0527559Y0317717D02*
G01*
G75*
D100*
X0503150Y0348918D02*
D03*
X0517126Y0349213D02*
D03*
X0522146Y0348032D02*
D03*
X0520079Y0344587D02*
D03*
X0270571Y0426476D02*
G01*
G75*
D86*
X0318228Y0453819D02*
D03*
X0318228Y0443819D02*
D03*
X0308228Y0453819D02*
D03*
X0308228Y0443819D02*
D03*
X0298228Y0453819D02*
D03*
X0298228Y0443819D02*
D03*
X0288228Y0453819D02*
D03*
X0288228Y0443819D02*
D03*
X0278228Y0453819D02*
D03*
D167*
X0278228Y0443819D02*
D03*
D39*
X0316732Y0428051D02*
D03*
X0312402Y0428051D02*
D03*
X0308071Y0428051D02*
D03*
X0303740Y0428051D02*
D03*
X0299410Y0428051D02*
D03*
X0295079Y0428051D02*
D03*
X0529921Y0381988D02*
%LPD*%
G01*
D246*
X0540748Y0377815D03*
X0536748Y0357815D03*
X0544748Y0357815D03*
M02*
